# https://github.com/mikedh/trimesh
v 0.01366125 -0.01771000 0.03201989
v 0.01366125 -0.00989444 0.03201989
v 0.01366125 -0.01770334 0.03164456
v 0.01366205 -0.02690253 0.03201989
v 0.01782277 -0.00989444 0.03201989
v 0.01366125 -0.00989444 0.02923533
v 0.01366125 -0.01743028 0.02994864
v 0.01366205 -0.02679763 0.03137799
v 0.01430849 -0.02676267 0.03161103
v 0.01387300 -0.02687755 0.03201989
v 0.02032145 -0.01306629 0.03201989
v 0.02029588 -0.01323113 0.03092062
v 0.01772369 -0.00989444 0.03157914
v 0.01494854 -0.00989444 0.02923533
v 0.01366125 -0.01650620 0.02923533
v 0.01366205 -0.02512929 0.02923533
v 0.01366205 -0.02560715 0.02969761
v 0.01366205 -0.02594681 0.03003150
v 0.01433007 -0.02591351 0.03005304
v 0.01604086 -0.02567375 0.03024983
v 0.01440677 -0.02677432 0.03201989
v 0.01604086 -0.02630313 0.03164456
v 0.02039975 -0.01318284 0.03201989
v 0.02072657 -0.01390212 0.03155243
v 0.02150965 -0.01576361 0.03164456
v 0.02058754 -0.01436999 0.03047034
v 0.01956713 -0.01389713 0.02982544
v 0.01777323 -0.01230538 0.02923533
v 0.01906132 -0.01234368 0.03039429
v 0.01866259 -0.01139795 0.03073064
v 0.01612237 -0.00989444 0.02990121
v 0.01606483 -0.01063038 0.02923533
v 0.01433007 -0.02506935 0.02923533
v 0.01605365 -0.02472969 0.02923533
v 0.01702531 -0.02449492 0.02923533
v 0.01704768 -0.02448826 0.02923533
v 0.01726503 -0.02538903 0.03053085
v 0.01604086 -0.02633143 0.03201989
v 0.01754710 -0.02557218 0.03164456
v 0.02078171 -0.01394209 0.03201989
v 0.02153522 -0.01576361 0.03201989
v 0.02159915 -0.01613990 0.03201989
v 0.02182449 -0.01747524 0.03201989
v 0.02179732 -0.01747524 0.03164456
v 0.02085282 -0.01576361 0.03020949
v 0.01994109 -0.01576361 0.02935417
v 0.01970217 -0.01550387 0.02923533
v 0.01914442 -0.01428341 0.02923533
v 0.01758066 -0.02413695 0.02923533
v 0.01901338 -0.02387887 0.03042891
v 0.01840050 -0.02501774 0.03164456
v 0.01756867 -0.02558883 0.03201989
v 0.01842287 -0.02503439 0.03201989
v 0.02180771 -0.01784986 0.03201989
v 0.02099506 -0.01747524 0.03009119
v 0.02179332 -0.01816955 0.03201989
v 0.02176456 -0.01816955 0.03164456
v 0.02095191 -0.01918520 0.03012472
v 0.02097748 -0.01816955 0.03010455
v 0.02015125 -0.01747524 0.02923560
v 0.01980525 -0.01576361 0.02923533
v 0.01792106 -0.02379895 0.02923533
v 0.01928746 -0.02416359 0.03164456
v 0.01893747 -0.02275665 0.02923533
v 0.01926429 -0.02241199 0.02923533
v 0.02051562 -0.02209398 0.03055129
v 0.02014325 -0.02321619 0.03164456
v 0.01930424 -0.02417857 0.03201989
v 0.02008972 -0.01918853 0.02923533
v 0.02174538 -0.01918520 0.03201989
v 0.02171661 -0.01918520 0.03164456
v 0.02075534 -0.02089517 0.03030353
v 0.02015045 -0.01747524 0.02923533
v 0.02015924 -0.02323784 0.03201989
v 0.01969897 -0.02088018 0.02923533
v 0.02131948 -0.02089517 0.03164456
v 0.02067943 -0.02236038 0.03164456
v 0.02134665 -0.02089517 0.03201989
v 0.02069301 -0.02238202 0.03201989
f 16 7 15
f 3 4 1
f 3 7 4
f 4 7 8
f 76 78 77
f 70 78 76
f 74 77 79
f 79 77 78
f 76 77 66
f 66 50 65
f 37 50 51
f 49 50 37
f 37 36 49
f 76 66 72
f 72 75 69
f 72 69 58
f 65 75 72
f 72 66 65
f 50 66 67
f 67 77 74
f 67 66 77
f 45 44 55
f 60 55 69
f 60 45 55
f 58 69 59
f 69 55 59
f 59 44 58
f 55 44 59
f 4 8 9
f 37 51 39
f 39 22 37
f 39 53 52
f 51 53 39
f 52 38 39
f 39 38 22
f 50 49 62
f 18 19 8
f 18 8 7
f 20 36 37
f 37 22 20
f 22 9 20
f 8 19 20
f 20 9 8
f 31 32 14
f 30 28 32
f 30 32 31
f 11 12 5
f 23 12 11
f 24 12 23
f 71 70 76
f 76 72 71
f 71 72 58
f 43 44 25
f 44 45 25
f 25 45 26
f 26 12 25
f 12 24 25
f 63 51 50
f 50 67 63
f 63 53 51
f 63 67 74
f 73 60 69
f 45 60 46
f 47 26 46
f 26 45 46
f 22 38 21
f 21 9 22
f 65 50 64
f 50 62 64
f 19 33 34
f 7 16 17
f 17 18 7
f 19 18 17
f 16 33 17
f 17 33 19
f 48 26 47
f 13 30 31
f 5 12 13
f 12 30 13
f 12 28 29
f 29 30 12
f 28 30 29
f 40 24 23
f 41 25 40
f 40 25 24
f 54 44 43
f 54 56 44
f 58 44 57
f 57 71 58
f 44 56 57
f 43 25 42
f 42 25 41
f 68 63 74
f 53 63 68
f 60 73 61
f 47 46 61
f 61 46 60
f 4 9 10
f 9 21 10
f 19 34 35
f 36 20 35
f 35 20 19
f 27 48 28
f 26 48 27
f 27 12 26
f 27 28 12
f 1 2 3
f 3 2 6
f 6 15 3
f 15 7 3
f 6 2 13
f 2 5 13
f 13 14 6
f 31 14 13
f 57 56 70
f 70 71 57
f 10 2 1
f 1 4 10
f 10 68 74
f 10 5 2
f 10 11 5
f 41 40 10
f 10 54 43
f 74 79 10
f 78 70 10
f 10 79 78
f 43 42 10
f 10 38 52
f 52 53 10
f 23 11 10
f 70 56 10
f 10 21 38
f 10 40 23
f 56 54 10
f 10 42 41
f 53 68 10
f 35 15 6
f 35 75 65
f 35 33 16
f 35 16 15
f 35 48 47
f 47 61 35
f 35 49 36
f 6 14 35
f 69 75 35
f 35 62 49
f 65 64 35
f 35 14 32
f 32 28 35
f 35 73 69
f 35 64 62
f 35 34 33
f 28 48 35
f 35 61 73

