# https://github.com/mikedh/trimesh
v 0.00648883 -0.01581849 -0.00094078
v 0.00648883 0.00379667 -0.00094078
v 0.01261797 -0.01581849 -0.00094078
v 0.00648883 -0.01581849 0.02580529
v 0.01261797 0.00379667 -0.00094078
v 0.00648883 0.00379667 0.01875941
v 0.01291092 -0.01577241 -0.00090675
v 0.01291092 -0.01581849 -0.00090413
v 0.01291092 -0.01581849 0.02580529
v 0.00648883 0.00053452 0.02580529
v 0.01291092 0.00379667 -0.00090675
v 0.01291092 0.00379667 0.01878559
v 0.01291092 0.00068428 0.02580529
f 8 3 7
f 6 10 13
f 13 12 6
f 9 10 4
f 13 10 9
f 1 2 5
f 5 3 1
f 5 11 7
f 7 3 5
f 8 4 1
f 1 3 8
f 8 9 4
f 8 12 13
f 7 11 8
f 13 9 8
f 11 12 8
f 1 4 6
f 6 2 1
f 4 10 6
f 6 12 11
f 6 5 2
f 11 5 6

