# https://github.com/mikedh/trimesh
v 0.01366125 -0.00989197 0.03201989
v 0.01366125 -0.00989197 0.02923533
v 0.01092812 -0.00989197 0.03201989
v 0.01366125 -0.01770903 0.03201989
v 0.01105173 -0.00989197 0.02923533
v 0.01366125 -0.01650487 0.02923533
v 0.01092812 -0.00989197 0.02927186
v 0.01092812 -0.01771746 0.03201989
v 0.01266218 -0.01771746 0.03201989
v 0.01265469 -0.01771746 0.03164456
v 0.01240398 -0.01771746 0.03008792
v 0.01366125 -0.01770367 0.03164456
v 0.01092812 -0.00989274 0.02923533
v 0.01366125 -0.01742867 0.02994837
v 0.01164250 -0.01771746 0.02923533
v 0.01092812 -0.01771746 0.02923533
f 13 7 5
f 4 9 10
f 10 11 4
f 15 6 14
f 14 11 15
f 4 11 12
f 11 14 12
f 3 1 5
f 1 2 5
f 5 7 3
f 16 8 3
f 3 7 16
f 16 7 13
f 3 8 9
f 9 1 3
f 9 4 1
f 6 5 2
f 6 16 13
f 13 5 6
f 15 16 6
f 8 16 10
f 10 16 15
f 10 9 8
f 15 11 10
f 1 4 12
f 12 2 1
f 12 6 2
f 12 14 6

