# https://github.com/mikedh/trimesh
v 0.02235715 -0.01807667 0.04875093
v 0.02233304 -0.01807667 0.05046081
v 0.02266514 -0.02089604 0.04875093
v 0.02226073 -0.01807667 0.04804554
v 0.02240669 -0.01918603 0.05046081
v 0.02281110 -0.02260605 0.04875093
v 0.02215361 -0.01807667 0.05202363
v 0.02217905 -0.01807667 0.04760312
v 0.02250579 -0.02089604 0.05046081
v 0.02287672 -0.02431732 0.04875093
v 0.02244955 -0.02260605 0.04720805
v 0.02235313 -0.02089604 0.04731897
v 0.02200095 -0.01807667 0.05287732
v 0.02256605 -0.02260605 0.05046081
v 0.02170501 -0.01807667 0.04704853
v 0.02283655 -0.02602607 0.04875093
v 0.02247097 -0.02602607 0.04719559
v 0.02249909 -0.02431732 0.04716194
v 0.02258078 -0.02431732 0.05046081
v 0.02256337 -0.02602607 0.05046081
v 0.02175054 -0.02431732 0.04630575
v 0.02170099 -0.02260605 0.04635311
v 0.02161261 -0.02089604 0.04646403
v 0.02144522 -0.01807667 0.04674818
v 0.02090155 -0.01807667 0.05856155
v 0.02213888 -0.02729284 0.05181052
v 0.02228751 -0.02759002 0.05046081
v 0.02240803 -0.02765172 0.04875093
v 0.02229957 -0.02737595 0.04745481
v 0.02171170 -0.02602607 0.04633940
v 0.02090289 -0.01873398 0.05856155
v 0.02090289 -0.02602607 0.05856155
v 0.02085066 -0.02728529 0.05856155
v 0.02083057 -0.02773734 0.05856155
v 0.02085602 -0.02602607 0.04602410
v 0.02089485 -0.02431732 0.04602160
v 0.02084664 -0.02260605 0.04602160
v 0.02075692 -0.02089604 0.04602534
v 0.02059088 -0.01807667 0.04605401
v 0.02089217 -0.01807667 0.04626462
v 0.00919647 -0.01807667 0.05856155
v 0.02064176 -0.02862131 0.05856155
v 0.02196613 -0.02844502 0.05046081
v 0.02053731 -0.02898145 0.05856155
v 0.02196479 -0.02850673 0.04875093
v 0.02082656 -0.02902930 0.04734389
v 0.02130596 -0.02795519 0.04682918
v 0.02024271 -0.02853443 0.04620356
v 0.02064444 -0.02739484 0.04607893
v 0.01946067 -0.02602607 0.04586208
v 0.01946067 -0.02431732 0.04585959
v 0.01946067 -0.02260605 0.04585959
v 0.01946067 -0.02089604 0.04586333
v 0.01946067 -0.01918603 0.04587704
v 0.01946067 -0.01807667 0.04589074
v 0.01987847 -0.01807667 0.04594807
v 0.02064846 -0.01918603 0.04604030
v 0.00919647 -0.01807667 0.04857147
v 0.00919647 -0.03050510 0.05856155
v 0.02102876 -0.02928492 0.05217193
v 0.02111178 -0.02928869 0.05046081
v 0.02063373 -0.02910485 0.05730157
v 0.02077299 -0.02921188 0.05559169
v 0.02090690 -0.02926729 0.05388057
v 0.01984232 -0.02983645 0.05856155
v 0.02110911 -0.02926981 0.04875093
v 0.01990258 -0.03012481 0.04875093
v 0.01887147 -0.03039806 0.04771030
v 0.01775064 -0.02976846 0.04664972
v 0.01910180 -0.02876108 0.04610261
v 0.01958789 -0.02787334 0.04600665
v 0.01775064 -0.02773734 0.04588077
v 0.01603927 -0.02773734 0.04586333
v 0.01775064 -0.02602607 0.04585959
v 0.00919647 -0.02089604 0.04583092
v 0.00919647 -0.01918603 0.04582968
v 0.00919781 -0.01807667 0.04583092
v 0.01775064 -0.01807667 0.04585959
v 0.01835190 -0.01807667 0.04586582
v 0.00919647 -0.03093952 0.05856030
v 0.00919915 -0.03093952 0.05856155
v 0.01991329 -0.03006815 0.05559169
v 0.01991999 -0.03012229 0.05388057
v 0.01993472 -0.03014370 0.05046081
v 0.01988517 -0.02995986 0.05730157
v 0.01921294 -0.03036028 0.05856155
v 0.01904689 -0.03046102 0.04875093
v 0.01775064 -0.03076071 0.04875093
v 0.01775064 -0.03051517 0.04750591
v 0.01603927 -0.03058316 0.04739250
v 0.01603927 -0.02983645 0.04653756
v 0.01775064 -0.02891219 0.04604279
v 0.01603927 -0.02898019 0.04602534
v 0.00919915 -0.02773734 0.04586208
v 0.00919647 -0.02260605 0.04583716
v 0.00919647 -0.03093952 0.05045956
v 0.01603927 -0.03093952 0.05856155
v 0.01898797 -0.03050384 0.05856155
v 0.01902948 -0.03050384 0.05730157
v 0.01991731 -0.03013992 0.05217193
v 0.01907903 -0.03046732 0.05046081
v 0.01775064 -0.03078716 0.05046081
v 0.01603927 -0.03093952 0.05046081
v 0.01603927 -0.03090175 0.04875093
v 0.00919647 -0.03090175 0.04874968
v 0.00919647 -0.03058316 0.04739250
v 0.00919915 -0.02983645 0.04653756
v 0.00919647 -0.02898019 0.04602534
v 0.00919647 -0.02773734 0.04586208
v 0.01729937 -0.03085390 0.05856155
v 0.01775064 -0.03082241 0.05856155
v 0.01775064 -0.03082241 0.05730157
v 0.00919647 -0.02983519 0.04653756
f 58 77 76
f 106 113 107
f 107 113 108
f 3 6 8
f 32 20 19
f 19 20 10
f 81 59 80
f 103 105 104
f 27 44 43
f 99 83 98
f 4 3 8
f 1 3 4
f 87 68 67
f 105 106 90
f 104 105 90
f 90 91 69
f 43 61 45
f 35 50 36
f 32 19 31
f 31 19 25
f 105 103 96
f 33 20 32
f 33 34 20
f 44 27 42
f 84 61 83
f 84 99 101
f 84 87 67
f 101 87 84
f 101 99 112
f 98 83 82
f 83 61 82
f 29 45 46
f 67 68 46
f 2 3 1
f 6 3 2
f 25 19 14
f 14 19 10
f 56 38 55
f 36 53 37
f 11 6 10
f 10 18 11
f 53 78 79
f 52 78 53
f 52 53 36
f 77 78 52
f 76 77 52
f 68 87 88
f 88 103 104
f 66 45 61
f 66 84 67
f 61 84 66
f 67 46 66
f 66 46 45
f 28 45 29
f 28 27 43
f 43 45 28
f 17 18 10
f 21 11 18
f 18 17 21
f 21 35 36
f 36 37 21
f 21 37 38
f 21 38 39
f 48 46 68
f 48 68 69
f 69 70 48
f 34 42 26
f 26 42 27
f 20 34 26
f 83 99 100
f 100 84 83
f 99 84 100
f 97 103 110
f 103 112 110
f 85 65 86
f 98 82 86
f 86 82 85
f 63 65 85
f 60 61 43
f 60 82 61
f 5 2 7
f 6 2 5
f 25 14 13
f 13 14 7
f 7 14 9
f 6 5 9
f 9 5 7
f 10 6 9
f 9 14 10
f 57 56 39
f 39 38 57
f 38 56 57
f 40 23 39
f 40 24 23
f 8 6 12
f 6 11 12
f 12 11 23
f 12 15 8
f 24 15 12
f 23 24 12
f 54 79 55
f 53 79 54
f 55 38 54
f 54 37 53
f 38 37 54
f 50 72 73
f 95 75 73
f 73 72 93
f 76 52 51
f 51 75 76
f 50 75 51
f 36 50 51
f 51 52 36
f 68 88 89
f 69 68 89
f 89 90 69
f 104 90 89
f 89 88 104
f 101 112 102
f 102 87 101
f 102 88 87
f 102 112 103
f 103 88 102
f 16 28 29
f 29 17 16
f 16 17 10
f 10 20 16
f 27 28 16
f 20 26 16
f 16 26 27
f 23 11 22
f 11 21 22
f 39 23 22
f 22 21 39
f 35 21 30
f 30 21 17
f 30 17 29
f 29 46 47
f 46 48 47
f 47 30 29
f 48 30 47
f 111 110 112
f 111 99 98
f 111 112 99
f 44 65 62
f 65 63 62
f 43 44 62
f 62 63 43
f 85 82 64
f 82 60 64
f 64 63 85
f 43 63 64
f 64 60 43
f 71 72 50
f 71 48 70
f 93 72 92
f 91 93 92
f 92 71 70
f 72 71 92
f 69 91 92
f 92 70 69
f 109 95 94
f 95 73 94
f 94 73 93
f 74 75 50
f 50 73 74
f 74 73 75
f 35 30 49
f 49 30 48
f 48 71 49
f 50 35 49
f 49 71 50
f 107 91 90
f 90 106 107
f 97 81 96
f 96 81 80
f 96 103 97
f 93 91 107
f 107 108 93
f 41 25 40
f 40 58 41
f 40 56 55
f 77 58 40
f 40 4 8
f 40 78 77
f 40 2 1
f 1 4 40
f 55 79 40
f 25 13 40
f 7 2 40
f 39 56 40
f 8 15 40
f 40 79 78
f 40 13 7
f 40 15 24
f 75 96 80
f 75 59 41
f 75 108 113
f 80 59 75
f 41 58 75
f 113 106 75
f 75 58 76
f 75 106 105
f 109 108 75
f 105 96 75
f 75 95 109
f 41 59 111
f 59 81 111
f 111 25 41
f 32 31 111
f 98 86 111
f 44 42 111
f 111 81 97
f 111 33 32
f 111 31 25
f 34 33 111
f 111 42 34
f 111 65 44
f 97 110 111
f 111 86 65
f 94 108 109
f 94 93 108

