# https://github.com/mikedh/trimesh
v 0.00918152 0.03352641 0.07817314
v -0.00440171 0.03352641 0.07817314
v 0.00918152 0.02294023 0.07817314
v 0.00918152 0.03352641 0.05856155
v -0.00623524 0.03041947 0.07765099
v -0.00457827 0.03225378 0.07817314
v -0.00623524 0.03352641 0.07705204
v -0.00623524 0.03330566 0.07717490
v -0.00623524 0.03213046 0.07750125
v -0.00455865 0.02294023 0.07817314
v 0.00918152 0.02294023 0.05856155
v -0.00623524 0.03352641 0.05856155
v -0.00623524 0.02870951 0.07766442
v -0.00467938 0.03044538 0.07817314
v -0.00466881 0.02528857 0.07817314
v -0.00623524 0.02695085 0.07766442
v -0.00623524 0.02528857 0.07763755
v -0.00623524 0.02524089 0.07763563
v -0.00623524 0.02294023 0.07743214
v -0.00623524 0.02294023 0.05856155
v -0.00468692 0.02872610 0.07817314
v -0.00468692 0.02699956 0.07817314
f 5 2 9
f 6 2 5
f 8 2 7
f 8 9 2
f 14 6 5
f 5 13 14
f 14 13 21
f 10 15 16
f 22 16 15
f 18 19 10
f 10 16 17
f 17 18 10
f 11 4 1
f 1 3 11
f 1 4 12
f 12 2 1
f 7 2 12
f 4 11 12
f 12 11 20
f 19 11 3
f 20 11 19
f 3 10 19
f 22 3 1
f 1 2 22
f 22 10 3
f 22 14 21
f 2 6 22
f 22 15 10
f 6 14 22
f 13 16 22
f 21 13 22
f 17 13 5
f 17 12 20
f 5 9 17
f 7 12 17
f 20 19 17
f 17 8 7
f 9 8 17
f 17 16 13
f 19 18 17

