# https://github.com/mikedh/trimesh
v -0.00623500 -0.01010293 0.05856362
v -0.00623500 -0.00677295 0.05856362
v -0.00380785 -0.01010293 0.05856362
v -0.00623500 -0.01010293 0.07855724
v -0.00380785 -0.00677295 0.05856362
v -0.00623500 -0.00677295 0.07971795
v -0.00380785 -0.01010293 0.07816896
v -0.00588307 -0.01010293 0.07904727
v -0.00623500 -0.01002371 0.07892061
v -0.00380785 -0.00677295 0.07969095
v -0.00623500 -0.00721141 0.07971795
v -0.00380785 -0.00892285 0.07977401
v -0.00381046 -0.01010293 0.07968473
v -0.00433277 -0.01010293 0.07956014
v -0.00623500 -0.00896490 0.07946463
v -0.00623500 -0.01001328 0.07896629
v -0.00623500 -0.00726422 0.07971379
v -0.00623500 -0.00892155 0.07947916
f 12 13 7
f 12 6 11
f 11 13 12
f 10 6 12
f 15 16 8
f 13 11 17
f 17 18 13
f 4 8 9
f 9 8 16
f 15 8 14
f 14 18 15
f 13 18 14
f 1 2 5
f 5 3 1
f 3 5 10
f 10 7 3
f 12 7 10
f 10 5 2
f 2 6 10
f 9 2 1
f 1 4 9
f 9 6 2
f 9 11 6
f 9 17 11
f 9 16 15
f 15 18 9
f 18 17 9
f 1 3 14
f 3 7 14
f 14 7 13
f 14 4 1
f 14 8 4

