# https://github.com/mikedh/trimesh
v 0.00762258 0.01762798 0.03106336
v 0.00748681 0.01689757 0.02972154
v 0.00748681 0.01762798 0.03102495
v -0.00147665 0.01762798 0.03106336
v 0.00958473 0.01723342 0.03332135
v 0.00958473 0.01723342 0.03182695
v 0.00606122 0.01707300 0.02972154
v 0.00762520 0.01682713 0.02972154
v 0.00577532 0.01709060 0.02972154
v 0.00577532 0.01762798 0.03096716
v -0.00144662 0.01762798 0.03105666
v -0.00106281 0.01706973 0.02972154
v -0.00277430 0.01661453 0.02972154
v -0.00369205 0.01723342 0.03194076
v -0.00371425 0.01723342 0.03230441
v -0.00375080 0.01723342 0.03332135
v 0.00958473 0.01118993 0.03332135
v 0.00958473 0.01502459 0.03161940
v 0.00885105 0.01502459 0.02972154
v 0.00882624 0.01522871 0.02972154
v 0.00859778 0.01631259 0.02972154
v 0.00437193 0.01709517 0.02972154
v 0.00483276 0.01762798 0.03096540
v -0.00106281 0.01762798 0.03097174
v 0.00064607 0.01709517 0.02972154
v -0.00368031 0.01605042 0.02972154
v -0.00373383 0.01502459 0.02972154
v -0.00374036 0.01331529 0.02972154
v -0.00375211 0.01670127 0.03332135
v 0.00875705 0.01160535 0.02972154
v 0.00958473 0.01160535 0.03295981
v 0.00937846 0.01096624 0.03332135
v 0.00861345 0.01096559 0.02972154
v 0.00958473 0.01339551 0.03185760
v 0.00885496 0.01331529 0.02972154
v 0.00406514 0.01762798 0.03096399
v -0.00024819 0.01762798 0.03096787
v 0.00064607 0.01762798 0.03096399
v -0.00374819 0.01331529 0.03332135
v -0.00375080 0.01499067 0.03332135
v -0.00368422 0.01188969 0.02972154
v -0.00368422 0.01187143 0.02993437
v -0.00368553 0.01183882 0.03106336
v 0.00877272 0.01181795 0.02972154
v 0.00865261 0.01096559 0.03106336
v -0.00361373 0.01096624 0.03332135
v -0.00354192 0.01096559 0.02972154
v -0.00368814 0.01179774 0.03332135
v -0.00361111 0.01113971 0.02972154
v -0.00363461 0.01127406 0.03106336
v -0.00363461 0.01119189 0.03332135
v -0.00310459 0.01096559 0.03106336
v -0.00361373 0.01096624 0.03330866
v -0.00355890 0.01096559 0.02993437
v -0.00355237 0.01096559 0.02984416
v -0.00357717 0.01101059 0.02972154
v -0.00359414 0.01103341 0.02972154
v -0.00359937 0.01101711 0.02993437
v -0.00360589 0.01098385 0.03106336
v -0.00360850 0.01096624 0.03164442
v -0.00359284 0.01096624 0.03106336
f 15 16 4
f 6 1 5
f 2 1 6
f 20 21 6
f 33 32 45
f 43 48 39
f 12 13 4
f 2 6 8
f 8 6 21
f 18 35 19
f 19 6 18
f 20 6 19
f 17 32 33
f 34 35 18
f 57 56 58
f 48 43 51
f 13 26 14
f 14 26 15
f 4 13 14
f 14 15 4
f 28 43 39
f 29 16 28
f 30 34 31
f 31 17 30
f 30 17 33
f 54 52 46
f 54 60 61
f 61 58 54
f 29 28 40
f 40 28 39
f 27 28 16
f 16 15 27
f 15 26 27
f 22 36 23
f 23 10 22
f 22 10 9
f 11 12 4
f 11 24 12
f 12 24 25
f 35 34 44
f 34 30 44
f 46 51 53
f 51 60 53
f 53 54 46
f 60 54 53
f 55 54 58
f 55 56 47
f 55 58 56
f 28 41 42
f 43 28 42
f 57 58 49
f 49 42 41
f 3 9 10
f 7 9 3
f 2 7 3
f 3 1 2
f 43 42 50
f 50 51 43
f 50 60 51
f 42 49 50
f 59 49 58
f 59 58 61
f 61 60 59
f 60 50 59
f 59 50 49
f 37 38 25
f 37 25 24
f 1 16 5
f 4 16 1
f 18 6 34
f 34 6 5
f 5 17 34
f 34 17 31
f 32 46 52
f 52 45 32
f 40 17 5
f 40 16 29
f 40 46 32
f 5 16 40
f 40 51 46
f 39 48 40
f 32 17 40
f 48 51 40
f 55 47 33
f 45 52 55
f 33 45 55
f 52 54 55
f 49 56 57
f 13 12 49
f 33 47 49
f 49 30 33
f 49 21 20
f 20 19 49
f 49 7 2
f 2 8 49
f 49 26 13
f 49 27 26
f 22 9 49
f 49 8 21
f 49 19 35
f 47 56 49
f 35 44 49
f 49 25 22
f 49 41 28
f 28 27 49
f 49 9 7
f 12 25 49
f 49 44 30
f 22 25 38
f 38 36 22
f 4 1 37
f 37 11 4
f 37 23 36
f 1 3 37
f 10 23 37
f 24 11 37
f 37 3 10
f 36 38 37

