# https://github.com/mikedh/trimesh
v 0.01443219 0.01513882 0.04077120
v 0.01443219 0.01975618 0.04102196
v 0.01838898 0.01513882 0.04098539
v 0.01443219 0.01513882 0.05856155
v 0.01598082 0.01975618 0.04131801
v 0.01443219 0.01975618 0.05856155
v 0.01643596 0.01975618 0.04152001
v 0.01838898 0.01527486 0.04102893
v 0.01838898 0.01513882 0.05856155
v 0.01838898 0.01975618 0.05856155
v 0.01750931 0.01975618 0.04215911
v 0.01838898 0.01626740 0.04145035
v 0.01838898 0.01975618 0.04364803
v 0.01773823 0.01975618 0.04246560
v 0.01838898 0.01779009 0.04218349
v 0.01775876 0.01975618 0.04249346
f 2 3 1
f 3 2 5
f 13 15 16
f 11 15 12
f 3 5 7
f 14 15 11
f 14 16 15
f 11 12 8
f 8 7 11
f 3 7 8
f 9 4 1
f 1 3 9
f 1 4 6
f 6 2 1
f 4 9 6
f 6 9 10
f 10 13 14
f 2 6 14
f 14 6 10
f 14 5 2
f 13 16 14
f 11 7 14
f 14 7 5
f 8 9 3
f 10 9 8
f 8 13 10
f 8 15 13
f 8 12 15

