# https://github.com/mikedh/trimesh
v -0.01303856 0.01006462 -0.00094023
v -0.01320917 0.01006462 -0.00090449
v -0.01303856 0.01232094 -0.00094023
v -0.00706701 0.01006462 -0.00094023
v -0.01375532 0.01232094 -0.00078833
v -0.01474911 0.01006462 -0.00057668
v -0.00706701 0.01232094 -0.00094023
v -0.00706701 0.01006462 0.00476418
v -0.01474911 0.01232094 -0.00057668
v -0.01568837 0.01006462 -0.00010648
v -0.00706701 0.01232094 0.00476418
v -0.01599619 0.01006462 0.00476418
v -0.01568837 0.01232094 -0.00010648
v -0.01585635 0.01006462 0.00085570
v -0.01605071 0.01232094 0.00476418
v -0.01605071 0.01160418 0.00476418
v -0.01586427 0.01006462 0.00102602
v -0.01585635 0.01232094 0.00085570
f 12 16 17
f 17 16 14
f 9 5 6
f 2 6 5
f 2 3 1
f 2 5 3
f 4 1 7
f 1 3 7
f 4 7 8
f 8 7 11
f 15 11 5
f 5 7 3
f 5 18 15
f 11 7 5
f 13 18 5
f 5 9 13
f 16 11 15
f 16 8 11
f 16 12 8
f 15 18 16
f 18 14 16
f 10 18 13
f 10 14 18
f 13 9 6
f 6 10 13
f 2 1 4
f 4 8 2
f 8 12 2
f 12 17 2
f 14 10 2
f 2 17 14
f 10 6 2

