# https://github.com/mikedh/trimesh
v 0.00958495 0.01118948 0.03332118
v 0.00958495 0.01160513 0.03295982
v 0.01006725 0.01159980 0.03332118
v 0.00958495 0.02479914 0.03332118
v 0.01124359 0.01293199 0.03332118
v 0.00958495 0.01339559 0.03185777
v 0.01090119 0.02357753 0.03332118
v 0.00958495 0.02390258 0.03251267
v 0.01140817 0.01335829 0.03332118
v 0.00958495 0.01502619 0.03161953
v 0.01124469 0.01502619 0.03277107
v 0.01168491 0.01408300 0.03332118
v 0.01090847 0.02356687 0.03332118
v 0.00958495 0.02317121 0.03202720
v 0.00958495 0.02015646 0.03167951
v 0.01129338 0.02015646 0.03274458
v 0.01126320 0.01673673 0.03274458
v 0.01179022 0.01502619 0.03332118
v 0.01162806 0.02191628 0.03332118
v 0.01090009 0.02199755 0.03275824
v 0.00958495 0.02199355 0.03175764
v 0.00958495 0.02198289 0.03175664
v 0.01183561 0.02015646 0.03332118
v 0.01183561 0.01900278 0.03332118
v 0.01182570 0.01673673 0.03332118
v 0.01180565 0.01561769 0.03332118
f 15 16 10
f 23 16 19
f 19 14 13
f 21 16 22
f 16 15 22
f 11 6 10
f 12 6 11
f 21 14 20
f 14 19 20
f 20 16 21
f 20 19 16
f 6 5 2
f 9 6 12
f 9 5 6
f 7 8 4
f 14 8 7
f 13 14 7
f 24 16 23
f 24 25 16
f 12 11 18
f 17 25 26
f 26 18 17
f 17 18 11
f 16 25 17
f 10 16 17
f 17 11 10
f 1 2 3
f 3 2 5
f 21 22 2
f 1 4 2
f 2 15 10
f 10 6 2
f 2 14 21
f 4 8 2
f 2 8 14
f 2 22 15
f 3 4 1
f 23 19 3
f 12 18 3
f 3 9 12
f 3 24 23
f 3 19 13
f 3 7 4
f 26 25 3
f 5 9 3
f 13 7 3
f 25 24 3
f 3 18 26

