# https://github.com/mikedh/trimesh
v -0.00619652 -0.01581849 -0.00093843
v -0.00378743 -0.01581849 -0.00093843
v -0.00633360 -0.01581849 -0.00084668
v -0.00633360 -0.01581390 -0.00093843
v -0.00378743 -0.00550225 -0.00093843
v -0.00378743 -0.01581849 0.02309363
v -0.00633360 -0.01581849 0.02309363
v -0.00633360 -0.00023240 -0.00093843
v -0.00619652 -0.00018189 -0.00093843
v -0.00378743 -0.00448900 -0.00092667
v -0.00378743 -0.00018189 0.02309363
v -0.00633360 -0.00018189 0.02309363
v -0.00633360 -0.00018189 -0.00082315
v -0.00632911 -0.00018189 -0.00093843
v -0.00378743 -0.00379104 -0.00091020
v -0.00475271 -0.00018189 -0.00046556
v -0.00378743 -0.00018189 0.00028493
v -0.00378743 -0.00272728 -0.00068200
v -0.00378743 -0.00219310 -0.00049849
f 3 4 1
f 16 15 9
f 8 13 14
f 10 5 9
f 9 15 10
f 15 16 18
f 19 16 17
f 19 18 16
f 2 6 1
f 1 7 3
f 6 7 1
f 11 7 6
f 12 7 11
f 3 7 13
f 13 4 3
f 13 7 12
f 13 8 4
f 2 1 14
f 4 8 14
f 14 1 4
f 14 5 2
f 9 5 14
f 12 11 14
f 14 11 17
f 14 13 12
f 14 16 9
f 17 16 14
f 19 6 2
f 19 11 6
f 19 10 15
f 17 11 19
f 2 5 19
f 5 10 19
f 15 18 19

