# https://github.com/mikedh/trimesh
v 0.01043867 -0.01497854 0.07507328
v 0.01515859 -0.01498969 0.07507328
v 0.01043867 -0.01497854 0.07610954
v 0.01043867 0.04195126 0.07507328
v 0.01515859 -0.01498969 0.07610954
v 0.02096877 -0.01498969 0.07507328
v 0.01043867 0.04189553 0.07610954
v 0.01262024 0.04195126 0.07507328
v 0.02016729 -0.01498969 0.07610954
v 0.02112572 -0.01498412 0.07610954
v 0.02100958 -0.01498969 0.07534391
v 0.02096877 0.00476351 0.07507328
v 0.02112781 0.03554707 0.07610954
v 0.01433724 0.04189553 0.07610954
v 0.01432991 0.04194012 0.07507328
v 0.02096668 0.03383595 0.07507328
v 0.02096354 0.03554707 0.07507328
v 0.02108177 0.03725820 0.07610954
v 0.01515859 0.04186208 0.07610954
v 0.01439374 0.04193454 0.07507328
v 0.01604482 0.04182307 0.07610954
v 0.02082333 0.03729722 0.07507328
v 0.02066743 0.03895261 0.07610954
v 0.01611597 0.04177848 0.07507328
v 0.01683479 0.04171159 0.07610954
v 0.02052304 0.03850672 0.07507328
v 0.02062244 0.03901949 0.07610954
v 0.02007313 0.03954900 0.07561190
v 0.01727947 0.04164471 0.07610954
v 0.01707858 0.04160569 0.07507328
v 0.02036714 0.03874638 0.07507328
v 0.01953741 0.04031817 0.07610954
v 0.02003651 0.03919785 0.07507328
v 0.01995385 0.03930375 0.07507328
v 0.01953218 0.03977194 0.07507328
v 0.01912621 0.04015653 0.07507328
v 0.01813535 0.04128242 0.07610954
v 0.01724390 0.04153324 0.07507328
v 0.01946940 0.04037948 0.07610954
v 0.01910110 0.04017883 0.07507328
v 0.01821697 0.04123225 0.07610954
v 0.01786017 0.04113193 0.07507328
f 10 6 13
f 16 17 13
f 13 6 12
f 12 16 13
f 22 23 18
f 18 17 22
f 13 17 18
f 10 9 11
f 6 10 11
f 30 29 37
f 37 38 30
f 21 15 19
f 19 15 14
f 14 15 8
f 26 23 22
f 29 30 24
f 26 31 28
f 23 26 28
f 41 38 37
f 25 24 21
f 29 24 25
f 20 15 21
f 21 24 20
f 23 28 27
f 27 28 32
f 34 28 33
f 33 28 31
f 38 41 42
f 35 28 34
f 40 42 39
f 39 42 41
f 28 35 36
f 32 28 36
f 36 39 32
f 40 39 36
f 1 3 7
f 7 4 1
f 5 3 1
f 1 2 5
f 11 2 6
f 11 5 2
f 11 9 5
f 4 7 8
f 7 14 8
f 39 7 3
f 39 10 13
f 39 9 10
f 3 5 39
f 37 29 39
f 39 14 7
f 21 19 39
f 5 9 39
f 13 18 39
f 39 41 37
f 39 18 23
f 39 19 14
f 39 25 21
f 23 27 39
f 29 25 39
f 39 27 32
f 1 4 36
f 36 12 6
f 36 2 1
f 6 2 36
f 22 17 36
f 17 16 36
f 36 30 38
f 16 12 36
f 4 8 36
f 15 20 36
f 36 26 22
f 36 8 15
f 34 33 36
f 36 24 30
f 36 31 26
f 38 42 36
f 36 20 24
f 36 33 31
f 36 42 40
f 36 35 34

