# https://github.com/mikedh/trimesh
v 0.01453276 0.00207638 0.02580758
v 0.01453276 0.00373980 0.02210901
v 0.01291154 0.00068413 0.02580758
v 0.01453276 -0.01581849 0.02580758
v 0.01453276 0.00485481 0.01951600
v 0.01291154 -0.01581849 0.02580758
v 0.01291154 0.00330877 0.01967182
v 0.01453276 -0.01581849 0.01951600
v 0.01291154 0.00336947 0.01951600
v 0.01291154 -0.01581849 0.01951600
f 3 1 2
f 2 5 3
f 5 9 7
f 3 5 7
f 6 4 1
f 6 1 3
f 8 2 1
f 1 4 8
f 5 2 8
f 4 6 8
f 8 6 10
f 10 9 8
f 8 9 5
f 7 6 3
f 10 6 7
f 7 9 10

