# https://github.com/mikedh/trimesh
v 0.00691752 0.02857207 0.08447198
v 0.00691752 0.02857207 0.08439281
v 0.00601061 0.02857207 0.08447198
v 0.00691752 0.02728918 0.08447198
v 0.00782876 0.02806474 0.08447197
v 0.00601061 0.02857207 0.08442318
v 0.00757780 0.02806474 0.08440987
v 0.00577522 0.02728918 0.08443154
v 0.00570599 0.02728918 0.08443151
v 0.00406611 0.02728918 0.08443086
v 0.00064614 0.02728918 0.08443086
v 0.00036835 0.02728918 0.08443176
v -0.00049097 0.02728931 0.08443454
v -0.00101019 0.02728943 0.08443622
v -0.00101019 0.02856516 0.08443622
v -0.00101019 0.02856516 0.08447197
v 0.00098710 0.02856215 0.08447198
v 0.00691752 0.02728918 0.08446449
v 0.00717713 0.02728931 0.08447197
v 0.00749819 0.02729521 0.08447197
v 0.00052931 0.02728918 0.08447198
v 0.00036835 0.02728918 0.08446823
v -0.00049097 0.02728931 0.08447197
v -0.00101019 0.02728943 0.08447197
v 0.00036835 0.02805871 0.08447198
v 0.00036835 0.02740735 0.08447198
f 15 2 14
f 7 8 2
f 7 2 5
f 1 4 5
f 5 2 1
f 2 15 6
f 5 4 20
f 20 7 5
f 8 7 20
f 21 26 24
f 24 23 21
f 21 23 22
f 17 3 16
f 19 20 4
f 14 2 13
f 2 12 13
f 11 12 2
f 25 17 16
f 18 19 4
f 8 20 18
f 20 19 18
f 10 11 2
f 2 8 9
f 9 10 2
f 15 24 16
f 14 24 15
f 3 1 6
f 6 1 2
f 6 15 16
f 16 3 6
f 13 24 14
f 13 23 24
f 13 12 22
f 22 23 13
f 25 1 3
f 4 1 25
f 25 21 4
f 26 21 25
f 3 17 25
f 16 24 25
f 24 26 25
f 4 21 9
f 9 18 4
f 22 12 9
f 9 21 22
f 12 11 9
f 8 18 9
f 11 10 9

