# https://github.com/mikedh/trimesh
v -0.00633360 -0.01581849 0.02309363
v -0.00633360 -0.01581849 0.02580794
v -0.00633360 0.00154814 0.02309363
v 0.00648821 -0.01581849 0.02309363
v 0.00648821 -0.01581849 0.02580794
v -0.00633360 0.00086986 0.02580794
v -0.00633360 0.00153284 0.02329558
v 0.00648821 0.00138834 0.02309363
v 0.00648821 0.00053497 0.02580794
v -0.00633360 0.00116565 0.02500494
f 9 8 10
f 10 6 9
f 7 8 3
f 7 10 8
f 1 3 8
f 8 4 1
f 1 4 5
f 5 2 1
f 4 8 5
f 5 8 9
f 2 5 6
f 6 5 9
f 7 3 1
f 1 2 7
f 2 6 7
f 6 10 7

