# https://github.com/mikedh/trimesh
v -0.00081365 0.02621312 0.01388913
v -0.00643027 0.02621312 0.01425329
v -0.00081365 0.02360729 0.01277880
v -0.00081365 0.02621312 0.00499457
v -0.00643027 0.02360729 0.01298986
v -0.00643027 0.02621312 0.00492619
v -0.00081365 0.02360729 -0.00093167
v -0.00081365 0.02580088 0.00085645
v -0.00277603 0.02582435 0.00085645
v -0.00277603 0.02621312 0.00485930
v -0.00643027 0.02360729 -0.00092722
v -0.00620099 0.02621312 0.00489944
v -0.00619604 0.02583073 0.00085645
v -0.00643027 0.02580879 0.00085645
v -0.00619604 0.02360729 -0.00093167
v -0.00081365 0.02485753 -0.00053927
v -0.00081365 0.02569476 0.00066174
v -0.00081365 0.02507768 -0.00046941
v -0.00448603 0.02583150 0.00085645
v -0.00448603 0.02621312 0.00485930
v -0.00643027 0.02506544 -0.00046644
v -0.00619604 0.02507743 -0.00046941
v -0.00448603 0.02507768 -0.00046941
f 3 1 2
f 5 3 2
f 6 12 13
f 13 14 6
f 9 4 8
f 4 9 10
f 17 9 8
f 18 9 17
f 19 9 18
f 19 10 9
f 21 14 13
f 13 12 20
f 20 19 13
f 10 19 20
f 7 15 16
f 22 15 11
f 11 21 22
f 22 16 15
f 22 21 13
f 13 19 22
f 18 16 23
f 16 22 23
f 23 19 18
f 23 22 19
f 15 7 3
f 5 11 15
f 3 5 15
f 2 6 21
f 21 5 2
f 21 6 14
f 21 11 5
f 1 4 20
f 2 1 20
f 20 6 2
f 12 6 20
f 4 10 20
f 3 7 16
f 1 3 16
f 16 17 8
f 16 4 1
f 8 4 16
f 18 17 16

