# https://github.com/mikedh/trimesh
v 0.00750558 0.00494420 0.04335434
v 0.00617929 0.00494420 0.04335434
v 0.00750988 0.00361454 0.04335434
v 0.00750988 0.00494420 0.03821640
v 0.00617929 0.00494420 0.03785858
v 0.00617929 -0.02402893 0.04335434
v 0.00750988 -0.01079655 0.04335434
v 0.00750988 0.00494420 0.03799735
v 0.00748734 0.00494420 0.03785858
v 0.00617929 0.00156866 0.03640489
v 0.00617929 -0.02706403 0.04115440
v 0.00750988 -0.02571510 0.04140337
v 0.00656820 -0.02326454 0.04335434
v 0.00726098 -0.02089106 0.04335434
v 0.00750988 -0.02089106 0.04288496
v 0.00750988 0.00494099 0.03785858
v 0.00750988 0.00156866 0.03640489
v 0.00617929 -0.02786696 0.03640489
v 0.00617929 -0.02755864 0.04018913
v 0.00750988 -0.02656621 0.04049592
v 0.00750988 -0.02431157 0.04200540
v 0.00698095 -0.02243912 0.04335434
v 0.00723636 -0.02102916 0.04335434
v 0.00750988 -0.02715075 0.03640489
v 0.00617929 -0.02786696 0.03677630
v 0.00617929 -0.02758754 0.04013130
v 0.00750988 -0.02699658 0.03965445
v 0.00705076 -0.02206335 0.04335434
v 0.00750988 -0.02715075 0.03680011
v 0.00750988 -0.02713790 0.03850142
v 0.00617929 -0.02785091 0.03848782
v 0.00617929 -0.02784127 0.03858237
v 0.00750988 -0.02699979 0.03964220
f 6 11 12
f 4 1 3
f 7 14 15
f 20 12 11
f 16 17 9
f 19 20 11
f 6 12 13
f 12 22 13
f 21 22 12
f 15 14 21
f 16 9 8
f 32 33 26
f 27 19 26
f 26 33 27
f 20 19 27
f 31 25 30
f 30 25 29
f 30 32 31
f 33 32 30
f 22 21 28
f 23 21 14
f 23 28 21
f 18 10 17
f 17 24 18
f 10 5 9
f 9 17 10
f 8 5 2
f 2 1 8
f 1 4 8
f 8 9 5
f 18 24 25
f 24 29 25
f 32 10 18
f 2 5 32
f 32 6 2
f 32 11 6
f 32 5 10
f 32 19 11
f 18 25 32
f 26 19 32
f 32 25 31
f 30 4 3
f 3 7 30
f 24 17 30
f 30 17 16
f 16 8 30
f 15 21 30
f 30 7 15
f 12 20 30
f 30 29 24
f 20 27 30
f 30 21 12
f 30 8 4
f 30 27 33
f 2 6 23
f 23 1 2
f 3 1 23
f 23 7 3
f 14 7 23
f 6 13 23
f 23 13 22
f 22 28 23

