# https://github.com/mikedh/trimesh
v -0.00745659 -0.01581665 -0.00093817
v -0.00745659 0.00305729 -0.00093817
v -0.00633371 -0.01581295 -0.00093817
v -0.00633371 -0.01581665 -0.00084652
v -0.00745659 -0.01581665 0.02580820
v -0.00633371 0.00305729 -0.00093817
v -0.00745659 0.00305729 0.02195662
v -0.00633371 -0.01581665 0.02580820
v -0.00745659 0.00208911 0.02580820
v -0.00633371 0.00305729 0.02037776
v -0.00633371 0.00086965 0.02580820
f 1 3 4
f 10 9 11
f 10 7 9
f 1 2 6
f 6 3 1
f 8 9 5
f 11 9 8
f 8 5 1
f 1 4 8
f 7 2 1
f 1 5 7
f 5 9 7
f 3 6 10
f 10 4 3
f 11 8 10
f 10 8 4
f 10 6 2
f 2 7 10

