# https://github.com/mikedh/trimesh
v -0.01556411 -0.02773551 0.08196727
v -0.01550764 -0.02909702 0.08196727
v -0.01516119 -0.02773551 0.08635574
v -0.01516730 -0.02262785 0.08635574
v -0.01516882 -0.01920675 0.08635574
v -0.01516958 -0.01579366 0.08635574
v -0.01516958 -0.01576435 0.08635574
v -0.01555724 -0.00530923 0.08196727
v -0.01548322 -0.02944605 0.08196727
v -0.01501696 -0.02944605 0.08635574
v -0.01516882 -0.01405647 0.08635574
v -0.01555648 -0.00420084 0.08196727
v -0.01506580 -0.03008018 0.08196727
v -0.01438358 -0.03061839 0.08635574
v -0.01516119 -0.00372125 0.08635574
v -0.01528176 -0.00372125 0.08467210
v -0.00795361 -0.00420084 0.08196727
v -0.01472774 -0.03059174 0.08196727
v -0.01303822 -0.03094078 0.08635574
v -0.00816041 -0.00372125 0.08635574
v -0.00816041 -0.00372125 0.08467210
v -0.00776894 -0.02944605 0.08196727
v -0.01406994 -0.03073029 0.08196727
v -0.01303822 -0.03094078 0.08467210
v -0.01132885 -0.03094078 0.08635574
v -0.00816041 -0.02773551 0.08635574
v -0.00820391 -0.02944605 0.08635574
v -0.00850534 -0.03056510 0.08635574
v -0.00786433 -0.02977910 0.08196727
v -0.00820315 -0.02942207 0.08635574
v -0.01303745 -0.03094078 0.08196727
v -0.01132885 -0.03094078 0.08196727
v -0.00961872 -0.03088749 0.08196727
v -0.00961795 -0.03088217 0.08635574
v -0.00819704 -0.03059441 0.08196727
f 22 17 20
f 14 18 19
f 16 12 15
f 1 3 4
f 15 12 11
f 12 8 11
f 2 3 1
f 2 9 3
f 18 14 13
f 13 14 9
f 3 9 10
f 9 14 10
f 22 20 26
f 22 27 28
f 21 20 17
f 19 18 23
f 5 6 1
f 1 4 5
f 7 8 1
f 1 6 7
f 7 11 8
f 30 27 22
f 22 26 30
f 33 35 34
f 34 35 28
f 24 23 31
f 19 23 24
f 22 28 29
f 28 35 29
f 25 32 33
f 33 34 25
f 17 12 21
f 12 16 21
f 15 20 21
f 21 16 15
f 29 17 22
f 33 32 29
f 18 13 29
f 29 12 17
f 1 8 29
f 29 2 1
f 29 23 18
f 29 8 12
f 9 2 29
f 29 13 9
f 31 23 29
f 29 32 31
f 29 35 33
f 25 4 3
f 25 20 15
f 25 14 19
f 25 26 20
f 15 11 25
f 3 10 25
f 27 30 25
f 6 5 25
f 25 10 14
f 25 7 6
f 25 28 27
f 25 5 4
f 11 7 25
f 25 30 26
f 25 34 28
f 31 32 25
f 19 24 25
f 25 24 31

