# https://github.com/mikedh/trimesh
v -0.00623524 -0.03094078 0.05856155
v -0.00623524 -0.02516714 0.05856155
v -0.00463928 -0.03094078 0.05856155
v -0.00623524 -0.03094078 0.07614730
v -0.00463928 -0.02516714 0.05856155
v -0.00623524 -0.02516714 0.07412639
v -0.00463928 -0.03094078 0.07614730
v -0.00623524 -0.02684187 0.07614730
v -0.00463928 -0.02516714 0.07471510
v -0.00463928 -0.02614213 0.07609222
v -0.00463928 -0.02610144 0.07603541
v -0.00463928 -0.02621674 0.07614730
v -0.00483315 -0.02627100 0.07614730
f 6 8 10
f 9 6 11
f 6 10 11
f 12 10 13
f 13 10 8
f 1 2 5
f 5 3 1
f 1 3 7
f 7 4 1
f 6 5 2
f 9 5 6
f 8 2 1
f 1 4 8
f 8 6 2
f 3 5 11
f 11 7 3
f 11 5 9
f 11 12 7
f 11 10 12
f 4 7 13
f 7 12 13
f 13 8 4

