# https://github.com/mikedh/trimesh
v -0.00373954 -0.00036839 0.08850836
v -0.00373954 -0.00036839 0.08980313
v -0.00373954 0.00134026 0.08850836
v -0.00369719 -0.00119902 0.08850836
v -0.00373954 0.00134026 0.09151353
v -0.00368349 -0.00142908 0.08980313
v -0.00366605 -0.00133774 0.09105093
v -0.00369470 -0.00043388 0.09157823
v -0.00369470 0.00117568 0.09338700
v -0.00373954 0.00485406 0.09322305
v -0.00372086 0.00485406 0.09160570
v -0.00371961 0.00485406 0.09151353
v -0.00372833 0.00170129 0.08850836
v -0.00368349 -0.00145665 0.08850836
v -0.00373954 0.00305063 0.09322305
v -0.00340449 -0.00231313 0.08850836
v -0.00336712 -0.00229417 0.08935736
v -0.00334719 -0.00228469 0.08980313
v -0.00361000 -0.00104651 0.09219149
v -0.00362869 0.00049670 0.09406673
v -0.00366605 0.00009345 0.09292794
v -0.00366605 0.00163666 0.09431045
v -0.00373705 0.00485406 0.09329838
v -0.00368598 0.00258965 0.08850836
v -0.00366481 0.00485406 0.09055021
v -0.00368349 0.00305063 0.09456302
v -0.00368349 0.00476100 0.09472519
v -0.00275805 -0.00312049 0.08850836
v -0.00307317 -0.00265951 0.08935736
v -0.00249151 -0.00332643 0.08980313
v -0.00315912 -0.00197622 0.09157823
v -0.00345556 -0.00043388 0.09338700
v -0.00245414 -0.00205291 0.09308037
v -0.00221873 -0.00146613 0.09434323
v -0.00257247 -0.00032703 0.09492105
v -0.00337584 0.00117568 0.09490155
v -0.00356392 0.00305063 0.09541822
v -0.00360876 0.00476100 0.09558040
v -0.00368349 0.00485406 0.09471988
v -0.00304453 0.00333928 0.08850836
v -0.00281908 0.00485406 0.08999101
v -0.00287638 0.00344268 0.08850836
v -0.00255005 -0.00337382 0.08850836
v -0.00106412 -0.00388133 0.08850836
v -0.00106412 -0.00381929 0.08935736
v -0.00106287 -0.00378655 0.08980313
v -0.00220130 -0.00312135 0.09151353
v -0.00196091 -0.00295936 0.09241659
v -0.00213902 0.00027095 0.09593755
v -0.00106287 -0.00163157 0.09452314
v -0.00106287 -0.00074665 0.09537834
v -0.00245912 0.00134026 0.09620695
v -0.00270948 0.00305063 0.09649764
v -0.00275307 0.00476100 0.09660487
v -0.00275183 0.00485406 0.09660221
v -0.00356143 0.00485406 0.09563180
v -0.00360751 0.00485406 0.09557508
v -0.00277425 0.00485406 0.08996531
v -0.00106412 0.00442754 0.08850836
v 0.00064601 -0.00394854 0.08850836
v 0.00064601 -0.00388736 0.08935736
v 0.00005936 -0.00386409 0.08935736
v -0.00106287 -0.00337899 0.09151353
v 0.00064725 -0.00385462 0.08980313
v 0.00064725 -0.00344964 0.09151353
v -0.00106287 -0.00300848 0.09250876
v -0.00106287 -0.00248632 0.09336308
v -0.00106287 0.00010810 0.09605009
v -0.00106287 0.00134026 0.09669792
v 0.00064725 -0.00252940 0.09343132
v 0.00064725 -0.00167465 0.09456922
v 0.00064725 -0.00080180 0.09542442
v -0.00099312 0.00318677 0.09731207
v -0.00146518 0.00476100 0.09746007
v -0.00144525 0.00485406 0.09745653
v -0.00117248 0.00485406 0.08946105
v -0.00106287 0.00485406 0.08944776
v 0.00009921 0.00446373 0.08850836
v 0.00406501 -0.00394854 0.08850836
v 0.00406501 -0.00388736 0.08935736
v 0.00406501 -0.00385462 0.08980313
v 0.00406501 -0.00344964 0.09151353
v 0.00064725 -0.00304467 0.09257700
v 0.00064725 0.00005382 0.09608820
v 0.00064725 0.00134026 0.09677059
v 0.00064725 0.00296274 0.09732625
v 0.00406501 -0.00252940 0.09343132
v 0.00406501 -0.00167465 0.09456922
v 0.00406501 -0.00080180 0.09542442
v -0.00037534 0.00384765 0.09751147
v -0.00138671 0.00485406 0.09746627
v -0.00061074 0.00476100 0.09752920
v 0.00052145 0.00485406 0.08942294
v 0.00064601 0.00447752 0.08850836
v 0.00577638 -0.00393044 0.08850836
v 0.00577638 -0.00386840 0.08935736
v 0.00577514 -0.00383566 0.08980313
v 0.00577514 -0.00343069 0.09151353
v 0.00577514 -0.00303605 0.09256105
v 0.00406501 -0.00304467 0.09257700
v 0.00406501 0.00005382 0.09608820
v 0.00406501 0.00134026 0.09677059
v 0.00406501 0.00296274 0.09732625
v 0.00064725 0.00381836 0.09751767
v 0.00577514 -0.00251820 0.09341536
v 0.00577514 -0.00166345 0.09455681
v 0.00577514 -0.00078801 0.09541290
v 0.00577514 0.00006674 0.09607757
v 0.00064725 0.00476100 0.09756110
v -0.00060701 0.00485406 0.09752920
v 0.00064725 0.00485406 0.08942206
v 0.00406501 0.00447752 0.08850836
v 0.00751640 -0.00342810 0.08850836
v 0.00757868 -0.00333677 0.08935736
v 0.00760484 -0.00329799 0.08971274
v 0.00708918 -0.00317305 0.09151353
v 0.00676036 -0.00299642 0.09248660
v 0.00577514 0.00134026 0.09675198
v 0.00577514 0.00299721 0.09731739
v 0.00577514 0.00385196 0.09750970
v 0.00406501 0.00381836 0.09751767
v 0.00707050 -0.00150921 0.09438932
v 0.00697210 0.00021581 0.09597477
v 0.00406501 0.00476100 0.09756110
v 0.00064725 0.00485406 0.09755933
v 0.00406501 0.00485406 0.08942206
v 0.00564934 0.00485406 0.08942471
v 0.00577514 0.00485406 0.08942560
v 0.00524080 0.00447407 0.08850836
v 0.00785519 -0.00325405 0.08850836
v 0.00836337 -0.00295247 0.08908086
v 0.00803081 -0.00310412 0.08935736
v 0.00825376 -0.00281978 0.09022143
v 0.00794487 -0.00257938 0.09151353
v 0.00748527 -0.00204257 0.09317785
v 0.00663830 0.00389246 0.09750084
v 0.00577514 0.00476100 0.09754515
v 0.00821017 -0.00103789 0.09386911
v 0.00759114 -0.00041061 0.09496004
v 0.00811177 0.00084309 0.09553165
v 0.00751889 0.00138420 0.09622380
v 0.00421199 0.00485406 0.09755844
v 0.00406501 0.00485406 0.09755933
v 0.00577514 0.00485406 0.09754426
v 0.00748651 0.00485406 0.08966311
v 0.00577638 0.00447235 0.08850836
v 0.00837458 -0.00296195 0.08850836
v 0.00855518 -0.00244582 0.08850836
v 0.00846551 -0.00261471 0.08935736
v 0.00859504 -0.00172376 0.09151353
v 0.00848294 -0.00143425 0.09273031
v 0.00666944 0.00476100 0.09751413
v 0.00731961 0.00321434 0.09691061
v 0.00851906 0.00305063 0.09600313
v 0.00752388 0.00476100 0.09693809
v 0.00586108 0.00485406 0.09754338
v 0.00850287 0.00010293 0.09439109
v 0.00843312 0.00198305 0.09588348
v 0.00748651 0.00394588 0.08850836
v 0.00860127 0.00485406 0.09026840
v 0.00866853 -0.00210547 0.08850836
v 0.00861746 -0.00215976 0.08935736
v 0.00859504 -0.00218130 0.08971274
v 0.00891514 -0.00036839 0.09151353
v 0.00864984 -0.00042784 0.09326914
v 0.00666944 0.00485406 0.09751502
v 0.00856266 0.00476100 0.09608288
v 0.00883668 0.00305063 0.09493346
v 0.00757868 0.00485406 0.09689023
v 0.00751391 0.00485406 0.09693986
v 0.00861871 0.00138420 0.09495030
v 0.00868721 0.00306958 0.08850836
v 0.00890518 0.00485406 0.09142668
v 0.00898365 -0.00036839 0.08850836
v 0.00896372 -0.00036839 0.08980313
v 0.00894006 0.00134026 0.09322305
v 0.00856141 0.00485406 0.09608023
v 0.00888276 0.00476100 0.09493346
v 0.00888152 0.00485406 0.09493346
v 0.00898490 0.00134026 0.08850836
v 0.00891888 0.00485406 0.09151353
v 0.00898490 0.00092408 0.08850836
v 0.00898240 0.00134026 0.09151353
v 0.00897991 0.00305063 0.09322305
v 0.00898240 0.00476100 0.09322305
v 0.00898240 0.00485406 0.09322305
v 0.00888774 0.00485406 0.09484040
v 0.00897991 0.00485406 0.09313089
f 24 25 40
f 12 25 24
f 123 136 118
f 11 3 10
f 11 12 3
f 13 12 24
f 3 12 13
f 57 39 38
f 38 56 57
f 55 56 38
f 10 15 23
f 109 125 110
f 14 16 6
f 115 116 97
f 133 116 115
f 141 136 123
f 136 154 155
f 123 118 108
f 108 107 123
f 119 118 136
f 101 108 102
f 102 108 118
f 123 107 122
f 122 139 123
f 160 172 159
f 42 41 59
f 25 41 42
f 42 40 25
f 76 77 59
f 26 38 27
f 27 38 39
f 27 15 26
f 39 23 27
f 27 23 15
f 4 2 1
f 6 2 4
f 4 14 6
f 28 18 16
f 16 18 17
f 95 113 96
f 113 97 96
f 115 97 114
f 114 97 113
f 113 130 114
f 117 122 105
f 131 130 147
f 131 114 130
f 139 122 138
f 175 161 174
f 164 161 175
f 174 183 175
f 182 183 174
f 164 175 176
f 176 175 183
f 136 141 153
f 153 141 158
f 153 154 136
f 158 154 153
f 166 155 170
f 136 155 152
f 152 155 166
f 167 155 154
f 120 119 136
f 120 124 121
f 173 172 160
f 180 172 173
f 173 181 180
f 188 186 180
f 180 181 188
f 146 128 145
f 145 159 146
f 160 159 145
f 59 77 78
f 77 94 78
f 59 41 58
f 58 76 59
f 109 90 104
f 109 110 92
f 92 90 109
f 29 28 43
f 18 28 29
f 60 61 44
f 95 96 80
f 65 66 63
f 83 66 65
f 117 105 99
f 55 38 54
f 38 53 54
f 63 66 48
f 48 47 63
f 34 33 48
f 106 122 107
f 106 105 122
f 70 66 83
f 132 133 115
f 132 131 133
f 115 114 132
f 114 131 132
f 148 131 147
f 157 138 151
f 133 131 150
f 150 151 133
f 139 138 140
f 123 139 140
f 157 158 140
f 140 138 157
f 140 141 123
f 158 141 140
f 183 182 185
f 164 176 165
f 157 151 165
f 165 150 164
f 151 150 165
f 171 158 157
f 157 165 171
f 171 165 176
f 169 170 155
f 169 167 177
f 155 167 169
f 177 167 179
f 143 124 142
f 136 152 137
f 137 120 136
f 124 120 137
f 93 94 77
f 93 111 94
f 129 128 146
f 103 120 121
f 119 120 103
f 118 119 103
f 103 102 118
f 90 92 74
f 74 54 53
f 74 75 55
f 55 54 74
f 34 48 50
f 50 70 71
f 89 106 107
f 89 108 101
f 107 108 89
f 30 29 43
f 18 29 30
f 43 44 30
f 44 45 30
f 44 61 62
f 62 45 44
f 95 80 79
f 81 96 97
f 81 80 96
f 46 65 63
f 63 47 46
f 45 62 46
f 47 30 46
f 46 30 45
f 117 99 98
f 98 99 82
f 98 116 117
f 98 97 116
f 82 99 100
f 84 85 68
f 68 85 69
f 37 53 38
f 49 68 69
f 34 20 32
f 32 20 19
f 32 33 34
f 19 33 32
f 5 2 9
f 15 5 9
f 31 33 19
f 31 19 18
f 47 48 31
f 31 48 33
f 18 30 31
f 31 30 47
f 106 89 88
f 134 151 138
f 133 151 134
f 117 116 134
f 116 133 134
f 164 150 163
f 184 176 183
f 183 185 184
f 178 185 186
f 178 184 185
f 176 184 178
f 178 179 167
f 156 152 166
f 156 137 152
f 112 126 127
f 127 129 112
f 128 129 127
f 75 74 91
f 91 92 110
f 91 74 92
f 72 50 71
f 84 68 72
f 67 48 66
f 67 50 48
f 66 70 67
f 70 50 67
f 65 46 64
f 64 62 61
f 64 46 62
f 87 99 105
f 87 100 99
f 105 106 87
f 106 88 87
f 69 85 86
f 86 104 90
f 35 20 34
f 34 49 35
f 53 37 52
f 52 49 69
f 7 2 6
f 19 20 7
f 18 19 7
f 7 17 18
f 6 16 7
f 16 17 7
f 26 15 22
f 15 9 22
f 22 9 20
f 20 37 22
f 22 38 26
f 22 37 38
f 117 134 135
f 135 134 138
f 135 122 117
f 135 138 122
f 149 150 131
f 149 163 150
f 131 148 149
f 187 178 186
f 179 178 187
f 168 171 176
f 176 178 168
f 168 154 158
f 158 171 168
f 168 167 154
f 168 178 167
f 142 124 144
f 124 137 144
f 137 156 144
f 50 72 51
f 51 72 68
f 68 49 51
f 34 50 51
f 51 49 34
f 73 86 90
f 69 86 73
f 90 74 73
f 73 52 69
f 73 74 53
f 53 52 73
f 49 52 36
f 20 35 36
f 36 35 49
f 36 37 20
f 36 52 37
f 8 9 2
f 2 7 8
f 162 148 161
f 162 149 148
f 163 149 162
f 162 161 164
f 164 163 162
f 21 7 20
f 21 8 7
f 20 9 21
f 9 8 21
f 2 3 1
f 10 3 2
f 2 15 10
f 2 5 15
f 121 124 104
f 104 124 109
f 185 182 180
f 180 186 185
f 109 124 143
f 143 125 109
f 126 112 94
f 94 111 126
f 180 182 79
f 1 3 79
f 79 113 95
f 43 28 79
f 79 13 24
f 79 172 180
f 79 42 59
f 146 159 79
f 24 40 79
f 79 4 1
f 79 148 147
f 147 130 79
f 79 129 146
f 3 13 79
f 16 14 79
f 79 44 43
f 79 130 113
f 174 161 79
f 79 159 172
f 59 78 79
f 40 42 79
f 14 4 79
f 79 28 16
f 79 182 174
f 79 78 94
f 94 112 79
f 79 60 44
f 161 148 79
f 112 129 79
f 61 60 79
f 79 80 61
f 82 81 98
f 98 81 97
f 100 65 82
f 83 65 100
f 85 84 101
f 101 102 85
f 72 88 89
f 71 88 72
f 101 84 72
f 72 89 101
f 64 81 82
f 82 65 64
f 61 80 64
f 80 81 64
f 83 100 87
f 87 70 83
f 87 88 71
f 71 70 87
f 86 85 102
f 102 103 86
f 121 104 86
f 86 103 121
f 144 41 25
f 144 169 177
f 55 75 144
f 77 76 144
f 144 11 10
f 144 56 55
f 177 179 144
f 25 12 144
f 144 39 57
f 57 56 144
f 10 23 144
f 144 110 125
f 144 58 41
f 186 188 144
f 12 11 144
f 144 23 39
f 128 127 144
f 144 156 166
f 144 173 160
f 160 145 144
f 125 143 144
f 166 170 144
f 181 173 144
f 144 188 181
f 144 145 128
f 144 93 77
f 76 58 144
f 170 169 144
f 75 91 144
f 144 143 142
f 111 93 144
f 144 126 111
f 144 187 186
f 144 127 126
f 144 91 110
f 179 187 144

