# https://github.com/mikedh/trimesh
v 0.01047428 0.02091363 0.08052406
v 0.01060591 0.01704175 0.08052406
v 0.01047428 0.02192510 0.08116359
v 0.01047428 0.03487124 0.08052406
v 0.02187958 0.01704175 0.08052406
v 0.01105672 0.01704175 0.08342882
v 0.01047428 0.02357826 0.08153952
v 0.01047428 0.03481867 0.08058577
v 0.01103692 0.03555824 0.08342882
v 0.01070027 0.03555824 0.08052406
v 0.02190055 0.01704175 0.08063951
v 0.02188074 0.02015774 0.08052406
v 0.02237349 0.01704175 0.08342882
v 0.01103342 0.02528943 0.08342882
v 0.01047428 0.02528943 0.08162767
v 0.01047428 0.03382714 0.08118321
v 0.02237349 0.03555824 0.08342882
v 0.01047428 0.03370750 0.08121051
v 0.01047428 0.03213047 0.08156938
v 0.01047428 0.03035586 0.08163592
v 0.01047428 0.02870270 0.08164103
v 0.01103342 0.03088879 0.08342882
v 0.02188074 0.03555824 0.08052406
v 0.02209159 0.01704175 0.08173431
v 0.02188191 0.03555099 0.08052406
v 0.02236067 0.01704175 0.08334493
v 0.01103226 0.02699878 0.08342882
v 0.01047428 0.02700059 0.08164103
v 0.02229777 0.03555824 0.08295990
v 0.01103226 0.02917762 0.08342882
v 0.02194132 0.03555824 0.08086985
v 0.02229777 0.01704175 0.08295990
v 0.02209159 0.01844657 0.08173402
v 0.02209042 0.03555824 0.08172776
v 0.02209159 0.03555099 0.08173175
v 0.02209159 0.02870814 0.08173260
v 0.02209159 0.02186891 0.08173345
f 14 15 6
f 3 2 6
f 1 2 3
f 9 10 4
f 6 15 7
f 7 3 6
f 25 34 35
f 9 19 20
f 35 34 29
f 31 25 23
f 34 25 31
f 25 24 12
f 36 25 35
f 21 22 9
f 9 20 21
f 30 22 21
f 9 4 8
f 8 16 9
f 18 19 9
f 9 16 18
f 35 29 32
f 32 36 35
f 5 12 11
f 11 12 24
f 14 27 28
f 15 14 28
f 36 32 37
f 25 36 37
f 26 17 13
f 26 29 17
f 26 32 29
f 33 32 24
f 33 37 32
f 33 24 25
f 25 37 33
f 13 17 27
f 27 6 13
f 27 17 9
f 27 14 6
f 9 22 27
f 27 22 30
f 23 10 31
f 9 17 31
f 31 10 9
f 17 29 31
f 31 29 34
f 1 4 12
f 12 2 1
f 12 10 23
f 12 5 2
f 12 4 10
f 23 25 12
f 28 27 30
f 30 21 28
f 28 4 1
f 1 3 28
f 28 7 15
f 3 7 28
f 19 18 28
f 28 20 19
f 28 8 4
f 28 21 20
f 16 8 28
f 28 18 16
f 13 6 26
f 2 5 26
f 6 2 26
f 5 11 26
f 24 32 26
f 26 11 24

