# https://github.com/mikedh/trimesh
v 0.00918164 -0.00689658 0.07098749
v 0.01373193 -0.00689658 0.07098749
v 0.00918164 -0.00689658 0.07158328
v 0.00918164 0.04216540 0.07098749
v 0.01373193 -0.00689658 0.07158328
v 0.01373193 0.04210296 0.07098749
v 0.00918164 0.04213178 0.07158328
v 0.01046442 0.04214138 0.07143054
v 0.01261752 0.04216540 0.07098749
v 0.01373193 0.04207415 0.07158328
v 0.01373193 0.04209336 0.07119540
v 0.01261796 0.04213178 0.07158328
v 0.01046486 0.04214138 0.07143054
f 6 9 11
f 11 9 10
f 10 9 12
f 4 7 8
f 13 12 9
f 1 2 5
f 5 3 1
f 7 4 1
f 1 3 7
f 1 4 9
f 9 2 1
f 9 6 2
f 2 6 11
f 11 5 2
f 10 5 11
f 3 5 12
f 12 5 10
f 12 7 3
f 13 9 4
f 4 8 13
f 7 12 13
f 13 8 7

