# https://github.com/mikedh/trimesh
v -0.02014594 -0.00020313 0.02839177
v -0.02013696 0.00085136 0.02839177
v -0.02013183 0.00085136 0.02773370
v -0.02013183 0.00072969 0.02761322
v -0.02014081 -0.00037159 0.02761322
v -0.02013311 -0.01405497 0.02839177
v -0.00721402 0.00085136 0.02839177
v -0.02012926 0.00085136 0.02761322
v -0.02012798 -0.01405497 0.02761322
v -0.02011129 -0.01466644 0.02761322
v -0.02007921 -0.01576461 0.02822343
v -0.02007921 -0.01576461 0.02839177
v -0.00708698 0.00085136 0.02761322
v -0.00703564 0.00044891 0.02839177
v -0.02007665 -0.01576461 0.02761322
v -0.02001376 -0.01637608 0.02761322
v -0.01989698 -0.01747425 0.02761322
v -0.01991495 -0.01730578 0.02839177
v -0.00703564 0.00045203 0.02837181
v -0.00703564 0.00048323 0.02761322
v -0.00703564 -0.03094236 0.02839177
v -0.01965957 -0.01918389 0.02761322
v -0.01989698 -0.01747425 0.02839177
v -0.00703564 -0.03102035 0.02761322
v -0.01304025 -0.03094236 0.02839177
v -0.01943756 -0.02072506 0.02839177
v -0.01965957 -0.01918389 0.02839177
v -0.01941317 -0.02089353 0.02761322
v -0.01304025 -0.03102035 0.02761322
v -0.01474834 -0.03083941 0.02839177
v -0.01941317 -0.02089353 0.02839177
v -0.01915651 -0.02258446 0.02761322
v -0.01918218 -0.02241599 0.02839177
v -0.01474834 -0.03091428 0.02761322
v -0.01600598 -0.03051806 0.02839177
v -0.01914368 -0.02266869 0.02839177
v -0.01902177 -0.02343928 0.02761322
v -0.01605090 -0.03055550 0.02761322
v -0.01609068 -0.03046191 0.02839177
v -0.01902177 -0.02343928 0.02839177
v -0.01896017 -0.02375125 0.02761322
v -0.01660144 -0.03016553 0.02761322
v -0.01686067 -0.02991283 0.02839177
v -0.01850331 -0.02602558 0.02761322
v -0.01850202 -0.02602558 0.02839177
v -0.01690558 -0.02994090 0.02761322
v -0.01760884 -0.02905801 0.02839177
v -0.01811831 -0.02773522 0.02761322
v -0.01815553 -0.02756675 0.02839177
v -0.01760884 -0.02908609 0.02761322
v -0.01765889 -0.02893010 0.02839177
v -0.01811703 -0.02773522 0.02839177
v -0.01793737 -0.02823438 0.02761322
f 14 13 7
f 19 20 13
f 19 13 14
f 3 8 4
f 1 2 3
f 3 4 1
f 1 4 5
f 50 47 51
f 11 10 15
f 9 10 6
f 6 11 12
f 10 11 6
f 6 5 9
f 1 5 6
f 46 47 50
f 35 38 34
f 34 30 35
f 52 48 53
f 53 51 52
f 50 51 53
f 29 25 30
f 29 30 34
f 47 46 43
f 49 48 52
f 44 45 40
f 44 49 45
f 48 49 44
f 16 11 15
f 16 17 11
f 42 43 46
f 38 35 39
f 39 42 38
f 43 42 39
f 40 37 41
f 41 44 40
f 17 23 18
f 12 11 18
f 11 17 18
f 36 37 40
f 33 31 28
f 36 33 32
f 32 33 28
f 37 36 32
f 26 22 28
f 26 27 22
f 28 31 26
f 14 21 19
f 24 20 19
f 19 21 24
f 2 7 3
f 13 8 3
f 3 7 13
f 24 21 29
f 21 25 29
f 17 22 27
f 27 23 17
f 4 8 32
f 38 42 32
f 32 20 24
f 15 10 32
f 13 20 32
f 32 8 13
f 32 5 4
f 32 46 50
f 9 5 32
f 32 10 9
f 50 53 32
f 34 38 32
f 24 29 32
f 32 16 15
f 32 53 48
f 32 41 37
f 32 29 34
f 48 44 32
f 17 16 32
f 32 42 46
f 44 41 32
f 32 22 17
f 28 22 32
f 26 21 14
f 26 2 1
f 14 7 26
f 26 51 47
f 26 7 2
f 1 6 26
f 40 45 26
f 26 49 52
f 26 25 21
f 52 51 26
f 26 6 12
f 30 25 26
f 26 35 30
f 47 43 26
f 12 18 26
f 45 49 26
f 26 39 35
f 43 39 26
f 26 18 23
f 31 33 26
f 26 36 40
f 26 33 36
f 23 27 26

