# https://github.com/mikedh/trimesh
v 0.01071528 -0.03073601 0.08052406
v 0.01189417 -0.03090299 0.08052406
v 0.01261999 -0.03088670 0.08342882
v 0.01146507 -0.03057921 0.08342882
v 0.01071528 -0.03066474 0.08096933
v 0.01071528 -0.02588544 0.08052406
v 0.01261999 -0.03091928 0.08052406
v 0.01261999 -0.03090095 0.08295967
v 0.01308904 -0.03089484 0.08342882
v 0.01110101 -0.02944700 0.08342882
v 0.01071528 -0.03062197 0.08111860
v 0.01071528 -0.03062808 0.08110154
v 0.01071528 -0.02619089 0.08104297
v 0.01082712 -0.01013637 0.08052406
v 0.01360487 -0.03093353 0.08052406
v 0.01433070 -0.03092946 0.08295967
v 0.01433070 -0.03091520 0.08342882
v 0.01071528 -0.02944700 0.08197985
v 0.01107933 -0.02897864 0.08342882
v 0.01071528 -0.02696267 0.08194289
v 0.01105993 -0.01013637 0.08342882
v 0.02187879 -0.01013637 0.08052406
v 0.01433070 -0.03093761 0.08052406
v 0.01433070 -0.03093557 0.08124996
v 0.01604140 -0.03092946 0.08295967
v 0.01479974 -0.03091928 0.08342882
v 0.01104395 -0.02773648 0.08342882
v 0.01071528 -0.02887886 0.08202222
v 0.02237294 -0.01013637 0.08342882
v 0.01104395 -0.02726812 0.08342882
v 0.02209106 -0.01013637 0.08173703
v 0.02187879 -0.02434189 0.08052406
v 0.01604140 -0.03093761 0.08052406
v 0.01604140 -0.03093557 0.08124996
v 0.01604140 -0.03091928 0.08342882
v 0.01774982 -0.03082153 0.08295967
v 0.01774982 -0.03081746 0.08342882
v 0.01650930 -0.03089484 0.08342882
v 0.02229648 -0.01013637 0.08295967
v 0.02237294 -0.02434189 0.08342882
v 0.02209106 -0.01405429 0.08173703
v 0.02209106 -0.02434189 0.08173731
v 0.02209106 -0.02602595 0.08173760
v 0.02187765 -0.02602595 0.08052406
v 0.01702400 -0.03087041 0.08052406
v 0.01774982 -0.03082153 0.08124996
v 0.01812871 -0.03073601 0.08342882
v 0.02229648 -0.02602595 0.08295967
v 0.02236952 -0.02602595 0.08342882
v 0.02206938 -0.02708077 0.08186015
v 0.02172587 -0.02770593 0.08052406
v 0.01774982 -0.03081950 0.08052406
v 0.01854412 -0.03063826 0.08052406
v 0.01913071 -0.03050590 0.08124996
v 0.01913185 -0.03050794 0.08295967
v 0.01913185 -0.03050794 0.08342882
v 0.02219605 -0.02742084 0.08342882
v 0.02216068 -0.02735772 0.08295967
v 0.02184113 -0.02768557 0.08127385
v 0.02191075 -0.02821298 0.08295967
v 0.02093842 -0.02927799 0.08052406
v 0.01911930 -0.03050183 0.08052406
v 0.01998549 -0.03014547 0.08124996
v 0.01998663 -0.03014954 0.08295967
v 0.01998663 -0.03014954 0.08342882
v 0.02201460 -0.02803989 0.08342882
v 0.02192216 -0.02827407 0.08342882
v 0.02098178 -0.02929020 0.08124996
v 0.02054812 -0.02964045 0.08052406
v 0.01997522 -0.03013121 0.08052406
v 0.02105482 -0.02929428 0.08295967
v 0.02106738 -0.02929428 0.08342882
v 0.02029248 -0.02991536 0.08342882
f 6 13 14
f 1 3 4
f 2 3 1
f 11 4 10
f 10 18 11
f 20 21 14
f 14 13 20
f 43 50 44
f 44 32 43
f 44 50 51
f 70 63 62
f 1 4 5
f 18 27 28
f 21 20 28
f 19 18 10
f 19 27 18
f 49 50 48
f 50 43 48
f 48 40 49
f 61 51 60
f 67 61 60
f 45 46 33
f 45 52 46
f 62 63 54
f 16 15 24
f 72 73 63
f 4 11 12
f 12 5 4
f 21 28 30
f 30 28 27
f 24 15 23
f 41 48 42
f 42 48 43
f 42 32 41
f 42 43 32
f 67 60 66
f 66 60 57
f 57 60 58
f 49 57 58
f 58 50 49
f 62 54 53
f 46 52 53
f 53 54 46
f 46 54 55
f 47 55 56
f 46 55 47
f 25 37 38
f 15 16 7
f 73 65 64
f 63 73 64
f 64 54 63
f 64 55 54
f 68 61 67
f 68 69 61
f 59 60 51
f 59 58 60
f 59 51 50
f 50 58 59
f 36 47 37
f 46 47 36
f 33 46 36
f 37 25 36
f 16 26 17
f 35 25 38
f 2 7 8
f 3 2 8
f 8 7 16
f 67 72 71
f 71 68 67
f 69 68 71
f 70 69 71
f 63 70 71
f 71 72 63
f 33 36 34
f 34 36 25
f 16 17 9
f 3 8 9
f 9 8 16
f 22 31 32
f 32 31 41
f 14 21 39
f 39 21 29
f 39 22 14
f 39 31 22
f 29 40 48
f 48 39 29
f 41 31 48
f 31 39 48
f 12 6 1
f 13 6 12
f 12 20 13
f 12 11 18
f 1 5 12
f 18 28 12
f 12 28 20
f 14 22 7
f 7 2 1
f 1 6 7
f 7 32 44
f 44 51 7
f 33 23 7
f 7 6 14
f 22 32 7
f 7 70 62
f 7 51 61
f 61 69 7
f 7 45 33
f 62 53 7
f 52 45 7
f 7 69 70
f 7 23 15
f 7 53 52
f 64 65 56
f 56 55 64
f 16 25 35
f 35 26 16
f 34 23 33
f 24 23 34
f 34 25 16
f 34 16 24
f 29 21 9
f 21 30 9
f 9 4 3
f 9 40 29
f 9 72 67
f 9 47 56
f 10 4 9
f 49 40 9
f 56 65 9
f 9 57 49
f 9 19 10
f 67 66 9
f 27 19 9
f 38 37 9
f 9 65 73
f 73 72 9
f 9 30 27
f 9 66 57
f 37 47 9
f 9 35 38
f 9 17 26
f 26 35 9

