# https://github.com/mikedh/trimesh
v 0.01838937 0.02464005 0.05856155
v 0.01310363 0.02464005 0.05856155
v 0.01838937 0.02189885 0.05856155
v 0.01838937 0.02464005 0.05043807
v 0.01310363 0.02189885 0.05856155
v 0.01310363 0.02464005 0.03856408
v 0.01838937 0.01975666 0.05855959
v 0.01838937 0.02343486 0.04874877
v 0.01788284 0.02464005 0.04255731
v 0.01310363 0.01975666 0.05855959
v 0.01603986 0.02464005 0.03950562
v 0.01310363 0.02372265 0.03879506
v 0.01838937 0.01975666 0.04364957
v 0.01838937 0.01982693 0.04369851
v 0.01777729 0.02464005 0.04190939
v 0.01310363 0.01975666 0.04023771
v 0.01605073 0.02464005 0.03951149
v 0.01643567 0.01975666 0.04152181
v 0.01597985 0.01975666 0.04131823
v 0.01775814 0.01975666 0.04249467
v 0.01726506 0.02464005 0.04037082
v 0.01745650 0.02464005 0.04081712
v 0.01750876 0.01975666 0.04215994
f 13 15 9
f 22 15 13
f 13 21 22
f 13 9 14
f 6 11 12
f 12 11 16
f 8 9 4
f 8 14 9
f 16 11 19
f 21 23 17
f 20 21 13
f 20 23 21
f 18 17 23
f 11 17 18
f 18 19 11
f 5 3 1
f 5 1 2
f 7 3 5
f 5 10 7
f 2 6 12
f 12 5 2
f 12 16 10
f 10 5 12
f 7 13 8
f 1 3 8
f 8 3 7
f 8 4 1
f 13 14 8
f 17 6 2
f 2 1 17
f 1 4 17
f 15 22 17
f 17 9 15
f 4 9 17
f 17 22 21
f 17 11 6
f 18 13 7
f 10 16 18
f 7 10 18
f 16 19 18
f 18 20 13
f 23 20 18

