# https://github.com/mikedh/trimesh
v -0.00738305 0.02870857 0.07810569
v -0.00738305 0.03041878 0.07809677
v -0.00738305 0.02699976 0.07810569
v -0.00623535 0.02870857 0.07766523
v -0.00623535 0.03041878 0.07765064
v -0.00738305 0.03213037 0.07801652
v -0.00623535 0.02695117 0.07766496
v -0.00623535 0.02699976 0.07766523
v -0.00738305 0.02551860 0.07809326
v -0.00623535 0.03213037 0.07750147
v -0.00738305 0.03602970 0.07731583
v -0.00623535 0.02528955 0.07763794
v -0.00738305 0.02528955 0.07808947
v -0.00623535 0.03602970 0.07675458
v -0.00738305 0.03602970 0.07534539
v -0.00738305 0.02184970 0.07801868
v -0.00623535 0.02524235 0.07763577
v -0.00623535 0.03602970 0.07534539
v -0.00738305 0.03416125 0.07534539
v -0.00677202 0.02184970 0.07769090
v -0.00738305 0.02184970 0.07534565
v -0.00623535 0.02184970 0.07740284
v -0.00623535 0.03416125 0.07534539
v -0.00623535 0.02184970 0.07534565
f 1 4 2
f 11 6 10
f 10 14 11
f 6 2 5
f 5 2 4
f 5 10 6
f 12 13 16
f 9 13 12
f 20 22 17
f 16 20 17
f 17 12 16
f 7 3 9
f 9 12 7
f 3 7 8
f 18 15 11
f 11 14 18
f 18 19 15
f 23 19 18
f 11 15 13
f 1 2 13
f 15 19 13
f 13 6 11
f 21 16 13
f 13 2 6
f 13 3 1
f 13 19 21
f 9 3 13
f 21 19 24
f 24 19 23
f 22 16 21
f 21 24 22
f 22 20 16
f 14 10 8
f 8 18 14
f 8 5 4
f 10 5 8
f 23 18 8
f 8 24 23
f 8 22 24
f 8 17 22
f 12 17 8
f 8 7 12
f 1 3 8
f 8 4 1

