# https://github.com/mikedh/trimesh
v -0.01052826 -0.02910179 0.00749599
v -0.01052826 -0.02817215 0.00808495
v -0.01052826 -0.02896788 0.00663138
v -0.01029408 -0.02892053 0.00665511
v -0.01029408 -0.02892053 0.00738506
v -0.01034768 -0.02780928 0.00808495
v -0.01052826 -0.02733668 0.00808495
v -0.01052826 -0.02865270 0.00654576
v -0.01001619 -0.02733668 0.00638841
v -0.00999088 -0.02733668 0.00773017
v -0.01012986 -0.02733668 0.00808495
v -0.01031202 -0.02773757 0.00808495
v -0.01052826 -0.02733668 0.00628908
f 1 4 5
f 5 4 10
f 5 2 1
f 3 4 1
f 10 4 9
f 11 5 10
f 4 3 8
f 13 9 8
f 8 9 4
f 5 11 12
f 2 5 6
f 5 12 6
f 11 13 7
f 10 9 11
f 11 9 13
f 7 13 8
f 1 2 8
f 8 2 7
f 8 3 1
f 7 2 6
f 6 11 7
f 6 12 11

