# https://github.com/mikedh/trimesh
v 0.02126741 -0.02619965 0.00940203
v 0.02091074 -0.02772133 0.00940238
v 0.02092722 -0.02767132 0.00940203
v 0.02039161 -0.02705289 0.00846282
v 0.02048343 -0.02619965 0.00834354
v 0.00994906 -0.02619965 0.00940203
v 0.02039396 -0.02887829 0.00940238
v 0.02091074 -0.02772133 0.00940203
v 0.01053999 -0.02772133 0.00940238
v 0.01975712 -0.02619965 0.00763255
v 0.02009261 -0.02819338 0.00875619
v 0.01954994 -0.02772133 0.00803273
v 0.01935807 -0.02755605 0.00777888
v 0.01862470 -0.02691871 0.00682863
v 0.00925807 -0.02619965 0.00767812
v 0.01056589 -0.02945342 0.00940238
v 0.01977243 -0.02980105 0.00940238
v 0.01895195 -0.02902405 0.00823531
v 0.01874359 -0.02619965 0.00675279
v 0.01931333 -0.02772133 0.00783050
v 0.01816678 -0.02805921 0.00709529
v 0.01702730 -0.02869654 0.00678092
v 0.01758174 -0.02772133 0.00667945
v 0.01765708 -0.02758837 0.00666592
v 0.01773948 -0.02619965 0.00640708
v 0.01791840 -0.02619965 0.00646262
v 0.00924158 -0.02619965 0.00608238
v 0.01000321 -0.02870203 0.00697709
v 0.01104734 -0.03126174 0.00940238
v 0.01058943 -0.02954246 0.00940238
v 0.01893782 -0.03067381 0.00940238
v 0.01842929 -0.03016333 0.00865116
v 0.01772888 -0.02943024 0.00770980
v 0.01728863 -0.03055732 0.00832361
v 0.01603966 -0.02981691 0.00719641
v 0.01603966 -0.02896245 0.00664562
v 0.01603966 -0.02773779 0.00628603
v 0.01621859 -0.02772133 0.00632804
v 0.01603966 -0.02772133 0.00628390
v 0.01603966 -0.02619965 0.00611086
v 0.00924276 -0.02619965 0.00603966
v 0.01000321 -0.02870203 0.00677664
v 0.01113445 -0.03147764 0.00940238
v 0.01801611 -0.03135993 0.00940238
v 0.01680128 -0.03191371 0.00940238
v 0.01603966 -0.03081347 0.00805124
v 0.01779480 -0.03146666 0.00940238
v 0.01433043 -0.03006453 0.00700486
v 0.01433043 -0.02921007 0.00653704
v 0.01433043 -0.02773779 0.00614576
v 0.01112150 -0.02619965 0.00576516
v 0.01086959 -0.02619965 0.00579613
v 0.01090962 -0.02902161 0.00662604
v 0.01137341 -0.03077017 0.00805302
v 0.01262002 -0.03242968 0.00940238
v 0.01603966 -0.03216621 0.00940238
v 0.01603966 -0.03166915 0.00888614
v 0.01433043 -0.03097326 0.00785970
v 0.01262002 -0.03012003 0.00696036
v 0.01262002 -0.02926557 0.00652066
v 0.01262002 -0.02773779 0.00612795
v 0.01260354 -0.02772133 0.00612404
v 0.01262002 -0.03100437 0.00781484
v 0.01262002 -0.03185943 0.00873269
v 0.01392314 -0.03241138 0.00940238
v 0.01544991 -0.03226379 0.00940238
v 0.01433043 -0.03182833 0.00875654
v 0.01433043 -0.03239918 0.00940238
f 60 53 51
f 59 53 60
f 28 15 27
f 16 9 6
f 6 15 16
f 55 43 54
f 54 53 59
f 59 63 54
f 51 53 52
f 53 41 52
f 27 41 42
f 42 28 27
f 42 41 53
f 53 54 42
f 43 28 42
f 42 54 43
f 15 28 29
f 29 28 43
f 62 60 51
f 62 61 60
f 59 60 49
f 14 19 10
f 30 16 15
f 15 29 30
f 61 62 50
f 60 61 50
f 50 49 60
f 50 62 51
f 51 40 50
f 50 40 39
f 39 40 25
f 14 24 25
f 4 10 5
f 14 10 4
f 4 5 1
f 63 67 64
f 55 54 64
f 64 54 63
f 67 68 64
f 58 63 59
f 58 67 63
f 22 36 37
f 39 25 37
f 37 36 49
f 37 50 39
f 49 50 37
f 26 19 14
f 14 25 26
f 3 4 1
f 21 22 14
f 14 18 21
f 17 18 7
f 18 17 32
f 66 68 67
f 66 58 56
f 67 58 66
f 55 64 65
f 65 64 68
f 59 49 48
f 48 58 59
f 49 36 48
f 48 46 58
f 22 37 23
f 14 22 23
f 23 24 14
f 34 32 44
f 34 45 46
f 11 4 7
f 11 12 4
f 7 18 11
f 18 12 11
f 20 18 14
f 20 12 18
f 7 4 8
f 4 3 8
f 18 32 33
f 22 21 33
f 33 21 18
f 33 34 22
f 32 34 33
f 44 32 31
f 31 32 17
f 24 23 38
f 38 23 37
f 38 25 24
f 38 37 25
f 57 45 56
f 46 45 57
f 56 58 57
f 58 46 57
f 22 34 35
f 35 34 46
f 35 36 22
f 35 48 36
f 46 48 35
f 47 34 44
f 45 34 47
f 13 20 14
f 12 20 13
f 14 4 13
f 4 12 13
f 7 8 2
f 2 8 3
f 2 3 1
f 26 41 27
f 27 15 26
f 26 6 1
f 26 15 6
f 51 52 26
f 1 5 26
f 26 52 41
f 26 40 51
f 26 10 19
f 5 10 26
f 26 25 40
f 9 16 2
f 2 43 55
f 2 29 43
f 16 30 2
f 55 65 2
f 2 47 44
f 2 66 56
f 2 30 29
f 44 31 2
f 2 17 7
f 68 66 2
f 2 65 68
f 56 45 2
f 2 31 17
f 45 47 2
f 1 6 2
f 6 9 2

