# https://github.com/mikedh/trimesh
v 0.01043828 0.01064364 0.07784427
v 0.01043938 -0.01155424 0.07784427
v 0.01043828 0.01064364 0.07876974
v 0.01043828 0.01967317 0.07784427
v 0.01043938 -0.01155424 0.07831847
v 0.02141363 -0.01155424 0.07784427
v 0.01043938 -0.01086342 0.07876974
v 0.01043828 0.01967317 0.07876974
v 0.02141472 0.01967317 0.07784427
v 0.01054404 -0.01155424 0.07873812
v 0.02157389 -0.01155424 0.07876974
v 0.02141472 0.01064364 0.07784427
v 0.02149648 0.01967317 0.07831131
v 0.02157607 0.01967317 0.07876974
v 0.01054731 -0.01150839 0.07876974
v 0.01055603 -0.01155424 0.07876974
f 14 11 6
f 6 13 14
f 9 13 12
f 13 6 12
f 5 7 3
f 7 5 10
f 15 10 16
f 7 10 15
f 9 4 8
f 14 13 8
f 8 13 9
f 8 4 1
f 1 3 8
f 1 4 12
f 12 2 1
f 12 4 9
f 12 6 2
f 1 2 5
f 5 3 1
f 11 16 10
f 2 6 10
f 10 6 11
f 10 5 2
f 15 11 14
f 3 7 15
f 15 16 11
f 14 8 15
f 15 8 3

