# https://github.com/mikedh/trimesh
v -0.00623524 0.03763951 0.08042010
v -0.00623524 0.03762160 0.08120188
v -0.00623524 0.03764633 0.08042010
v -0.00395804 0.03712650 0.08042010
v -0.00623524 0.03762135 0.08124966
v -0.00396860 0.03712650 0.08078280
v -0.00398218 0.03712650 0.08124966
v -0.00623524 0.03764633 0.08148859
v 0.00918152 0.03764633 0.08042010
v 0.00918152 0.03712650 0.08042010
v -0.00334384 0.03712650 0.08311809
v -0.00253799 0.03712650 0.08452539
v -0.00251838 0.03712650 0.08455740
v -0.00265268 0.03764633 0.08433233
v 0.00918152 0.03764633 0.08331784
v 0.00918152 0.03712650 0.08188999
v -0.00138657 0.03712650 0.08507970
v -0.00106362 0.03712650 0.08519582
v -0.00106362 0.03764633 0.08463147
v 0.00918152 0.03741456 0.08295992
v 0.00894007 0.03764633 0.08359404
v 0.00757737 0.03712650 0.08463051
v 0.00879369 0.03712650 0.08295992
v 0.00064616 0.03712650 0.08530143
v 0.00064616 0.03764633 0.08465967
v 0.00863825 0.03764633 0.08389891
v 0.00744910 0.03712650 0.08470410
v 0.00843000 0.03764633 0.08410917
v 0.00841189 0.03764633 0.08412733
v 0.00406574 0.03712650 0.08530143
v 0.00426946 0.03764633 0.08465967
v 0.00577704 0.03712650 0.08527467
v 0.00794407 0.03764633 0.08432277
v 0.00510700 0.03712650 0.08529044
v 0.00577704 0.03764633 0.08465345
v 0.00598982 0.03764633 0.08464867
f 1 4 2
f 7 11 5
f 5 2 7
f 13 14 8
f 8 12 13
f 11 12 8
f 5 11 8
f 17 14 13
f 18 14 17
f 19 14 18
f 19 18 24
f 24 25 19
f 32 36 34
f 33 32 27
f 33 36 32
f 6 2 4
f 6 7 2
f 23 16 20
f 20 22 23
f 15 22 20
f 30 34 35
f 35 34 36
f 35 31 30
f 27 22 29
f 29 33 27
f 21 22 15
f 22 21 26
f 28 29 22
f 22 26 28
f 3 4 1
f 9 10 3
f 3 10 4
f 8 3 1
f 1 2 8
f 8 2 5
f 24 30 31
f 31 25 24
f 4 10 6
f 24 18 6
f 6 17 13
f 6 30 24
f 13 12 6
f 27 32 6
f 32 34 6
f 10 16 6
f 6 22 27
f 11 7 6
f 6 12 11
f 18 17 6
f 6 16 23
f 23 22 6
f 6 34 30
f 20 10 9
f 9 15 20
f 20 16 10
f 9 3 28
f 28 15 9
f 3 8 28
f 28 19 25
f 25 31 28
f 28 8 14
f 14 19 28
f 28 35 36
f 36 33 28
f 31 35 28
f 33 29 28
f 28 21 15
f 28 26 21

