# https://github.com/mikedh/trimesh
v 0.01092785 -0.01750460 0.02715940
v 0.01232610 -0.01750460 0.02715940
v 0.01092785 -0.01750460 0.02838029
v 0.01092785 -0.01226285 0.02715940
v 0.01274597 -0.01726188 0.02715940
v 0.01274597 -0.01744097 0.02716108
v 0.01270040 -0.01750460 0.02716144
v 0.01174480 -0.01750460 0.02838029
v 0.01092785 -0.01226285 0.02838029
v 0.01274597 -0.01226285 0.02715940
v 0.01274597 -0.01665124 0.02838029
v 0.01274597 -0.01226285 0.02838029
f 6 2 5
f 7 2 6
f 7 6 11
f 7 11 8
f 9 4 1
f 1 3 9
f 9 10 4
f 12 10 9
f 1 4 2
f 2 10 5
f 4 10 2
f 5 10 11
f 11 10 12
f 11 6 5
f 8 3 1
f 1 2 8
f 8 2 7
f 8 9 3
f 12 9 8
f 8 11 12

