# https://github.com/mikedh/trimesh
v 0.01101498 -0.00311549 0.08673246
v 0.01106001 -0.01016488 0.08673246
v 0.01106001 -0.01016488 0.08809147
v 0.01101498 -0.00207260 0.08774608
v 0.01101498 0.01316147 0.08673246
v 0.02275676 -0.01016488 0.08673246
v 0.01106474 -0.01016488 0.08855896
v 0.01106474 -0.00991406 0.08880805
v 0.01101498 -0.00036966 0.08800573
v 0.01101498 0.01311197 0.08789358
v 0.01106001 0.02355074 0.08880805
v 0.01106001 0.02355074 0.08673246
v 0.02268330 -0.01016488 0.08809147
v 0.02281719 -0.00892068 0.08673246
v 0.02294515 -0.00720783 0.08809147
v 0.02282312 -0.00892068 0.08809147
v 0.01107659 -0.01016488 0.08880805
v 0.01106001 -0.00820122 0.08880805
v 0.01104223 0.00134318 0.08880805
v 0.01101498 0.00134318 0.08805205
v 0.01101498 0.01147833 0.08797952
v 0.02305416 0.02355074 0.08880805
v 0.01104105 0.00889751 0.08880805
v 0.02286814 0.02355074 0.08673246
v 0.02242975 -0.01016488 0.08880805
v 0.02281364 -0.00720783 0.08880805
v 0.02260984 -0.00886127 0.08880805
v 0.02285392 -0.00720783 0.08673246
v 0.02301150 -0.00549829 0.08809147
v 0.02307786 -0.00378875 0.08880805
v 0.02297833 -0.00549829 0.08880805
v 0.01104105 0.00305273 0.08880805
v 0.01101498 0.00305273 0.08806221
v 0.01101498 0.00981499 0.08803113
v 0.02304350 0.02355074 0.08811869
v 0.02307312 0.02286098 0.08880805
v 0.01101498 0.00813845 0.08805733
v 0.01101498 0.00647181 0.08806221
v 0.02304231 0.02355074 0.08809147
v 0.02286932 -0.00378875 0.08673246
v 0.02286458 -0.00549829 0.08673246
v 0.02304350 -0.00378875 0.08809147
v 0.02303046 -0.00452141 0.08809147
v 0.02310985 -0.00207260 0.08880805
v 0.02309207 0.02114814 0.08880805
v 0.02310985 0.01943860 0.08880805
v 0.02311577 0.01772905 0.08880805
v 0.02311933 0.00063032 0.08880805
v 0.02311696 -0.00036636 0.08880805
f 11 12 5
f 9 4 8
f 11 5 10
f 48 39 47
f 1 2 3
f 3 4 1
f 8 4 3
f 20 9 19
f 19 32 20
f 21 23 11
f 11 10 21
f 27 25 13
f 13 26 27
f 7 17 8
f 8 3 7
f 18 9 8
f 18 19 9
f 46 47 39
f 42 41 40
f 42 39 48
f 28 41 42
f 28 29 14
f 13 6 16
f 31 26 16
f 16 26 13
f 23 21 34
f 34 37 23
f 20 32 33
f 22 36 35
f 35 36 45
f 45 46 35
f 35 46 39
f 43 30 29
f 43 29 28
f 28 42 43
f 43 44 30
f 42 44 43
f 15 30 31
f 31 16 15
f 29 30 15
f 15 16 6
f 6 14 15
f 15 14 29
f 23 37 38
f 49 42 48
f 49 44 42
f 25 17 7
f 7 3 2
f 13 25 7
f 2 6 7
f 7 6 13
f 24 39 42
f 42 40 24
f 14 12 24
f 1 5 14
f 14 2 1
f 14 41 28
f 14 5 12
f 24 40 14
f 40 41 14
f 14 6 2
f 11 22 35
f 35 12 11
f 24 12 35
f 35 39 24
f 38 5 1
f 1 4 38
f 38 9 20
f 4 9 38
f 38 10 5
f 38 21 10
f 38 34 21
f 37 34 38
f 20 33 38
f 32 23 38
f 38 33 32
f 8 17 49
f 11 23 49
f 49 22 11
f 25 27 49
f 49 18 8
f 48 47 49
f 49 17 25
f 49 23 32
f 47 46 49
f 49 26 31
f 32 19 49
f 49 36 22
f 49 27 26
f 31 30 49
f 19 18 49
f 45 36 49
f 49 46 45
f 30 44 49

