# https://github.com/mikedh/trimesh
v -0.01825289 -0.02700903 0.05415971
v -0.01811748 -0.02773757 0.05415971
v -0.01810798 -0.02773757 0.05559195
v -0.01822201 -0.02700903 0.05559195
v 0.00601696 -0.02700903 0.05415971
v -0.01760909 -0.02906342 0.05415971
v -0.01760909 -0.02906188 0.05730210
v -0.01760433 -0.02905919 0.05856112
v -0.01806522 -0.02773757 0.05730210
v -0.01814124 -0.02700903 0.05730210
v -0.01800820 -0.02773757 0.05856112
v 0.00601696 -0.02700903 0.05856112
v 0.00601696 -0.03094078 0.05415971
v -0.01748793 -0.02920236 0.05415971
v -0.01686313 -0.02991859 0.05415971
v -0.01686313 -0.02991782 0.05559195
v -0.01686075 -0.02991705 0.05730210
v -0.01686075 -0.02991435 0.05856112
v -0.01705793 -0.02968882 0.05856112
v -0.01804859 -0.02700903 0.05856112
v 0.00601696 -0.03094078 0.05856112
v -0.01303830 -0.03094078 0.05415971
v -0.01614805 -0.03042083 0.05415971
v -0.01600789 -0.03051859 0.05559195
v -0.01600551 -0.03051820 0.05856112
v -0.01303830 -0.03094078 0.05856112
v -0.01474878 -0.03083764 0.05415971
v -0.01600789 -0.03051897 0.05415971
v -0.01474878 -0.03083725 0.05730210
v -0.01474878 -0.03083687 0.05856112
v -0.01348967 -0.03091346 0.05856112
f 22 26 27
f 8 11 9
f 11 4 9
f 10 11 20
f 10 4 11
f 1 2 3
f 3 4 1
f 3 9 4
f 8 9 3
f 3 2 8
f 7 2 6
f 8 2 7
f 7 19 8
f 15 16 7
f 18 19 7
f 17 25 18
f 17 16 25
f 18 7 17
f 17 7 16
f 29 28 27
f 24 30 25
f 24 23 28
f 28 29 24
f 24 29 30
f 25 16 24
f 15 23 24
f 24 16 15
f 15 7 14
f 14 7 6
f 30 29 31
f 27 26 31
f 31 29 27
f 12 21 13
f 12 13 5
f 13 21 22
f 21 26 22
f 10 12 5
f 10 5 1
f 10 20 12
f 1 4 10
f 5 13 14
f 1 5 14
f 13 22 14
f 14 2 1
f 14 23 15
f 14 22 27
f 6 2 14
f 27 28 14
f 28 23 14
f 21 12 31
f 12 20 31
f 31 11 8
f 31 26 21
f 20 11 31
f 8 19 31
f 18 25 31
f 31 19 18
f 25 30 31

