# https://github.com/mikedh/trimesh
v 0.00828742 0.03712650 0.08350209
v 0.00764149 0.03712650 0.08447188
v 0.00861287 0.03530968 0.08447188
v 0.00889718 0.03403160 0.08447188
v 0.00895454 0.03383989 0.08350209
v -0.00312104 0.03712650 0.08350209
v -0.00255991 0.03712650 0.08447188
v 0.00893584 0.03383989 0.08447188
v 0.00893833 0.03374847 0.08447188
v 0.00899818 0.03213135 0.08350209
v -0.00367345 0.03480555 0.08350209
v -0.00366098 0.03477803 0.08447188
v -0.00361734 0.03487655 0.08447188
v 0.00897449 0.03233016 0.08447188
v 0.00897948 0.03213135 0.08447188
v 0.00871388 0.03025062 0.08447188
v 0.00872759 0.03025062 0.08350209
v -0.00372832 0.03383989 0.08350209
v -0.00371709 0.03383989 0.08447188
v -0.00367095 0.03461384 0.08447188
v 0.00859791 0.02974738 0.08447188
v 0.00846199 0.02910390 0.08447179
v 0.00851935 0.02987873 0.08350209
v -0.00374078 0.03213135 0.08350209
v -0.00374078 0.03213135 0.08447188
v 0.00743948 0.02805925 0.08447169
v 0.00782853 0.02806546 0.08447169
v -0.00326320 0.02974738 0.08447188
v 0.00843830 0.02974738 0.08350209
v -0.00369091 0.03048848 0.08350209
v -0.00369465 0.03048848 0.08447188
v 0.00743948 0.02805925 0.08441473
v 0.00036920 0.02805925 0.08447169
v 0.00757665 0.02806546 0.08440961
v 0.00771381 0.02872846 0.08350238
v 0.00811035 0.02922194 0.08350228
v -0.00283549 0.02878882 0.08447160
v 0.00807543 0.02917934 0.08350228
v 0.00691700 0.02868142 0.08350238
v 0.00191170 0.02856604 0.08350238
v -0.00319087 0.02974738 0.08350209
v -0.00277065 0.02884384 0.08350247
v 0.00064728 0.02805925 0.08443059
v 0.00064728 0.02856604 0.08350238
v 0.00406395 0.02856604 0.08350257
v 0.00577479 0.02856693 0.08350257
v 0.00036920 0.02805925 0.08443144
v 0.00601046 0.02859888 0.08350247
v 0.00036920 0.02856693 0.08350238
v -0.00152867 0.02865923 0.08350247
v -0.00107228 0.02857314 0.08350266
v -0.00100994 0.02857137 0.08350266
f 10 5 9
f 19 11 18
f 6 11 12
f 14 15 10
f 10 9 14
f 4 5 1
f 40 29 39
f 29 35 39
f 13 7 6
f 6 12 13
f 20 11 19
f 20 12 11
f 8 9 5
f 5 4 8
f 1 2 3
f 3 4 1
f 24 31 25
f 25 18 24
f 19 18 25
f 30 31 24
f 41 42 30
f 47 42 51
f 49 42 41
f 47 33 37
f 37 42 47
f 37 33 28
f 28 31 37
f 31 30 37
f 37 30 42
f 35 36 27
f 27 36 29
f 32 27 26
f 35 46 48
f 48 39 35
f 48 46 40
f 40 39 48
f 23 17 22
f 23 27 29
f 22 27 23
f 16 17 10
f 10 15 16
f 22 17 16
f 38 35 29
f 29 36 38
f 38 36 35
f 44 49 41
f 40 32 44
f 44 32 43
f 44 43 47
f 47 49 44
f 50 51 42
f 42 49 50
f 50 49 51
f 47 51 52
f 52 49 47
f 51 49 52
f 40 46 45
f 45 32 40
f 46 32 45
f 34 46 35
f 34 32 46
f 35 27 34
f 27 32 34
f 22 16 21
f 21 27 22
f 26 27 21
f 1 6 7
f 7 2 1
f 47 43 32
f 26 33 32
f 32 33 47
f 10 17 23
f 23 5 10
f 23 6 1
f 1 5 23
f 24 18 23
f 23 11 6
f 29 41 23
f 23 18 11
f 23 30 24
f 41 30 23
f 44 41 29
f 44 29 40
f 2 7 21
f 9 8 21
f 15 14 21
f 7 13 21
f 19 25 21
f 21 3 2
f 21 14 9
f 21 20 19
f 21 31 28
f 21 13 12
f 12 20 21
f 21 8 4
f 4 3 21
f 21 25 31
f 21 16 15
f 21 33 26
f 28 33 21

