# https://github.com/mikedh/trimesh
v -0.00449402 -0.02505427 0.01566099
v -0.00448560 -0.02505518 0.01566633
v -0.00449402 -0.02505427 0.01566633
v -0.00449402 -0.02492764 0.01453882
v 0.00064518 -0.02459660 0.01112779
v 0.00064518 -0.02478021 0.01282930
v 0.00254941 -0.02505880 0.01567301
v -0.00449402 -0.01581940 0.01566633
v -0.00449402 -0.02492674 0.01453125
v 0.00065437 -0.02459479 0.01112779
v 0.00332810 -0.02492764 0.01453882
v 0.00332810 -0.02505246 0.01566856
v -0.00449402 -0.02470062 0.01282930
v -0.00449402 -0.02469881 0.01282129
v -0.00106457 -0.02443108 0.01112779
v 0.00332810 -0.02150504 0.01567301
v 0.00254941 -0.01581849 0.01567301
v -0.00449402 -0.01581940 0.01112779
v 0.00204483 -0.02407380 0.01112779
v 0.00332810 -0.02430716 0.01271940
v -0.00449402 -0.02398064 0.01112779
v 0.00332810 -0.01581849 0.01567301
v 0.00254941 -0.01581849 0.01112824
v 0.00254941 -0.01581940 0.01112779
v 0.00254941 -0.02355372 0.01112779
v 0.00332810 -0.02319192 0.01112824
v 0.00332810 -0.01581849 0.01112824
f 12 5 11
f 5 12 6
f 5 6 2
f 2 3 1
f 26 20 19
f 15 14 21
f 5 14 15
f 7 6 12
f 7 2 6
f 3 2 7
f 12 16 7
f 10 19 20
f 10 20 11
f 11 5 10
f 26 19 25
f 4 2 1
f 5 2 4
f 4 9 5
f 13 14 5
f 5 9 13
f 11 20 27
f 27 12 11
f 27 20 26
f 27 16 12
f 22 16 27
f 8 3 7
f 17 8 7
f 7 16 22
f 7 22 17
f 25 21 18
f 5 15 25
f 18 24 25
f 25 10 5
f 25 15 21
f 19 10 25
f 25 27 26
f 24 27 25
f 18 8 23
f 23 8 17
f 22 27 23
f 17 22 23
f 23 24 18
f 23 27 24
f 13 8 18
f 1 3 13
f 18 21 13
f 13 3 8
f 21 14 13
f 13 4 1
f 9 4 13

