# https://github.com/mikedh/trimesh
v -0.00489488 -0.02516658 0.05856514
v -0.00380761 -0.02516658 0.05856514
v -0.00489488 -0.02516658 0.07423060
v -0.00489488 -0.01249920 0.05856514
v -0.00380761 -0.01249920 0.05856514
v -0.00380761 -0.02516658 0.07597267
v -0.00489488 -0.02260483 0.07473399
v -0.00411859 -0.02516658 0.07597267
v -0.00406602 -0.02516534 0.07612162
v -0.00380761 -0.02260483 0.07733768
v -0.00489488 -0.01249920 0.07460013
v -0.00380761 -0.01249920 0.07597267
v -0.00380772 -0.02516534 0.07654017
v -0.00489488 -0.02089493 0.07490556
v -0.00380761 -0.02089369 0.07751301
v -0.00489488 -0.01254508 0.07461333
v -0.00380761 -0.01250168 0.07782598
v -0.00405207 -0.01249920 0.07597267
v -0.00489488 -0.01918380 0.07495269
v -0.00489488 -0.01405410 0.07484523
v -0.00489488 -0.01576648 0.07495081
v -0.00489488 -0.01744662 0.07495269
f 13 8 6
f 9 8 13
f 9 3 8
f 13 6 10
f 10 9 13
f 3 9 10
f 16 20 17
f 17 11 16
f 17 12 18
f 18 11 17
f 3 10 7
f 17 14 15
f 14 7 15
f 15 7 10
f 17 20 21
f 19 14 17
f 17 21 22
f 22 19 17
f 1 4 5
f 5 2 1
f 1 2 3
f 2 6 3
f 3 6 8
f 18 5 4
f 4 11 18
f 18 12 5
f 2 5 15
f 15 12 17
f 15 6 2
f 15 10 6
f 5 12 15
f 22 4 1
f 22 11 4
f 1 3 22
f 20 16 22
f 22 16 11
f 3 7 22
f 22 7 14
f 22 21 20
f 14 19 22

