# https://github.com/mikedh/trimesh
v -0.01945136 -0.01233435 0.04463686
v -0.01944574 -0.01403831 0.04463686
v -0.01944574 -0.01403831 0.04464367
v -0.01939235 -0.01403831 0.04532927
v -0.01939516 -0.01233435 0.04533745
v 0.00671873 -0.01233435 0.04463686
v 0.00737909 -0.01403831 0.04463686
v -0.01924903 -0.01403831 0.04705487
v -0.01924903 -0.01233435 0.04704805
v 0.00919720 -0.01233435 0.04555145
v 0.00925621 -0.01233469 0.04555145
v 0.00714867 -0.01266494 0.04463686
v 0.00925621 -0.01403831 0.04582951
v -0.01910010 -0.01403831 0.04873548
v -0.01910010 -0.01233435 0.04872867
v 0.00925621 -0.01233435 0.04572864
v 0.00925621 -0.01403831 0.05856155
v -0.01902142 -0.01403831 0.04959146
v -0.01902142 -0.01233435 0.04958328
v 0.00925621 -0.01233435 0.05856155
v -0.01813063 -0.01403831 0.05856155
v -0.01893993 -0.01403831 0.05046107
v -0.01893993 -0.01233435 0.05046107
v -0.01813063 -0.01233435 0.05856155
v -0.01825989 -0.01403831 0.05731710
v -0.01877413 -0.01403831 0.05218530
v -0.01877413 -0.01233435 0.05217849
v -0.01825989 -0.01233435 0.05731029
v -0.01843693 -0.01403831 0.05559151
v -0.01843693 -0.01233435 0.05559151
v -0.01860834 -0.01403831 0.05388091
v -0.01860834 -0.01233435 0.05388091
f 6 10 11
f 13 7 11
f 11 10 16
f 11 7 12
f 12 6 11
f 15 14 18
f 9 5 8
f 25 21 24
f 29 25 30
f 19 18 23
f 15 18 19
f 26 27 23
f 32 27 26
f 31 32 26
f 4 8 5
f 4 5 1
f 28 25 24
f 28 30 25
f 23 18 22
f 22 26 23
f 1 2 3
f 3 4 1
f 21 20 24
f 17 20 21
f 16 20 17
f 17 13 16
f 16 13 11
f 12 7 2
f 12 2 1
f 1 6 12
f 8 15 9
f 8 14 15
f 31 29 30
f 30 32 31
f 28 16 10
f 24 20 28
f 28 6 1
f 28 19 23
f 10 6 28
f 20 16 28
f 1 5 28
f 28 5 9
f 9 15 28
f 23 27 28
f 28 27 32
f 32 30 28
f 15 19 28
f 3 13 17
f 2 7 3
f 17 21 3
f 7 13 3
f 21 25 3
f 14 8 3
f 3 29 31
f 3 18 14
f 31 26 3
f 3 25 29
f 3 22 18
f 8 4 3
f 26 22 3

