# https://github.com/mikedh/trimesh
v 0.01043828 0.01967406 0.07784418
v 0.02141491 0.01967406 0.07784418
v 0.01043828 0.01967406 0.07876974
v 0.01043828 0.04180389 0.07784418
v 0.02145852 0.01967406 0.07809426
v 0.02141600 0.02697268 0.07784418
v 0.02157519 0.01967406 0.07876974
v 0.01043828 0.04175623 0.07876974
v 0.01432977 0.04180389 0.07784418
v 0.02157628 0.02358009 0.07876974
v 0.02141600 0.03554948 0.07784418
v 0.02157737 0.03554948 0.07876974
v 0.01432977 0.04175623 0.07876974
v 0.01603945 0.04175189 0.07876974
v 0.01603945 0.04179306 0.07784418
v 0.02139964 0.03726094 0.07784418
v 0.02156865 0.03632072 0.07876974
v 0.01777748 0.04163924 0.07876974
v 0.01630658 0.04177139 0.07784418
v 0.02109216 0.03897240 0.07784418
v 0.02141818 0.03803001 0.07876974
v 0.02155556 0.03726094 0.07876974
v 0.01780692 0.04164141 0.07793180
v 0.01844914 0.04156775 0.07876974
v 0.01778184 0.04164141 0.07784418
v 0.02056879 0.04009243 0.07784418
v 0.02123827 0.03897240 0.07876974
v 0.01863014 0.04154825 0.07876974
v 0.01863014 0.04154825 0.07857068
v 0.01791377 0.04161541 0.07784418
v 0.02055898 0.04011192 0.07784418
v 0.02099839 0.03948367 0.07876974
v 0.01880677 0.04145510 0.07876974
v 0.01930398 0.04104998 0.07793180
v 0.01914915 0.04112580 0.07784418
v 0.02054807 0.04012059 0.07784418
v 0.02062876 0.04018125 0.07876974
v 0.01939993 0.04107164 0.07876974
v 0.01938793 0.04096982 0.07784418
v 0.02036816 0.04025274 0.07784418
f 10 6 12
f 12 6 11
f 11 16 12
f 5 10 7
f 5 2 6
f 6 10 5
f 9 13 14
f 37 32 31
f 31 32 26
f 16 20 21
f 20 26 27
f 27 26 32
f 27 21 20
f 16 21 22
f 28 23 24
f 24 23 18
f 14 18 15
f 15 9 14
f 35 34 39
f 37 34 38
f 12 16 17
f 16 22 17
f 18 23 19
f 19 15 18
f 19 23 25
f 40 39 34
f 29 34 35
f 35 30 29
f 29 30 25
f 29 23 28
f 25 23 29
f 36 40 34
f 36 37 31
f 36 34 37
f 33 29 28
f 33 38 34
f 34 29 33
f 1 3 8
f 8 4 1
f 5 3 1
f 5 7 3
f 1 2 5
f 4 8 9
f 8 13 9
f 1 4 36
f 36 2 1
f 4 9 36
f 36 11 6
f 6 2 36
f 16 11 36
f 36 20 16
f 36 19 25
f 31 26 36
f 25 30 36
f 36 26 20
f 36 30 35
f 9 15 36
f 35 39 36
f 15 19 36
f 39 40 36
f 33 8 3
f 28 24 33
f 3 7 33
f 33 10 12
f 7 10 33
f 33 13 8
f 12 17 33
f 14 13 33
f 33 18 14
f 32 37 33
f 33 27 32
f 21 27 33
f 33 22 21
f 33 24 18
f 37 38 33
f 33 17 22

