# https://github.com/mikedh/trimesh
v -0.00081365 0.02859408 0.01536269
v -0.00643027 0.02859408 0.01543830
v -0.00643027 0.02667179 0.01448550
v -0.00643027 0.02621336 0.01425248
v -0.00081365 0.02621336 0.01388896
v -0.00081365 0.02859408 0.00625518
v -0.00643027 0.02859408 0.00625518
v -0.00643027 0.02621336 0.00492644
v -0.00081365 0.02621336 0.00499479
v -0.00277603 0.02621336 0.00485912
v -0.00277603 0.02859408 0.00625414
v -0.00621528 0.02859408 0.00625414
v -0.00448603 0.02621336 0.00485912
v -0.00620099 0.02621336 0.00489951
f 3 1 2
f 3 4 1
f 1 4 5
f 11 6 10
f 10 6 9
f 14 8 7
f 7 13 14
f 12 13 7
f 8 3 2
f 2 7 8
f 4 3 8
f 9 6 1
f 1 5 9
f 4 8 14
f 10 9 14
f 14 5 4
f 14 9 5
f 14 13 10
f 12 7 2
f 2 1 12
f 1 6 12
f 6 11 12
f 10 13 12
f 12 11 10

