# https://github.com/mikedh/trimesh
v 0.01470631 0.03383963 0.02580820
v 0.01317949 0.03525181 0.02580820
v 0.01793985 0.03383963 0.02580820
v 0.01466250 0.03383963 0.03407360
v 0.01317949 0.03921674 0.02580820
v 0.01317949 0.03524339 0.03407360
v 0.01793985 0.03384173 0.02580820
v 0.01794079 0.03384173 0.02651451
v 0.01794032 0.03383963 0.02651289
v 0.01794079 0.03383963 0.03407360
v 0.01390375 0.03918165 0.02586241
v 0.01390375 0.03916761 0.02580820
v 0.01317949 0.03939853 0.02651451
v 0.01317949 0.04101005 0.03407360
v 0.01781728 0.03555222 0.02580820
v 0.01784897 0.03555222 0.02651451
v 0.01788905 0.03555222 0.02822488
v 0.01792261 0.03555222 0.02993524
v 0.01793892 0.03555222 0.03164398
v 0.01794079 0.03555222 0.03335435
v 0.01794079 0.03555222 0.03407360
v 0.01433020 0.03913813 0.02580820
v 0.01390375 0.03934870 0.02651451
v 0.01433020 0.03931922 0.02651451
v 0.01317949 0.03990599 0.02872488
v 0.01394104 0.03988844 0.02880659
v 0.01317949 0.04088932 0.03335435
v 0.01390375 0.04096092 0.03407360
v 0.01390375 0.04091249 0.03377991
v 0.01725940 0.03722480 0.02580820
v 0.01749150 0.03726270 0.02822488
v 0.01764111 0.03726270 0.02993524
v 0.01775529 0.03726270 0.03164398
v 0.01782427 0.03726270 0.03335435
v 0.01784012 0.03726270 0.03407360
v 0.01491138 0.03895775 0.02580820
v 0.01508103 0.03981194 0.02914155
v 0.01317949 0.04006813 0.02945627
v 0.01317949 0.04054260 0.03164398
v 0.01390375 0.04049487 0.03164398
v 0.01433020 0.04046609 0.03164398
v 0.01443833 0.04004356 0.02980174
v 0.01433020 0.04081212 0.03335435
v 0.01390375 0.04058120 0.03206955
v 0.01433020 0.04093144 0.03407360
v 0.01687956 0.03789650 0.02580820
v 0.01693782 0.03816462 0.02710756
v 0.01726546 0.03738694 0.02652827
v 0.01723330 0.03864331 0.03164398
v 0.01730181 0.03885036 0.03335435
v 0.01729156 0.03897740 0.03407360
v 0.01598799 0.03852188 0.02580820
v 0.01539748 0.03993968 0.03028071
v 0.01565801 0.04009129 0.03164398
v 0.01524974 0.04061278 0.03407360
v 0.01679008 0.03801302 0.02580820
v 0.01682084 0.03803898 0.02596759
v 0.01701985 0.03826710 0.02822488
v 0.01685346 0.03978456 0.03407360
v 0.01698536 0.03957189 0.03407360
v 0.01713590 0.03843976 0.02993524
v 0.01667310 0.03809373 0.02580820
v 0.01616649 0.03857943 0.02652827
v 0.01591575 0.04026254 0.03335435
v 0.01677050 0.03970525 0.03335435
v 0.01604438 0.04028852 0.03407360
v 0.01664047 0.03992284 0.03407360
f 1 4 2
f 2 4 6
f 8 10 9
f 9 3 8
f 8 19 20
f 35 21 20
f 20 19 35
f 35 19 18
f 26 38 39
f 7 15 16
f 7 18 19
f 8 3 7
f 7 19 8
f 34 51 35
f 35 18 17
f 17 34 35
f 16 34 17
f 17 7 16
f 18 7 17
f 25 38 26
f 26 13 25
f 5 13 11
f 11 24 22
f 60 51 50
f 49 60 50
f 37 52 36
f 53 52 37
f 36 22 37
f 22 24 37
f 37 43 53
f 37 24 26
f 26 42 37
f 33 32 50
f 50 51 33
f 51 34 33
f 15 32 33
f 16 15 33
f 33 34 16
f 45 43 29
f 14 29 27
f 27 29 43
f 41 42 26
f 41 37 42
f 43 37 41
f 5 11 12
f 12 11 22
f 23 11 13
f 24 11 23
f 23 13 26
f 26 24 23
f 48 58 61
f 61 49 48
f 58 49 61
f 50 32 31
f 31 49 50
f 48 49 31
f 31 30 48
f 15 30 31
f 31 32 15
f 56 57 46
f 46 57 47
f 47 30 46
f 47 57 59
f 47 58 48
f 48 30 47
f 59 60 47
f 47 49 58
f 60 49 47
f 63 52 53
f 53 57 63
f 63 57 52
f 54 57 53
f 54 43 45
f 53 43 54
f 59 64 67
f 64 66 67
f 55 66 64
f 55 54 45
f 64 54 55
f 28 29 14
f 45 29 28
f 26 39 40
f 40 41 26
f 52 57 62
f 57 56 62
f 59 57 65
f 57 54 65
f 65 64 59
f 65 54 64
f 39 27 44
f 44 40 39
f 44 27 43
f 43 41 44
f 41 40 44
f 9 10 4
f 1 3 9
f 4 1 9
f 20 21 10
f 20 10 8
f 27 6 14
f 2 6 27
f 27 5 2
f 38 25 27
f 27 39 38
f 27 13 5
f 27 25 13
f 14 6 28
f 28 21 35
f 28 6 4
f 4 10 28
f 10 21 28
f 28 55 45
f 28 60 59
f 35 51 28
f 51 60 28
f 59 67 28
f 28 67 66
f 66 55 28
f 2 5 62
f 62 1 2
f 36 52 62
f 62 3 1
f 62 22 36
f 46 30 62
f 62 7 3
f 5 12 62
f 15 7 62
f 62 30 15
f 62 12 22
f 62 56 46

