# https://github.com/mikedh/trimesh
v 0.00918238 0.01040323 0.06459495
v 0.00918410 -0.03094078 0.06459495
v 0.00918238 0.01040323 0.06595756
v 0.00918238 0.04142382 0.06459495
v 0.01603750 -0.03094078 0.06459495
v 0.00918410 -0.03094078 0.06595756
v 0.00918238 0.04242309 0.06595756
v 0.00918238 0.04243028 0.06585485
v 0.00918669 0.04250217 0.06459495
v 0.01774934 -0.03076106 0.06459495
v 0.01603750 -0.03094078 0.06595756
v 0.01261985 0.04242309 0.06595756
v 0.00918238 0.04243028 0.06587126
v 0.00919962 0.04250217 0.06459495
v 0.01774934 -0.03075386 0.06595756
v 0.01797518 -0.03068916 0.06459495
v 0.01261985 0.04243028 0.06585485
v 0.01419982 0.04231525 0.06595756
v 0.01261985 0.04249498 0.06459495
v 0.01798638 -0.03067479 0.06595756
v 0.01798638 -0.03068197 0.06459495
v 0.01432911 0.04238715 0.06459495
v 0.01387831 0.04241590 0.06459495
v 0.01432911 0.04230088 0.06595756
v 0.01432911 0.04230807 0.06585485
v 0.01798638 0.03730452 0.06595756
v 0.01798638 0.03698820 0.06459495
v 0.01580391 0.04190548 0.06459495
v 0.01573582 0.04186235 0.06595756
v 0.01786053 0.03851946 0.06459495
v 0.01781658 0.03886453 0.06595756
v 0.01665983 0.04130879 0.06459495
v 0.01659088 0.04125847 0.06595756
v 0.01781140 0.03896518 0.06459495
v 0.01779072 0.03896518 0.06595756
v 0.01727441 0.04040298 0.06595756
v 0.01729682 0.04045330 0.06459495
v 0.01743214 0.04007947 0.06459495
v 0.01730716 0.04032390 0.06595756
f 13 9 8
f 8 9 4
f 37 32 36
f 36 32 33
f 28 22 29
f 29 32 28
f 33 32 29
f 16 21 20
f 20 15 16
f 10 11 5
f 10 15 11
f 10 16 15
f 31 26 30
f 30 34 31
f 30 26 27
f 12 13 7
f 12 17 13
f 34 38 35
f 31 34 35
f 17 19 14
f 9 13 14
f 13 17 14
f 23 17 22
f 23 19 17
f 22 17 18
f 17 12 18
f 39 35 38
f 39 38 37
f 37 36 39
f 25 24 29
f 25 29 22
f 18 24 25
f 22 18 25
f 1 2 6
f 6 3 1
f 26 21 27
f 20 21 26
f 1 3 4
f 3 7 4
f 4 13 8
f 7 13 4
f 11 6 2
f 2 5 11
f 23 2 1
f 23 5 2
f 27 21 23
f 1 4 23
f 28 32 23
f 23 4 9
f 23 30 27
f 37 38 23
f 23 22 28
f 23 10 5
f 23 32 37
f 21 16 23
f 16 10 23
f 23 38 34
f 34 30 23
f 9 14 23
f 23 14 19
f 20 26 24
f 24 7 3
f 3 6 24
f 24 26 31
f 24 15 20
f 6 11 24
f 24 12 7
f 11 15 24
f 24 36 33
f 33 29 24
f 31 35 24
f 24 39 36
f 24 18 12
f 35 39 24

