# https://github.com/mikedh/trimesh
v 0.01277860 0.00170052 0.04463686
v 0.01277860 0.00170052 0.03656106
v 0.00751001 0.00170052 0.04463686
v 0.01277860 -0.01088589 0.04463686
v 0.01277860 0.00166046 0.03642644
v 0.00751001 0.00170052 0.03662157
v 0.00751001 -0.01104236 0.04463686
v 0.01261871 -0.01093095 0.04463686
v 0.01277860 -0.01108617 0.04226191
v 0.01277860 0.00024723 0.03201989
v 0.00751001 0.00020968 0.03201989
v 0.00751001 -0.01108617 0.04238047
v 0.01261871 -0.01108617 0.04229279
v 0.01090841 -0.01102483 0.04463686
v 0.01225199 -0.01095849 0.04463686
v 0.01277860 -0.01108617 0.03201989
v 0.00751001 -0.01108617 0.03201989
f 10 11 6
f 7 12 13
f 13 14 7
f 9 14 13
f 5 6 2
f 10 6 5
f 15 14 9
f 9 4 8
f 8 15 9
f 17 11 16
f 16 11 10
f 17 12 6
f 6 7 3
f 6 11 17
f 6 12 7
f 1 2 6
f 3 1 6
f 13 16 9
f 17 16 13
f 13 12 17
f 5 2 1
f 9 16 5
f 1 4 5
f 5 16 10
f 5 4 9
f 3 7 8
f 8 4 1
f 8 1 3
f 7 14 8
f 14 15 8

