# https://github.com/mikedh/trimesh
v -0.00565769 -0.03093743 0.03653507
v 0.00073539 -0.03094078 0.03653498
v -0.00565769 -0.03093743 0.03747841
v -0.00565769 0.00178305 0.03653507
v 0.00235532 -0.03094078 0.03653498
v 0.00073539 -0.03094078 0.03747841
v 0.00073539 0.00163571 0.03653498
v -0.00565769 0.00326654 0.03747841
v -0.00565769 0.00264702 0.03704913
v 0.00396395 0.00163571 0.03653812
v 0.00241560 0.00163571 0.03653498
v 0.00235532 -0.03094078 0.03747841
v 0.00382457 -0.03086711 0.03653498
v 0.00396395 0.00276088 0.03747841
v 0.00396395 -0.00031995 0.03653498
v 0.00396395 -0.03085706 0.03747841
v 0.00396395 -0.03085706 0.03653498
f 10 8 14
f 11 4 10
f 9 8 10
f 10 4 9
f 4 11 7
f 15 11 10
f 16 12 13
f 13 17 16
f 5 13 12
f 9 3 8
f 1 3 9
f 9 4 1
f 8 3 6
f 6 14 8
f 6 16 14
f 6 12 16
f 14 16 15
f 10 14 15
f 16 17 15
f 2 3 1
f 2 6 3
f 1 4 2
f 4 7 2
f 5 15 17
f 5 7 11
f 11 15 5
f 17 13 5
f 5 2 7
f 12 6 5
f 6 2 5

