# https://github.com/mikedh/trimesh
v 0.01942673 -0.01066983 0.02743745
v 0.01942673 -0.01107854 0.02713853
v 0.01942673 -0.01066983 0.02713853
v 0.01679160 -0.01066983 0.02838041
v 0.01732103 -0.01109117 0.02838041
v 0.01757138 -0.01226285 0.02838041
v 0.01765069 -0.01226285 0.02831015
v 0.01927798 -0.01129061 0.02713853
v 0.01504770 -0.01066983 0.02713853
v 0.01504770 -0.01066983 0.02838041
v 0.01504770 -0.01226285 0.02838041
v 0.01767812 -0.01226285 0.02827550
v 0.01852306 -0.01226285 0.02713853
v 0.01504770 -0.01226285 0.02713853
f 5 6 1
f 1 4 5
f 13 8 12
f 2 3 1
f 1 6 7
f 7 2 1
f 8 2 7
f 7 12 8
f 6 5 10
f 10 11 6
f 10 5 4
f 10 4 1
f 10 3 9
f 1 3 10
f 11 10 14
f 14 10 9
f 9 3 2
f 2 8 13
f 2 14 9
f 13 14 2
f 6 11 7
f 11 14 7
f 7 14 13
f 13 12 7

