# https://github.com/mikedh/trimesh
v 0.00235625 -0.00858611 0.08043349
v 0.00064597 -0.00858710 0.08043349
v 0.00064597 -0.00903158 0.08155375
v 0.00406527 -0.00903158 0.08155375
v 0.00406527 -0.00858710 0.08043349
v -0.00106432 -0.00864080 0.08043349
v 0.00034214 -0.00904451 0.08155375
v 0.00577682 -0.00906241 0.08155375
v 0.00524133 -0.00860301 0.08043349
v -0.00265560 -0.00910218 0.08043349
v -0.00125421 -0.00914295 0.08155375
v -0.00106432 -0.00910715 0.08155375
v 0.00577682 -0.00861395 0.08043349
v 0.00743774 -0.00947010 0.08155375
v 0.00694402 -0.00875415 0.08043349
v -0.00232772 -0.00948004 0.08155375
v -0.00380761 -0.01084431 0.08043349
v -0.00333288 -0.01070708 0.08155375
v -0.00320502 -0.01052810 0.08155375
v 0.00750990 -0.00891226 0.08043349
v 0.00819857 -0.00993645 0.08155375
v 0.00842391 -0.00921554 0.08043349
v -0.00380761 -0.01154235 0.08043349
v -0.00380761 -0.01118935 0.08088587
v -0.00367848 -0.01135243 0.08155375
v 0.00860747 -0.01067626 0.08155375
v 0.00887205 -0.00969781 0.08043349
v -0.00374051 -0.01405312 0.08155375
v -0.00374051 -0.01405312 0.08043349
v -0.00373165 -0.01233188 0.08155375
v -0.00372026 -0.01211212 0.08155375
v 0.00867583 -0.01095269 0.08155375
v 0.00894674 -0.01234381 0.08155375
v 0.00912524 -0.01152346 0.08043349
v -0.00372026 -0.01478497 0.08043349
v -0.00368101 -0.01567990 0.08155375
v 0.00895940 -0.01264709 0.08155375
v 0.00897459 -0.01405312 0.08155375
v 0.00896953 -0.01435739 0.08155375
v 0.00904422 -0.01405312 0.08043349
v -0.00368608 -0.01567095 0.08043349
v -0.00366835 -0.01588175 0.08155375
v 0.00869355 -0.01633916 0.08155375
v 0.00877710 -0.01589170 0.08043349
v -0.00274169 -0.01874453 0.08137433
v -0.00283537 -0.01874453 0.08154574
v -0.00283916 -0.01874453 0.08155375
v -0.00269865 -0.01730071 0.08043349
v 0.00853784 -0.01701235 0.08155375
v 0.00849480 -0.01714758 0.08155375
v 0.00796437 -0.01874453 0.08155375
v 0.00760358 -0.01742103 0.08043349
v -0.00106432 -0.01874453 0.08106825
v -0.00176058 -0.01749461 0.08043349
v 0.00765421 -0.01874453 0.08134154
v 0.00577682 -0.01874453 0.08106156
v 0.00656424 -0.01757018 0.08043349
v -0.00106432 -0.01760101 0.08043349
v 0.00051051 -0.01874453 0.08106134
v 0.00406527 -0.01874453 0.08106079
v 0.00577682 -0.01760797 0.08043349
v 0.00064597 -0.01874453 0.08106079
v 0.00064597 -0.01760896 0.08043349
v 0.00406527 -0.01760896 0.08043349
f 45 41 48
f 51 52 44
f 45 48 53
f 55 52 51
f 2 6 3
f 13 8 15
f 21 22 14
f 14 15 8
f 34 39 40
f 39 43 40
f 40 43 44
f 58 53 54
f 54 53 48
f 60 61 56
f 52 55 56
f 34 33 37
f 27 33 34
f 27 22 21
f 20 14 22
f 15 14 20
f 17 23 24
f 24 23 28
f 28 30 24
f 24 25 17
f 41 42 36
f 36 35 41
f 28 35 36
f 47 42 41
f 44 43 49
f 59 53 58
f 58 62 59
f 63 62 58
f 52 56 57
f 57 56 61
f 3 6 7
f 6 12 7
f 16 10 19
f 11 10 16
f 6 10 11
f 11 12 6
f 38 39 34
f 34 37 38
f 26 27 21
f 9 5 4
f 9 4 8
f 9 8 13
f 3 4 1
f 1 2 3
f 4 5 1
f 25 24 31
f 31 24 30
f 28 23 29
f 29 35 28
f 46 41 45
f 46 47 41
f 51 44 50
f 44 49 50
f 64 61 60
f 18 10 17
f 18 19 10
f 17 25 18
f 33 27 32
f 27 26 32
f 45 53 46
f 60 56 46
f 46 55 51
f 46 62 60
f 53 59 46
f 46 56 55
f 51 47 46
f 46 59 62
f 13 15 64
f 34 40 64
f 58 54 64
f 17 10 64
f 64 23 17
f 41 35 64
f 64 27 34
f 64 48 41
f 64 44 52
f 64 63 58
f 6 2 64
f 52 57 64
f 64 20 22
f 64 40 44
f 64 54 48
f 64 10 6
f 22 27 64
f 64 9 13
f 15 20 64
f 2 1 64
f 64 29 23
f 64 57 61
f 5 9 64
f 64 1 5
f 35 29 64
f 60 62 64
f 62 63 64
f 39 38 32
f 32 26 21
f 28 36 32
f 32 47 51
f 32 4 3
f 21 14 32
f 3 7 32
f 25 31 32
f 8 4 32
f 32 14 8
f 32 30 28
f 32 11 16
f 32 43 39
f 51 50 32
f 32 37 33
f 32 36 42
f 42 47 32
f 32 49 43
f 32 7 12
f 16 19 32
f 12 11 32
f 32 38 37
f 32 18 25
f 32 31 30
f 32 50 49
f 19 18 32

