# https://github.com/mikedh/trimesh
v -0.01474912 0.03926257 0.02580762
v -0.01474912 0.03900225 0.02480247
v -0.01640277 0.03830124 0.02308413
v -0.01645953 0.03870547 0.02480247
v -0.01645953 0.03887177 0.02580762
v -0.00790749 0.03926192 0.02580762
v -0.00961790 0.03900225 0.02480247
v -0.01474912 0.03847713 0.02309163
v -0.01579605 0.03814390 0.02215571
v -0.01693632 0.03804604 0.02251000
v -0.01738159 0.03818227 0.02364960
v -0.01744592 0.03826287 0.02480247
v -0.01746231 0.03829868 0.02580762
v -0.00675965 0.03926129 0.02580762
v -0.00790749 0.03900161 0.02480247
v -0.01474912 0.03815605 0.02211936
v -0.00675965 0.03900097 0.02480247
v -0.00790749 0.03846690 0.02309163
v -0.01645196 0.03730410 0.01991344
v -0.01640277 0.03784328 0.02150427
v -0.01474912 0.03786951 0.02126423
v -0.01777639 0.03681928 0.01991344
v -0.01787730 0.03704250 0.02138194
v -0.01851051 0.03581638 0.01991344
v -0.01802488 0.03726188 0.02480247
v -0.01863160 0.03561170 0.01991344
v -0.01770071 0.03788614 0.02580762
v -0.00675965 0.03517165 0.02580762
v -0.00675965 0.03846498 0.02309163
v -0.01474912 0.03737445 0.01991344
v -0.01329855 0.03737253 0.01991344
v -0.00675965 0.03786055 0.02130116
v -0.00675965 0.03746784 0.02020541
v -0.00675965 0.03736294 0.01991344
v -0.00816355 0.03736550 0.01991344
v -0.01804128 0.03726188 0.02580762
v -0.01873250 0.03559955 0.02138194
v -0.01904658 0.03475655 0.01991344
v -0.00675965 0.03454292 0.02470380
v -0.00757702 0.03272901 0.02580762
v -0.00675965 0.03272901 0.01991344
v -0.01874890 0.03559827 0.02309163
v -0.01833896 0.03658006 0.02580762
v -0.01929507 0.03396920 0.01991344
v -0.01904658 0.03476103 0.02580762
v -0.01892423 0.03511281 0.02580762
v -0.01874764 0.03561618 0.02580762
v -0.00675965 0.03295287 0.02125961
v -0.00675965 0.03272901 0.02028215
v -0.01964447 0.03272901 0.02580762
v -0.01964195 0.03272901 0.01991344
v -0.01933544 0.03384128 0.01991344
v -0.01916011 0.03438558 0.02580762
v -0.01952716 0.03313643 0.02580762
v -0.01932408 0.03384128 0.02580762
f 19 22 10
f 17 29 18
f 18 29 16
f 19 10 20
f 5 1 4
f 39 28 40
f 40 48 39
f 49 48 40
f 2 1 7
f 18 16 8
f 2 7 8
f 8 17 18
f 29 32 21
f 21 16 29
f 21 30 19
f 34 35 21
f 42 36 37
f 52 51 50
f 3 1 2
f 3 4 1
f 10 4 3
f 5 12 13
f 5 4 11
f 11 12 5
f 11 4 10
f 11 10 22
f 37 36 25
f 25 26 37
f 25 12 26
f 25 13 12
f 17 8 15
f 15 8 7
f 9 8 16
f 16 21 9
f 2 8 9
f 19 20 9
f 9 21 19
f 9 3 2
f 9 20 10
f 10 3 9
f 30 21 31
f 31 21 35
f 34 21 33
f 33 21 32
f 36 42 43
f 43 42 47
f 23 11 22
f 27 25 36
f 13 25 27
f 6 15 7
f 6 7 1
f 47 42 38
f 38 42 37
f 37 26 38
f 24 23 22
f 26 12 24
f 12 11 24
f 11 23 24
f 54 52 50
f 54 55 52
f 53 45 52
f 52 55 53
f 47 38 46
f 46 38 45
f 52 45 44
f 45 38 44
f 49 40 50
f 50 51 49
f 49 51 41
f 14 28 33
f 28 39 33
f 33 41 34
f 33 17 14
f 33 49 41
f 29 17 33
f 33 32 29
f 33 39 48
f 48 49 33
f 14 17 6
f 17 15 6
f 46 28 14
f 50 40 46
f 46 27 36
f 40 28 46
f 36 43 46
f 46 1 5
f 5 13 46
f 14 6 46
f 46 43 47
f 45 53 46
f 13 27 46
f 46 6 1
f 46 54 50
f 55 54 46
f 46 53 55
f 34 41 44
f 19 30 44
f 44 38 26
f 44 22 19
f 41 51 44
f 44 35 34
f 51 52 44
f 30 31 44
f 44 31 35
f 44 24 22
f 26 24 44

