# https://github.com/mikedh/trimesh
v -0.01132828 -0.01747578 0.09552193
v -0.01303840 -0.01747578 0.09541426
v -0.01303840 -0.01918638 0.09537120
v -0.01132828 -0.01918638 0.09547797
v -0.00961817 -0.01747578 0.09533262
v -0.01132828 -0.01576517 0.09533711
v -0.01303840 -0.01576517 0.09523572
v -0.01440951 -0.01747578 0.09468485
v -0.01439784 -0.01918638 0.09466241
v -0.01435804 -0.01576517 0.09459243
v -0.01431412 -0.02089480 0.09452784
v -0.01303840 -0.02089480 0.09511550
v -0.01132828 -0.02089480 0.09523303
v -0.00961817 -0.02089480 0.09506077
v -0.00961817 -0.01918638 0.09528866
v -0.00846116 -0.01918638 0.09459781
v -0.00846116 -0.01747578 0.09461845
v -0.00846116 -0.01576517 0.09452784
v -0.00848587 -0.01405457 0.09441838
v -0.00961817 -0.01576517 0.09514421
v -0.00961817 -0.01405457 0.09486518
v -0.01132828 -0.01405457 0.09498720
v -0.01303840 -0.01405457 0.09486070
v -0.01403756 -0.01284018 0.09421113
v -0.01421187 -0.01405457 0.09439774
v -0.01495850 -0.01747578 0.09322241
v -0.01494683 -0.01918638 0.09322241
v -0.01490635 -0.01576517 0.09322241
v -0.01486311 -0.02089480 0.09322241
v -0.01476086 -0.01405457 0.09322241
v -0.01466891 -0.02260541 0.09322241
v -0.01411923 -0.02260541 0.09429815
v -0.01395659 -0.02358693 0.09413397
v -0.01303840 -0.02260541 0.09466331
v -0.01132828 -0.02260541 0.09479699
v -0.00961817 -0.02260541 0.09469202
v -0.00866086 -0.02368705 0.09417613
v -0.00853528 -0.02260541 0.09433942
v -0.00846116 -0.02089480 0.09449284
v -0.00815990 -0.02089480 0.09322241
v -0.00815990 -0.01576517 0.09322241
v -0.00818461 -0.01405457 0.09322241
v -0.00859498 -0.01275530 0.09426406
v -0.00961817 -0.01248108 0.09438877
v -0.01132828 -0.01238967 0.09442196
v -0.01303840 -0.01250502 0.09435109
v -0.01303840 -0.01164972 0.09400387
v -0.01390786 -0.00976283 0.09238533
v -0.01415628 -0.01063337 0.09273613
v -0.01440127 -0.01230044 0.09333546
v -0.01496468 -0.01234397 0.09151236
v -0.01516506 -0.00870731 0.08635617
v -0.01516918 -0.01405457 0.08635617
v -0.01516986 -0.01578911 0.08635617
v -0.01516918 -0.01921032 0.08635617
v -0.01516849 -0.02091874 0.08635617
v -0.01516575 -0.02433995 0.08635617
v -0.01516094 -0.02773721 0.08635617
v -0.01498870 -0.02260541 0.09151236
v -0.01492350 -0.02431601 0.09151236
v -0.01465587 -0.01063337 0.09151236
v -0.01466685 -0.02602661 0.09151236
v -0.01431824 -0.02422025 0.09325202
v -0.01303840 -0.02464681 0.09380918
v -0.01303840 -0.02379151 0.09423086
v -0.01411991 -0.02602661 0.09263475
v -0.01391678 -0.02691891 0.09238981
v -0.01132828 -0.02392427 0.09429187
v -0.00961817 -0.02385898 0.09425419
v -0.00961817 -0.02471428 0.09381815
v -0.00866909 -0.02704296 0.09246338
v -0.00854145 -0.02602661 0.09269845
v -0.00823402 -0.02260541 0.09322241
v -0.00846048 -0.02428119 0.09325920
v -0.00815990 -0.02773721 0.08980230
v -0.00815990 -0.01234397 0.09151236
v -0.00824362 -0.01063337 0.09151236
v -0.00842067 -0.01224821 0.09333187
v -0.00854557 -0.01063337 0.09280611
v -0.00867390 -0.00968231 0.09248582
v -0.00961817 -0.01162578 0.09398144
v -0.01132828 -0.01153437 0.09405770
v -0.01132828 -0.01063337 0.09343684
v -0.01303840 -0.01063337 0.09327894
v -0.01303840 -0.00967143 0.09249837
v -0.01307202 -0.00870731 0.09140559
v -0.01386669 -0.00870731 0.09097763
v -0.01449803 -0.00870731 0.08992163
v -0.01413158 -0.00941462 0.09151236
v -0.01503193 -0.00870731 0.08809224
v -0.00895937 -0.00870731 0.08635617
v -0.01501752 -0.02944781 0.08635617
v -0.01515957 -0.02773721 0.08638129
v -0.01499350 -0.02602661 0.08980230
v -0.01487821 -0.02773721 0.08980230
v -0.01425304 -0.02758922 0.09148006
v -0.01303840 -0.02602661 0.09306451
v -0.01132828 -0.02602661 0.09322690
v -0.01132828 -0.02477957 0.09389441
v -0.01410413 -0.02892767 0.09088880
v -0.01303840 -0.02706690 0.09247774
v -0.01303840 -0.02917359 0.09109426
v -0.01303840 -0.02792220 0.09194929
v -0.00961817 -0.02715830 0.09253337
v -0.00961817 -0.02801360 0.09199056
v -0.00961817 -0.02917795 0.09113464
v -0.00856204 -0.02894508 0.09094264
v -0.00846528 -0.02766322 0.09151236
v -0.00824019 -0.02602661 0.09151236
v -0.00844744 -0.02948699 0.08979153
v -0.00823951 -0.02944781 0.08809224
v -0.00820382 -0.02944781 0.08638129
v -0.00820313 -0.02942170 0.08635617
v -0.00815990 -0.02773721 0.08635617
v -0.00815990 -0.00870731 0.08809224
v -0.00854557 -0.00929710 0.09151236
v -0.00840077 -0.00870731 0.08995751
v -0.00937592 -0.00870731 0.09141995
v -0.00949327 -0.00870731 0.09149800
v -0.00961817 -0.00960831 0.09257374
v -0.00961817 -0.01063337 0.09333277
v -0.01132828 -0.00958437 0.09260155
v -0.01132828 -0.00870731 0.09167654
v -0.01304732 -0.00870731 0.09141008
v -0.00815990 -0.00870731 0.08635975
v -0.00815990 -0.00889883 0.08635617
v -0.01438412 -0.03062086 0.08635617
v -0.01438343 -0.03062086 0.08638129
v -0.01430451 -0.03058386 0.08809224
v -0.01488096 -0.02944781 0.08809224
v -0.01504771 -0.02773721 0.08809224
v -0.01438412 -0.02947610 0.08983370
v -0.01132828 -0.02719313 0.09255490
v -0.01413226 -0.03046634 0.08928462
v -0.01303840 -0.03002890 0.09032357
v -0.01132828 -0.02804843 0.09203991
v -0.01132828 -0.02924324 0.09118398
v -0.01132828 -0.03009854 0.09032267
v -0.00961817 -0.03003325 0.09025449
v -0.00863890 -0.03041846 0.08921374
v -0.00854077 -0.03052075 0.08809224
v -0.00850508 -0.03056427 0.08638129
v -0.00820382 -0.02944781 0.08635617
v -0.00850096 -0.03054904 0.08635617
v -0.00843783 -0.00870731 0.09001673
v -0.01303840 -0.03094078 0.08635617
v -0.01303840 -0.03094078 0.08638129
v -0.01303840 -0.03085808 0.08809224
v -0.01303840 -0.03053816 0.08946854
v -0.01132828 -0.03052728 0.08946764
v -0.00961817 -0.03050116 0.08939946
v -0.00961817 -0.03079061 0.08809224
v -0.00961817 -0.03088420 0.08638129
v -0.00850508 -0.03056427 0.08635617
v -0.01132828 -0.03094078 0.08635617
v -0.01132828 -0.03094078 0.08638129
v -0.01132828 -0.03084720 0.08809224
v -0.00961817 -0.03088420 0.08635617
f 19 42 43
f 26 53 54
f 114 75 113
f 76 77 42
f 42 41 76
f 43 42 78
f 42 77 78
f 17 5 16
f 40 41 17
f 17 16 40
f 27 58 59
f 27 26 58
f 59 60 27
f 37 38 14
f 6 21 22
f 1 5 6
f 10 2 7
f 7 6 22
f 7 2 1
f 1 6 7
f 1 2 3
f 3 4 1
f 134 130 129
f 129 130 92
f 134 129 148
f 32 11 31
f 75 111 112
f 143 113 112
f 112 113 75
f 20 19 43
f 43 21 20
f 5 19 20
f 20 6 5
f 21 6 20
f 43 78 79
f 79 78 77
f 44 21 43
f 43 81 44
f 22 21 44
f 18 19 5
f 5 17 18
f 42 19 18
f 18 41 42
f 18 17 41
f 95 60 94
f 94 60 59
f 132 130 134
f 95 130 132
f 134 100 132
f 92 130 131
f 131 130 95
f 95 94 131
f 55 26 54
f 55 56 26
f 58 26 57
f 26 56 57
f 29 60 31
f 29 27 60
f 31 11 29
f 9 29 11
f 27 29 9
f 9 3 2
f 11 3 9
f 140 111 110
f 110 111 75
f 65 35 34
f 70 71 37
f 73 75 40
f 40 16 39
f 39 73 40
f 38 73 39
f 15 4 14
f 16 5 15
f 15 39 16
f 15 14 38
f 38 39 15
f 92 127 128
f 128 129 92
f 147 148 129
f 129 128 147
f 147 127 146
f 147 128 127
f 141 111 140
f 149 150 138
f 134 148 149
f 149 148 157
f 157 150 149
f 151 150 157
f 138 150 151
f 137 105 136
f 95 132 96
f 96 132 100
f 12 3 11
f 11 32 12
f 34 35 12
f 143 112 144
f 30 28 10
f 125 126 91
f 93 58 92
f 92 131 93
f 93 131 94
f 59 58 93
f 93 94 59
f 8 2 10
f 8 9 2
f 10 28 8
f 8 28 26
f 26 27 8
f 27 9 8
f 140 110 107
f 107 110 75
f 37 14 36
f 14 4 13
f 13 36 14
f 35 36 13
f 13 12 35
f 4 3 13
f 3 12 13
f 33 65 34
f 34 12 33
f 33 12 32
f 99 70 69
f 69 36 35
f 69 70 37
f 37 36 69
f 71 70 104
f 104 105 71
f 99 98 104
f 104 70 99
f 98 133 104
f 136 105 104
f 104 133 136
f 74 73 38
f 111 141 142
f 142 112 111
f 154 144 142
f 142 144 112
f 152 141 140
f 140 151 152
f 152 151 157
f 135 149 138
f 138 137 135
f 135 100 134
f 134 149 135
f 115 117 77
f 77 76 115
f 47 46 45
f 22 44 45
f 45 46 22
f 80 81 43
f 43 79 80
f 80 79 77
f 71 105 106
f 106 107 71
f 105 137 106
f 106 137 138
f 108 107 75
f 71 107 108
f 67 33 66
f 66 100 67
f 66 96 100
f 101 133 98
f 98 97 101
f 136 133 101
f 101 97 67
f 64 98 99
f 64 97 98
f 99 65 64
f 65 33 64
f 64 33 67
f 67 97 64
f 99 69 68
f 68 69 35
f 68 65 99
f 35 65 68
f 157 148 156
f 148 147 156
f 23 7 22
f 22 46 23
f 25 30 10
f 25 50 30
f 10 7 25
f 53 26 52
f 81 80 121
f 121 80 120
f 120 80 119
f 48 47 84
f 140 107 139
f 107 106 139
f 139 151 140
f 138 151 139
f 139 106 138
f 75 73 109
f 109 108 75
f 95 96 62
f 31 60 62
f 62 60 95
f 63 33 32
f 63 66 33
f 63 32 31
f 31 62 63
f 96 66 63
f 63 62 96
f 102 135 137
f 102 137 136
f 100 135 102
f 67 100 102
f 141 152 153
f 153 142 141
f 48 88 89
f 89 49 48
f 88 49 89
f 50 49 61
f 61 49 88
f 30 50 61
f 24 23 46
f 24 46 47
f 7 23 24
f 24 25 7
f 24 47 48
f 48 49 24
f 24 49 50
f 50 25 24
f 81 121 82
f 47 45 82
f 82 44 81
f 82 45 44
f 118 119 80
f 123 122 120
f 120 119 123
f 48 84 85
f 85 84 122
f 122 123 85
f 108 109 72
f 71 108 72
f 73 74 72
f 72 109 73
f 37 71 72
f 72 38 37
f 72 74 38
f 103 101 67
f 67 102 103
f 136 101 103
f 103 102 136
f 90 61 88
f 122 84 83
f 120 122 83
f 83 84 47
f 47 82 83
f 83 121 120
f 83 82 121
f 116 118 80
f 77 117 116
f 116 80 77
f 87 88 48
f 48 85 86
f 86 87 48
f 30 61 51
f 61 90 51
f 28 30 51
f 51 90 52
f 26 28 51
f 51 52 26
f 145 116 117
f 118 116 145
f 124 85 123
f 124 86 85
f 1 4 15
f 15 5 1
f 40 75 115
f 114 126 115
f 115 75 114
f 115 126 125
f 115 41 40
f 115 76 41
f 146 155 156
f 156 147 146
f 54 53 52
f 52 113 143
f 143 144 52
f 52 155 146
f 146 127 52
f 52 126 114
f 92 58 52
f 58 57 52
f 52 127 92
f 114 113 52
f 52 55 54
f 154 158 52
f 56 55 52
f 52 57 56
f 52 144 154
f 52 91 126
f 158 155 52
f 153 155 158
f 153 156 155
f 153 152 157
f 157 156 153
f 153 158 154
f 154 142 153
f 124 115 125
f 125 91 124
f 117 115 124
f 91 52 124
f 124 90 88
f 124 145 117
f 119 118 124
f 124 123 119
f 52 90 124
f 88 87 124
f 87 86 124
f 118 145 124

