# https://github.com/mikedh/trimesh
v -0.00315608 0.03883353 0.08388781
v -0.00315608 0.03871502 0.08387827
v -0.00315608 0.03896938 0.08388674
v -0.00623524 0.03882977 0.08402876
v -0.00315608 0.03858811 0.08386449
v -0.00623524 0.03896938 0.08402170
v -0.00315608 0.03896938 0.08041998
v -0.00623524 0.03865960 0.08399238
v -0.00361000 0.03813302 0.08381291
v -0.00315608 0.03764633 0.08347199
v -0.00623524 0.03896938 0.08041998
v -0.00315608 0.03764633 0.08041998
v -0.00623524 0.03810712 0.08382845
v -0.00346924 0.03764633 0.08344479
v -0.00623524 0.03764633 0.08041998
v -0.00623524 0.03780964 0.08310846
v -0.00425380 0.03764633 0.08299011
v -0.00623524 0.03764633 0.08148866
f 10 9 13
f 5 9 10
f 4 9 5
f 3 6 4
f 4 1 3
f 8 9 4
f 8 13 9
f 2 1 4
f 4 5 2
f 16 18 17
f 16 17 14
f 14 13 16
f 10 13 14
f 7 12 11
f 11 12 15
f 11 3 7
f 6 3 11
f 15 18 8
f 4 6 8
f 8 11 15
f 16 13 8
f 6 11 8
f 8 18 16
f 2 3 1
f 10 12 2
f 2 12 7
f 2 5 10
f 7 3 2
f 14 12 10
f 15 12 14
f 14 18 15
f 14 17 18

