# https://github.com/mikedh/trimesh
v 0.00748287 0.01096559 0.04538828
v 0.00748287 0.00945803 0.04538828
v 0.00748551 -0.00015525 0.04538821
v 0.00748287 0.01096559 0.04463686
v -0.01939548 0.01096559 0.04538828
v 0.00748023 -0.01233435 0.04538821
v 0.00748551 -0.01122136 0.04538821
v -0.01939548 0.00945803 0.04538828
v 0.00748551 -0.00015525 0.04463686
v -0.01945879 0.01096559 0.04463686
v -0.01940075 0.01096559 0.04532862
v -0.01940075 0.00945803 0.04534429
v -0.01939811 -0.00015297 0.04538255
v -0.01938756 -0.01233435 0.04538821
v 0.00748023 -0.01233435 0.04506873
v 0.00748551 -0.01122136 0.04487975
v -0.01939548 -0.00015297 0.04538821
v -0.01939284 -0.00892010 0.04538821
v -0.01939020 -0.01122136 0.04538821
v 0.00748551 -0.01104118 0.04463686
v -0.01946143 0.00945803 0.04463686
v -0.01945615 0.01096559 0.04469004
v -0.01944032 0.00945803 0.04489344
v -0.01946406 0.00406866 0.04463686
v -0.01939811 -0.00892010 0.04532855
v -0.01946406 0.00304917 0.04463686
v -0.01939284 -0.01122136 0.04536754
v -0.01939284 -0.01233435 0.04533701
v 0.00671786 -0.01233435 0.04463686
v -0.01945879 -0.00549900 0.04463686
v -0.01945615 -0.00892010 0.04463686
v -0.01945351 -0.01062837 0.04463686
v -0.01944824 -0.01233435 0.04463686
f 6 7 2
f 29 20 15
f 5 13 8
f 24 23 21
f 24 13 12
f 12 23 24
f 12 13 5
f 5 11 12
f 12 11 23
f 16 15 20
f 13 25 18
f 10 21 22
f 22 21 23
f 23 11 22
f 14 8 19
f 8 18 19
f 17 8 13
f 13 18 17
f 17 18 8
f 26 30 25
f 26 13 24
f 26 25 13
f 28 32 33
f 25 30 31
f 27 28 14
f 14 19 27
f 25 31 27
f 27 31 32
f 32 28 27
f 27 18 25
f 27 19 18
f 8 14 6
f 6 2 8
f 1 8 2
f 5 8 1
f 1 9 4
f 3 9 1
f 1 7 3
f 1 2 7
f 20 9 16
f 3 7 16
f 16 9 3
f 6 15 16
f 16 7 6
f 4 10 22
f 22 1 4
f 5 1 22
f 22 11 5
f 28 33 29
f 28 15 6
f 6 14 28
f 29 15 28
f 4 9 31
f 24 21 31
f 31 10 4
f 31 20 29
f 29 33 31
f 31 9 20
f 31 21 10
f 33 32 31
f 31 26 24
f 30 26 31

