# https://github.com/mikedh/trimesh
v -0.00189034 0.00138981 0.02309128
v -0.00189034 -0.00018189 0.02309128
v -0.00189034 0.00367043 0.01895812
v -0.00633360 0.00367043 0.01939802
v -0.00633360 0.00340609 0.01987320
v -0.00633360 0.00154856 0.02309363
v -0.00277769 0.00138868 0.02309363
v -0.00212479 -0.00018189 0.02309363
v -0.00189034 -0.00018189 0.00048006
v -0.00189034 0.00367043 -0.00074318
v -0.00633360 0.00367043 -0.00093843
v -0.00633360 -0.00018189 0.02309363
v -0.00475247 -0.00018189 -0.00046325
v -0.00189034 0.00305163 -0.00063263
v -0.00619615 -0.00018189 -0.00093843
v -0.00619615 0.00367043 -0.00093843
v -0.00633360 0.00134192 -0.00093843
v -0.00633360 -0.00018189 -0.00082082
v -0.00632881 -0.00018189 -0.00093843
f 4 1 3
f 5 6 1
f 5 1 4
f 8 2 1
f 1 6 7
f 7 8 1
f 19 18 17
f 15 16 10
f 15 10 14
f 14 9 13
f 13 15 14
f 16 11 4
f 4 3 16
f 3 10 16
f 9 10 3
f 9 3 1
f 14 10 9
f 1 2 9
f 7 6 12
f 12 8 7
f 17 5 4
f 4 11 17
f 12 6 17
f 6 5 17
f 17 18 12
f 11 16 15
f 15 17 11
f 19 17 15
f 12 18 13
f 13 8 12
f 2 8 13
f 13 18 19
f 13 9 2
f 19 15 13

