# https://github.com/mikedh/trimesh
v 0.00406505 0.02621874 0.00488056
v 0.00235422 0.02621874 0.00488167
v -0.00081365 0.02965063 0.00665126
v 0.00577719 0.02965063 0.00665015
v 0.01261789 0.02965063 0.00665015
v 0.00577719 0.02621874 0.00489057
v -0.00081365 0.02621874 0.00499839
v -0.00081365 0.02965063 0.01622837
v 0.01262052 0.02965063 0.00693693
v 0.01262052 0.02870800 0.00631002
v 0.01261789 0.02870934 0.00631002
v 0.00682000 0.02621874 0.00499950
v -0.00081365 0.02621874 0.01389190
v 0.01261789 0.02965063 0.01623615
v 0.01262052 0.02965063 0.01543917
v 0.01262052 0.02621874 0.00590097
v 0.01257318 0.02621874 0.00589207
v 0.01261789 0.02621874 0.01389968
v 0.01262052 0.02699911 0.01434096
v 0.01262052 0.02911347 0.01576375
v 0.01262052 0.02621874 0.01354398
f 4 1 3
f 4 5 1
f 10 5 9
f 2 7 3
f 3 1 2
f 14 20 15
f 17 10 16
f 17 12 10
f 1 5 6
f 18 21 19
f 14 18 19
f 19 20 14
f 5 10 11
f 11 6 5
f 12 6 11
f 10 12 11
f 8 7 13
f 3 7 8
f 15 4 3
f 3 8 15
f 9 5 15
f 15 8 14
f 5 4 15
f 14 8 18
f 18 8 13
f 6 2 1
f 6 18 13
f 13 7 6
f 7 2 6
f 6 17 16
f 16 21 6
f 6 21 18
f 12 17 6
f 9 15 19
f 19 10 9
f 16 10 19
f 19 15 20
f 19 21 16

