# https://github.com/mikedh/trimesh
v 0.01277911 -0.01095967 0.04219786
v 0.01277911 -0.01095967 0.04230513
v 0.01277911 -0.00963232 0.04219786
v 0.01334029 -0.01095967 0.04219786
v 0.01277911 -0.01048440 0.04363040
v 0.01277911 -0.00963232 0.04363040
v 0.01510394 -0.00963232 0.04219786
v 0.01429084 -0.01055923 0.04219786
v 0.01391922 -0.01009695 0.04363040
v 0.01279686 -0.01047842 0.04363040
v 0.01464084 -0.00963232 0.04363040
v 0.01462536 -0.00964233 0.04363040
f 11 8 7
f 1 4 2
f 2 4 5
f 9 4 8
f 8 11 12
f 12 9 8
f 5 4 10
f 4 9 10
f 1 3 4
f 4 3 7
f 7 8 4
f 3 6 11
f 7 3 11
f 2 6 3
f 2 3 1
f 5 6 2
f 10 6 5
f 10 11 6
f 10 12 11
f 9 12 10

