# https://github.com/mikedh/trimesh
v 0.01262345 0.02772121 0.05061228
v 0.01262345 0.03426140 0.05061228
v 0.01794003 0.02772121 0.05061228
v 0.01262345 0.02772121 0.05856155
v 0.01794061 0.03426140 0.05061228
v 0.01262345 0.03426140 0.05856155
v 0.01794061 0.03212999 0.05061228
v 0.01847633 0.02772121 0.05529811
v 0.01847633 0.02772121 0.05856155
v 0.01794061 0.03426140 0.05388194
v 0.01847633 0.02987054 0.05856155
v 0.01847633 0.02819948 0.05568328
v 0.01792800 0.03426140 0.05856155
f 8 3 7
f 7 5 8
f 8 5 12
f 5 11 12
f 13 11 10
f 10 11 5
f 1 4 6
f 6 2 1
f 3 4 1
f 8 9 3
f 3 9 4
f 4 9 11
f 13 6 11
f 11 6 4
f 1 2 7
f 2 5 7
f 7 3 1
f 12 9 8
f 12 11 9
f 2 6 10
f 10 5 2
f 10 6 13

