# https://github.com/mikedh/trimesh
v 0.01956711 -0.01902581 0.02715940
v 0.01954427 -0.01902581 0.02838029
v 0.01956795 -0.01930622 0.02715940
v 0.01092785 -0.01902581 0.02715940
v 0.01953920 -0.01928453 0.02838029
v 0.01952313 -0.02267106 0.02715940
v 0.01092785 -0.01902581 0.02838029
v 0.01092785 -0.02132811 0.02715940
v 0.01904951 -0.02222092 0.02838029
v 0.01831457 -0.02299558 0.02838029
v 0.01815726 -0.02315784 0.02838029
v 0.01781558 -0.02437966 0.02715940
v 0.01092785 -0.02132811 0.02838029
v 0.01092870 -0.02666401 0.02715940
v 0.01738171 -0.02392353 0.02838029
v 0.01609195 -0.02607853 0.02715940
v 0.01092870 -0.02665878 0.02716610
v 0.01092870 -0.02564334 0.02838029
v 0.01433027 -0.02666401 0.02715940
v 0.01617145 -0.02472063 0.02838029
v 0.01561157 -0.02559848 0.02783916
v 0.01433027 -0.02556707 0.02838029
v 0.01433027 -0.02581308 0.02811128
v 0.01261934 -0.02563512 0.02838029
f 1 2 3
f 14 13 8
f 3 2 6
f 17 18 13
f 17 13 14
f 14 19 17
f 19 18 17
f 24 18 19
f 6 11 12
f 22 24 23
f 23 24 19
f 23 19 16
f 16 22 23
f 21 20 22
f 21 22 16
f 16 20 21
f 15 20 16
f 16 12 15
f 15 12 11
f 5 6 2
f 5 9 6
f 10 11 6
f 6 9 10
f 7 1 4
f 2 1 7
f 4 8 7
f 7 8 13
f 4 1 12
f 12 8 4
f 12 1 3
f 3 6 12
f 14 8 12
f 12 19 14
f 16 19 12
f 2 7 10
f 10 7 13
f 13 18 10
f 22 20 10
f 10 24 22
f 18 24 10
f 10 15 11
f 10 5 2
f 20 15 10
f 9 5 10

