# https://github.com/mikedh/trimesh
v 0.02389324 -0.02619965 0.01522443
v 0.02391149 -0.02628400 0.01522443
v 0.02385112 -0.02619965 0.01492183
v 0.00988611 -0.02619965 0.01522443
v 0.02399713 -0.02668490 0.01522443
v 0.02386516 -0.02631795 0.01486655
v 0.02381883 -0.02619965 0.01474460
v 0.00994789 -0.02619965 0.00940270
v 0.01048840 -0.03457816 0.01522443
v 0.02414034 -0.02772441 0.01522443
v 0.02399433 -0.02773865 0.01457421
v 0.02374021 -0.02619965 0.01442548
v 0.01056562 -0.02945401 0.00940270
v 0.01056281 -0.02944963 0.00940840
v 0.02126647 -0.02619965 0.00940270
v 0.01091520 -0.03626504 0.01522443
v 0.02422598 -0.02840245 0.01522443
v 0.02372758 -0.02773865 0.01371828
v 0.02331622 -0.02619965 0.01291819
v 0.01058949 -0.02954383 0.00940270
v 0.01104858 -0.03126357 0.00940270
v 0.02151216 -0.02619965 0.00971157
v 0.02183506 -0.02773865 0.01050596
v 0.02164694 -0.02772441 0.01027630
v 0.02092812 -0.02767183 0.00940270
v 0.01157646 -0.03724431 0.01522443
v 0.01113422 -0.03147826 0.00940270
v 0.01140518 -0.03239728 0.00981357
v 0.01144308 -0.03402172 0.01162289
v 0.01150345 -0.03564835 0.01343164
v 0.02422738 -0.02944963 0.01522443
v 0.02364053 -0.02944963 0.01384707
v 0.02327551 -0.02773865 0.01282815
v 0.02326989 -0.02772441 0.01281504
v 0.02253142 -0.02619965 0.01128496
v 0.02404206 -0.02944963 0.01470243
v 0.02173959 -0.02619965 0.01001075
v 0.02150093 -0.02944963 0.01084446
v 0.02196142 -0.02641763 0.01035494
v 0.02242612 -0.02772441 0.01135050
v 0.02221272 -0.02944963 0.01169925
v 0.02106711 -0.02772441 0.00958905
v 0.02090987 -0.02772112 0.00940270
v 0.01262099 -0.03243014 0.00940270
v 0.01182636 -0.03728921 0.01522443
v 0.02418667 -0.03002579 0.01522443
v 0.02335553 -0.03115950 0.01422660
v 0.02297085 -0.02944963 0.01282815
v 0.02397748 -0.03115950 0.01522443
v 0.02390869 -0.03115950 0.01508196
v 0.02240085 -0.02619965 0.01105758
v 0.02215095 -0.02619965 0.01063760
v 0.02090846 -0.02772441 0.00940270
v 0.02204987 -0.03035002 0.01194714
v 0.02037637 -0.03038726 0.01020165
v 0.02064452 -0.02944963 0.00994236
v 0.02039321 -0.02887894 0.00940270
v 0.01392385 -0.03241261 0.00940270
v 0.01433099 -0.03343898 0.01059258
v 0.01433099 -0.03417178 0.01144794
v 0.01433099 -0.03502727 0.01245033
v 0.01262099 -0.03738999 0.01522443
v 0.02383428 -0.03168638 0.01522443
v 0.02373179 -0.03200075 0.01522443
v 0.02242191 -0.03101601 0.01286063
v 0.02221413 -0.03236442 0.01345272
v 0.02169748 -0.03149031 0.01231356
v 0.02185051 -0.03350470 0.01383567
v 0.02055748 -0.03226474 0.01175738
v 0.01976285 -0.03152755 0.01061708
v 0.01893733 -0.03067535 0.00940270
v 0.01977267 -0.02980234 0.00940270
v 0.01433099 -0.03239947 0.00940270
v 0.01433099 -0.03258349 0.00961241
v 0.01604099 -0.03733960 0.01516801
v 0.01433099 -0.03738999 0.01522443
v 0.02363772 -0.03219792 0.01522443
v 0.02284731 -0.03279818 0.01458447
v 0.02233627 -0.03416740 0.01497597
v 0.02173538 -0.03514119 0.01522443
v 0.02130016 -0.03467565 0.01444656
v 0.02070910 -0.03404472 0.01339631
v 0.01990183 -0.03340392 0.01225715
v 0.01926164 -0.03271493 0.01124336
v 0.01862284 -0.03202704 0.01025237
v 0.01801494 -0.03136105 0.00940270
v 0.01604099 -0.03573378 0.01334388
v 0.01604099 -0.03658927 0.01431264
v 0.01545274 -0.03226474 0.00940270
v 0.01604099 -0.03334697 0.01067407
v 0.01604099 -0.03411701 0.01152943
v 0.01688055 -0.03729250 0.01522443
v 0.01611821 -0.03737904 0.01522443
v 0.01604099 -0.03738671 0.01522443
v 0.02318987 -0.03303478 0.01522443
v 0.02245982 -0.03426489 0.01522443
v 0.02084107 -0.03589809 0.01522443
v 0.02075122 -0.03580060 0.01505632
v 0.01876043 -0.03382236 0.01187021
v 0.01779592 -0.03146840 0.00940270
v 0.01764851 -0.03720378 0.01522443
v 0.01604099 -0.03216615 0.00940270
v 0.01604099 -0.03249257 0.00974234
v 0.01774959 -0.03561220 0.01348976
v 0.01774959 -0.03646769 0.01442662
v 0.01774959 -0.03719063 0.01522443
v 0.01954804 -0.03665719 0.01522443
v 0.01872112 -0.03548623 0.01362596
v 0.01774959 -0.03396804 0.01171407
v 0.01680333 -0.03191422 0.00940270
v 0.01774959 -0.03222092 0.01004665
v 0.01774959 -0.03482353 0.01263440
v 0.01845999 -0.03702742 0.01522443
v 0.01875201 -0.03693212 0.01522443
f 4 8 9
f 26 30 44
f 30 26 16
f 45 44 62
f 45 26 44
f 28 27 44
f 28 16 27
f 14 9 8
f 14 16 9
f 62 44 61
f 18 17 31
f 44 30 29
f 29 28 44
f 30 16 29
f 16 28 29
f 13 14 8
f 75 94 76
f 62 61 76
f 76 61 75
f 110 99 102
f 83 99 84
f 19 12 11
f 11 18 19
f 17 18 11
f 19 18 35
f 66 77 78
f 66 78 68
f 32 49 50
f 50 47 32
f 56 55 57
f 27 16 21
f 16 14 21
f 93 94 75
f 75 92 93
f 58 59 44
f 60 61 44
f 44 59 60
f 75 61 60
f 60 59 75
f 102 103 89
f 102 99 109
f 109 103 102
f 99 110 111
f 83 84 69
f 55 68 69
f 108 99 107
f 108 109 99
f 7 11 12
f 17 11 10
f 23 37 39
f 23 39 40
f 95 78 77
f 82 99 83
f 83 69 82
f 82 69 68
f 36 18 31
f 36 32 18
f 34 35 18
f 34 32 40
f 51 35 34
f 40 51 34
f 57 55 72
f 55 71 72
f 86 71 85
f 85 99 86
f 85 84 99
f 14 13 20
f 20 21 14
f 73 91 87
f 106 91 90
f 90 89 103
f 73 89 90
f 90 91 73
f 74 58 73
f 59 58 74
f 75 59 74
f 104 108 113
f 104 90 103
f 100 111 110
f 86 99 100
f 99 111 100
f 114 108 107
f 113 108 114
f 39 37 52
f 52 51 40
f 40 39 52
f 24 25 15
f 15 23 24
f 22 23 15
f 37 23 22
f 40 32 48
f 48 32 47
f 96 80 79
f 79 80 68
f 79 68 78
f 79 95 96
f 78 95 79
f 99 82 98
f 97 107 98
f 107 99 98
f 98 80 97
f 50 49 63
f 63 47 50
f 63 64 47
f 46 36 31
f 49 32 46
f 32 36 46
f 18 32 33
f 33 34 18
f 32 34 33
f 70 85 71
f 70 71 55
f 55 69 70
f 70 69 84
f 84 85 70
f 88 92 75
f 73 87 88
f 75 74 88
f 88 74 73
f 105 113 106
f 105 104 113
f 106 90 105
f 90 104 105
f 109 108 112
f 108 104 112
f 103 109 112
f 112 104 103
f 2 3 1
f 5 3 2
f 7 3 6
f 6 3 5
f 11 7 6
f 5 10 6
f 6 10 11
f 38 56 57
f 38 24 23
f 55 56 38
f 80 98 81
f 81 98 82
f 68 80 81
f 81 82 68
f 92 88 101
f 101 88 87
f 101 91 106
f 101 87 91
f 25 24 42
f 42 38 25
f 24 38 42
f 53 38 57
f 41 38 23
f 41 23 40
f 40 48 41
f 41 48 47
f 66 68 67
f 67 68 55
f 25 38 43
f 38 53 43
f 38 41 54
f 66 67 54
f 55 38 54
f 54 67 55
f 47 64 54
f 54 41 47
f 65 64 77
f 65 54 64
f 65 77 66
f 66 54 65
f 4 1 22
f 22 15 8
f 22 8 4
f 19 35 22
f 22 12 19
f 51 52 22
f 22 35 51
f 22 7 12
f 1 3 22
f 22 3 7
f 22 52 37
f 4 9 101
f 101 1 4
f 101 107 97
f 101 45 62
f 31 17 101
f 9 16 101
f 101 46 31
f 101 2 1
f 106 113 101
f 101 95 77
f 101 16 26
f 26 45 101
f 62 76 101
f 17 10 101
f 101 76 94
f 101 63 49
f 77 64 101
f 94 93 101
f 97 80 101
f 101 93 92
f 101 10 5
f 96 95 101
f 101 80 96
f 101 114 107
f 113 114 101
f 64 63 101
f 49 46 101
f 5 2 101
f 15 25 43
f 8 15 43
f 43 13 8
f 44 27 43
f 43 20 13
f 27 21 43
f 43 58 44
f 86 100 43
f 43 71 86
f 43 110 102
f 102 89 43
f 57 72 43
f 73 58 43
f 43 89 73
f 43 72 71
f 21 20 43
f 43 100 110
f 43 53 57

