# https://github.com/mikedh/trimesh
v 0.01396802 0.01949608 0.00504619
v 0.01396802 0.02325140 0.00504619
v 0.01496358 0.01949608 0.00504619
v 0.01396802 0.01949608 0.01252254
v 0.01398653 0.02324088 0.00504619
v 0.01396802 0.02515371 0.00594585
v 0.01496358 0.02515371 0.00604891
v 0.01496358 0.02130258 0.00504619
v 0.01496358 0.01949608 0.01435942
v 0.01496358 0.02357759 0.01563697
v 0.01396802 0.02515371 0.01392677
v 0.01472198 0.02186801 0.00504619
v 0.01496358 0.02515371 0.01601379
f 7 2 6
f 13 11 10
f 11 4 10
f 10 4 9
f 7 8 12
f 2 7 5
f 7 12 5
f 6 11 7
f 7 11 13
f 6 2 4
f 4 2 1
f 4 11 6
f 3 9 4
f 1 3 4
f 3 8 10
f 10 9 3
f 10 7 13
f 10 8 7
f 1 2 5
f 5 3 1
f 5 8 3
f 5 12 8

