# https://github.com/mikedh/trimesh
v -0.00623524 -0.03094032 0.07614730
v -0.00463928 -0.03094032 0.07614730
v -0.00623524 -0.03094032 0.07782863
v -0.00623524 -0.02684195 0.07614730
v -0.00463928 -0.02621623 0.07614730
v -0.00463928 -0.03094032 0.07782863
v -0.00623524 -0.03086632 0.07953868
v -0.00623524 -0.02686229 0.07656022
v -0.00483315 -0.02627126 0.07614730
v -0.00463928 -0.02627959 0.07782863
v -0.00463928 -0.03086586 0.07953868
v -0.00623524 -0.03054861 0.08065643
v -0.00623524 -0.02693675 0.07782863
v -0.00623524 -0.02709584 0.07942521
v -0.00463928 -0.02659684 0.07862292
v -0.00463928 -0.03054676 0.08062865
v -0.00623524 -0.02944794 0.08095682
v -0.00623524 -0.02796250 0.08070493
v -0.00463928 -0.02703063 0.07970253
v -0.00463928 -0.02944794 0.08090409
v -0.00463928 -0.02802632 0.08069221
v -0.00463928 -0.02789405 0.08066961
v -0.00463928 -0.02703849 0.07971336
f 17 12 16
f 16 20 17
f 12 7 11
f 11 16 12
f 17 20 21
f 9 10 5
f 19 14 18
f 18 21 22
f 17 21 18
f 15 14 19
f 10 14 15
f 13 14 10
f 7 3 6
f 6 11 7
f 19 18 23
f 23 18 22
f 8 13 10
f 8 9 4
f 10 9 8
f 9 5 2
f 9 2 1
f 1 4 9
f 1 2 6
f 6 3 1
f 2 5 23
f 23 15 19
f 5 10 23
f 20 16 23
f 23 6 2
f 23 21 20
f 16 11 23
f 22 21 23
f 10 15 23
f 11 6 23
f 8 4 1
f 1 3 8
f 8 12 17
f 8 7 12
f 17 18 8
f 8 3 7
f 8 18 14
f 14 13 8

