# https://github.com/mikedh/trimesh
v 0.01627844 -0.01581949 0.00506497
v 0.01626775 -0.01683478 0.00506497
v 0.01600045 -0.01581949 0.00431741
v 0.00262504 -0.01581949 0.00506497
v 0.01624770 -0.01747470 0.00506497
v 0.01598308 -0.01581949 0.00427299
v 0.00262504 -0.01581949 0.00427299
v 0.00262504 -0.02592146 0.00506497
v 0.01619157 -0.01851794 0.00506497
v 0.01593096 -0.01747470 0.00427299
v 0.00262504 -0.01647239 0.00427299
v 0.00262504 -0.02594043 0.00427353
v 0.00827297 -0.02601730 0.00506497
v 0.01610203 -0.01918582 0.00506497
v 0.01570242 -0.01918582 0.00427299
v 0.00406709 -0.02594043 0.00427299
v 0.00577778 -0.02594043 0.00427299
v 0.00748846 -0.02586955 0.00427299
v 0.01011730 -0.02580066 0.00506497
v 0.01585879 -0.02017215 0.00506497
v 0.01571712 -0.02063537 0.00506497
v 0.01535627 -0.02031391 0.00427299
v 0.00919915 -0.02563494 0.00427299
v 0.01061848 -0.02566090 0.00506497
v 0.01550997 -0.02098478 0.00506497
v 0.01485242 -0.02116847 0.00427299
v 0.01031911 -0.02532147 0.00427299
v 0.01100205 -0.02544626 0.00506497
v 0.01404252 -0.02294947 0.00506497
v 0.01336359 -0.02335079 0.00427299
v 0.01399708 -0.02249524 0.00427299
v 0.01117445 -0.02484228 0.00427299
v 0.01250825 -0.02398672 0.00427299
v 0.01268333 -0.02423730 0.00506497
v 0.01296265 -0.02403065 0.00506497
f 8 12 13
f 19 23 24
f 18 19 13
f 23 19 18
f 30 25 29
f 2 5 6
f 17 18 13
f 35 30 29
f 24 23 27
f 21 25 26
f 1 2 3
f 3 2 6
f 12 11 16
f 13 12 16
f 16 17 13
f 24 27 28
f 25 30 31
f 31 26 25
f 15 20 21
f 14 20 15
f 9 14 15
f 33 34 28
f 35 34 33
f 30 35 33
f 21 26 22
f 22 15 21
f 9 15 10
f 10 5 9
f 6 5 10
f 32 28 27
f 32 33 28
f 11 8 4
f 4 7 11
f 12 8 11
f 4 1 3
f 3 7 4
f 6 7 3
f 4 8 34
f 34 1 4
f 34 2 1
f 34 8 13
f 29 25 34
f 21 20 34
f 13 19 34
f 34 25 21
f 9 5 34
f 34 14 9
f 34 19 24
f 5 2 34
f 34 20 14
f 34 35 29
f 24 28 34
f 32 7 6
f 32 11 7
f 32 27 23
f 23 18 32
f 32 31 30
f 18 17 32
f 32 22 26
f 32 16 11
f 17 16 32
f 26 31 32
f 30 33 32
f 6 10 32
f 15 22 32
f 32 10 15

