# https://github.com/mikedh/trimesh
v 0.01794074 0.03383963 0.03164398
v 0.01794044 0.03383963 0.02993427
v 0.01494517 0.03383963 0.02993427
v 0.01491914 0.03383892 0.03164398
v 0.01788780 0.03213046 0.03164398
v 0.01794044 0.03383571 0.02822724
v 0.01793394 0.03383963 0.02822724
v 0.01493482 0.03383963 0.02822724
v 0.01512204 0.03096951 0.02822724
v 0.01512234 0.03091782 0.03164398
v 0.01736517 0.03055602 0.03164398
v 0.01787981 0.03212725 0.02822724
v 0.01604041 0.03028191 0.02822724
v 0.01604041 0.03019815 0.03164398
v 0.01735807 0.03059024 0.02822724
f 8 9 4
f 4 9 10
f 10 9 14
f 4 1 3
f 3 8 4
f 5 6 1
f 15 11 14
f 6 7 2
f 1 6 2
f 12 5 11
f 11 15 12
f 6 5 12
f 14 9 13
f 13 15 14
f 4 10 5
f 5 1 4
f 14 11 5
f 5 10 14
f 8 3 2
f 2 3 1
f 2 7 8
f 8 7 13
f 13 7 6
f 9 8 13
f 6 12 13
f 13 12 15

