# https://github.com/mikedh/trimesh
v 0.01396792 0.03594812 0.01670395
v 0.01432966 0.03592804 0.01670395
v 0.01432966 0.03573045 0.01624903
v 0.01396792 0.03585091 0.01648070
v 0.01396792 0.02947950 0.01670395
v 0.01539855 0.03571038 0.01670395
v 0.01934662 0.03364575 0.01282865
v 0.01934662 0.03323050 0.01171450
v 0.01432966 0.03502463 0.01475261
v 0.01396792 0.03518418 0.01506958
v 0.01396792 0.02535235 0.01422292
v 0.01503471 0.02515477 0.01670395
v 0.01602515 0.03552124 0.01670395
v 0.01934662 0.03367956 0.01293922
v 0.01934662 0.03318929 0.01163026
v 0.01432966 0.03458191 0.01389752
v 0.01396792 0.03467701 0.01407865
v 0.01396792 0.03502569 0.01475261
v 0.01775065 0.03322521 0.01155970
v 0.01396792 0.02515477 0.01392595
v 0.01934662 0.02515477 0.01670395
v 0.01686552 0.03515882 0.01670395
v 0.01934662 0.03380952 0.01454094
v 0.01775065 0.03271064 0.01070566
v 0.01934662 0.03260286 0.01077622
v 0.01845044 0.03125145 0.00858267
v 0.01730993 0.03132541 0.00847842
v 0.01432966 0.03397435 0.01282865
v 0.01396792 0.03458191 0.01389752
v 0.01604042 0.03194142 0.00940828
v 0.01604042 0.03272015 0.01070566
v 0.01604042 0.03323261 0.01155970
v 0.01396792 0.02515477 0.00594578
v 0.01934662 0.02515477 0.00690408
v 0.01934662 0.03296951 0.01670395
v 0.01718777 0.03492742 0.01670395
v 0.01934662 0.03380952 0.01467574
v 0.01604042 0.03135183 0.00844051
v 0.01934662 0.03174172 0.00963890
v 0.01934662 0.03097462 0.00878697
v 0.01852679 0.02951331 0.00686301
v 0.01738628 0.02970033 0.00674296
v 0.01604042 0.03062276 0.00758541
v 0.01396792 0.03397435 0.01282865
v 0.01396792 0.03194142 0.00940828
v 0.01396792 0.03147651 0.00864480
v 0.01396792 0.03272015 0.01070566
v 0.01396792 0.03323261 0.01155970
v 0.01396792 0.02699962 0.00606583
v 0.01604042 0.02699962 0.00606794
v 0.01604042 0.02515477 0.00605846
v 0.01900963 0.02515477 0.00662817
v 0.01934662 0.02528896 0.00690408
v 0.01934662 0.03335518 0.01630905
v 0.01915654 0.03329389 0.01670395
v 0.01902490 0.03349993 0.01670395
v 0.01934662 0.03339850 0.01626166
v 0.01396792 0.03135183 0.00844051
v 0.01934662 0.03021596 0.00811827
v 0.01934662 0.02891421 0.00727160
v 0.01934662 0.02877791 0.00722105
v 0.01884851 0.02837217 0.00668820
v 0.01787386 0.02884976 0.00653656
v 0.01934662 0.03011347 0.00803086
v 0.01604042 0.02871029 0.00630909
v 0.01604042 0.02976902 0.00669241
v 0.01396792 0.03062276 0.00758541
v 0.01396792 0.02871029 0.00630909
v 0.01775065 0.02699962 0.00622063
v 0.01775065 0.02528896 0.00621326
v 0.01775065 0.02515477 0.00621326
v 0.01898067 0.02515477 0.00660500
v 0.01898067 0.02528896 0.00660500
v 0.01934662 0.02699962 0.00690934
v 0.01934662 0.02767586 0.00699885
v 0.01897540 0.02699962 0.00660816
v 0.01396792 0.02893429 0.00639018
v 0.01396792 0.02976902 0.00669241
v 0.01784754 0.02515477 0.00624380
f 5 11 12
f 12 11 20
f 2 6 7
f 7 8 2
f 14 13 22
f 6 13 14
f 7 6 14
f 41 61 62
f 41 64 60
f 60 61 41
f 43 42 66
f 66 42 65
f 49 68 65
f 33 49 50
f 50 49 65
f 22 37 23
f 23 14 22
f 1 2 3
f 3 2 8
f 8 9 3
f 16 9 19
f 19 28 16
f 19 9 15
f 15 9 8
f 41 42 26
f 39 40 26
f 26 40 41
f 32 28 19
f 78 66 77
f 65 68 77
f 77 66 65
f 33 50 51
f 41 62 63
f 63 42 41
f 65 42 63
f 55 57 56
f 56 57 36
f 36 57 37
f 36 37 22
f 18 10 9
f 1 3 4
f 9 10 4
f 4 3 9
f 24 30 19
f 19 15 24
f 59 64 41
f 41 40 59
f 27 42 43
f 27 26 42
f 15 26 27
f 27 24 15
f 39 26 25
f 25 26 15
f 46 45 30
f 75 62 61
f 76 75 74
f 62 75 76
f 69 51 50
f 69 63 62
f 69 50 65
f 65 63 69
f 62 76 69
f 54 55 35
f 57 55 54
f 17 16 29
f 9 16 17
f 17 18 9
f 30 24 38
f 24 27 38
f 58 46 38
f 38 46 30
f 38 27 43
f 19 30 31
f 31 32 19
f 73 52 72
f 73 76 74
f 74 52 73
f 34 52 53
f 53 52 74
f 71 51 70
f 51 69 70
f 70 69 76
f 76 73 70
f 79 73 72
f 79 70 73
f 71 70 79
f 78 67 66
f 66 67 43
f 1 5 36
f 12 21 36
f 22 13 36
f 36 21 35
f 36 5 12
f 36 2 1
f 6 2 36
f 36 13 6
f 35 55 36
f 36 55 56
f 29 16 44
f 44 16 28
f 44 32 48
f 28 32 44
f 17 67 78
f 33 20 17
f 17 5 1
f 17 49 33
f 11 5 17
f 17 20 11
f 48 47 17
f 58 67 17
f 1 4 17
f 78 77 17
f 68 49 17
f 29 44 17
f 17 46 58
f 17 77 68
f 17 44 48
f 10 18 17
f 17 4 10
f 45 46 17
f 17 47 45
f 38 67 58
f 43 67 38
f 45 47 31
f 30 45 31
f 48 32 31
f 31 47 48
f 53 21 34
f 35 21 53
f 53 54 35
f 53 8 7
f 53 60 64
f 7 14 53
f 53 15 8
f 53 75 61
f 53 23 37
f 61 60 53
f 37 57 53
f 14 23 53
f 64 59 53
f 53 40 39
f 39 25 53
f 53 59 40
f 53 25 15
f 74 75 53
f 57 54 53
f 79 21 12
f 34 21 79
f 79 20 33
f 12 20 79
f 33 51 79
f 79 52 34
f 79 51 71
f 72 52 79

