# https://github.com/mikedh/trimesh
v -0.02012292 -0.01405585 0.02651444
v -0.02011661 -0.01234468 0.02651444
v -0.02011884 -0.01121283 0.02651299
v -0.02011884 -0.01121283 0.02580820
v -0.02012032 -0.01405585 0.02580820
v -0.02007167 -0.01576701 0.02580820
v -0.02007390 -0.01576701 0.02651299
v -0.02007390 -0.01576701 0.02651444
v -0.01748475 -0.01121283 0.02651444
v -0.01632943 -0.01121283 0.02580820
v -0.02000223 -0.01647060 0.02580820
v -0.01989936 -0.01747626 0.02580820
v -0.01989899 -0.01747626 0.02651444
v -0.01632943 -0.01121283 0.02651444
v -0.01632943 -0.03074495 0.02580820
v -0.01966169 -0.01918552 0.02580820
v -0.01966132 -0.01918552 0.02651444
v -0.01632943 -0.03042566 0.02651444
v -0.01632943 -0.03047728 0.02651299
v -0.01698786 -0.02999166 0.02651444
v -0.01679587 -0.03040081 0.02580820
v -0.01941584 -0.02089477 0.02580820
v -0.01941547 -0.02089477 0.02651444
v -0.01737891 -0.02945823 0.02651299
v -0.01709519 -0.03007960 0.02580820
v -0.01761213 -0.02913512 0.02651444
v -0.01915700 -0.02258681 0.02580820
v -0.01915737 -0.02258490 0.02651444
v -0.01761176 -0.02913703 0.02651299
v -0.01759579 -0.02928998 0.02580820
v -0.01812127 -0.02773560 0.02651444
v -0.01902220 -0.02344144 0.02580820
v -0.01902220 -0.02343952 0.02651444
v -0.01790402 -0.02844301 0.02580820
v -0.01812164 -0.02773560 0.02580820
v -0.01850674 -0.02602443 0.02651444
v -0.01850786 -0.02602443 0.02580820
v -0.01895238 -0.02380088 0.02580820
v -0.01884914 -0.02431518 0.02651444
v -0.01885063 -0.02431518 0.02580820
f 3 4 1
f 2 3 1
f 1 4 5
f 5 6 1
f 1 6 7
f 19 18 20
f 15 19 20
f 20 21 15
f 3 2 9
f 29 30 25
f 21 20 25
f 11 7 6
f 34 30 29
f 29 25 24
f 24 25 20
f 35 34 31
f 31 34 29
f 26 31 29
f 29 24 26
f 26 24 20
f 35 31 37
f 1 7 8
f 12 13 8
f 8 11 12
f 7 11 8
f 36 37 31
f 37 36 40
f 22 27 28
f 28 23 22
f 28 27 32
f 32 33 28
f 38 33 32
f 39 40 36
f 39 38 40
f 33 38 39
f 18 15 10
f 10 14 18
f 18 19 15
f 10 4 9
f 9 14 10
f 4 3 9
f 12 16 17
f 17 13 12
f 17 16 22
f 22 23 17
f 38 4 10
f 10 15 38
f 38 25 30
f 38 5 4
f 6 5 38
f 30 34 38
f 15 21 38
f 32 27 38
f 38 11 6
f 21 25 38
f 38 16 12
f 12 11 38
f 38 34 35
f 38 27 22
f 35 37 38
f 22 16 38
f 37 40 38
f 39 18 14
f 39 2 1
f 14 9 39
f 39 20 18
f 39 9 2
f 39 26 20
f 13 17 39
f 1 8 39
f 31 26 39
f 39 8 13
f 39 28 33
f 39 36 31
f 23 28 39
f 39 17 23

