# https://github.com/mikedh/trimesh
v 0.00406529 0.01394867 0.08850756
v 0.00406529 0.01388355 0.08940793
v 0.00458653 0.01387920 0.08940793
v 0.00536090 0.01393652 0.08850756
v 0.00064608 0.01394867 0.08850756
v 0.00064608 0.01388355 0.08940793
v 0.00577615 0.01386792 0.08940793
v 0.00577615 0.01393217 0.08850756
v -0.00106477 0.01387834 0.08850756
v -0.00106477 0.01381408 0.08940793
v 0.00748700 0.01332781 0.08940793
v 0.00748700 0.01338773 0.08850756
v -0.00145632 0.01370814 0.08850756
v -0.00218705 0.01332868 0.08940793
v 0.00849955 0.01263140 0.08940793
v 0.00851825 0.01265832 0.08850756
v -0.00230676 0.01327658 0.08940793
v -0.00270579 0.01313417 0.08850756
v -0.00268709 0.01310204 0.08940793
v 0.00852324 0.01255586 0.08940793
v 0.00859556 0.01241171 0.08850756
v -0.00335297 0.01230664 0.08850756
v -0.00288411 0.01284936 0.08940793
v 0.00874271 0.01184990 0.08940793
v 0.00881753 0.01160416 0.08940793
v 0.00884122 0.01160416 0.08850756
v -0.00356122 0.01203746 0.08850756
v -0.00294771 0.01276773 0.08940793
v 0.00895095 0.01028776 0.08940793
v 0.00888362 0.01118822 0.08850756
v -0.00354251 0.01199838 0.08940793
v -0.00359738 0.01182906 0.08850756
v -0.00365848 0.01134018 0.08940793
v 0.00898587 0.00989353 0.08940793
v 0.00899834 0.00989353 0.08850756
v -0.00368467 0.01118215 0.08850756
v -0.00368467 0.01114307 0.08940793
v 0.00897340 0.00857800 0.08940793
v 0.00896966 0.00818377 0.08940793
v 0.00898088 0.00818377 0.08850756
v -0.00374078 0.00989353 0.08850756
v -0.00374078 0.00989353 0.08940793
v -0.00369839 0.01084176 0.08940793
v 0.00875767 0.00694465 0.08940793
v 0.00891354 0.00779215 0.08850756
v -0.00373954 0.00818377 0.08850756
v -0.00373954 0.00818377 0.08940793
v 0.00866415 0.00651743 0.08940793
v 0.00863547 0.00651743 0.08850756
v -0.00368342 0.00677359 0.08940793
v -0.00368342 0.00704017 0.08850756
v 0.00577615 0.00513330 0.08940793
v 0.00764661 0.00614057 0.08850756
v -0.00277936 0.00621351 0.08940793
v -0.00280056 0.00628906 0.08850756
v 0.00406529 0.00507772 0.08940793
v 0.00577615 0.00600511 0.08850756
v 0.00748700 0.00608152 0.08850756
v -0.00106477 0.00539293 0.08940793
v -0.00106477 0.00600598 0.08850756
v 0.00014106 0.00512982 0.08940793
v 0.00420870 0.00600251 0.08850756
v 0.00064608 0.00507772 0.08940793
v 0.00064608 0.00600251 0.08850756
f 54 50 55
f 51 55 50
f 56 62 57
f 49 48 52
f 52 57 58
f 56 57 52
f 41 42 36
f 22 19 18
f 50 47 46
f 46 51 50
f 54 55 59
f 55 61 59
f 60 61 55
f 49 52 53
f 53 52 58
f 39 40 35
f 18 19 13
f 33 31 27
f 28 22 27
f 27 31 28
f 35 30 29
f 29 34 35
f 12 15 16
f 61 60 63
f 49 45 44
f 44 48 49
f 44 45 40
f 40 39 44
f 35 34 38
f 38 39 35
f 9 10 5
f 9 13 14
f 14 10 9
f 32 33 27
f 36 33 32
f 37 33 36
f 19 22 23
f 22 28 23
f 25 30 26
f 25 29 30
f 26 21 25
f 25 21 24
f 4 7 8
f 3 1 2
f 3 4 1
f 7 4 3
f 11 12 8
f 8 7 11
f 15 12 11
f 24 21 20
f 20 21 16
f 16 15 20
f 64 63 60
f 6 5 10
f 17 13 19
f 17 14 13
f 43 36 42
f 43 37 36
f 46 47 42
f 46 42 41
f 64 57 62
f 35 40 64
f 64 32 27
f 64 22 18
f 41 36 64
f 64 30 35
f 64 46 41
f 1 4 64
f 16 21 64
f 64 12 16
f 55 51 64
f 58 57 64
f 49 53 64
f 64 5 1
f 64 45 49
f 27 22 64
f 26 30 64
f 18 13 64
f 51 46 64
f 64 60 55
f 64 53 58
f 40 45 64
f 64 13 9
f 8 12 64
f 64 21 26
f 9 5 64
f 36 32 64
f 64 4 8
f 56 63 64
f 64 62 56
f 1 5 6
f 2 1 6
f 43 25 24
f 34 29 43
f 48 44 43
f 42 47 43
f 43 50 54
f 54 59 43
f 56 52 43
f 43 20 15
f 43 47 50
f 43 17 19
f 43 52 48
f 2 6 43
f 15 11 43
f 43 59 61
f 43 63 56
f 43 38 34
f 31 33 43
f 43 28 31
f 19 23 43
f 43 3 2
f 61 63 43
f 43 44 39
f 39 38 43
f 10 14 43
f 33 37 43
f 43 23 28
f 29 25 43
f 7 3 43
f 43 11 7
f 24 20 43
f 43 6 10
f 14 17 43

