# https://github.com/mikedh/trimesh
v -0.00725982 0.03480617 0.05856155
v -0.01810986 0.03480617 0.05856155
v -0.00725982 0.03162382 0.05856155
v -0.00725982 0.03480617 0.03497738
v -0.01906405 0.03480648 0.03848714
v -0.01813956 0.03480617 0.05826557
v -0.01843659 0.03384103 0.05558948
v -0.01826085 0.03384103 0.05730119
v -0.01813090 0.03384103 0.05856155
v -0.01813090 0.03162382 0.05856155
v -0.00725982 0.03162382 0.03652138
v -0.00725982 0.03480586 0.03467648
v -0.00726106 0.03480617 0.03467401
v -0.00735635 0.03480617 0.03369976
v -0.00746031 0.03480617 0.03336433
v -0.01906405 0.03480617 0.03506618
v -0.01936850 0.03384103 0.03848714
v -0.01906405 0.03480617 0.04361735
v -0.01905910 0.03480617 0.04532906
v -0.01902816 0.03480617 0.04703831
v -0.01899598 0.03480617 0.04809148
v -0.01860614 0.03480617 0.05313537
v -0.01846505 0.03480617 0.05484461
v -0.01830788 0.03480617 0.05655633
v -0.01860490 0.03384103 0.05388023
v -0.01860738 0.03213069 0.05388023
v -0.01848733 0.03162382 0.05508386
v -0.01843659 0.03162382 0.05558948
v -0.01813709 0.03162382 0.05850482
v -0.01826085 0.03162382 0.05730119
v -0.00765957 0.03162382 0.03336433
v -0.00739719 0.03480181 0.03336433
v -0.01906281 0.03480274 0.03336433
v -0.01935860 0.03384103 0.03506618
v -0.01982270 0.03214004 0.03336433
v -0.01982518 0.03213069 0.03336433
v -0.01936603 0.03384103 0.04019885
v -0.01906158 0.03479900 0.04532906
v -0.01904549 0.03475663 0.04703831
v -0.01903064 0.03471271 0.04800269
v -0.01891430 0.03384103 0.05045927
v -0.01876331 0.03384103 0.05216852
v -0.01902197 0.03213069 0.04957875
v -0.01893782 0.03213069 0.05045927
v -0.01860738 0.03162382 0.05388023
v -0.01990191 0.03162382 0.03336433
v -0.01934994 0.03384601 0.03336433
v -0.01990067 0.03162382 0.03456302
v -0.01982270 0.03213069 0.03506618
v -0.01981280 0.03213069 0.03677789
v -0.01934746 0.03384103 0.04190810
v -0.01978310 0.03213069 0.03848714
v -0.01972617 0.03213069 0.04019885
v -0.01964325 0.03213069 0.04190810
v -0.01953186 0.03213069 0.04361981
v -0.01900712 0.03384103 0.04924578
v -0.01939573 0.03213069 0.04532906
v -0.01924845 0.03213069 0.04703831
v -0.01909870 0.03213069 0.04872289
v -0.01904549 0.03162382 0.04932470
v -0.01902197 0.03162382 0.04957875
v -0.01893782 0.03162382 0.05045927
v -0.01988582 0.03162382 0.03626980
v -0.01985240 0.03162382 0.03798151
v -0.01978929 0.03162382 0.03969076
v -0.01969646 0.03162382 0.04140248
v -0.01957889 0.03162382 0.04311172
v -0.01944028 0.03162382 0.04482344
v -0.01929177 0.03162382 0.04653022
v -0.01924722 0.03162382 0.04703831
v -0.01909870 0.03162382 0.04872289
f 31 32 11
f 15 33 16
f 12 13 4
f 14 32 15
f 14 13 12
f 12 11 14
f 14 11 32
f 17 16 33
f 50 52 51
f 63 64 52
f 52 50 63
f 29 10 9
f 24 23 42
f 67 57 55
f 52 64 53
f 65 53 64
f 54 53 65
f 33 47 34
f 34 17 33
f 39 38 51
f 51 52 39
f 39 19 38
f 51 38 37
f 37 50 51
f 37 49 50
f 37 17 36
f 36 49 37
f 48 36 46
f 48 49 36
f 50 49 48
f 48 63 50
f 8 29 9
f 9 2 8
f 2 7 8
f 43 42 59
f 42 58 59
f 68 57 67
f 68 58 57
f 60 59 58
f 60 61 43
f 43 59 60
f 23 22 41
f 42 23 41
f 56 55 41
f 41 55 57
f 41 58 42
f 57 58 41
f 6 7 2
f 6 24 7
f 25 24 42
f 7 24 25
f 25 42 43
f 43 44 25
f 26 7 25
f 25 44 26
f 54 65 66
f 67 55 66
f 66 55 54
f 35 34 47
f 36 17 35
f 17 34 35
f 38 19 18
f 17 37 18
f 18 37 38
f 20 39 21
f 19 39 20
f 52 53 40
f 40 39 52
f 21 39 40
f 40 53 54
f 54 55 40
f 40 55 56
f 56 41 40
f 40 22 21
f 40 41 22
f 29 8 30
f 27 7 26
f 26 45 27
f 27 28 7
f 69 70 58
f 58 68 69
f 58 70 71
f 71 60 58
f 5 2 1
f 15 16 5
f 1 4 5
f 5 14 15
f 5 4 13
f 13 14 5
f 5 6 2
f 21 22 5
f 5 22 23
f 23 24 5
f 24 6 5
f 5 18 19
f 19 20 5
f 5 20 21
f 16 17 5
f 17 18 5
f 2 10 3
f 2 3 1
f 9 10 2
f 1 3 4
f 3 11 4
f 4 11 12
f 43 61 62
f 62 44 43
f 62 45 26
f 26 44 62
f 35 33 15
f 15 32 35
f 35 31 46
f 35 32 31
f 46 36 35
f 35 47 33
f 7 28 30
f 30 8 7
f 46 31 71
f 71 11 3
f 3 10 71
f 31 11 71
f 61 60 71
f 10 29 71
f 71 62 61
f 29 30 71
f 64 63 71
f 71 48 46
f 71 68 67
f 71 65 64
f 63 48 71
f 67 66 71
f 45 62 71
f 71 27 45
f 70 69 71
f 71 66 65
f 71 30 28
f 28 27 71
f 71 69 68

