# https://github.com/mikedh/trimesh
v 0.01946158 0.00904115 0.03688454
v 0.01775163 0.00759840 0.03442558
v 0.01853516 0.00904057 0.03688454
v 0.02025448 0.00903245 0.03688454
v 0.01775163 0.00903999 0.03688454
v 0.02117152 0.00902085 0.03688454
v 0.01946158 0.00757115 0.03442558
v 0.01646683 0.00745459 0.03442558
v 0.01694936 0.00893967 0.03688454
v 0.02208623 0.00895185 0.03688454
v 0.02332418 0.00742386 0.03442558
v 0.02201830 0.00748591 0.03442558
v 0.02117152 0.00751896 0.03442558
v 0.01607331 0.00724410 0.03442558
v 0.01571961 0.00868568 0.03688454
v 0.01604052 0.00877498 0.03688454
v 0.02288147 0.00887472 0.03688454
v 0.02413348 0.00759261 0.03537321
v 0.02382428 0.00721800 0.03442558
v 0.01559429 0.00694256 0.03442558
v 0.01479788 0.00804955 0.03688454
v 0.02435366 0.00816959 0.03688454
v 0.02463826 0.00685790 0.03442558
v 0.01511059 0.00620263 0.03442558
v 0.01552519 0.00697329 0.03456711
v 0.01478734 0.00804201 0.03688454
v 0.02438060 0.00813769 0.03688454
v 0.02566774 0.00598459 0.03442558
v 0.02497440 0.00663812 0.03442558
v 0.01508599 0.00578163 0.03442558
v 0.01406705 0.00312288 0.03688454
v 0.01427552 0.00647227 0.03688454
v 0.01430949 0.00665958 0.03688454
v 0.02530116 0.00697619 0.03688454
v 0.02529765 0.00700693 0.03677599
v 0.02566423 0.00603098 0.03506584
v 0.02598865 0.00476278 0.03442558
v 0.01498761 0.00311766 0.03442558
v 0.01406705 0.00311766 0.03688454
v 0.02556702 0.00617595 0.03688454
v 0.02558108 0.00615160 0.03677599
v 0.02594298 0.00476278 0.03506584
v 0.02603082 0.00311766 0.03442558
v 0.02569937 0.00311766 0.03688454
v 0.02557288 0.00613710 0.03688454
v 0.02572747 0.00476278 0.03677599
v 0.02595703 0.00311766 0.03506584
v 0.02571693 0.00311766 0.03677599
v 0.02570874 0.00460911 0.03688454
v 0.02570874 0.00476278 0.03688454
v 0.02572630 0.00311766 0.03671076
f 31 38 39
f 31 32 24
f 26 24 33
f 33 24 32
f 30 38 31
f 31 24 30
f 1 2 3
f 2 5 3
f 20 15 14
f 16 9 8
f 8 15 16
f 14 15 8
f 8 9 5
f 8 5 2
f 11 17 18
f 18 17 22
f 18 22 23
f 11 12 6
f 6 12 13
f 13 7 6
f 6 7 2
f 23 22 29
f 22 28 29
f 25 20 24
f 25 24 26
f 26 20 25
f 21 20 26
f 15 20 21
f 19 18 23
f 11 18 19
f 10 17 11
f 11 6 10
f 4 2 1
f 4 6 2
f 50 46 45
f 36 37 28
f 28 35 36
f 43 37 42
f 42 47 43
f 46 47 42
f 45 46 42
f 51 47 46
f 44 46 49
f 46 50 49
f 41 36 35
f 37 36 41
f 45 42 41
f 41 42 37
f 27 34 35
f 27 28 22
f 27 35 28
f 48 46 44
f 48 51 46
f 45 41 40
f 35 34 40
f 40 41 35
f 37 8 2
f 43 38 37
f 38 30 37
f 24 20 37
f 23 29 37
f 37 19 23
f 37 30 24
f 2 7 37
f 37 12 11
f 37 20 14
f 14 8 37
f 37 7 13
f 13 12 37
f 37 29 28
f 11 19 37
f 48 38 43
f 44 39 48
f 48 39 38
f 43 47 48
f 47 51 48
f 40 32 31
f 26 33 40
f 31 39 40
f 40 39 44
f 40 9 16
f 40 4 1
f 17 10 40
f 1 3 40
f 40 33 32
f 22 17 40
f 40 3 5
f 5 9 40
f 16 15 40
f 40 21 26
f 44 49 40
f 15 21 40
f 40 10 6
f 6 4 40
f 40 50 45
f 40 27 22
f 40 49 50
f 34 27 40

