# https://github.com/mikedh/trimesh
v -0.00277448 0.04022988 0.02993322
v 0.00406810 0.03973711 0.02777502
v -0.00277448 0.03993403 0.02861649
v -0.00296091 0.03996620 0.02875943
v -0.00296091 0.04022988 0.02993322
v 0.00064602 0.04022355 0.02993322
v 0.00919806 0.03973322 0.02779520
v 0.00577598 0.03973614 0.02778067
v 0.00064602 0.03973711 0.02776815
v 0.01261856 0.03943736 0.02651320
v 0.00919806 0.03944077 0.02651320
v 0.00577598 0.03944369 0.02651320
v -0.00296091 0.03975856 0.02785416
v -0.00296091 0.03993403 0.02861649
v -0.00296091 0.03589828 0.02993322
v 0.01090752 0.04020405 0.02993322
v 0.00919806 0.03992282 0.02865001
v 0.01261856 0.03972980 0.02780974
v -0.00296091 0.03973711 0.02776129
v 0.01317942 0.03990625 0.02872430
v 0.01317942 0.03939885 0.02651320
v 0.01317942 0.03925458 0.02595275
v 0.01261856 0.03925409 0.02580860
v 0.01161215 0.03925507 0.02580860
v 0.00648061 0.03925799 0.02580860
v -0.00296091 0.03545424 0.02580860
v 0.01317942 0.03565457 0.02993322
v 0.01261856 0.04020064 0.02993322
v 0.01261856 0.03991940 0.02866454
v 0.01317942 0.04006855 0.02945515
v -0.00296091 0.03944467 0.02651320
v 0.00235706 0.03944467 0.02651320
v 0.01317942 0.03921705 0.02580860
v 0.00477273 0.03925848 0.02580860
v 0.01317942 0.03525099 0.02580860
v -0.00296091 0.03925994 0.02580860
v 0.01317942 0.04016165 0.02993322
v 0.01262962 0.04020015 0.02993322
v -0.00277448 0.03925994 0.02580860
f 35 27 26
f 15 26 27
f 12 2 11
f 23 11 10
f 20 21 10
f 10 18 20
f 10 11 2
f 20 18 30
f 18 29 30
f 5 1 4
f 9 2 12
f 4 1 3
f 1 2 3
f 2 9 3
f 22 10 21
f 22 33 23
f 23 10 22
f 8 10 2
f 8 2 1
f 37 30 38
f 38 29 28
f 38 30 29
f 28 29 16
f 24 25 12
f 24 11 23
f 12 11 24
f 1 6 7
f 7 8 1
f 18 10 7
f 10 8 7
f 12 25 32
f 19 32 31
f 19 9 12
f 12 32 19
f 6 16 17
f 17 7 6
f 17 16 29
f 34 32 25
f 4 3 14
f 32 34 39
f 13 14 3
f 13 3 9
f 9 19 13
f 22 27 35
f 22 21 20
f 35 33 22
f 20 30 22
f 22 37 27
f 22 30 37
f 27 37 16
f 16 38 28
f 16 15 27
f 16 5 15
f 1 5 16
f 16 6 1
f 37 38 16
f 18 7 17
f 17 29 18
f 39 33 35
f 35 26 39
f 23 33 39
f 26 36 39
f 39 24 23
f 25 24 39
f 39 34 25
f 36 31 39
f 31 32 39
f 13 36 26
f 15 5 13
f 26 15 13
f 13 5 4
f 13 31 36
f 13 19 31
f 4 14 13

