# https://github.com/mikedh/trimesh
v 0.01103214 0.02871498 0.08342984
v 0.01105937 0.02871498 0.08980691
v 0.01105937 0.03213104 0.09151203
v 0.01103214 0.02917831 0.08342984
v 0.02237391 0.02871498 0.08342984
v 0.01107002 0.02871498 0.09151203
v 0.01106410 0.03042033 0.09151203
v 0.01141217 0.03555111 0.09298830
v 0.01105937 0.03555446 0.09151203
v 0.01103332 0.03088902 0.08342984
v 0.02237391 0.03555446 0.08342984
v 0.02257518 0.02871498 0.08467113
v 0.01142282 0.02871498 0.09273391
v 0.01141217 0.03384107 0.09294028
v 0.01141217 0.03555446 0.09298830
v 0.01261975 0.03555111 0.09372796
v 0.01103806 0.03555446 0.08342984
v 0.02257399 0.03555446 0.08466806
v 0.02257518 0.03555111 0.08467113
v 0.02282380 0.03555111 0.08638135
v 0.02282261 0.02871498 0.08638135
v 0.01261975 0.02871498 0.09313745
v 0.01261975 0.03384107 0.09363295
v 0.01261975 0.03555446 0.09372694
v 0.01433049 0.03555111 0.09385362
v 0.02282261 0.03555446 0.08637829
v 0.02304400 0.03555446 0.08808851
v 0.02304519 0.03555111 0.08809260
v 0.02304282 0.03213104 0.08809260
v 0.02303927 0.03042033 0.08809260
v 0.02303453 0.02871498 0.08809260
v 0.01433049 0.02871498 0.09316810
v 0.01433049 0.03384107 0.09374942
v 0.01433049 0.03555446 0.09385260
v 0.01604122 0.03555111 0.09386282
v 0.01604122 0.03555446 0.09386282
v 0.02312569 0.03555446 0.08979771
v 0.02298007 0.02871498 0.08980180
v 0.02312569 0.03555111 0.08980180
v 0.02310556 0.03384107 0.08980180
v 0.01433522 0.02871498 0.09316810
v 0.01774959 0.03384107 0.09374840
v 0.01774959 0.03555111 0.09386588
v 0.01774959 0.03555446 0.09386486
v 0.02271251 0.03555446 0.09150896
v 0.02264266 0.03384107 0.09151203
v 0.02242719 0.02871498 0.09122801
v 0.01775551 0.02871498 0.09314460
v 0.01946033 0.02871498 0.09303223
v 0.01946033 0.03384107 0.09363499
v 0.01946033 0.03555111 0.09376372
v 0.01946033 0.03555446 0.09376270
v 0.02271133 0.03555111 0.09151203
v 0.02217502 0.03555446 0.09252651
v 0.02217502 0.03555111 0.09252856
v 0.02212648 0.03384107 0.09247441
v 0.02169554 0.02871498 0.09208517
v 0.02084076 0.02871498 0.09264298
v 0.02117107 0.03384107 0.09305266
v 0.02117107 0.03555111 0.09317525
v 0.02117107 0.03555446 0.09317423
f 9 17 10
f 9 10 4
f 59 51 50
f 2 3 1
f 38 31 40
f 45 54 55
f 55 53 45
f 38 40 45
f 46 53 55
f 46 47 38
f 38 45 46
f 46 45 53
f 52 44 43
f 43 51 52
f 57 47 56
f 56 46 55
f 47 46 56
f 51 59 60
f 60 56 55
f 59 56 60
f 7 2 6
f 3 2 7
f 37 31 30
f 30 29 37
f 37 29 28
f 37 45 39
f 39 45 40
f 39 31 37
f 39 40 31
f 55 54 61
f 61 60 55
f 57 56 58
f 58 56 59
f 58 59 50
f 50 49 58
f 42 49 50
f 42 51 43
f 50 51 42
f 21 30 31
f 29 30 21
f 21 28 29
f 37 28 27
f 49 42 48
f 33 42 43
f 3 7 8
f 8 7 6
f 32 33 22
f 23 13 22
f 22 33 23
f 6 13 14
f 14 8 6
f 28 21 20
f 20 27 28
f 21 12 20
f 20 12 19
f 41 48 42
f 42 33 41
f 33 32 41
f 43 44 36
f 13 23 16
f 16 14 13
f 8 14 16
f 15 8 16
f 16 24 15
f 27 20 26
f 35 33 43
f 43 36 35
f 18 19 11
f 18 20 19
f 18 26 20
f 25 36 34
f 25 35 36
f 33 35 25
f 25 23 33
f 25 16 23
f 4 5 1
f 17 11 4
f 4 10 17
f 4 11 5
f 1 3 4
f 4 3 9
f 61 52 51
f 51 60 61
f 9 3 8
f 8 15 9
f 5 11 12
f 11 19 12
f 41 2 1
f 1 5 41
f 41 47 57
f 57 58 41
f 41 31 38
f 38 47 41
f 41 13 6
f 6 2 41
f 41 32 22
f 22 13 41
f 41 58 49
f 41 21 31
f 49 48 41
f 5 12 41
f 41 12 21
f 18 17 9
f 9 15 18
f 18 61 54
f 18 11 17
f 18 45 37
f 54 45 18
f 44 52 18
f 52 61 18
f 37 27 18
f 18 36 44
f 15 24 18
f 24 34 18
f 34 36 18
f 27 26 18
f 25 34 24
f 24 16 25

