# https://github.com/mikedh/trimesh
v -0.00459834 0.00305329 0.08331880
v -0.00453494 0.00134243 0.08331880
v -0.00376880 -0.00037018 0.08466941
v -0.00382005 0.00134067 0.08466941
v -0.00384973 0.00305153 0.08466941
v -0.00459834 0.00647148 0.08331880
v -0.00439736 -0.00033850 0.08331880
v -0.00368921 -0.00147027 0.08466941
v -0.00384973 0.00647148 0.08466941
v -0.00383489 0.00818057 0.08466941
v -0.00459699 0.00658060 0.08331880
v -0.00384703 -0.00180997 0.08331880
v -0.00343023 -0.00232745 0.08466941
v -0.00378498 0.00989142 0.08466941
v -0.00456327 0.00832490 0.08331880
v -0.00456731 0.00818233 0.08331880
v -0.00343293 -0.00248587 0.08331880
v -0.00257506 -0.00339586 0.08466941
v -0.00369056 0.01123089 0.08466941
v -0.00444457 0.01026985 0.08331880
v -0.00446750 0.00993719 0.08331880
v -0.00257776 -0.00339586 0.08331880
v -0.00226078 -0.00350675 0.08331880
v -0.00106435 -0.00392390 0.08466941
v -0.00357861 0.01208632 0.08466941
v -0.00359614 0.01223417 0.08331880
v -0.00106435 -0.00391686 0.08331880
v -0.00070556 -0.00393094 0.08331880
v 0.00064599 -0.00398374 0.08331880
v 0.00064599 -0.00398902 0.08466941
v -0.00272479 0.01315472 0.08466941
v -0.00341675 0.01245771 0.08331880
v 0.00235499 -0.00399078 0.08331880
v 0.00235499 -0.00399078 0.08466941
v -0.00106435 0.01392038 0.08466941
v -0.00274097 0.01313888 0.08331880
v 0.00406533 -0.00399078 0.08331880
v 0.00406533 -0.00399078 0.08466941
v 0.00064599 0.01399079 0.08466941
v 0.00064599 0.01399079 0.08331880
v 0.00028720 0.01397494 0.08331880
v -0.00106435 0.01390454 0.08331880
v 0.00577702 -0.00395734 0.08331880
v 0.00577702 -0.00396086 0.08466941
v 0.00406533 0.01399079 0.08466941
v 0.00406533 0.01399079 0.08331880
v 0.00748736 -0.00363172 0.08331880
v 0.00918152 -0.00323745 0.08331880
v 0.00748736 -0.00351379 0.08466941
v 0.00577702 0.01397494 0.08466941
v 0.00577702 0.01397671 0.08331880
v 0.00918152 -0.00322865 0.08335767
v 0.00918152 0.01315648 0.08331880
v 0.00918152 -0.00296638 0.08430012
v 0.00868649 -0.00301567 0.08466941
v 0.00712857 0.01374085 0.08331880
v 0.00748736 0.01350147 0.08466941
v 0.00883891 0.01332721 0.08331880
v 0.00917882 0.01316352 0.08331880
v 0.00918152 0.01280269 0.08448179
v 0.00918152 -0.00263548 0.08466941
v 0.00750355 0.01349443 0.08466941
v 0.00918152 0.01277629 0.08456456
v 0.00918152 0.01261436 0.08466941
v 0.00901831 0.01279565 0.08466941
v 0.00907901 0.01275165 0.08466941
f 2 3 1
f 40 35 39
f 1 3 4
f 4 5 1
f 26 20 25
f 25 20 19
f 19 20 14
f 10 14 15
f 31 35 36
f 31 26 25
f 36 35 42
f 22 18 17
f 8 2 7
f 3 2 8
f 14 20 21
f 21 15 14
f 6 9 10
f 32 31 36
f 26 31 32
f 35 40 41
f 41 42 35
f 55 54 61
f 49 54 55
f 52 49 48
f 52 54 49
f 48 49 44
f 37 43 44
f 38 37 44
f 12 17 13
f 13 17 18
f 7 12 13
f 13 8 7
f 10 15 16
f 53 59 60
f 60 59 58
f 58 63 60
f 50 57 58
f 62 63 58
f 58 57 62
f 28 24 27
f 29 24 28
f 30 24 29
f 29 33 30
f 27 24 23
f 23 24 18
f 23 18 22
f 48 44 47
f 47 44 43
f 11 6 10
f 10 16 11
f 56 50 58
f 51 50 56
f 51 46 45
f 45 50 51
f 63 62 65
f 34 30 33
f 64 63 66
f 63 65 66
f 5 9 6
f 1 5 6
f 48 53 60
f 60 64 61
f 60 52 48
f 60 63 64
f 61 54 60
f 54 52 60
f 56 23 22
f 56 53 48
f 56 21 20
f 56 2 1
f 1 6 56
f 56 41 40
f 7 2 56
f 56 12 7
f 56 28 27
f 6 11 56
f 36 42 56
f 20 26 56
f 22 17 56
f 56 32 36
f 40 46 56
f 58 59 56
f 56 43 37
f 56 17 12
f 15 21 56
f 56 16 15
f 26 32 56
f 56 46 51
f 42 41 56
f 56 59 53
f 37 33 56
f 48 47 56
f 56 33 29
f 29 28 56
f 27 23 56
f 56 47 43
f 56 11 16
f 45 46 40
f 45 40 39
f 34 33 37
f 34 37 38
f 39 35 66
f 10 9 66
f 66 45 39
f 66 31 25
f 3 8 66
f 66 4 3
f 66 14 10
f 25 19 66
f 61 64 66
f 66 55 61
f 66 13 18
f 5 4 66
f 66 9 5
f 66 19 14
f 35 31 66
f 38 44 66
f 66 34 38
f 18 24 66
f 49 55 66
f 66 44 49
f 8 13 66
f 57 50 66
f 66 62 57
f 24 30 66
f 50 45 66
f 66 65 62
f 30 34 66

