# https://github.com/mikedh/trimesh
v 0.01539314 -0.01498970 0.07448061
v 0.02087825 -0.01498970 0.07448061
v 0.01539314 -0.01498970 0.07507328
v 0.01539314 -0.00436902 0.07448061
v 0.02096886 -0.01443870 0.07507328
v 0.02096832 -0.01498970 0.07507328
v 0.02087879 -0.01241562 0.07448061
v 0.01539314 -0.00436902 0.07507328
v 0.02087934 -0.00436902 0.07448061
v 0.02096941 -0.00436902 0.07507328
f 5 9 10
f 6 2 5
f 9 5 7
f 7 5 2
f 8 9 4
f 10 9 8
f 8 4 1
f 1 3 8
f 2 6 3
f 2 3 1
f 10 8 5
f 5 8 3
f 3 6 5
f 4 9 7
f 1 4 7
f 7 2 1

