# https://github.com/mikedh/trimesh
v 0.01105922 -0.00022197 0.09336927
v 0.01106885 -0.00193125 0.09336927
v 0.01105922 0.00049262 0.09408358
v 0.01105922 0.01331221 0.09336927
v 0.01134458 -0.00387491 0.09336927
v 0.01110015 -0.00121666 0.09408358
v 0.01105922 0.01331221 0.09408358
v 0.01106524 0.01502435 0.09336927
v 0.01134819 -0.00389492 0.09336927
v 0.01137227 -0.00304028 0.09408358
v 0.01109293 0.01502435 0.09408358
v 0.01108691 0.01673649 0.09336927
v 0.01147702 -0.00355763 0.09408358
v 0.01198032 -0.00505826 0.09336927
v 0.01133976 0.01844577 0.09408358
v 0.01114230 0.01844577 0.09336927
v 0.01256790 -0.00556418 0.09336927
v 0.01261967 -0.00436940 0.09408358
v 0.01155288 0.02015505 0.09408358
v 0.01149027 0.02168711 0.09336927
v 0.01130364 0.02015505 0.09336927
v 0.01261967 -0.00558705 0.09336927
v 0.01416568 -0.00564421 0.09336927
v 0.01433063 -0.00440656 0.09408358
v 0.01172265 0.02112974 0.09408358
v 0.01242943 0.02354788 0.09336927
v 0.01433063 -0.00564707 0.09336927
v 0.01457626 -0.00440370 0.09408358
v 0.01180332 0.02118976 0.09408358
v 0.01261967 0.02354788 0.09346289
v 0.01957429 0.02354788 0.09336927
v 0.01764178 -0.00559562 0.09336927
v 0.01775015 -0.00436082 0.09408358
v 0.01261967 0.02128694 0.09408358
v 0.01430053 0.02354788 0.09354050
v 0.02116364 0.02119834 0.09336927
v 0.01945870 0.02354788 0.09341059
v 0.02069888 0.01979204 0.09408358
v 0.01775015 -0.00559276 0.09336927
v 0.01946111 -0.00419218 0.09408358
v 0.01289781 0.02130695 0.09408358
v 0.01433063 0.02354788 0.09354120
v 0.02198240 0.01940902 0.09336927
v 0.02115160 0.01911747 0.09408358
v 0.02207511 0.01770832 0.09408358
v 0.01775015 0.02354788 0.09351589
v 0.01929856 0.02083819 0.09408358
v 0.01963329 0.02064668 0.09408358
v 0.01946111 -0.00537839 0.09336927
v 0.01994634 -0.00398924 0.09408358
v 0.01433063 0.02127837 0.09408358
v 0.01772125 0.02354788 0.09351624
v 0.02239057 0.01816565 0.09336927
v 0.02227017 0.01710235 0.09408358
v 0.01456903 0.02126694 0.09408358
v 0.01775015 0.02106971 0.09408358
v 0.01861104 0.02100969 0.09408358
v 0.01985724 -0.00512971 0.09336927
v 0.02091320 -0.00348332 0.09408358
v 0.02276744 0.01658214 0.09336927
v 0.02261573 0.01583326 0.09408358
v 0.02121301 -0.00427793 0.09336927
v 0.02177771 -0.00267441 0.09408358
v 0.02300705 0.01416399 0.09408358
v 0.02311782 0.01487858 0.09336927
v 0.02154412 -0.00382346 0.09336927
v 0.02187403 -0.00277445 0.09394464
v 0.02199203 -0.00241430 0.09408358
v 0.02320090 0.01245186 0.09408358
v 0.02330806 0.01316644 0.09336927
v 0.02250375 -0.00220850 0.09336927
v 0.02254830 -0.00212847 0.09336927
v 0.02233639 -0.00177975 0.09408358
v 0.02322859 0.01160293 0.09408358
v 0.02335984 0.01160293 0.09336927
v 0.02331288 0.01302352 0.09336927
v 0.02307327 -0.00036202 0.09336927
v 0.02278671 -0.00033058 0.09408358
v 0.02309976 0.00305368 0.09408358
v 0.02327796 0.00134154 0.09336927
v 0.02329843 0.00305368 0.09336927
v 0.02334780 0.00989365 0.09336927
v 0.02306243 0.00134154 0.09408358
f 36 31 38
f 20 25 26
f 2 3 1
f 83 77 80
f 12 11 16
f 16 11 15
f 8 4 7
f 7 12 8
f 11 12 7
f 35 29 34
f 34 42 35
f 25 29 30
f 26 25 30
f 29 35 30
f 37 48 38
f 38 31 37
f 14 13 9
f 3 2 6
f 81 74 80
f 83 80 79
f 80 74 79
f 64 65 60
f 69 65 64
f 69 74 75
f 39 49 40
f 59 58 62
f 49 58 59
f 78 72 77
f 78 77 83
f 16 15 21
f 21 15 20
f 25 20 19
f 20 15 19
f 44 36 38
f 44 45 36
f 43 45 53
f 36 45 43
f 61 60 53
f 64 60 61
f 48 37 47
f 47 37 46
f 47 46 57
f 57 46 56
f 42 51 52
f 41 42 34
f 41 51 42
f 13 14 17
f 17 18 13
f 22 18 17
f 5 6 2
f 75 74 82
f 74 81 82
f 65 69 70
f 33 39 40
f 63 59 62
f 40 49 50
f 49 59 50
f 73 68 72
f 72 78 73
f 53 45 54
f 54 61 53
f 55 56 46
f 46 52 55
f 55 52 51
f 6 5 10
f 10 5 9
f 9 13 10
f 76 69 75
f 76 70 69
f 23 18 22
f 24 23 27
f 18 23 24
f 39 33 32
f 33 27 32
f 68 63 67
f 67 63 62
f 62 66 67
f 66 71 67
f 67 71 72
f 72 68 67
f 28 27 33
f 28 24 27
f 7 4 1
f 1 3 7
f 52 31 26
f 26 30 52
f 52 37 31
f 52 35 42
f 52 30 35
f 46 37 52
f 72 71 32
f 32 2 1
f 32 20 26
f 31 36 32
f 26 31 32
f 75 82 32
f 53 60 32
f 1 4 32
f 32 12 16
f 32 43 53
f 32 4 8
f 16 21 32
f 32 66 62
f 22 17 32
f 32 80 77
f 77 72 32
f 9 5 32
f 62 58 32
f 8 12 32
f 32 14 9
f 32 81 80
f 32 60 65
f 32 58 49
f 49 39 32
f 32 76 75
f 32 21 20
f 36 43 32
f 32 17 14
f 32 5 2
f 32 82 81
f 65 70 32
f 32 23 22
f 32 71 66
f 70 76 32
f 27 23 32
f 38 48 28
f 28 7 3
f 34 29 28
f 28 78 83
f 25 19 28
f 28 41 34
f 3 6 28
f 28 63 68
f 28 29 25
f 64 61 28
f 57 56 28
f 83 79 28
f 28 69 64
f 28 15 11
f 11 7 28
f 28 44 38
f 28 47 57
f 13 18 28
f 28 55 51
f 28 79 74
f 74 69 28
f 28 33 40
f 40 50 28
f 28 19 15
f 45 44 28
f 68 73 28
f 48 47 28
f 28 54 45
f 51 41 28
f 28 10 13
f 59 63 28
f 28 50 59
f 28 73 78
f 61 54 28
f 56 55 28
f 6 10 28
f 18 24 28

