# https://github.com/mikedh/trimesh
v 0.00918152 0.00509489 0.08689694
v 0.00918152 0.00509489 0.08466954
v 0.00851822 0.00509489 0.08755664
v 0.00868787 0.00306982 0.08850711
v 0.00898508 0.00134091 0.08850711
v 0.00918152 0.00432915 0.08708516
v 0.00918152 -0.00263629 0.08466954
v -0.00262780 0.00509489 0.08466954
v 0.00770185 0.00509489 0.08800444
v 0.00748755 0.00509489 0.08808784
v 0.00748755 0.00394584 0.08850711
v 0.00898508 0.00092469 0.08850711
v 0.00918152 0.00134091 0.08761674
v 0.00918152 0.00199370 0.08757730
v 0.00868659 -0.00301694 0.08466954
v 0.00918152 -0.00248244 0.08532397
v 0.00837535 -0.00296180 0.08850711
v -0.00384981 0.00476049 0.08466954
v -0.00384853 0.00509489 0.08467067
v 0.00620814 0.00509489 0.08833279
v 0.00577700 0.00509489 0.08836698
v 0.00577700 0.00447234 0.08850711
v 0.00898253 -0.00036843 0.08850711
v 0.00918152 0.00022210 0.08761224
v 0.00785619 -0.00325440 0.08850711
v 0.00748755 -0.00347407 0.08809160
v 0.00748755 -0.00351498 0.08467067
v 0.00748755 -0.00351498 0.08466954
v 0.00918152 -0.00116974 0.08711784
v 0.00867001 -0.00210535 0.08850711
v 0.00855648 -0.00244686 0.08850711
v -0.00384853 0.00305026 0.08466954
v -0.00384853 0.00305114 0.08467067
v -0.00374011 -0.00036843 0.08850711
v -0.00374011 0.00134091 0.08850711
v -0.00372863 0.00170110 0.08850711
v -0.00368653 0.00259046 0.08850711
v -0.00382047 0.00509489 0.08497647
v 0.00452310 0.00509489 0.08836923
v 0.00406644 0.00509489 0.08836961
v 0.00524125 0.00447412 0.08850711
v 0.00918152 -0.00038800 0.08751418
v 0.00751689 -0.00342871 0.08850711
v 0.00577700 -0.00393120 0.08850711
v 0.00577700 -0.00396144 0.08809160
v 0.00577700 -0.00397567 0.08638113
v 0.00577700 -0.00396055 0.08466954
v -0.00381919 0.00133913 0.08466954
v -0.00376817 -0.00037021 0.08466954
v -0.00368526 -0.00145790 0.08850711
v -0.00304619 0.00333930 0.08850711
v -0.00261887 0.00509489 0.08782262
v -0.00329238 0.00509489 0.08701077
v -0.00341866 0.00509489 0.08675719
v -0.00368781 0.00509489 0.08595699
v 0.00406644 0.00447767 0.08850711
v 0.00064661 0.00509489 0.08836961
v 0.00406644 -0.00394810 0.08850711
v 0.00406644 -0.00397833 0.08809160
v 0.00406644 -0.00399078 0.08638113
v 0.00406644 -0.00399078 0.08466954
v -0.00368908 -0.00147124 0.08467067
v -0.00368526 -0.00146679 0.08809160
v -0.00368908 -0.00147124 0.08466954
v -0.00342504 -0.00232235 0.08809160
v -0.00340590 -0.00231257 0.08850711
v -0.00287781 0.00344335 0.08850711
v -0.00106394 0.00509489 0.08834481
v 0.00064661 0.00447767 0.08850711
v -0.00106394 0.00442787 0.08850711
v 0.00009811 0.00446344 0.08850711
v 0.00064661 -0.00394810 0.08850711
v 0.00064661 -0.00397833 0.08809160
v 0.00064661 -0.00399078 0.08638113
v 0.00235717 -0.00399078 0.08466954
v -0.00343142 -0.00232680 0.08638113
v -0.00343014 -0.00232680 0.08466954
v -0.00343142 -0.00232680 0.08467067
v -0.00257550 -0.00339580 0.08638113
v -0.00256912 -0.00338958 0.08809160
v -0.00275919 -0.00312099 0.08850711
v -0.00106394 -0.00388139 0.08850711
v -0.00106394 -0.00391163 0.08809160
v -0.00106394 -0.00392408 0.08638113
v 0.00064661 -0.00399078 0.08467067
v 0.00064661 -0.00398990 0.08466954
v -0.00257550 -0.00339580 0.08466954
v -0.00255127 -0.00337446 0.08850711
v -0.00106394 -0.00392408 0.08466954
f 19 8 18
f 28 46 47
f 45 26 44
f 68 52 51
f 51 52 37
f 20 11 10
f 20 21 11
f 11 21 22
f 68 70 57
f 37 54 55
f 53 54 37
f 37 52 53
f 87 78 77
f 77 78 64
f 86 85 89
f 15 7 17
f 43 44 26
f 49 63 50
f 35 19 18
f 88 80 83
f 17 7 16
f 67 70 68
f 68 51 67
f 3 9 4
f 1 3 4
f 4 5 1
f 4 9 10
f 10 11 4
f 23 29 42
f 38 19 37
f 37 55 38
f 61 46 60
f 47 46 61
f 28 15 27
f 27 15 26
f 27 26 45
f 45 46 27
f 46 28 27
f 25 43 26
f 25 15 17
f 26 15 25
f 65 66 50
f 65 63 76
f 50 63 65
f 65 76 79
f 79 80 65
f 81 80 88
f 81 65 80
f 66 65 81
f 48 49 34
f 34 49 50
f 34 35 18
f 62 49 64
f 63 49 62
f 76 63 62
f 37 19 36
f 19 35 36
f 84 80 79
f 84 83 80
f 88 83 82
f 71 57 70
f 71 69 57
f 39 22 21
f 39 40 22
f 29 23 30
f 30 16 29
f 1 5 6
f 5 14 6
f 24 23 42
f 85 86 75
f 33 34 18
f 40 56 41
f 22 40 41
f 17 16 31
f 16 30 31
f 23 24 12
f 13 14 5
f 5 12 13
f 13 12 24
f 32 33 18
f 48 34 32
f 34 33 32
f 60 46 59
f 59 46 45
f 78 87 79
f 79 76 78
f 62 78 76
f 64 78 62
f 87 89 84
f 79 87 84
f 85 74 84
f 89 85 84
f 2 8 39
f 1 2 39
f 39 20 10
f 39 3 1
f 8 19 39
f 39 52 68
f 68 57 39
f 10 9 39
f 39 55 54
f 21 20 39
f 54 53 39
f 39 9 3
f 19 38 39
f 39 53 52
f 57 40 39
f 39 38 55
f 56 40 57
f 57 69 56
f 75 74 85
f 60 74 75
f 75 61 60
f 13 2 1
f 13 7 2
f 13 16 7
f 42 29 13
f 29 16 13
f 1 6 13
f 13 6 14
f 13 24 42
f 32 8 2
f 18 8 32
f 2 7 32
f 87 77 32
f 32 75 86
f 32 28 47
f 32 89 87
f 7 15 32
f 64 49 32
f 32 77 64
f 32 86 89
f 32 15 28
f 32 49 48
f 47 61 32
f 61 75 32
f 11 22 58
f 58 4 11
f 58 25 17
f 58 51 37
f 37 36 58
f 58 12 5
f 58 34 50
f 70 67 58
f 88 82 58
f 44 43 58
f 50 66 58
f 58 81 88
f 58 67 51
f 58 71 70
f 5 4 58
f 17 31 58
f 43 25 58
f 66 81 58
f 35 34 58
f 58 36 35
f 22 41 58
f 69 71 58
f 58 56 69
f 58 30 23
f 82 72 58
f 58 41 56
f 58 31 30
f 23 12 58
f 73 84 74
f 83 84 73
f 73 72 82
f 73 82 83
f 59 74 60
f 59 73 74
f 44 58 59
f 45 44 59
f 59 58 72
f 72 73 59

