# https://github.com/mikedh/trimesh
v 0.01825128 -0.01498970 0.07299165
v 0.02067579 -0.01498970 0.07299165
v 0.01825128 -0.01498970 0.07448046
v 0.01825128 0.03997518 0.07299165
v 0.02087905 -0.00899373 0.07448046
v 0.02087880 -0.01241611 0.07448046
v 0.02087854 -0.01498970 0.07448046
v 0.02067579 -0.00036431 0.07299165
v 0.02087957 -0.00044049 0.07448046
v 0.01825128 0.04059546 0.07448046
v 0.01825128 0.04011121 0.07321321
v 0.01982182 0.03904477 0.07448046
v 0.01908183 0.03895228 0.07299165
v 0.02067553 0.00305263 0.07299165
v 0.02087931 0.00476654 0.07448046
v 0.02087957 -0.00036431 0.07448046
v 0.01889117 0.04006768 0.07448046
v 0.01893569 0.04002415 0.07448046
v 0.01999704 0.03880537 0.07448046
v 0.02023375 0.03794025 0.07370341
v 0.01921203 0.03878361 0.07299165
v 0.02067528 0.00476654 0.07299165
v 0.02087519 0.03383775 0.07448046
v 0.02059448 0.03764644 0.07448046
v 0.02045091 0.03679764 0.07302941
v 0.02041618 0.03684117 0.07299165
v 0.02009790 0.03755938 0.07299165
v 0.02066936 0.03354393 0.07299165
v 0.02066910 0.03383775 0.07299165
v 0.02087134 0.03554622 0.07448046
v 0.02067605 0.03731998 0.07448046
v 0.02063771 0.03732542 0.07432712
v 0.02045631 0.03671059 0.07299165
v 0.02060169 0.03563871 0.07299165
v 0.02085976 0.03554622 0.07440744
f 5 2 9
f 7 2 6
f 2 5 6
f 30 23 29
f 29 23 28
f 35 29 34
f 30 29 35
f 25 33 26
f 31 33 25
f 34 33 31
f 31 35 34
f 30 35 31
f 19 24 20
f 27 21 20
f 20 24 25
f 20 26 27
f 25 26 20
f 28 23 22
f 23 14 22
f 15 14 23
f 14 15 8
f 17 11 10
f 18 11 17
f 12 11 18
f 4 11 12
f 12 13 4
f 21 13 12
f 12 20 21
f 19 20 12
f 24 31 32
f 25 24 32
f 32 31 25
f 16 8 15
f 2 7 3
f 2 3 1
f 11 3 10
f 1 3 11
f 11 4 1
f 1 4 8
f 8 2 1
f 4 13 8
f 34 29 8
f 8 33 34
f 8 21 27
f 8 29 28
f 8 13 21
f 28 22 8
f 27 26 8
f 8 26 33
f 8 22 14
f 10 3 16
f 7 6 16
f 3 7 16
f 16 5 9
f 30 31 16
f 19 12 16
f 16 6 5
f 16 23 30
f 16 17 10
f 16 24 19
f 16 31 24
f 16 15 23
f 18 17 16
f 16 12 18
f 2 8 16
f 9 2 16

