# https://github.com/mikedh/trimesh
v -0.01516454 -0.00870731 0.08635617
v -0.01516317 -0.00870731 0.08638117
v -0.01516385 -0.00750020 0.08635617
v -0.00895953 -0.00870731 0.08635617
v -0.01516248 -0.00750020 0.08637648
v -0.01503218 -0.00870731 0.08809212
v -0.01405013 -0.00750020 0.08635617
v -0.00815922 -0.00750020 0.08635721
v -0.00815922 -0.00870731 0.08635929
v -0.01502190 -0.00750020 0.08809212
v -0.01449795 -0.00870731 0.08992077
v -0.00815922 -0.00750020 0.08809212
v -0.00815922 -0.00870731 0.08809212
v -0.01444789 -0.00750020 0.08992077
v -0.01386703 -0.00870731 0.09097807
v -0.00820585 -0.00750020 0.08845202
v -0.00840061 -0.00870731 0.08995671
v -0.01307220 -0.00750020 0.09140620
v -0.01307220 -0.00870731 0.09140620
v -0.00840267 -0.00750020 0.08995671
v -0.00870167 -0.00750020 0.09102391
v -0.00843833 -0.00870731 0.09001661
v -0.01140436 -0.00750020 0.09166506
v -0.01132824 -0.00870731 0.09167651
v -0.00947181 -0.00750020 0.09142391
v -0.00949307 -0.00870731 0.09149839
v -0.00937580 -0.00870731 0.09142026
v -0.01132824 -0.00750020 0.09167651
v -0.00948416 -0.00750020 0.09142808
f 8 4 7
f 20 17 16
f 2 3 1
f 15 18 14
f 19 18 15
f 24 26 28
f 28 26 29
f 17 20 21
f 17 13 12
f 16 17 12
f 9 4 8
f 5 2 6
f 3 2 5
f 15 14 11
f 23 19 24
f 18 19 23
f 24 28 23
f 27 21 26
f 29 26 25
f 26 21 25
f 10 5 6
f 6 11 10
f 10 11 14
f 17 21 22
f 21 27 22
f 7 4 1
f 1 3 7
f 8 12 9
f 9 12 13
f 18 23 10
f 8 7 10
f 10 7 3
f 10 28 29
f 10 12 8
f 10 20 16
f 10 14 18
f 3 5 10
f 10 21 20
f 16 12 10
f 29 25 10
f 10 23 28
f 10 25 21
f 24 19 22
f 1 4 22
f 22 2 1
f 22 26 24
f 4 9 22
f 15 11 22
f 22 13 17
f 6 2 22
f 22 19 15
f 22 9 13
f 22 11 6
f 22 27 26

