# https://github.com/mikedh/trimesh
v 0.01043828 -0.01498970 0.07299165
v 0.01532216 -0.01498970 0.07299165
v 0.01043828 -0.01498970 0.07448046
v 0.01043828 0.04206037 0.07299165
v 0.01532216 -0.01498970 0.07448046
v 0.01532216 0.04183699 0.07299165
v 0.01043828 0.04198218 0.07448046
v 0.01261920 0.04206037 0.07299165
v 0.01532216 0.04184258 0.07448046
v 0.01432922 0.04201569 0.07299165
v 0.01532216 0.04184816 0.07435831
v 0.01261920 0.04198218 0.07448046
v 0.01432922 0.04197102 0.07440744
v 0.01532216 0.04184816 0.07439199
v 0.01432922 0.04196543 0.07448046
f 6 10 11
f 13 15 9
f 10 8 13
f 14 13 9
f 14 11 10
f 10 13 14
f 15 13 12
f 12 13 8
f 1 2 5
f 5 3 1
f 7 4 1
f 1 3 7
f 1 4 8
f 8 2 1
f 8 6 2
f 8 10 6
f 2 6 14
f 14 5 2
f 9 5 14
f 6 11 14
f 3 5 12
f 12 5 9
f 12 7 3
f 9 15 12
f 4 7 12
f 12 8 4

