# https://github.com/mikedh/trimesh
v 0.00918152 0.02775304 0.08172638
v 0.00858537 0.02670138 0.08350200
v 0.00891054 0.02528767 0.08350200
v 0.00918152 0.02528767 0.08240132
v 0.00918152 0.02775304 0.08041963
v 0.00766920 0.02775304 0.08289433
v 0.00757242 0.02725754 0.08350200
v 0.00900087 0.02357722 0.08350200
v 0.00918152 0.02412591 0.08253287
v 0.00918152 0.02057250 0.08041963
v -0.00378672 0.02775304 0.08041963
v 0.00648722 0.02775304 0.08306028
v 0.00577623 0.02775304 0.08309256
v 0.00686143 0.02727713 0.08350200
v 0.00891699 0.02186770 0.08350200
v 0.00918152 0.02257036 0.08237688
v 0.00918152 0.02357722 0.08250843
v 0.00918152 0.02153084 0.08170797
v 0.00858795 0.02064062 0.08350200
v 0.00902796 0.02028416 0.08041963
v -0.00400092 0.02109226 0.08041963
v -0.00369639 0.02532407 0.08350200
v -0.00369510 0.02775304 0.08117694
v 0.00406648 0.02775304 0.08309317
v 0.00064571 0.02775304 0.08309317
v -0.00039433 0.02775304 0.08309015
v -0.00106404 0.02775304 0.08308804
v -0.00106404 0.02722954 0.08350200
v 0.00918152 0.02189663 0.08206189
v 0.00802405 0.02005647 0.08350200
v 0.00732725 0.01866235 0.08041963
v -0.00397253 0.02064342 0.08041963
v -0.00363962 0.02099335 0.08350200
v -0.00369123 0.02184531 0.08350200
v -0.00371059 0.02240986 0.08350200
v -0.00374027 0.02357722 0.08350200
v -0.00372607 0.02414270 0.08350200
v -0.00356219 0.02582983 0.08350200
v -0.00345122 0.02603699 0.08350200
v -0.00279055 0.02775304 0.08284304
v -0.00191955 0.02775304 0.08299179
v -0.00155180 0.02716236 0.08350200
v 0.00773372 0.01978586 0.08350200
v 0.00687820 0.01919051 0.08350200
v 0.00614914 0.01835162 0.08041963
v -0.00282023 0.01907480 0.08041963
v -0.00287959 0.02014139 0.08350200
v -0.00251699 0.01871461 0.08041963
v -0.00288604 0.02690388 0.08350200
v 0.00610140 0.01909067 0.08350200
v 0.00577623 0.01826110 0.08041963
v -0.00203569 0.01923624 0.08350200
v -0.00106404 0.01830309 0.08041963
v 0.00577623 0.01906174 0.08350200
v 0.00406648 0.01822098 0.08041963
v -0.00107823 0.01911400 0.08350200
v -0.00054014 0.01827043 0.08041963
v 0.00460844 0.01904961 0.08350200
v 0.00406648 0.01904401 0.08350200
v 0.00116960 0.01822098 0.08041963
v -0.00052208 0.01909067 0.08350200
v 0.00064571 0.01822191 0.08041963
v 0.00064571 0.01904401 0.08350200
f 52 48 53
f 6 2 1
f 15 10 18
f 32 46 33
f 21 32 33
f 33 46 48
f 40 49 41
f 27 28 14
f 20 10 19
f 10 15 19
f 9 4 8
f 15 16 8
f 44 31 43
f 47 48 52
f 47 33 48
f 22 23 11
f 22 11 21
f 42 41 49
f 27 41 42
f 42 28 27
f 7 6 12
f 12 13 7
f 7 13 14
f 2 6 7
f 29 15 18
f 29 16 15
f 20 19 30
f 30 31 20
f 43 31 30
f 9 8 17
f 17 8 16
f 3 4 1
f 3 8 4
f 1 2 3
f 52 53 56
f 51 54 55
f 23 22 38
f 63 62 60
f 58 59 55
f 55 54 58
f 57 56 53
f 61 62 63
f 61 57 62
f 56 57 61
f 31 44 45
f 44 51 45
f 54 51 50
f 50 51 44
f 40 23 39
f 23 38 39
f 39 49 40
f 21 33 34
f 37 22 21
f 21 36 37
f 27 14 26
f 14 25 26
f 14 13 24
f 24 25 14
f 35 36 21
f 21 34 35
f 17 5 1
f 1 4 17
f 17 10 5
f 17 4 9
f 18 10 17
f 17 29 18
f 16 29 17
f 60 59 63
f 55 59 60
f 21 11 45
f 5 10 45
f 45 32 21
f 45 11 5
f 48 46 45
f 45 51 55
f 45 53 48
f 45 10 20
f 20 31 45
f 45 46 32
f 55 60 45
f 45 57 53
f 45 60 62
f 62 57 45
f 5 11 24
f 1 5 24
f 24 6 1
f 24 23 40
f 12 6 24
f 40 41 24
f 11 23 24
f 24 41 27
f 24 13 12
f 27 26 24
f 24 26 25
f 43 30 35
f 35 44 43
f 2 7 35
f 52 56 35
f 35 42 49
f 49 39 35
f 35 47 52
f 35 14 28
f 35 19 15
f 15 8 35
f 35 3 2
f 35 61 63
f 33 47 35
f 54 50 35
f 28 42 35
f 35 7 14
f 35 30 19
f 8 3 35
f 63 59 35
f 35 58 54
f 35 38 22
f 35 34 33
f 59 58 35
f 56 61 35
f 35 50 44
f 35 39 38
f 22 37 35
f 35 37 36

