# https://github.com/mikedh/trimesh
v -0.02003863 0.01673592 0.03668591
v -0.02003539 0.01673592 0.03677799
v -0.02003539 0.01975532 0.03677799
v -0.02003539 0.01975532 0.03668591
v -0.01999980 0.01502616 0.03668591
v -0.01999980 0.01502616 0.03677799
v -0.01992861 0.01502616 0.03848676
v -0.01993832 0.01975532 0.03848676
v 0.01243911 0.01975532 0.03668591
v -0.01971829 0.01096559 0.04019766
v -0.01976359 0.01160492 0.04019766
v -0.01948854 0.01096559 0.03668591
v -0.01958885 0.01096559 0.03784865
v -0.01968916 0.01096559 0.04190857
v -0.01981860 0.01331554 0.04019766
v -0.01969240 0.01160492 0.04190857
v -0.01968916 0.01331554 0.04190857
v -0.01954032 0.01844568 0.04361948
v -0.01956620 0.01975532 0.04321905
v 0.01301831 0.01975532 0.04013128
v 0.01301831 0.01096559 0.03837541
v 0.01244234 0.01340589 0.03668591
v 0.01207993 0.01096559 0.03668591
v -0.01955002 0.01096559 0.04361948
v -0.01955002 0.01160492 0.04361948
v -0.01954679 0.01502616 0.04361948
v -0.01939794 0.01975532 0.04533039
v -0.01943030 0.01975532 0.04492996
v 0.01301831 0.01975532 0.05856155
v 0.01301831 0.01096559 0.05856155
v 0.01226437 0.01160406 0.03668591
v 0.01228379 0.01169527 0.03668591
v 0.01243911 0.01331554 0.03668591
v -0.01940118 0.01096559 0.04533039
v -0.01940118 0.01673592 0.04533039
v -0.01928469 0.01975532 0.04663873
v -0.01812951 0.01975532 0.05856155
v -0.01812951 0.01096559 0.05856155
v -0.01930734 0.01096559 0.04640104
v -0.01913584 0.01975532 0.04833036
v -0.01814569 0.01975532 0.05842022
v -0.01826217 0.01096559 0.05730032
v -0.01910025 0.01096559 0.04872651
v -0.01910025 0.01975532 0.04872651
v -0.01826217 0.01975532 0.05730032
v -0.01843691 0.01096559 0.05559155
v -0.01902259 0.01096559 0.04958303
v -0.01902259 0.01975532 0.04958303
v -0.01843691 0.01975532 0.05559155
v -0.01866989 0.01096559 0.05324039
v -0.01893846 0.01096559 0.05045883
v -0.01893846 0.01975532 0.05045883
v -0.01877343 0.01975532 0.05216973
v -0.01881226 0.01975532 0.05176931
v -0.01877343 0.01096559 0.05216973
f 20 21 9
f 1 3 4
f 2 3 1
f 3 2 8
f 8 2 7
f 13 5 12
f 10 5 13
f 32 33 21
f 22 9 21
f 21 33 22
f 1 5 6
f 6 2 1
f 7 2 6
f 31 21 23
f 31 32 21
f 10 14 11
f 11 14 6
f 11 5 10
f 11 6 5
f 7 6 15
f 6 14 15
f 15 8 7
f 16 14 24
f 16 15 14
f 8 15 16
f 16 17 8
f 49 50 46
f 53 50 49
f 8 17 18
f 27 18 26
f 17 16 26
f 26 18 17
f 27 26 35
f 8 18 19
f 27 35 36
f 39 35 34
f 25 35 26
f 25 16 24
f 25 26 16
f 41 38 37
f 41 42 38
f 41 45 42
f 28 18 27
f 28 19 18
f 40 36 35
f 40 35 39
f 39 43 40
f 40 43 44
f 54 55 50
f 54 50 53
f 51 55 54
f 54 52 51
f 20 29 21
f 29 30 21
f 38 30 29
f 29 37 38
f 23 12 31
f 31 4 9
f 31 5 1
f 12 5 31
f 9 22 31
f 1 4 31
f 33 32 31
f 31 22 33
f 43 48 44
f 47 48 43
f 46 42 45
f 45 49 46
f 24 34 25
f 25 34 35
f 10 13 55
f 55 21 30
f 55 12 23
f 23 21 55
f 30 38 55
f 55 13 12
f 55 14 10
f 24 14 55
f 38 42 55
f 55 51 47
f 55 42 46
f 47 43 55
f 46 50 55
f 55 43 39
f 55 34 24
f 39 34 55
f 52 48 47
f 47 51 52
f 54 29 20
f 20 9 54
f 54 37 29
f 54 4 3
f 9 4 54
f 3 8 54
f 44 48 54
f 54 40 44
f 8 19 54
f 54 28 27
f 53 49 54
f 49 45 54
f 54 41 37
f 27 36 54
f 48 52 54
f 45 41 54
f 19 28 54
f 36 40 54

