# https://github.com/mikedh/trimesh
v -0.00417735 -0.02398643 0.01112706
v -0.00106447 -0.02458116 0.00959726
v -0.00106447 -0.02443074 0.01112706
v -0.00417735 -0.01581936 0.01112706
v -0.00417735 -0.02393948 0.00959726
v -0.00087470 -0.02460029 0.00959726
v 0.00064478 -0.02459594 0.01112706
v 0.00262438 -0.01581936 0.01112706
v -0.00417735 -0.01581936 0.00959726
v 0.00064478 -0.02470115 0.00959726
v 0.00065477 -0.02459420 0.01112706
v 0.00262438 -0.01581936 0.00959726
v 0.00262438 -0.02347691 0.01112706
v 0.00233007 -0.02418206 0.00959726
v 0.00204575 -0.02407338 0.01112706
v 0.00262438 -0.02387601 0.00959726
f 1 5 2
f 1 2 3
f 10 7 6
f 7 3 6
f 6 3 2
f 14 16 13
f 13 15 14
f 11 14 15
f 10 14 11
f 11 7 10
f 8 13 16
f 16 12 8
f 9 4 8
f 8 12 9
f 1 4 9
f 9 5 1
f 14 9 12
f 10 6 14
f 12 16 14
f 14 2 5
f 5 9 14
f 14 6 2
f 8 4 11
f 11 4 1
f 11 13 8
f 11 15 13
f 1 3 11
f 11 3 7

