# https://github.com/mikedh/trimesh
v -0.01629591 0.00511313 0.00593222
v -0.01759472 0.00511313 0.00817179
v -0.01759472 0.00818309 0.00816985
v -0.01629591 0.00812639 0.00593222
v -0.01629591 0.00511313 0.02580820
v -0.01774012 0.00511313 0.00842474
v -0.01830830 0.00989353 0.00940930
v -0.01759472 0.01006462 0.00816985
v -0.01629591 0.01005929 0.00594000
v -0.01629591 0.01006462 0.02580820
v -0.01947767 0.00511313 0.02580820
v -0.01830177 0.00511313 0.00940930
v -0.01830613 0.00818309 0.00940930
v -0.01836595 0.01006462 0.00953383
v -0.01830830 0.01006462 0.00940930
v -0.01630860 0.01006462 0.00598865
v -0.01629591 0.01006462 0.00599837
v -0.01944068 0.01006462 0.02580820
v -0.01999690 0.01006462 0.01813022
v -0.01993816 0.00511313 0.01624866
v -0.01841962 0.00511313 0.00966809
v -0.01887939 0.00647314 0.01066821
v -0.01888410 0.00989353 0.01065848
v -0.01888410 0.01006462 0.01065848
v -0.02000016 0.01006462 0.01795899
v -0.01999944 0.00989353 0.01795899
v -0.01976810 0.01006462 0.01454028
v -0.01976557 0.00818309 0.01454028
v -0.01976049 0.00511313 0.01454028
v -0.01993816 0.00818309 0.01624866
v -0.01887757 0.00511313 0.01067405
v -0.01917599 0.00511313 0.01152824
v -0.01917599 0.00818309 0.01151851
v -0.01917599 0.00989353 0.01151462
v -0.01917599 0.01006462 0.01151462
v -0.01994433 0.01006462 0.01641989
v -0.01948637 0.01006462 0.01282995
v -0.01993744 0.01006462 0.01624866
v -0.01948383 0.00818309 0.01282995
v -0.01953677 0.00511313 0.01318019
v -0.01923872 0.00511313 0.01179675
v -0.01947875 0.00511313 0.01282995
f 8 9 4
f 20 26 25
f 19 11 18
f 25 26 19
f 19 20 11
f 26 20 19
f 16 17 9
f 16 9 8
f 1 2 3
f 32 37 33
f 33 23 32
f 13 6 12
f 12 23 13
f 28 29 20
f 28 20 27
f 41 37 32
f 34 37 35
f 34 33 37
f 23 33 34
f 6 13 7
f 2 6 7
f 7 3 2
f 22 31 32
f 32 23 22
f 22 23 12
f 29 28 40
f 25 36 30
f 30 20 25
f 30 36 38
f 30 38 27
f 27 20 30
f 14 13 23
f 14 7 13
f 23 24 14
f 15 7 14
f 21 22 12
f 31 22 21
f 41 42 39
f 37 41 39
f 39 42 40
f 39 40 28
f 10 18 11
f 5 10 11
f 4 10 5
f 4 5 1
f 4 17 10
f 9 17 4
f 3 4 1
f 8 4 3
f 35 24 34
f 34 24 23
f 7 15 8
f 8 3 7
f 25 19 14
f 8 15 14
f 14 18 10
f 35 37 14
f 10 17 14
f 14 16 8
f 14 24 35
f 14 19 18
f 17 16 14
f 14 37 27
f 27 38 14
f 14 36 25
f 38 36 14
f 1 5 42
f 5 11 42
f 32 31 42
f 42 2 1
f 12 6 42
f 11 20 42
f 42 6 2
f 20 29 42
f 29 40 42
f 42 41 32
f 42 21 12
f 31 21 42
f 27 37 39
f 39 28 27

