# https://github.com/mikedh/trimesh
v 0.02192024 -0.01747384 0.03335675
v 0.02190861 -0.01773625 0.03335675
v 0.02184150 -0.01773625 0.03241954
v 0.02181287 -0.01773625 0.03201989
v 0.02182361 -0.01747384 0.03201989
v 0.02159902 -0.01613838 0.03201989
v 0.02153548 -0.01576374 0.03201989
v 0.02162854 -0.01576374 0.03335675
v 0.02191935 -0.01747384 0.03506710
v 0.02191040 -0.01773625 0.03361950
v 0.01392891 -0.01773625 0.03201989
v 0.02078208 -0.01394060 0.03201989
v 0.02094045 -0.01405283 0.03335675
v 0.02095030 -0.01405283 0.03506710
v 0.02096819 -0.01405283 0.03848577
v 0.02162765 -0.01576374 0.03506710
v 0.02191666 -0.01747384 0.03677744
v 0.02190682 -0.01773625 0.03704018
v 0.01278001 -0.01770799 0.03201989
v 0.01392533 -0.01773625 0.03334367
v 0.01278001 -0.01772656 0.03335675
v 0.01278001 -0.01771042 0.03214471
v 0.02039911 -0.01318163 0.03201989
v 0.02037047 -0.01311784 0.03206317
v 0.02040358 -0.01307101 0.03335675
v 0.02041342 -0.01305890 0.03506710
v 0.02042237 -0.01304760 0.03677744
v 0.02043042 -0.01303710 0.03848577
v 0.02039463 -0.01308716 0.03955285
v 0.02162228 -0.01576374 0.03848577
v 0.02191219 -0.01747384 0.03848577
v 0.02190414 -0.01773625 0.03848577
v 0.01278001 -0.01096043 0.03201989
v 0.01392533 -0.01773625 0.03848577
v 0.01278001 -0.01772656 0.03848577
v 0.02032126 -0.01306455 0.03201989
v 0.01812635 -0.00948851 0.03335575
v 0.01812725 -0.00948851 0.03336279
v 0.01782212 -0.00948851 0.03202089
v 0.01813798 -0.00948851 0.03442685
v 0.01814604 -0.00949174 0.03506609
v 0.01814604 -0.00949174 0.03677643
v 0.01814156 -0.00949174 0.03688515
v 0.01808251 -0.00963304 0.03848678
v 0.01803956 -0.00963304 0.03869113
v 0.01769417 -0.00963304 0.04013773
v 0.02009309 -0.01355223 0.04069341
v 0.02063891 -0.01409401 0.04015182
v 0.02124110 -0.01576374 0.04019611
v 0.02152743 -0.01747384 0.04019611
v 0.02151938 -0.01773625 0.04019611
v 0.01278001 -0.00948851 0.03202089
v 0.01856569 -0.01096043 0.03201989
v 0.01393875 -0.01773625 0.04019611
v 0.01435035 -0.01773625 0.04139406
v 0.01278001 -0.01768135 0.04015182
v 0.01881176 -0.01121719 0.03201989
v 0.01864443 -0.01102906 0.03201989
v 0.01278001 -0.00948851 0.03442685
v 0.01278001 -0.00949174 0.03688515
v 0.01510466 -0.00963304 0.04219638
v 0.01596365 -0.00963304 0.04175948
v 0.01895313 -0.01281344 0.04124407
v 0.02041521 -0.01469149 0.04113635
v 0.02058701 -0.01576374 0.04125917
v 0.02073107 -0.01747384 0.04134675
v 0.02072660 -0.01773625 0.04134473
v 0.02140037 -0.01773625 0.04037027
v 0.01578649 -0.01773625 0.04176754
v 0.01278001 -0.01701281 0.04122796
v 0.01278001 -0.01763533 0.04033906
v 0.01278001 -0.00963304 0.04219638
v 0.01278001 -0.01096043 0.04230309
v 0.01919651 -0.01773625 0.04175646
v 0.01946048 -0.01773625 0.04173834
v 0.01946048 -0.01747384 0.04174136
v 0.01946048 -0.01576374 0.04165378
v 0.01949806 -0.01409401 0.04137594
v 0.02053511 -0.01773625 0.04140513
v 0.01604150 -0.01773625 0.04181988
v 0.01278001 -0.01576374 0.04161352
v 0.01774965 -0.01773625 0.04183901
f 81 80 73
f 12 13 7
f 1 2 3
f 3 4 1
f 10 2 1
f 21 11 20
f 24 39 37
f 24 13 12
f 25 13 24
f 1 4 5
f 8 16 1
f 1 7 8
f 8 7 13
f 13 14 8
f 16 30 17
f 35 34 54
f 19 11 22
f 11 21 22
f 55 70 71
f 71 56 55
f 55 56 35
f 35 54 55
f 39 24 36
f 38 24 37
f 25 24 38
f 28 43 29
f 28 14 13
f 29 43 44
f 61 72 73
f 73 80 82
f 6 7 1
f 1 5 6
f 30 49 31
f 32 17 31
f 31 17 30
f 48 30 29
f 48 49 30
f 18 17 32
f 70 55 69
f 81 70 69
f 80 81 69
f 23 24 12
f 23 36 24
f 39 36 57
f 26 38 40
f 25 38 26
f 26 13 25
f 14 28 15
f 15 30 16
f 29 30 15
f 15 28 29
f 16 8 15
f 15 8 14
f 43 46 45
f 45 44 43
f 45 46 29
f 29 44 45
f 43 61 62
f 62 46 43
f 77 61 76
f 76 61 75
f 73 82 74
f 74 61 73
f 75 61 74
f 32 31 51
f 9 18 10
f 9 10 1
f 17 18 9
f 1 16 9
f 16 17 9
f 58 53 39
f 39 57 58
f 42 40 43
f 42 41 40
f 43 28 42
f 28 41 42
f 40 41 27
f 27 26 40
f 27 41 28
f 27 28 13
f 13 26 27
f 64 62 61
f 49 48 64
f 79 76 75
f 50 31 49
f 50 51 31
f 46 62 63
f 62 64 63
f 78 61 77
f 78 64 61
f 66 79 67
f 76 79 66
f 77 76 66
f 67 50 66
f 68 50 67
f 51 50 68
f 46 63 47
f 47 63 64
f 29 46 47
f 47 48 29
f 47 64 48
f 65 78 77
f 64 78 65
f 77 66 65
f 65 66 50
f 49 64 65
f 65 50 49
f 20 34 21
f 21 34 35
f 53 33 52
f 52 39 53
f 59 60 40
f 40 60 43
f 22 81 73
f 73 72 22
f 22 56 71
f 59 52 22
f 71 70 22
f 22 33 19
f 22 21 35
f 52 33 22
f 35 56 22
f 22 60 59
f 22 70 81
f 72 60 22
f 38 52 59
f 37 39 38
f 38 39 52
f 59 40 38
f 61 60 72
f 43 60 61
f 58 4 11
f 19 33 58
f 58 11 19
f 12 7 58
f 58 5 4
f 33 53 58
f 7 6 58
f 58 23 12
f 58 6 5
f 36 23 58
f 58 57 36
f 2 10 68
f 68 18 32
f 20 11 68
f 11 4 68
f 68 3 2
f 4 3 68
f 75 74 68
f 68 34 20
f 68 82 80
f 68 54 34
f 68 55 54
f 80 69 68
f 32 51 68
f 10 18 68
f 68 69 55
f 68 74 82
f 68 79 75
f 67 79 68

