# https://github.com/mikedh/trimesh
v 0.01496401 0.01949608 0.00504619
v 0.01496401 0.02130258 0.00504619
v 0.01593590 0.01949608 0.00504619
v 0.01496401 0.01949608 0.01436006
v 0.01579730 0.02017061 0.00504619
v 0.01496401 0.02515371 0.00604889
v 0.01604016 0.02515371 0.00605908
v 0.01775051 0.02515371 0.00621334
v 0.01898071 0.02186801 0.00660481
v 0.01898071 0.01949608 0.00660626
v 0.01898071 0.02515371 0.00660481
v 0.01505927 0.01949608 0.01624902
v 0.01511119 0.02515371 0.01941137
v 0.01496401 0.02357759 0.01563635
v 0.01784748 0.02515371 0.00624390
v 0.01496401 0.02515371 0.01601326
v 0.01900988 0.02515371 0.00662810
v 0.01934715 0.02515371 0.00690460
v 0.01934715 0.01949608 0.00690605
v 0.01509789 0.01949608 0.01689080
v 0.01512234 0.01949608 0.01727500
v 0.01511634 0.02515371 0.01948413
v 0.01934715 0.02515371 0.01939245
v 0.01934715 0.01949608 0.01846106
v 0.01568574 0.01949608 0.01772178
v 0.01518757 0.02273083 0.01880597
v 0.01562052 0.02515371 0.01991344
v 0.01925275 0.02515371 0.01944339
v 0.01934715 0.02357759 0.01938372
v 0.01934715 0.02199870 0.01902863
v 0.01777325 0.02426929 0.01991344
v 0.01880006 0.01949608 0.01846689
v 0.01604016 0.01949608 0.01796481
v 0.01599811 0.02451684 0.01991344
v 0.01587883 0.02470236 0.01991344
v 0.01837655 0.02515371 0.01991344
v 0.01775051 0.01949608 0.01847707
v 0.01709014 0.01949608 0.01828934
f 7 2 6
f 8 2 7
f 20 21 13
f 18 19 9
f 5 2 8
f 8 15 5
f 22 26 27
f 13 21 22
f 21 26 22
f 10 9 19
f 3 9 10
f 11 9 3
f 3 5 11
f 11 5 15
f 30 31 24
f 30 29 31
f 31 29 36
f 27 26 35
f 26 34 35
f 31 34 37
f 13 16 14
f 14 4 13
f 12 20 13
f 13 4 12
f 18 9 17
f 9 11 17
f 28 29 23
f 28 36 29
f 24 31 32
f 31 37 32
f 33 34 26
f 25 26 21
f 25 33 26
f 38 37 34
f 34 33 38
f 1 2 5
f 5 3 1
f 18 23 30
f 30 19 18
f 24 19 30
f 23 29 30
f 35 36 27
f 31 36 35
f 35 34 31
f 14 16 6
f 14 2 1
f 6 2 14
f 1 4 14
f 28 7 6
f 28 23 18
f 6 16 28
f 28 22 27
f 27 36 28
f 28 16 13
f 8 7 28
f 28 15 8
f 13 22 28
f 28 11 15
f 18 17 28
f 28 17 11
f 38 19 24
f 1 3 38
f 38 10 19
f 38 4 1
f 21 20 38
f 20 12 38
f 3 10 38
f 24 32 38
f 38 12 4
f 38 32 37
f 38 25 21
f 33 25 38

