# https://github.com/mikedh/trimesh
v 0.00918152 0.02293974 0.08041963
v -0.00379546 0.02293974 0.08041963
v 0.00918152 0.02057080 0.08041963
v 0.00918152 0.02293974 0.05856579
v -0.00399850 0.02109098 0.08041963
v -0.00464687 0.02293974 0.07800426
v -0.00464687 0.02019802 0.07948899
v -0.00464687 0.01996360 0.07958099
v 0.00902856 0.02028381 0.08041963
v 0.00918152 0.01676755 0.07971149
v 0.00918152 0.01800247 0.05856365
v -0.00464687 0.02293974 0.05856579
v -0.00397142 0.02064209 0.08041963
v -0.00464687 0.01844714 0.07965373
v -0.00464687 0.01828643 0.07965800
v -0.00464687 0.01800247 0.07966442
v -0.00464687 0.01676755 0.07969010
v 0.00732709 0.01866222 0.08041963
v -0.00102193 0.01676755 0.07971149
v 0.00918152 0.01676755 0.05856365
v 0.00614945 0.01835168 0.08041963
v 0.00577450 0.01826105 0.08041963
v 0.00406626 0.01822058 0.08041963
v -0.00464687 0.01800247 0.05856365
v -0.00281951 0.01907487 0.08041963
v -0.00464687 0.01676755 0.05856365
v -0.00445331 0.01676755 0.07969437
v -0.00053869 0.01827072 0.08041963
v -0.00106253 0.01830274 0.08041963
v -0.00251630 0.01871418 0.08041963
v 0.00235531 0.01822058 0.08041963
v 0.00117091 0.01822118 0.08041963
v 0.00064706 0.01822178 0.08041963
f 3 9 10
f 10 9 18
f 17 29 30
f 7 2 6
f 7 8 2
f 2 8 5
f 5 17 13
f 21 22 10
f 10 18 21
f 13 17 25
f 17 30 25
f 10 22 23
f 19 33 27
f 14 5 8
f 28 27 33
f 17 27 28
f 28 29 17
f 17 5 16
f 19 31 32
f 32 33 19
f 5 14 15
f 15 16 5
f 1 4 12
f 6 2 12
f 12 2 1
f 11 20 24
f 24 20 26
f 24 4 11
f 24 12 4
f 3 4 1
f 10 20 3
f 11 4 3
f 3 20 11
f 27 20 10
f 26 20 27
f 27 17 26
f 10 19 27
f 31 19 10
f 10 23 31
f 1 2 32
f 13 25 32
f 32 5 13
f 32 3 1
f 22 21 32
f 9 3 32
f 32 18 9
f 32 30 29
f 29 28 32
f 2 5 32
f 32 21 18
f 32 25 30
f 32 23 22
f 32 31 23
f 32 28 33
f 26 17 15
f 6 12 15
f 15 24 26
f 15 7 6
f 12 24 15
f 8 7 15
f 15 14 8
f 17 16 15

