# https://github.com/mikedh/trimesh
v 0.01466779 0.03213141 0.02138073
v 0.01511219 0.02881702 0.02304626
v 0.01511057 0.02884422 0.02304626
v 0.01497813 0.03213030 0.02304626
v 0.01506512 0.03213141 0.02304626
v 0.01794287 0.03213141 0.02138073
v 0.01511706 0.02719230 0.02138073
v 0.01514660 0.02777292 0.02236302
v 0.01575072 0.02815592 0.02304626
v 0.01792599 0.03213030 0.02304626
v 0.01798377 0.03041954 0.02138073
v 0.01580590 0.02659504 0.02138073
v 0.01604028 0.02646126 0.02138073
v 0.01604028 0.02807766 0.02304626
v 0.01784938 0.03041954 0.02304626
v 0.01787632 0.02870989 0.02138073
v 0.01746406 0.02706130 0.02138073
v 0.01703199 0.02767078 0.02248646
v 0.01731311 0.02862441 0.02304626
v 0.01733356 0.02866660 0.02304626
v 0.01773154 0.02813039 0.02138073
f 6 10 11
f 1 7 8
f 8 2 1
f 3 4 1
f 1 2 3
f 5 6 1
f 10 6 5
f 1 4 5
f 15 16 11
f 11 10 15
f 13 8 12
f 12 8 7
f 16 15 21
f 21 15 17
f 19 17 20
f 17 15 20
f 2 8 9
f 9 8 13
f 13 14 9
f 13 17 18
f 18 14 13
f 19 14 18
f 18 17 19
f 1 6 21
f 21 7 1
f 21 17 13
f 21 6 11
f 11 16 21
f 13 12 21
f 21 12 7
f 9 3 2
f 9 15 10
f 10 5 9
f 4 3 9
f 9 5 4
f 19 20 9
f 9 14 19
f 9 20 15

