# https://github.com/mikedh/trimesh
v 0.02305682 -0.03485643 0.01651621
v 0.02288637 -0.03509654 0.01651621
v 0.02295813 -0.03485643 0.01639482
v 0.00996513 -0.03485643 0.01651621
v 0.02286073 -0.03485643 0.01627520
v 0.02257237 -0.03553834 0.01651621
v 0.01059056 -0.03485643 0.01522443
v 0.01007278 -0.03629031 0.01651621
v 0.02189183 -0.03530926 0.01550299
v 0.02261594 -0.03485643 0.01598172
v 0.02236090 -0.03583216 0.01651621
v 0.01091481 -0.03626648 0.01522443
v 0.02191234 -0.03485643 0.01522443
v 0.01088789 -0.03782451 0.01651621
v 0.02243908 -0.03485643 0.01579040
v 0.02153426 -0.03664496 0.01651621
v 0.02132536 -0.03642015 0.01611651
v 0.02084219 -0.03589974 0.01522443
v 0.02173676 -0.03514243 0.01522443
v 0.01157484 -0.03724576 0.01522443
v 0.01097632 -0.03794367 0.01651621
v 0.02095625 -0.03711770 0.01651621
v 0.02056921 -0.03738876 0.01651621
v 0.01975025 -0.03694234 0.01559011
v 0.01954904 -0.03665812 0.01522443
v 0.01158509 -0.03727493 0.01524225
v 0.01182603 -0.03729022 0.01522443
v 0.01108910 -0.03800201 0.01651621
v 0.01934014 -0.03793798 0.01651621
v 0.01929272 -0.03765946 0.01619605
v 0.01860962 -0.03714652 0.01539323
v 0.01875316 -0.03693345 0.01522443
v 0.01261935 -0.03849005 0.01651621
v 0.01261935 -0.03738983 0.01522443
v 0.01261935 -0.03819516 0.01616987
v 0.01781886 -0.03830792 0.01651621
v 0.01774965 -0.03724327 0.01528209
v 0.01774965 -0.03719134 0.01522443
v 0.01845967 -0.03702806 0.01522443
v 0.01604126 -0.03849005 0.01651621
v 0.01443027 -0.03738983 0.01522443
v 0.01604126 -0.03819516 0.01616987
v 0.01772787 -0.03832535 0.01651621
v 0.01761637 -0.03834527 0.01651621
v 0.01764841 -0.03720450 0.01522443
v 0.01647445 -0.03847226 0.01651621
v 0.01604126 -0.03738734 0.01522443
v 0.01611816 -0.03737951 0.01522443
f 4 7 8
f 28 26 33
f 33 26 27
f 20 27 26
f 9 11 16
f 26 28 21
f 14 20 21
f 21 20 26
f 35 27 34
f 33 27 35
f 14 8 12
f 12 20 14
f 12 8 7
f 40 42 46
f 19 9 18
f 13 15 19
f 19 15 9
f 17 9 16
f 18 9 17
f 25 18 24
f 18 23 24
f 24 23 29
f 29 30 24
f 46 42 47
f 47 48 46
f 11 9 6
f 9 5 6
f 9 15 10
f 10 5 9
f 22 17 16
f 22 23 18
f 18 17 22
f 41 47 42
f 25 24 31
f 31 24 30
f 31 30 29
f 46 48 44
f 2 6 5
f 39 31 38
f 36 31 29
f 43 44 37
f 37 36 43
f 38 31 37
f 31 36 37
f 1 2 3
f 3 2 5
f 25 31 32
f 31 39 32
f 38 37 45
f 45 44 48
f 45 37 44
f 33 35 40
f 40 35 42
f 42 35 41
f 41 35 34
f 4 8 36
f 36 1 4
f 33 40 36
f 14 21 36
f 36 8 14
f 36 2 1
f 36 28 33
f 16 11 36
f 29 23 36
f 36 22 16
f 46 44 36
f 36 21 28
f 36 40 46
f 11 6 36
f 23 22 36
f 36 44 43
f 6 2 36
f 4 1 3
f 3 7 4
f 3 13 7
f 3 15 13
f 3 10 15
f 5 10 3
f 7 13 45
f 45 18 25
f 45 12 7
f 45 41 34
f 34 27 45
f 27 20 45
f 20 12 45
f 13 19 45
f 45 19 18
f 48 47 45
f 25 32 45
f 47 41 45
f 45 39 38
f 45 32 39

