# https://github.com/mikedh/trimesh
v 0.00918152 -0.03094078 0.06595768
v 0.00918152 -0.03094078 0.06721743
v 0.00918152 -0.02973204 0.06595768
v 0.01603990 -0.03094078 0.06595768
v 0.00918152 -0.02973204 0.06721743
v 0.01603990 -0.03094078 0.06721743
v 0.01798724 -0.02973204 0.06595768
v 0.01775018 -0.03075940 0.06595768
v 0.01775018 -0.03075999 0.06721743
v 0.01740192 -0.03079691 0.06721743
v 0.01798724 -0.02973204 0.06721743
v 0.01798724 -0.03068699 0.06595768
v 0.01781311 -0.03074035 0.06595768
v 0.01781311 -0.03074094 0.06721743
v 0.01798724 -0.03068758 0.06721743
v 0.01798724 -0.03068722 0.06624342
f 4 8 9
f 6 4 10
f 10 4 9
f 13 12 16
f 16 15 14
f 14 13 16
f 1 2 5
f 5 3 1
f 3 5 11
f 7 3 11
f 4 2 1
f 4 6 2
f 7 11 15
f 15 12 7
f 16 12 15
f 1 3 13
f 13 3 7
f 13 4 1
f 8 4 13
f 7 12 13
f 14 5 2
f 2 6 14
f 14 10 9
f 14 11 5
f 14 15 11
f 6 10 14
f 8 13 14
f 9 8 14

