# https://github.com/mikedh/trimesh
v -0.01629591 0.00511313 0.02580774
v -0.01629591 0.00511313 0.02105927
v -0.01947775 0.00511313 0.02580774
v -0.01629591 -0.01581849 0.02580774
v -0.01945303 0.00511313 0.02105927
v -0.01629591 -0.01581849 0.02105927
v -0.02000325 0.00134109 0.02580774
v -0.02006655 -0.01581849 0.02580774
v -0.02004857 -0.00036974 0.02480226
v -0.02007366 0.00063627 0.02580774
v -0.02004857 -0.00721104 0.02105927
v -0.02004220 -0.01581849 0.02105927
v -0.02007179 -0.01576317 0.02580774
v -0.02006355 -0.01581849 0.02474787
v -0.02009913 -0.00036974 0.02580774
v -0.02006093 -0.00891983 0.02105927
v -0.02011562 -0.00107457 0.02580774
v -0.02004482 -0.01581849 0.02132702
v -0.02004969 -0.01576317 0.02138187
v -0.02004557 -0.01577342 0.02105927
v -0.02006880 -0.01576317 0.02480226
v -0.02010063 -0.01475716 0.02580774
v -0.02005681 -0.01581849 0.02303768
v -0.02007029 -0.01063066 0.02105927
v -0.02007704 -0.01063066 0.02138187
v -0.02010363 -0.01063066 0.02309207
v -0.02011861 -0.01063066 0.02480226
v -0.02012236 -0.00962465 0.02580774
v -0.02006205 -0.01576317 0.02309207
v -0.02004632 -0.01576317 0.02105927
v -0.02011711 -0.01405234 0.02480226
v -0.02010400 -0.01405234 0.02309207
v -0.02012048 -0.01405234 0.02580774
v -0.02007067 -0.01095439 0.02105927
v -0.02007254 -0.01266318 0.02105927
v -0.02007853 -0.01234150 0.02138187
v -0.02007891 -0.01405234 0.02138187
v -0.02007029 -0.01437401 0.02105927
v -0.02007292 -0.01405234 0.02105927
f 9 10 5
f 3 5 7
f 7 5 10
f 19 29 31
f 31 32 19
f 8 13 14
f 22 33 31
f 28 17 27
f 27 32 31
f 27 33 28
f 31 33 27
f 11 10 9
f 9 5 11
f 18 19 12
f 18 23 29
f 29 19 18
f 21 14 13
f 13 22 21
f 31 29 21
f 21 22 31
f 32 27 26
f 26 27 17
f 10 11 15
f 15 11 17
f 30 19 32
f 12 19 20
f 19 30 20
f 38 30 32
f 39 38 37
f 37 38 32
f 37 36 39
f 32 26 37
f 26 36 37
f 39 36 35
f 17 11 16
f 25 26 17
f 25 16 24
f 17 16 25
f 25 36 26
f 25 35 36
f 34 25 24
f 35 25 34
f 1 4 6
f 6 2 1
f 5 3 1
f 1 2 5
f 4 8 18
f 18 6 4
f 12 6 18
f 8 14 18
f 18 14 23
f 23 14 21
f 29 23 21
f 15 4 1
f 15 13 8
f 1 3 15
f 15 8 4
f 28 33 15
f 3 7 15
f 15 7 10
f 15 17 28
f 33 22 15
f 15 22 13
f 2 6 34
f 34 6 12
f 34 5 2
f 34 11 5
f 34 38 39
f 12 20 34
f 34 20 30
f 30 38 34
f 39 35 34
f 34 16 11
f 24 16 34

