# https://github.com/mikedh/trimesh
v 0.00406542 0.02697949 0.03106334
v 0.00577686 0.02696301 0.03106334
v 0.00406542 0.02695752 0.02993407
v 0.00064638 0.02697949 0.03106334
v 0.00631456 0.02682479 0.03106334
v 0.00735931 0.02653278 0.02993407
v 0.00577686 0.02693921 0.02993407
v 0.00577686 0.02691633 0.02972154
v 0.00427871 0.02693189 0.02972154
v 0.00406542 0.02693372 0.02972154
v 0.00064638 0.02695752 0.02993407
v -0.00048266 0.02693555 0.03106334
v 0.00737846 0.02654468 0.03106334
v 0.00734015 0.02652088 0.02972154
v 0.00794298 0.02618860 0.03106334
v 0.00823418 0.02599546 0.03106334
v 0.00821375 0.02596433 0.02993407
v 0.00595312 0.02687697 0.02972154
v 0.00064638 0.02693372 0.02972154
v -0.00106379 0.02689070 0.02993407
v -0.00106379 0.02691267 0.03106334
v 0.00808858 0.02602292 0.02972154
v 0.00864544 0.02513958 0.03106334
v 0.00825973 0.02584167 0.02972154
v 0.00819459 0.02594786 0.02972154
v -0.00106379 0.02686690 0.02972154
v -0.00242655 0.02647145 0.02972154
v -0.00244443 0.02648335 0.02993407
v -0.00245721 0.02649434 0.03106334
v 0.00900944 0.02409788 0.03106334
v 0.00859052 0.02509289 0.02972154
v -0.00253384 0.02634971 0.02972154
v -0.00329888 0.02546820 0.02993407
v -0.00274840 0.02614924 0.03106334
v 0.00930192 0.02259574 0.03106334
v 0.00884724 0.02357794 0.02972154
v -0.00328227 0.02545996 0.02972154
v -0.00331292 0.02547277 0.03106334
v -0.00368331 0.02460500 0.02972154
v -0.00368459 0.02461232 0.02993407
v 0.00930703 0.02194948 0.03106334
v 0.00885745 0.02208038 0.02972154
v -0.00368459 0.02461781 0.03106334
v -0.00373823 0.02357794 0.02972154
v -0.00374078 0.02357794 0.02993407
v -0.00370375 0.02426630 0.03106334
v 0.00922401 0.02063866 0.03106334
v 0.00885873 0.02186801 0.02972154
v -0.00374078 0.02336466 0.02972154
v -0.00374078 0.02357794 0.03106334
v 0.00914865 0.02012147 0.03106334
v 0.00858413 0.02002718 0.02972154
v -0.00374078 0.02186801 0.02972154
v -0.00374078 0.02186801 0.03106334
v 0.00891876 0.01896901 0.03106334
v 0.00831465 0.01931227 0.02972154
v -0.00373440 0.02167578 0.02972154
v -0.00369225 0.02039791 0.03106334
v 0.00865183 0.01863764 0.03106334
v 0.00762241 0.01762889 0.03106334
v 0.00761858 0.01877952 0.02972154
v -0.00368586 0.02068900 0.02972154
v -0.00353260 0.01974250 0.03106334
v 0.00748703 0.01762889 0.03102485
v 0.00577686 0.01823762 0.02972154
v -0.00147760 0.01762889 0.03106334
v -0.00340871 0.01993473 0.02972154
v -0.00350961 0.01968026 0.03106334
v 0.00577686 0.01762889 0.03096693
v 0.00546906 0.01823670 0.02972154
v -0.00280077 0.01847653 0.03106334
v -0.00255427 0.01877495 0.02972154
v -0.00130390 0.01833190 0.02972154
v -0.00106379 0.01826600 0.02972154
v -0.00144694 0.01762889 0.03105651
v -0.00329249 0.01969856 0.02972154
v 0.00483302 0.01762889 0.03096522
v 0.00406542 0.01823396 0.02972154
v -0.00106379 0.01762889 0.03097165
v 0.00033857 0.01823670 0.02972154
v 0.00406542 0.01762889 0.03096390
v 0.00064638 0.01823396 0.02972154
v -0.00024894 0.01762889 0.03096784
v 0.00064638 0.01762889 0.03096390
f 47 48 41
f 71 72 66
f 27 20 26
f 56 59 60
f 55 59 56
f 48 47 51
f 64 65 60
f 64 69 65
f 45 40 39
f 39 44 45
f 40 33 39
f 66 74 75
f 75 74 79
f 66 72 73
f 73 74 66
f 2 6 7
f 60 65 61
f 61 56 60
f 55 56 52
f 52 51 55
f 48 51 52
f 45 50 46
f 46 40 45
f 43 40 46
f 37 39 33
f 72 71 76
f 58 62 63
f 53 58 54
f 79 74 80
f 80 82 79
f 79 82 83
f 83 82 84
f 5 6 2
f 5 13 6
f 16 6 15
f 6 13 15
f 2 7 3
f 3 7 8
f 14 7 6
f 17 6 16
f 16 23 17
f 17 23 24
f 17 14 6
f 36 35 41
f 38 40 43
f 38 33 40
f 28 20 27
f 28 29 21
f 28 21 20
f 12 11 20
f 20 21 12
f 12 4 11
f 68 76 71
f 45 44 49
f 62 58 57
f 58 53 57
f 65 69 70
f 69 78 70
f 2 3 1
f 8 7 18
f 7 14 18
f 25 17 24
f 41 48 42
f 42 36 41
f 30 35 31
f 35 36 31
f 31 23 30
f 24 23 31
f 33 38 34
f 34 28 33
f 29 28 34
f 32 28 27
f 32 37 33
f 33 28 32
f 76 68 67
f 67 68 63
f 63 62 67
f 77 81 78
f 77 78 69
f 9 10 3
f 9 3 8
f 14 17 22
f 17 25 22
f 19 26 20
f 20 11 19
f 54 50 49
f 49 50 45
f 49 53 54
f 82 78 81
f 84 82 81
f 11 4 1
f 1 3 11
f 10 19 11
f 11 3 10
f 34 66 60
f 34 47 41
f 60 59 34
f 34 58 63
f 34 71 66
f 55 51 34
f 63 68 34
f 34 59 55
f 41 35 34
f 43 46 34
f 34 12 21
f 16 15 34
f 34 23 16
f 34 51 47
f 34 50 54
f 34 5 2
f 34 35 30
f 21 29 34
f 34 38 43
f 34 46 50
f 54 58 34
f 13 5 34
f 34 15 13
f 30 23 34
f 2 1 34
f 4 12 34
f 34 68 71
f 34 1 4
f 60 66 77
f 66 75 77
f 77 64 60
f 69 64 77
f 79 83 77
f 77 75 79
f 77 83 84
f 84 81 77
f 22 73 72
f 24 31 22
f 62 57 22
f 65 70 22
f 48 52 22
f 22 80 74
f 27 26 22
f 22 61 65
f 44 39 22
f 72 76 22
f 22 25 24
f 74 73 22
f 22 67 62
f 26 19 22
f 56 61 22
f 22 52 56
f 39 37 22
f 22 32 27
f 22 49 44
f 82 80 22
f 22 78 82
f 8 18 22
f 22 42 48
f 53 49 22
f 22 57 53
f 22 70 78
f 19 10 22
f 22 18 14
f 22 9 8
f 36 42 22
f 22 31 36
f 37 32 22
f 76 67 22
f 10 9 22

