# https://github.com/mikedh/trimesh
v 0.00904603 -0.03485643 0.01729745
v 0.00974766 -0.03485118 0.01681218
v 0.00974766 -0.03485643 0.01894207
v 0.00826817 -0.03485643 0.01750832
v 0.00974868 -0.03296480 0.01680865
v 0.00974766 -0.03457920 0.01679453
v 0.00974868 -0.03296436 0.01679365
v 0.00974766 -0.03485643 0.02396153
v 0.00826803 -0.03296480 0.01750655
v 0.00826817 -0.03457920 0.01750655
v 0.00826817 -0.03485643 0.02396065
v 0.00974868 -0.03296480 0.02443798
v 0.00974868 -0.03038926 0.01679365
v 0.00974868 -0.03109546 0.02580644
v 0.00919793 -0.03109590 0.02580644
v 0.00826803 -0.03109590 0.02580644
v 0.00826803 -0.03296480 0.02443533
v 0.00826803 -0.03039364 0.01750655
v 0.00827122 -0.03038926 0.01750567
v 0.00974868 -0.03038926 0.02580644
v 0.00826803 -0.03038926 0.02580644
v 0.00826803 -0.03038926 0.01992320
f 14 8 12
f 6 10 7
f 7 10 9
f 15 8 14
f 4 10 6
f 9 10 4
f 2 7 5
f 6 7 2
f 2 4 6
f 13 18 19
f 3 2 5
f 22 19 18
f 16 11 8
f 8 15 16
f 4 2 1
f 2 3 1
f 11 16 17
f 13 7 18
f 18 7 9
f 5 7 20
f 20 12 5
f 14 12 20
f 20 7 13
f 5 12 3
f 3 12 8
f 22 20 13
f 21 20 22
f 13 19 22
f 14 20 16
f 16 20 21
f 16 15 14
f 1 3 8
f 8 11 1
f 1 11 4
f 17 18 9
f 21 22 17
f 17 22 18
f 17 16 21
f 4 11 17
f 9 4 17

