# https://github.com/mikedh/trimesh
v 0.01354130 0.03302307 0.03765261
v 0.01268995 0.03302307 0.03770578
v 0.01354130 0.03376705 0.03671502
v 0.01354130 0.03302307 0.05061228
v 0.01262288 0.03302307 0.03771278
v 0.01354130 0.03397773 0.03650091
v 0.01354130 0.03426191 0.05061228
v 0.01262288 0.03302307 0.05061228
v 0.01262288 0.03426021 0.03658348
v 0.01321790 0.03426191 0.03634278
v 0.01354130 0.03426191 0.03631620
v 0.01262288 0.03426191 0.05061228
v 0.01262288 0.03426191 0.03716002
f 2 3 1
f 5 3 2
f 6 3 5
f 9 13 10
f 11 6 10
f 5 9 10
f 10 6 5
f 8 4 7
f 7 12 8
f 1 4 2
f 2 8 5
f 4 8 2
f 5 8 13
f 13 9 5
f 13 8 12
f 6 11 7
f 6 4 1
f 7 4 6
f 1 3 6
f 7 11 10
f 10 12 7
f 10 13 12

