# https://github.com/mikedh/trimesh
v 0.01291092 0.00379667 0.01878551
v 0.01291092 0.00408135 0.01856536
v 0.01289331 0.00379667 0.01878551
v 0.01291092 0.00379667 -0.00090795
v 0.00648883 0.00379667 0.01876040
v 0.01291092 0.00966214 0.01410256
v 0.01261855 0.00379667 -0.00094078
v 0.01291092 0.01006462 -0.00090795
v 0.00648883 0.01006462 0.01372986
v 0.00648883 0.00379667 -0.00094078
v 0.01291092 0.01006462 0.01377234
v 0.01261855 0.01006462 -0.00094078
v 0.00648883 0.01006462 -0.00094078
f 9 6 11
f 5 6 9
f 2 6 5
f 1 2 3
f 3 2 5
f 8 4 12
f 12 4 7
f 7 10 12
f 12 10 13
f 9 11 8
f 8 12 9
f 9 12 13
f 9 10 5
f 13 10 9
f 8 11 2
f 1 4 2
f 2 4 8
f 11 6 2
f 3 4 1
f 5 10 3
f 7 4 3
f 3 10 7

