# https://github.com/mikedh/trimesh
v 0.01105922 -0.00202002 0.09156667
v 0.01105922 -0.00123997 0.09235028
v 0.01105922 0.01255558 0.09156667
v 0.01106042 -0.00373142 0.09156667
v 0.01105922 -0.00021992 0.09336909
v 0.01106042 -0.00294876 0.09235028
v 0.01105922 0.01673233 0.09235028
v 0.01106042 0.01659145 0.09156667
v 0.01110990 -0.00545064 0.09156667
v 0.01106163 -0.00207480 0.09322299
v 0.01106887 -0.00192871 0.09336909
v 0.01105922 0.01331214 0.09336909
v 0.01105922 0.01673233 0.09322299
v 0.01106404 0.01688365 0.09235028
v 0.02323577 0.01659145 0.09156667
v 0.01138260 -0.00749076 0.09156667
v 0.01134399 -0.00387490 0.09336909
v 0.01106525 0.01502354 0.09336909
v 0.01108697 0.01673233 0.09336909
v 0.01106404 0.01688365 0.09322299
v 0.02301012 0.01688365 0.09235028
v 0.02323456 0.01659145 0.09158290
v 0.02332989 0.01331214 0.09322299
v 0.02332627 0.01418610 0.09235028
v 0.02332024 0.01496876 0.09156667
v 0.01184959 -0.00854473 0.09156667
v 0.01158412 -0.00677854 0.09255213
v 0.01145259 -0.00549760 0.09286815
v 0.01134882 -0.00389316 0.09336909
v 0.01110024 0.01688365 0.09336909
v 0.02322612 0.01659145 0.09165595
v 0.02282429 0.01688365 0.09307530
v 0.02314044 0.01502354 0.09322299
v 0.02318992 0.01589489 0.09235028
v 0.02311752 0.01487484 0.09336909
v 0.02330576 0.01316605 0.09336909
v 0.02331179 0.01301995 0.09336909
v 0.02335885 0.01160074 0.09336909
v 0.02338660 0.01160074 0.09322299
v 0.02332144 0.01491136 0.09156667
v 0.01233105 -0.00936390 0.09156667
v 0.01262307 -0.00960913 0.09156667
v 0.01256877 -0.00556282 0.09336909
v 0.01197991 -0.00505671 0.09336909
v 0.02268915 0.01688365 0.09336909
v 0.02276155 0.01688365 0.09322617
v 0.02279654 0.01673233 0.09322299
v 0.02276637 0.01657841 0.09336909
v 0.02329852 0.00305679 0.09336909
v 0.02333954 0.00305679 0.09322299
v 0.02336851 0.01160074 0.09235028
v 0.02336851 0.01247470 0.09235028
v 0.02334678 0.00134539 0.09156667
v 0.02335161 0.01325736 0.09156667
v 0.01352687 -0.00972392 0.09156667
v 0.01262065 -0.00558369 0.09336909
v 0.02327800 0.00134539 0.09336909
v 0.02332144 0.00134539 0.09322299
v 0.02333592 0.00134539 0.09235028
v 0.02335161 0.01160074 0.09156667
v 0.02330334 -0.00036340 0.09156667
v 0.01433051 -0.00976827 0.09156667
v 0.01416640 -0.00564370 0.09336909
v 0.02307046 -0.00035818 0.09336909
v 0.02313079 -0.00036340 0.09322299
v 0.02313079 -0.00207741 0.09156667
v 0.01520656 -0.00975262 0.09156667
v 0.01764042 -0.00559413 0.09336909
v 0.01433051 -0.00564631 0.09336909
v 0.02254797 -0.00212437 0.09336909
v 0.02256486 -0.00215046 0.09331369
v 0.02234283 -0.00535151 0.09156667
v 0.02278809 -0.00378620 0.09156667
v 0.01604158 -0.00972914 0.09156667
v 0.01774902 -0.00559152 0.09336909
v 0.02250453 -0.00220785 0.09336909
v 0.02208460 -0.00476191 0.09244009
v 0.02227526 -0.00378620 0.09274923
v 0.02112771 -0.00757685 0.09156667
v 0.01774902 -0.00966131 0.09156667
v 0.01946009 -0.00537759 0.09336909
v 0.02154401 -0.00382012 0.09336909
v 0.02121218 -0.00427406 0.09336909
v 0.02050869 -0.00656984 0.09247662
v 0.01946009 -0.00920998 0.09156667
f 8 7 14
f 7 8 3
f 79 83 84
f 32 33 21
f 26 27 16
f 42 56 43
f 43 27 42
f 39 53 51
f 81 75 80
f 64 70 71
f 71 70 72
f 77 79 72
f 83 79 77
f 46 45 48
f 15 21 22
f 21 31 22
f 21 33 34
f 34 31 21
f 33 32 35
f 30 20 19
f 1 4 2
f 6 4 9
f 5 2 6
f 6 2 4
f 42 27 41
f 27 26 41
f 24 25 15
f 39 25 24
f 39 51 52
f 60 51 53
f 61 58 66
f 57 58 49
f 66 58 65
f 65 73 66
f 65 57 64
f 58 57 65
f 72 73 65
f 64 71 65
f 65 71 72
f 50 53 39
f 39 38 50
f 50 38 49
f 49 58 50
f 85 79 84
f 81 80 85
f 83 81 85
f 84 83 85
f 72 70 78
f 78 77 72
f 70 77 78
f 83 77 82
f 32 46 47
f 47 46 48
f 48 35 47
f 47 35 32
f 18 19 13
f 13 19 20
f 12 18 13
f 27 43 44
f 44 29 27
f 11 9 16
f 16 27 28
f 15 22 23
f 23 24 15
f 23 22 31
f 31 34 23
f 23 34 33
f 39 24 23
f 23 38 39
f 33 35 23
f 40 52 54
f 40 25 39
f 39 52 40
f 59 61 53
f 58 61 59
f 53 50 59
f 59 50 58
f 74 80 75
f 55 56 42
f 55 62 56
f 76 77 70
f 76 82 77
f 10 11 5
f 5 6 10
f 10 6 9
f 9 11 10
f 17 11 16
f 16 28 17
f 27 29 17
f 17 28 27
f 36 23 35
f 56 62 63
f 62 69 63
f 68 69 62
f 38 23 37
f 23 36 37
f 67 68 62
f 75 68 67
f 67 74 75
f 15 8 21
f 21 8 14
f 46 21 14
f 14 20 46
f 46 20 30
f 30 45 46
f 46 32 21
f 54 52 60
f 60 52 51
f 13 3 1
f 5 12 13
f 7 3 13
f 1 2 13
f 13 2 5
f 13 20 14
f 14 7 13
f 64 57 37
f 37 45 30
f 37 35 48
f 37 12 5
f 37 81 83
f 48 45 37
f 5 11 37
f 30 19 37
f 37 44 43
f 37 70 64
f 49 38 37
f 37 18 12
f 37 43 56
f 37 75 81
f 37 17 29
f 37 19 18
f 83 82 37
f 37 57 49
f 37 68 75
f 29 44 37
f 37 76 70
f 56 63 37
f 82 76 37
f 11 17 37
f 37 36 35
f 37 63 69
f 69 68 37
f 67 8 15
f 79 85 67
f 1 3 67
f 66 73 67
f 67 3 8
f 67 4 1
f 67 60 53
f 15 25 67
f 16 9 67
f 42 41 67
f 72 79 67
f 67 73 72
f 9 4 67
f 67 26 16
f 80 74 67
f 67 61 66
f 67 41 26
f 54 60 67
f 53 61 67
f 67 85 80
f 67 40 54
f 25 40 67
f 67 55 42
f 62 55 67

