# https://github.com/mikedh/trimesh
v 0.01264416 0.04121899 0.03510912
v 0.01264263 0.04198694 0.04017162
v 0.01264263 0.04199091 0.04020038
v 0.01264263 0.04220511 0.04191186
v 0.01264263 0.04237964 0.04362333
v 0.01264263 0.04241693 0.04404520
v 0.01264263 0.04252799 0.04533480
v 0.01264263 0.04264858 0.04703668
v 0.01264263 0.04274775 0.04874815
v 0.01264263 0.04280963 0.05043326
v 0.01264263 0.04285564 0.05216870
v 0.01264263 0.04289213 0.05385141
v 0.01264263 0.04290086 0.05556288
v 0.01264263 0.04290086 0.05558924
v 0.01264263 0.04285405 0.05729832
v 0.01264263 0.04279297 0.05856155
v 0.01264416 0.03509605 0.03510912
v 0.01264416 0.04121265 0.03506597
v 0.01264263 0.04173069 0.03846494
v 0.01090432 0.04173863 0.03849131
v -0.00277456 0.04176005 0.03849131
v 0.00919503 0.04199567 0.04020038
v 0.01261513 0.04220669 0.04191186
v 0.01261513 0.04238123 0.04362333
v 0.01261513 0.04253117 0.04533480
v 0.01261513 0.04265096 0.04703668
v 0.01261513 0.04274854 0.04874815
v 0.01261513 0.04281201 0.05045723
v 0.01261513 0.04285643 0.05216870
v 0.01261513 0.04289451 0.05387777
v 0.01261513 0.04290324 0.05558924
v 0.01261513 0.04285564 0.05729832
v 0.01261513 0.04279455 0.05856155
v 0.01264263 0.03479855 0.05856155
v 0.01264263 0.03479855 0.03601519
v 0.01264416 0.03510636 0.03506597
v 0.01264416 0.04120868 0.03503960
v 0.01256931 0.04122137 0.03510912
v 0.01261666 0.04121423 0.03506597
v -0.00296091 0.04145620 0.03646823
v -0.00296091 0.04176005 0.03849131
v -0.00296091 0.04178702 0.03867348
v -0.00141202 0.04200201 0.04020038
v 0.01090432 0.04220749 0.04191186
v 0.00407023 0.04238361 0.04362333
v 0.01090432 0.04241931 0.04404520
v -0.00296091 0.04240027 0.04380550
v -0.00106222 0.04253196 0.04533480
v -0.00277456 0.04265493 0.04703428
v 0.00235941 0.04275647 0.04874815
v 0.00577493 0.04275489 0.04874815
v 0.00407023 0.04282232 0.05045723
v 0.00235941 0.04286913 0.05216870
v -0.00141202 0.04287309 0.05216870
v -0.00296091 0.04287706 0.05235567
v 0.00919503 0.04289610 0.05387777
v -0.00106222 0.04289848 0.05387777
v -0.00141202 0.04289848 0.05387777
v -0.00296091 0.04289848 0.05388017
v -0.00296091 0.04289213 0.05558685
v 0.01090432 0.04285405 0.05729832
v -0.00296091 0.04279059 0.05855915
v -0.00141202 0.04278979 0.05856155
v -0.00141202 0.03479855 0.05856155
v -0.00278525 0.03479855 0.03605354
v 0.01264416 0.03535864 0.03407360
v 0.01264416 0.04104605 0.03407360
v 0.01261666 0.04104763 0.03407360
v 0.00577493 0.04122693 0.03506597
v 0.00505700 0.04106191 0.03407360
v 0.00406870 0.04123645 0.03510912
v 0.00235789 0.04123169 0.03506597
v -0.00295786 0.04123565 0.03506597
v -0.00296091 0.04125945 0.03521938
v -0.00296091 0.04200201 0.04020038
v -0.00296091 0.04202502 0.04038496
v -0.00296091 0.04220749 0.04191186
v -0.00296091 0.04222653 0.04209403
v -0.00277456 0.04238361 0.04362093
v -0.00296091 0.04253117 0.04533240
v -0.00141202 0.04253196 0.04533480
v -0.00296091 0.04238361 0.04362093
v -0.00296091 0.04265493 0.04703428
v -0.00296091 0.04275647 0.04874815
v -0.00141202 0.04277155 0.04909812
v -0.00277456 0.04282708 0.05045723
v -0.00106222 0.04282629 0.05045723
v -0.00296091 0.04287309 0.05216870
v -0.00296091 0.04283898 0.05730072
v -0.00296091 0.04283263 0.05748529
v -0.00296091 0.03479855 0.05855915
v -0.00296091 0.03479855 0.03605594
v -0.00288148 0.03537610 0.03407360
v 0.00406870 0.04122931 0.03506597
v 0.00334924 0.04106350 0.03407360
v 0.00235789 0.04106429 0.03407360
v -0.00178167 0.04106429 0.03407360
v -0.00295786 0.04106271 0.03407360
v -0.00296091 0.04124200 0.03510912
v -0.00296091 0.04254465 0.04551457
v -0.00296091 0.04276441 0.04893272
v -0.00296091 0.04282708 0.05045723
v -0.00296091 0.03511033 0.03510912
v -0.00295786 0.03537689 0.03407360
f 34 35 17
f 40 72 73
f 99 73 98
f 40 38 69
f 65 66 35
f 36 17 35
f 35 66 36
f 9 8 26
f 1 8 9
f 9 10 1
f 15 16 1
f 1 14 15
f 1 12 13
f 13 14 1
f 23 4 3
f 3 22 23
f 3 2 22
f 3 4 1
f 1 2 3
f 20 38 40
f 7 8 1
f 1 6 7
f 1 4 5
f 5 6 1
f 40 73 74
f 73 99 74
f 71 72 40
f 40 69 71
f 39 69 38
f 103 104 92
f 66 65 93
f 93 65 92
f 92 104 93
f 27 9 26
f 62 63 33
f 59 60 31
f 14 13 31
f 31 15 14
f 38 20 19
f 19 20 2
f 19 39 38
f 26 8 25
f 8 7 25
f 25 49 26
f 46 45 25
f 25 7 6
f 39 19 37
f 98 73 97
f 70 95 72
f 69 39 70
f 43 42 75
f 22 42 43
f 75 76 43
f 23 22 43
f 22 2 21
f 21 42 22
f 2 20 21
f 21 20 40
f 44 76 77
f 77 78 44
f 23 43 44
f 44 43 76
f 47 25 45
f 57 31 56
f 56 31 30
f 60 89 61
f 55 57 56
f 56 30 55
f 6 5 24
f 24 25 6
f 46 25 24
f 24 45 46
f 24 44 45
f 23 44 24
f 18 2 1
f 18 19 2
f 18 37 19
f 96 97 73
f 96 73 72
f 72 95 96
f 94 70 72
f 69 70 94
f 72 71 94
f 94 71 69
f 68 70 39
f 68 37 67
f 39 37 68
f 41 21 40
f 42 21 41
f 51 52 27
f 51 27 26
f 27 52 28
f 10 9 28
f 9 27 28
f 28 52 53
f 62 61 90
f 90 61 89
f 62 33 32
f 32 61 62
f 15 31 32
f 32 31 60
f 60 61 32
f 53 52 54
f 54 30 53
f 54 55 30
f 58 55 59
f 57 55 58
f 59 31 58
f 31 57 58
f 79 82 47
f 79 47 45
f 45 44 79
f 78 82 79
f 79 44 78
f 25 47 48
f 49 25 48
f 26 49 50
f 50 51 26
f 52 51 87
f 87 54 52
f 51 50 87
f 53 30 29
f 29 28 53
f 55 54 88
f 47 80 81
f 81 48 47
f 85 50 84
f 86 87 50
f 86 85 102
f 50 85 86
f 54 87 86
f 10 28 11
f 28 29 11
f 11 12 1
f 1 10 11
f 11 30 12
f 11 29 30
f 83 81 100
f 100 81 80
f 102 85 101
f 101 85 84
f 17 16 34
f 1 16 17
f 62 91 64
f 64 63 62
f 34 64 65
f 65 35 34
f 65 91 92
f 65 64 91
f 98 104 103
f 103 99 98
f 34 16 33
f 33 64 34
f 63 64 33
f 30 31 13
f 30 13 12
f 24 5 4
f 24 4 23
f 1 17 18
f 17 36 18
f 66 67 18
f 18 36 66
f 67 37 18
f 68 67 66
f 68 104 98
f 66 93 68
f 98 97 68
f 68 93 104
f 68 96 95
f 95 70 68
f 97 96 68
f 32 33 16
f 16 15 32
f 83 84 50
f 50 49 83
f 83 49 81
f 49 48 81
f 102 88 86
f 86 88 54
f 92 91 101
f 101 91 62
f 101 103 92
f 101 82 78
f 77 76 101
f 101 88 102
f 40 74 101
f 59 55 101
f 101 60 59
f 101 84 83
f 101 74 99
f 99 103 101
f 75 42 101
f 101 76 75
f 101 78 77
f 101 89 60
f 101 41 40
f 83 100 101
f 62 90 101
f 42 41 101
f 47 82 101
f 101 80 47
f 101 90 89
f 55 88 101
f 101 100 80

