# https://github.com/mikedh/trimesh
v 0.00918152 -0.03094066 0.07098743
v 0.00918152 -0.03094066 0.07299151
v 0.00918152 -0.02970253 0.07098743
v 0.01603945 -0.03094066 0.07098743
v 0.00918152 -0.02970253 0.07299151
v 0.01603945 -0.03094066 0.07299151
v 0.01635766 -0.02970253 0.07098743
v 0.01635766 -0.03091096 0.07098743
v 0.01635766 -0.03091472 0.07130484
v 0.01635766 -0.03091751 0.07299151
v 0.01633448 -0.03091932 0.07299151
v 0.01635766 -0.02970253 0.07299151
f 6 4 11
f 11 4 10
f 9 4 8
f 10 4 9
f 1 2 5
f 5 3 1
f 3 5 12
f 7 3 12
f 1 3 4
f 4 3 7
f 7 8 4
f 4 2 1
f 4 6 2
f 11 5 2
f 2 6 11
f 11 12 5
f 10 12 11
f 9 8 7
f 7 12 9
f 9 12 10

