# https://github.com/mikedh/trimesh
v 0.00919601 -0.01403831 0.05856155
v 0.00919601 -0.01403831 0.04582951
v 0.00601696 -0.01403831 0.05856155
v 0.00919601 -0.03050403 0.05856155
v 0.00750519 -0.01747604 0.04463686
v 0.00749989 -0.01576545 0.04463686
v 0.00738475 -0.01405485 0.04463686
v 0.00738039 -0.01403831 0.04463686
v 0.00919601 -0.01918664 0.04583087
v 0.00750519 -0.01862251 0.04463686
v 0.00601696 -0.01403831 0.04463686
v 0.00601696 -0.03093913 0.05856155
v 0.00874662 -0.03093913 0.05856155
v 0.00919601 -0.03093913 0.05856019
v 0.00919601 -0.02089724 0.04583223
v 0.00750487 -0.01918664 0.04463686
v 0.00601696 -0.02563198 0.04463686
v 0.00601696 -0.03093913 0.05046244
v 0.00919601 -0.03093913 0.05045971
v 0.00919601 -0.02260452 0.04583905
v 0.00919601 -0.02773465 0.04586358
v 0.00749243 -0.02033310 0.04463686
v 0.00713982 -0.02280470 0.04463686
v 0.00919601 -0.02897872 0.04602578
v 0.00601696 -0.02773465 0.04497216
v 0.00601696 -0.03091100 0.04899173
v 0.00919601 -0.03089942 0.04875047
v 0.00722665 -0.02255820 0.04463686
v 0.00730290 -0.02213634 0.04463686
v 0.00747935 -0.02089724 0.04463686
v 0.00919601 -0.02983402 0.04653692
v 0.00601696 -0.02942871 0.04542332
v 0.00601696 -0.03090438 0.04875184
v 0.00601696 -0.03065954 0.04724433
v 0.00601696 -0.03061653 0.04706032
v 0.00919601 -0.03058179 0.04739426
v 0.00601696 -0.02944194 0.04543423
f 2 10 5
f 6 2 5
f 14 4 13
f 36 27 35
f 8 2 7
f 2 6 7
f 24 17 21
f 36 35 37
f 10 2 9
f 25 24 32
f 17 24 25
f 36 37 31
f 31 37 32
f 32 24 31
f 34 35 27
f 27 33 34
f 27 19 26
f 26 33 27
f 21 17 23
f 23 28 21
f 18 26 19
f 21 30 22
f 21 28 29
f 29 30 21
f 21 22 16
f 16 20 21
f 15 20 16
f 16 9 15
f 10 9 16
f 2 11 3
f 3 1 2
f 8 11 2
f 13 1 3
f 13 4 1
f 3 12 13
f 31 2 1
f 31 27 36
f 1 4 31
f 31 4 14
f 21 20 31
f 14 19 31
f 31 19 27
f 31 9 2
f 31 24 21
f 15 9 31
f 31 20 15
f 18 13 12
f 18 19 14
f 14 13 18
f 3 11 18
f 18 12 3
f 32 37 18
f 11 17 18
f 35 34 18
f 18 37 35
f 18 25 32
f 17 25 18
f 18 34 33
f 33 26 18
f 16 11 8
f 16 6 5
f 5 10 16
f 8 7 16
f 16 17 11
f 16 7 6
f 16 23 17
f 16 29 28
f 28 23 16
f 16 22 30
f 30 29 16

