# https://github.com/mikedh/trimesh
v -0.02004273 -0.01234837 0.03653559
v -0.02003428 -0.01234837 0.03677667
v -0.02003851 -0.01063420 0.03653559
v -0.02004132 -0.01405200 0.03653559
v -0.01993995 -0.01234837 0.03848722
v -0.02003006 -0.01063420 0.03677667
v -0.02003147 -0.01405200 0.03677667
v -0.01993995 -0.01576266 0.03848722
v -0.01994136 -0.01405200 0.03848722
v -0.02002443 -0.00892706 0.03653559
v -0.02002302 -0.01576266 0.03653559
v -0.02001739 -0.01576266 0.03677667
v -0.01981605 -0.00550224 0.04019777
v -0.01992728 -0.00721289 0.03848722
v -0.02001598 -0.00892706 0.03677667
v -0.01979775 -0.01747332 0.04019777
v -0.01968793 -0.01747332 0.04190753
v -0.01989630 -0.01576266 0.03912957
v -0.01982168 -0.01576266 0.04019777
v -0.01955136 0.00494436 0.04361728
v -0.01975269 -0.00037027 0.03653559
v -0.01989490 -0.01747332 0.03653559
v -0.01989490 -0.01747332 0.03677667
v -0.01986392 -0.01747332 0.03848722
v -0.01969215 -0.00379158 0.04190673
v -0.01961612 -0.01918397 0.04190753
v -0.01953024 -0.01918397 0.04361728
v -0.01954009 -0.01747332 0.04361728
v -0.01945984 -0.00619423 0.04463632
v -0.01954995 -0.00208092 0.04361728
v -0.01955136 0.00134039 0.04361728
v -0.01944857 -0.01918397 0.04463632
v -0.01946125 0.00494436 0.04463632
v -0.01953587 0.00494436 0.04190673
v -0.01944013 0.00494436 0.03653559
v -0.01986251 -0.01771569 0.03653559
v -0.01966540 -0.01918397 0.03848722
v -0.01965836 -0.01918397 0.04019777
v -0.01939930 -0.02089463 0.04361728
v -0.01936550 -0.02089463 0.04463632
v -0.01946125 -0.00379158 0.04463632
v -0.00565908 0.00494436 0.04463632
v -0.00726274 0.00494436 0.03653559
v -0.01966540 -0.01918397 0.03653559
v -0.01941619 -0.02089463 0.03912877
v -0.01941478 -0.02089463 0.04190753
v -0.01915290 -0.02254908 0.04463632
v -0.00565908 0.00494436 0.03912957
v -0.00565908 -0.03094078 0.04463632
v -0.00566049 0.00494436 0.03774495
v -0.00566049 0.00178649 0.03653559
v -0.01941619 -0.02089463 0.03653559
v -0.01915572 -0.02259123 0.03677667
v -0.01915572 -0.02258772 0.03848722
v -0.01907265 -0.02306544 0.04463632
v -0.00565908 -0.03094078 0.03912957
v -0.01303535 -0.03094078 0.04463632
v -0.00566049 -0.03094078 0.03653559
v -0.01915572 -0.02259123 0.03653559
v -0.01902197 -0.02344481 0.03677667
v -0.01902056 -0.02343778 0.03912877
v -0.01901493 -0.02340968 0.04463632
v -0.01303676 -0.03094078 0.03912877
v -0.01474742 -0.03083540 0.04463632
v -0.01474742 -0.03083892 0.04019777
v -0.01303676 -0.03094078 0.03653559
v -0.01902197 -0.02344481 0.03653559
v -0.01885160 -0.02431243 0.04463632
v -0.01600895 -0.03051575 0.04463632
v -0.01474742 -0.03083892 0.03653559
v -0.01600754 -0.03051926 0.03912877
v -0.01884879 -0.02431594 0.03653559
v -0.01885020 -0.02431594 0.03677667
v -0.01851510 -0.02602308 0.04463632
v -0.01651722 -0.03016097 0.04463632
v -0.01600754 -0.03051926 0.03848722
v -0.01600613 -0.03051926 0.03653559
v -0.01686357 -0.02991860 0.04463632
v -0.01850665 -0.02602308 0.03653559
v -0.01850947 -0.02602308 0.03912877
v -0.01811806 -0.02773374 0.03653559
v -0.01811947 -0.02773374 0.04463632
v -0.01686357 -0.02991860 0.04190753
v -0.01686216 -0.02991509 0.03677667
v -0.01686076 -0.02991509 0.03653559
v -0.01760838 -0.02906152 0.03912877
v -0.01760697 -0.02906152 0.04463632
v -0.01804625 -0.02792342 0.03653559
v -0.01760838 -0.02906152 0.03848722
v -0.01760697 -0.02906152 0.03653559
v -0.01696635 -0.02979566 0.03653559
f 57 64 65
f 65 63 57
f 50 48 51
f 51 43 50
f 30 17 29
f 28 32 29
f 29 17 28
f 17 32 28
f 65 64 69
f 35 21 34
f 34 21 20
f 20 21 10
f 6 2 5
f 5 14 6
f 41 30 29
f 17 30 31
f 30 41 31
f 40 26 39
f 39 26 38
f 40 32 27
f 27 26 40
f 16 26 27
f 27 32 17
f 17 16 27
f 89 90 83
f 15 14 20
f 20 10 15
f 6 14 15
f 20 14 13
f 14 5 13
f 40 39 47
f 65 69 71
f 4 2 1
f 38 26 24
f 24 26 16
f 81 82 74
f 87 82 86
f 82 89 86
f 86 78 87
f 20 13 25
f 25 31 20
f 17 31 25
f 83 90 91
f 75 71 69
f 78 71 75
f 83 77 76
f 76 77 70
f 8 16 17
f 79 81 80
f 80 81 74
f 90 89 88
f 88 89 82
f 82 81 88
f 68 67 74
f 84 91 85
f 83 91 84
f 84 85 77
f 84 77 83
f 9 5 2
f 2 8 9
f 9 13 5
f 2 4 7
f 7 8 2
f 23 24 11
f 38 24 23
f 79 80 73
f 74 67 73
f 73 80 74
f 55 47 46
f 46 54 55
f 46 47 39
f 46 39 38
f 19 25 13
f 13 9 19
f 17 25 19
f 12 4 11
f 12 7 4
f 8 7 12
f 16 8 12
f 12 24 16
f 11 24 12
f 22 23 11
f 36 23 22
f 79 73 72
f 72 73 67
f 61 62 55
f 55 54 61
f 68 62 61
f 37 46 38
f 38 23 37
f 36 44 37
f 37 23 36
f 18 8 17
f 17 19 18
f 18 9 8
f 18 19 9
f 60 61 54
f 54 53 60
f 67 68 60
f 68 61 60
f 46 37 45
f 54 46 45
f 45 53 54
f 42 49 56
f 56 48 42
f 56 58 51
f 51 48 56
f 2 3 1
f 2 6 3
f 42 48 34
f 34 43 35
f 48 50 34
f 34 33 42
f 34 50 43
f 20 33 34
f 31 33 20
f 31 41 33
f 49 57 66
f 66 56 49
f 58 56 66
f 66 57 63
f 66 63 65
f 65 70 66
f 3 6 15
f 15 10 3
f 86 89 83
f 83 78 86
f 76 78 83
f 76 71 78
f 76 70 65
f 65 71 76
f 62 57 49
f 62 49 42
f 62 41 29
f 29 32 62
f 87 78 62
f 62 32 40
f 42 33 62
f 64 57 62
f 62 82 87
f 62 75 69
f 62 69 64
f 74 82 62
f 33 41 62
f 40 47 62
f 62 47 55
f 78 75 62
f 62 68 74
f 51 58 72
f 72 43 51
f 1 3 72
f 3 10 72
f 35 43 72
f 72 4 1
f 72 21 35
f 58 66 72
f 52 44 72
f 72 10 21
f 72 66 70
f 70 77 72
f 72 91 90
f 90 88 72
f 77 85 72
f 11 4 72
f 72 81 79
f 72 22 11
f 85 91 72
f 72 59 52
f 72 88 81
f 72 44 36
f 67 59 72
f 36 22 72
f 60 59 67
f 60 53 59
f 52 59 45
f 59 53 45
f 45 44 52
f 45 37 44

