# https://github.com/mikedh/trimesh
v 0.00988656 -0.02619965 0.01522546
v 0.01043660 -0.03038901 0.01522546
v 0.00827135 -0.03038901 0.01750550
v 0.00826803 -0.02619965 0.01708181
v 0.02389337 -0.02619965 0.01522546
v 0.02411770 -0.03038901 0.01522546
v 0.00826803 -0.03038901 0.01992332
v 0.00826803 -0.02944788 0.01750654
v 0.00826803 -0.02619965 0.02580729
v 0.02402797 -0.02619965 0.01611841
v 0.02436863 -0.02772268 0.01623547
v 0.02399473 -0.02668477 0.01522546
v 0.02418584 -0.03002404 0.01522546
v 0.02427723 -0.03038901 0.01555488
v 0.00826803 -0.03038901 0.02580729
v 0.02297775 -0.02619965 0.02580729
v 0.02405954 -0.02619965 0.01642815
v 0.02415759 -0.02657980 0.01657318
v 0.02492697 -0.02944788 0.01796130
v 0.02447996 -0.02806059 0.01657318
v 0.02437029 -0.02772268 0.01624894
v 0.02458798 -0.02944747 0.01624998
v 0.02413931 -0.02772268 0.01522546
v 0.02422572 -0.02944747 0.01522546
v 0.02468270 -0.02976979 0.01657318
v 0.02463949 -0.03038901 0.01657318
v 0.01967920 -0.03038901 0.02580729
v 0.02257395 -0.02773786 0.02580729
v 0.02325858 -0.02773786 0.02512774
v 0.02352280 -0.02619965 0.02518575
v 0.02406785 -0.02619965 0.01657318
v 0.02410607 -0.02634523 0.01657318
v 0.02504329 -0.02944788 0.01967159
v 0.02521778 -0.03038901 0.01962083
v 0.02516626 -0.03038901 0.01886358
v 0.02500840 -0.03038901 0.01796130
v 0.02485884 -0.03038901 0.01719162
v 0.02466940 -0.02962504 0.01657318
v 0.02465278 -0.02944747 0.01657318
v 0.02454477 -0.02773786 0.01796130
v 0.02422405 -0.02840095 0.01522546
v 0.01987528 -0.03038901 0.02574100
v 0.02013451 -0.03012779 0.02580729
v 0.02220338 -0.02844565 0.02580729
v 0.02363746 -0.03038901 0.02391365
v 0.02449824 -0.03038901 0.02307974
v 0.02388008 -0.02619965 0.02433009
v 0.02523605 -0.03038901 0.02138085
v 0.02413931 -0.02619965 0.01796130
v 0.02524436 -0.03038901 0.02085357
v 0.02459462 -0.02773786 0.01967159
v 0.02458964 -0.02773786 0.02138085
v 0.02502335 -0.02944788 0.02138085
v 0.02022591 -0.03038901 0.02560218
v 0.02030235 -0.03029634 0.02565087
v 0.02067956 -0.02977513 0.02580729
v 0.02190094 -0.02880078 0.02580729
v 0.02212694 -0.02870769 0.02574514
v 0.02273846 -0.03038901 0.02441296
v 0.02408447 -0.02619965 0.02309114
v 0.02414429 -0.02619965 0.01813430
v 0.02415260 -0.02619965 0.01967159
v 0.02415260 -0.02619965 0.01984459
v 0.02415094 -0.02619965 0.02138085
v 0.02117144 -0.03038901 0.02515882
v 0.02117144 -0.02939498 0.02580729
f 4 1 3
f 3 1 2
f 8 3 7
f 4 3 8
f 46 28 45
f 45 28 44
f 16 28 29
f 28 46 29
f 29 30 16
f 46 30 29
f 33 53 50
f 50 53 48
f 47 30 48
f 48 30 46
f 48 60 47
f 48 53 60
f 64 60 52
f 60 53 52
f 53 33 52
f 58 44 57
f 45 44 58
f 59 58 57
f 45 58 59
f 22 24 41
f 37 19 36
f 19 35 36
f 34 33 50
f 34 35 19
f 19 33 34
f 40 33 19
f 5 11 12
f 10 11 5
f 64 52 51
f 51 52 33
f 51 40 49
f 33 40 51
f 66 59 57
f 13 14 6
f 25 19 37
f 24 22 25
f 25 13 24
f 49 40 31
f 23 12 11
f 23 22 41
f 11 22 23
f 18 10 17
f 18 17 19
f 19 10 18
f 20 10 19
f 19 39 20
f 20 22 11
f 20 39 22
f 42 54 55
f 42 43 27
f 55 43 42
f 65 59 55
f 55 54 65
f 55 59 56
f 59 66 56
f 56 43 55
f 26 25 37
f 14 13 26
f 13 25 26
f 38 25 22
f 22 39 38
f 19 25 38
f 38 39 19
f 17 31 32
f 32 31 40
f 19 17 32
f 32 40 19
f 11 10 21
f 21 20 11
f 10 20 21
f 64 51 63
f 51 62 63
f 61 51 49
f 61 62 51
f 8 9 4
f 8 15 9
f 7 15 8
f 23 1 5
f 23 6 2
f 2 1 23
f 5 12 23
f 41 24 23
f 23 13 6
f 24 13 23
f 56 16 9
f 9 15 56
f 57 44 56
f 56 28 16
f 15 27 56
f 56 44 28
f 27 43 56
f 56 66 57
f 26 15 7
f 26 3 2
f 2 6 26
f 7 3 26
f 26 27 15
f 37 36 26
f 45 59 26
f 26 46 45
f 50 48 26
f 6 14 26
f 26 48 46
f 26 34 50
f 59 65 26
f 26 36 35
f 35 34 26
f 26 42 27
f 54 42 26
f 26 65 54
f 9 16 61
f 4 9 61
f 61 1 4
f 5 1 61
f 47 60 61
f 61 30 47
f 61 60 64
f 49 31 61
f 16 30 61
f 61 10 5
f 17 10 61
f 61 31 17
f 64 63 61
f 61 63 62

