# https://github.com/mikedh/trimesh
v 0.00601203 -0.01403831 0.05415971
v 0.00601203 -0.03093913 0.05415971
v 0.00601203 -0.01403831 0.04608117
v -0.01857941 -0.01403831 0.05415971
v -0.01303499 -0.03093913 0.05415971
v 0.00601203 -0.03093913 0.05046047
v 0.00601203 -0.02989192 0.04608117
v -0.01932859 -0.01403831 0.04608117
v -0.01877291 -0.01403831 0.05218515
v -0.01857941 -0.02260452 0.05415971
v -0.01303499 -0.03093913 0.04608117
v -0.01474669 -0.03083490 0.05415971
v -0.01474669 -0.03083655 0.04941507
v 0.00235296 -0.03093913 0.04608117
v 0.00601203 -0.03091100 0.04898963
v 0.00601203 -0.03061653 0.04706015
v 0.00549356 -0.03057351 0.04608117
v -0.01932859 -0.01918664 0.04608117
v -0.01924673 -0.01403831 0.04703959
v -0.01877291 -0.02260452 0.05217013
v -0.01893664 -0.01403831 0.05047471
v -0.01903835 -0.02089724 0.04941507
v -0.01857197 -0.02431512 0.05415971
v -0.01474669 -0.03083655 0.04608117
v -0.01600690 -0.03051727 0.05415971
v -0.01600938 -0.03051727 0.05217013
v -0.01545370 -0.03065789 0.04608117
v 0.00310462 -0.03091431 0.04608117
v 0.00601203 -0.03090438 0.04875003
v 0.00601203 -0.03065954 0.04724440
v 0.00483368 -0.03075053 0.04608117
v -0.01929634 -0.02089724 0.04608117
v -0.01923681 -0.02089724 0.04703959
v -0.01909789 -0.02089724 0.04872789
v -0.01924673 -0.01405485 0.04703959
v -0.01909789 -0.01403831 0.04872789
v -0.01892920 -0.02260452 0.05046047
v -0.01902098 -0.01403831 0.04959141
v -0.01859678 -0.02431512 0.05388057
v -0.01844545 -0.02602571 0.05415971
v -0.01686275 -0.02991674 0.05415971
v -0.01686523 -0.02991674 0.04941507
v -0.01600938 -0.03051727 0.04941507
v -0.01600690 -0.03051727 0.04608117
v 0.00406218 -0.03086633 0.04608117
v -0.01914006 -0.02256647 0.04608117
v -0.01912517 -0.02257474 0.04703959
v -0.01907308 -0.02230839 0.04845112
v -0.01872826 -0.02431512 0.05217013
v -0.01846034 -0.02602571 0.05388057
v -0.01811800 -0.02773465 0.05415971
v -0.01748789 -0.02920041 0.05415971
v -0.01760697 -0.02906310 0.04608117
v -0.01686275 -0.02991839 0.04608117
v -0.01638397 -0.03025423 0.04608117
v -0.01909292 -0.02294201 0.04608117
v -0.01901850 -0.02343004 0.04703959
v -0.01881508 -0.02431512 0.05046047
v -0.01850995 -0.02602571 0.05217013
v -0.01760697 -0.02906144 0.05415971
v -0.01812048 -0.02773465 0.05388057
v -0.01760697 -0.02906310 0.04941507
v -0.01783271 -0.02847911 0.04608117
v -0.01901602 -0.02342177 0.04608117
v -0.01885477 -0.02431512 0.04608117
v -0.01885726 -0.02431512 0.04703959
v -0.01885229 -0.02431512 0.04875003
v -0.01883989 -0.02431512 0.04941507
v -0.01852236 -0.02602571 0.05046047
v -0.01812048 -0.02773465 0.04941507
v -0.01811800 -0.02773465 0.04608117
v -0.01866624 -0.02527298 0.04608117
v -0.01851739 -0.02602571 0.04703959
v -0.01829413 -0.02698358 0.04608117
v -0.01851491 -0.02602571 0.04608117
f 17 7 16
f 17 16 30
f 28 29 14
f 28 45 29
f 15 6 14
f 14 29 15
f 10 20 23
f 9 10 4
f 20 10 9
f 40 50 51
f 13 5 12
f 25 13 12
f 17 30 31
f 31 30 29
f 29 45 31
f 50 40 49
f 73 75 74
f 71 69 74
f 74 69 73
f 51 50 59
f 13 25 26
f 26 25 41
f 61 60 51
f 51 59 61
f 61 59 69
f 23 20 37
f 32 46 47
f 72 75 73
f 73 69 72
f 57 46 56
f 57 47 46
f 70 69 71
f 70 61 69
f 33 18 32
f 34 18 33
f 33 37 34
f 23 37 39
f 39 37 49
f 39 40 23
f 39 49 40
f 22 19 35
f 22 36 19
f 35 18 22
f 22 18 34
f 38 36 22
f 22 21 38
f 22 37 20
f 34 37 22
f 9 21 22
f 20 9 22
f 65 72 66
f 66 72 69
f 66 57 65
f 64 57 56
f 65 57 64
f 47 57 58
f 50 49 58
f 49 47 58
f 58 59 50
f 44 43 55
f 55 43 54
f 24 13 27
f 13 26 27
f 26 43 27
f 27 43 44
f 53 54 42
f 42 52 53
f 41 52 42
f 42 26 41
f 42 43 26
f 54 43 42
f 62 52 60
f 53 52 62
f 60 61 62
f 63 70 71
f 61 70 63
f 63 62 61
f 53 62 63
f 48 33 32
f 32 47 48
f 48 47 49
f 49 37 48
f 37 33 48
f 67 66 69
f 57 66 67
f 69 59 67
f 68 58 57
f 57 67 68
f 59 58 68
f 68 67 59
f 11 14 6
f 2 5 6
f 6 5 11
f 15 3 1
f 1 2 15
f 15 7 3
f 15 16 7
f 2 6 15
f 29 30 15
f 15 30 16
f 11 5 13
f 13 24 11
f 18 19 8
f 35 19 18
f 1 3 36
f 36 3 8
f 36 4 1
f 38 21 36
f 36 9 4
f 36 21 9
f 8 19 36
f 1 4 52
f 52 2 1
f 52 25 12
f 4 10 52
f 52 5 2
f 12 5 52
f 52 40 51
f 52 10 23
f 23 40 52
f 41 25 52
f 51 60 52
f 8 3 63
f 63 14 11
f 3 7 63
f 63 7 17
f 63 27 44
f 63 28 14
f 63 64 56
f 56 46 63
f 11 24 63
f 44 55 63
f 45 28 63
f 17 31 63
f 71 74 63
f 75 72 63
f 63 31 45
f 63 46 32
f 63 74 75
f 63 18 8
f 63 54 53
f 32 18 63
f 63 72 65
f 65 64 63
f 63 55 54
f 24 27 63

