# https://github.com/mikedh/trimesh
v 0.01529001 -0.00963232 0.04463686
v 0.01473547 -0.00963232 0.04373828
v 0.01277911 -0.00963232 0.04463686
v 0.01447517 -0.01030887 0.04463686
v 0.01471827 -0.00963232 0.04371857
v 0.01277911 -0.00963232 0.04363040
v 0.01277911 -0.01088657 0.04463686
v 0.01424141 -0.01045940 0.04463686
v 0.01464084 -0.00963232 0.04363040
v 0.01277911 -0.01048445 0.04363040
v 0.01388745 -0.01057985 0.04463686
v 0.01277911 -0.01053897 0.04374675
v 0.01391916 -0.01009694 0.04363040
v 0.01277911 -0.01052583 0.04371867
f 9 8 13
f 8 9 4
f 11 10 13
f 13 8 11
f 1 4 2
f 12 11 7
f 5 4 9
f 5 2 4
f 10 11 14
f 11 12 14
f 6 9 10
f 10 9 13
f 3 7 11
f 11 1 3
f 11 4 1
f 8 4 11
f 3 1 5
f 5 6 3
f 5 9 6
f 1 2 5
f 14 7 3
f 3 6 14
f 6 10 14
f 14 12 7

