# https://github.com/mikedh/trimesh
v -0.01051563 -0.02733668 0.00950391
v -0.01052826 -0.02733668 0.00950391
v -0.01052826 -0.02773350 0.00950391
v -0.01052826 -0.02782694 0.00949725
v -0.01012989 -0.02733668 0.00808526
v -0.01052826 -0.02733668 0.00808526
v -0.01052826 -0.02880073 0.00907279
v -0.01021148 -0.02751624 0.00808526
v -0.01052826 -0.02817189 0.00808526
v -0.01034770 -0.02780917 0.00808526
v -0.01031209 -0.02773752 0.00808526
f 5 1 4
f 4 7 5
f 3 1 2
f 3 4 1
f 7 9 10
f 10 11 7
f 5 7 8
f 7 11 8
f 6 1 5
f 2 1 6
f 2 6 3
f 3 9 7
f 7 4 3
f 6 9 3
f 8 6 5
f 8 9 6
f 8 10 9
f 11 10 8

