# https://github.com/mikedh/trimesh
v 0.01105922 -0.00518146 0.09011843
v 0.01106764 -0.00689431 0.09011843
v 0.01105922 -0.00378875 0.09151266
v 0.01105922 0.02355074 0.09011843
v 0.01112300 -0.00863685 0.09011843
v 0.01110013 -0.00549829 0.09151266
v 0.01106042 -0.00373594 0.09156653
v 0.01105922 -0.00202310 0.09156653
v 0.01105922 0.02355074 0.09151266
v 0.02278353 0.02355074 0.09011843
v 0.01120724 -0.01016488 0.09011843
v 0.01110736 -0.00545209 0.09156653
v 0.01105922 0.01673567 0.09156653
v 0.01107366 0.02355074 0.09156653
v 0.01106162 0.01844521 0.09156653
v 0.02296165 0.02354744 0.09011843
v 0.02267763 0.02355074 0.09092449
v 0.02157042 -0.01016488 0.09011843
v 0.01122289 -0.01016488 0.09018151
v 0.01147923 -0.01016488 0.09099948
v 0.01138055 -0.00749166 0.09156653
v 0.02245378 0.02355074 0.09156653
v 0.02269207 0.02186430 0.09151266
v 0.02299896 0.02326031 0.09011843
v 0.02151747 -0.01016488 0.09019782
v 0.02222030 -0.00854444 0.09011843
v 0.02204460 -0.00811871 0.09067952
v 0.01180658 -0.01016488 0.09116378
v 0.01184750 -0.00854775 0.09156653
v 0.02257413 0.02261346 0.09156653
v 0.02289185 0.02009865 0.09156653
v 0.02290629 0.02015476 0.09151266
v 0.02300016 0.02323721 0.09011843
v 0.02308922 0.01839241 0.09156653
v 0.02309764 0.01844521 0.09151266
v 0.02323364 0.01667956 0.09156653
v 0.02323604 0.01673567 0.09151266
v 0.02095424 -0.01016488 0.09065443
v 0.02249831 -0.00721113 0.09011843
v 0.02281362 -0.00378875 0.09151266
v 0.02278955 -0.00378875 0.09156653
v 0.02070271 -0.01016488 0.09085262
v 0.02234306 -0.00535308 0.09156653
v 0.01262013 -0.01016488 0.09138720
v 0.01232889 -0.00936621 0.09156653
v 0.02307839 0.02155077 0.09011843
v 0.02332269 0.01497002 0.09156653
v 0.02282565 -0.00548179 0.09011843
v 0.02314939 -0.00207920 0.09151266
v 0.02313134 -0.00207920 0.09156653
v 0.02113115 -0.00757746 0.09156653
v 0.01946072 -0.00921110 0.09156653
v 0.01946072 -0.01016488 0.09123934
v 0.01308708 -0.01016488 0.09140605
v 0.01326760 -0.00969294 0.09156653
v 0.01262013 -0.00961043 0.09156653
v 0.02315180 0.01983793 0.09011843
v 0.02335278 0.01331328 0.09151266
v 0.02332149 0.01502283 0.09151266
v 0.02335278 0.01326048 0.09156653
v 0.02306876 -0.00378875 0.09011843
v 0.02331066 -0.00036636 0.09151266
v 0.02330584 -0.00036636 0.09156653
v 0.01775057 -0.00966324 0.09156653
v 0.01775057 -0.01016488 0.09139216
v 0.01433028 -0.01016488 0.09142916
v 0.01433028 -0.00976885 0.09156653
v 0.01352635 -0.00972264 0.09156653
v 0.02321077 0.01812839 0.09011843
v 0.02324567 0.01470600 0.09011843
v 0.02324206 0.01641884 0.09011843
v 0.02335278 0.00989090 0.09151266
v 0.02324928 0.00305273 0.09011843
v 0.02335278 0.00978199 0.09156653
v 0.02319392 -0.00207920 0.09011843
v 0.02324206 -0.00036636 0.09011843
v 0.02335037 0.00134318 0.09151266
v 0.02334917 0.00134318 0.09156653
v 0.01604043 -0.00972924 0.09156653
v 0.01604043 -0.01016488 0.09141427
v 0.01479723 -0.01016488 0.09142689
v 0.01520641 -0.00975565 0.09156653
v 0.02324928 0.00134318 0.09011843
f 7 8 3
f 58 73 70
f 70 71 58
f 2 3 1
f 7 3 2
f 12 11 19
f 21 12 20
f 20 12 19
f 16 10 17
f 17 22 16
f 58 71 69
f 42 43 51
f 42 27 43
f 77 72 74
f 6 5 11
f 11 12 6
f 2 5 6
f 6 12 7
f 7 2 6
f 21 20 29
f 23 22 30
f 16 22 23
f 35 34 36
f 31 34 32
f 31 23 30
f 32 23 31
f 59 69 57
f 57 47 59
f 59 47 58
f 58 69 59
f 46 47 57
f 46 33 47
f 77 76 83
f 83 72 77
f 62 76 77
f 52 64 53
f 53 42 52
f 52 42 51
f 18 27 25
f 77 74 78
f 78 62 77
f 63 62 78
f 58 47 60
f 28 29 20
f 53 64 65
f 15 14 9
f 9 13 15
f 35 36 24
f 24 34 35
f 32 34 24
f 16 23 24
f 24 23 32
f 37 36 47
f 47 33 37
f 33 24 37
f 37 24 36
f 41 40 50
f 43 27 41
f 26 27 18
f 26 39 40
f 26 41 27
f 40 41 26
f 75 62 61
f 76 62 75
f 27 42 38
f 38 25 27
f 29 28 45
f 56 45 44
f 44 45 28
f 54 67 68
f 49 48 61
f 61 62 49
f 39 48 49
f 49 63 50
f 49 62 63
f 50 40 49
f 40 39 49
f 54 68 55
f 55 44 54
f 56 44 55
f 79 65 64
f 81 82 67
f 66 67 54
f 66 81 67
f 80 79 82
f 82 81 80
f 65 79 80
f 4 9 14
f 14 10 4
f 14 17 10
f 22 17 14
f 13 4 1
f 1 3 13
f 13 3 8
f 13 9 4
f 83 73 58
f 58 72 83
f 60 72 58
f 60 74 72
f 4 10 75
f 1 4 75
f 75 69 71
f 75 70 73
f 75 2 1
f 75 10 16
f 71 70 75
f 73 83 75
f 11 5 75
f 75 18 11
f 75 5 2
f 75 46 57
f 57 69 75
f 16 24 75
f 61 48 75
f 33 46 75
f 75 26 18
f 75 83 76
f 75 24 33
f 39 26 75
f 75 48 39
f 51 43 79
f 79 8 7
f 22 14 79
f 47 36 79
f 7 12 79
f 63 78 79
f 30 22 79
f 50 63 79
f 14 15 79
f 79 12 21
f 79 41 50
f 79 31 30
f 79 13 8
f 79 60 47
f 79 52 51
f 21 29 79
f 79 45 56
f 79 36 34
f 34 31 79
f 64 52 79
f 79 78 74
f 74 60 79
f 56 55 79
f 79 15 13
f 43 41 79
f 29 45 79
f 79 68 67
f 67 82 79
f 79 55 68
f 11 18 80
f 19 11 80
f 80 20 19
f 80 28 20
f 80 42 53
f 18 25 80
f 53 65 80
f 80 38 42
f 54 44 80
f 25 38 80
f 80 44 28
f 80 66 54
f 81 66 80

