# https://github.com/mikedh/trimesh
v -0.00538248 0.04084259 0.05856057
v -0.01541674 0.04084259 0.05856057
v -0.00538248 0.03480761 0.05856057
v -0.00538248 0.04084259 0.03493069
v -0.01600872 0.04027419 0.05856057
v -0.01542745 0.04084259 0.04361842
v -0.01810879 0.03480761 0.05856057
v -0.01906507 0.03480643 0.04019745
v -0.00538248 0.03480702 0.04854516
v -0.00538248 0.03510836 0.03493069
v -0.01490377 0.04084259 0.03493069
v -0.01600872 0.04027419 0.05729997
v -0.01685518 0.03921242 0.04874871
v -0.01685652 0.03921065 0.05387900
v -0.01623373 0.03998999 0.05856057
v -0.01542343 0.04084259 0.04190909
v -0.01600604 0.04026532 0.03677880
v -0.01600336 0.04027182 0.03848812
v -0.01810209 0.03510127 0.05856057
v -0.01813959 0.03480761 0.05826681
v -0.01899543 0.03480702 0.04809181
v -0.01888962 0.03480702 0.04854516
v -0.01906373 0.03480702 0.04361842
v -0.01874363 0.03566198 0.03677880
v -0.01874363 0.03566198 0.03506716
v -0.01906373 0.03480702 0.03493069
v -0.00711022 0.03480702 0.03493069
v -0.00617537 0.03480702 0.03539561
v -0.00538248 0.03480702 0.03592066
v -0.01902757 0.03480702 0.04703707
v -0.01905837 0.03480702 0.04533006
v -0.00538248 0.03490924 0.03556908
v -0.01600738 0.04023401 0.03493069
v -0.01493190 0.04084259 0.03506716
v -0.01685518 0.03921183 0.04361842
v -0.01746859 0.03835569 0.05216968
v -0.01746859 0.03835510 0.05387900
v -0.01686321 0.03919588 0.05729997
v -0.01686187 0.03917520 0.05856057
v -0.01539933 0.04084259 0.04019745
v -0.01600738 0.04023815 0.03506716
v -0.01686321 0.03918111 0.03493069
v -0.01685920 0.03919470 0.03848812
v -0.01808870 0.03555268 0.05856057
v -0.01830835 0.03480761 0.05655517
v -0.01860568 0.03480761 0.05313652
v -0.01835657 0.03555268 0.05559064
v -0.01848380 0.03555268 0.05387900
v -0.01858693 0.03555268 0.05216968
v -0.01786771 0.03726320 0.05729997
v -0.01794137 0.03726320 0.05559064
v -0.01881997 0.03528916 0.04854748
v -0.01846505 0.03480761 0.05484585
v -0.01873827 0.03565489 0.04533006
v -0.01873961 0.03566139 0.04361842
v -0.01874229 0.03566198 0.04019745
v -0.01803513 0.03726320 0.04854516
v -0.01802977 0.03726320 0.04190909
v -0.01807531 0.03713616 0.03493069
v -0.01874363 0.03566139 0.03493069
v -0.01873694 0.03561295 0.04703707
v -0.01799361 0.03726320 0.05387900
v -0.01607301 0.04015365 0.03493069
v -0.01532031 0.04084259 0.03848812
v -0.01513816 0.04084259 0.03678805
v -0.01746323 0.03835628 0.04361842
v -0.01746457 0.03835746 0.04533006
v -0.01739493 0.03845791 0.04854516
v -0.01745921 0.03834801 0.05559064
v -0.01803379 0.03726320 0.05046035
v -0.01744716 0.03834033 0.05729997
v -0.01742975 0.03831965 0.05856057
v -0.01744047 0.03832615 0.03493069
v -0.01788646 0.03681179 0.05856057
v -0.01820656 0.03555268 0.05729997
v -0.01779539 0.03726320 0.05856057
v -0.01754091 0.03803544 0.05856057
v -0.01802039 0.03726320 0.05216968
v -0.01801772 0.03726320 0.03493069
v -0.01748734 0.03824224 0.03493069
f 8 3 7
f 8 29 9
f 9 3 8
f 41 40 33
f 8 7 22
f 22 21 8
f 7 21 22
f 64 33 40
f 6 5 2
f 8 25 26
f 26 25 60
f 33 64 65
f 17 40 41
f 8 26 27
f 71 62 72
f 78 62 71
f 72 39 71
f 60 25 59
f 11 33 34
f 33 65 34
f 40 17 16
f 16 17 6
f 6 17 18
f 41 33 63
f 14 37 38
f 38 71 39
f 28 27 10
f 28 29 8
f 8 27 28
f 45 53 21
f 46 47 21
f 21 53 46
f 46 53 47
f 47 53 75
f 75 44 74
f 74 47 75
f 75 45 44
f 53 45 75
f 50 76 77
f 74 76 48
f 48 47 74
f 21 47 48
f 8 21 30
f 78 54 61
f 61 62 78
f 61 30 62
f 55 23 54
f 55 56 23
f 78 71 69
f 69 38 37
f 71 38 69
f 80 66 73
f 79 66 80
f 73 66 42
f 42 17 41
f 41 63 42
f 37 57 70
f 78 69 70
f 70 69 37
f 70 54 78
f 70 55 54
f 70 57 56
f 56 55 70
f 58 66 79
f 79 59 58
f 58 67 66
f 57 67 58
f 25 57 58
f 58 59 25
f 24 57 25
f 56 57 24
f 24 25 8
f 8 23 24
f 23 56 24
f 5 6 12
f 6 18 12
f 15 38 39
f 5 14 15
f 14 38 15
f 29 28 32
f 32 28 10
f 20 21 7
f 20 45 21
f 51 77 72
f 72 62 51
f 50 77 51
f 21 50 51
f 49 76 50
f 49 48 76
f 49 50 21
f 21 48 49
f 52 30 21
f 62 30 52
f 21 51 52
f 52 51 62
f 30 61 31
f 31 23 8
f 8 30 31
f 54 23 31
f 31 61 54
f 35 12 18
f 35 18 17
f 35 67 68
f 35 42 66
f 66 67 35
f 36 57 37
f 36 67 57
f 68 67 36
f 36 37 14
f 36 35 68
f 19 20 7
f 44 45 19
f 45 20 19
f 12 35 13
f 13 14 5
f 5 12 13
f 13 36 14
f 35 36 13
f 17 42 43
f 43 35 17
f 42 35 43
f 1 4 16
f 16 2 1
f 4 11 16
f 16 6 2
f 16 64 40
f 11 34 16
f 16 65 64
f 16 34 65
f 42 11 4
f 42 33 11
f 42 26 60
f 60 59 42
f 4 10 42
f 42 80 73
f 10 27 42
f 42 27 26
f 42 59 79
f 42 63 33
f 79 80 42
f 32 9 29
f 32 4 1
f 1 3 32
f 3 9 32
f 32 10 4
f 19 3 1
f 1 2 19
f 19 7 3
f 2 5 19
f 19 39 72
f 5 15 19
f 72 77 19
f 74 44 19
f 19 76 74
f 19 77 76
f 19 15 39

