# https://github.com/mikedh/trimesh
v -0.00725982 0.02772121 0.03688480
v -0.00725982 0.02870978 0.03660812
v -0.00549957 0.02772121 0.03784772
v -0.00725982 0.02772121 0.05856155
v -0.00725982 0.03307606 0.03630530
v -0.00589763 0.03307606 0.03714840
v -0.00549957 0.02840839 0.03777583
v -0.00549957 0.02772121 0.05856155
v -0.00725982 0.03307606 0.05856155
v -0.00549957 0.03307606 0.03767126
v -0.00549957 0.02870978 0.03776494
v -0.00549957 0.03307606 0.05856155
f 2 3 1
f 6 2 5
f 11 6 10
f 3 2 7
f 2 6 7
f 6 11 7
f 8 4 1
f 1 3 8
f 9 2 1
f 1 4 9
f 5 2 9
f 4 8 9
f 9 8 12
f 12 10 6
f 5 9 6
f 6 9 12
f 7 8 3
f 12 8 7
f 7 10 12
f 7 11 10

