# https://github.com/mikedh/trimesh
v 0.00235691 -0.00903088 0.08155375
v 0.00205302 -0.00903088 0.08155375
v 0.00406566 -0.00931242 0.08270452
v 0.00406566 -0.00903176 0.08155375
v 0.00064567 -0.00903176 0.08155375
v 0.00064567 -0.00931242 0.08270452
v 0.00577690 -0.00933347 0.08270452
v 0.00577690 -0.00906245 0.08155375
v 0.00034178 -0.00904403 0.08155375
v -0.00080901 -0.00937119 0.08270452
v 0.00708586 -0.00957204 0.08270452
v 0.00743832 -0.00947030 0.08155375
v -0.00106433 -0.00910718 0.08155375
v -0.00106433 -0.00938259 0.08270452
v 0.00792529 -0.01014654 0.08270452
v 0.00819928 -0.00993604 0.08155375
v -0.00125488 -0.00914315 0.08155375
v -0.00197475 -0.00955362 0.08270452
v 0.00859409 -0.01097977 0.08270452
v 0.00860655 -0.01067630 0.08155375
v -0.00232845 -0.00947995 0.08155375
v -0.00217028 -0.00961502 0.08270452
v 0.00860655 -0.01102977 0.08270452
v 0.00867504 -0.01095258 0.08155375
v -0.00312803 -0.01070261 0.08270452
v -0.00320524 -0.01052807 0.08155375
v 0.00886933 -0.01209105 0.08270452
v 0.00891915 -0.01234365 0.08270452
v 0.00894655 -0.01234365 0.08155375
v -0.00366357 -0.01139990 0.08248904
v -0.00343690 -0.01113590 0.08270452
v -0.00333228 -0.01070700 0.08155375
v 0.00897893 -0.01379699 0.08270452
v 0.00895901 -0.01264712 0.08155375
v -0.00367602 -0.01175512 0.08270452
v -0.00367851 -0.01135254 0.08155375
v -0.00372086 -0.01211210 0.08155375
v -0.00373207 -0.01233137 0.08155375
v 0.00898267 -0.01405310 0.08270452
v 0.00897520 -0.01405310 0.08155375
v -0.00370218 -0.01228839 0.08270452
v -0.00374078 -0.01405310 0.08155375
v -0.00374078 -0.01405310 0.08270452
v 0.00895527 -0.01550819 0.08270452
v 0.00896897 -0.01435745 0.08155375
v -0.00370965 -0.01574852 0.08270452
v -0.00368100 -0.01567923 0.08155375
v -0.00366232 -0.01708257 0.08270452
v 0.00865138 -0.01799124 0.08270452
v 0.00869373 -0.01633880 0.08155375
v -0.00366855 -0.01588184 0.08155375
v -0.00363492 -0.01664490 0.08208340
v -0.00343814 -0.01799124 0.08270452
v 0.00851065 -0.01799124 0.08244240
v 0.00851438 -0.01718432 0.08161897
v 0.00853805 -0.01701241 0.08155375
v -0.00279051 -0.01799124 0.08155375
v 0.00805980 -0.01799124 0.08174040
v 0.00849446 -0.01714748 0.08155375
v 0.00790411 -0.01799124 0.08155375
f 16 11 15
f 51 57 53
f 26 25 21
f 19 16 15
f 52 51 53
f 45 44 49
f 21 18 17
f 17 18 13
f 21 25 22
f 22 18 21
f 25 26 30
f 8 7 11
f 39 44 40
f 44 45 40
f 48 52 53
f 42 47 48
f 48 47 51
f 51 52 48
f 9 10 5
f 13 18 14
f 14 9 13
f 10 9 14
f 5 10 6
f 6 2 5
f 36 30 32
f 32 30 26
f 25 30 31
f 37 30 36
f 38 30 37
f 38 41 35
f 35 30 38
f 35 31 30
f 3 7 4
f 7 8 4
f 1 3 4
f 11 16 12
f 12 8 11
f 59 58 60
f 50 45 49
f 49 56 50
f 43 38 42
f 43 41 38
f 39 40 34
f 16 19 20
f 42 48 46
f 46 43 42
f 49 54 55
f 55 59 56
f 55 56 49
f 55 54 58
f 58 59 55
f 39 34 33
f 33 34 29
f 29 28 33
f 23 20 19
f 24 23 27
f 20 23 24
f 24 27 28
f 24 28 29
f 1 2 6
f 6 3 1
f 54 57 60
f 54 49 53
f 53 57 54
f 60 58 54
f 23 22 25
f 23 7 3
f 23 44 39
f 53 49 23
f 41 43 23
f 15 11 23
f 49 44 23
f 23 14 18
f 11 7 23
f 23 19 15
f 3 6 23
f 18 22 23
f 23 48 53
f 23 35 41
f 10 14 23
f 23 6 10
f 25 31 23
f 31 35 23
f 23 46 48
f 39 33 23
f 43 46 23
f 23 33 28
f 28 27 23
f 24 47 42
f 24 37 36
f 21 17 24
f 60 57 24
f 24 2 1
f 42 38 24
f 24 26 21
f 57 51 24
f 45 50 24
f 36 32 24
f 13 9 24
f 24 12 16
f 5 2 24
f 24 17 13
f 1 4 24
f 51 47 24
f 24 59 60
f 24 40 45
f 24 9 5
f 24 32 26
f 38 37 24
f 24 4 8
f 8 12 24
f 56 59 24
f 24 50 56
f 24 34 40
f 29 34 24
f 16 20 24

