# https://github.com/mikedh/trimesh
v -0.01132852 0.00476320 0.10352738
v -0.01303766 0.00476320 0.10319892
v -0.01132852 0.00305412 0.10340320
v -0.00961803 0.00305412 0.10330241
v -0.00961803 0.00476320 0.10340320
v -0.00961803 0.00647007 0.10336090
v -0.01132852 0.00647007 0.10346349
v -0.01399513 0.00476320 0.10273908
v -0.01395735 0.00336687 0.10269769
v -0.01320500 0.00289995 0.10298745
v -0.01303766 0.00647007 0.10313053
v -0.01396679 0.00647007 0.10270668
v -0.01279542 0.00134505 0.10285697
v -0.01243713 0.00027247 0.10271029
v -0.01132852 0.00134505 0.10305944
v -0.00961803 0.00134505 0.10297755
v -0.00873208 0.00040462 0.10265539
v -0.00861805 0.00134505 0.10277507
v -0.00849322 0.00305412 0.10292446
v -0.00846758 0.00476320 0.10296675
v -0.00847702 0.00647007 0.10295145
v -0.00856812 0.00818135 0.10283267
v -0.00961803 0.00818135 0.10310444
v -0.01132852 0.00818135 0.10318992
v -0.01309232 0.00808885 0.10287496
v -0.01437097 0.00647007 0.10177530
v -0.01439998 0.00476320 0.10177530
v -0.01425558 0.00289995 0.10194268
v -0.01429809 0.00134505 0.10165741
v -0.01388582 0.00222822 0.10262479
v -0.01391821 0.00745895 0.10265539
v -0.01423197 0.00808885 0.10188058
v -0.01365033 0.00134505 0.10251231
v -0.01132852 0.00019759 0.10273278
v -0.01301944 -0.00032659 0.10223784
v -0.01310379 -0.00216340 0.10137485
v -0.01257748 -0.00308181 0.10104189
v -0.01132852 -0.00207751 0.10173750
v -0.01132852 -0.00065695 0.10241242
v -0.00961803 0.00029890 0.10269138
v -0.00961803 -0.00055564 0.10234403
v -0.00961803 -0.00207751 0.10163851
v -0.00867945 -0.00303776 0.10100139
v -0.00854922 -0.00207751 0.10123176
v -0.00850334 -0.00024510 0.10180409
v -0.00831643 0.00134505 0.10177530
v -0.00819093 0.00305412 0.10177530
v -0.00817474 0.00647007 0.10177530
v -0.00816529 0.00476320 0.10177530
v -0.00826650 0.00818135 0.10177530
v -0.00850199 0.01160390 0.10134875
v -0.00868755 0.00928696 0.10269679
v -0.00961803 0.00949619 0.10276067
v -0.01132852 0.00959530 0.10280567
v -0.01255791 0.00942131 0.10275708
v -0.01369824 0.00859760 0.10252131
v -0.01425558 0.00989262 0.10147743
v -0.01473601 0.00989262 0.10006461
v -0.01477919 0.00818135 0.10006461
v -0.01477919 0.00134505 0.10006461
v -0.01470429 -0.00036623 0.10006461
v -0.01422387 -0.00036623 0.10139194
v -0.01406396 -0.00164804 0.10113097
v -0.01406058 0.01160390 0.10113997
v -0.01371713 -0.00278889 0.10081961
v -0.01132852 -0.00315669 0.10109948
v -0.01310379 -0.00348485 0.10017529
v -0.01132852 -0.00383944 0.10006461
v -0.00961803 -0.00312145 0.10106978
v -0.00961803 -0.00372932 0.10006461
v -0.00869834 -0.00470058 0.09767090
v -0.00854922 -0.00327562 0.10006461
v -0.00824828 -0.00207751 0.10006461
v -0.00815989 -0.00036623 0.10006461
v -0.00815989 0.00989262 0.10006461
v -0.00819970 0.01160390 0.10006461
v -0.00861602 0.01270951 0.10108148
v -0.00961803 0.01160390 0.10188239
v -0.00961803 0.01035073 0.10246011
v -0.01132852 0.01045204 0.10253211
v -0.01303766 0.01160390 0.10168171
v -0.01309232 0.00995209 0.10235303
v -0.01390336 0.01247385 0.10093030
v -0.01454100 0.01160390 0.10006461
v -0.01491144 0.01160390 0.09835571
v -0.01491009 -0.00036623 0.09835571
v -0.01486421 -0.00207751 0.09835571
v -0.01434330 -0.00216340 0.10017529
v -0.01415235 -0.00325139 0.09968035
v -0.01383859 -0.00463011 0.09746842
v -0.01317598 -0.00441647 0.09832782
v -0.01132852 -0.00447153 0.09871297
v -0.00961803 -0.00439665 0.09866167
v -0.00961803 -0.00474683 0.09780678
v -0.00961803 -0.00512785 0.09664502
v -0.00961870 -0.00588108 0.09433410
v -0.00900333 -0.00557935 0.09433410
v -0.00856947 -0.00485695 0.09664502
v -0.00848310 -0.00382843 0.09828642
v -0.00826785 -0.00378878 0.09664502
v -0.00815989 -0.00207751 0.09835571
v -0.00823749 -0.00378878 0.09613928
v -0.00816529 -0.00378878 0.09493433
v -0.00815922 -0.00207971 0.09613928
v -0.00815922 0.01210825 0.09613928
v -0.00815989 0.01160390 0.09835571
v -0.00817609 0.01331298 0.09664502
v -0.00830834 0.01331298 0.09835571
v -0.00853843 0.01329095 0.09992782
v -0.00873748 0.01418954 0.09926820
v -0.00961803 0.01372923 0.10019779
v -0.00961803 0.01287249 0.10119757
v -0.01132852 0.01160390 0.10199487
v -0.01303766 0.01270291 0.10109048
v -0.01301337 0.01362792 0.09996472
v -0.01356734 0.01408382 0.09900363
v -0.01414155 0.01283505 0.10006461
v -0.01438244 0.01343411 0.09840341
v -0.01500995 0.01160390 0.09664502
v -0.01501130 0.00818135 0.09664502
v -0.01501265 -0.00036623 0.09664502
v -0.01501265 -0.00207751 0.09664502
v -0.01477986 0.01331298 0.09664502
v -0.01482845 0.01331298 0.09613928
v -0.01494316 0.01331298 0.09493433
v -0.01496880 -0.00258406 0.09613928
v -0.01486286 -0.00378878 0.09493433
v -0.01435545 -0.00359057 0.09835571
v -0.01408825 -0.00482392 0.09632826
v -0.01303766 -0.00584364 0.09433410
v -0.01269826 -0.00472481 0.09773929
v -0.01132852 -0.00599340 0.09433410
v -0.00846960 -0.00525339 0.09433410
v -0.00853910 -0.00492743 0.09613928
v -0.00846758 -0.00509482 0.09493433
v -0.00816327 -0.00378878 0.09433410
v -0.00815922 -0.00207971 0.09433410
v -0.00815922 0.01331298 0.09493433
v -0.00817069 0.01331298 0.09613928
v -0.00820105 0.01391423 0.09433410
v -0.00850604 0.01552640 0.09433410
v -0.00847770 0.01457055 0.09664502
v -0.00860995 0.01433269 0.09835571
v -0.00961803 0.01421597 0.09934289
v -0.00866798 0.01578409 0.09433410
v -0.00881710 0.01592504 0.09433410
v -0.00961870 0.01623778 0.09433410
v -0.01089398 0.01644922 0.09433410
v -0.01132852 0.01650648 0.09433410
v -0.01132852 0.01377328 0.10024368
v -0.01132852 0.01291874 0.10123806
v -0.01242769 0.01421156 0.09932939
v -0.01303766 0.01607260 0.09433410
v -0.01402887 0.01429525 0.09786437
v -0.01422117 0.01451329 0.09664502
v -0.01503627 0.01160390 0.09493433
v -0.01503964 0.00989262 0.09493433
v -0.01504504 0.00647227 0.09493433
v -0.01504707 0.00476540 0.09493433
v -0.01505111 0.00134505 0.09493433
v -0.01495530 0.01331298 0.09433410
v -0.01505179 -0.00036843 0.09493433
v -0.01502480 -0.00207751 0.09613928
v -0.01501940 -0.00267877 0.09433410
v -0.01489660 -0.00378878 0.09433410
v -0.01436354 0.01504628 0.09433410
v -0.01468135 -0.00435921 0.09433410
v -0.01428325 -0.00506398 0.09493433
v -0.01411456 -0.00485695 0.09613928
v -0.01428865 -0.00522256 0.09433410
v -0.00815922 0.01331298 0.09433410
v -0.01132852 0.01423359 0.09938969
v -0.01403562 0.01557706 0.09433410
v -0.01423669 0.01465865 0.09613928
v -0.01502682 0.01160390 0.09433410
v -0.01503492 0.00647227 0.09433410
v -0.01503695 0.00476540 0.09433410
v -0.01504099 0.00134505 0.09433410
v -0.01504167 0.00074379 0.09433410
v -0.01504302 -0.00096749 0.09433410
v -0.01505179 -0.00207971 0.09493433
v -0.01504302 -0.00207971 0.09433410
v -0.01427718 0.01505288 0.09476515
f 136 103 133
f 77 52 51
f 78 52 77
f 143 108 142
f 139 140 107
f 141 107 140
f 141 143 142
f 142 108 141
f 108 107 141
f 149 144 110
f 6 21 22
f 22 51 52
f 116 83 115
f 179 160 178
f 89 87 128
f 100 102 73
f 73 102 103
f 89 128 90
f 5 19 20
f 20 21 5
f 5 21 6
f 5 6 1
f 172 144 149
f 172 150 144
f 114 150 115
f 115 83 114
f 108 143 109
f 109 110 77
f 143 110 109
f 76 107 108
f 77 51 76
f 76 109 77
f 108 109 76
f 143 141 145
f 146 110 145
f 145 110 143
f 147 110 146
f 144 150 111
f 111 110 144
f 77 110 111
f 138 171 140
f 138 140 139
f 104 136 137
f 23 22 52
f 6 22 23
f 52 78 79
f 1 6 7
f 6 23 7
f 7 23 24
f 153 116 149
f 86 87 60
f 122 87 86
f 122 165 126
f 126 87 122
f 156 119 161
f 120 160 162
f 120 119 160
f 162 160 180
f 180 160 179
f 127 128 87
f 127 126 165
f 87 126 127
f 29 62 30
f 88 87 89
f 60 87 61
f 61 29 60
f 62 29 61
f 87 88 61
f 61 88 62
f 2 3 1
f 1 7 2
f 2 7 11
f 135 102 100
f 133 103 135
f 103 102 135
f 47 49 20
f 20 19 47
f 100 73 72
f 72 73 43
f 149 116 152
f 152 172 149
f 150 172 152
f 115 150 152
f 152 116 115
f 150 114 151
f 20 49 48
f 48 21 20
f 76 48 75
f 75 48 49
f 149 110 148
f 110 147 148
f 24 23 53
f 53 23 52
f 52 79 53
f 125 166 161
f 124 166 125
f 161 119 125
f 154 153 173
f 116 153 154
f 175 156 161
f 119 120 85
f 120 121 85
f 85 86 60
f 60 59 85
f 85 121 122
f 122 86 85
f 124 125 85
f 85 125 119
f 164 181 182
f 164 165 122
f 167 127 165
f 60 29 27
f 27 59 60
f 26 59 27
f 63 88 89
f 62 88 63
f 30 62 63
f 13 14 3
f 16 3 15
f 3 14 15
f 58 59 26
f 84 85 58
f 58 85 59
f 84 58 57
f 26 32 57
f 57 58 26
f 55 82 56
f 56 82 83
f 12 32 26
f 12 2 11
f 100 98 134
f 134 135 100
f 134 98 133
f 133 135 134
f 133 98 97
f 71 72 43
f 98 72 71
f 96 97 71
f 71 97 98
f 74 47 73
f 49 47 74
f 74 75 49
f 99 98 100
f 100 72 99
f 99 72 98
f 170 169 168
f 168 169 128
f 128 127 168
f 168 167 170
f 127 167 168
f 170 130 129
f 129 169 170
f 129 130 90
f 129 90 128
f 128 169 129
f 112 78 77
f 77 111 112
f 112 111 150
f 150 151 112
f 113 151 114
f 78 112 113
f 113 112 151
f 50 22 21
f 21 48 50
f 51 22 50
f 50 76 51
f 50 48 76
f 107 76 106
f 76 75 106
f 139 107 106
f 106 138 139
f 105 138 106
f 106 75 105
f 155 154 173
f 84 83 117
f 83 116 117
f 116 154 117
f 160 119 159
f 119 158 159
f 119 156 157
f 157 158 119
f 156 175 157
f 157 175 176
f 176 158 157
f 162 181 163
f 122 121 163
f 163 164 122
f 181 164 163
f 163 120 162
f 163 121 120
f 28 27 29
f 30 63 33
f 33 13 30
f 14 13 33
f 43 73 44
f 44 17 43
f 44 18 17
f 16 17 4
f 17 18 4
f 4 3 16
f 19 5 4
f 4 18 19
f 4 5 1
f 1 3 4
f 3 2 10
f 10 13 3
f 30 13 10
f 34 15 14
f 55 56 25
f 11 7 25
f 25 24 55
f 25 7 24
f 64 56 83
f 64 83 84
f 84 57 64
f 27 28 9
f 9 29 30
f 9 28 29
f 30 10 9
f 9 10 2
f 26 27 8
f 8 12 26
f 27 9 8
f 2 12 8
f 8 9 2
f 31 57 32
f 32 12 31
f 31 64 57
f 56 64 31
f 31 25 56
f 31 12 11
f 11 25 31
f 131 130 132
f 132 92 131
f 90 130 131
f 94 92 132
f 94 71 93
f 93 92 94
f 89 90 67
f 70 71 43
f 93 71 70
f 101 73 103
f 101 74 73
f 103 136 101
f 104 74 101
f 101 136 104
f 81 113 114
f 81 82 55
f 81 114 83
f 83 82 81
f 80 53 79
f 80 81 55
f 113 81 80
f 80 79 78
f 78 113 80
f 173 166 183
f 123 166 124
f 123 155 166
f 124 85 123
f 43 17 42
f 17 41 42
f 14 33 35
f 35 33 63
f 35 36 14
f 46 47 19
f 19 18 46
f 73 47 46
f 46 44 73
f 39 42 41
f 38 42 39
f 14 38 39
f 39 34 14
f 16 15 40
f 15 34 40
f 40 17 16
f 34 39 40
f 40 41 17
f 40 39 41
f 132 96 95
f 95 94 132
f 96 71 95
f 71 94 95
f 91 131 92
f 90 131 91
f 91 67 90
f 69 70 43
f 43 42 69
f 69 42 38
f 24 53 54
f 53 80 54
f 55 24 54
f 54 80 55
f 174 155 173
f 173 183 174
f 166 155 174
f 174 183 166
f 118 117 154
f 154 155 118
f 155 123 118
f 84 117 118
f 118 85 84
f 118 123 85
f 65 63 89
f 89 67 65
f 65 35 63
f 36 35 65
f 18 44 45
f 45 46 18
f 44 46 45
f 68 91 92
f 67 91 68
f 70 69 68
f 68 92 93
f 93 70 68
f 37 65 67
f 67 68 37
f 36 65 37
f 37 38 14
f 14 36 37
f 66 68 69
f 66 37 68
f 66 69 38
f 38 37 66
f 137 138 105
f 137 105 104
f 171 138 137
f 181 180 182
f 162 180 181
f 97 136 133
f 179 178 97
f 146 145 97
f 97 137 136
f 140 171 97
f 97 180 179
f 97 141 140
f 97 153 149
f 149 148 97
f 165 164 97
f 170 167 97
f 97 177 176
f 97 130 170
f 161 166 97
f 97 175 161
f 97 145 141
f 97 147 146
f 171 137 97
f 173 153 97
f 97 166 173
f 178 177 97
f 182 180 97
f 97 96 132
f 132 130 97
f 97 148 147
f 176 175 97
f 97 164 182
f 97 167 165
f 104 105 74
f 105 75 74
f 159 177 178
f 159 178 160
f 176 177 159
f 159 158 176

