# https://github.com/mikedh/trimesh
v 0.01092785 -0.03109177 0.02581164
v 0.01092785 -0.03106964 0.02580833
v 0.01198429 -0.03109361 0.02580833
v 0.01604070 -0.03109361 0.02580833
v 0.01604070 -0.03077654 0.02611135
v 0.01092785 -0.03077654 0.02611135
v 0.01092785 -0.01226285 0.02580833
v 0.01774972 -0.03098669 0.02580833
v 0.01092785 -0.03076179 0.02611849
v 0.01774972 -0.03071939 0.02605937
v 0.01774972 -0.02944742 0.02670071
v 0.01604070 -0.02944742 0.02675269
v 0.01092785 -0.01226285 0.02715940
v 0.02173269 -0.01226285 0.02580833
v 0.01898026 -0.03067699 0.02580833
v 0.01092785 -0.02944742 0.02675269
v 0.01916265 -0.03054242 0.02589086
v 0.01962455 -0.02961333 0.02628289
v 0.02117131 -0.02773670 0.02658313
v 0.01946111 -0.02773670 0.02690572
v 0.01433050 -0.02666382 0.02715940
v 0.01840585 -0.01226285 0.02715940
v 0.01092785 -0.02666382 0.02715940
v 0.02302719 -0.02602599 0.02580833
v 0.02132054 -0.01226285 0.02614084
v 0.02264346 -0.02431528 0.02617391
v 0.01921950 -0.03061431 0.02580833
v 0.01955822 -0.03045762 0.02580833
v 0.02117131 -0.02910085 0.02600964
v 0.02013500 -0.03012765 0.02580833
v 0.02068217 -0.02977555 0.02580833
v 0.02190206 -0.02880037 0.02580833
v 0.02220288 -0.02844459 0.02580833
v 0.02240541 -0.02773670 0.02597670
v 0.02269676 -0.02602599 0.02619401
v 0.02117131 -0.02602599 0.02683536
v 0.01952388 -0.02266908 0.02715940
v 0.01781604 -0.02437980 0.02715940
v 0.01609281 -0.02607761 0.02715940
v 0.01845914 -0.01226285 0.02715372
v 0.01956651 -0.01735813 0.02715940
v 0.02257595 -0.02773670 0.02580833
v 0.01953927 -0.01226285 0.02688892
v 0.02117131 -0.02431528 0.02681539
v 0.02117131 -0.02939396 0.02580833
v 0.01956770 -0.01930664 0.02715940
v 0.01946111 -0.01226285 0.02691114
f 24 14 26
f 1 2 3
f 3 4 1
f 1 4 5
f 25 26 14
f 41 40 22
f 1 5 6
f 8 5 4
f 30 31 18
f 41 25 43
f 24 26 35
f 41 36 44
f 44 25 41
f 26 25 44
f 44 35 26
f 36 35 44
f 11 12 5
f 9 6 5
f 5 12 9
f 9 12 16
f 28 30 18
f 18 31 29
f 47 40 41
f 41 43 47
f 24 35 42
f 19 35 36
f 19 32 33
f 19 29 32
f 18 29 19
f 19 11 18
f 46 36 41
f 46 37 36
f 18 11 10
f 5 8 10
f 10 11 5
f 45 29 31
f 32 29 45
f 33 42 34
f 34 19 33
f 34 42 35
f 35 19 34
f 20 19 36
f 11 19 20
f 20 38 39
f 39 21 20
f 37 38 20
f 36 37 20
f 21 12 20
f 12 11 20
f 15 10 8
f 17 15 27
f 10 15 17
f 18 10 17
f 27 28 17
f 17 28 18
f 23 16 12
f 12 21 23
f 9 13 7
f 9 2 1
f 7 2 9
f 9 23 13
f 9 16 23
f 1 6 9
f 7 13 47
f 47 14 7
f 47 25 14
f 13 22 47
f 47 22 40
f 47 43 25
f 13 23 46
f 46 21 39
f 46 22 13
f 23 21 46
f 41 22 46
f 39 38 46
f 46 38 37
f 15 2 7
f 15 14 24
f 7 14 15
f 15 28 27
f 15 45 31
f 15 3 2
f 4 3 15
f 33 32 15
f 15 8 4
f 31 30 15
f 24 42 15
f 30 28 15
f 15 42 33
f 32 45 15

