# https://github.com/mikedh/trimesh
v -0.00597523 -0.03094078 0.03201989
v -0.00449146 -0.03094078 0.03201989
v -0.00597523 -0.03094078 0.03653435
v -0.00597523 0.00034209 0.03201989
v 0.00235505 -0.03093757 0.03201989
v -0.00449146 -0.03094078 0.03653435
v -0.00597523 0.00184734 0.03653435
v 0.00617810 0.00020730 0.03201989
v 0.00272985 -0.03092152 0.03201989
v 0.00235505 -0.03093757 0.03653435
v 0.00617810 0.00163552 0.03653435
v 0.00617810 -0.02782758 0.03201989
v 0.00406489 -0.03085412 0.03201989
v 0.00382454 -0.03086696 0.03653435
v 0.00617810 -0.02786609 0.03653435
v 0.00617810 -0.02783079 0.03213169
v 0.00514172 -0.03053317 0.03201989
v 0.00406489 -0.03085412 0.03653435
v 0.00514172 -0.03053317 0.03653435
v 0.00617810 -0.02786609 0.03506503
v 0.00617810 -0.02786288 0.03335575
f 8 7 11
f 4 7 8
f 17 12 16
f 16 21 17
f 17 21 20
f 9 10 5
f 10 9 14
f 14 13 18
f 14 9 13
f 4 3 7
f 1 3 4
f 2 3 1
f 2 6 3
f 10 2 5
f 6 2 10
f 19 13 17
f 18 13 19
f 11 15 20
f 20 12 8
f 8 11 20
f 20 16 12
f 21 16 20
f 15 19 20
f 20 19 17
f 1 4 9
f 9 4 8
f 8 12 9
f 9 2 1
f 9 12 17
f 5 2 9
f 17 13 9
f 7 3 14
f 14 11 7
f 14 15 11
f 3 6 14
f 6 10 14
f 14 19 15
f 18 19 14

