# https://github.com/mikedh/trimesh
v -0.00205985 -0.02785528 0.04181131
v 0.00565103 -0.02785528 0.04181131
v -0.00205985 -0.02785528 0.04291142
v -0.00205985 0.00366505 0.04181131
v 0.00554216 -0.02785528 0.04291142
v 0.00571233 -0.02765158 0.04181131
v -0.00205985 0.00367431 0.04291142
v -0.00205582 0.00367431 0.04181131
v 0.00617929 -0.02608375 0.04181131
v 0.00617929 -0.02605289 0.04185470
v 0.00572846 -0.02705901 0.04291142
v 0.00617929 0.00367431 0.04291142
v 0.00617929 0.00367431 0.04181131
v 0.00617929 -0.02441406 0.04291142
f 7 8 4
f 6 5 2
f 9 5 6
f 14 11 10
f 10 11 5
f 10 5 9
f 4 3 7
f 1 3 4
f 7 12 13
f 13 8 7
f 1 2 5
f 5 3 1
f 1 4 6
f 6 2 1
f 6 13 9
f 6 4 8
f 8 13 6
f 11 12 7
f 7 3 11
f 11 14 12
f 3 5 11
f 12 14 10
f 9 13 10
f 10 13 12

