# https://github.com/mikedh/trimesh
v 0.01092785 -0.01226285 0.02580820
v 0.01263612 -0.01226285 0.02580820
v 0.01092785 -0.01226285 0.02838041
v 0.01092785 0.00053471 0.02580820
v 0.01263612 -0.01226285 0.02838041
v 0.01410376 -0.01226153 0.02580820
v 0.01092785 0.00011192 0.02838041
v 0.01410376 0.00127690 0.02580946
v 0.01265197 0.00055724 0.02580820
v 0.01410376 -0.01226153 0.02838041
v 0.01410376 -0.00052822 0.02580820
v 0.01410376 0.00085014 0.02838041
f 11 9 8
f 8 9 4
f 7 12 8
f 8 4 7
f 11 10 6
f 8 12 11
f 11 12 10
f 4 2 1
f 4 11 6
f 6 2 4
f 9 11 4
f 1 2 5
f 5 3 1
f 6 10 5
f 5 2 6
f 10 12 7
f 3 5 7
f 7 5 10
f 7 4 1
f 1 3 7

