# https://github.com/mikedh/trimesh
v -0.00374078 0.01673747 0.02480206
v -0.00374078 0.01673747 0.02580744
v -0.00374078 0.01844755 0.02480206
v -0.00368413 0.01844755 0.02358146
v -0.00368413 0.01673747 0.02362239
v -0.00371739 0.01502739 0.02480206
v -0.00372970 0.01502739 0.02580744
v -0.00374078 0.01945055 0.02580744
v -0.00362379 0.01232210 0.02580792
v -0.00373832 0.02116063 0.02580744
v -0.00373832 0.02015608 0.02480206
v -0.00368413 0.02015608 0.02368209
v -0.00353388 0.01844755 0.02272727
v -0.00349694 0.01673747 0.02276820
v -0.00366320 0.01502739 0.02380102
v -0.00363610 0.01413809 0.02392814
v -0.00366320 0.01346839 0.02494074
v -0.00369645 0.01338429 0.02580744
v -0.00357452 0.01219595 0.02580792
v 0.00860063 0.01232210 0.02580792
v 0.00064725 0.02598094 0.02580744
v -0.00106461 0.02588749 0.02580744
v -0.00262500 0.02505737 0.02580744
v -0.00349694 0.02397962 0.02580744
v -0.00367182 0.02316351 0.02580744
v -0.00368783 0.02279907 0.02580744
v -0.00372231 0.02186149 0.02580744
v -0.00364842 0.01238907 0.02580744
v -0.00364226 0.01242645 0.02560328
v -0.00369522 0.02185526 0.02481073
v -0.00366566 0.02127744 0.02382462
v -0.00341935 0.02015608 0.02282791
v -0.00267672 0.01844755 0.02163041
v -0.00264101 0.01673747 0.02167038
v -0.00325678 0.01502739 0.02294684
v -0.00278140 0.01347462 0.02320011
v -0.00344891 0.01299648 0.02446309
v -0.00361147 0.01232210 0.02569525
v -0.00358068 0.01232210 0.02562688
v -0.00310777 0.01153403 0.02580792
v 0.00858339 0.01220997 0.02580792
v 0.00860802 0.01319116 0.02467591
v 0.00873980 0.01326903 0.02580744
v 0.00881985 0.01402128 0.02580744
v 0.00884078 0.01573136 0.02580744
v 0.00884078 0.01844755 0.02580744
v 0.00883955 0.02015608 0.02580744
v 0.00881492 0.02186616 0.02580744
v 0.00865851 0.02355132 0.02580744
v 0.00851689 0.02424750 0.02580744
v 0.00844053 0.02460104 0.02580744
v 0.00811540 0.02490318 0.02580744
v 0.00746267 0.02532525 0.02580744
v 0.00595894 0.02589995 0.02580744
v 0.00577667 0.02595914 0.02580744
v 0.00406604 0.02598094 0.02580744
v 0.00064725 0.02535640 0.02480206
v -0.00106461 0.02527541 0.02480206
v -0.00199813 0.02448890 0.02388528
v -0.00235528 0.02481285 0.02480206
v -0.00326540 0.02354976 0.02481073
v -0.00357822 0.02241750 0.02424641
v -0.00366566 0.02295949 0.02538709
v -0.00352403 0.01232210 0.02550650
v -0.00292919 0.02197207 0.02304747
v -0.00228016 0.02152508 0.02199106
v -0.00256465 0.02015608 0.02175994
v -0.00106461 0.01844755 0.02095631
v -0.00106461 0.01673747 0.02103528
v -0.00240332 0.01502739 0.02188802
v -0.00211390 0.01395120 0.02210854
v -0.00238238 0.01232366 0.02354679
v -0.00230849 0.01211185 0.02361083
v -0.00311885 0.01232210 0.02470143
v -0.00281342 0.01169912 0.02492148
v -0.00217671 0.01057153 0.02538035
v -0.00261637 0.01088614 0.02580792
v 0.00852181 0.01186421 0.02580792
v 0.00855260 0.01232210 0.02541790
v 0.00850703 0.01232210 0.02507122
v 0.00847871 0.01367864 0.02365224
v 0.00853905 0.01514420 0.02308695
v 0.00881862 0.01502739 0.02480206
v 0.00884078 0.01673747 0.02480206
v 0.00884078 0.01844755 0.02480206
v 0.00883955 0.02015608 0.02480206
v 0.00877921 0.02186616 0.02480206
v 0.00853536 0.02351550 0.02487718
v 0.00841343 0.02454341 0.02549735
v 0.00741957 0.02485179 0.02487718
v 0.00680625 0.02453251 0.02383954
v 0.00577667 0.02533616 0.02480206
v 0.00406604 0.02535640 0.02480206
v 0.00064725 0.02460416 0.02376347
v -0.00106461 0.02456210 0.02380921
v -0.00103875 0.02342361 0.02283080
v -0.00159172 0.02266513 0.02226985
v -0.00236760 0.02357624 0.02349768
v -0.00106461 0.02015608 0.02121440
v -0.00103875 0.02200321 0.02190150
v 0.00064725 0.02015608 0.02114650
v 0.00064725 0.01844755 0.02088938
v 0.00064725 0.01673747 0.02096739
v 0.00064725 0.01502739 0.02139496
v -0.00106461 0.01502739 0.02146670
v -0.00106461 0.01377520 0.02200646
v -0.00106461 0.01292016 0.02254479
v -0.00106338 0.01189381 0.02339945
v -0.00106338 0.01103877 0.02432778
v -0.00106338 0.01044538 0.02518293
v -0.00175675 0.01027873 0.02580792
v -0.00229371 0.01047185 0.02580792
v 0.00808091 0.01105745 0.02580792
v 0.00848240 0.01212119 0.02516223
v 0.00839742 0.01232366 0.02461235
v 0.00830383 0.01253859 0.02402155
v 0.00836787 0.01579366 0.02220436
v 0.00866960 0.01673747 0.02309273
v 0.00870039 0.01844755 0.02309273
v 0.00858093 0.02019657 0.02298584
v 0.00852920 0.02186616 0.02348371
v 0.00842698 0.02290498 0.02379284
v 0.00794668 0.02404503 0.02435716
v 0.00577667 0.02459325 0.02377502
v 0.00729888 0.02339090 0.02324681
v 0.00665231 0.02273521 0.02222748
v 0.00406604 0.02460416 0.02376347
v 0.00064725 0.02362296 0.02290928
v -0.00045130 0.02275235 0.02221640
v 0.00064725 0.02186616 0.02176716
v 0.00406604 0.02015608 0.02114650
v 0.00406604 0.01844755 0.02088938
v 0.00406604 0.01673747 0.02096739
v 0.00406604 0.01502739 0.02139496
v 0.00064725 0.01371135 0.02196939
v 0.00064725 0.01285631 0.02250193
v 0.00064602 0.01232210 0.02295551
v 0.00064602 0.01185020 0.02335660
v 0.00064602 0.01099516 0.02426952
v 0.00064602 0.01040800 0.02512467
v -0.00025918 0.01010585 0.02580792
v -0.00106338 0.01014012 0.02580792
v 0.00722129 0.01044070 0.02580792
v 0.00700946 0.01053415 0.02532112
v 0.00765726 0.01152469 0.02467158
v 0.00816589 0.01232210 0.02416022
v 0.00762154 0.01321297 0.02304073
v 0.00807845 0.01465205 0.02251301
v 0.00716341 0.01206824 0.02356749
v 0.00749962 0.01514420 0.02189572
v 0.00748607 0.01673747 0.02151100
v 0.00842082 0.01673747 0.02212877
v 0.00845161 0.01844755 0.02208639
v 0.00840851 0.01965614 0.02214803
v 0.00826934 0.02079619 0.02234400
v 0.00787648 0.02186616 0.02262953
v 0.00577667 0.02361050 0.02292036
v 0.00406604 0.02362296 0.02290928
v 0.00702055 0.02186616 0.02201995
v 0.00577667 0.02015608 0.02116432
v 0.00577667 0.02186616 0.02178498
v 0.00577667 0.02275546 0.02221447
v 0.00064725 0.02276636 0.02220581
v 0.00406604 0.02186616 0.02176716
v 0.00577667 0.01844755 0.02090623
v 0.00577667 0.01673747 0.02098424
v 0.00577667 0.01502739 0.02141374
v 0.00577667 0.01372692 0.02197902
v 0.00406604 0.01371135 0.02196939
v 0.00406604 0.01285631 0.02250193
v 0.00406481 0.01232210 0.02295551
v 0.00406481 0.01185020 0.02335660
v 0.00406481 0.01099516 0.02426952
v 0.00406481 0.01040800 0.02512467
v 0.00064602 0.01007159 0.02580792
v 0.00577544 0.01008872 0.02580792
v 0.00577544 0.01041734 0.02513863
v 0.00577544 0.01100606 0.02428397
v 0.00693803 0.01388578 0.02207195
v 0.00577544 0.01186110 0.02336719
v 0.00577544 0.01232210 0.02297717
v 0.00577667 0.01287188 0.02251252
v 0.00748607 0.01844755 0.02142915
v 0.00761416 0.02019657 0.02176186
v 0.00406604 0.02276636 0.02220581
v 0.00406481 0.01007159 0.02580792
f 68 34 33
f 30 31 11
f 95 57 94
f 20 55 56
f 92 91 124
f 55 91 92
f 92 56 55
f 121 154 155
f 155 159 156
f 121 87 120
f 120 154 121
f 22 9 21
f 23 9 22
f 25 9 24
f 24 9 23
f 47 48 20
f 20 48 49
f 49 48 87
f 87 88 49
f 67 32 66
f 33 32 67
f 66 99 67
f 67 68 33
f 67 99 68
f 33 34 13
f 13 32 33
f 31 32 13
f 66 32 65
f 183 165 160
f 124 91 126
f 126 160 161
f 159 160 126
f 91 125 126
f 156 159 126
f 54 91 55
f 54 55 20
f 20 53 54
f 52 20 51
f 52 53 20
f 156 126 122
f 122 126 125
f 122 155 156
f 121 155 122
f 122 87 121
f 122 88 87
f 184 154 183
f 184 155 154
f 159 155 184
f 183 160 184
f 184 160 159
f 87 48 86
f 48 47 86
f 154 120 119
f 119 83 118
f 119 120 87
f 87 86 119
f 21 57 58
f 58 22 21
f 57 95 58
f 95 59 58
f 58 59 22
f 25 24 63
f 63 30 25
f 31 30 63
f 62 24 61
f 31 63 62
f 62 63 24
f 62 32 31
f 62 65 32
f 11 3 10
f 28 9 18
f 29 9 28
f 28 18 29
f 46 20 45
f 46 47 20
f 51 20 50
f 20 49 50
f 14 13 34
f 13 14 5
f 112 76 111
f 77 76 112
f 77 40 76
f 102 68 101
f 68 99 101
f 128 95 94
f 128 129 95
f 56 92 93
f 93 92 124
f 124 127 93
f 60 24 23
f 23 22 60
f 22 59 60
f 61 24 60
f 60 59 61
f 162 126 161
f 100 99 66
f 129 100 97
f 97 100 66
f 130 100 129
f 130 101 99
f 99 100 130
f 91 54 90
f 90 54 53
f 103 68 102
f 118 83 82
f 88 122 89
f 51 50 89
f 89 49 88
f 89 50 49
f 89 52 51
f 53 52 89
f 89 90 53
f 45 20 44
f 45 44 84
f 84 44 83
f 83 119 84
f 154 119 153
f 153 119 118
f 183 154 153
f 65 62 98
f 66 65 98
f 61 59 98
f 98 62 61
f 98 97 66
f 59 97 98
f 27 10 9
f 27 30 11
f 11 10 27
f 8 2 9
f 9 10 8
f 8 10 3
f 9 2 7
f 7 18 9
f 7 2 1
f 1 5 6
f 6 7 1
f 18 7 6
f 16 29 17
f 17 29 18
f 17 6 16
f 18 6 17
f 9 29 19
f 76 40 75
f 75 73 76
f 31 13 12
f 11 31 12
f 158 162 185
f 158 127 124
f 129 128 163
f 163 130 129
f 95 129 96
f 129 97 96
f 96 59 95
f 96 97 59
f 164 162 161
f 185 162 164
f 34 68 69
f 68 103 69
f 37 29 16
f 16 36 37
f 144 143 176
f 168 167 179
f 104 69 103
f 166 165 183
f 183 151 166
f 118 82 117
f 113 143 144
f 42 82 83
f 91 90 123
f 90 89 123
f 123 89 122
f 123 125 91
f 123 122 125
f 85 119 86
f 85 84 119
f 26 9 25
f 26 27 9
f 25 30 26
f 30 27 26
f 16 6 15
f 15 6 5
f 15 14 16
f 15 5 14
f 40 19 39
f 39 75 40
f 13 5 4
f 4 12 13
f 1 3 4
f 4 5 1
f 4 3 11
f 11 12 4
f 157 158 124
f 162 158 157
f 124 126 157
f 126 162 157
f 165 132 131
f 131 160 165
f 73 37 72
f 72 37 36
f 72 71 73
f 36 71 72
f 73 75 74
f 74 37 73
f 173 180 178
f 141 142 110
f 142 111 110
f 110 111 76
f 169 168 170
f 144 178 149
f 149 178 180
f 133 166 134
f 134 166 167
f 134 168 169
f 167 168 134
f 151 117 150
f 179 167 150
f 150 166 151
f 167 166 150
f 148 117 116
f 179 150 148
f 148 150 117
f 81 117 82
f 116 117 81
f 82 42 81
f 152 117 151
f 152 151 183
f 183 153 152
f 152 153 118
f 118 117 152
f 83 44 43
f 43 42 83
f 43 44 20
f 20 42 43
f 38 19 29
f 29 39 38
f 38 39 19
f 64 39 29
f 75 39 64
f 64 74 75
f 29 37 64
f 37 74 64
f 34 69 70
f 69 104 105
f 105 70 69
f 71 70 105
f 108 73 107
f 73 71 107
f 141 110 140
f 140 110 139
f 108 139 109
f 139 110 109
f 109 110 76
f 76 73 109
f 109 73 108
f 138 139 108
f 182 170 168
f 182 168 179
f 179 149 182
f 144 149 145
f 145 113 144
f 179 148 147
f 147 148 116
f 147 149 179
f 116 149 147
f 114 78 113
f 41 42 20
f 35 71 36
f 35 70 71
f 35 36 16
f 16 14 35
f 35 14 34
f 34 70 35
f 71 105 106
f 106 107 71
f 106 105 104
f 141 140 175
f 144 176 177
f 177 178 144
f 173 178 177
f 172 180 173
f 137 138 108
f 181 149 180
f 181 182 149
f 180 170 181
f 170 182 181
f 146 149 116
f 146 145 149
f 116 113 146
f 113 145 146
f 115 113 116
f 115 114 113
f 116 81 115
f 80 81 42
f 78 114 80
f 80 115 81
f 114 115 80
f 107 106 136
f 108 107 136
f 136 137 108
f 186 177 176
f 171 170 180
f 180 172 171
f 42 41 79
f 79 80 42
f 79 41 78
f 78 80 79
f 135 136 106
f 135 106 104
f 177 186 174
f 173 177 174
f 56 9 20
f 21 9 56
f 93 127 94
f 94 57 93
f 21 56 93
f 93 57 21
f 103 132 133
f 102 132 103
f 1 2 8
f 8 3 1
f 94 127 158
f 158 128 94
f 128 158 163
f 163 158 185
f 164 163 185
f 130 163 164
f 133 132 166
f 166 132 165
f 47 46 85
f 85 86 47
f 85 46 45
f 45 84 85
f 131 164 161
f 161 160 131
f 130 164 131
f 101 130 131
f 131 132 102
f 102 101 131
f 134 103 133
f 134 104 103
f 139 138 172
f 173 139 172
f 186 77 112
f 112 111 186
f 20 9 186
f 186 142 141
f 9 19 186
f 186 111 142
f 40 77 186
f 186 41 20
f 186 19 40
f 186 176 143
f 143 113 186
f 113 78 186
f 78 41 186
f 141 175 186
f 137 136 171
f 171 136 170
f 171 172 138
f 138 137 171
f 170 136 135
f 169 170 135
f 104 134 135
f 135 134 169
f 174 186 175
f 174 175 140
f 174 139 173
f 174 140 139

