# https://github.com/mikedh/trimesh
v 0.01798833 0.03846485 0.06805487
v 0.01985324 0.03384071 0.06805487
v 0.01798833 0.03818050 0.06664080
v 0.01798833 -0.03068742 0.06805487
v 0.01798833 0.03696184 0.06443212
v 0.02020599 0.03212782 0.06805487
v 0.02016307 0.03212782 0.06756538
v 0.02006261 0.03041492 0.06414451
v 0.01988110 0.03041492 0.06334667
v 0.01798833 -0.03070096 0.06334667
v 0.01882169 -0.03045046 0.06334667
v 0.01879978 -0.03043691 0.06805487
v 0.01798833 0.03625095 0.06344254
v 0.02024823 0.03041492 0.06805487
v 0.02031216 0.02840413 0.06334667
v 0.02025394 0.02876296 0.06334667
v 0.01798833 0.03554684 0.06334667
v 0.01924545 -0.02992914 0.06334667
v 0.01967584 -0.02937397 0.06334667
v 0.01956282 -0.02944167 0.06805487
v 0.02032038 0.02699590 0.06334667
v 0.02031810 0.02797083 0.06334667
v 0.02031787 0.02799791 0.06334667
v 0.02025097 -0.02602265 0.06805487
v 0.02001375 -0.02857507 0.06334667
v 0.02019435 -0.02772878 0.06805487
v 0.02031855 -0.02602265 0.06334667
v 0.02023841 -0.02650334 0.06805487
v 0.02031490 -0.02692988 0.06334667
v 0.02025896 -0.02784387 0.06334667
f 9 8 16
f 22 14 21
f 21 14 24
f 6 14 15
f 9 17 13
f 13 5 9
f 20 12 19
f 15 14 23
f 14 22 23
f 21 24 27
f 27 24 29
f 26 29 28
f 29 24 28
f 15 16 7
f 7 6 15
f 7 16 8
f 11 4 10
f 11 12 4
f 26 20 25
f 20 19 25
f 6 7 2
f 2 7 8
f 2 8 9
f 9 5 2
f 18 19 12
f 12 11 18
f 30 29 26
f 26 25 30
f 1 2 3
f 3 2 5
f 1 4 2
f 4 12 2
f 2 20 26
f 26 28 2
f 2 24 14
f 14 6 2
f 2 12 20
f 2 28 24
f 9 16 30
f 10 17 30
f 15 23 30
f 30 17 9
f 30 22 21
f 30 16 15
f 21 27 30
f 30 11 10
f 30 23 22
f 30 27 29
f 19 18 30
f 30 25 19
f 30 18 11
f 3 17 10
f 3 4 1
f 10 4 3
f 3 13 17
f 5 13 3

