# https://github.com/mikedh/trimesh
v -0.00623524 -0.00233618 0.08072260
v -0.00361246 -0.00354249 0.08072260
v -0.00273568 -0.00340252 0.08202804
v -0.00623524 -0.00198258 0.08101970
v -0.00623524 0.01245995 0.08072260
v -0.00181514 -0.00402869 0.08072260
v -0.00106362 -0.00392556 0.08202804
v -0.00204452 -0.00364010 0.08202804
v -0.00407726 -0.00237486 0.08202804
v -0.00623524 -0.00080021 0.08184659
v -0.00623524 0.01160357 0.08133980
v -0.00286546 0.01317821 0.08202804
v -0.00187249 0.01364048 0.08202804
v -0.00113153 0.01397751 0.08202804
v -0.00158878 0.01410274 0.08072260
v -0.00106362 -0.00409684 0.08072260
v -0.00028645 -0.00395503 0.08202804
v -0.00623524 -0.00043556 0.08202804
v -0.00623524 -0.00075969 0.08186754
v -0.00623524 0.01053171 0.08202804
v 0.00064616 0.01406222 0.08202804
v 0.00064616 0.01464972 0.08072260
v -0.00071955 0.01437715 0.08072260
v -0.00011139 -0.00412814 0.08072260
v 0.00064616 -0.00398633 0.08202804
v 0.00406574 0.01406222 0.08202804
v 0.00235595 0.01465893 0.08072260
v 0.00064616 -0.00413919 0.08072260
v 0.00159085 -0.00415024 0.08072260
v 0.00235595 -0.00399923 0.08202804
v 0.00577704 0.01405302 0.08202804
v 0.00449281 0.01465525 0.08072260
v 0.00406574 0.01465709 0.08072260
v 0.00235595 -0.00415577 0.08072260
v 0.00406574 -0.00399923 0.08202804
v 0.00696921 0.01397567 0.08202804
v 0.00617091 0.01462210 0.08072260
v 0.00577704 0.01463315 0.08072260
v 0.00474935 0.01465157 0.08072260
v 0.00406574 -0.00415577 0.08072260
v 0.00577704 -0.00414656 0.08072260
v 0.00577704 -0.00397713 0.08202804
v 0.00918152 0.01431085 0.08072260
v 0.00840133 0.01379702 0.08202804
v 0.00918152 -0.00403422 0.08072260
v 0.00748682 -0.00378927 0.08202804
v 0.00918152 0.01361469 0.08202804
v 0.00918152 -0.00358853 0.08202804
f 2 3 1
f 7 2 6
f 3 2 8
f 2 7 8
f 16 7 6
f 17 7 16
f 16 25 17
f 24 25 16
f 46 45 48
f 46 42 45
f 45 42 41
f 19 9 18
f 19 10 9
f 9 10 4
f 3 9 4
f 1 3 4
f 35 41 42
f 5 14 15
f 20 12 11
f 11 12 5
f 13 14 5
f 5 12 13
f 28 25 24
f 28 29 25
f 30 29 34
f 25 29 30
f 41 35 40
f 14 22 23
f 23 15 14
f 44 47 43
f 21 22 14
f 31 37 38
f 36 37 31
f 43 37 36
f 36 44 43
f 22 21 27
f 26 31 32
f 26 27 21
f 32 31 39
f 31 38 39
f 33 26 32
f 27 26 33
f 47 45 43
f 48 45 47
f 11 5 1
f 1 4 11
f 11 18 20
f 11 19 18
f 10 19 11
f 11 4 10
f 35 30 40
f 40 30 34
f 20 18 26
f 3 8 26
f 26 9 3
f 17 25 26
f 48 47 26
f 18 9 26
f 26 7 17
f 26 46 48
f 25 30 26
f 26 12 20
f 26 8 7
f 42 46 26
f 26 35 42
f 14 13 26
f 26 13 12
f 26 30 35
f 47 44 26
f 26 21 14
f 26 36 31
f 44 36 26
f 33 2 1
f 1 5 33
f 43 45 33
f 33 28 24
f 6 2 33
f 33 16 6
f 5 15 33
f 24 16 33
f 45 41 33
f 34 29 33
f 33 23 22
f 33 40 34
f 22 27 33
f 29 28 33
f 41 40 33
f 15 23 33
f 33 37 43
f 33 38 37
f 32 39 33
f 33 39 38

