# https://github.com/mikedh/trimesh
v 0.01270034 -0.01750511 0.02716144
v 0.01268082 -0.01753546 0.02715940
v 0.01232604 -0.01750511 0.02715940
v 0.01174483 -0.01750511 0.02838029
v 0.01272389 -0.01902497 0.02782912
v 0.01272389 -0.01849906 0.02715940
v 0.01092785 -0.01750511 0.02715940
v 0.01197584 -0.01902497 0.02838029
v 0.01092785 -0.01750511 0.02838029
v 0.01272389 -0.01902497 0.02715940
v 0.01092785 -0.01902497 0.02715940
v 0.01092785 -0.01902497 0.02838029
f 5 1 4
f 5 4 8
f 5 10 6
f 6 1 5
f 6 2 1
f 1 2 3
f 4 9 8
f 8 9 12
f 5 8 11
f 11 10 5
f 11 8 12
f 11 9 7
f 12 9 11
f 3 4 1
f 7 9 3
f 3 9 4
f 10 11 3
f 3 6 10
f 2 6 3
f 3 11 7

