# https://github.com/mikedh/trimesh
v 0.01097854 -0.02207170 0.06805544
v 0.01595978 -0.02207170 0.06805544
v 0.01097854 -0.02207170 0.06922731
v 0.01097854 0.04231576 0.06805544
v 0.01595978 -0.02207170 0.06922731
v 0.01595978 0.04159097 0.06805544
v 0.01097854 0.04125062 0.06922731
v 0.01097854 0.04225274 0.06922650
v 0.01261945 0.04225274 0.06922731
v 0.01261945 0.04231576 0.06805544
v 0.01595978 0.04155315 0.06922731
v 0.01589395 0.04163508 0.06805544
v 0.01595978 0.04159097 0.06819070
v 0.01266821 0.04225274 0.06922731
v 0.01432911 0.04212669 0.06922731
v 0.01432911 0.04218341 0.06805544
v 0.01562819 0.04176744 0.06922731
v 0.01564915 0.04179265 0.06805544
f 8 7 9
f 4 8 9
f 16 10 15
f 12 13 6
f 18 13 12
f 17 18 16
f 16 15 17
f 11 13 17
f 17 13 18
f 14 15 10
f 1 2 5
f 5 3 1
f 7 4 1
f 1 3 7
f 7 8 4
f 2 6 13
f 13 5 2
f 11 5 13
f 1 4 12
f 12 2 1
f 12 6 2
f 4 10 12
f 16 18 12
f 12 10 16
f 3 5 14
f 14 5 11
f 14 7 3
f 14 9 7
f 11 17 14
f 14 17 15
f 14 10 4
f 4 9 14

