# https://github.com/mikedh/trimesh
v 0.01092810 -0.02564322 0.02838049
v 0.01261890 -0.02563548 0.02838049
v 0.01092810 -0.02523270 0.02923533
v 0.01092810 -0.01845033 0.02838049
v 0.01343207 -0.02558970 0.02838049
v 0.01261890 -0.02522355 0.02923533
v 0.01092810 -0.01845033 0.02923533
v 0.01144855 -0.01845033 0.02838049
v 0.01343207 -0.02515172 0.02923533
v 0.01279296 -0.02520947 0.02923533
v 0.01343207 -0.01918406 0.02838049
v 0.01148582 -0.01845033 0.02923533
v 0.01343207 -0.02001143 0.02923533
v 0.01343207 -0.01920518 0.02841857
v 0.01260910 -0.01933897 0.02923533
f 2 3 1
f 6 2 5
f 3 2 6
f 5 9 10
f 10 6 5
f 8 12 11
f 11 12 14
f 13 14 15
f 15 14 12
f 7 4 1
f 1 3 7
f 8 2 1
f 1 4 8
f 5 2 8
f 8 11 5
f 4 7 8
f 7 12 8
f 5 11 14
f 14 9 5
f 13 9 14
f 15 9 13
f 15 7 3
f 3 6 15
f 15 10 9
f 15 12 7
f 6 10 15

