# https://github.com/mikedh/trimesh
v 0.00617942 -0.02476770 0.04463673
v 0.00617942 -0.02402928 0.04335446
v 0.00630336 -0.02378578 0.04335446
v 0.00656800 -0.02326571 0.04335446
v 0.00698111 -0.02244259 0.04335446
v 0.00713945 -0.02280518 0.04463673
v 0.00617942 -0.01124973 0.04463673
v 0.00617942 -0.01124973 0.04335446
v 0.00705081 -0.02206543 0.04335446
v 0.00722654 -0.02255904 0.04463673
v 0.00638656 -0.01124973 0.04463673
v 0.00630635 -0.01124973 0.04335446
v 0.00723641 -0.02103190 0.04335446
v 0.00730273 -0.02213425 0.04463673
v 0.00714919 -0.01266571 0.04463673
v 0.00683692 -0.01296479 0.04335446
v 0.00726107 -0.02089427 0.04335446
v 0.00747911 -0.02089427 0.04463673
v 0.00738436 -0.01405390 0.04463673
v 0.00711428 -0.01405390 0.04335446
v 0.00704108 -0.01373894 0.04335446
v 0.00749222 -0.02033053 0.04463673
v 0.00729702 -0.01918451 0.04335446
v 0.00749961 -0.01576498 0.04463673
v 0.00726470 -0.01541694 0.04335446
v 0.00750481 -0.01918451 0.04463673
v 0.00729715 -0.01883515 0.04335446
v 0.00750507 -0.01862076 0.04463673
v 0.00750520 -0.01747475 0.04463673
v 0.00729754 -0.01747475 0.04335446
v 0.00729598 -0.01712671 0.04335446
v 0.00728962 -0.01607730 0.04335446
v 0.00728767 -0.01576498 0.04335446
f 20 15 19
f 1 5 6
f 6 5 10
f 4 5 1
f 12 11 15
f 15 16 12
f 21 15 20
f 21 16 15
f 1 2 3
f 3 4 1
f 10 5 9
f 17 18 14
f 10 9 13
f 13 14 10
f 17 14 13
f 19 24 25
f 24 33 25
f 20 19 25
f 30 24 29
f 22 18 17
f 24 30 31
f 28 30 29
f 26 22 23
f 23 22 17
f 23 28 26
f 32 33 24
f 24 31 32
f 30 28 27
f 28 23 27
f 1 7 8
f 8 2 1
f 12 8 7
f 7 11 12
f 28 11 7
f 28 7 1
f 29 24 28
f 1 6 28
f 28 19 15
f 15 11 28
f 28 6 10
f 28 24 19
f 18 22 28
f 10 14 28
f 28 14 18
f 28 22 26
f 2 8 27
f 8 12 27
f 27 21 20
f 27 9 5
f 5 4 27
f 27 3 2
f 27 12 16
f 16 21 27
f 4 3 27
f 17 13 27
f 20 25 27
f 27 13 9
f 27 25 33
f 27 23 17
f 27 31 30
f 33 32 27
f 27 32 31

