# https://github.com/mikedh/trimesh
v 0.00750988 0.00157125 0.03640489
v 0.00750988 0.00020827 0.03201989
v 0.00617929 0.00157125 0.03640489
v 0.00750988 -0.02715233 0.03640489
v 0.00617929 0.00020827 0.03201989
v 0.00750988 -0.02710623 0.03201989
v 0.00617929 -0.02786696 0.03640489
v 0.00750988 -0.02715233 0.03335522
v 0.00617929 -0.02782950 0.03201989
v 0.00617929 -0.02786696 0.03506526
v 0.00617929 -0.02786408 0.03335522
f 9 8 11
f 6 8 9
f 10 11 8
f 1 2 5
f 3 1 5
f 4 1 3
f 3 7 4
f 6 2 1
f 1 4 6
f 4 8 6
f 6 5 2
f 6 9 5
f 3 5 10
f 10 7 3
f 5 9 10
f 9 11 10
f 10 4 7
f 10 8 4

