# https://github.com/mikedh/trimesh
v -0.00703539 -0.03102006 0.02761322
v -0.00448682 -0.03102314 0.02761322
v -0.00703539 -0.03094296 0.02839177
v -0.00703539 0.00048369 0.02761322
v -0.00448682 -0.03094296 0.02839177
v -0.00573354 0.00031407 0.02761322
v -0.00448682 0.00018762 0.02761337
v -0.00703539 0.00044977 0.02839177
v -0.00703539 0.00045285 0.02837188
v -0.00636076 0.00041893 0.02761322
v -0.00448682 0.00011361 0.02839177
f 1 2 3
f 5 3 2
f 6 7 2
f 11 7 9
f 9 8 11
f 4 9 10
f 10 9 7
f 7 6 10
f 5 7 11
f 2 7 5
f 8 5 11
f 3 5 8
f 1 3 9
f 9 4 1
f 3 8 9
f 1 4 10
f 10 2 1
f 10 6 2

