# https://github.com/mikedh/trimesh
v 0.01043829 -0.01086018 0.07876974
v 0.01054581 -0.01150727 0.07876974
v 0.01043829 -0.01066188 0.07924735
v 0.01043829 0.04175754 0.07876974
v 0.01055477 -0.01155424 0.07876974
v 0.01043829 -0.01056273 0.07947843
v 0.01043829 0.04166361 0.08052361
v 0.01433049 0.04175754 0.07876974
v 0.02157279 -0.01155424 0.07876974
v 0.01101064 -0.01155424 0.08052361
v 0.01066230 -0.00891891 0.08052361
v 0.01043829 -0.00891891 0.07994076
v 0.01084599 -0.01059926 0.08052361
v 0.01604082 0.04166361 0.08052361
v 0.01043829 -0.00503116 0.08052361
v 0.01604082 0.04171579 0.07953920
v 0.01604082 0.04174711 0.07876974
v 0.02187745 -0.01155424 0.08052361
v 0.02157391 -0.00891891 0.07876974
v 0.01776683 0.04159577 0.08052361
v 0.01777691 0.04163752 0.07876974
v 0.01774891 0.04163230 0.07953920
v 0.02187857 0.00134579 0.08052361
v 0.02187969 0.01671937 0.08052361
v 0.02157615 0.03460825 0.07876974
v 0.01861696 0.04153837 0.08052361
v 0.01863152 0.04154880 0.07953920
v 0.01862928 0.04154880 0.07876974
v 0.02170944 0.03383592 0.07953920
v 0.02187969 0.03554758 0.08052361
v 0.02157615 0.03554758 0.07876974
v 0.01903026 0.04135572 0.08052361
v 0.01937188 0.04117829 0.08052361
v 0.01948724 0.04108958 0.07953920
v 0.01880513 0.04144965 0.07876974
v 0.02170944 0.03554758 0.07953920
v 0.02156831 0.03631469 0.07876974
v 0.02187409 0.03599636 0.08052361
v 0.02075403 0.04028072 0.08052361
v 0.02068571 0.04023375 0.07953920
v 0.01939876 0.04106870 0.07876974
v 0.02155487 0.03725923 0.07876974
v 0.02185505 0.03725923 0.08052361
v 0.02123789 0.03947186 0.08052361
v 0.02062746 0.04017635 0.07876974
v 0.02141710 0.03802634 0.07876974
v 0.02175760 0.03777064 0.08052361
v 0.02154031 0.03890305 0.08052361
v 0.02099820 0.03948229 0.07876974
v 0.02123677 0.03897089 0.07876974
v 0.02135886 0.03897089 0.07953920
f 19 25 24
f 9 19 18
f 6 5 10
f 23 19 24
f 23 18 19
f 5 6 2
f 24 25 29
f 12 11 15
f 6 11 12
f 13 6 10
f 13 11 6
f 1 2 3
f 3 2 6
f 51 50 49
f 48 50 51
f 47 50 48
f 51 49 48
f 43 42 46
f 47 43 46
f 46 50 47
f 38 42 43
f 27 28 21
f 44 49 45
f 44 48 49
f 36 31 37
f 42 38 37
f 30 36 37
f 37 38 30
f 14 20 16
f 16 20 17
f 17 8 16
f 16 8 14
f 21 17 22
f 17 20 22
f 22 20 26
f 26 27 22
f 22 27 21
f 39 44 40
f 40 44 45
f 40 45 41
f 32 27 26
f 28 27 32
f 32 33 28
f 28 33 34
f 34 33 39
f 34 40 41
f 39 40 34
f 35 34 41
f 28 34 35
f 18 5 9
f 10 5 18
f 3 4 1
f 3 7 4
f 3 15 7
f 3 12 15
f 6 12 3
f 36 30 24
f 24 29 36
f 31 36 29
f 31 29 25
f 4 7 8
f 7 14 8
f 7 15 32
f 32 23 24
f 32 43 47
f 10 18 32
f 24 30 32
f 18 23 32
f 32 13 10
f 32 14 7
f 15 11 32
f 47 48 32
f 30 38 32
f 32 44 39
f 11 13 32
f 26 20 32
f 32 38 43
f 32 20 14
f 48 44 32
f 39 33 32
f 42 37 35
f 1 4 35
f 25 19 35
f 35 19 9
f 9 5 35
f 41 45 35
f 35 2 1
f 5 2 35
f 50 46 35
f 35 49 50
f 35 31 25
f 45 49 35
f 21 28 35
f 35 17 21
f 35 46 42
f 4 8 35
f 35 8 17
f 35 37 31

