# https://github.com/mikedh/trimesh
v 0.01022051 -0.03094078 0.07299151
v 0.01022051 -0.03094078 0.07782821
v 0.01022051 -0.02452821 0.07299151
v 0.01604060 -0.03094078 0.07299151
v 0.01261930 -0.03092007 0.08052304
v 0.01189350 -0.03090437 0.08052304
v 0.01022051 -0.03091253 0.07885084
v 0.01604060 -0.03094078 0.07782821
v 0.01432995 -0.03094015 0.07953875
v 0.01432995 -0.03093764 0.08052304
v 0.01360415 -0.03093388 0.08052304
v 0.01022051 -0.02452821 0.07748978
v 0.02067498 -0.02452821 0.07299151
v 0.01633388 -0.03091881 0.07299151
v 0.01775010 -0.03081650 0.07440786
v 0.01775010 -0.03082089 0.08052304
v 0.01702430 -0.03087236 0.08052304
v 0.01024334 -0.03072799 0.08052304
v 0.01022051 -0.03073113 0.08050240
v 0.01022051 -0.03079139 0.08011900
v 0.01022051 -0.03088240 0.07953875
v 0.01604060 -0.03094015 0.07953875
v 0.01604060 -0.03093764 0.08052304
v 0.01022051 -0.02617215 0.07948935
v 0.01098169 -0.02452821 0.08052304
v 0.02187780 -0.02452821 0.08052304
v 0.02067498 -0.02602716 0.07299151
v 0.01775010 -0.03080332 0.07299151
v 0.01897460 -0.03049763 0.07440786
v 0.01902710 -0.03049763 0.07611840
v 0.01912068 -0.03050328 0.08052304
v 0.01854551 -0.03063823 0.08052304
v 0.01022051 -0.03072485 0.08052304
v 0.01022051 -0.02684882 0.08021411
v 0.01081736 -0.02508184 0.08052304
v 0.02187780 -0.02602716 0.08052304
v 0.02060993 -0.02773701 0.07299151
v 0.01796122 -0.03074808 0.07299151
v 0.01891070 -0.03048444 0.07299151
v 0.01996174 -0.03011598 0.07953875
v 0.01997543 -0.03013293 0.08052304
v 0.01910584 -0.03049951 0.07953875
v 0.01022051 -0.02727502 0.08052304
v 0.02172716 -0.02770876 0.08052304
v 0.02043077 -0.02881100 0.07299151
v 0.01976545 -0.02966593 0.07299151
v 0.01983050 -0.02982599 0.07440786
v 0.01988299 -0.02997099 0.07611840
v 0.01991495 -0.03005698 0.07782821
v 0.02054945 -0.02964082 0.08052304
v 0.02093974 -0.02927801 0.08052304
v 0.02088154 -0.02926043 0.07953875
v 0.02076399 -0.02920206 0.07782821
v 0.02064303 -0.02911606 0.07611840
v 0.02052320 -0.02897044 0.07440786
v 0.01988528 -0.02951842 0.07299151
f 6 21 7
f 7 2 6
f 6 2 5
f 12 24 25
f 27 36 37
f 45 37 44
f 37 36 44
f 46 47 39
f 39 40 29
f 29 40 41
f 15 14 28
f 28 29 15
f 4 14 15
f 15 16 4
f 5 2 11
f 2 10 11
f 23 22 17
f 22 8 17
f 17 8 4
f 4 16 17
f 9 10 2
f 33 19 18
f 18 19 6
f 21 6 20
f 6 19 20
f 35 34 43
f 24 34 35
f 25 24 35
f 47 46 54
f 41 40 50
f 39 47 48
f 30 29 41
f 31 15 30
f 30 15 29
f 39 29 38
f 38 29 28
f 16 15 32
f 32 15 31
f 52 44 51
f 51 48 52
f 45 44 55
f 44 54 55
f 51 50 49
f 49 48 51
f 49 50 40
f 49 40 39
f 39 48 49
f 41 31 42
f 42 30 41
f 31 30 42
f 53 54 44
f 44 52 53
f 47 54 53
f 53 48 47
f 53 52 48
f 45 55 56
f 56 54 46
f 56 55 54
f 12 13 3
f 26 13 12
f 12 25 26
f 27 13 26
f 26 36 27
f 1 4 8
f 8 2 1
f 2 8 9
f 9 8 22
f 23 10 9
f 9 22 23
f 20 3 1
f 33 43 20
f 1 2 20
f 20 2 7
f 7 21 20
f 20 12 3
f 24 12 20
f 20 19 33
f 20 34 24
f 43 34 20
f 26 25 32
f 32 6 5
f 32 31 41
f 32 43 33
f 25 35 32
f 32 36 26
f 5 11 32
f 32 17 16
f 33 18 32
f 51 44 32
f 41 50 32
f 32 10 23
f 32 44 36
f 32 11 10
f 23 17 32
f 32 18 6
f 32 35 43
f 32 50 51
f 3 13 56
f 1 3 56
f 56 4 1
f 13 27 56
f 56 14 4
f 56 37 45
f 56 46 39
f 56 27 37
f 39 38 56
f 28 14 56
f 56 38 28

