# https://github.com/mikedh/trimesh
v 0.00406612 0.02742668 0.03668591
v 0.00577595 0.02742184 0.03668591
v 0.00409964 0.02698997 0.03332135
v 0.00064646 0.02742668 0.03668591
v 0.00748745 0.02728971 0.03668591
v 0.00577595 0.02697708 0.03332135
v 0.00064646 0.02698997 0.03332135
v -0.00102817 0.02738639 0.03668591
v 0.00919728 0.02704637 0.03668591
v 0.00929115 0.02702542 0.03668591
v 0.00580780 0.02696902 0.03332135
v -0.00102985 0.02692551 0.03332135
v -0.00106337 0.02738478 0.03668591
v 0.01079983 0.02660483 0.03668591
v 0.00742710 0.02655327 0.03332135
v -0.00106337 0.02692390 0.03332135
v -0.00246476 0.02650009 0.03332135
v -0.00249829 0.02690940 0.03668591
v 0.00828370 0.02607950 0.03332135
v 0.01106301 0.02641790 0.03668591
v 0.01179723 0.02447931 0.03416841
v -0.00331968 0.02547520 0.03332135
v -0.00434725 0.02513518 0.03668591
v 0.00917549 0.02523992 0.03332135
v 0.01186428 0.02549776 0.03668591
v 0.01144185 0.02589579 0.03633220
v 0.01192463 0.02470975 0.03506555
v 0.01224145 0.02357690 0.03506555
v 0.01193636 0.02357690 0.03394282
v 0.01090711 0.02356561 0.03332135
v 0.01090711 0.02357690 0.03332530
v 0.01090040 0.02357690 0.03332135
v -0.00368679 0.02461951 0.03332135
v -0.00468251 0.02468558 0.03668591
v 0.01205035 0.02525443 0.03668591
v 0.01237555 0.02357690 0.03668591
v 0.01241578 0.02186713 0.03506555
v 0.01207717 0.02186713 0.03366913
v 0.01162792 0.02191709 0.03332135
v -0.00374546 0.02357690 0.03332135
v -0.00468251 0.02177528 0.03522660
v -0.00468251 0.02357690 0.03578977
v -0.00468251 0.01106067 0.03668591
v 0.01243925 0.02186713 0.03668591
v 0.01209729 0.02015576 0.03360030
v 0.01243590 0.02015576 0.03506555
v 0.01183411 0.02015576 0.03332135
v -0.00375049 0.02186713 0.03332135
v -0.00468251 0.02015576 0.03505336
v -0.00452661 0.01096559 0.03668591
v -0.00468251 0.01159567 0.03631837
v -0.00361303 0.01096559 0.03332135
v 0.01244260 0.01340534 0.03668591
v 0.01209729 0.01673624 0.03360030
v 0.01243590 0.01673624 0.03506555
v 0.01183411 0.01900518 0.03332135
v -0.00375049 0.01499263 0.03332135
v -0.00468251 0.01844761 0.03505040
v 0.01208052 0.01096559 0.03668591
v -0.00468251 0.01246586 0.03576211
v -0.00468251 0.01351170 0.03526381
v -0.00468251 0.01357132 0.03524998
v -0.00368846 0.01179872 0.03332135
v 0.00937832 0.01096559 0.03332135
v 0.01243925 0.01331510 0.03668591
v 0.01238058 0.01331510 0.03506555
v 0.01243087 0.01502648 0.03506555
v 0.01209226 0.01502648 0.03362665
v 0.01182572 0.01673624 0.03332135
v -0.00468251 0.01673624 0.03505040
v -0.00374881 0.01331510 0.03332135
v 0.01198330 0.01096559 0.03600681
v 0.01226492 0.01160373 0.03668591
v -0.00468251 0.01502648 0.03507707
v 0.01006561 0.01159889 0.03332135
v 0.01191960 0.01215001 0.03399452
v 0.01128093 0.01101071 0.03458833
v 0.01124237 0.01096559 0.03463015
v 0.01228335 0.01169558 0.03668591
v 0.01203526 0.01159084 0.03512121
v 0.01204364 0.01331510 0.03376991
v 0.01168491 0.01408377 0.03332135
v 0.01178885 0.01502648 0.03332135
v 0.01180561 0.01561788 0.03332135
v -0.00468251 0.01516184 0.03507213
v 0.01189948 0.01096559 0.03552827
v 0.01124237 0.01293157 0.03332135
v 0.01134965 0.01096559 0.03473060
v 0.01140665 0.01335861 0.03332135
f 43 52 50
f 63 74 71
f 17 18 13
f 13 16 17
f 34 22 33
f 1 2 3
f 53 46 44
f 36 44 37
f 37 44 46
f 14 21 19
f 81 66 76
f 76 77 64
f 53 66 67
f 77 76 88
f 60 61 52
f 62 63 52
f 52 61 62
f 74 63 62
f 18 17 23
f 23 17 22
f 23 22 34
f 34 33 42
f 42 33 41
f 4 7 8
f 28 37 38
f 36 37 28
f 28 35 36
f 38 37 45
f 45 37 46
f 15 10 14
f 14 19 15
f 65 66 53
f 65 79 66
f 66 79 73
f 81 76 87
f 55 46 53
f 53 67 55
f 55 67 54
f 54 67 68
f 68 66 81
f 68 67 66
f 82 83 68
f 81 82 68
f 64 77 78
f 77 88 78
f 86 88 76
f 52 43 51
f 51 60 52
f 40 49 41
f 41 33 40
f 12 8 7
f 13 8 12
f 12 16 13
f 29 28 38
f 21 28 29
f 38 39 29
f 27 28 21
f 35 28 27
f 21 26 27
f 27 26 35
f 20 21 14
f 20 26 21
f 24 19 21
f 21 32 24
f 9 10 6
f 6 5 9
f 2 5 6
f 3 2 6
f 75 76 64
f 75 87 76
f 89 82 81
f 81 87 89
f 80 86 76
f 80 76 66
f 66 73 80
f 71 74 85
f 85 70 71
f 49 40 48
f 30 29 39
f 21 29 30
f 69 56 54
f 54 68 69
f 47 39 38
f 38 45 47
f 35 26 25
f 26 20 25
f 10 15 11
f 11 6 10
f 86 80 72
f 72 73 59
f 72 80 73
f 71 70 57
f 49 48 58
f 31 30 32
f 31 32 21
f 21 30 31
f 84 68 83
f 84 69 68
f 4 1 7
f 7 1 3
f 54 45 55
f 55 45 46
f 47 45 54
f 54 56 47
f 59 73 25
f 2 1 25
f 25 8 13
f 50 59 25
f 34 43 25
f 25 23 34
f 53 44 25
f 25 43 50
f 13 18 25
f 14 10 25
f 25 5 2
f 25 10 9
f 9 5 25
f 25 1 4
f 25 44 36
f 36 35 25
f 25 65 53
f 18 23 25
f 4 8 25
f 79 65 25
f 25 73 79
f 25 20 14
f 72 59 50
f 72 52 64
f 50 52 72
f 64 78 72
f 72 78 88
f 88 86 72
f 58 43 34
f 74 62 58
f 34 42 58
f 58 51 43
f 61 60 58
f 58 62 61
f 58 42 41
f 41 49 58
f 60 51 58
f 58 85 74
f 70 85 58
f 48 57 58
f 58 57 70
f 84 7 3
f 64 52 84
f 22 17 84
f 3 6 84
f 84 63 71
f 19 24 84
f 52 63 84
f 84 11 15
f 84 17 16
f 84 33 22
f 82 89 84
f 16 12 84
f 84 83 82
f 71 57 84
f 84 15 19
f 84 75 64
f 84 40 33
f 84 12 7
f 84 30 39
f 84 24 32
f 39 47 84
f 87 75 84
f 84 89 87
f 84 48 40
f 32 30 84
f 56 69 84
f 84 47 56
f 6 11 84
f 84 57 48

