# https://github.com/mikedh/trimesh
v -0.00361047 0.01096559 0.03201989
v -0.00360888 0.01096015 0.03201989
v -0.00426985 0.01096559 0.03639067
v 0.00884274 0.01096559 0.03201989
v -0.00294151 0.01016623 0.03201989
v -0.00398247 0.01055936 0.03639067
v -0.00421557 0.01088800 0.03639067
v 0.01203746 0.01096559 0.03639067
v 0.01134934 0.01096559 0.03473024
v 0.00864795 0.01046151 0.03201989
v -0.00275471 0.00994829 0.03201989
v -0.00289361 0.00956899 0.03639067
v 0.01196083 0.01069502 0.03639067
v 0.01198318 0.01096559 0.03600647
v 0.01190016 0.01096559 0.03552815
v 0.01183310 0.01065894 0.03572838
v 0.00781455 0.00977878 0.03201989
v -0.00125873 0.00909333 0.03201989
v -0.00115974 0.00868388 0.03639067
v 0.01189856 0.01051019 0.03639067
v 0.01094222 0.00977186 0.03639067
v 0.00663309 0.00903822 0.03201989
v -0.00059137 0.00903921 0.03201989
v -0.00088194 0.00854230 0.03639067
v 0.01060375 0.00965276 0.03639067
v 0.00717752 0.00859097 0.03639067
v 0.00577573 0.00845112 0.03639067
v 0.00596413 0.00902661 0.03201989
v 0.00936002 0.00922231 0.03639067
v 0.00919717 0.00916745 0.03639067
v -0.00040297 0.00902414 0.03201989
v 0.00040968 0.00844692 0.03639067
v 0.00539096 0.00844791 0.03639067
v 0.00577573 0.00902340 0.03201989
v 0.00064597 0.00900931 0.03201989
v 0.00064597 0.00844321 0.03639067
v 0.00406581 0.00844148 0.03639067
v 0.00406581 0.00900931 0.03201989
v 0.00197112 0.00844148 0.03639067
f 22 30 26
f 24 31 32
f 22 21 25
f 22 26 27
f 6 11 12
f 6 5 11
f 12 11 18
f 29 30 22
f 22 25 29
f 21 16 20
f 37 38 33
f 38 34 33
f 33 34 27
f 5 6 2
f 6 7 2
f 3 1 2
f 2 7 3
f 19 18 24
f 12 18 19
f 23 31 24
f 24 18 23
f 31 35 36
f 36 32 31
f 17 10 16
f 17 21 22
f 17 16 21
f 9 10 4
f 9 15 16
f 16 10 9
f 22 27 28
f 27 34 28
f 39 36 35
f 13 14 8
f 13 20 16
f 15 14 13
f 16 15 13
f 3 8 9
f 9 1 3
f 9 4 1
f 8 14 9
f 9 14 15
f 1 4 28
f 28 35 31
f 31 23 28
f 28 17 22
f 28 2 1
f 11 5 28
f 28 18 11
f 38 35 28
f 4 10 28
f 28 34 38
f 5 2 28
f 28 23 18
f 10 17 28
f 39 35 38
f 39 38 37
f 13 39 37
f 13 8 3
f 37 33 13
f 30 29 13
f 3 7 13
f 13 19 24
f 13 26 30
f 24 32 13
f 13 25 21
f 13 27 26
f 13 6 12
f 13 29 25
f 21 20 13
f 13 33 27
f 13 7 6
f 12 19 13
f 32 36 13
f 36 39 13

