# https://github.com/mikedh/trimesh
v 0.01369216 0.00665224 -0.00082558
v 0.01291162 0.00688170 -0.00090951
v 0.01369216 0.01006398 -0.00082558
v 0.01415011 0.00665224 -0.00077590
v 0.01369216 0.00665224 0.01629138
v 0.01291162 0.01006398 -0.00090951
v 0.01291162 0.00688170 0.01573640
v 0.01415868 0.01006398 -0.00077419
v 0.01432957 0.01006398 -0.00075534
v 0.01432957 0.00665224 -0.00075534
v 0.01393621 0.00665224 0.01658942
v 0.01291162 0.01006398 0.01377171
v 0.01397731 0.00683794 0.01658942
v 0.01453268 0.00797753 0.01658942
v 0.01453268 0.00929012 0.01584945
v 0.01291162 0.00966185 0.01410058
v 0.01453268 0.01006398 -0.00066970
v 0.01451142 0.00665224 -0.00067998
v 0.01453268 0.00665224 0.01658942
v 0.01453268 0.01006398 0.01538868
v 0.01453268 0.00665224 -0.00066970
f 16 20 12
f 15 7 14
f 15 16 7
f 20 16 15
f 14 7 13
f 7 11 13
f 5 11 7
f 4 1 3
f 18 17 21
f 10 4 9
f 9 18 10
f 17 18 9
f 8 4 3
f 8 9 4
f 3 1 6
f 6 1 2
f 16 6 2
f 12 6 16
f 2 7 16
f 19 21 17
f 14 19 17
f 17 15 14
f 20 15 17
f 13 19 14
f 13 11 19
f 2 1 5
f 5 7 2
f 18 21 19
f 18 5 1
f 19 11 18
f 1 4 18
f 11 5 18
f 18 4 10
f 3 6 8
f 8 6 12
f 12 20 8
f 20 17 8
f 17 9 8

