# https://github.com/mikedh/trimesh
v 0.01850793 0.03313705 0.06334667
v 0.01910329 0.03205727 0.06334667
v 0.02032987 0.02787547 0.05982949
v 0.01850793 0.03162037 0.06076441
v 0.01850793 -0.03054497 0.06334667
v 0.01988106 0.03041576 0.06334667
v 0.02047759 0.02696421 0.05916109
v 0.02046469 0.02671455 0.05856155
v 0.02012821 0.02736367 0.05856155
v 0.02036715 0.02802527 0.06072366
v 0.01850793 0.03023476 0.05894891
v 0.01850793 -0.03062611 0.05901308
v 0.01897362 -0.03050128 0.05901308
v 0.01882167 -0.03045135 0.06334667
v 0.02025389 0.02876176 0.06334667
v 0.02021919 0.02896149 0.06243377
v 0.02074162 0.02531646 0.05856155
v 0.01850793 0.02980409 0.05856155
v 0.01850793 0.03010368 0.05883041
v 0.02035871 0.02810641 0.06243377
v 0.02076295 0.02528525 0.05901308
v 0.01850793 -0.03061987 0.05856155
v 0.01898839 -0.03050128 0.05856155
v 0.01921420 -0.03035772 0.05856155
v 0.01984355 -0.02983344 0.05856155
v 0.01924585 -0.02993330 0.06334667
v 0.02031228 0.02840600 0.06334667
v 0.02089075 0.02357508 0.05856155
v 0.02053762 -0.02897835 0.05856155
v 0.01967613 -0.02937781 0.06334667
v 0.02031791 0.02800030 0.06334667
v 0.02090271 0.02186491 0.05856155
v 0.02064220 -0.02861634 0.05856155
v 0.02032846 -0.02861634 0.06171713
v 0.02001378 -0.02857890 0.06334667
v 0.02032049 0.02699542 0.06334667
v 0.02090341 -0.02431595 0.05856155
v 0.02083072 -0.02773629 0.05856155
v 0.02025882 -0.02784240 0.06334667
v 0.02031861 -0.02602612 0.06334667
v 0.02090318 -0.02557049 0.05856155
v 0.02085159 -0.02728067 0.05856155
v 0.02031486 -0.02693114 0.06334667
v 0.02031814 -0.02690617 0.06332138
v 0.02090294 -0.02602612 0.05856155
f 13 5 12
f 34 38 39
f 34 30 29
f 32 28 31
f 36 40 37
f 37 32 36
f 36 32 31
f 2 6 3
f 8 9 3
f 3 9 4
f 1 2 3
f 3 4 1
f 4 9 11
f 33 34 29
f 38 34 33
f 35 34 39
f 30 34 35
f 23 24 13
f 12 22 23
f 23 13 12
f 17 21 28
f 37 40 41
f 40 45 41
f 39 38 43
f 19 9 18
f 19 11 9
f 24 25 14
f 5 13 14
f 13 24 14
f 7 17 8
f 8 3 7
f 40 43 44
f 44 45 40
f 44 43 45
f 42 43 38
f 45 43 42
f 15 16 6
f 26 25 29
f 26 14 25
f 29 30 26
f 10 7 3
f 10 3 6
f 6 16 10
f 21 17 10
f 17 7 10
f 31 28 27
f 28 21 27
f 16 15 27
f 21 10 20
f 20 27 21
f 20 10 16
f 16 27 20
f 1 4 19
f 19 5 1
f 12 5 19
f 19 22 12
f 18 22 19
f 4 11 19
f 42 23 22
f 42 22 18
f 42 32 37
f 8 17 42
f 42 9 8
f 29 25 42
f 18 9 42
f 42 33 29
f 28 32 42
f 37 41 42
f 38 33 42
f 24 23 42
f 42 25 24
f 42 17 28
f 42 41 45
f 1 5 27
f 27 36 31
f 27 2 1
f 27 35 39
f 39 43 27
f 27 6 2
f 5 14 27
f 40 36 27
f 30 35 27
f 27 43 40
f 27 26 30
f 27 15 6
f 14 26 27

