# https://github.com/mikedh/trimesh
v -0.00725966 0.03307606 0.03630740
v -0.00725966 0.03390739 0.03532306
v -0.00589747 0.03307606 0.03714679
v -0.00725966 0.03307606 0.05856155
v -0.00725966 0.03480595 0.03467540
v -0.00617541 0.03480629 0.03539554
v -0.00561874 0.03480612 0.03588888
v -0.00561874 0.03385251 0.03676567
v -0.00561874 0.03359030 0.03701118
v -0.00561874 0.03307606 0.03751387
v -0.00561874 0.03307606 0.05856155
v -0.00725966 0.03480629 0.05856155
v -0.00725966 0.03480629 0.03497936
v -0.00710929 0.03480629 0.03493259
v -0.00561874 0.03480629 0.03594500
v -0.00561874 0.03480629 0.05856155
f 1 2 3
f 6 2 5
f 7 3 6
f 6 3 2
f 7 6 15
f 9 10 3
f 5 13 14
f 14 6 5
f 8 3 7
f 8 9 3
f 16 12 4
f 4 11 16
f 10 4 1
f 10 11 4
f 1 3 10
f 13 2 1
f 1 4 13
f 5 2 13
f 4 12 13
f 12 16 14
f 14 13 12
f 16 15 14
f 14 15 6
f 8 16 11
f 11 10 8
f 7 15 8
f 8 15 16
f 10 9 8

