# https://github.com/mikedh/trimesh
v 0.00918152 -0.03094078 0.07299151
v 0.00918152 -0.02538432 0.07299151
v 0.01022041 -0.03094078 0.07299151
v 0.00918152 -0.03094078 0.07782821
v 0.01022041 -0.02538432 0.07299151
v 0.00918152 -0.02538432 0.07966482
v 0.01022041 -0.03094078 0.07782821
v 0.01022041 -0.03091250 0.07885084
v 0.01022041 -0.03088258 0.07953875
v 0.00918152 -0.03086572 0.07953875
v 0.01022041 -0.02538432 0.07696704
v 0.00918152 -0.02609302 0.08011089
v 0.01022041 -0.02727491 0.08052304
v 0.01022041 -0.02684903 0.08021411
v 0.01022041 -0.02617242 0.07948935
v 0.00924346 -0.02538432 0.07951073
v 0.01022041 -0.03073138 0.08050240
v 0.00918152 -0.03058344 0.08052304
v 0.00918152 -0.02700187 0.08052304
v 0.01022041 -0.03072485 0.08052304
f 8 4 7
f 12 19 13
f 13 6 12
f 20 18 17
f 18 10 17
f 16 15 11
f 6 15 16
f 14 6 13
f 14 15 6
f 9 17 10
f 9 10 4
f 9 4 8
f 1 2 5
f 5 3 1
f 18 20 13
f 13 19 18
f 1 3 7
f 7 4 1
f 12 2 1
f 1 4 12
f 12 18 19
f 12 6 2
f 12 10 18
f 4 10 12
f 16 5 2
f 16 11 5
f 2 6 16
f 3 5 9
f 9 7 3
f 13 20 9
f 20 17 9
f 5 11 9
f 8 7 9
f 11 15 9
f 9 14 13
f 15 14 9

