# https://github.com/mikedh/trimesh
v -0.00738550 0.01975680 0.03668591
v -0.00618644 0.01975680 0.03668591
v -0.00738550 0.01975680 0.03733643
v -0.00738550 0.02509328 0.03668591
v -0.00618644 0.01975680 0.03733643
v -0.00618644 0.02402524 0.03668591
v -0.00738550 0.02607412 0.03733643
v -0.00738550 0.02607412 0.03703706
v -0.00717562 0.02493372 0.03668591
v -0.00618644 0.02427385 0.03733643
v -0.00618644 0.02487992 0.03723785
v -0.00733256 0.02607412 0.03733643
v -0.00618644 0.02499804 0.03733344
v -0.00619665 0.02499742 0.03733643
f 11 8 13
f 13 14 10
f 12 8 7
f 13 8 12
f 12 14 13
f 8 11 6
f 4 8 9
f 8 6 9
f 5 3 1
f 1 2 5
f 1 3 8
f 8 3 7
f 8 4 1
f 3 5 12
f 7 3 12
f 5 10 12
f 12 10 14
f 6 5 2
f 6 10 5
f 6 11 13
f 13 10 6
f 9 2 1
f 1 4 9
f 9 6 2

