# https://github.com/mikedh/trimesh
v 0.01480782 0.02745804 0.01670395
v 0.01503488 0.02515371 0.01670395
v 0.01505887 0.02515371 0.01782583
v 0.01506287 0.02515371 0.01797255
v 0.01511130 0.02515371 0.01941141
v 0.01480782 0.03076080 0.01991313
v 0.01480782 0.03583127 0.01670395
v 0.01934670 0.02515371 0.01670395
v 0.01511619 0.02515371 0.01948493
v 0.01511175 0.02572775 0.01991313
v 0.01480782 0.03709625 0.01991313
v 0.01480782 0.03601248 0.01712148
v 0.01539834 0.03570968 0.01670395
v 0.01934670 0.02515371 0.01939351
v 0.01934670 0.03296926 0.01670395
v 0.01562051 0.02515371 0.01991313
v 0.01512241 0.02558862 0.01991313
v 0.01552587 0.03687178 0.01991313
v 0.01537479 0.03651052 0.01856034
v 0.01480782 0.03686009 0.01916260
v 0.01480782 0.03656898 0.01842714
v 0.01602530 0.03552145 0.01670395
v 0.01925295 0.02515371 0.01944409
v 0.01934670 0.02533726 0.01946074
v 0.01915653 0.03329428 0.01670395
v 0.01715791 0.03552963 0.01991313
v 0.01726455 0.03533907 0.01991313
v 0.01784841 0.03384026 0.01991313
v 0.01934670 0.03193693 0.01780698
v 0.01837672 0.02515371 0.01991313
v 0.01577825 0.03676188 0.01991313
v 0.01570938 0.03672330 0.01967091
v 0.01686598 0.03515902 0.01670395
v 0.01934670 0.02647832 0.01938911
v 0.01872286 0.02699975 0.01991313
v 0.01845270 0.02526595 0.01991313
v 0.01902501 0.03349887 0.01670395
v 0.01662826 0.03618317 0.01991313
v 0.01821143 0.03204332 0.01991313
v 0.01934670 0.03042059 0.01848118
v 0.01597465 0.03663328 0.01991313
v 0.01718812 0.03492754 0.01670395
v 0.01856156 0.02871017 0.01991313
v 0.01934670 0.02699975 0.01931025
v 0.01934670 0.02871017 0.01895493
f 5 6 1
f 5 9 6
f 17 9 16
f 11 19 20
f 22 19 33
f 6 9 10
f 9 17 10
f 21 20 19
f 19 22 13
f 4 5 1
f 12 21 19
f 12 13 7
f 19 13 12
f 23 14 24
f 24 30 23
f 24 35 36
f 36 30 24
f 26 25 37
f 15 25 26
f 1 2 3
f 3 4 1
f 39 45 40
f 39 43 34
f 34 43 35
f 34 35 24
f 37 42 38
f 38 26 37
f 38 42 33
f 15 26 27
f 44 45 39
f 39 34 44
f 29 15 28
f 15 27 28
f 28 40 29
f 39 40 28
f 41 38 33
f 33 31 41
f 18 19 11
f 32 18 31
f 19 18 32
f 33 19 32
f 32 31 33
f 1 7 25
f 7 13 25
f 25 15 8
f 25 22 33
f 25 2 1
f 33 42 25
f 8 2 25
f 25 13 22
f 25 42 37
f 12 6 11
f 1 6 12
f 12 7 1
f 11 20 12
f 20 21 12
f 16 9 3
f 8 14 3
f 9 5 3
f 3 2 8
f 3 30 16
f 5 4 3
f 14 23 3
f 3 23 30
f 8 15 44
f 44 15 29
f 44 14 8
f 24 14 44
f 29 40 44
f 44 40 45
f 44 34 24
f 11 6 18
f 16 30 18
f 18 17 16
f 6 10 18
f 18 10 17
f 35 43 18
f 18 36 35
f 30 36 18
f 18 43 39
f 38 41 18
f 26 38 18
f 18 27 26
f 39 28 18
f 18 28 27
f 18 41 31

