# https://github.com/mikedh/trimesh
v -0.00447500 0.01006727 0.01372511
v -0.00706701 0.01145199 0.01403962
v -0.00706701 0.01006462 0.01443087
v -0.00448617 0.01006462 0.01372661
v -0.00447500 0.01006462 -0.00077074
v -0.00447500 0.01232094 0.01283577
v -0.00706701 0.01232094 0.01332634
v -0.00706701 0.01006462 -0.00093928
v -0.00447500 0.01006462 -0.00093928
v -0.00447500 0.01232094 -0.00072710
v -0.00706701 0.01232094 -0.00093928
v -0.00447500 0.01231653 -0.00093928
v -0.00448617 0.01232094 -0.00093928
f 2 1 6
f 3 1 2
f 2 6 7
f 1 3 4
f 1 4 5
f 12 13 10
f 7 11 8
f 7 3 2
f 8 3 7
f 5 3 8
f 8 9 5
f 5 4 3
f 8 11 13
f 13 9 8
f 13 12 9
f 10 5 9
f 10 6 1
f 9 12 10
f 1 5 10
f 11 7 10
f 10 13 11
f 10 7 6

