# https://github.com/mikedh/trimesh
v 0.01264534 0.03479850 0.05855933
v 0.00912878 0.03479850 0.05856155
v 0.01264534 0.03426190 0.05855933
v 0.01264534 0.03479850 0.03601371
v -0.00296016 0.03480646 0.05855933
v 0.00912878 0.03426190 0.05856155
v -0.00296016 0.03479850 0.05856155
v 0.01262210 0.03309165 0.05855933
v 0.01264534 0.03426190 0.03657968
v 0.01262210 0.03309165 0.03770940
v -0.00561858 0.03307606 0.03751409
v -0.00561858 0.03359030 0.03701026
v -0.00561858 0.03385250 0.03676390
v -0.00561858 0.03480595 0.03588720
v -0.00296016 0.03480646 0.03603147
v -0.00561858 0.03480646 0.05855933
v -0.00296016 0.03426190 0.05856155
v -0.00296016 0.03307606 0.05855933
v -0.00296016 0.03307606 0.03771828
v -0.00561858 0.03307606 0.05855933
v -0.00561858 0.03480646 0.03594713
f 12 4 11
f 15 4 14
f 1 5 2
f 14 4 13
f 4 12 13
f 21 15 14
f 11 4 10
f 8 3 6
f 9 10 4
f 11 10 19
f 8 6 18
f 1 4 15
f 15 5 1
f 11 20 21
f 21 12 11
f 14 13 21
f 20 16 21
f 21 13 12
f 5 15 21
f 21 16 5
f 5 16 7
f 7 2 5
f 7 16 20
f 20 17 7
f 2 7 6
f 6 7 17
f 1 2 6
f 6 3 1
f 9 4 1
f 1 3 9
f 8 10 9
f 9 3 8
f 18 20 11
f 11 19 18
f 18 10 8
f 18 19 10
f 18 17 20
f 18 6 17

