# https://github.com/mikedh/trimesh
v -0.02014230 0.00085136 0.02888118
v -0.02014752 0.00085136 0.02944439
v -0.02015013 0.00134127 0.02993417
v -0.02014100 0.00103969 0.02888118
v -0.00723120 0.00085136 0.02888118
v -0.02014883 0.00085136 0.02993417
v -0.02012926 0.00085136 0.03164441
v -0.02012665 0.00134127 0.03164441
v -0.02013317 0.00165873 0.02993417
v -0.02013839 0.00134127 0.02888118
v -0.00743603 0.00165873 0.02888118
v -0.00682153 0.00085136 0.03158879
v -0.02012665 0.00085136 0.03178206
v -0.02011751 0.00134127 0.03201989
v -0.02010447 0.00165873 0.03164441
v -0.02012143 0.00165873 0.02888118
v -0.00738776 0.00165873 0.03201989
v -0.00692199 0.00085136 0.03201989
v -0.02012012 0.00085136 0.03201989
v -0.02007316 0.00165873 0.03201989
f 5 11 12
f 12 11 17
f 6 7 3
f 3 7 8
f 8 9 3
f 12 17 18
f 4 1 3
f 3 10 4
f 3 1 2
f 2 6 3
f 14 20 15
f 15 8 14
f 9 8 15
f 13 19 14
f 14 8 13
f 13 8 7
f 16 5 1
f 11 5 16
f 1 4 16
f 16 4 10
f 16 10 3
f 3 9 16
f 17 20 19
f 19 20 14
f 19 18 17
f 11 16 15
f 15 17 11
f 15 16 9
f 15 20 17
f 13 5 12
f 12 18 13
f 1 5 13
f 7 6 13
f 13 2 1
f 6 2 13
f 18 19 13

