# https://github.com/mikedh/trimesh
v -0.00565769 -0.03093691 0.04291142
v 0.00235567 -0.03093691 0.04291142
v -0.00565769 -0.03093691 0.04463686
v -0.00565769 0.00367092 0.04291142
v 0.00235567 -0.03093691 0.04463686
v 0.00335908 -0.03088948 0.04291142
v 0.00337415 -0.03088948 0.04463686
v -0.00565769 0.00367092 0.04463686
v 0.00617929 0.00367092 0.04291142
v 0.00406471 -0.03085560 0.04291142
v 0.00406471 -0.03085560 0.04463686
v 0.00617929 0.00367092 0.04463686
v 0.00617929 -0.02441110 0.04291142
v 0.00514344 -0.03053710 0.04291142
v 0.00521411 -0.03053710 0.04463686
v 0.00477730 -0.03066585 0.04463686
v 0.00617929 -0.02476687 0.04463686
v 0.00574479 -0.02943930 0.04463686
v 0.00541341 -0.02944608 0.04291142
f 18 19 13
f 14 19 18
f 18 13 17
f 15 14 18
f 14 15 10
f 11 10 16
f 16 10 15
f 7 5 2
f 7 10 11
f 6 7 2
f 10 7 6
f 1 3 8
f 8 4 1
f 4 8 12
f 9 4 12
f 5 3 1
f 1 2 5
f 9 12 17
f 17 13 9
f 7 8 3
f 7 12 8
f 18 17 7
f 3 5 7
f 11 16 7
f 7 17 12
f 7 15 18
f 7 16 15
f 1 4 6
f 6 4 9
f 6 2 1
f 9 13 6
f 6 13 19
f 19 14 6
f 14 10 6

