# https://github.com/mikedh/trimesh
v 0.01623125 0.01949608 0.00555648
v 0.01599049 0.01949608 0.00515604
v 0.01599049 0.01949608 0.00555648
v 0.01640702 0.01844636 0.00555648
v 0.01599049 0.01844636 0.00462533
v 0.01599049 0.01573594 0.00555648
v 0.01645505 0.01673597 0.00555648
v 0.01599049 0.01673597 0.00434015
v 0.01599049 0.01573594 0.00431039
v 0.01625680 0.01573594 0.00502687
v 0.01645904 0.01573925 0.00555648
f 6 9 10
f 11 6 10
f 10 9 11
f 2 3 1
f 1 5 2
f 1 4 5
f 5 4 8
f 7 8 4
f 9 8 7
f 11 9 7
f 8 9 6
f 8 3 2
f 6 3 8
f 2 5 8
f 7 3 6
f 7 6 11
f 7 1 3
f 4 1 7

