# https://github.com/mikedh/trimesh
v -0.00374078 -0.02260537 0.08270519
v -0.00373207 -0.02283141 0.08270519
v -0.00374078 -0.02260537 0.08296023
v -0.00374078 -0.01405372 0.08270519
v -0.00368473 -0.02391021 0.08270519
v -0.00374078 -0.02089470 0.08467102
v -0.00368473 -0.02387425 0.08296023
v -0.00366729 -0.02364479 0.08416698
v -0.00369594 -0.02264476 0.08471062
v -0.00374078 -0.01405372 0.08296023
v -0.00370217 -0.01228825 0.08270519
v -0.00354273 -0.02476641 0.08270519
v -0.00372210 -0.01918403 0.08638047
v -0.00373456 -0.01747506 0.08638047
v -0.00374078 -0.01576439 0.08467102
v -0.00360377 -0.02324238 0.08530728
v -0.00366729 -0.02210193 0.08577978
v -0.00353028 -0.02472874 0.08296023
v -0.00368224 -0.02080223 0.08636168
v -0.00372833 -0.01405372 0.08467102
v -0.00369345 -0.01227626 0.08301997
v -0.00367601 -0.01175569 0.08270519
v -0.00343188 -0.02496504 0.08270519
v -0.00366729 -0.01918403 0.08733419
v -0.00367975 -0.01747506 0.08736640
v -0.00365982 -0.01626783 0.08731137
v -0.00369221 -0.01572501 0.08643684
v -0.00327119 -0.02425612 0.08471062
v -0.00240052 -0.02422187 0.08626704
v -0.00332849 -0.02264476 0.08636168
v -0.00357138 -0.02131081 0.08691941
v -0.00364363 -0.02017036 0.08726774
v -0.00267580 -0.02584007 0.08296023
v -0.00234572 -0.02549075 0.08467102
v -0.00367352 -0.01405372 0.08586569
v -0.00365110 -0.01312389 0.08560058
v -0.00367352 -0.01284477 0.08467102
v -0.00361124 -0.01166151 0.08363005
v -0.00343686 -0.01113581 0.08270519
v -0.00271566 -0.02589487 0.08270519
v -0.00311176 -0.01918403 0.08818924
v -0.00316532 -0.01747506 0.08822213
v -0.00288132 -0.01560000 0.08812548
v -0.00360875 -0.01512909 0.08704425
v -0.00202684 -0.02524074 0.08562206
v -0.00207169 -0.02359000 0.08734828
v -0.00241672 -0.02260537 0.08767245
v -0.00282776 -0.02082278 0.08805703
v -0.00108642 -0.02675449 0.08270519
v -0.00344932 -0.01405372 0.08672007
v -0.00284271 -0.01241325 0.08631268
v -0.00345554 -0.01198858 0.08467102
v -0.00247526 -0.01063750 0.08451397
v -0.00310678 -0.01075052 0.08301997
v -0.00312795 -0.01070258 0.08270519
v -0.00208414 -0.02033646 0.08904632
v -0.00225728 -0.01918403 0.08915437
v -0.00230959 -0.01747506 0.08918726
v -0.00215514 -0.01607262 0.08908994
v -0.00259484 -0.01405372 0.08786038
v -0.00106400 -0.02455750 0.08657712
v -0.00106400 -0.02588460 0.08467102
v -0.00106400 -0.02531266 0.08572206
v -0.00106400 -0.02370301 0.08744694
v -0.00106400 -0.02260537 0.08818858
v -0.00106400 -0.02144095 0.08883356
v 0.00064620 -0.02680415 0.08270519
v 0.00064620 -0.02663291 0.08313809
v 0.00064620 -0.02595651 0.08467102
v -0.00227098 -0.01284135 0.08750533
v -0.00227472 -0.01121115 0.08588582
v -0.00193965 -0.00976761 0.08383945
v -0.00213521 -0.00964603 0.08296023
v -0.00217009 -0.00961521 0.08270519
v -0.00106400 -0.02058647 0.08913088
v -0.00106400 -0.01918403 0.08943022
v -0.00106400 -0.01747506 0.08949398
v -0.00119105 -0.01560685 0.08916914
v -0.00184623 -0.01493217 0.08893960
v 0.00064620 -0.02460544 0.08662880
v 0.00064620 -0.02535033 0.08577441
v 0.00064620 -0.02375096 0.08748923
v 0.00064620 -0.02260537 0.08826844
v 0.00064620 -0.02154370 0.08887114
v 0.00235641 -0.02680586 0.08270519
v 0.00235641 -0.02663291 0.08314010
v 0.00406536 -0.02595651 0.08467102
v -0.00106400 -0.01261017 0.08767916
v -0.00106400 -0.01175569 0.08697176
v -0.00106400 -0.01103307 0.08611737
v -0.00106400 -0.00972651 0.08392536
v -0.00106400 -0.00944397 0.08296023
v -0.00106400 -0.00938232 0.08270519
v -0.00197453 -0.00955356 0.08270519
v -0.00106400 -0.01017687 0.08478109
v 0.00064620 -0.01918403 0.08949801
v 0.00064620 -0.02068921 0.08916511
v 0.00064620 -0.01747506 0.08956110
v 0.00064620 -0.01576439 0.08928793
v -0.00070651 -0.01482086 0.08898658
v -0.00119105 -0.01417187 0.08861275
v 0.00406536 -0.02460544 0.08662880
v 0.00406536 -0.02535033 0.08577441
v 0.00406536 -0.02375096 0.08748923
v 0.00406536 -0.02260537 0.08826844
v 0.00406536 -0.02154370 0.08887114
v 0.00406536 -0.02680415 0.08270519
v 0.00406536 -0.02663291 0.08314010
v 0.00577681 -0.02593768 0.08467102
v 0.00577681 -0.02534177 0.08576166
v 0.00064620 -0.01392186 0.08857382
v 0.00064620 -0.01255880 0.08771876
v 0.00064620 -0.01170261 0.08702344
v 0.00064620 -0.01099368 0.08616838
v 0.00064620 -0.01013749 0.08485492
v 0.00064620 -0.00969227 0.08399986
v 0.00064620 -0.00937548 0.08296023
v -0.00075385 -0.00936863 0.08270519
v 0.00406536 -0.01918403 0.08949801
v 0.00406536 -0.02068921 0.08916511
v 0.00406536 -0.01747506 0.08956110
v 0.00406536 -0.01576439 0.08928793
v 0.00064620 -0.01477806 0.08900672
v 0.00577681 -0.02459346 0.08661604
v 0.00577681 -0.02373898 0.08747781
v 0.00577681 -0.02260537 0.08824898
v 0.00577681 -0.02152143 0.08886242
v 0.00497216 -0.02678702 0.08270519
v 0.00577681 -0.02662263 0.08307769
v 0.00683806 -0.02527841 0.08567441
v 0.00406536 -0.01392186 0.08857382
v 0.00406536 -0.01255880 0.08771876
v 0.00406536 -0.01170261 0.08702344
v 0.00406536 -0.01099368 0.08616838
v 0.00406536 -0.01013749 0.08485492
v 0.00406536 -0.00969227 0.08399986
v 0.00406536 -0.00937548 0.08296023
v 0.00090155 -0.00931212 0.08270519
v 0.00064620 -0.00931383 0.08270519
v 0.00577681 -0.02066524 0.08915639
v 0.00577681 -0.01918403 0.08947989
v 0.00577681 -0.01747506 0.08954230
v 0.00577681 -0.01576439 0.08927048
v 0.00577681 -0.01479518 0.08899867
v 0.00406536 -0.01477806 0.08900672
v 0.00689038 -0.02363794 0.08738989
v 0.00690532 -0.02044092 0.08907988
v 0.00577681 -0.02676134 0.08270519
v 0.00722419 -0.02632982 0.08270519
v 0.00839256 -0.02521848 0.08391060
v 0.00797903 -0.02482292 0.08505090
v 0.00743470 -0.02423043 0.08628986
v 0.00743968 -0.02549931 0.08455692
v 0.00577681 -0.01393899 0.08856375
v 0.00577681 -0.01257079 0.08770870
v 0.00577681 -0.01171460 0.08701136
v 0.00577681 -0.01100395 0.08615630
v 0.00577681 -0.00970083 0.08398241
v 0.00577681 -0.01014776 0.08483814
v 0.00577681 -0.00939431 0.08296023
v 0.00406536 -0.00931383 0.08270519
v 0.00235641 -0.00931212 0.08270519
v 0.00715320 -0.01918403 0.08920404
v 0.00721797 -0.01747506 0.08923491
v 0.00695141 -0.01576439 0.08910001
v 0.00669855 -0.01484484 0.08897585
v 0.00803010 -0.02308656 0.08690532
v 0.00747082 -0.02255229 0.08770870
v 0.00800767 -0.01918403 0.08861342
v 0.00748079 -0.02096491 0.08847784
v 0.00737367 -0.02624762 0.08270519
v 0.00857691 -0.02427838 0.08455692
v 0.00847726 -0.02368247 0.08576568
v 0.00834897 -0.02556096 0.08270519
v 0.00851837 -0.02542396 0.08270519
v 0.00713078 -0.01278826 0.08754426
v 0.00713700 -0.01117177 0.08593817
v 0.00673468 -0.00973165 0.08391530
v 0.00577681 -0.00933438 0.08270519
v 0.00807369 -0.01747506 0.08865637
v 0.00780713 -0.01576439 0.08850268
v 0.00748452 -0.01409310 0.08805770
v 0.00844613 -0.02194611 0.08736103
v 0.00855076 -0.02089470 0.08755164
v 0.00861677 -0.01918403 0.08775836
v 0.00879738 -0.02431605 0.08296023
v 0.00891571 -0.02260537 0.08467102
v 0.00861179 -0.02255229 0.08635362
v 0.00881358 -0.02431605 0.08270519
v 0.00827174 -0.01333965 0.08712881
v 0.00770375 -0.01218893 0.08653349
v 0.00827672 -0.01158788 0.08539722
v 0.00750570 -0.01065634 0.08465626
v 0.00700871 -0.00959466 0.08296023
v 0.00786319 -0.01019228 0.08296023
v 0.00792547 -0.01014605 0.08270519
v 0.00708593 -0.00957240 0.08270519
v 0.00862549 -0.01747506 0.08780131
v 0.00858563 -0.01576439 0.08764695
v 0.00848225 -0.01448010 0.08743151
v 0.00886838 -0.02089470 0.08638047
v 0.00893814 -0.01918403 0.08638047
v 0.00897799 -0.02260537 0.08296023
v 0.00898173 -0.02089470 0.08467102
v 0.00897924 -0.02260537 0.08270519
v 0.00852211 -0.01272833 0.08598918
v 0.00848598 -0.01128136 0.08425692
v 0.00859186 -0.01104676 0.08296023
v 0.00859435 -0.01097998 0.08270519
v 0.00894685 -0.01747506 0.08638047
v 0.00890700 -0.01576439 0.08638047
v 0.00866161 -0.01396810 0.08648718
v 0.00898422 -0.01405372 0.08296023
v 0.00898298 -0.01576439 0.08467102
v 0.00898173 -0.01405372 0.08270519
v 0.00866410 -0.01223345 0.08476431
v 0.00860681 -0.01102964 0.08270519
v 0.00891198 -0.01234304 0.08296023
v 0.00886963 -0.01209132 0.08270519
v 0.00895806 -0.01405372 0.08467102
v 0.00897924 -0.01379857 0.08270519
v 0.00891821 -0.01234304 0.08270519
v 0.00892070 -0.01239955 0.08270519
f 189 186 175
f 189 205 203
f 38 22 36
f 155 166 176
f 176 166 182
f 213 205 215
f 215 221 213
f 14 20 15
f 22 38 39
f 150 175 172
f 175 186 172
f 149 171 153
f 153 171 150
f 124 110 130
f 130 153 150
f 149 153 130
f 124 130 146
f 220 214 213
f 218 216 220
f 221 223 220
f 213 221 220
f 59 77 78
f 174 175 150
f 150 171 174
f 209 196 208
f 208 216 218
f 207 192 206
f 206 216 207
f 216 208 207
f 207 208 196
f 219 208 218
f 36 22 37
f 37 20 36
f 30 47 31
f 6 14 15
f 20 14 27
f 54 39 38
f 52 38 36
f 133 155 156
f 156 155 176
f 142 121 141
f 141 121 119
f 142 164 165
f 143 165 166
f 142 165 143
f 143 121 142
f 122 121 143
f 166 155 154
f 155 131 154
f 68 69 49
f 87 110 103
f 45 49 62
f 49 69 62
f 29 28 45
f 187 172 186
f 188 172 187
f 187 201 188
f 187 189 203
f 186 189 187
f 149 130 129
f 183 201 184
f 188 201 183
f 151 130 150
f 212 216 206
f 212 220 216
f 201 187 202
f 197 179 194
f 194 179 178
f 194 196 197
f 178 196 194
f 57 77 58
f 77 59 58
f 43 59 60
f 60 44 43
f 23 18 12
f 7 5 12
f 34 49 45
f 45 28 34
f 28 18 34
f 222 219 218
f 218 220 222
f 222 220 223
f 209 208 217
f 208 219 217
f 10 11 4
f 20 11 10
f 15 20 10
f 22 11 21
f 21 37 22
f 21 11 20
f 20 37 21
f 48 31 47
f 9 6 3
f 1 2 3
f 3 2 5
f 3 5 7
f 9 17 19
f 36 20 35
f 20 27 35
f 55 54 74
f 39 54 55
f 53 52 71
f 53 54 38
f 38 52 53
f 132 131 155
f 132 155 133
f 158 159 178
f 115 91 95
f 71 89 90
f 90 115 95
f 114 115 90
f 89 113 90
f 90 113 114
f 178 159 157
f 133 156 157
f 163 164 142
f 142 141 163
f 163 141 147
f 56 48 47
f 57 41 56
f 41 48 56
f 180 165 164
f 164 163 180
f 184 201 185
f 198 180 185
f 201 202 185
f 185 202 198
f 99 77 98
f 78 77 99
f 67 68 49
f 69 68 86
f 102 110 124
f 103 110 102
f 46 64 65
f 46 56 47
f 46 29 45
f 46 47 30
f 30 29 46
f 61 46 45
f 64 46 61
f 148 129 128
f 149 129 148
f 110 87 109
f 109 130 110
f 109 129 130
f 168 183 170
f 147 146 168
f 168 170 147
f 173 172 188
f 188 183 173
f 150 172 173
f 173 151 150
f 65 64 83
f 83 64 82
f 146 126 125
f 124 146 125
f 125 102 124
f 220 212 211
f 204 187 203
f 204 202 187
f 203 205 204
f 204 205 213
f 213 214 204
f 195 193 192
f 192 207 195
f 195 207 196
f 195 196 178
f 178 193 195
f 88 111 112
f 112 113 88
f 88 113 89
f 51 52 36
f 71 52 51
f 36 44 50
f 44 60 50
f 50 51 36
f 33 40 49
f 49 34 33
f 33 34 18
f 23 40 33
f 33 18 23
f 7 12 8
f 8 12 18
f 8 17 9
f 8 3 7
f 9 3 8
f 30 31 16
f 31 17 16
f 17 8 16
f 16 29 30
f 28 29 16
f 16 18 28
f 16 8 18
f 32 17 31
f 32 19 17
f 24 19 32
f 32 41 24
f 32 48 41
f 31 48 32
f 13 6 9
f 9 19 13
f 14 6 13
f 13 19 24
f 24 25 13
f 13 25 14
f 42 41 57
f 57 58 42
f 24 41 42
f 42 25 24
f 42 59 43
f 42 58 59
f 54 53 72
f 72 53 71
f 95 91 72
f 93 94 72
f 72 90 95
f 71 90 72
f 139 117 138
f 91 117 92
f 92 72 91
f 93 72 92
f 116 117 91
f 91 115 116
f 136 158 137
f 159 158 135
f 135 158 136
f 135 157 159
f 177 193 178
f 178 157 177
f 177 191 192
f 192 193 177
f 177 157 156
f 176 191 177
f 177 156 176
f 76 56 75
f 76 77 57
f 57 56 76
f 147 141 140
f 140 141 119
f 165 180 181
f 181 182 166
f 166 165 181
f 169 180 163
f 184 185 169
f 169 185 180
f 169 183 184
f 170 183 169
f 147 170 169
f 169 163 147
f 131 145 144
f 144 154 131
f 166 154 144
f 144 143 166
f 144 145 122
f 122 143 144
f 66 46 65
f 56 46 66
f 75 56 66
f 63 61 45
f 45 62 63
f 69 81 63
f 63 62 69
f 82 64 80
f 64 61 80
f 80 63 81
f 61 63 80
f 152 146 130
f 130 151 152
f 102 125 104
f 104 125 126
f 126 105 104
f 198 202 210
f 210 211 198
f 210 204 214
f 202 204 210
f 214 220 210
f 220 211 210
f 70 89 71
f 70 88 89
f 71 51 70
f 70 50 60
f 51 50 70
f 88 70 79
f 79 59 78
f 79 60 59
f 79 70 60
f 25 42 26
f 43 44 26
f 26 42 43
f 26 35 27
f 26 27 14
f 14 25 26
f 26 44 36
f 36 35 26
f 74 54 73
f 54 72 73
f 73 94 74
f 73 72 94
f 93 92 118
f 117 139 118
f 118 92 117
f 160 137 158
f 178 179 160
f 160 158 178
f 179 161 160
f 160 161 137
f 157 135 134
f 133 157 134
f 75 97 96
f 96 76 75
f 98 77 96
f 77 76 96
f 200 212 206
f 200 181 180
f 68 67 85
f 85 86 68
f 108 107 128
f 128 129 108
f 129 109 108
f 108 109 87
f 108 85 107
f 86 85 108
f 65 83 84
f 84 66 65
f 84 97 75
f 75 66 84
f 151 173 167
f 167 152 151
f 146 152 167
f 167 173 183
f 167 168 146
f 183 168 167
f 123 111 100
f 100 79 78
f 100 99 123
f 78 99 100
f 137 161 162
f 198 211 199
f 199 180 198
f 199 200 180
f 199 211 212
f 212 200 199
f 206 192 190
f 190 200 206
f 192 191 190
f 190 191 176
f 176 182 190
f 182 181 190
f 181 200 190
f 106 105 126
f 111 88 101
f 101 100 111
f 88 79 101
f 79 100 101
f 120 140 119
f 127 106 126
f 147 140 127
f 127 120 106
f 140 120 127
f 127 146 147
f 127 126 146
f 69 87 81
f 81 87 103
f 3 4 1
f 15 10 3
f 3 6 15
f 3 10 4
f 112 132 113
f 113 132 133
f 99 121 122
f 98 121 99
f 145 99 122
f 123 99 145
f 111 132 112
f 131 132 111
f 123 145 111
f 111 145 131
f 117 116 137
f 137 116 136
f 136 116 135
f 135 116 115
f 80 81 103
f 103 102 80
f 104 80 102
f 82 80 104
f 104 83 82
f 104 105 83
f 134 135 115
f 134 115 114
f 134 113 133
f 114 113 134
f 96 121 98
f 119 121 96
f 108 87 69
f 69 86 108
f 162 215 205
f 1 4 162
f 22 39 162
f 162 196 209
f 162 11 22
f 162 189 175
f 49 40 162
f 162 139 138
f 74 94 162
f 205 189 162
f 175 174 162
f 162 222 223
f 93 118 162
f 162 171 149
f 162 148 128
f 221 215 162
f 162 223 221
f 209 217 162
f 162 179 197
f 197 196 162
f 162 174 171
f 162 2 1
f 162 40 23
f 23 12 162
f 4 11 162
f 162 55 74
f 5 2 162
f 162 12 5
f 219 222 162
f 162 217 219
f 39 55 162
f 162 94 93
f 162 67 49
f 149 148 162
f 128 107 162
f 162 85 67
f 162 118 139
f 162 161 179
f 107 85 162
f 117 137 162
f 138 117 162
f 83 105 106
f 106 84 83
f 84 106 120
f 97 84 120
f 119 96 120
f 120 96 97

