# https://github.com/mikedh/trimesh
v 0.00826803 -0.02619995 0.01708237
v -0.00665524 -0.02619995 0.01715156
v 0.00826803 -0.02619995 0.02580820
v 0.00826803 -0.02773307 0.01750520
v -0.00914884 -0.02773744 0.01735913
v -0.00953395 -0.02773744 0.01735913
v -0.00789769 -0.02620085 0.01715070
v -0.00953395 -0.02619995 0.01735913
v 0.00826803 -0.02773307 0.02580820
v -0.00953395 -0.02619995 0.02580820
v -0.00789769 -0.02773744 0.01765725
v -0.00953395 -0.02773744 0.02580820
v -0.00789769 -0.02773744 0.02580820
f 6 1 5
f 7 1 6
f 6 8 7
f 1 7 2
f 2 7 8
f 4 5 1
f 5 4 11
f 10 8 6
f 6 12 10
f 2 10 3
f 2 3 1
f 8 10 2
f 3 10 13
f 13 9 3
f 13 10 12
f 1 3 4
f 3 9 4
f 11 12 6
f 11 13 12
f 6 5 11
f 9 13 11
f 11 4 9

