# https://github.com/mikedh/trimesh
v 0.01308701 0.01006610 -0.00088768
v 0.01262074 0.01232228 -0.00093912
v 0.01432927 0.01006610 -0.00075454
v 0.01308701 0.01006610 0.01379050
v 0.01262052 0.01577301 -0.00093912
v 0.01262074 0.01577209 -0.00093912
v 0.01358227 0.01577301 -0.00083625
v 0.01262074 0.01232228 0.01134414
v 0.01432950 0.01232228 -0.00075454
v 0.01489856 0.01006610 -0.00051550
v 0.01412881 0.01006610 0.01451518
v 0.01462830 0.01949608 0.01365132
v 0.01262052 0.01949608 0.01194476
v 0.01262074 0.01232320 0.01284948
v 0.01262052 0.01844369 -0.00093912
v 0.01262052 0.01577301 0.01117923
v 0.01432950 0.01502434 -0.00075454
v 0.01489856 0.01232136 -0.00051550
v 0.01489856 0.01006610 0.01451518
v 0.01472463 0.01232136 0.01451518
v 0.01489856 0.01232136 0.01451518
v 0.01462830 0.01949608 -0.00035817
v 0.01262052 0.01949608 -0.00092247
v 0.01262052 0.01673586 0.01192207
v 0.01432950 0.01673586 -0.00073488
v 0.01432950 0.01577301 -0.00074698
v 0.01462830 0.01577301 -0.00061990
v 0.01462808 0.01502434 -0.00062746
v 0.01462830 0.01627890 -0.00061385
v 0.01462830 0.01673586 -0.00060780
v 0.01462830 0.01798027 -0.00053518
v 0.01462830 0.01844553 -0.00049735
v 0.01432950 0.01844553 -0.00063805
v 0.01436986 0.01949608 -0.00047920
v 0.01328034 0.01949608 -0.00080749
f 12 11 20
f 1 2 3
f 12 13 4
f 4 11 12
f 12 20 21
f 33 30 25
f 14 4 13
f 22 18 32
f 32 33 22
f 25 23 35
f 35 33 25
f 10 3 9
f 18 17 28
f 4 14 8
f 24 14 13
f 18 30 31
f 31 32 18
f 30 33 31
f 33 32 31
f 22 33 34
f 33 35 34
f 7 3 2
f 7 9 3
f 17 9 7
f 2 6 7
f 18 28 27
f 17 26 27
f 27 28 17
f 15 7 6
f 17 7 15
f 15 26 17
f 15 23 25
f 25 26 15
f 16 8 14
f 14 24 16
f 29 30 18
f 18 27 29
f 29 27 26
f 25 30 29
f 29 26 25
f 10 19 4
f 4 19 11
f 4 3 10
f 1 3 4
f 11 19 21
f 21 20 11
f 21 22 12
f 21 18 22
f 21 19 10
f 10 18 21
f 9 18 10
f 9 17 18
f 1 4 8
f 8 2 1
f 12 22 34
f 34 13 12
f 34 23 13
f 34 35 23
f 15 2 5
f 15 6 2
f 2 8 16
f 5 2 16
f 13 23 16
f 16 15 5
f 16 24 13
f 23 15 16

