# https://github.com/mikedh/trimesh
v 0.01303018 0.01716991 0.06922742
v 0.01612480 0.01716991 0.06922742
v 0.01303018 0.01716991 0.07098726
v 0.01303018 0.04222492 0.06922742
v 0.01612480 0.01716991 0.07098726
v 0.01612480 0.04145230 0.06922742
v 0.01303018 0.04062326 0.07098726
v 0.01303018 0.04222492 0.06927601
v 0.01432970 0.04213171 0.06922742
v 0.01612480 0.04141060 0.07098726
v 0.01563831 0.04176625 0.06922742
v 0.01612480 0.04150871 0.07022303
v 0.01432879 0.04207285 0.07098726
v 0.01303018 0.04214152 0.07098640
v 0.01432970 0.04207285 0.07098640
v 0.01562862 0.04177116 0.06922742
v 0.01567042 0.04175889 0.07098726
v 0.01612480 0.04151361 0.07098640
f 8 9 4
f 8 15 9
f 14 15 8
f 17 16 9
f 9 15 17
f 17 10 18
f 11 12 6
f 18 12 11
f 11 17 18
f 16 17 11
f 13 15 14
f 13 17 15
f 14 7 13
f 1 2 5
f 5 3 1
f 2 6 12
f 12 5 2
f 18 10 12
f 12 10 5
f 8 4 1
f 1 3 8
f 3 7 8
f 8 7 14
f 1 4 11
f 11 2 1
f 11 6 2
f 4 9 11
f 9 16 11
f 3 5 13
f 13 7 3
f 5 10 13
f 10 17 13

