# https://github.com/mikedh/trimesh
v -0.00765989 0.01096559 0.03201928
v -0.00738841 0.00165964 0.03201928
v -0.00735212 0.00165964 0.02580942
v -0.00765989 0.01096559 0.02580942
v -0.01943984 0.01096559 0.03201928
v -0.02007163 0.00165964 0.03201928
v -0.01995403 0.00165964 0.02580942
v -0.01943984 0.01096559 0.02580942
v -0.02006287 0.00305257 0.02993331
v -0.02010290 0.00165964 0.03164355
v -0.01997029 0.00165964 0.02594013
v -0.02004160 0.00165964 0.02651406
v -0.02007163 0.00165964 0.02683142
v -0.02011666 0.00165964 0.02854166
v -0.02013293 0.00165964 0.02993331
f 3 1 2
f 4 1 3
f 8 9 5
f 10 9 15
f 6 5 10
f 10 5 9
f 13 9 8
f 12 13 8
f 15 9 14
f 9 13 14
f 8 7 11
f 11 12 8
f 3 7 4
f 4 7 8
f 5 4 8
f 1 4 5
f 5 6 2
f 5 2 1
f 3 2 11
f 11 10 15
f 2 6 11
f 11 7 3
f 6 10 11
f 15 14 11
f 13 12 11
f 11 14 13

