# https://github.com/mikedh/trimesh
v 0.01645206 -0.01581789 0.00555377
v 0.01645206 -0.01581668 0.00553193
v 0.01897560 -0.01581789 0.00661185
v 0.01645206 -0.01581789 0.02580820
v 0.01645206 -0.01576341 0.00552995
v 0.01897801 -0.01063266 0.00660987
v 0.01900272 -0.01581789 0.00663369
v 0.01645206 -0.01405336 0.00552796
v 0.02157748 -0.01581789 0.02580820
v 0.01645206 -0.00963447 0.02580820
v 0.01897862 -0.00963447 0.00660987
v 0.01983366 -0.00963447 0.00730070
v 0.01983064 -0.01581789 0.00734239
v 0.01645206 -0.01234331 0.00552796
v 0.02197577 -0.01581789 0.02542705
v 0.02235840 -0.00963447 0.02580820
v 0.01645206 -0.00963447 0.00553789
v 0.01645206 -0.01063266 0.00552995
v 0.02060675 -0.00963447 0.00815630
v 0.01985414 -0.01581789 0.00736819
v 0.02212762 -0.01581789 0.02457741
v 0.02252893 -0.00963447 0.02480173
v 0.02055613 -0.01581789 0.00819600
v 0.02135031 -0.00963447 0.00940892
v 0.02222885 -0.01581789 0.02309054
v 0.02260485 -0.00963447 0.02309054
v 0.02124787 -0.01581789 0.00940892
v 0.02191491 -0.00963447 0.01065559
v 0.02260666 -0.00963447 0.02138133
v 0.02260666 -0.00963447 0.02209399
v 0.02222403 -0.01581789 0.01459412
v 0.02126716 -0.01581789 0.00945855
v 0.02216558 -0.00963447 0.01151119
v 0.02189021 -0.01581789 0.01126702
v 0.02260425 -0.00963447 0.01967013
v 0.02222343 -0.01581789 0.01454052
v 0.02258135 -0.00963447 0.01454052
v 0.02259702 -0.00963447 0.01624973
v 0.02260063 -0.00963447 0.01795894
v 0.02189262 -0.01581789 0.01127694
v 0.02243553 -0.00963447 0.01282932
v 0.02210894 -0.01581789 0.01270624
v 0.02202518 -0.01581789 0.01199556
f 16 9 15
f 26 22 25
f 21 22 16
f 16 15 21
f 25 22 21
f 30 25 29
f 30 26 25
f 2 3 1
f 2 5 3
f 6 11 12
f 17 11 18
f 28 34 32
f 32 27 28
f 28 27 24
f 24 27 23
f 23 19 24
f 12 13 7
f 7 6 12
f 3 6 7
f 12 19 20
f 20 13 12
f 20 19 23
f 33 34 28
f 42 41 37
f 37 36 42
f 11 6 8
f 3 5 8
f 8 6 3
f 40 33 41
f 34 33 40
f 14 18 11
f 11 8 14
f 41 42 43
f 43 40 41
f 31 35 29
f 29 25 31
f 37 38 31
f 31 36 37
f 39 31 38
f 35 31 39
f 10 4 9
f 9 16 10
f 14 4 10
f 1 4 14
f 10 17 14
f 14 2 1
f 5 2 14
f 17 18 14
f 14 8 5
f 31 4 1
f 31 9 4
f 31 32 34
f 31 43 42
f 1 3 31
f 25 21 31
f 31 15 9
f 23 27 31
f 3 7 31
f 31 20 23
f 31 21 15
f 27 32 31
f 31 7 13
f 13 20 31
f 31 42 36
f 34 40 31
f 40 43 31
f 39 17 10
f 39 33 28
f 28 24 39
f 10 16 39
f 39 11 17
f 16 22 39
f 39 30 29
f 22 26 39
f 12 11 39
f 39 19 12
f 37 41 39
f 26 30 39
f 39 24 19
f 41 33 39
f 39 38 37
f 29 35 39

