# https://github.com/mikedh/trimesh
v -0.02013083 0.01774258 0.02580705
v -0.02012333 0.01673780 0.02480199
v -0.02012333 0.01673780 0.02580705
v -0.02013083 0.02870725 0.02580705
v -0.02012208 0.02870725 0.02480199
v -0.02010333 0.01844972 0.02309132
v -0.02010333 0.01673780 0.02309132
v -0.02002958 0.01355966 0.01991344
v -0.02007333 0.01603265 0.02580705
v -0.01999083 0.01232117 0.01991344
v -0.01997959 0.01232117 0.02038828
v -0.02009083 0.03040519 0.02580705
v -0.02008458 0.03041917 0.02480199
v -0.02007208 0.03040519 0.02307747
v -0.02010208 0.02870725 0.02309132
v -0.02005333 0.03041917 0.02138238
v -0.02007708 0.02870725 0.02138238
v -0.02004083 0.01526958 0.01991344
v -0.02003958 0.01502788 0.01991344
v -0.02007708 0.02186756 0.02138238
v -0.02007583 0.02015964 0.02138238
v -0.01992084 0.01502788 0.02580705
v -0.00766138 0.01232117 0.01991344
v -0.01948211 0.01232117 0.02580705
v -0.02008958 0.03041917 0.02580705
v -0.01980834 0.03212910 0.01991344
v -0.02007083 0.03041917 0.02309132
v -0.02003458 0.03041917 0.01991344
v -0.02005208 0.02870725 0.01991344
v -0.02005083 0.02699733 0.01991344
v -0.00766138 0.01232117 0.02580705
v -0.00736265 0.03185143 0.01991344
v -0.01981459 0.03212910 0.02580705
v -0.01964210 0.03272837 0.01991344
v -0.00736265 0.03230688 0.02126006
v -0.00736265 0.03272837 0.02173143
v -0.00757764 0.03272837 0.02580705
v -0.00736265 0.03272837 0.01991344
v -0.01964335 0.03272837 0.02580705
v -0.01964335 0.03272837 0.02539972
f 32 31 23
f 36 37 31
f 3 8 10
f 10 11 3
f 3 11 9
f 26 33 34
f 40 33 39
f 34 33 40
f 35 31 32
f 35 36 31
f 22 11 24
f 9 11 22
f 33 26 25
f 19 7 18
f 8 7 19
f 18 7 21
f 2 3 1
f 1 4 2
f 8 3 2
f 2 7 8
f 28 29 17
f 17 15 28
f 18 21 30
f 13 14 4
f 13 25 26
f 28 15 16
f 16 26 28
f 4 14 5
f 5 2 4
f 5 16 15
f 14 16 5
f 15 17 6
f 7 2 6
f 2 5 6
f 6 5 15
f 20 17 29
f 29 30 20
f 20 30 21
f 20 21 7
f 12 13 4
f 25 13 12
f 27 13 26
f 14 13 27
f 26 16 27
f 27 16 14
f 31 24 11
f 10 23 11
f 11 23 31
f 40 39 37
f 40 38 34
f 37 36 40
f 40 36 38
f 32 38 35
f 38 36 35
f 30 29 28
f 32 23 30
f 30 38 32
f 30 23 10
f 34 38 30
f 10 8 30
f 30 26 34
f 30 19 18
f 28 26 30
f 8 19 30
f 20 6 17
f 7 6 20
f 31 37 12
f 1 3 12
f 12 24 31
f 37 39 12
f 12 4 1
f 39 33 12
f 12 3 9
f 12 22 24
f 9 22 12
f 33 25 12

