# https://github.com/mikedh/trimesh
v 0.00918152 -0.01125444 0.08016363
v 0.00912430 -0.01152478 0.08043339
v 0.00918152 -0.01883349 0.07893473
v 0.00918152 -0.00677429 0.07969904
v 0.00904293 -0.01405231 0.08043339
v 0.00887129 -0.00969849 0.08043339
v 0.00896792 -0.01883349 0.07919592
v 0.00918152 -0.01883349 0.05856369
v 0.00877720 -0.01589159 0.08043339
v 0.00918152 -0.00677429 0.05856369
v 0.00064628 -0.00677429 0.07969904
v 0.00406521 -0.00858760 0.08043339
v 0.00524003 -0.00860413 0.08043339
v 0.00577658 -0.00861475 0.08043339
v 0.00694250 -0.00875524 0.08043339
v 0.00750956 -0.00891343 0.08043339
v 0.00842374 -0.00921565 0.08043339
v 0.00876321 -0.01883349 0.07938433
v -0.00380761 -0.01883349 0.05856369
v 0.00918152 -0.01761163 0.05856155
v 0.00760365 -0.01742038 0.08043339
v 0.00918152 -0.00841642 0.05856155
v -0.00380761 -0.00677429 0.05856369
v -0.00233654 -0.00677429 0.07969476
v 0.00064628 -0.00858878 0.08043339
v 0.00182237 -0.00858760 0.08043339
v 0.00748795 -0.01883349 0.07981037
v -0.00380761 -0.01761163 0.05856155
v -0.00380761 -0.01883349 0.07744035
v 0.00656488 -0.01756913 0.08043339
v -0.00380761 -0.00841642 0.05856155
v -0.00380761 -0.00677429 0.07969048
v -0.00106382 -0.00864191 0.08043339
v 0.00578802 -0.01883349 0.07986818
v -0.00365885 -0.01883349 0.07920449
v -0.00368682 -0.01567083 0.08043339
v -0.00371988 -0.01478424 0.08043339
v -0.00374022 -0.01405231 0.08043339
v -0.00380761 -0.01154367 0.08043339
v 0.00577658 -0.01760691 0.08043339
v -0.00380761 -0.01084479 0.08043339
v -0.00265568 -0.00910232 0.08043339
v 0.00064628 -0.01883349 0.07986818
v -0.00341219 -0.01883349 0.07942072
v -0.00269891 -0.01729997 0.08043339
v 0.00064628 -0.01760691 0.08043339
v -0.00106382 -0.01883349 0.07986389
v -0.00025136 -0.01760337 0.08043339
v -0.00106382 -0.01759982 0.08043339
v -0.00276756 -0.01883349 0.07968406
v -0.00176058 -0.01749240 0.08043339
v -0.00255905 -0.01883349 0.07971831
f 29 35 36
f 5 9 3
f 18 9 21
f 21 27 18
f 2 3 1
f 2 5 3
f 1 4 2
f 3 9 7
f 9 18 7
f 51 45 52
f 52 47 51
f 32 41 42
f 42 33 32
f 44 45 36
f 36 35 44
f 51 47 49
f 30 27 21
f 30 34 27
f 40 34 30
f 37 29 36
f 6 2 4
f 50 52 45
f 45 44 50
f 43 49 47
f 38 39 29
f 29 37 38
f 15 16 4
f 4 14 15
f 4 16 17
f 17 6 4
f 13 14 4
f 4 12 13
f 11 24 25
f 25 24 32
f 32 33 25
f 43 46 48
f 49 43 48
f 11 25 26
f 20 8 28
f 28 8 19
f 3 8 22
f 1 3 22
f 22 8 20
f 22 4 1
f 10 4 22
f 20 28 22
f 28 31 22
f 22 31 23
f 23 10 22
f 39 28 19
f 23 31 39
f 39 32 23
f 39 31 28
f 19 29 39
f 39 41 32
f 23 32 24
f 24 4 10
f 24 10 23
f 24 11 4
f 43 8 3
f 19 8 43
f 43 29 19
f 3 7 43
f 35 29 43
f 43 18 27
f 43 44 35
f 43 7 18
f 47 52 43
f 27 34 43
f 52 50 43
f 43 50 44
f 46 43 34
f 46 34 40
f 21 9 26
f 9 5 26
f 26 30 21
f 36 45 26
f 33 42 26
f 26 45 51
f 51 49 26
f 5 2 26
f 26 37 36
f 26 42 41
f 41 39 26
f 16 15 26
f 26 17 16
f 40 30 26
f 2 6 26
f 39 38 26
f 14 13 26
f 26 38 37
f 26 15 14
f 26 46 40
f 6 17 26
f 26 25 33
f 26 13 12
f 49 48 26
f 26 48 46
f 4 11 26
f 26 12 4

