# https://github.com/mikedh/trimesh
v -0.00738422 0.02870983 0.07810450
v -0.00738422 0.02699326 0.07810450
v -0.00738422 0.03041942 0.07809534
v -0.00814386 0.03474096 0.08196727
v -0.00738422 0.02582648 0.07809534
v -0.00738422 0.03212989 0.07801515
v -0.01554773 0.03474096 0.08196727
v -0.00815964 0.02582648 0.08196727
v -0.00738422 0.03371730 0.07765545
v -0.00738422 0.03372516 0.07765316
v -0.00738422 0.03474096 0.07719953
v -0.00738422 0.02582648 0.05856384
v -0.01554878 0.02724896 0.08196727
v -0.01607274 0.03474096 0.07782728
v -0.01554878 0.02582648 0.08196727
v -0.00738422 0.03474096 0.05856384
v -0.01813072 0.02582648 0.05856384
v -0.01617480 0.03474096 0.07701624
v -0.01628738 0.02870983 0.07611584
v -0.01628633 0.02582648 0.07611584
v -0.01811073 0.03474096 0.05856384
v -0.01813177 0.03338917 0.05856384
v -0.01686500 0.02582648 0.07098610
v -0.01686605 0.02699937 0.07098610
v -0.01686711 0.03212989 0.07098610
v -0.01628738 0.03474096 0.07611584
v -0.01638418 0.03474096 0.07530709
v -0.01649149 0.02582648 0.07440669
v -0.01642731 0.02582648 0.07494281
v -0.01813072 0.03384035 0.05856384
v -0.01763727 0.03474096 0.06333388
v -0.01686711 0.03474096 0.07098610
v -0.01704071 0.03474096 0.06927695
v -0.01668404 0.02582648 0.07269525
v -0.01649044 0.03474096 0.07440669
v -0.01668404 0.03474096 0.07269525
v -0.01712277 0.03474096 0.06846591
v -0.01734793 0.03474096 0.06623210
v -0.01739317 0.03474096 0.06578305
v -0.01747103 0.03474096 0.06500637
f 22 17 25
f 4 8 5
f 22 25 32
f 1 4 2
f 4 5 2
f 10 11 4
f 3 4 1
f 3 6 4
f 4 6 9
f 9 10 4
f 15 19 20
f 15 13 14
f 14 19 15
f 14 13 7
f 17 23 24
f 24 25 17
f 24 23 34
f 24 34 25
f 21 30 31
f 30 40 31
f 19 26 27
f 28 27 35
f 19 27 28
f 34 28 36
f 36 28 35
f 18 26 19
f 19 14 18
f 33 37 30
f 33 30 22
f 22 32 33
f 39 40 30
f 29 20 19
f 19 28 29
f 30 37 38
f 38 39 30
f 13 8 4
f 4 7 13
f 15 8 13
f 30 16 12
f 30 17 22
f 12 17 30
f 30 21 16
f 12 16 9
f 9 5 12
f 16 11 9
f 11 10 9
f 1 2 9
f 9 2 5
f 9 3 1
f 6 3 9
f 36 32 25
f 25 34 36
f 29 8 15
f 29 17 12
f 12 5 29
f 29 5 8
f 15 20 29
f 29 23 17
f 34 23 29
f 29 28 34
f 38 7 4
f 38 11 16
f 4 11 38
f 16 21 38
f 38 27 26
f 38 14 7
f 21 31 38
f 26 18 38
f 32 36 38
f 38 31 40
f 38 33 32
f 35 27 38
f 38 36 35
f 38 18 14
f 37 33 38
f 40 39 38

