# https://github.com/mikedh/trimesh
v -0.00315608 0.03764633 0.08041963
v -0.00315608 0.03764633 0.08347202
v -0.00315608 0.03896938 0.08041963
v 0.00918152 0.03764633 0.08041963
v -0.00315608 0.03858811 0.08386426
v -0.00265248 0.03764633 0.08433245
v -0.00315608 0.03896938 0.08388667
v 0.00918152 0.03896938 0.08041963
v 0.00918152 0.03764633 0.08331803
v -0.00315608 0.03871502 0.08387837
v -0.00315608 0.03883353 0.08388750
v -0.00106439 0.03764633 0.08463171
v -0.00106439 0.03896938 0.08395183
v 0.00918152 0.03896938 0.08399957
v 0.00918152 0.03798201 0.08383603
v 0.00894119 0.03764633 0.08359405
v 0.00064568 0.03764633 0.08465994
v 0.00064568 0.03896938 0.08396346
v 0.00406581 0.03764633 0.08465994
v 0.00426991 0.03764633 0.08465952
v 0.00577588 0.03764633 0.08465330
v 0.00598964 0.03764633 0.08464873
v 0.00918152 0.03895500 0.08400372
v 0.00918152 0.03799756 0.08385886
v 0.00841223 0.03764633 0.08412741
v 0.00794486 0.03764633 0.08432290
f 11 6 7
f 12 7 6
f 12 13 7
f 17 13 12
f 25 24 26
f 5 2 6
f 17 14 18
f 18 13 17
f 16 24 25
f 19 14 17
f 19 20 14
f 21 22 14
f 14 20 21
f 22 26 23
f 14 22 23
f 23 26 24
f 10 6 11
f 10 5 6
f 15 16 9
f 24 16 15
f 1 3 8
f 8 4 1
f 18 8 3
f 14 8 18
f 3 7 18
f 7 13 18
f 1 4 21
f 17 12 21
f 4 9 21
f 21 2 1
f 25 26 21
f 21 16 25
f 6 2 21
f 21 12 6
f 21 19 17
f 21 26 22
f 9 16 21
f 20 19 21
f 10 3 1
f 10 7 3
f 11 7 10
f 1 2 10
f 2 5 10
f 4 8 15
f 15 8 14
f 15 9 4
f 14 23 15
f 15 23 24

