# https://github.com/mikedh/trimesh
v -0.01290366 0.04121859 0.03493069
v -0.01132871 0.04093112 0.03335495
v -0.01303758 0.04092924 0.03335495
v -0.01303758 0.04121796 0.03493069
v -0.00777303 0.04121545 0.03493069
v -0.00538382 0.04109495 0.03425137
v -0.00538382 0.04093615 0.03335495
v -0.00790829 0.04093426 0.03335495
v -0.01303758 0.04060475 0.03164470
v -0.01474913 0.04041205 0.03111335
v -0.01474913 0.04050746 0.03164470
v -0.01474913 0.04074283 0.03335495
v -0.01474913 0.04092987 0.03493069
v -0.00606282 0.04121420 0.03493069
v -0.00538382 0.04121357 0.03493069
v -0.00538382 0.04060098 0.03164470
v -0.00619674 0.04060161 0.03164470
v -0.00961850 0.04060349 0.03164470
v -0.01303758 0.04049177 0.03111335
v -0.01593838 0.04008002 0.03111335
v -0.01597454 0.04011894 0.03164470
v -0.01600534 0.04019237 0.03335495
v -0.01600802 0.04023443 0.03493069
v -0.00538382 0.03510836 0.03493069
v -0.00538382 0.04054700 0.03139210
v -0.01132871 0.04049114 0.03111335
v -0.01620355 0.03983398 0.03111335
v -0.01679415 0.03919315 0.03111335
v -0.01682897 0.03918938 0.03164470
v -0.01607498 0.04015472 0.03493069
v -0.00538382 0.03571907 0.03111335
v -0.00711010 0.03480708 0.03493069
v -0.00740340 0.03480708 0.03111335
v -0.00538382 0.04048675 0.03111335
v -0.00619674 0.04048737 0.03111335
v -0.01745172 0.03833765 0.03111335
v -0.01685978 0.03918059 0.03335495
v -0.01686245 0.03918122 0.03493069
v -0.01906417 0.03480708 0.03493069
v -0.01905345 0.03480708 0.03111335
v -0.01802893 0.03726247 0.03111335
v -0.01801822 0.03726247 0.03493069
v -0.01744101 0.03832635 0.03493069
v -0.01874543 0.03566132 0.03493069
v -0.01874677 0.03565128 0.03164470
v -0.01906149 0.03480708 0.03334748
v -0.01905613 0.03480708 0.03164470
v -0.01896238 0.03505877 0.03111335
v -0.01874677 0.03564877 0.03111335
v -0.01874543 0.03565819 0.03335495
f 6 1 5
f 32 33 24
f 33 31 24
f 3 9 10
f 1 2 3
f 3 2 9
f 14 15 6
f 6 5 14
f 38 36 43
f 10 9 19
f 7 1 6
f 4 12 13
f 4 3 10
f 1 3 4
f 27 28 21
f 36 41 42
f 43 36 42
f 26 19 9
f 9 2 8
f 8 7 9
f 8 2 1
f 1 7 8
f 11 4 10
f 12 4 11
f 29 21 28
f 29 28 36
f 23 13 22
f 13 21 22
f 22 29 23
f 21 29 22
f 27 21 20
f 20 11 10
f 12 11 20
f 13 12 20
f 20 21 13
f 44 42 41
f 9 7 18
f 18 26 9
f 36 38 37
f 37 29 36
f 47 46 49
f 41 49 45
f 39 44 45
f 45 46 39
f 49 46 45
f 7 16 17
f 17 18 7
f 26 18 17
f 16 25 17
f 17 25 26
f 35 25 34
f 26 25 35
f 30 37 38
f 23 29 30
f 29 37 30
f 40 47 48
f 48 47 49
f 50 44 41
f 41 45 50
f 50 45 44
f 15 24 25
f 25 24 31
f 6 15 25
f 31 34 25
f 25 7 6
f 25 16 7
f 47 33 32
f 47 32 39
f 47 40 33
f 39 46 47
f 39 32 30
f 30 5 1
f 30 44 39
f 32 24 30
f 1 4 30
f 30 24 15
f 30 13 23
f 15 14 30
f 30 14 5
f 30 38 43
f 30 4 13
f 43 42 30
f 42 44 30
f 33 40 48
f 36 28 48
f 48 31 33
f 48 20 10
f 48 34 31
f 10 19 48
f 48 41 36
f 48 35 34
f 48 28 27
f 48 49 41
f 19 26 48
f 27 20 48
f 26 35 48

