# https://github.com/mikedh/trimesh
v -0.00101125 0.02857207 0.08447198
v -0.00101125 0.02857207 0.08350209
v -0.00124364 0.02857207 0.08447198
v -0.00101125 0.02728918 0.08447198
v -0.00107337 0.02857207 0.08350209
v -0.00101125 0.02857031 0.08350209
v -0.00127991 0.02728918 0.08447198
v -0.00101125 0.02728918 0.08443619
v -0.00106503 0.02857044 0.08350209
v -0.00106503 0.02728918 0.08443638
f 7 3 5
f 7 5 10
f 9 6 8
f 8 10 9
f 9 10 5
f 3 4 1
f 7 4 3
f 5 3 1
f 1 2 5
f 1 4 6
f 6 2 1
f 4 8 6
f 10 4 7
f 10 8 4
f 9 5 2
f 2 6 9

