# https://github.com/mikedh/trimesh
v 0.01532216 -0.01498413 0.07299165
v 0.01825102 -0.01498413 0.07299165
v 0.01532216 -0.01498413 0.07448046
v 0.01532216 0.04183918 0.07299165
v 0.01825102 -0.01498413 0.07448046
v 0.01825102 0.03997530 0.07299165
v 0.01532216 0.04184474 0.07448046
v 0.01532216 0.04185030 0.07435831
v 0.01616045 0.04175016 0.07448046
v 0.01617249 0.04174459 0.07431619
v 0.01588780 0.04175572 0.07299165
v 0.01825102 0.04059288 0.07448046
v 0.01798353 0.04030356 0.07299165
v 0.01825102 0.04010883 0.07321321
v 0.01644944 0.04169452 0.07448046
v 0.01612433 0.04168339 0.07299165
v 0.01825102 0.04058175 0.07444606
v 0.01672466 0.04144971 0.07299165
v 0.01770429 0.04104911 0.07448046
v 0.01779575 0.04048717 0.07299165
v 0.01745774 0.04121047 0.07448046
v 0.01683045 0.04151091 0.07368548
f 9 15 10
f 8 7 9
f 9 4 8
f 9 10 4
f 4 10 11
f 10 15 11
f 12 18 19
f 15 21 22
f 21 19 22
f 22 19 18
f 13 14 6
f 16 22 18
f 16 11 15
f 15 22 16
f 14 13 17
f 17 13 20
f 17 20 18
f 17 18 12
f 5 3 1
f 1 2 5
f 7 4 1
f 1 3 7
f 8 4 7
f 3 5 19
f 19 7 3
f 19 5 12
f 19 9 7
f 15 9 19
f 19 21 15
f 1 4 16
f 16 2 1
f 16 6 2
f 4 11 16
f 18 20 16
f 16 13 6
f 20 13 16
f 17 5 2
f 12 5 17
f 2 6 17
f 6 14 17

