# https://github.com/mikedh/trimesh
v -0.00501557 0.03352751 0.07759972
v -0.00501557 0.03364664 0.07756617
v -0.00541245 0.03352751 0.07742827
v -0.00501557 0.03352751 0.05856341
v -0.00501557 0.03424734 0.07688783
v -0.00623524 0.03424932 0.07667912
v -0.00623524 0.03352751 0.07705183
v -0.00623524 0.03352751 0.05856341
v -0.00501557 0.03424932 0.05856341
v -0.00501557 0.03424932 0.07667539
v -0.00501736 0.03424932 0.07688411
v -0.00623524 0.03424932 0.05856341
f 7 2 6
f 1 2 3
f 2 7 3
f 5 11 6
f 6 2 5
f 11 5 10
f 8 4 1
f 1 3 8
f 8 3 7
f 8 9 4
f 8 12 9
f 6 12 8
f 8 7 6
f 10 12 6
f 6 11 10
f 9 12 10
f 1 4 10
f 10 2 1
f 4 9 10
f 10 5 2

