# https://github.com/mikedh/trimesh
v -0.02013364 -0.01405552 0.03201989
v -0.02007639 -0.01576266 0.03201989
v -0.02005858 -0.01576266 0.03469321
v -0.02012092 -0.01405552 0.03335544
v -0.02013364 -0.01367264 0.03201989
v -0.01989827 -0.01747332 0.03201989
v -0.01990082 -0.01747332 0.03382214
v -0.01990082 -0.01747332 0.03469321
v -0.01989955 -0.01747332 0.03506577
v -0.01989446 -0.01747332 0.03653435
v -0.02005349 -0.01576266 0.03506577
v -0.02009038 -0.01405200 0.03506577
v -0.02009038 -0.01063772 0.03506577
v -0.02011201 -0.01188119 0.03382214
v -0.02011201 -0.00037378 0.03335544
v -0.02013237 -0.00037378 0.03202077
v -0.02011074 -0.00824561 0.03201989
v -0.01971380 -0.01881163 0.03201989
v -0.01966418 -0.01918397 0.03469321
v -0.01966418 -0.01918046 0.03653435
v -0.02002168 -0.01576266 0.03653435
v -0.02003949 -0.01405200 0.03653435
v -0.02004076 -0.01235188 0.03653435
v -0.02003822 -0.01063772 0.03653435
v -0.02004967 -0.00208444 0.03506577
v -0.02002804 -0.00037378 0.03506577
v -0.02008529 0.00133688 0.03335544
v -0.02011710 0.00133688 0.03202077
v -0.00713756 -0.00824561 0.03201989
v -0.01996697 0.00304753 0.03202077
v -0.01996570 0.00306158 0.03202077
v -0.01963110 0.00494436 0.03202077
v -0.01966163 -0.01918397 0.03201989
v -0.01964509 -0.01931394 0.03382214
v -0.01961074 -0.01955982 0.03469321
v -0.01962983 -0.01942283 0.03653435
v -0.02002423 -0.00892706 0.03653435
v -0.01975323 -0.00037378 0.03653435
v -0.01943772 0.00494085 0.03653435
v -0.01996570 0.00306158 0.03202873
v -0.00766045 0.00494436 0.03202077
v -0.00713629 0.00112260 0.03202077
v -0.00713756 -0.03094078 0.03201989
v -0.01946189 0.00494436 0.03469277
v -0.01946952 -0.02051526 0.03201989
v -0.01941609 -0.02088760 0.03469321
v -0.01941482 -0.02089111 0.03653435
v -0.00726224 0.00494085 0.03653435
v -0.00765918 0.00494436 0.03469277
v -0.00713629 -0.00824561 0.03202077
v -0.00721262 0.00455445 0.03653435
v -0.00713756 0.00304402 0.03653435
v -0.00713629 0.00152656 0.03336252
v -0.00713756 -0.03094078 0.03653435
v -0.01303955 -0.03094078 0.03201989
v -0.01941482 -0.02088760 0.03201989
v -0.01922780 -0.02212054 0.03382214
v -0.01937919 -0.02113349 0.03653435
v -0.00713629 -0.00824561 0.03469277
v -0.00713629 0.00231690 0.03653435
v -0.00713629 0.00231690 0.03629880
v -0.01303955 -0.03094078 0.03653435
v -0.00713629 -0.00502452 0.03653435
v -0.01304336 -0.03094078 0.03382214
v -0.01427745 -0.03086702 0.03382214
v -0.01474691 -0.03083540 0.03201989
v -0.01915528 -0.02258421 0.03201989
v -0.01915528 -0.02258772 0.03653435
v -0.01910947 -0.02288629 0.03382214
v -0.01474691 -0.03083892 0.03653435
v -0.01304336 -0.03094078 0.03469321
v -0.01474691 -0.03083892 0.03469321
v -0.01556497 -0.03063167 0.03382214
v -0.01600390 -0.03051575 0.03201989
v -0.01912601 -0.02277038 0.03201989
v -0.01903950 -0.02332537 0.03653435
v -0.01901787 -0.02343778 0.03201989
v -0.01902042 -0.02344129 0.03469321
v -0.01902042 -0.02344481 0.03653435
v -0.01600644 -0.03051926 0.03653435
v -0.01600517 -0.03051926 0.03469321
v -0.01686013 -0.02991158 0.03201989
v -0.01850006 -0.02602308 0.03201989
v -0.01850388 -0.02602308 0.03382214
v -0.01850515 -0.02602308 0.03469321
v -0.01884739 -0.02431243 0.03506577
v -0.01880032 -0.02455480 0.03653435
v -0.01899624 -0.02356775 0.03653435
v -0.01686140 -0.02991509 0.03653435
v -0.01686013 -0.02991509 0.03469321
v -0.01679397 -0.02996076 0.03382214
v -0.01702298 -0.02972892 0.03469321
v -0.01734740 -0.02935658 0.03382214
v -0.01744028 -0.02924769 0.03201989
v -0.01811712 -0.02773374 0.03201989
v -0.01850515 -0.02602308 0.03653435
v -0.01811839 -0.02773374 0.03382214
v -0.01845172 -0.02626546 0.03653435
v -0.01760694 -0.02905800 0.03653435
v -0.01760694 -0.02905800 0.03506577
v -0.01760694 -0.02905449 0.03201989
v -0.01811839 -0.02773374 0.03469321
v -0.01811712 -0.02773374 0.03653435
f 42 29 41
f 41 48 42
f 59 63 54
f 42 48 51
f 51 52 42
f 48 41 49
f 97 95 101
f 73 74 66
f 81 74 73
f 80 73 70
f 81 73 80
f 81 80 90
f 71 62 70
f 70 73 72
f 72 73 66
f 52 60 61
f 39 27 26
f 39 32 40
f 40 27 39
f 15 13 24
f 15 26 27
f 44 32 39
f 1 2 3
f 3 2 10
f 22 12 21
f 36 19 35
f 85 97 98
f 95 97 85
f 82 74 81
f 89 90 80
f 99 93 89
f 66 55 65
f 65 72 66
f 65 71 70
f 70 72 65
f 42 52 53
f 52 61 53
f 39 26 38
f 27 40 28
f 28 15 27
f 25 15 24
f 26 15 25
f 4 12 13
f 1 3 4
f 7 2 6
f 7 8 2
f 19 8 7
f 24 13 23
f 13 12 23
f 12 22 23
f 35 33 45
f 35 19 34
f 34 33 35
f 19 33 34
f 20 8 19
f 19 36 20
f 84 83 95
f 95 85 84
f 77 83 84
f 84 85 77
f 96 85 98
f 77 85 86
f 102 103 98
f 98 97 102
f 99 103 102
f 100 93 99
f 100 97 101
f 94 82 93
f 94 100 101
f 93 100 94
f 81 90 91
f 91 82 81
f 90 82 91
f 90 89 92
f 92 89 93
f 92 82 90
f 93 82 92
f 64 65 55
f 71 65 64
f 37 38 26
f 37 25 24
f 26 25 37
f 31 32 17
f 31 40 32
f 1 4 5
f 13 15 14
f 14 4 13
f 15 4 14
f 12 4 11
f 11 4 3
f 21 12 11
f 10 21 11
f 11 3 10
f 18 33 19
f 19 7 18
f 18 7 6
f 47 36 35
f 56 67 57
f 67 69 57
f 9 20 10
f 8 20 9
f 10 2 9
f 2 8 9
f 77 69 75
f 75 69 67
f 58 57 68
f 68 57 69
f 77 86 78
f 78 69 77
f 79 69 78
f 87 78 86
f 85 96 87
f 87 86 85
f 17 28 30
f 30 31 17
f 30 28 40
f 40 31 30
f 17 5 16
f 16 28 17
f 15 28 16
f 16 4 15
f 16 5 4
f 56 57 46
f 46 57 58
f 46 45 56
f 35 45 46
f 58 47 46
f 46 47 35
f 76 69 79
f 76 68 69
f 79 78 88
f 78 87 88
f 43 29 50
f 50 29 42
f 43 50 59
f 59 54 43
f 29 17 32
f 32 41 29
f 39 48 44
f 48 49 44
f 41 32 44
f 44 49 41
f 53 50 42
f 53 59 50
f 63 59 53
f 53 60 63
f 53 61 60
f 100 102 97
f 99 102 100
f 54 62 64
f 43 54 64
f 64 55 43
f 62 71 64
f 75 29 43
f 75 94 101
f 43 55 75
f 75 17 29
f 101 95 75
f 75 2 1
f 75 83 77
f 1 5 75
f 75 55 66
f 6 2 75
f 75 18 6
f 95 83 75
f 66 74 75
f 56 45 75
f 75 67 56
f 74 82 75
f 75 45 33
f 82 94 75
f 75 5 17
f 33 18 75
f 54 63 88
f 63 60 88
f 88 48 39
f 88 51 48
f 88 62 54
f 99 89 88
f 88 21 10
f 70 62 88
f 39 38 88
f 88 80 70
f 36 47 88
f 88 60 52
f 52 51 88
f 10 20 88
f 98 103 88
f 88 22 21
f 24 23 88
f 88 103 99
f 88 89 80
f 88 96 98
f 88 23 22
f 88 37 24
f 88 20 36
f 88 76 79
f 38 37 88
f 88 47 58
f 58 68 88
f 88 87 96
f 68 76 88

