# https://github.com/mikedh/trimesh
v 0.00406768 0.02608971 0.00425575
v 0.00360479 0.02608971 0.00425575
v 0.00532615 0.02608854 0.00425575
v 0.00577719 0.02583114 0.00085532
v 0.00235685 0.02582415 0.00085532
v -0.00081365 0.02580085 0.00085532
v 0.00235685 0.02607515 0.00425575
v 0.00406768 0.02583114 0.00085532
v 0.00577719 0.02608738 0.00425575
v 0.00577719 0.02507756 -0.00047027
v 0.00748671 0.02584861 0.00256546
v 0.00748671 0.02571350 0.00085532
v 0.00748671 0.02501233 -0.00045145
v -0.00081365 0.02507756 -0.00047027
v -0.00081365 0.02593480 0.00425575
v 0.00194262 0.02606408 0.00425575
v 0.00741701 0.02598022 0.00425575
v 0.00577719 0.02357797 -0.00094028
v -0.00081365 0.02485684 -0.00053945
v 0.00748671 0.02357797 -0.00092197
v 0.00750907 0.02596508 0.00425575
v 0.00919754 0.02556616 0.00256546
v 0.00919754 0.02541999 0.00085532
v 0.00919754 0.02486034 -0.00038583
v 0.00919754 0.02357797 -0.00085635
v -0.00081365 0.02014086 0.00425575
v 0.01090837 0.02186757 -0.00093621
v 0.00919754 0.02186757 -0.00094028
v -0.00081365 0.02357797 -0.00094028
v 0.00919754 0.02562673 0.00425575
v 0.01081238 0.02483821 0.00085532
v 0.01090969 0.02500534 0.00425575
v 0.01049677 0.02466000 -0.00022611
v 0.01100305 0.02369736 -0.00050842
v 0.01261789 0.02186757 -0.00069917
v 0.01262052 0.02014086 0.00425575
v -0.00081365 0.02014086 -0.00094028
v 0.01090837 0.02015717 -0.00094028
v 0.01262052 0.02015600 -0.00091484
v 0.01092415 0.02014086 -0.00094028
v 0.01107801 0.02482132 0.00241031
v 0.01176181 0.02443172 0.00173684
v 0.01166713 0.02436824 0.00085532
v 0.01092152 0.02499952 0.00425575
v 0.01262052 0.02311033 -0.00025460
v 0.01262052 0.02186640 -0.00069866
v 0.01262052 0.02014086 0.00047076
v 0.01262052 0.02386741 0.00425575
v 0.01261789 0.02014086 -0.00091484
v 0.01186439 0.02452373 0.00425575
v 0.01246403 0.02389711 0.00241031
v 0.01262052 0.02374919 0.00219260
v 0.01262052 0.02362922 0.00085430
v 0.01262052 0.02376549 0.00243117
f 6 15 16
f 6 16 7
f 5 14 6
f 42 50 51
f 40 39 49
f 33 24 23
f 6 7 2
f 2 5 6
f 11 4 9
f 9 17 11
f 49 39 47
f 50 48 54
f 54 51 50
f 39 40 27
f 18 29 19
f 19 14 10
f 10 18 19
f 10 4 13
f 12 23 24
f 12 13 4
f 24 13 12
f 12 4 11
f 11 17 21
f 33 23 31
f 5 2 8
f 14 5 8
f 3 4 1
f 3 9 4
f 18 27 28
f 25 13 24
f 22 21 30
f 22 31 23
f 11 21 22
f 30 32 22
f 32 31 22
f 22 12 11
f 23 12 22
f 42 31 41
f 41 31 32
f 32 44 41
f 41 44 50
f 41 50 42
f 38 27 40
f 38 28 27
f 13 25 20
f 20 18 10
f 10 13 20
f 20 27 18
f 20 25 27
f 27 25 35
f 39 27 35
f 42 51 52
f 52 53 42
f 51 54 52
f 43 31 42
f 42 53 43
f 33 31 43
f 43 53 45
f 43 45 33
f 39 35 46
f 46 35 45
f 34 35 25
f 34 24 33
f 34 25 24
f 33 45 34
f 45 35 34
f 26 37 47
f 36 26 47
f 37 40 47
f 47 40 49
f 19 37 26
f 19 15 6
f 26 15 19
f 6 14 19
f 19 29 37
f 8 2 1
f 1 4 8
f 10 14 8
f 8 4 10
f 3 15 26
f 3 26 36
f 30 21 3
f 36 48 3
f 3 16 15
f 1 2 3
f 3 48 50
f 3 7 16
f 50 44 3
f 3 32 30
f 3 2 7
f 17 9 3
f 3 44 32
f 3 21 17
f 38 40 37
f 37 29 38
f 38 29 18
f 18 28 38
f 46 48 36
f 36 47 46
f 46 47 39
f 46 54 48
f 46 52 54
f 45 53 46
f 53 52 46

