# https://github.com/mikedh/trimesh
v 0.01101498 0.00647106 0.08806233
v 0.01101498 0.00813867 0.08805689
v 0.01024288 0.00646896 0.08674526
v 0.01024288 0.00476355 0.08674617
v 0.01101498 0.00305393 0.08806233
v 0.01101498 0.00818277 0.08805644
v 0.01024288 0.00818067 0.08672259
v 0.01024288 0.00305393 0.08674435
v 0.01101498 0.00134432 0.08805190
v 0.01101498 0.00981678 0.08803104
v 0.01101498 0.01148019 0.08797979
v 0.01101498 0.01311629 0.08789362
v 0.01024288 0.00989239 0.08654253
v 0.01024288 0.00134432 0.08670354
v 0.01101498 -0.00037160 0.08800564
v 0.01024288 0.01143398 0.08621145
v 0.01101498 0.01316460 0.08675433
v 0.01101491 0.01610286 0.08403946
v 0.01101491 0.01483430 0.08619150
v 0.01024288 -0.00042620 0.08632302
v 0.01101498 -0.00207701 0.08774576
v 0.01024288 0.01308899 0.08456511
v 0.01101491 0.01612177 0.08342900
v 0.01101498 -0.00309564 0.08675433
v 0.01024288 0.01345653 0.08342900
v 0.01024288 -0.00222403 0.08477873
v 0.01101491 -0.00378872 0.08612800
v 0.01101491 -0.00533452 0.08342900
v 0.01101491 -0.00459942 0.08530619
v 0.01101491 -0.00522320 0.08467079
v 0.01024288 -0.00331826 0.08342900
f 30 31 28
f 3 1 2
f 22 16 19
f 19 16 12
f 21 15 14
f 14 20 21
f 15 9 14
f 24 30 28
f 31 30 26
f 21 20 26
f 3 2 6
f 12 16 13
f 22 19 18
f 18 25 22
f 23 25 18
f 18 19 12
f 12 17 18
f 18 17 23
f 8 14 9
f 9 5 8
f 27 24 21
f 21 26 27
f 12 13 7
f 7 11 12
f 10 11 7
f 7 6 10
f 3 6 7
f 4 8 5
f 4 5 1
f 4 1 3
f 30 24 29
f 24 27 29
f 29 26 30
f 29 27 26
f 25 23 28
f 28 31 25
f 28 23 24
f 23 17 24
f 12 11 6
f 1 5 6
f 6 15 21
f 6 2 1
f 6 17 12
f 6 9 15
f 21 24 6
f 6 11 10
f 6 5 9
f 6 24 17
f 31 26 4
f 4 25 31
f 3 7 4
f 4 16 22
f 22 25 4
f 20 14 4
f 4 26 20
f 4 13 16
f 14 8 4
f 4 7 13

