# https://github.com/mikedh/trimesh
v -0.00658130 0.00085007 0.02651444
v -0.02010208 0.00085007 0.02651444
v -0.00669839 0.00085007 0.02700098
v -0.00623413 0.00060208 0.02651444
v -0.02013203 -0.00037051 0.02651444
v -0.02012795 0.00085007 0.02761314
v -0.00708641 0.00085007 0.02761314
v -0.00623413 0.00036184 0.02761314
v -0.00623276 -0.00362926 0.02761314
v -0.00623276 -0.00362926 0.02651444
v -0.02012250 -0.00892101 0.02651444
v -0.02014020 -0.00037051 0.02761314
v -0.02013067 0.00072995 0.02761314
v -0.00623276 -0.01234250 0.02761314
v -0.00623276 -0.01234250 0.02651444
v -0.02013748 -0.00208061 0.02761314
v -0.02011570 -0.01234121 0.02651444
v -0.02011570 -0.01234250 0.02651616
v -0.02011570 -0.01234250 0.02761314
v -0.01694619 -0.01234250 0.02651444
f 10 4 9
f 9 4 8
f 2 5 6
f 3 4 1
f 3 8 4
f 7 8 3
f 19 16 18
f 12 5 11
f 11 16 12
f 17 18 11
f 11 18 16
f 13 5 12
f 13 6 5
f 20 18 17
f 9 14 15
f 15 10 9
f 1 2 3
f 3 6 7
f 2 6 3
f 13 14 9
f 12 16 13
f 9 8 13
f 13 19 14
f 13 8 7
f 13 16 19
f 7 6 13
f 20 2 1
f 1 4 20
f 17 11 20
f 4 10 20
f 20 5 2
f 10 15 20
f 20 11 5
f 14 19 20
f 20 15 14
f 19 18 20

