# https://github.com/mikedh/trimesh
v 0.00918167 0.03679933 0.07299151
v 0.00918167 0.04182657 0.07299151
v 0.01043798 0.03679933 0.07299151
v 0.00918167 0.03679933 0.08019219
v 0.00918152 0.03771857 0.08342786
v 0.00918152 0.04068177 0.08342786
v 0.00918167 0.04198570 0.07440965
v 0.00918444 0.04206037 0.07299151
v 0.01043798 0.03679933 0.07979626
v 0.01043798 0.04206037 0.07299151
v 0.01067185 0.03684877 0.08342786
v 0.00918181 0.03695331 0.08124914
v 0.00918167 0.03684825 0.08052212
v 0.00957398 0.03679933 0.08011346
v 0.00918152 0.03798224 0.08383651
v 0.00918181 0.03741524 0.08295901
v 0.00918181 0.04102835 0.08306667
v 0.00918181 0.04156032 0.08221115
v 0.00918167 0.04166486 0.08052212
v 0.00918167 0.04180597 0.07784560
v 0.00918167 0.04189557 0.07613573
v 0.00918152 0.04017296 0.08396039
v 0.01043798 0.04170297 0.07980900
v 0.01047416 0.04162727 0.08124914
v 0.01047416 0.04166486 0.08052212
v 0.01067185 0.04107933 0.08342786
v 0.01067185 0.03727723 0.08453574
v 0.00918152 0.03799769 0.08385851
v 0.00918181 0.03771805 0.08342786
v 0.01067185 0.04054169 0.08449638
v 0.01047416 0.04156032 0.08229103
v 0.00918181 0.04162727 0.08124914
v 0.01047416 0.04123794 0.08314655
v 0.00918152 0.03895555 0.08400322
v 0.01053806 0.03896945 0.08481706
v 0.01053894 0.03897718 0.08481706
v 0.01067185 0.03945251 0.08481706
v 0.01067185 0.04104173 0.08350311
v 0.01067185 0.03739619 0.08465498
v 0.01067185 0.03791941 0.08481706
f 5 1 4
f 9 3 11
f 12 4 11
f 11 16 12
f 12 16 5
f 11 4 14
f 14 9 11
f 5 4 13
f 13 12 5
f 4 12 13
f 20 10 8
f 26 10 25
f 25 24 26
f 10 24 25
f 26 24 31
f 18 6 17
f 18 17 30
f 28 39 40
f 40 34 28
f 35 34 40
f 27 39 28
f 27 29 16
f 27 16 11
f 23 24 10
f 10 20 23
f 18 31 32
f 32 31 24
f 24 23 32
f 32 23 20
f 8 2 7
f 2 6 7
f 26 31 33
f 33 31 18
f 18 30 33
f 37 30 22
f 22 36 37
f 35 36 22
f 22 34 35
f 22 17 6
f 22 30 17
f 15 27 28
f 29 27 15
f 5 16 15
f 16 29 15
f 18 32 19
f 19 32 20
f 19 6 18
f 19 20 6
f 21 20 8
f 8 7 21
f 6 20 21
f 21 7 6
f 26 33 38
f 38 33 30
f 1 2 10
f 10 2 8
f 10 3 1
f 10 26 11
f 11 3 10
f 1 3 14
f 14 4 1
f 3 9 14
f 6 2 1
f 6 1 5
f 36 40 37
f 35 40 36
f 15 6 5
f 15 22 6
f 28 34 15
f 34 22 15
f 11 26 38
f 37 40 38
f 38 27 11
f 38 30 37
f 38 40 39
f 39 27 38

