# https://github.com/mikedh/trimesh
v 0.01504738 0.00303825 0.02838041
v 0.01504738 0.00304125 0.02821752
v 0.01453049 0.00193654 0.02713853
v 0.01410376 0.00099071 0.02713853
v 0.01410376 0.00084981 0.02838041
v 0.01504738 -0.01226285 0.02838041
v 0.01504738 0.00305024 0.02713853
v 0.01410376 -0.01226285 0.02713853
v 0.01410376 -0.01226285 0.02838041
v 0.01504738 -0.01226285 0.02713853
f 5 1 4
f 4 1 3
f 7 3 2
f 2 3 1
f 2 10 7
f 1 6 2
f 6 10 2
f 8 3 7
f 4 3 8
f 7 10 8
f 9 6 1
f 1 5 9
f 9 10 6
f 9 8 10
f 4 8 9
f 9 5 4

