# https://github.com/mikedh/trimesh
v -0.01555547 -0.00419398 0.08196813
v -0.01527951 -0.00419398 0.08466995
v -0.01515953 -0.00371551 0.08635574
v -0.01555547 -0.00187165 0.08196813
v -0.01554987 0.02113379 0.08196727
v -0.00795508 -0.00419398 0.08196813
v -0.00986357 -0.00419398 0.08467167
v -0.00816064 -0.00371551 0.08635574
v -0.01514354 0.03554234 0.08635574
v -0.01554667 0.03554234 0.08196727
v -0.01554747 0.03237977 0.08196727
v -0.00815744 0.02113379 0.08196727
v -0.00738477 -0.00151377 0.08196813
v -0.00816144 -0.00419398 0.08466995
v -0.00738477 -0.00123369 0.08221000
v -0.00738477 -0.00030787 0.08280716
v -0.00738477 -0.00015227 0.08284411
v -0.00738477 0.00134149 0.08314183
v -0.00738477 0.00134927 0.08314312
v -0.00738477 0.00158267 0.08315815
v -0.00738477 0.00305698 0.08319467
v -0.00738477 0.00476080 0.08319553
v -0.00815984 0.02113379 0.08635574
v -0.00815984 0.03554234 0.08635574
v -0.00813185 0.03554234 0.08196727
v -0.00738477 0.01134267 0.08196813
v -0.00738477 0.00647628 0.08319553
v -0.00813425 0.03554234 0.08296870
v -0.00738477 0.00818010 0.08316889
v -0.00738477 0.00818399 0.08316846
v -0.00738477 0.00996950 0.08284884
v -0.00738477 0.01005119 0.08281790
f 10 3 9
f 1 3 4
f 4 5 1
f 2 3 1
f 14 6 8
f 8 6 13
f 5 4 11
f 3 10 11
f 11 4 3
f 12 25 13
f 13 6 12
f 3 2 7
f 14 8 7
f 7 8 3
f 13 25 26
f 28 26 25
f 24 26 28
f 8 22 23
f 21 22 8
f 32 26 24
f 24 31 32
f 15 8 13
f 15 16 8
f 17 18 8
f 8 16 17
f 20 21 8
f 27 29 24
f 30 31 24
f 24 29 30
f 8 18 19
f 19 20 8
f 12 11 10
f 10 25 12
f 5 11 12
f 12 6 1
f 1 5 12
f 7 6 14
f 1 6 7
f 7 2 1
f 28 25 10
f 28 10 9
f 9 24 28
f 3 8 23
f 23 24 9
f 9 3 23
f 24 23 27
f 27 23 22
f 22 21 19
f 13 26 19
f 31 30 19
f 26 32 19
f 19 15 13
f 18 17 19
f 19 32 31
f 19 27 22
f 16 15 19
f 19 17 16
f 21 20 19
f 29 27 19
f 19 30 29

