# https://github.com/mikedh/trimesh
v 0.00918152 0.00134178 0.08761681
v 0.00918152 0.00022177 0.08761248
v 0.00952742 0.00134178 0.08674893
v 0.00918152 0.00199448 0.08757730
v 0.00952732 0.00128670 0.08674893
v 0.00918152 -0.00038828 0.08751442
v 0.00948628 0.00304400 0.08674893
v 0.00935007 0.00476518 0.08674893
v 0.00918152 0.00432926 0.08708550
v 0.00943597 -0.00041375 0.08674893
v 0.00918152 -0.00117009 0.08711804
v 0.00936544 -0.00082538 0.08674893
v 0.00918152 0.00476518 0.08674893
v 0.00918152 0.00476518 0.08688888
v 0.00918152 -0.00128559 0.08674893
f 3 7 4
f 1 3 4
f 4 7 8
f 8 9 4
f 2 3 1
f 8 13 14
f 14 9 8
f 3 2 5
f 5 2 6
f 6 10 5
f 12 11 15
f 6 11 12
f 12 10 6
f 11 13 15
f 1 4 11
f 11 14 13
f 11 2 1
f 11 4 9
f 6 2 11
f 9 14 11
f 12 7 3
f 12 13 8
f 15 13 12
f 8 7 12
f 3 5 12
f 12 5 10

