# https://github.com/mikedh/trimesh
v 0.01645215 -0.00963447 0.02330692
v 0.02259031 -0.00963447 0.02330692
v 0.01645215 -0.00963447 0.02580820
v 0.01645215 -0.00963255 0.00553988
v 0.02252812 -0.00963447 0.02480173
v 0.01897952 -0.00963255 0.00661185
v 0.01983460 -0.00963255 0.00730268
v 0.02060710 -0.00963255 0.00815828
v 0.02135044 -0.00963255 0.00941091
v 0.02191305 -0.00963255 0.01065758
v 0.02216471 -0.00963255 0.01151318
v 0.02243387 -0.00963255 0.01283131
v 0.02257962 -0.00963255 0.01453853
v 0.02259614 -0.00963255 0.01624576
v 0.02260294 -0.00963255 0.01966815
v 0.02260586 -0.00963255 0.02137934
v 0.02260586 -0.00963255 0.02209201
v 0.02260392 -0.00963255 0.02309054
v 0.02235711 -0.00963447 0.02580820
v 0.01645215 0.00688492 0.02580820
v 0.01645215 -0.00549836 0.00552796
v 0.02598345 0.00134118 0.02580621
v 0.01898049 -0.00891909 0.00661185
v 0.01983557 -0.00891909 0.00729673
v 0.02061778 -0.00891909 0.00815431
v 0.02204422 -0.00492952 0.01023474
v 0.02200730 -0.00606912 0.01030422
v 0.02197135 -0.00720872 0.01039752
v 0.02234156 -0.00549836 0.01097321
v 0.02375634 -0.00145094 0.01363927
v 0.02370775 -0.00259054 0.01380403
v 0.02463766 -0.00036726 0.01624973
v 0.02498650 -0.00036726 0.01796092
v 0.02541307 0.00083790 0.01912422
v 0.02547720 0.00038862 0.02026369
v 0.02589308 0.00134118 0.02309054
v 0.02596887 0.00134118 0.02479975
v 0.02304020 -0.00721065 0.02580820
v 0.01775227 0.00722815 0.02580820
v 0.01645215 0.01006462 0.02126420
v 0.01645215 0.00476191 0.00552796
v 0.01898243 0.00818264 0.00660788
v 0.01898146 -0.00378799 0.00660987
v 0.02636630 0.00304961 0.02580621
v 0.02351439 -0.00543665 0.02580820
v 0.01983654 -0.00549836 0.00729474
v 0.02063333 -0.00549836 0.00815233
v 0.02062944 -0.00720872 0.00815233
v 0.02148647 -0.00378799 0.00936922
v 0.02253590 -0.00207763 0.01112012
v 0.02337446 -0.00036533 0.01274595
v 0.02351439 -0.00036726 0.01304372
v 0.02351439 -0.00188673 0.01315290
v 0.02205103 -0.00378799 0.01022680
v 0.02377577 -0.00036726 0.01360155
v 0.02411878 -0.00036726 0.01454052
v 0.02476009 0.00134118 0.01624973
v 0.02525274 0.00138167 0.01808202
v 0.02546846 0.00197750 0.01873314
v 0.02598248 0.00304961 0.02137934
v 0.02619819 0.00304961 0.02309054
v 0.02575608 0.00134118 0.02137934
v 0.02632937 0.00304961 0.02479975
v 0.01775227 0.01006462 0.02162153
v 0.01773187 0.01006462 0.02161756
v 0.01903102 0.00722430 0.02580820
v 0.01645215 0.01006462 0.00553591
v 0.01645215 0.00647227 0.00552995
v 0.01898243 0.01006462 0.00660788
v 0.02637796 0.00375536 0.02580621
v 0.02635949 0.00475998 0.02479975
v 0.02351439 0.00710282 0.02580820
v 0.01983654 -0.00378799 0.00729474
v 0.01983752 0.01006462 0.00729871
v 0.02063042 -0.00207763 0.00815233
v 0.01983752 0.00305154 0.00729673
v 0.02148356 0.01006462 0.00943076
v 0.02062847 -0.00036533 0.00815233
v 0.02062361 0.00476191 0.00815431
v 0.02061778 0.01006462 0.00815630
v 0.02253298 -0.00036533 0.01112012
v 0.02336961 0.00134118 0.01273602
v 0.02351439 0.00134118 0.01303181
v 0.02378258 0.00134118 0.01358964
v 0.02202479 0.01006462 0.01026650
v 0.02242027 0.01006462 0.01095535
v 0.02250480 0.01006462 0.01110423
v 0.02416834 0.00134118 0.01454052
v 0.02478147 0.00304961 0.01624973
v 0.02524885 0.00304961 0.01782792
v 0.02548400 0.00304961 0.01868153
v 0.02568806 0.00304961 0.01966815
v 0.02603787 0.00475998 0.02137934
v 0.02626330 0.00475998 0.02309054
v 0.01946245 0.01006462 0.02159572
v 0.02072758 0.00721465 0.02580820
v 0.02241832 0.00720501 0.02580820
v 0.01975201 0.01006462 0.00722923
v 0.02634978 0.00475998 0.02580621
v 0.02596207 0.00647035 0.02137934
v 0.02546554 0.00912749 0.01874108
v 0.02546554 0.00912749 0.01918576
v 0.02288085 0.00719730 0.02580820
v 0.02613406 0.00541752 0.02580621
v 0.02580272 0.00621196 0.02580621
v 0.02459199 0.00693313 0.02580621
v 0.02293623 0.01006462 0.02144485
v 0.02251452 0.00989108 0.01112210
v 0.02336961 0.01006462 0.01278565
v 0.02351439 0.01006462 0.01309930
v 0.02375828 0.01006462 0.01363728
v 0.02410809 0.01006462 0.01445119
v 0.02414599 0.01006462 0.01454052
v 0.02472900 0.01006462 0.01607901
v 0.02479313 0.00989108 0.01624973
v 0.02479216 0.00818264 0.01624973
v 0.02525566 0.00647035 0.01781799
v 0.02548789 0.00475998 0.01866962
v 0.02571332 0.00475998 0.01966815
v 0.02570846 0.00647035 0.01966815
v 0.02117067 0.01006462 0.02155800
v 0.02543445 0.00900215 0.02032324
v 0.02547817 0.00818264 0.01869146
v 0.02525857 0.00818264 0.01783586
v 0.02478924 0.01006462 0.01624973
v 0.02515654 0.01006462 0.01779814
v 0.02517112 0.01006462 0.01806614
v 0.02288085 0.01006462 0.02145676
v 0.02502925 0.01006462 0.01944184
v 0.02490779 0.01006462 0.01969792
v 0.02416639 0.01006462 0.02094063
v 0.02405951 0.01006462 0.02103790
v 0.02351439 0.01006462 0.02123641
v 0.02548497 0.00647035 0.01867359
f 1 4 2
f 40 20 39
f 34 35 12
f 129 105 122
f 67 69 68
f 69 41 68
f 43 23 21
f 6 2 4
f 6 4 21
f 21 23 6
f 103 128 121
f 121 97 103
f 40 39 65
f 39 64 65
f 99 72 70
f 70 71 99
f 99 71 102
f 102 122 99
f 70 72 45
f 130 105 129
f 130 131 105
f 106 72 105
f 105 131 106
f 5 22 19
f 35 34 62
f 13 2 12
f 12 35 13
f 59 34 32
f 42 43 21
f 12 2 11
f 2 10 11
f 11 32 12
f 2 8 9
f 9 10 2
f 7 8 2
f 2 6 7
f 66 64 39
f 64 97 95
f 97 121 95
f 105 72 104
f 72 99 104
f 104 122 105
f 104 99 122
f 70 45 44
f 44 45 22
f 44 71 70
f 19 22 38
f 22 45 38
f 132 106 131
f 61 62 34
f 36 13 35
f 35 62 36
f 62 61 36
f 59 32 58
f 57 58 32
f 59 58 57
f 33 34 12
f 12 32 33
f 33 32 34
f 100 71 94
f 94 93 100
f 129 122 127
f 127 122 102
f 126 127 101
f 101 127 102
f 102 71 101
f 71 100 101
f 101 93 120
f 101 100 93
f 30 32 31
f 32 11 31
f 31 10 30
f 31 11 10
f 43 42 46
f 23 43 46
f 96 97 64
f 64 66 96
f 72 106 107
f 103 72 107
f 107 128 103
f 18 5 2
f 22 5 18
f 14 13 22
f 2 13 14
f 22 13 37
f 13 36 37
f 37 44 22
f 63 36 61
f 63 61 94
f 44 37 63
f 63 37 36
f 94 71 63
f 71 44 63
f 56 32 30
f 56 57 32
f 56 88 57
f 120 93 119
f 92 119 93
f 94 61 60
f 60 93 94
f 60 92 93
f 59 92 60
f 60 34 59
f 60 61 34
f 91 92 59
f 119 92 91
f 77 49 80
f 30 10 29
f 10 9 28
f 9 27 28
f 28 29 10
f 27 29 28
f 30 29 26
f 26 29 27
f 26 9 8
f 26 27 9
f 48 47 49
f 24 6 23
f 23 46 24
f 24 7 6
f 24 46 47
f 47 48 24
f 106 132 133
f 133 107 106
f 17 16 22
f 22 18 17
f 2 16 17
f 17 18 2
f 22 16 15
f 15 14 22
f 15 16 2
f 2 14 15
f 126 101 125
f 57 88 89
f 120 119 134
f 113 88 84
f 30 26 53
f 8 7 25
f 25 48 49
f 7 24 25
f 25 24 48
f 49 26 25
f 25 26 8
f 76 74 47
f 114 125 115
f 114 88 113
f 114 115 88
f 88 115 116
f 116 89 88
f 123 101 120
f 120 134 123
f 87 109 108
f 109 82 108
f 83 82 109
f 109 84 83
f 51 82 83
f 83 84 51
f 51 84 52
f 52 26 51
f 52 53 26
f 55 84 88
f 55 56 30
f 88 56 55
f 55 52 84
f 30 53 55
f 53 52 55
f 98 76 69
f 74 76 98
f 69 76 73
f 47 46 73
f 73 76 47
f 79 74 80
f 79 78 74
f 80 49 79
f 49 78 79
f 49 47 75
f 75 78 49
f 47 74 75
f 74 78 75
f 89 116 117
f 117 116 115
f 51 26 50
f 50 82 51
f 113 84 112
f 84 111 112
f 110 84 109
f 110 111 84
f 89 117 90
f 57 89 90
f 59 57 90
f 90 91 59
f 119 91 118
f 118 134 119
f 91 90 118
f 118 90 117
f 124 117 115
f 115 125 124
f 124 123 134
f 124 125 101
f 101 123 124
f 134 118 124
f 124 118 117
f 54 50 26
f 54 86 87
f 85 86 54
f 54 26 49
f 54 77 85
f 49 77 54
f 87 108 81
f 81 54 87
f 50 54 81
f 81 108 82
f 82 50 81
f 40 67 68
f 1 3 68
f 68 20 40
f 68 4 1
f 68 3 20
f 21 4 68
f 68 41 21
f 5 3 1
f 5 19 3
f 1 2 5
f 21 41 42
f 42 41 69
f 20 3 96
f 96 39 20
f 96 72 103
f 3 19 96
f 103 97 96
f 96 66 39
f 96 45 72
f 19 38 96
f 96 38 45
f 73 42 69
f 73 46 42
f 110 67 40
f 110 114 113
f 40 65 110
f 110 69 67
f 110 121 128
f 128 107 110
f 64 95 110
f 110 130 129
f 129 127 110
f 110 65 64
f 131 130 110
f 110 133 132
f 87 86 110
f 110 95 121
f 110 132 131
f 110 127 126
f 110 77 80
f 80 74 110
f 85 77 110
f 110 86 85
f 110 109 87
f 110 98 69
f 107 133 110
f 126 125 110
f 125 114 110
f 113 112 110
f 74 98 110
f 110 112 111

