# https://github.com/mikedh/trimesh
v 0.01266218 -0.01873071 0.03201989
v 0.01092785 -0.01873071 0.03201989
v 0.01366125 -0.01881222 0.03201989
v 0.01266164 -0.01873071 0.03199127
v 0.01092785 -0.01873071 0.02923533
v 0.01092785 -0.02697555 0.03201989
v 0.01366125 -0.01881545 0.03172333
v 0.01249147 -0.01873071 0.03001897
v 0.01265469 -0.01873071 0.03164456
v 0.01366125 -0.02690130 0.03201989
v 0.01148919 -0.01873071 0.02923533
v 0.01092785 -0.02523151 0.02923533
v 0.01092785 -0.02696102 0.03174459
v 0.01261883 -0.02694730 0.03185716
v 0.01261883 -0.02695537 0.03201989
v 0.01366125 -0.01881706 0.03164456
v 0.01366125 -0.01899300 0.03041991
v 0.01366125 -0.01915118 0.02981127
v 0.01359034 -0.02690937 0.03201989
v 0.01366125 -0.02679800 0.03137799
v 0.01366125 -0.01990577 0.02923533
v 0.01261883 -0.02522263 0.02923533
v 0.01092785 -0.02601354 0.02999552
v 0.01092785 -0.02696021 0.03172933
v 0.01270579 -0.02694569 0.03188115
v 0.01092785 -0.02686902 0.03087238
v 0.01261883 -0.02685368 0.03100184
v 0.01321308 -0.02693116 0.03201989
v 0.01270579 -0.02685772 0.03108661
v 0.01366125 -0.02594736 0.03003150
v 0.01366125 -0.02513063 0.02923533
v 0.01270579 -0.02521617 0.02923533
v 0.01261883 -0.02599821 0.02999825
v 0.01270579 -0.02599417 0.03000125
v 0.01279301 -0.02520891 0.02923533
v 0.01366125 -0.02560679 0.02969761
f 3 8 9
f 8 17 18
f 4 1 3
f 3 9 4
f 16 17 8
f 8 18 11
f 11 18 21
f 6 14 15
f 26 14 24
f 27 14 26
f 12 22 23
f 7 8 3
f 7 16 8
f 13 14 6
f 13 24 14
f 20 27 30
f 29 27 20
f 25 28 15
f 25 15 14
f 14 27 25
f 26 23 33
f 33 23 22
f 33 27 26
f 19 20 10
f 19 29 20
f 27 29 19
f 19 25 27
f 28 25 19
f 31 36 35
f 35 36 30
f 34 30 27
f 27 33 34
f 34 33 30
f 32 33 22
f 30 33 32
f 32 35 30
f 2 1 11
f 11 5 2
f 1 4 11
f 11 9 8
f 11 4 9
f 13 6 2
f 2 5 13
f 5 12 13
f 12 23 13
f 26 24 13
f 13 23 26
f 3 10 36
f 21 18 36
f 31 21 36
f 36 7 3
f 36 18 17
f 10 20 36
f 17 16 36
f 16 7 36
f 20 30 36
f 19 1 2
f 2 6 19
f 3 1 19
f 19 10 3
f 6 15 19
f 15 28 19
f 32 21 31
f 32 12 5
f 5 11 32
f 32 22 12
f 32 11 21
f 31 35 32

