# https://github.com/mikedh/trimesh
v 0.00262504 -0.01581850 0.00959725
v 0.00262504 -0.02387689 0.00959725
v 0.00262504 -0.01581850 0.00427299
v -0.00751286 -0.01581850 0.00959725
v 0.00233031 -0.02418207 0.00959725
v 0.00262504 -0.02420189 0.00941015
v 0.00262504 -0.01647244 0.00427299
v -0.00751286 -0.01581850 0.00427299
v -0.00751286 -0.02468343 0.00959725
v 0.00262504 -0.02551572 0.00742137
v 0.00064529 -0.02470027 0.00959725
v 0.00262504 -0.02593980 0.00427351
v 0.00235512 -0.02593980 0.00427299
v -0.00751286 -0.02470225 0.00427299
v -0.00751286 -0.02552662 0.00749017
v 0.00262504 -0.02583972 0.00621539
v 0.00064529 -0.02551572 0.00746098
v -0.00106553 -0.02551572 0.00747609
v 0.00262504 -0.02593385 0.00454556
v 0.00235512 -0.02593980 0.00427664
v -0.00448518 -0.02593980 0.00427299
v -0.00751286 -0.02585657 0.00427403
v -0.00619600 -0.02593880 0.00427299
v -0.00751286 -0.02587440 0.00598711
v -0.00619600 -0.02589917 0.00598711
v -0.00448518 -0.02590016 0.00598711
v 0.00262504 -0.02590016 0.00598711
v -0.00448518 -0.02593980 0.00427664
v -0.00619600 -0.02593880 0.00427664
f 12 13 7
f 17 10 11
f 5 6 2
f 10 6 5
f 11 10 5
f 11 9 15
f 23 22 14
f 24 22 23
f 10 17 16
f 17 27 16
f 18 17 11
f 11 15 18
f 18 27 17
f 18 15 27
f 25 15 24
f 12 19 20
f 19 28 20
f 26 19 27
f 26 28 19
f 27 15 26
f 15 25 26
f 24 23 29
f 29 25 24
f 1 3 8
f 4 1 8
f 5 1 4
f 5 2 1
f 4 9 5
f 5 9 11
f 4 8 15
f 15 8 14
f 15 9 4
f 14 22 15
f 15 22 24
f 23 8 3
f 14 8 23
f 3 7 23
f 23 7 13
f 13 21 23
f 16 3 1
f 1 2 16
f 16 7 3
f 12 7 16
f 2 6 16
f 16 6 10
f 16 19 12
f 27 19 16
f 20 21 13
f 20 13 12
f 20 28 21
f 29 23 21
f 21 28 29
f 29 26 25
f 28 26 29

