# https://github.com/mikedh/trimesh
v 0.01277860 0.00494436 0.04463686
v 0.00751001 0.00494436 0.04463686
v 0.01277860 0.00170177 0.04463686
v 0.01277860 0.00494436 0.03781777
v 0.00751001 0.00170177 0.04463686
v 0.00751001 0.00494436 0.03799724
v 0.01277860 0.00170177 0.03655990
v 0.00751001 0.00494182 0.03785888
v 0.00901605 0.00494436 0.03785888
v 0.00751001 0.00170177 0.03662077
f 8 4 7
f 7 10 8
f 8 6 9
f 4 8 9
f 5 3 1
f 5 1 2
f 1 3 4
f 3 7 4
f 3 5 10
f 10 7 3
f 6 5 2
f 6 10 5
f 6 8 10
f 2 1 9
f 1 4 9
f 9 6 2

