# https://github.com/mikedh/trimesh
v 0.01106041 0.00663472 0.09408358
v 0.02309434 0.00663472 0.09408358
v 0.01106041 0.00663472 0.09493404
v 0.01106041 0.01331570 0.09408358
v 0.02285609 0.00663472 0.09493404
v 0.02320274 0.00989405 0.09408358
v 0.02303001 0.00989405 0.09493404
v 0.01109257 0.00663472 0.09508117
v 0.01132724 0.01160488 0.09664409
v 0.01106041 0.01331570 0.09493404
v 0.01109257 0.01502509 0.09408358
v 0.02222950 0.00663472 0.09599237
v 0.02236530 0.00989405 0.09615671
v 0.02322895 0.01160488 0.09408358
v 0.02307289 0.01160488 0.09493404
v 0.02239984 0.01160488 0.09620481
v 0.01141182 0.00663472 0.09638741
v 0.01171202 0.01037383 0.09753914
v 0.01167985 0.01160488 0.09756337
v 0.01170487 0.01259603 0.09754511
v 0.01144637 0.01322664 0.09668517
v 0.01112473 0.01502509 0.09493404
v 0.01134035 0.01844530 0.09408358
v 0.02117167 0.00663472 0.09661108
v 0.02101324 0.01002621 0.09706546
v 0.02119788 0.01160488 0.09705984
v 0.02320036 0.01245526 0.09408358
v 0.02300738 0.01416465 0.09408358
v 0.02287515 0.01331570 0.09493404
v 0.02225928 0.01331570 0.09604820
v 0.01152618 0.00663472 0.09646079
v 0.01261974 0.01013107 0.09757145
v 0.01261974 0.01160488 0.09764870
v 0.01261974 0.00663472 0.09709390
v 0.01261974 0.01269228 0.09757672
v 0.01180374 0.02119037 0.09408358
v 0.01172988 0.02111424 0.09410500
v 0.01161672 0.01617856 0.09593162
v 0.01147734 0.01502509 0.09616127
v 0.01155358 0.02015612 0.09408358
v 0.01946105 0.00663472 0.09709917
v 0.02033899 0.01068410 0.09750859
v 0.02032946 0.01247824 0.09750473
v 0.02034257 0.01160488 0.09751035
v 0.02261546 0.01583238 0.09408358
v 0.02243320 0.01493315 0.09494247
v 0.02209369 0.01430111 0.09586245
v 0.02100847 0.01315625 0.09691095
v 0.01433037 0.01009947 0.09758444
v 0.01433037 0.01160488 0.09767082
v 0.01433037 0.00663472 0.09719503
v 0.01433037 0.01272531 0.09758549
v 0.01433037 0.01358001 0.09728773
v 0.01261974 0.01354841 0.09722944
v 0.01261974 0.02128805 0.09408358
v 0.01172274 0.02113004 0.09408358
v 0.01160480 0.02015612 0.09423000
v 0.01791243 0.00663472 0.09716659
v 0.01946105 0.01039681 0.09754933
v 0.01946105 0.01160488 0.09759498
v 0.02108829 0.01493315 0.09610649
v 0.02056890 0.01967347 0.09420507
v 0.01963378 0.02064596 0.09408358
v 0.01929904 0.02083988 0.09408358
v 0.01946105 0.01346509 0.09726104
v 0.01946105 0.01261040 0.09754476
v 0.02227000 0.01710364 0.09408358
v 0.02207463 0.01770696 0.09408358
v 0.02206153 0.01768254 0.09411658
v 0.02115142 0.01911756 0.09408358
v 0.02069875 0.01979270 0.09408358
v 0.01775042 0.01014112 0.09758549
v 0.01604099 0.01160488 0.09767047
v 0.01775042 0.00663472 0.09717361
v 0.01604099 0.01273106 0.09758444
v 0.01775042 0.01358719 0.09730037
v 0.01604099 0.01358575 0.09729545
v 0.01289730 0.02130960 0.09408358
v 0.01775042 0.01160488 0.09766907
v 0.01863313 0.02100507 0.09408358
v 0.01861169 0.02100938 0.09408358
v 0.01775042 0.01273250 0.09758269
v 0.01775042 0.02106971 0.09408358
v 0.01618156 0.02116883 0.09408358
v 0.01456862 0.02126651 0.09408358
v 0.01433037 0.02127800 0.09408358
f 78 53 77
f 22 11 10
f 35 33 50
f 20 33 35
f 6 7 2
f 15 6 14
f 7 6 15
f 47 71 61
f 34 18 31
f 31 18 17
f 10 11 4
f 23 22 40
f 11 22 23
f 19 33 20
f 19 18 33
f 10 3 9
f 17 18 9
f 18 19 9
f 20 21 9
f 9 19 20
f 9 22 10
f 9 21 22
f 40 22 39
f 22 21 39
f 39 21 20
f 37 56 39
f 36 56 37
f 36 37 20
f 20 35 36
f 52 77 53
f 53 35 52
f 52 35 50
f 2 7 5
f 42 41 24
f 30 47 48
f 48 43 30
f 48 47 61
f 61 43 48
f 74 72 51
f 34 51 32
f 32 18 34
f 50 33 32
f 33 18 32
f 17 9 8
f 8 9 3
f 57 56 40
f 40 39 57
f 57 39 56
f 20 37 38
f 38 39 20
f 37 39 38
f 55 53 78
f 77 52 76
f 78 77 76
f 27 15 14
f 27 28 15
f 15 28 29
f 68 47 67
f 68 69 47
f 24 12 25
f 25 42 24
f 41 42 59
f 72 74 59
f 59 79 72
f 72 79 73
f 73 52 50
f 60 59 42
f 79 59 60
f 51 72 49
f 49 32 51
f 50 32 49
f 49 73 50
f 72 73 49
f 54 55 36
f 54 36 35
f 54 35 53
f 53 55 54
f 81 76 65
f 45 29 28
f 67 47 46
f 46 45 67
f 29 45 46
f 46 47 30
f 30 29 46
f 69 68 70
f 71 47 70
f 47 69 70
f 16 29 30
f 15 29 16
f 7 15 16
f 41 59 58
f 58 59 74
f 71 63 62
f 62 63 43
f 61 71 62
f 62 43 61
f 66 82 79
f 66 60 43
f 79 60 66
f 43 65 66
f 76 82 66
f 66 65 76
f 75 73 79
f 79 82 75
f 52 73 75
f 75 76 52
f 75 82 76
f 43 63 64
f 64 65 43
f 78 76 86
f 76 85 86
f 83 76 81
f 13 25 12
f 12 5 13
f 13 5 7
f 7 16 13
f 43 60 44
f 44 60 42
f 81 65 80
f 65 64 80
f 84 85 76
f 76 83 84
f 25 13 26
f 26 13 16
f 42 25 26
f 26 44 42
f 43 44 26
f 30 43 26
f 26 16 30
f 1 3 4
f 4 3 10
f 1 2 58
f 58 3 1
f 24 41 58
f 58 51 34
f 58 12 24
f 2 5 58
f 17 8 58
f 34 31 58
f 58 31 17
f 58 5 12
f 58 74 51
f 58 8 3
f 84 63 71
f 84 2 1
f 84 23 40
f 14 6 84
f 84 55 78
f 84 27 14
f 1 4 84
f 40 56 84
f 84 6 2
f 84 4 11
f 11 23 84
f 56 36 84
f 84 83 81
f 67 45 84
f 36 55 84
f 28 27 84
f 84 68 67
f 71 70 84
f 78 86 84
f 84 45 28
f 84 70 68
f 84 64 63
f 84 86 85
f 81 80 84
f 84 80 64

