# https://github.com/mikedh/trimesh
v 0.00918152 -0.02538419 0.07966533
v 0.00918152 -0.02409157 0.07895457
v 0.00918152 -0.02538419 0.07299216
v 0.00924351 -0.02538419 0.07951050
v 0.01022022 -0.02434382 0.07778587
v 0.01022022 -0.02409157 0.07785250
v 0.01022009 -0.02305120 0.07812688
v 0.01022009 -0.02260370 0.07824381
v 0.01043792 -0.01082472 0.07887161
v 0.00918164 -0.01405557 0.07940925
v 0.00918164 -0.01234537 0.07917146
v 0.00918164 -0.01082472 0.07889186
v 0.00918152 -0.02409157 0.07299216
v 0.01022022 -0.02538419 0.07299216
v 0.00918164 -0.02409157 0.07299151
v 0.01022022 -0.02538419 0.07696667
v 0.01043792 -0.01499190 0.07848552
v 0.01043792 -0.01082472 0.07299216
v 0.00951287 -0.01082472 0.07889186
v 0.00918164 -0.01082472 0.07299216
v 0.00918164 -0.01499333 0.07299151
v 0.01022009 -0.02409157 0.07299151
v 0.01043792 -0.01499190 0.07299282
v 0.01043792 -0.01234395 0.07299216
v 0.01022009 -0.01499333 0.07299151
f 12 2 1
f 1 9 10
f 8 9 1
f 4 5 1
f 9 8 17
f 11 10 9
f 11 12 1
f 1 10 11
f 13 20 21
f 16 17 5
f 5 4 16
f 14 22 23
f 7 17 8
f 7 8 1
f 19 11 9
f 12 11 19
f 24 23 22
f 5 17 6
f 17 7 6
f 1 5 6
f 6 7 1
f 2 13 3
f 1 2 3
f 20 13 2
f 2 12 20
f 14 3 22
f 22 3 15
f 21 3 13
f 15 3 21
f 1 3 16
f 16 3 14
f 16 4 1
f 23 16 14
f 17 16 23
f 19 20 12
f 18 20 19
f 9 18 19
f 25 20 18
f 25 21 20
f 25 22 15
f 15 21 25
f 24 18 9
f 17 23 24
f 9 17 24
f 24 25 18
f 22 25 24

