# https://github.com/mikedh/trimesh
v 0.01261789 0.02965138 0.00664985
v 0.01261789 0.02976912 0.00669269
v 0.01262052 0.02976837 0.00669269
v 0.01262052 0.02965138 0.00693678
v -0.00081365 0.02965138 0.00665115
v 0.01090837 0.03062501 0.00758464
v 0.01261789 0.03062426 0.00758464
v 0.00064602 0.02977139 0.00669529
v -0.00081365 0.03062652 0.00758334
v 0.00235685 0.03062652 0.00758334
v 0.01262052 0.03062350 0.00758464
v 0.01262052 0.02965138 0.01543945
v -0.00081365 0.02965138 0.01622753
v -0.00081365 0.02977139 0.00669659
v 0.01261789 0.03135259 0.00844022
v -0.00081365 0.03135259 0.00843893
v 0.00577719 0.03135259 0.00843893
v 0.01262052 0.03135183 0.00844022
v 0.01262052 0.03008612 0.01661832
v 0.01261789 0.02965138 0.01623532
v -0.00081365 0.03291492 0.01991344
v 0.01262052 0.03194205 0.00940747
v -0.00081365 0.03185525 0.00926595
v 0.01262052 0.03290813 0.01991344
v 0.01261789 0.03290813 0.01991344
v -0.00081365 0.03735360 0.01991344
v 0.01262052 0.03272019 0.01070449
v -0.00081365 0.03194205 0.00940877
v -0.00081365 0.03272095 0.01070579
v 0.01262052 0.03734832 0.01991344
v -0.00081365 0.03734077 0.01987709
v 0.01261789 0.03736115 0.01991344
v 0.01262052 0.03323343 0.01156008
v -0.00081365 0.03323343 0.01156138
v 0.01262052 0.03736040 0.01991214
v -0.00081365 0.03726605 0.01967066
v 0.01261789 0.03726983 0.01967066
v 0.01262052 0.03397308 0.01282853
v -0.00081365 0.03395950 0.01282983
v 0.00064602 0.03396176 0.01282983
v 0.00235685 0.03396402 0.01282983
v 0.00919754 0.03397157 0.01282983
v 0.01090837 0.03397308 0.01282983
v 0.01261789 0.03397383 0.01282983
v 0.01262052 0.03726907 0.01966936
v -0.00081365 0.03718001 0.01945384
v 0.01262052 0.03667659 0.01819967
v -0.00081365 0.03667735 0.01819967
v 0.01262052 0.03458141 0.01389575
v -0.00081365 0.03447876 0.01376592
v 0.00064602 0.03457009 0.01392172
v 0.00748671 0.03457763 0.01390873
v 0.01090837 0.03458065 0.01390094
v 0.01262052 0.03629846 0.01734408
v -0.00081365 0.03662150 0.01807373
v 0.01261789 0.03503049 0.01475264
v 0.01262052 0.03502973 0.01475134
v -0.00081365 0.03456782 0.01392691
v -0.00081365 0.03494897 0.01465526
v 0.01262052 0.03577693 0.01624830
v 0.01261789 0.03577769 0.01624960
v -0.00081365 0.03629695 0.01734537
v 0.00064602 0.03501539 0.01477731
v -0.00081365 0.03565089 0.01603278
v -0.00081365 0.03576033 0.01624960
v -0.00081365 0.03501388 0.01478120
v -0.00081365 0.03621846 0.01718309
f 13 20 21
f 4 1 3
f 21 20 25
f 20 24 25
f 30 35 32
f 20 12 19
f 19 24 20
f 5 14 8
f 8 14 9
f 32 35 37
f 54 61 62
f 23 28 22
f 23 22 16
f 22 28 29
f 34 33 29
f 16 22 17
f 22 15 17
f 17 15 10
f 6 15 7
f 10 15 6
f 5 8 2
f 2 1 5
f 3 1 2
f 10 6 2
f 9 10 2
f 2 8 9
f 2 6 7
f 45 37 35
f 47 37 45
f 32 37 36
f 60 61 54
f 65 61 56
f 67 61 65
f 67 62 61
f 38 33 34
f 34 44 38
f 38 44 49
f 22 29 27
f 27 29 33
f 18 15 22
f 31 26 32
f 32 36 31
f 48 37 47
f 48 47 54
f 49 56 57
f 46 36 37
f 37 48 46
f 54 62 55
f 55 48 54
f 65 56 64
f 58 51 50
f 50 51 39
f 52 51 56
f 39 51 52
f 59 51 58
f 56 51 59
f 41 42 34
f 49 42 41
f 43 44 34
f 34 42 43
f 49 44 43
f 43 42 49
f 66 64 63
f 63 64 56
f 63 59 66
f 56 59 63
f 53 56 49
f 53 52 56
f 49 39 53
f 39 52 53
f 34 39 40
f 40 41 34
f 40 39 49
f 49 41 40
f 30 26 21
f 21 25 30
f 32 26 30
f 30 25 24
f 12 13 5
f 5 1 12
f 20 13 12
f 1 4 12
f 17 9 16
f 17 10 9
f 2 11 3
f 7 11 2
f 18 11 7
f 7 15 18
f 24 19 57
f 57 4 3
f 57 30 24
f 57 12 4
f 35 30 57
f 57 18 22
f 57 45 35
f 3 11 57
f 57 19 12
f 54 47 57
f 57 38 49
f 22 27 57
f 47 45 57
f 57 60 54
f 33 38 57
f 57 27 33
f 11 18 57
f 61 60 57
f 57 56 61
f 21 26 59
f 5 13 59
f 59 13 21
f 59 23 16
f 59 14 5
f 16 9 59
f 9 14 59
f 59 67 65
f 34 29 59
f 36 46 59
f 59 39 34
f 28 23 59
f 59 29 28
f 26 31 59
f 65 64 59
f 62 67 59
f 59 31 36
f 59 55 62
f 58 50 59
f 59 46 48
f 48 55 59
f 59 64 66
f 59 50 39

