# https://github.com/mikedh/trimesh
v 0.00601447 -0.01404142 0.04608103
v 0.00601447 -0.02989248 0.04608103
v 0.00601447 -0.01404142 0.04463700
v -0.01932819 -0.01404142 0.04608103
v 0.00590229 -0.02993917 0.04608103
v 0.00542365 -0.02993917 0.04463700
v 0.00574524 -0.02944110 0.04463700
v 0.00601447 -0.02944266 0.04543152
v 0.00601447 -0.02563087 0.04463700
v -0.01944535 -0.01404142 0.04463700
v -0.01939051 -0.01404142 0.04534389
v -0.01939549 -0.01918710 0.04532876
v -0.01932819 -0.01918710 0.04608103
v -0.01683281 -0.02993917 0.04608103
v -0.01683281 -0.02993917 0.04463700
v 0.00588234 -0.02773522 0.04463700
v 0.00601447 -0.02773522 0.04497115
v 0.00601447 -0.02942865 0.04542318
v -0.01944785 -0.01474806 0.04463700
v -0.01945034 -0.01645861 0.04463700
v -0.01945034 -0.01918710 0.04463700
v -0.01929578 -0.02089766 0.04608103
v -0.01686273 -0.02991738 0.04608103
v -0.01686273 -0.02991738 0.04463700
v -0.01936558 -0.02089766 0.04463700
v -0.01934315 -0.02089766 0.04532876
v -0.01914122 -0.02256619 0.04608103
v -0.01760810 -0.02906288 0.04608103
v -0.01760810 -0.02906288 0.04463700
v -0.01915369 -0.02255996 0.04532876
v -0.01915369 -0.02255529 0.04463700
v -0.01909386 -0.02294285 0.04608103
v -0.01811914 -0.02773522 0.04608103
v -0.01811914 -0.02773522 0.04463700
v -0.01901907 -0.02342225 0.04608103
v -0.01907142 -0.02306582 0.04463700
v -0.01829613 -0.02698344 0.04608103
v -0.01835596 -0.02671729 0.04463700
v -0.01901408 -0.02341135 0.04463700
v -0.01894927 -0.02377868 0.04463700
v -0.01885454 -0.02431410 0.04532876
v -0.01885454 -0.02431410 0.04608103
v -0.01851800 -0.02602466 0.04608103
v -0.01851800 -0.02602466 0.04532876
v -0.01851551 -0.02602466 0.04463700
v -0.01885205 -0.02431410 0.04463700
v -0.01866757 -0.02527289 0.04608103
f 5 6 2
f 7 2 6
f 19 11 10
f 20 11 19
f 17 18 7
f 2 7 8
f 7 18 8
f 12 13 4
f 4 11 12
f 12 11 20
f 22 13 12
f 9 17 16
f 16 17 7
f 22 12 21
f 21 12 20
f 26 27 22
f 25 27 26
f 26 21 25
f 22 21 26
f 35 39 40
f 37 34 33
f 25 31 30
f 30 27 25
f 30 31 35
f 36 39 35
f 35 31 36
f 34 37 38
f 32 30 35
f 27 30 32
f 43 47 44
f 45 38 44
f 44 37 43
f 44 38 37
f 41 47 42
f 41 42 35
f 41 44 47
f 41 40 46
f 35 40 41
f 5 14 15
f 15 6 5
f 11 4 1
f 3 10 11
f 1 3 11
f 1 2 8
f 8 3 1
f 8 9 3
f 8 17 9
f 18 17 8
f 23 15 14
f 23 24 15
f 29 23 28
f 24 23 29
f 29 28 33
f 33 34 29
f 20 19 38
f 3 9 38
f 38 10 3
f 38 7 6
f 6 15 38
f 39 36 38
f 9 16 38
f 38 19 10
f 38 21 20
f 15 24 38
f 24 29 38
f 45 46 38
f 38 40 39
f 38 16 7
f 25 21 38
f 38 31 25
f 46 40 38
f 38 29 34
f 38 36 31
f 32 2 1
f 1 4 32
f 5 2 32
f 32 14 5
f 4 13 32
f 32 23 14
f 32 47 43
f 32 13 22
f 33 28 32
f 22 27 32
f 35 42 32
f 28 23 32
f 32 37 33
f 43 37 32
f 42 47 32
f 41 46 45
f 45 44 41

