# https://github.com/mikedh/trimesh
v 0.00918164 0.03516578 0.08052304
v 0.00918164 -0.00411525 0.08052304
v 0.01043816 0.03475559 0.08052304
v 0.00918164 0.03679725 0.08019350
v 0.01043816 -0.00502887 0.08052304
v 0.00918164 -0.01082291 0.07994726
v 0.01043816 0.03679725 0.07979687
v 0.00957416 0.03679725 0.08011314
v 0.00918164 0.03679725 0.07299225
v 0.01043816 -0.00892108 0.07994063
v 0.00918164 -0.01082291 0.07299151
v 0.01043816 -0.01082291 0.07887165
v 0.01043816 -0.01056187 0.07947765
v 0.01043816 0.03679725 0.07299225
v 0.00918164 0.03563658 0.07299151
v 0.01043816 -0.01082291 0.07299151
v 0.01043816 0.03563658 0.07299151
f 6 5 2
f 1 3 4
f 6 12 13
f 3 7 8
f 8 4 3
f 10 5 6
f 6 13 10
f 2 5 3
f 2 3 1
f 15 11 6
f 15 2 1
f 1 4 15
f 6 2 15
f 15 4 9
f 6 11 16
f 16 12 6
f 8 7 14
f 9 4 8
f 14 9 8
f 17 7 3
f 3 5 17
f 14 7 17
f 5 10 17
f 17 13 12
f 12 16 17
f 17 10 13
f 17 9 14
f 17 15 9
f 11 15 17
f 17 16 11

