# https://github.com/mikedh/trimesh
v -0.00731333 0.01096559 0.04463686
v -0.01946256 0.01096559 0.04463686
v -0.00731333 0.00494495 0.04463686
v -0.00731333 0.01096559 0.03639556
v -0.01955122 0.01096559 0.04361796
v -0.01955244 0.00818307 0.04361796
v -0.01953786 0.00494495 0.04379951
v -0.01946378 0.00749171 0.04463686
v -0.01946378 0.00494495 0.04463686
v -0.00731333 0.00494495 0.03648202
v -0.00765948 0.00494495 0.03201989
v -0.00765948 0.01096559 0.03201989
v -0.01968968 0.01096559 0.04190746
v -0.01955365 0.00494495 0.04361796
v -0.01963260 0.00494495 0.03201989
v -0.01944070 0.01096559 0.03201989
v -0.01968604 0.00989348 0.04190746
v -0.01972126 0.01096559 0.04019696
f 16 15 18
f 11 12 4
f 7 9 8
f 8 2 7
f 2 6 7
f 11 4 10
f 5 6 2
f 5 13 6
f 6 13 14
f 14 7 6
f 17 13 18
f 17 14 13
f 15 14 17
f 18 15 17
f 9 3 1
f 1 2 9
f 9 2 8
f 16 12 11
f 11 15 16
f 1 3 10
f 10 4 1
f 5 16 18
f 1 4 5
f 5 2 1
f 12 16 5
f 5 4 12
f 18 13 5
f 14 10 3
f 3 9 14
f 14 15 11
f 9 7 14
f 11 10 14

