# https://github.com/mikedh/trimesh
v -0.00738317 0.04179110 0.07812158
v -0.01132862 0.04179110 0.07812158
v -0.00738317 0.03676839 0.07812158
v -0.00738317 0.04263243 0.06243488
v -0.01132862 0.04263560 0.06243488
v -0.01303829 0.04203306 0.07269547
v -0.01303829 0.04193975 0.07440716
v -0.01303829 0.04183933 0.07611694
v -0.01303829 0.04173338 0.07782672
v -0.01304669 0.04171440 0.07812158
v -0.00778328 0.03474096 0.07812158
v -0.00739682 0.03474096 0.07723892
v -0.00738317 0.03474096 0.07720063
v -0.00738317 0.04272179 0.06072510
v -0.00961791 0.04272574 0.06072510
v -0.01132862 0.04272574 0.06072510
v -0.01303829 0.04211055 0.07098569
v -0.01396978 0.04159974 0.07782672
v -0.01395613 0.04158867 0.07812158
v -0.01327142 0.04168672 0.07812158
v -0.01603439 0.03474096 0.07812158
v -0.00738317 0.03474096 0.05856155
v -0.00738317 0.04279374 0.05901340
v -0.00790720 0.04279691 0.05901340
v -0.00961791 0.04280323 0.05901340
v -0.01132862 0.04278979 0.05901340
v -0.01303829 0.04216669 0.06927591
v -0.01419241 0.04176421 0.07269547
v -0.01411680 0.04171519 0.07440716
v -0.01404644 0.04166063 0.07611694
v -0.01510605 0.04100907 0.07098569
v -0.01563428 0.03987200 0.07555404
v -0.01450431 0.04091497 0.07812158
v -0.01504829 0.04091102 0.07269547
v -0.01576870 0.04005545 0.07269547
v -0.01603439 0.03555225 0.07812158
v -0.01607325 0.03555225 0.07782672
v -0.01607220 0.03474096 0.07782672
v -0.01811161 0.03474096 0.05856155
v -0.00738317 0.04280956 0.05856155
v -0.00916634 0.04281667 0.05856155
v -0.00961791 0.04281825 0.05856155
v -0.01087705 0.04280877 0.05856155
v -0.01132862 0.04280007 0.05856155
v -0.01303829 0.04239047 0.06072510
v -0.01303829 0.04234698 0.06243488
v -0.01425122 0.04179742 0.07098569
v -0.01584012 0.04015429 0.07098569
v -0.01513126 0.04106600 0.06927591
v -0.01588527 0.04021122 0.06927591
v -0.01557022 0.03971860 0.07669517
v -0.01466393 0.04070859 0.07812158
v -0.01651327 0.03897215 0.06927591
v -0.01637780 0.03897215 0.07098569
v -0.01601654 0.03584482 0.07812158
v -0.01592518 0.03727130 0.07812158
v -0.01596298 0.03726260 0.07782672
v -0.01628748 0.03555225 0.07611694
v -0.01617512 0.03474096 0.07701683
v -0.01810321 0.03510075 0.05856155
v -0.01747101 0.03474096 0.06500625
v -0.01739330 0.03555225 0.06578168
v -0.01755293 0.03555225 0.06414466
v -0.01258777 0.04252331 0.05856155
v -0.01303829 0.04241498 0.05901340
v -0.01427642 0.04180850 0.06927591
v -0.01742376 0.03831268 0.05901340
v -0.01737755 0.03823677 0.06072510
v -0.01672225 0.03897215 0.06585635
v -0.01662774 0.03897215 0.06756613
v -0.01513126 0.04109763 0.06756613
v -0.01597559 0.04026974 0.06414466
v -0.01595563 0.04025867 0.06585635
v -0.01592308 0.04024206 0.06756613
v -0.01620032 0.03897215 0.07269547
v -0.01580546 0.03907811 0.07612077
v -0.01572880 0.03860684 0.07782672
v -0.01549566 0.03946161 0.07782672
v -0.01530768 0.03969883 0.07812158
v -0.01730614 0.03807626 0.06313947
v -0.01711291 0.03726260 0.06756613
v -0.01695119 0.03726260 0.06927591
v -0.01727674 0.03790467 0.06414466
v -0.01588947 0.03751089 0.07812158
v -0.01617512 0.03726260 0.07611694
v -0.01649016 0.03555225 0.07440716
v -0.01638410 0.03474096 0.07530705
v -0.01628748 0.03474096 0.07611694
v -0.01804650 0.03555225 0.05901340
v -0.01808956 0.03555225 0.05856155
v -0.01739330 0.03474096 0.06578168
v -0.01734815 0.03474096 0.06623162
v -0.01730719 0.03555225 0.06663753
v -0.01736705 0.03673518 0.06552129
v -0.01303829 0.04241657 0.05856155
v -0.01394037 0.04196190 0.05856155
v -0.01426382 0.04179663 0.05856155
v -0.01511970 0.04112926 0.05856155
v -0.01512076 0.04113005 0.06243488
v -0.01512180 0.04112531 0.06414466
v -0.01686402 0.03916746 0.05901340
v -0.01743006 0.03832059 0.05856155
v -0.01754138 0.03803593 0.05856155
v -0.01779656 0.03726260 0.05856155
v -0.01733869 0.03816482 0.06199834
v -0.01598924 0.04027527 0.06243488
v -0.01686402 0.03917537 0.05856155
v -0.01677371 0.03726260 0.07098569
v -0.01570990 0.03853567 0.07812158
v -0.01553242 0.03918723 0.07812158
v -0.01548201 0.03937068 0.07812158
v -0.01777136 0.03726260 0.05901340
v -0.01724103 0.03728869 0.06599804
v -0.01686717 0.03555225 0.07098569
v -0.01764639 0.03726260 0.06072510
v -0.01743111 0.03704989 0.06414466
v -0.01657628 0.03726260 0.07269547
v -0.01668339 0.03555225 0.07269547
v -0.01649016 0.03474096 0.07440716
v -0.01788583 0.03681109 0.05856155
v -0.01721373 0.03474096 0.06756613
v -0.01721373 0.03555225 0.06756613
v -0.01704150 0.03555225 0.06927591
v -0.01577395 0.04049984 0.05856155
v -0.01600814 0.04027448 0.05856155
v -0.01600814 0.04027448 0.05901340
v -0.01623393 0.03998982 0.05856155
v -0.01695014 0.03474096 0.07017579
v -0.01686717 0.03474096 0.07098569
v -0.01677056 0.03474096 0.07188557
v -0.01668339 0.03474096 0.07269547
v -0.01704150 0.03474096 0.06927591
f 13 3 12
f 12 3 11
f 41 24 40
f 40 24 23
f 23 24 14
f 101 102 67
f 98 66 97
f 95 66 65
f 7 2 6
f 8 2 7
f 94 114 82
f 102 101 107
f 107 101 72
f 96 66 95
f 96 97 66
f 100 71 66
f 72 71 106
f 106 107 72
f 71 100 106
f 47 65 66
f 43 44 26
f 95 65 64
f 27 47 28
f 26 16 25
f 42 43 25
f 25 43 26
f 25 41 42
f 24 41 25
f 14 24 25
f 1 4 5
f 5 2 1
f 5 6 2
f 5 16 6
f 9 10 2
f 2 8 9
f 9 8 10
f 39 61 62
f 87 88 58
f 58 86 87
f 88 59 58
f 85 86 58
f 82 114 108
f 104 120 112
f 94 116 90
f 90 116 120
f 74 101 67
f 68 48 67
f 53 54 32
f 19 8 7
f 7 6 19
f 99 66 98
f 99 100 66
f 107 106 127
f 65 47 45
f 26 44 45
f 44 64 45
f 45 64 65
f 28 29 17
f 17 27 28
f 17 29 30
f 6 16 17
f 17 16 26
f 26 27 17
f 14 25 15
f 15 25 16
f 15 4 14
f 15 5 4
f 16 5 15
f 114 94 123
f 37 58 59
f 59 38 37
f 37 21 36
f 37 38 21
f 87 86 119
f 114 129 130
f 118 108 114
f 86 108 118
f 118 130 131
f 114 130 118
f 117 86 85
f 117 108 86
f 67 102 103
f 103 68 67
f 104 68 103
f 39 62 63
f 63 62 94
f 67 48 50
f 50 74 67
f 72 101 73
f 101 74 73
f 35 53 32
f 48 53 35
f 35 34 48
f 32 19 35
f 35 19 34
f 70 53 48
f 10 8 20
f 8 19 20
f 18 19 6
f 18 17 30
f 6 17 18
f 75 54 82
f 82 108 75
f 109 117 85
f 108 117 109
f 124 99 98
f 125 99 124
f 126 99 125
f 100 99 126
f 126 106 100
f 125 127 126
f 126 127 106
f 47 27 46
f 46 45 47
f 46 27 26
f 26 45 46
f 122 123 94
f 55 37 36
f 56 37 55
f 58 37 57
f 57 37 56
f 85 58 57
f 57 56 85
f 39 63 60
f 74 50 49
f 49 73 74
f 49 71 72
f 72 73 49
f 66 71 49
f 49 47 66
f 48 68 69
f 69 70 48
f 68 70 69
f 53 70 80
f 112 83 80
f 54 53 80
f 80 83 54
f 80 104 112
f 115 83 112
f 116 83 115
f 112 120 115
f 120 116 115
f 81 94 82
f 82 54 81
f 54 83 81
f 51 52 32
f 51 75 76
f 32 54 51
f 54 75 51
f 33 19 32
f 32 52 33
f 85 56 84
f 84 109 85
f 94 62 93
f 93 122 94
f 92 93 62
f 122 93 92
f 128 129 114
f 114 123 128
f 123 132 128
f 90 60 89
f 89 60 63
f 94 90 89
f 89 63 94
f 31 50 48
f 31 49 50
f 48 34 31
f 31 29 28
f 28 47 31
f 47 49 31
f 30 29 31
f 31 18 30
f 34 19 31
f 19 18 31
f 105 70 68
f 105 80 70
f 105 68 104
f 104 80 105
f 113 83 116
f 113 81 83
f 113 116 94
f 94 81 113
f 52 51 79
f 77 51 76
f 108 109 77
f 77 75 108
f 76 75 77
f 91 62 61
f 91 92 62
f 122 92 121
f 111 79 78
f 78 79 51
f 51 77 78
f 111 78 110
f 110 77 109
f 110 78 77
f 22 40 23
f 1 3 23
f 23 13 22
f 23 4 1
f 23 3 13
f 14 4 23
f 131 119 118
f 118 119 86
f 60 40 22
f 60 22 39
f 60 96 95
f 98 97 60
f 60 103 102
f 42 41 60
f 60 41 40
f 60 127 125
f 102 107 60
f 60 43 42
f 95 64 60
f 60 124 98
f 97 96 60
f 44 43 60
f 60 64 44
f 120 104 60
f 60 90 120
f 107 127 60
f 104 103 60
f 125 124 60
f 39 22 121
f 22 13 121
f 11 21 121
f 21 38 121
f 121 12 11
f 13 12 121
f 121 88 87
f 121 59 88
f 121 61 39
f 121 38 59
f 121 130 129
f 87 119 121
f 121 119 131
f 131 130 121
f 129 128 121
f 121 91 61
f 121 128 132
f 92 91 121
f 123 122 121
f 121 132 123
f 110 3 1
f 11 3 110
f 1 2 110
f 110 21 11
f 36 21 110
f 2 10 110
f 110 79 111
f 110 84 56
f 10 20 110
f 110 20 19
f 110 55 36
f 19 33 110
f 56 55 110
f 110 33 52
f 109 84 110
f 52 79 110

