# https://github.com/mikedh/trimesh
v 0.02277188 -0.02089875 0.01496224
v 0.02286267 -0.02132112 0.01496224
v 0.02276180 -0.02089875 0.01453919
v 0.00668408 -0.02089875 0.01496224
v 0.02358560 -0.02473381 0.01496224
v 0.02259535 -0.02089875 0.01282895
v 0.00668408 -0.02089875 0.01112772
v 0.00668408 -0.02481839 0.01496224
v 0.02384283 -0.02611663 0.01496224
v 0.02385797 -0.02619965 0.01496224
v 0.02385124 -0.02619965 0.01492283
v 0.02381930 -0.02619965 0.01474527
v 0.02224734 -0.02089875 0.01136684
v 0.00668408 -0.02472084 0.01112772
v 0.02215991 -0.02089875 0.01112772
v 0.00993224 -0.02619965 0.01496224
v 0.01000789 -0.02619965 0.01112772
v 0.02374196 -0.02619965 0.01442620
v 0.02308123 -0.02431611 0.01282895
v 0.02327121 -0.02602686 0.01282895
v 0.02235325 -0.02260639 0.01121669
v 0.02229945 -0.02239002 0.01112772
v 0.02244236 -0.02619965 0.01112772
v 0.02331661 -0.02619965 0.01291904
v 0.02243732 -0.02444842 0.01112772
v 0.02231459 -0.02260639 0.01112772
v 0.02245749 -0.02604347 0.01112772
v 0.02253147 -0.02619965 0.01128388
f 16 8 17
f 14 17 8
f 3 5 6
f 10 6 9
f 6 5 9
f 2 3 1
f 5 3 2
f 27 25 24
f 19 18 24
f 13 18 19
f 12 13 6
f 12 18 13
f 23 27 28
f 28 27 24
f 15 21 22
f 20 21 15
f 15 13 20
f 24 25 20
f 25 21 20
f 13 19 20
f 20 19 24
f 11 6 10
f 11 12 6
f 26 21 25
f 26 22 21
f 4 7 14
f 14 8 4
f 3 7 4
f 4 1 3
f 3 15 7
f 3 13 15
f 6 13 3
f 2 1 4
f 4 8 2
f 2 16 10
f 2 8 16
f 10 9 2
f 2 9 5
f 10 16 11
f 16 17 11
f 17 23 11
f 23 28 11
f 24 18 11
f 18 12 11
f 11 28 24
f 7 15 26
f 26 23 17
f 26 14 7
f 17 14 26
f 26 27 23
f 25 27 26
f 15 22 26

