# https://github.com/mikedh/trimesh
v -0.00737991 0.03602989 0.05856350
v -0.00623535 0.03602989 0.05856350
v -0.00738305 0.03602989 0.05861223
v -0.00738305 0.03631061 0.05856350
v -0.00623535 0.04280379 0.05856350
v -0.00623535 0.03602989 0.07675307
v -0.00738305 0.03602989 0.07731442
v -0.00738305 0.04280910 0.05856350
v -0.00738305 0.04279383 0.05901375
v -0.00623535 0.04278653 0.05905274
v -0.00623535 0.03732733 0.07847418
v -0.00738305 0.03685215 0.07847418
v -0.00738305 0.04272150 0.06072512
v -0.00623535 0.04271951 0.06072512
v -0.00623535 0.04177247 0.07847418
v -0.00738305 0.04177247 0.07847418
v -0.00738305 0.04263257 0.06243453
v -0.00623535 0.04263124 0.06243453
f 4 1 3
f 7 6 12
f 12 6 11
f 15 17 16
f 18 17 15
f 9 5 8
f 5 9 10
f 10 9 14
f 14 9 13
f 18 14 13
f 13 17 18
f 2 1 4
f 4 5 2
f 8 5 4
f 6 1 2
f 3 1 6
f 6 7 3
f 16 12 15
f 15 12 11
f 2 5 10
f 10 6 2
f 11 6 10
f 10 15 11
f 10 14 18
f 18 15 10
f 3 7 13
f 13 4 3
f 13 12 16
f 8 4 13
f 7 12 13
f 16 17 13
f 13 9 8

