# https://github.com/mikedh/trimesh
v 0.00918238 0.03208695 0.06721743
v 0.00918324 -0.03094078 0.06721743
v 0.00918238 0.03208695 0.06805525
v 0.00918238 0.04236197 0.06721743
v 0.01149178 -0.03094078 0.06721743
v 0.00918324 -0.03094078 0.06805525
v 0.00918238 0.04065425 0.06805525
v 0.00918238 0.04234044 0.06758205
v 0.01262019 0.04236197 0.06721743
v 0.01603903 -0.03093361 0.06721743
v 0.01149178 -0.03094078 0.06805525
v 0.00918669 0.04231174 0.06805525
v 0.01262019 0.04231174 0.06805525
v 0.01432875 0.04222564 0.06721743
v 0.01432875 0.04218259 0.06805525
v 0.01603903 -0.03093361 0.06805525
v 0.01774932 -0.03075422 0.06721743
v 0.01652867 -0.03088338 0.06805525
v 0.01564853 0.04179512 0.06805525
v 0.01567525 0.04181665 0.06721743
v 0.01798724 -0.03068247 0.06767619
v 0.01774932 -0.03075422 0.06805525
v 0.01798724 -0.03067529 0.06721743
v 0.01589421 0.04163726 0.06805525
v 0.01635627 0.04134308 0.06721743
v 0.01650367 0.04121392 0.06805525
v 0.01798724 -0.03068247 0.06805525
v 0.01798724 0.03817160 0.06721743
v 0.01653040 0.04122110 0.06721743
v 0.01725796 0.04036006 0.06805525
v 0.01798724 0.03845861 0.06805525
v 0.01778811 0.03896806 0.06721743
v 0.01796052 0.03857342 0.06805525
v 0.01725623 0.04036724 0.06721743
v 0.01744243 0.03995825 0.06805525
v 0.01768208 0.03926224 0.06721743
v 0.01782518 0.03896806 0.06805525
f 7 12 8
f 16 10 18
f 17 23 21
f 22 18 17
f 17 18 10
f 31 28 33
f 28 32 33
f 20 19 24
f 24 26 20
f 8 12 13
f 14 15 19
f 14 19 20
f 37 33 32
f 20 26 25
f 26 29 25
f 9 13 15
f 15 14 9
f 9 4 8
f 8 13 9
f 34 37 36
f 36 37 32
f 34 29 30
f 30 29 26
f 35 37 34
f 34 30 35
f 6 3 1
f 1 2 6
f 1 3 7
f 7 4 1
f 8 4 7
f 27 28 31
f 21 23 27
f 27 23 28
f 5 6 2
f 5 11 6
f 16 11 5
f 5 10 16
f 21 27 17
f 17 27 22
f 36 2 1
f 28 23 36
f 1 4 36
f 23 17 36
f 36 5 2
f 20 25 36
f 10 5 36
f 36 17 10
f 36 32 28
f 4 9 36
f 36 29 34
f 36 14 20
f 36 25 29
f 36 9 14
f 3 6 35
f 6 11 35
f 35 7 3
f 16 18 35
f 35 11 16
f 35 27 31
f 12 7 35
f 22 27 35
f 35 18 22
f 35 24 19
f 31 33 35
f 19 15 35
f 35 13 12
f 26 24 35
f 15 13 35
f 33 37 35
f 35 30 26

