# https://github.com/mikedh/trimesh
v -0.00820137 -0.01581850 0.02580820
v -0.00820137 -0.02619864 0.02580820
v -0.00820137 -0.01581850 0.01568051
v -0.02006659 -0.01581850 0.02580820
v -0.00820137 -0.02619864 0.01696245
v -0.01846845 -0.02619864 0.02580820
v -0.00820137 -0.02508695 0.01568051
v -0.01988308 -0.01581850 0.01568051
v -0.02006310 -0.01581850 0.02474735
v -0.01990050 -0.01747485 0.01967111
v -0.01990166 -0.01747485 0.02138136
v -0.02000155 -0.01646884 0.02580820
v -0.00965084 -0.02619864 0.01568051
v -0.01846961 -0.02619864 0.02504875
v -0.01850794 -0.02602691 0.02580820
v -0.01987611 -0.01633471 0.01568051
v -0.01992954 -0.01581850 0.01619606
v -0.02005613 -0.01581850 0.02303709
v -0.01989353 -0.01747485 0.01796085
v -0.01966705 -0.01918506 0.01625059
v -0.01966705 -0.01918506 0.01796085
v -0.01989934 -0.01747485 0.02580820
v -0.01847426 -0.02619864 0.01568051
v -0.01850910 -0.02602691 0.02480187
v -0.01851839 -0.02602691 0.01568051
v -0.01847658 -0.02619864 0.01625059
v -0.01885056 -0.02431568 0.02580820
v -0.01885289 -0.02431568 0.02480187
v -0.01885869 -0.02431568 0.02138136
v -0.01886566 -0.02431568 0.01625059
v -0.01875068 -0.02488677 0.01568051
v -0.01987495 -0.01637129 0.01568051
v -0.01993302 -0.01581850 0.01625059
v -0.02004452 -0.01581850 0.02132683
v -0.01986334 -0.01747485 0.01625059
v -0.01965776 -0.01918506 0.01568051
v -0.02002826 -0.01581850 0.01961658
v -0.01958343 -0.01975614 0.01568051
v -0.01941735 -0.02089628 0.01568051
v -0.01941735 -0.02089628 0.02138136
v -0.01941618 -0.02089628 0.02480187
v -0.01966241 -0.01918506 0.02480187
v -0.01966125 -0.01918506 0.02580820
v -0.01902246 -0.02344279 0.02580820
v -0.01886566 -0.02431568 0.01568051
v -0.01902362 -0.02345092 0.01967111
v -0.01902362 -0.02345194 0.01796085
v -0.01982733 -0.01747485 0.01568051
v -0.01999690 -0.01581850 0.01790632
v -0.01999806 -0.01581850 0.01796085
v -0.01978784 -0.01804492 0.01568051
v -0.01915718 -0.02259633 0.01796085
v -0.01915718 -0.02259328 0.01568051
v -0.01915718 -0.02259429 0.01625059
v -0.01915718 -0.02259531 0.01967111
v -0.01915718 -0.02259328 0.02138136
v -0.01915718 -0.02258718 0.02580820
v -0.01941502 -0.02089628 0.02580820
v -0.01956020 -0.01989027 0.02580820
v -0.01902362 -0.02344991 0.01625059
v -0.01897019 -0.02373850 0.01568051
v -0.01906775 -0.02316335 0.01568051
v -0.01902246 -0.02344889 0.01568051
f 7 5 13
f 6 15 14
f 14 15 24
f 28 44 29
f 29 15 28
f 44 28 27
f 27 28 15
f 23 26 25
f 26 14 25
f 25 14 24
f 46 44 57
f 35 51 36
f 4 10 11
f 31 25 24
f 24 15 31
f 56 46 57
f 55 46 56
f 40 56 57
f 55 56 40
f 35 37 50
f 50 49 35
f 48 51 35
f 35 32 48
f 35 49 33
f 33 32 35
f 22 42 43
f 4 11 12
f 12 11 22
f 21 42 22
f 22 11 21
f 9 10 4
f 19 37 35
f 35 36 19
f 30 15 29
f 30 31 15
f 45 31 30
f 29 44 30
f 44 46 30
f 61 60 63
f 45 60 61
f 47 60 45
f 45 30 47
f 47 30 46
f 32 33 17
f 59 43 42
f 20 11 10
f 20 21 11
f 10 19 20
f 38 39 20
f 20 36 38
f 20 19 36
f 34 19 18
f 37 19 34
f 63 60 62
f 60 53 62
f 52 40 39
f 55 40 52
f 16 17 8
f 32 17 16
f 58 59 41
f 41 21 40
f 42 21 41
f 41 59 42
f 57 58 41
f 41 40 57
f 39 53 54
f 54 52 39
f 54 53 60
f 1 2 5
f 5 3 1
f 5 7 3
f 2 6 14
f 14 5 2
f 23 13 14
f 14 13 5
f 14 26 23
f 19 9 18
f 10 9 19
f 59 2 1
f 59 1 4
f 59 6 2
f 59 15 6
f 57 44 59
f 59 58 57
f 22 43 59
f 44 27 59
f 59 27 15
f 4 12 59
f 59 12 22
f 40 21 20
f 39 40 20
f 4 1 34
f 1 3 34
f 3 8 34
f 34 50 37
f 34 9 4
f 8 17 34
f 49 50 34
f 34 33 49
f 18 9 34
f 34 17 33
f 52 47 46
f 52 46 55
f 16 8 3
f 3 7 16
f 16 13 23
f 7 13 16
f 16 39 38
f 23 25 16
f 51 48 16
f 63 62 16
f 38 36 16
f 16 61 63
f 16 31 45
f 16 36 51
f 25 31 16
f 16 48 32
f 45 61 16
f 16 53 39
f 16 62 53
f 47 52 54
f 60 47 54

