# https://github.com/mikedh/trimesh
v 0.01036053 -0.00450280 0.08052406
v 0.01036053 -0.00376860 0.08296222
v 0.01036053 0.01488969 0.08052406
v 0.01066276 -0.00892131 0.08052406
v 0.01036053 -0.00372603 0.08309700
v 0.01036053 0.01349311 0.08342882
v 0.01060514 0.01704175 0.08052406
v 0.01082623 -0.01013433 0.08052406
v 0.01106026 -0.01013433 0.08342882
v 0.01036053 -0.00340682 0.08342882
v 0.01105790 0.01704175 0.08342882
v 0.02187841 0.01704175 0.08052406
v 0.02187841 -0.01013433 0.08052406
v 0.02237233 -0.01013433 0.08342882
v 0.02237351 0.01704175 0.08342882
v 0.02194074 0.01704175 0.08087919
v 0.02188076 -0.01013433 0.08053628
v 0.02235116 -0.01013433 0.08329205
v 0.02237351 -0.00551365 0.08342882
v 0.02237468 0.01113356 0.08342882
v 0.02229707 0.01704175 0.08295967
v 0.02209009 0.01704175 0.08173447
v 0.02209244 -0.00551365 0.08174755
v 0.02194074 0.01673317 0.08087919
v 0.02209009 -0.01013433 0.08173703
v 0.02229589 -0.01013433 0.08295967
v 0.02229707 -0.00551365 0.08295967
f 3 6 7
f 7 6 11
f 4 8 9
f 9 10 5
f 5 4 9
f 23 27 25
f 1 4 2
f 4 5 2
f 23 25 17
f 13 12 17
f 26 25 27
f 21 15 20
f 20 27 21
f 21 27 23
f 23 22 21
f 16 17 12
f 16 22 23
f 18 26 27
f 18 19 14
f 20 19 18
f 18 27 20
f 23 17 24
f 24 16 23
f 17 16 24
f 7 12 4
f 1 3 4
f 4 3 7
f 13 8 4
f 4 12 13
f 2 3 1
f 2 10 6
f 6 3 2
f 2 5 10
f 20 15 19
f 6 10 19
f 19 11 6
f 19 10 9
f 9 14 19
f 15 11 19
f 16 11 15
f 16 12 7
f 7 11 16
f 15 21 16
f 16 21 22
f 18 8 13
f 18 14 9
f 9 8 18
f 13 17 18
f 18 17 25
f 25 26 18

