# https://github.com/mikedh/trimesh
v 0.00163820 0.04106492 0.03407320
v 0.00334924 0.04106378 0.03407320
v 0.00235706 0.04094297 0.03335504
v -0.00178230 0.04106435 0.03407320
v 0.00406810 0.04106321 0.03407320
v 0.00406810 0.04094183 0.03335504
v 0.00064602 0.04094183 0.03335504
v -0.00296091 0.04106378 0.03407320
v -0.00106502 0.04059934 0.03164474
v -0.00277448 0.04059991 0.03164474
v -0.00296091 0.04059991 0.03164474
v 0.00505870 0.04106207 0.03407320
v 0.00577598 0.04094012 0.03335504
v 0.00235706 0.04059706 0.03164474
v -0.00277448 0.04093898 0.03335504
v -0.00296091 0.04097089 0.03354025
v -0.00296091 0.03537651 0.03407320
v -0.00277448 0.04023006 0.02993323
v -0.00296091 0.04023006 0.02993323
v -0.00296091 0.04093841 0.03335504
v 0.00577598 0.04106093 0.03407320
v 0.00577598 0.04059250 0.03164474
v 0.00406810 0.04059478 0.03164474
v 0.00748702 0.04093727 0.03335504
v 0.01317942 0.03524316 0.03407320
v -0.00296091 0.03589851 0.02993323
v 0.01317942 0.03565460 0.02993323
v 0.00919806 0.04058680 0.03164474
v 0.00235706 0.04022038 0.02993323
v 0.00676816 0.04105922 0.03407320
v 0.01090752 0.04105124 0.03407320
v 0.01261856 0.04104782 0.03407320
v 0.01261856 0.04092701 0.03335504
v 0.01317942 0.04101021 0.03407320
v 0.01317942 0.04016168 0.02993323
v 0.01261856 0.04057996 0.03164474
v 0.01261856 0.04020100 0.02993444
v 0.00919806 0.04020727 0.02993323
v 0.01317942 0.04097089 0.03383813
v 0.01317942 0.04088940 0.03335504
v 0.01317942 0.04077656 0.03279453
v 0.01317942 0.04054292 0.03164474
v 0.01262962 0.04019986 0.02993323
v 0.01261856 0.04020043 0.02993323
f 25 17 27
f 26 27 17
f 10 11 3
f 4 3 8
f 1 3 4
f 28 29 18
f 33 36 28
f 37 42 35
f 37 36 42
f 29 28 37
f 37 28 36
f 11 20 15
f 6 3 1
f 24 32 33
f 33 28 24
f 33 40 41
f 41 36 33
f 42 36 41
f 39 32 34
f 33 32 39
f 39 40 33
f 14 6 13
f 3 6 14
f 8 15 16
f 16 15 20
f 8 3 7
f 7 15 8
f 7 3 11
f 11 15 7
f 13 6 5
f 5 12 13
f 18 10 9
f 9 14 18
f 10 3 9
f 3 14 9
f 22 28 18
f 13 24 22
f 22 24 28
f 43 37 35
f 43 44 37
f 29 37 38
f 37 44 38
f 2 6 1
f 2 5 6
f 32 24 31
f 24 30 31
f 21 30 24
f 13 12 21
f 21 24 13
f 18 14 23
f 23 22 18
f 23 14 13
f 13 22 23
f 19 10 18
f 19 11 10
f 39 34 25
f 25 27 39
f 39 27 35
f 35 42 39
f 42 41 39
f 39 41 40
f 16 17 8
f 16 19 26
f 16 26 17
f 11 19 16
f 16 20 11
f 35 27 38
f 18 29 38
f 38 19 18
f 27 26 38
f 26 19 38
f 38 43 35
f 44 43 38
f 8 17 21
f 21 4 8
f 21 17 25
f 25 34 21
f 34 32 21
f 1 4 21
f 21 2 1
f 12 5 21
f 32 31 21
f 5 2 21
f 21 31 30

