# https://github.com/mikedh/trimesh
v 0.00918152 -0.03058331 0.08052378
v 0.01024286 -0.03072809 0.08052378
v 0.01071513 -0.03066590 0.08096900
v 0.01071513 -0.03062318 0.08111833
v 0.00918152 -0.03054676 0.08065082
v 0.00918152 -0.02700184 0.08052378
v 0.01071513 -0.03073616 0.08052378
v 0.01071513 -0.02944740 0.08197987
v 0.00918152 -0.02945831 0.08095242
v 0.00918152 -0.02740057 0.08070494
v 0.01071513 -0.02696291 0.08194261
v 0.01071513 -0.02619155 0.08104264
v 0.01071513 -0.02588681 0.08052378
v 0.01071513 -0.02887968 0.08202241
v 0.00918152 -0.02944740 0.08095506
v 0.00918152 -0.02749123 0.08074587
f 15 8 14
f 11 15 14
f 2 7 3
f 2 3 1
f 1 3 4
f 8 15 9
f 13 6 12
f 6 11 12
f 15 11 16
f 5 4 8
f 1 4 5
f 8 9 5
f 10 11 6
f 10 16 11
f 2 6 13
f 1 6 2
f 13 7 2
f 12 7 13
f 3 7 12
f 12 4 3
f 14 8 12
f 12 11 14
f 8 4 12
f 10 6 1
f 1 5 10
f 10 9 15
f 15 16 10
f 10 5 9

