# https://github.com/mikedh/trimesh
v -0.00118435 -0.00434633 0.05856155
v -0.00072710 -0.00434633 0.05856155
v -0.00623373 -0.00434633 0.05856372
v -0.00623373 0.01366743 0.05856155
v -0.00061392 -0.00434013 0.05856155
v 0.00827607 -0.00434633 0.05856372
v -0.00623524 0.01496121 0.05856372
v -0.00623373 -0.00434633 0.07990263
v -0.00623373 0.01495501 0.05856155
v -0.00061392 0.00668390 0.05856155
v 0.00918152 0.01496121 0.05856372
v 0.00918001 -0.00434633 0.05856805
v -0.00623524 0.01676755 0.05856372
v -0.00623524 0.01496121 0.07973126
v -0.00511852 -0.00434633 0.07994818
v 0.00065069 -0.00413965 0.08072260
v -0.00010838 -0.00412518 0.08072260
v -0.00061392 -0.00411072 0.08072260
v -0.00106060 -0.00409625 0.08072260
v -0.00181364 -0.00402805 0.08072260
v -0.00361246 -0.00354236 0.08072260
v -0.00623373 -0.00233332 0.08072043
v -0.00421609 0.01495501 0.05856155
v -0.00118435 0.01495295 0.05856155
v 0.00918152 0.01676755 0.05856372
v 0.00918152 0.01496121 0.08008484
v 0.00918001 -0.00434633 0.08005014
v -0.00623524 0.01676755 0.07971607
v -0.00623373 0.01245632 0.08072043
v -0.00623524 0.01673448 0.07971824
v -0.00112399 -0.00434633 0.08004580
v 0.00235595 -0.00415412 0.08072260
v 0.00159085 -0.00414792 0.08072260
v -0.00421458 -0.00299261 0.08072260
v 0.00918152 0.01676755 0.07971173
v 0.00918001 0.01430605 0.08071827
v 0.00918001 0.00562572 0.08072043
v 0.00918001 -0.00403425 0.08072043
v 0.00748380 -0.00434633 0.08005664
v 0.00577251 -0.00414585 0.08072260
v 0.00406423 -0.00415412 0.08072260
v 0.00406423 0.01676755 0.07971390
v -0.00158576 0.01409731 0.08072260
v -0.00071653 0.01437839 0.08072260
v 0.00065069 0.01464707 0.08072260
v 0.00276642 0.01465120 0.08072260
v 0.00449130 0.01465120 0.08072260
v -0.00421458 0.01300194 0.08072260
v -0.00284585 0.01361576 0.08072260
v 0.00061900 -0.00434633 0.08006098
v 0.00234237 -0.00434633 0.08006966
v 0.00577251 0.01463053 0.08072260
v 0.00616940 0.01462020 0.08072260
v 0.00759699 0.01441973 0.08072260
v 0.00827607 0.01427919 0.08072260
v 0.00827607 -0.00404665 0.08072260
v 0.00748380 -0.00408385 0.08072260
v 0.00235595 -0.00434633 0.08006966
f 11 12 6
f 11 6 5
f 28 47 42
f 42 47 35
f 1 3 4
f 4 3 7
f 30 29 28
f 30 14 29
f 22 14 8
f 29 14 22
f 2 5 6
f 24 25 10
f 23 25 24
f 28 44 45
f 28 29 43
f 43 44 28
f 16 8 15
f 32 15 31
f 19 20 8
f 21 22 8
f 8 20 21
f 34 22 21
f 46 47 28
f 28 45 46
f 27 38 40
f 16 15 33
f 15 32 33
f 35 36 26
f 26 38 27
f 38 26 37
f 37 26 36
f 17 8 16
f 29 48 49
f 49 43 29
f 50 32 31
f 50 51 32
f 27 40 41
f 41 39 27
f 55 37 36
f 18 19 8
f 8 17 18
f 39 41 58
f 53 36 35
f 54 55 36
f 36 53 54
f 35 47 52
f 52 53 35
f 38 56 57
f 57 40 38
f 14 3 8
f 7 3 14
f 42 13 28
f 35 25 42
f 42 25 13
f 7 13 4
f 4 13 9
f 28 13 30
f 30 13 7
f 7 14 30
f 11 5 10
f 10 25 11
f 24 10 23
f 1 4 23
f 23 2 1
f 23 4 9
f 5 2 23
f 23 10 5
f 13 25 23
f 9 13 23
f 29 22 48
f 48 22 34
f 26 25 35
f 11 25 26
f 26 27 12
f 26 12 11
f 1 2 58
f 12 27 58
f 58 6 12
f 58 3 1
f 8 3 58
f 58 15 8
f 58 2 6
f 31 15 58
f 27 39 58
f 58 50 31
f 51 50 58
f 58 41 32
f 32 51 58
f 38 37 56
f 37 55 56
f 32 41 57
f 47 46 57
f 34 21 57
f 16 33 57
f 57 45 44
f 44 43 57
f 57 48 34
f 20 19 57
f 57 21 20
f 57 46 45
f 57 17 16
f 43 49 57
f 57 33 32
f 19 18 57
f 57 49 48
f 57 41 40
f 55 54 57
f 57 18 17
f 57 52 47
f 57 56 55
f 57 54 53
f 53 52 57

