# https://github.com/mikedh/trimesh
v 0.00826803 -0.02773320 0.01750401
v 0.00826803 -0.02773320 0.02580739
v 0.00826803 -0.03431005 0.01750563
v -0.00789843 -0.02773320 0.01765601
v 0.00826803 -0.03109502 0.02580739
v -0.00789843 -0.02773320 0.02580739
v 0.00826803 -0.03431005 0.02402478
v -0.00789843 -0.03431005 0.01765764
v 0.00406500 -0.03144459 0.02580739
v -0.00789843 -0.03147034 0.02580739
v 0.00766353 -0.03431005 0.02402397
v 0.00235436 -0.03147291 0.02580739
v 0.00064371 -0.03147420 0.02580739
v -0.00277283 -0.03147420 0.02580739
v -0.00547568 -0.03147291 0.02580739
v -0.00718474 -0.03147163 0.02580739
v -0.00789843 -0.03431005 0.02399958
f 4 1 3
f 4 3 8
f 7 13 14
f 7 5 9
f 12 13 7
f 7 9 12
f 11 10 17
f 7 10 11
f 16 10 7
f 7 14 15
f 15 16 7
f 6 2 1
f 6 1 4
f 1 2 5
f 5 3 1
f 5 7 3
f 10 6 4
f 4 8 10
f 10 8 17
f 17 8 11
f 3 7 11
f 11 8 3
f 2 6 15
f 15 5 2
f 6 10 15
f 15 14 13
f 15 9 5
f 13 12 15
f 15 12 9
f 10 16 15

