# https://github.com/mikedh/trimesh
v -0.00820137 -0.01581850 0.01567951
v -0.00820137 -0.02508695 0.01567951
v -0.00820137 -0.01581850 0.01112735
v -0.01988300 -0.01581850 0.01567951
v -0.00965142 -0.02619864 0.01567951
v -0.00994189 -0.02619864 0.01112735
v -0.00820137 -0.02491420 0.01231307
v -0.00820137 -0.02478820 0.01112735
v -0.01904362 -0.01581850 0.01112735
v -0.01978122 -0.01581850 0.01453925
v -0.01987614 -0.01633471 0.01567951
v -0.01847412 -0.02619864 0.01567951
v -0.01821109 -0.02619864 0.01112735
v -0.01904476 -0.01654302 0.01112735
v -0.01916712 -0.01581850 0.01149095
v -0.01977322 -0.01581850 0.01448444
v -0.01975721 -0.01747485 0.01453925
v -0.01982811 -0.01747485 0.01567951
v -0.01851871 -0.02602691 0.01567951
v -0.01852100 -0.02602691 0.01453925
v -0.01847526 -0.02619864 0.01453925
v -0.01841694 -0.02619864 0.01266152
v -0.01831630 -0.02619762 0.01112735
v -0.01904705 -0.01824510 0.01112735
v -0.01904819 -0.01918506 0.01112735
v -0.01917627 -0.01747485 0.01151457
v -0.01917627 -0.01581850 0.01151858
v -0.01950105 -0.01581850 0.01282906
v -0.01950105 -0.01747485 0.01282906
v -0.01946560 -0.01918506 0.01282906
v -0.01963713 -0.01918506 0.01453925
v -0.01978808 -0.01804492 0.01567951
v -0.01874972 -0.02488677 0.01567951
v -0.01886522 -0.02431568 0.01567951
v -0.01886636 -0.02431568 0.01453925
v -0.01886179 -0.02431568 0.01282906
v -0.01849127 -0.02602691 0.01282906
v -0.01843866 -0.02619864 0.01282906
v -0.01837920 -0.02602691 0.01112735
v -0.01917513 -0.01918506 0.01151100
v -0.01904247 -0.01999291 0.01112735
v -0.01949075 -0.01581850 0.01278718
v -0.01914768 -0.02089628 0.01155423
v -0.01908936 -0.02225591 0.01172355
v -0.01934209 -0.02089628 0.01282906
v -0.01913853 -0.02254958 0.01282906
v -0.01941642 -0.02089628 0.01453925
v -0.01965772 -0.01918506 0.01567951
v -0.01897043 -0.02373850 0.01567951
v -0.01902303 -0.02344889 0.01567951
v -0.01902303 -0.02344686 0.01453925
v -0.01901731 -0.02340418 0.01282906
v -0.01873599 -0.02431568 0.01112735
v -0.01838148 -0.02601776 0.01112735
v -0.01902074 -0.02089628 0.01112735
v -0.01890181 -0.02268778 0.01112735
v -0.01890181 -0.02273757 0.01113938
v -0.01880690 -0.02363485 0.01112735
v -0.01941642 -0.02089628 0.01567951
v -0.01958338 -0.01975614 0.01567951
v -0.01915683 -0.02259125 0.01453925
v -0.01933065 -0.02146025 0.01567951
v -0.01915683 -0.02259328 0.01567951
v -0.01889724 -0.02274875 0.01112735
f 6 2 5
f 7 6 8
f 2 6 7
f 47 31 46
f 36 37 20
f 54 37 36
f 36 53 54
f 52 53 36
f 52 47 46
f 44 52 46
f 53 52 44
f 48 32 31
f 48 47 60
f 31 47 48
f 60 47 59
f 31 32 18
f 18 17 31
f 31 17 30
f 23 13 22
f 22 38 23
f 37 38 21
f 21 20 37
f 12 20 21
f 23 38 39
f 39 38 37
f 37 54 39
f 47 52 61
f 25 41 40
f 40 26 25
f 17 18 11
f 4 10 11
f 11 10 17
f 40 30 29
f 29 26 40
f 29 30 17
f 31 30 45
f 45 30 44
f 46 31 45
f 45 44 46
f 19 20 12
f 36 20 35
f 20 34 35
f 51 61 52
f 51 52 36
f 36 35 51
f 51 35 50
f 63 51 50
f 61 51 63
f 64 57 56
f 27 26 42
f 42 29 28
f 26 29 42
f 15 26 27
f 15 25 26
f 43 55 56
f 56 57 43
f 43 57 44
f 44 30 43
f 43 30 40
f 41 55 43
f 40 41 43
f 28 29 16
f 17 10 16
f 16 29 17
f 33 34 20
f 20 19 33
f 50 35 49
f 49 35 34
f 62 59 47
f 47 61 62
f 61 63 62
f 57 64 58
f 53 44 58
f 44 57 58
f 14 15 9
f 25 15 24
f 15 14 24
f 1 2 7
f 7 3 1
f 7 8 3
f 5 12 21
f 21 13 6
f 21 6 5
f 21 22 13
f 38 22 21
f 4 1 16
f 1 3 16
f 3 9 16
f 16 42 28
f 16 10 4
f 9 15 16
f 27 42 16
f 16 15 27
f 62 2 1
f 62 1 4
f 5 2 62
f 62 12 5
f 4 11 62
f 62 48 60
f 60 59 62
f 32 48 62
f 62 19 12
f 62 18 32
f 34 33 62
f 62 11 18
f 62 63 50
f 50 49 62
f 62 33 19
f 62 49 34
f 24 9 3
f 24 13 23
f 3 8 24
f 8 6 24
f 23 39 24
f 6 13 24
f 56 55 24
f 24 54 53
f 53 58 24
f 24 39 54
f 41 25 24
f 24 55 41
f 24 64 56
f 24 58 64
f 24 14 9

