# https://github.com/mikedh/trimesh
v 0.00918152 -0.02969963 0.07158370
v 0.00918152 -0.02969963 0.07299109
v 0.00918152 -0.02696438 0.07158356
v 0.01635766 -0.02969963 0.07158370
v 0.01635766 -0.02969963 0.07299109
v 0.00918152 -0.02696438 0.07299123
v 0.00918152 -0.02300565 0.07158342
v 0.01635766 -0.02696438 0.07158356
v 0.01635766 -0.02696438 0.07299123
v 0.00918152 -0.02300565 0.07299137
v 0.00918152 -0.00586988 0.07158342
v 0.01635766 -0.02300565 0.07158342
v 0.01635766 -0.02300565 0.07299137
v 0.00918152 -0.00586988 0.07299137
v 0.00918152 0.04213417 0.07158356
v 0.01558567 0.04177556 0.07158342
v 0.01635766 0.04145211 0.07158342
v 0.01635766 0.04158571 0.07299137
v 0.01558567 0.04178962 0.07299137
v 0.00918573 0.04204979 0.07299123
v 0.00918152 0.04181775 0.07299123
v 0.00918152 0.04207088 0.07271325
v 0.01261856 0.04213417 0.07158356
v 0.01432690 0.04204979 0.07158356
v 0.01572405 0.04175447 0.07158342
v 0.01602119 0.04163493 0.07158342
v 0.01635766 0.04152243 0.07215192
v 0.01612374 0.04167712 0.07299137
v 0.01588632 0.04174744 0.07299137
v 0.01432760 0.04201463 0.07299123
v 0.01261856 0.04204979 0.07299123
v 0.01261856 0.04207088 0.07269671
f 22 21 20
f 22 23 15
f 20 21 14
f 16 11 15
f 15 23 16
f 20 14 19
f 29 30 19
f 27 17 26
f 18 27 26
f 32 30 23
f 23 22 32
f 24 30 29
f 24 16 23
f 23 30 24
f 20 19 31
f 31 19 30
f 30 32 31
f 31 22 20
f 31 32 22
f 18 26 25
f 25 24 29
f 16 24 25
f 18 25 28
f 28 25 29
f 5 2 1
f 1 4 5
f 1 3 8
f 8 4 1
f 8 3 7
f 7 12 8
f 6 3 1
f 1 2 6
f 15 11 6
f 10 14 6
f 7 3 6
f 6 22 15
f 6 11 7
f 21 22 6
f 6 14 21
f 2 5 6
f 5 9 6
f 13 27 18
f 13 5 4
f 13 17 27
f 4 8 13
f 13 12 17
f 13 9 5
f 13 8 12
f 10 6 13
f 13 6 9
f 7 11 25
f 17 12 25
f 25 12 7
f 11 16 25
f 25 26 17
f 28 14 10
f 28 13 18
f 29 19 28
f 10 13 28
f 28 19 14

