# https://github.com/mikedh/trimesh
v 0.01838964 0.01096559 0.03883804
v 0.01838964 0.01779392 0.04218386
v 0.01939541 0.01096559 0.03883997
v 0.01838964 0.01096559 0.05856155
v 0.01838964 0.01982576 0.04369749
v 0.02112062 0.01447228 0.04089805
v 0.02112062 0.01096559 0.03885735
v 0.01939541 0.01096559 0.05856155
v 0.01838964 0.02771628 0.05856155
v 0.02112062 0.01612662 0.04255068
v 0.02112062 0.01609701 0.04251400
v 0.02112062 0.01533646 0.04168189
v 0.01838964 0.02484986 0.05060342
v 0.02112062 0.01096559 0.05725643
v 0.01987664 0.02771998 0.05856155
v 0.02090192 0.01096559 0.05855962
v 0.01847653 0.02987025 0.05856155
v 0.01838964 0.02771628 0.05488366
v 0.02112062 0.01693899 0.04371293
v 0.01847653 0.02819926 0.05568295
v 0.02112062 0.01160771 0.05725836
v 0.02090246 0.02186316 0.05855962
v 0.02089016 0.02357487 0.05855962
v 0.02074125 0.02531433 0.05855962
v 0.02046427 0.02671701 0.05855962
v 0.02012821 0.02736283 0.05855962
v 0.02112062 0.01336013 0.05726029
v 0.02112062 0.02015700 0.05726608
v 0.02112062 0.02018476 0.04875192
v 0.02112062 0.01752745 0.04458558
v 0.02112062 0.01908372 0.04697380
v 0.02112062 0.02186316 0.05725643
v 0.02106715 0.02357487 0.05730084
v 0.02112062 0.02356192 0.05559028
v 0.02044689 0.02637652 0.05775068
v 0.02111794 0.02357487 0.05559028
v 0.02112062 0.02284392 0.05391834
v 0.02112062 0.02112111 0.05045862
v 0.02112062 0.02197789 0.05214214
v 0.02112062 0.02194458 0.05207650
f 6 7 2
f 2 5 6
f 7 3 2
f 2 3 1
f 32 22 28
f 6 5 12
f 13 10 5
f 22 15 16
f 28 22 16
f 5 10 11
f 11 12 5
f 18 9 17
f 8 16 15
f 28 16 27
f 15 24 25
f 23 15 22
f 23 24 15
f 22 32 23
f 17 29 20
f 20 18 17
f 13 18 20
f 21 16 14
f 21 27 16
f 33 23 32
f 24 23 33
f 37 25 36
f 37 35 25
f 39 35 37
f 15 25 26
f 25 35 26
f 26 35 29
f 17 15 26
f 26 29 17
f 29 35 38
f 24 33 34
f 36 25 34
f 34 25 24
f 34 33 32
f 34 37 36
f 31 20 29
f 31 30 20
f 10 13 19
f 13 20 19
f 20 30 19
f 40 35 39
f 40 38 35
f 4 9 18
f 1 4 18
f 18 2 1
f 5 2 18
f 18 13 5
f 8 9 4
f 17 9 8
f 8 15 17
f 8 4 1
f 1 3 8
f 8 3 7
f 7 14 8
f 14 16 8
f 40 32 28
f 40 7 6
f 40 11 10
f 40 14 7
f 6 12 40
f 40 31 29
f 40 21 14
f 12 11 40
f 28 27 40
f 27 21 40
f 29 38 40
f 40 34 32
f 39 37 40
f 10 19 40
f 37 34 40
f 30 31 40
f 40 19 30

