# https://github.com/mikedh/trimesh
v 0.00668240 -0.02089825 0.01112879
v 0.00668240 -0.02089825 0.02575790
v 0.00668240 -0.01581850 0.01112879
v 0.02215988 -0.02089825 0.01112879
v 0.00668397 -0.02089825 0.02580820
v 0.00668240 -0.01581850 0.02580820
v 0.02184275 -0.01581850 0.01112879
v 0.02212201 -0.02027267 0.01112879
v 0.02224665 -0.02089527 0.01136734
v 0.02224665 -0.02089825 0.01136734
v 0.02227347 -0.02089825 0.02580820
v 0.02157612 -0.01581850 0.02580820
v 0.02189009 -0.01581850 0.01126531
v 0.02259533 -0.02089527 0.01283025
v 0.02259533 -0.02089825 0.01283025
v 0.02262373 -0.02089825 0.02480227
v 0.02227347 -0.02089527 0.02580820
v 0.02188851 -0.01783797 0.02580820
v 0.02205732 -0.01796278 0.02569898
v 0.02197528 -0.01581850 0.02542738
v 0.02202419 -0.01581850 0.01199532
v 0.02276257 -0.02089825 0.01454033
v 0.02210466 -0.01581850 0.01267505
v 0.02210781 -0.01581850 0.01270522
v 0.02279885 -0.02089825 0.02309075
v 0.02262373 -0.02089527 0.02480227
v 0.02214568 -0.01955956 0.02580820
v 0.02212675 -0.01581850 0.02457665
v 0.02280043 -0.02089825 0.01625041
v 0.02210939 -0.01581850 0.01272822
v 0.02222299 -0.01581850 0.01454033
v 0.02222772 -0.01581850 0.02309075
v 0.02222772 -0.01581850 0.02138066
v 0.02222456 -0.01581850 0.01625041
f 5 6 2
f 32 25 29
f 12 19 20
f 22 15 14
f 22 31 29
f 8 9 4
f 7 9 8
f 14 9 13
f 13 9 7
f 21 14 13
f 4 9 10
f 18 19 12
f 18 27 19
f 25 26 16
f 28 20 26
f 25 32 28
f 28 26 25
f 17 20 19
f 19 27 17
f 26 20 17
f 33 32 29
f 24 22 14
f 29 31 34
f 34 33 29
f 31 22 30
f 22 24 30
f 23 14 21
f 23 24 14
f 2 6 3
f 2 3 1
f 8 4 1
f 1 3 8
f 3 7 8
f 14 15 10
f 10 9 14
f 1 4 16
f 16 2 1
f 29 25 16
f 16 11 5
f 5 2 16
f 4 10 16
f 16 22 29
f 15 22 16
f 16 10 15
f 5 11 17
f 17 6 5
f 12 6 17
f 17 18 12
f 27 18 17
f 11 16 17
f 17 16 26
f 23 6 12
f 3 6 23
f 23 7 3
f 32 33 23
f 12 20 23
f 21 13 23
f 23 28 32
f 23 13 7
f 20 28 23
f 31 30 23
f 23 34 31
f 33 34 23
f 23 30 24

