# https://github.com/mikedh/trimesh
v 0.01466224 0.03383963 0.03407360
v 0.01794079 0.03383963 0.03407360
v 0.01491930 0.03383963 0.03164469
v 0.01491930 0.03383874 0.03164398
v 0.01512212 0.03091783 0.03164398
v 0.01514844 0.02950764 0.03391949
v 0.01514459 0.02949252 0.03407360
v 0.01794046 0.03312253 0.03407360
v 0.01794046 0.03383963 0.03164398
v 0.01604028 0.03019850 0.03164398
v 0.01604028 0.02942712 0.03364243
v 0.01604028 0.02929500 0.03407360
v 0.01526814 0.02943824 0.03407360
v 0.01792987 0.03213050 0.03407360
v 0.01792217 0.03213050 0.03335490
v 0.01788783 0.03213050 0.03164398
v 0.01736505 0.03055616 0.03164398
v 0.01736505 0.03055572 0.03164469
v 0.01701845 0.02943824 0.03374374
v 0.01706146 0.02936929 0.03407360
v 0.01783456 0.03141251 0.03407360
v 0.01752776 0.03033907 0.03407360
v 0.01728995 0.02976610 0.03407360
f 3 4 1
f 3 9 4
f 1 6 7
f 1 4 5
f 5 6 1
f 12 6 11
f 13 6 12
f 13 7 6
f 12 11 19
f 10 19 11
f 6 5 10
f 10 11 6
f 12 19 20
f 18 10 17
f 19 10 18
f 18 20 19
f 23 20 18
f 17 16 18
f 8 9 2
f 8 14 9
f 22 16 21
f 23 18 22
f 22 18 16
f 15 14 21
f 21 16 15
f 15 16 9
f 9 14 15
f 1 2 3
f 2 9 3
f 17 10 16
f 4 9 16
f 16 5 4
f 16 10 5
f 1 7 22
f 22 2 1
f 12 20 22
f 22 13 12
f 22 8 2
f 7 13 22
f 21 14 22
f 22 20 23
f 14 8 22

