# https://github.com/mikedh/trimesh
v 0.00617929 -0.01124841 0.04335446
v 0.00630629 -0.01124841 0.04335446
v 0.00617929 -0.01124841 0.04463673
v 0.00617929 0.00494436 0.04335446
v 0.00638666 -0.01124841 0.04463673
v 0.00750988 -0.01079350 0.04335446
v 0.00750988 -0.01104235 0.04463673
v 0.00726890 -0.01111844 0.04463673
v 0.00617929 0.00494436 0.04463673
v 0.00750571 0.00494436 0.04335446
v 0.00750988 0.00361451 0.04335446
v 0.00750988 0.00494436 0.04463673
f 11 10 12
f 8 5 2
f 7 8 2
f 6 7 2
f 9 4 1
f 1 3 9
f 9 10 4
f 12 10 9
f 12 7 11
f 11 7 6
f 12 9 5
f 5 9 3
f 5 7 12
f 5 8 7
f 2 3 1
f 2 5 3
f 1 4 2
f 2 11 6
f 4 10 2
f 10 11 2

