# https://github.com/mikedh/trimesh
v 0.00748551 -0.01233435 0.04506878
v 0.01359878 -0.01178470 0.04538836
v 0.01262007 -0.01193523 0.04538836
v 0.00861466 -0.01233435 0.04538836
v 0.00748551 -0.01233435 0.04538836
v 0.00748551 -0.01104346 0.04463686
v 0.00748875 -0.01104346 0.04463686
v 0.01091017 -0.01102293 0.04463686
v 0.01225286 -0.01095679 0.04463686
v 0.01262007 -0.01092942 0.04463686
v 0.02126503 -0.00927589 0.04463686
v 0.01945968 -0.01055082 0.04538836
v 0.00748551 0.01096559 0.04538836
v 0.00748551 0.01096559 0.04463686
v 0.02235697 -0.00854150 0.04463686
v 0.02122135 -0.00970923 0.04538836
v 0.02027985 -0.01019503 0.04538836
v 0.02382584 0.01096559 0.04538836
v 0.02400702 0.01096559 0.04463686
v 0.02260286 -0.00806255 0.04463686
v 0.02237962 -0.00865782 0.04538836
v 0.02389378 0.01096559 0.04510924
v 0.02382584 0.00647255 0.04538836
v 0.02401187 0.00989365 0.04463686
v 0.02295875 -0.00720955 0.04463686
v 0.02295552 -0.00728026 0.04538836
v 0.02382422 0.00419866 0.04538836
v 0.02389378 0.00476200 0.04510835
v 0.02401187 0.00872363 0.04463686
v 0.02317391 -0.00651849 0.04463686
v 0.02297493 -0.00720955 0.04538836
v 0.02381937 -0.00036964 0.04538836
v 0.02400864 0.00530254 0.04463686
v 0.02352495 -0.00509760 0.04463686
v 0.02338259 -0.00555830 0.04538836
v 0.02381613 -0.00096947 0.04538836
v 0.02388893 -0.00036964 0.04510041
v 0.02400055 0.00016405 0.04463686
v 0.02381937 -0.00338021 0.04463686
v 0.02339230 -0.00549900 0.04538836
v 0.02399731 -0.00036964 0.04463686
v 0.02379672 -0.00207791 0.04538836
v 0.02397628 -0.00157387 0.04463686
v 0.02385981 -0.00312020 0.04463686
v 0.02380481 -0.00332775 0.04483998
v 0.02364627 -0.00386372 0.04538836
v 0.02386790 -0.00207791 0.04506333
v 0.02394716 -0.00207791 0.04463686
f 4 5 1
f 10 2 1
f 1 2 3
f 3 4 1
f 24 19 22
f 22 18 24
f 2 10 11
f 15 16 11
f 1 6 7
f 7 8 1
f 9 10 1
f 1 8 9
f 2 11 12
f 21 16 15
f 30 26 25
f 17 11 16
f 17 12 11
f 36 42 43
f 43 41 36
f 26 21 20
f 20 25 26
f 20 21 15
f 47 42 46
f 46 45 47
f 47 43 42
f 40 45 46
f 30 34 31
f 34 35 31
f 31 26 30
f 39 35 34
f 44 45 39
f 39 40 35
f 45 40 39
f 43 47 48
f 48 45 44
f 48 47 45
f 28 23 27
f 28 29 23
f 33 29 28
f 27 32 28
f 28 32 33
f 37 38 33
f 33 32 37
f 37 32 36
f 41 38 37
f 36 41 37
f 13 14 6
f 1 5 6
f 6 5 13
f 22 14 13
f 13 18 22
f 22 19 14
f 18 23 29
f 24 18 29
f 13 5 32
f 32 18 13
f 32 3 2
f 5 4 32
f 32 17 16
f 4 3 32
f 46 42 32
f 2 12 32
f 32 23 18
f 16 21 32
f 32 42 36
f 26 31 32
f 32 21 26
f 12 17 32
f 32 40 46
f 27 23 32
f 35 40 32
f 32 31 35
f 38 6 14
f 38 19 24
f 24 29 38
f 14 19 38
f 38 20 15
f 15 11 38
f 38 7 6
f 38 11 10
f 10 9 38
f 8 7 38
f 38 9 8
f 38 34 30
f 44 39 38
f 30 25 38
f 41 43 38
f 38 48 44
f 25 20 38
f 38 39 34
f 38 29 33
f 43 48 38

