# https://github.com/mikedh/trimesh
v 0.00396417 -0.03086137 0.03653489
v 0.00406652 -0.03085479 0.03653489
v 0.00396417 -0.03086137 0.03747841
v 0.00396417 -0.00031920 0.03653489
v 0.00499052 -0.03058162 0.03653489
v 0.00406652 -0.03085479 0.03747841
v 0.00396417 0.00275805 0.03747841
v 0.00396417 0.00163576 0.03653803
v 0.00406652 0.00163576 0.03653489
v 0.00514210 -0.03053554 0.03653489
v 0.00514210 -0.03053554 0.03747841
v 0.00617929 0.00275805 0.03747841
v 0.00617929 0.00163576 0.03653489
v 0.00617929 -0.02786639 0.03653489
v 0.00617929 -0.02786639 0.03677615
v 0.00617929 -0.02785981 0.03747841
f 7 9 8
f 4 8 9
f 15 16 11
f 10 11 5
f 2 5 6
f 6 5 11
f 13 7 12
f 13 9 7
f 4 3 7
f 1 3 4
f 7 8 4
f 12 16 14
f 14 13 12
f 14 16 15
f 15 11 14
f 14 11 10
f 9 13 5
f 5 2 1
f 1 4 5
f 5 4 9
f 13 14 5
f 5 14 10
f 7 3 6
f 12 7 6
f 6 16 12
f 6 11 16
f 6 3 1
f 1 2 6

