# https://github.com/mikedh/trimesh
v -0.01132833 0.02871162 0.09851127
v -0.01303840 0.02871162 0.09834827
v -0.01303840 0.02699911 0.09833399
v -0.01132833 0.02699911 0.09849462
v -0.00961826 0.02871162 0.09837564
v -0.00961826 0.03041955 0.09819003
v -0.01132833 0.03041955 0.09831020
v -0.01303840 0.03041955 0.09817337
v -0.01423407 0.02871162 0.09783546
v -0.01422926 0.02699911 0.09782832
v -0.01416539 0.03041955 0.09775455
v -0.01414754 0.02528888 0.09773314
v -0.01303840 0.02528888 0.09812816
v -0.01132833 0.02528888 0.09826736
v -0.00961826 0.02528888 0.09815433
v -0.00961826 0.02699911 0.09835898
v -0.00846516 0.02699911 0.09786997
v -0.00846310 0.02871162 0.09787710
v -0.00848989 0.03041955 0.09779858
v -0.00861076 0.03212978 0.09764985
v -0.00872545 0.03306034 0.09753206
v -0.00961826 0.03212978 0.09785926
v -0.01132833 0.03212978 0.09793422
v -0.01313523 0.03225324 0.09775455
v -0.01377050 0.03290486 0.09747257
v -0.01403353 0.03176395 0.09762486
v -0.01481645 0.02871162 0.09664327
v -0.01481233 0.02699911 0.09664327
v -0.01474778 0.03041955 0.09664327
v -0.01473061 0.02528888 0.09664327
v -0.01443323 0.03225324 0.09679914
v -0.01441813 0.02350092 0.09678367
v -0.01401499 0.02401993 0.09760583
v -0.01360498 0.02287902 0.09744639
v -0.01303633 0.02350092 0.09771172
v -0.01132833 0.02357866 0.09785688
v -0.00953379 0.02342547 0.09772957
v -0.00890813 0.02275099 0.09747852
v -0.00860595 0.02389190 0.09765342
v -0.00849882 0.02528888 0.09778192
v -0.00819732 0.02528888 0.09664327
v -0.00816367 0.02699911 0.09664327
v -0.00816161 0.02871162 0.09664327
v -0.00818771 0.03041955 0.09664327
v -0.00830927 0.03212978 0.09664327
v -0.00849882 0.03371425 0.09664684
v -0.00857093 0.03555022 0.09604718
v -0.00961826 0.03314494 0.09756894
v -0.00870760 0.03649450 0.09584134
v -0.00961826 0.03657224 0.09588774
v -0.01132833 0.03319524 0.09759274
v -0.01262976 0.03312893 0.09756418
v -0.01313523 0.03375540 0.09717869
v -0.01380690 0.03636875 0.09576757
v -0.01413105 0.03522784 0.09604480
v -0.01435082 0.03384000 0.09638865
v -0.01503966 0.03212978 0.09493351
v -0.01504996 0.03041955 0.09493351
v -0.01505270 0.02528888 0.09493351
v -0.01503691 0.02357866 0.09493351
v -0.01492840 0.03384000 0.09493351
v -0.01489887 0.02186844 0.09493351
v -0.01431992 0.02186844 0.09633987
v -0.01409878 0.02072752 0.09600553
v -0.01303633 0.02199419 0.09711563
v -0.01246494 0.02264810 0.09753325
v -0.01132833 0.02262752 0.09754277
v -0.01004818 0.02267096 0.09752254
v -0.00953379 0.02200791 0.09716322
v -0.00961826 0.02043487 0.09623993
v -0.00856200 0.02066122 0.09605313
v -0.00846173 0.02186844 0.09639936
v -0.00816024 0.02186844 0.09493351
v -0.00812933 0.03897067 0.08635617
v -0.00815955 0.03384000 0.09493351
v -0.00826875 0.03555022 0.09493351
v -0.00849332 0.03714384 0.09491448
v -0.00856955 0.03850424 0.09433147
v -0.01132833 0.03405035 0.09720843
v -0.01132833 0.03555022 0.09647313
v -0.00961826 0.03874889 0.09449923
v -0.00961826 0.03742735 0.09535471
v -0.01132833 0.03746165 0.09539397
v -0.01132833 0.03660654 0.09590797
v -0.01266616 0.03653795 0.09586871
v -0.01315721 0.03569884 0.09621613
v -0.01303840 0.03868716 0.09443379
v -0.01303840 0.03954227 0.09383532
v -0.01404315 0.03840365 0.09424580
v -0.01427116 0.03726045 0.09461464
v -0.01447993 0.03569884 0.09509176
v -0.01514336 0.03555022 0.08635617
v -0.01501081 0.03555022 0.09322257
v -0.01514473 0.01844799 0.08635617
v -0.01514473 0.01800214 0.08635617
v -0.01502867 0.02186844 0.09322257
v -0.01480753 0.03726045 0.09322257
v -0.01496136 0.01800214 0.08980305
v -0.01477937 0.01800214 0.09106901
v -0.01469283 0.01800214 0.09151281
v -0.01434258 0.01800214 0.09265265
v -0.01433777 0.02015821 0.09490615
v -0.01418874 0.01800214 0.09311429
v -0.01303840 0.01962777 0.09540587
v -0.01303840 0.02048288 0.09620423
v -0.01132833 0.02177241 0.09715013
v -0.01132833 0.02038457 0.09629466
v -0.00961826 0.01957975 0.09547607
v -0.00857986 0.01905617 0.09441238
v -0.00847753 0.01800214 0.09316189
v -0.00841160 0.02011706 0.09496326
v -0.00821724 0.01800214 0.09151281
v -0.00817328 0.02015821 0.09322257
v -0.00815955 0.01800214 0.08980305
v -0.00844250 0.04044997 0.08635617
v -0.00816024 0.03897067 0.09151281
v -0.00815955 0.01800214 0.08635617
v -0.00816504 0.03726045 0.09322257
v -0.00840541 0.03903240 0.09328801
v -0.00856200 0.04007729 0.09276092
v -0.00961826 0.03960629 0.09387101
v -0.01132833 0.03881519 0.09453968
v -0.01132833 0.03967031 0.09394002
v -0.01303840 0.04023276 0.09297984
v -0.01406100 0.04003842 0.09269905
v -0.01428764 0.03897296 0.09325112
v -0.01504927 0.03726045 0.08635617
v -0.01494213 0.03726045 0.09151281
v -0.01498540 0.01800214 0.08935806
v -0.01463377 0.03897067 0.09151281
v -0.01303840 0.01800214 0.09353430
v -0.01132833 0.01952945 0.09551771
v -0.00961826 0.01800214 0.09359855
v -0.00882503 0.01800214 0.09329990
v -0.00959491 0.04120448 0.08635617
v -0.00846104 0.04034022 0.08980305
v -0.00846173 0.04026020 0.09151281
v -0.00961826 0.04082493 0.09151281
v -0.00961826 0.04025334 0.09301554
v -0.01132833 0.04031050 0.09308574
v -0.01132833 0.04096441 0.09151281
v -0.01303840 0.04073805 0.09151281
v -0.01414135 0.04016645 0.09151281
v -0.01473610 0.03894552 0.08635617
v -0.01420935 0.04028535 0.08635617
v -0.01473129 0.03897067 0.08635617
v -0.01132833 0.01800214 0.09369373
v -0.00961826 0.04121591 0.08635617
v -0.00961826 0.04101699 0.08980305
v -0.01132833 0.04117933 0.08980305
v -0.01303840 0.04087981 0.08980305
v -0.01419973 0.04030593 0.08638115
v -0.01420042 0.04030593 0.08635617
v -0.01303840 0.04107187 0.08635617
v -0.01132833 0.04135995 0.08635617
v -0.01301367 0.04107644 0.08635617
f 127 92 93
f 131 147 132
f 114 117 74
f 74 73 114
f 1 5 6
f 1 6 7
f 128 93 97
f 127 93 128
f 59 92 94
f 94 95 59
f 154 153 152
f 103 64 102
f 17 42 18
f 18 5 17
f 41 73 42
f 42 17 41
f 4 14 15
f 74 115 116
f 115 137 116
f 116 75 74
f 118 75 116
f 116 137 120
f 74 75 43
f 43 73 74
f 42 73 43
f 18 42 43
f 76 75 118
f 22 7 6
f 130 128 97
f 127 128 130
f 57 93 92
f 60 59 95
f 28 60 30
f 59 60 28
f 30 10 28
f 10 9 28
f 143 154 152
f 143 130 125
f 152 153 143
f 154 143 151
f 12 10 30
f 32 12 30
f 33 12 32
f 63 64 34
f 34 33 63
f 33 32 63
f 35 36 14
f 104 64 103
f 104 105 64
f 103 131 104
f 104 131 132
f 132 105 104
f 103 102 101
f 132 147 133
f 15 39 16
f 16 17 5
f 16 4 15
f 40 41 17
f 40 16 39
f 17 16 40
f 14 4 13
f 13 35 14
f 13 12 33
f 13 33 34
f 34 35 13
f 15 14 37
f 14 36 37
f 119 116 120
f 118 116 119
f 119 76 118
f 136 137 115
f 150 148 155
f 44 43 75
f 75 76 44
f 18 43 44
f 1 7 8
f 7 22 23
f 23 8 7
f 23 22 48
f 48 51 23
f 97 91 90
f 52 23 51
f 29 9 11
f 11 8 26
f 26 56 31
f 31 11 26
f 29 11 31
f 25 56 26
f 26 8 25
f 92 59 58
f 58 57 92
f 61 57 29
f 29 31 61
f 61 31 56
f 61 56 91
f 61 91 97
f 97 93 61
f 93 57 61
f 96 60 95
f 62 101 102
f 62 96 98
f 60 96 62
f 62 102 64
f 64 63 62
f 62 63 32
f 30 60 62
f 62 32 30
f 142 143 125
f 142 151 143
f 141 150 142
f 142 150 151
f 122 82 81
f 81 123 122
f 124 142 125
f 141 142 124
f 66 35 34
f 36 35 66
f 113 112 114
f 113 114 73
f 73 112 113
f 132 133 108
f 111 71 110
f 110 112 111
f 111 112 73
f 73 41 72
f 72 111 73
f 71 111 72
f 39 71 72
f 72 40 39
f 41 40 72
f 3 4 1
f 3 13 4
f 10 12 3
f 12 13 3
f 107 105 132
f 107 106 105
f 132 108 107
f 68 37 36
f 135 136 115
f 137 136 135
f 138 150 141
f 120 137 138
f 138 139 120
f 141 139 138
f 156 150 155
f 154 151 156
f 151 150 156
f 78 119 120
f 45 44 76
f 18 44 19
f 19 5 18
f 19 45 20
f 44 45 19
f 19 6 5
f 19 20 6
f 127 130 144
f 130 146 144
f 145 146 130
f 145 143 153
f 130 143 145
f 97 90 126
f 126 130 97
f 125 130 126
f 55 25 54
f 56 25 55
f 91 56 55
f 55 90 91
f 8 23 24
f 23 52 24
f 24 25 8
f 52 25 24
f 79 52 51
f 79 51 48
f 57 58 27
f 29 57 27
f 59 28 27
f 27 58 59
f 27 9 29
f 27 28 9
f 129 96 95
f 98 96 129
f 101 62 100
f 121 139 123
f 123 81 121
f 81 78 121
f 120 139 121
f 121 78 120
f 140 139 141
f 141 124 140
f 123 139 140
f 140 124 123
f 85 87 54
f 54 86 85
f 122 87 85
f 85 86 52
f 123 124 88
f 122 123 88
f 88 87 122
f 88 124 125
f 54 87 88
f 105 106 65
f 106 66 65
f 65 66 34
f 34 64 65
f 64 105 65
f 110 108 134
f 134 108 133
f 110 71 109
f 109 108 110
f 71 108 109
f 1 8 2
f 2 3 1
f 2 11 9
f 8 11 2
f 2 9 10
f 10 3 2
f 36 66 67
f 67 68 36
f 67 66 106
f 106 68 67
f 37 68 38
f 38 71 39
f 38 39 15
f 15 37 38
f 148 150 149
f 150 138 149
f 149 138 137
f 149 135 148
f 137 135 149
f 76 119 77
f 119 78 77
f 82 50 49
f 49 81 82
f 49 78 81
f 53 25 52
f 52 86 53
f 54 25 53
f 53 86 54
f 99 62 98
f 99 100 62
f 122 85 83
f 83 85 84
f 84 50 83
f 83 82 122
f 83 50 82
f 84 85 80
f 80 50 84
f 52 79 80
f 80 85 52
f 48 50 80
f 80 79 48
f 89 88 125
f 54 88 89
f 125 126 89
f 89 126 90
f 89 55 54
f 90 55 89
f 71 38 70
f 70 108 71
f 70 107 108
f 106 107 70
f 69 68 106
f 69 38 68
f 106 70 69
f 69 70 38
f 46 45 76
f 20 45 46
f 48 22 21
f 21 50 48
f 21 49 50
f 21 22 6
f 6 20 21
f 47 77 78
f 78 49 47
f 76 77 47
f 47 46 76
f 49 21 47
f 20 46 47
f 47 21 20
f 1 4 16
f 16 5 1
f 145 95 94
f 94 92 145
f 74 117 145
f 145 115 74
f 145 92 127
f 117 95 145
f 145 135 115
f 155 148 145
f 153 154 145
f 145 156 155
f 127 144 145
f 148 135 145
f 154 156 145
f 145 144 146
f 99 95 117
f 99 131 103
f 114 112 99
f 99 133 147
f 147 131 99
f 117 114 99
f 103 101 99
f 99 129 95
f 99 112 110
f 110 134 99
f 98 129 99
f 101 100 99
f 99 134 133

