# https://github.com/mikedh/trimesh
v -0.01052826 -0.02773344 0.00950430
v -0.01052826 -0.02733663 0.00628992
v -0.01001627 -0.02733663 0.00638918
v -0.00999102 -0.02733663 0.00773041
v -0.01052826 -0.02709236 0.01454430
v -0.01052826 -0.02619965 0.00587763
v -0.00964092 -0.02619965 0.00601675
v -0.00954388 -0.02619965 0.00790856
v -0.00994091 -0.02619980 0.01454430
v -0.01052826 -0.02619980 0.01454430
v -0.01052826 -0.02619965 0.00950430
v -0.00991306 -0.02619965 0.00950430
f 2 3 1
f 8 3 7
f 7 2 6
f 3 2 7
f 4 5 1
f 1 3 4
f 4 3 8
f 9 4 8
f 5 4 9
f 9 10 5
f 8 12 9
f 1 5 2
f 2 11 6
f 5 10 2
f 10 11 2
f 6 11 12
f 8 7 12
f 12 7 6
f 9 11 10
f 9 12 11

