# https://github.com/mikedh/trimesh
v 0.02288812 0.01096559 0.04918671
v 0.02090040 0.01096559 0.05856155
v 0.02289223 0.00774520 0.04918671
v -0.01905933 0.01096559 0.04918671
v 0.02090040 -0.01233435 0.05856155
v 0.02289634 -0.00207791 0.04918671
v -0.01813118 0.01096559 0.05856155
v -0.01905933 -0.01233435 0.04918671
v -0.01902237 0.01096559 0.04958314
v 0.02199694 -0.01233435 0.05284634
v 0.02285116 -0.00593691 0.04918671
v 0.02288402 -0.00422636 0.04918671
v 0.02288812 -0.00378846 0.04918671
v -0.01813118 -0.01233435 0.05856155
v -0.01850080 0.01096559 0.05495238
v -0.01843509 -0.01233435 0.05560025
v -0.01902237 -0.01233435 0.04958314
v 0.02225567 -0.01233435 0.04918671
v -0.01877185 -0.01233435 0.05218012
v -0.01866918 0.01096559 0.05324277
v 0.02213246 -0.01233435 0.05199108
v 0.02274849 -0.00764745 0.04918671
v -0.01860758 0.01096559 0.05388055
v -0.01860758 -0.01233435 0.05388055
v 0.02257190 -0.00935800 0.04918671
v 0.02226388 -0.01233435 0.05045216
v 0.02226388 -0.01233435 0.05046042
f 2 5 6
f 3 2 6
f 1 2 3
f 14 7 16
f 27 22 21
f 5 10 11
f 11 10 21
f 21 22 11
f 24 23 19
f 17 19 9
f 24 16 15
f 15 23 24
f 15 16 7
f 22 27 25
f 5 11 12
f 20 19 23
f 20 9 19
f 18 25 26
f 26 25 27
f 6 5 13
f 5 12 13
f 7 14 5
f 5 2 7
f 4 8 9
f 8 17 9
f 20 1 4
f 20 2 1
f 20 7 2
f 4 9 20
f 20 15 7
f 23 15 20
f 8 18 26
f 5 14 26
f 26 10 5
f 14 16 26
f 26 17 8
f 21 10 26
f 24 19 26
f 26 16 24
f 26 27 21
f 26 19 17
f 13 3 6
f 4 1 13
f 13 8 4
f 13 18 8
f 1 3 13
f 13 25 18
f 13 11 22
f 22 25 13
f 13 12 11

