# https://github.com/mikedh/trimesh
v 0.01104480 -0.02773731 0.08342953
v 0.01105971 -0.02773731 0.08638172
v 0.01105971 -0.02602697 0.08809141
v 0.01104480 -0.02726752 0.08342953
v 0.01107921 -0.02897922 0.08342953
v 0.01111248 -0.02773731 0.08809141
v 0.01110101 -0.02944766 0.08342953
v 0.01113772 -0.02944766 0.08467060
v 0.01138551 -0.02431526 0.08980181
v 0.01105971 -0.01700817 0.08809141
v 0.01105971 -0.01700817 0.08342953
v 0.01146466 -0.02773731 0.08941917
v 0.01146581 -0.02593710 0.08989998
v 0.01125932 -0.02944766 0.08638172
v 0.01150366 -0.02939047 0.08794810
v 0.01160003 -0.02878177 0.08912825
v 0.01146466 -0.03058063 0.08342953
v 0.01148990 -0.03056156 0.08467060
v 0.01173654 -0.02530797 0.09067743
v 0.01173883 -0.02431526 0.09067600
v 0.01141189 -0.01700817 0.08946575
v 0.01115607 -0.01700817 0.08847333
v 0.02237311 -0.01700817 0.08342953
v 0.01161150 -0.03043901 0.08638172
v 0.01172966 -0.03033007 0.08728314
v 0.01261986 -0.02889752 0.08923860
v 0.01261986 -0.02773731 0.08996088
v 0.01261986 -0.03088702 0.08342953
v 0.01261986 -0.03084889 0.08467060
v 0.01261986 -0.02431526 0.09070896
v 0.01261986 -0.02629387 0.09052481
v 0.01261986 -0.02543870 0.09069607
v 0.01175719 -0.02342332 0.09066239
v 0.01174113 -0.01700817 0.08964560
v 0.02257616 -0.01700817 0.08467060
v 0.02237311 -0.02431526 0.08342953
v 0.01261986 -0.03060378 0.08638172
v 0.01261986 -0.03035594 0.08732971
v 0.01261986 -0.02975269 0.08818456
v 0.01433029 -0.02977993 0.08821250
v 0.01433029 -0.02892475 0.08926368
v 0.01433029 -0.02773731 0.09004400
v 0.01433029 -0.02638647 0.09058213
v 0.01308791 -0.03089519 0.08342953
v 0.01433029 -0.03088021 0.08467060
v 0.01433029 -0.03063782 0.08638172
v 0.01433029 -0.02431526 0.09072329
v 0.01261986 -0.02336341 0.09067027
v 0.01775001 -0.02569471 0.09073476
v 0.01433029 -0.01700817 0.09019806
v 0.01308561 -0.01700817 0.09012354
v 0.01261986 -0.01700817 0.09009488
v 0.02266219 -0.01700817 0.08638172
v 0.02275511 -0.02431526 0.08638172
v 0.02276200 -0.02602697 0.08638172
v 0.02257616 -0.02089594 0.08467060
v 0.02257501 -0.02431526 0.08467060
v 0.02236967 -0.02602697 0.08342953
v 0.01433029 -0.03037228 0.08735766
v 0.01604072 -0.02979354 0.08821895
v 0.01604072 -0.02893701 0.08927443
v 0.01604072 -0.02773731 0.09006765
v 0.01775001 -0.02654988 0.09060291
v 0.01604072 -0.02646817 0.09059503
v 0.01433029 -0.03091561 0.08342953
v 0.01604072 -0.03065144 0.08638172
v 0.01604072 -0.03089110 0.08467060
v 0.01775001 -0.02431526 0.09074909
v 0.01433029 -0.02333890 0.09067385
v 0.01946044 -0.02551632 0.09071541
v 0.01479604 -0.01700817 0.09019448
v 0.02231919 -0.01700817 0.08781840
v 0.02252797 -0.02431526 0.08809141
v 0.02258533 -0.02602697 0.08809141
v 0.02228133 -0.02732743 0.08809141
v 0.02238458 -0.02761340 0.08638172
v 0.02229051 -0.02758616 0.08467060
v 0.02219644 -0.02742003 0.08342953
v 0.02256583 -0.02602697 0.08467060
v 0.01604072 -0.03037501 0.08736411
v 0.01775001 -0.02979899 0.08819459
v 0.01775001 -0.02894382 0.08928088
v 0.01775001 -0.02773731 0.09008270
v 0.01946044 -0.02637149 0.09054416
v 0.01479949 -0.03091834 0.08342953
v 0.01775001 -0.03060242 0.08638172
v 0.01775001 -0.03036002 0.08733903
v 0.01604072 -0.03091970 0.08342953
v 0.01775001 -0.03080531 0.08467060
v 0.01865742 -0.02341107 0.09066525
v 0.01775001 -0.01700817 0.09016295
v 0.01650647 -0.01700817 0.09017800
v 0.01932049 -0.02442012 0.09070896
v 0.02035638 -0.02526303 0.09067743
v 0.02035638 -0.02506014 0.09067743
v 0.02180870 -0.01700817 0.08867324
v 0.02214367 -0.02431526 0.08910532
v 0.02218268 -0.02602697 0.08915477
v 0.02210352 -0.02700470 0.08904227
v 0.02164006 -0.02818260 0.08809141
v 0.02193718 -0.02846857 0.08638172
v 0.02195554 -0.02844133 0.08467060
v 0.02192342 -0.02827657 0.08342953
v 0.02201519 -0.02804098 0.08342953
v 0.01946044 -0.02884033 0.08918701
v 0.01869184 -0.03033007 0.08728744
v 0.01946044 -0.02773731 0.08992936
v 0.02108139 -0.02763927 0.08933462
v 0.01893389 -0.03042539 0.08638172
v 0.01650992 -0.03089519 0.08342953
v 0.01775001 -0.03081757 0.08342953
v 0.01913235 -0.03050845 0.08467060
v 0.01821576 -0.01700817 0.09011351
v 0.02102518 -0.02590986 0.09006980
v 0.02118693 -0.01700817 0.08918630
v 0.02095406 -0.01700817 0.08937403
v 0.01946044 -0.01700817 0.08997665
v 0.02045160 -0.02868917 0.08904299
v 0.02078542 -0.02896560 0.08809141
v 0.02108254 -0.02924340 0.08638172
v 0.02109975 -0.02929515 0.08467060
v 0.02106763 -0.02929515 0.08342953
v 0.01934113 -0.02971592 0.08795096
v 0.01978853 -0.03009857 0.08638172
v 0.01812858 -0.03073586 0.08342953
v 0.01913235 -0.03050845 0.08342953
v 0.01998814 -0.03015032 0.08467060
v 0.01998814 -0.03015032 0.08342953
v 0.02029214 -0.02991610 0.08342953
f 10 11 4
f 21 9 20
f 35 53 54
f 35 54 55
f 3 9 10
f 3 6 9
f 2 6 3
f 1 2 3
f 9 6 13
f 36 57 58
f 79 57 55
f 58 57 79
f 122 103 102
f 102 121 122
f 73 53 72
f 73 98 74
f 55 54 74
f 74 53 73
f 54 53 74
f 10 9 22
f 9 21 22
f 68 50 69
f 69 48 68
f 50 48 69
f 18 17 28
f 17 18 7
f 24 18 29
f 29 18 28
f 29 25 24
f 42 64 43
f 49 43 64
f 114 94 108
f 98 94 114
f 95 94 98
f 116 117 95
f 27 26 42
f 42 43 27
f 27 43 31
f 16 25 26
f 26 27 16
f 57 36 56
f 55 57 56
f 56 35 55
f 58 79 78
f 78 79 55
f 99 74 98
f 99 114 108
f 98 114 99
f 121 127 128
f 33 21 20
f 20 30 33
f 33 30 48
f 33 48 50
f 68 91 92
f 5 2 1
f 5 7 2
f 8 6 2
f 2 7 8
f 8 7 18
f 37 29 46
f 25 29 37
f 47 49 68
f 68 48 47
f 48 30 47
f 43 49 32
f 32 47 30
f 49 47 32
f 31 43 32
f 113 95 117
f 91 95 113
f 90 91 68
f 63 64 42
f 63 49 64
f 26 25 39
f 39 40 26
f 15 16 6
f 25 16 15
f 24 25 15
f 12 13 6
f 6 16 12
f 77 78 55
f 77 102 103
f 76 77 55
f 102 77 76
f 122 121 129
f 121 128 129
f 72 96 97
f 97 98 73
f 73 72 97
f 97 95 98
f 97 96 95
f 116 95 115
f 95 96 115
f 21 33 34
f 34 33 52
f 51 33 50
f 52 33 51
f 71 50 68
f 68 92 71
f 45 29 28
f 46 29 45
f 86 106 87
f 86 109 106
f 31 32 19
f 19 30 20
f 19 32 30
f 13 12 19
f 19 12 16
f 20 9 19
f 9 13 19
f 19 27 31
f 19 16 27
f 93 95 91
f 91 90 93
f 93 90 68
f 62 63 42
f 83 63 62
f 62 61 83
f 49 63 70
f 68 49 70
f 70 93 68
f 94 95 70
f 95 93 70
f 108 94 84
f 84 107 108
f 94 70 84
f 84 70 63
f 84 83 107
f 84 63 83
f 60 61 40
f 40 59 60
f 107 83 82
f 83 61 82
f 61 60 82
f 120 127 121
f 80 60 59
f 38 39 25
f 25 37 38
f 38 59 40
f 40 39 38
f 38 37 46
f 46 59 38
f 6 8 14
f 14 15 6
f 24 15 14
f 14 18 24
f 14 8 18
f 104 77 103
f 78 77 104
f 74 99 75
f 55 74 75
f 75 76 55
f 125 126 112
f 112 111 125
f 67 45 65
f 67 86 66
f 46 45 66
f 66 45 67
f 66 59 46
f 66 80 59
f 66 86 87
f 87 80 66
f 109 86 89
f 89 111 112
f 112 109 89
f 89 86 67
f 89 110 111
f 88 110 89
f 67 88 89
f 41 62 42
f 61 62 41
f 42 26 41
f 26 40 41
f 40 61 41
f 108 107 118
f 106 119 118
f 118 99 108
f 87 106 81
f 81 82 60
f 81 80 87
f 60 80 81
f 127 120 124
f 112 127 124
f 124 109 112
f 106 109 124
f 124 119 106
f 124 120 119
f 76 75 101
f 102 76 101
f 119 120 101
f 121 102 101
f 101 120 121
f 44 45 28
f 44 65 45
f 85 88 67
f 67 65 85
f 106 118 123
f 82 81 105
f 107 82 105
f 105 118 107
f 105 123 118
f 105 81 106
f 106 123 105
f 119 101 100
f 100 101 75
f 100 75 99
f 99 118 100
f 100 118 119
f 3 4 1
f 10 4 3
f 23 35 56
f 56 36 23
f 126 127 112
f 126 128 127
f 23 11 71
f 71 11 10
f 71 117 116
f 21 34 71
f 71 35 23
f 71 113 117
f 10 22 71
f 53 35 71
f 71 72 53
f 116 115 71
f 71 22 21
f 71 51 50
f 71 96 72
f 71 92 91
f 91 113 71
f 71 115 96
f 71 34 52
f 52 51 71
f 58 78 85
f 1 4 85
f 85 11 23
f 85 103 122
f 85 4 11
f 23 36 85
f 85 5 1
f 28 17 85
f 85 36 58
f 85 104 103
f 17 7 85
f 111 110 85
f 122 129 85
f 7 5 85
f 85 129 128
f 128 126 85
f 85 125 111
f 78 104 85
f 126 125 85
f 85 110 88
f 85 44 28
f 65 44 85

