# https://github.com/mikedh/trimesh
v 0.00918238 -0.00674341 0.05940151
v 0.00918238 -0.00674341 0.05995877
v 0.00918238 -0.00129957 0.05940151
v 0.01798638 -0.00674341 0.05940151
v 0.01796138 -0.00674341 0.05995877
v 0.00918238 -0.00129957 0.05995877
v 0.01798638 -0.00129957 0.05940151
v 0.00918238 0.03382134 0.05940156
v 0.01798638 -0.00674341 0.05941285
v 0.01798638 -0.00673943 0.05995877
v 0.01798638 -0.00129957 0.05995877
v 0.00918238 0.03382134 0.05995871
v 0.01793897 0.03382134 0.05940156
v 0.01798638 0.03356324 0.05940156
v 0.01798638 0.03363869 0.05995871
v 0.01795276 0.03382134 0.05995871
f 13 14 7
f 15 13 16
f 15 14 13
f 10 5 9
f 11 15 16
f 12 13 8
f 16 13 12
f 1 3 7
f 7 4 1
f 7 3 8
f 8 13 7
f 6 3 1
f 1 2 6
f 8 3 6
f 6 12 8
f 9 2 1
f 1 4 9
f 9 5 2
f 2 5 11
f 11 6 2
f 11 5 10
f 16 12 11
f 12 6 11
f 4 7 11
f 11 9 4
f 11 7 14
f 14 15 11
f 10 9 11

