# https://github.com/mikedh/trimesh
v 0.00919655 -0.01866100 0.03202089
v 0.00919655 -0.01108691 0.03202089
v 0.01266197 -0.01866100 0.03202089
v 0.00919655 -0.01866100 0.04186249
v 0.01277911 -0.01108691 0.03202089
v 0.00919655 -0.01108691 0.04228088
v 0.01277911 -0.01770896 0.03202089
v 0.01268898 -0.01866100 0.03335569
v 0.01102659 -0.01866100 0.04150762
v 0.01277911 -0.01576335 0.04161449
v 0.01263286 -0.01108691 0.04228995
v 0.01261883 -0.01108691 0.04229197
v 0.01085018 -0.01108691 0.04231818
v 0.00919831 -0.01108691 0.04231919
v 0.00919655 -0.01108839 0.04231818
v 0.01277911 -0.01108691 0.04226172
v 0.01277911 -0.01772749 0.03335569
v 0.01268898 -0.01866100 0.03848619
v 0.01247574 -0.01866100 0.04014057
v 0.01277911 -0.01701346 0.04122937
v 0.01277911 -0.01772749 0.03848619
v 0.01277911 -0.01768226 0.04015266
v 0.01277911 -0.01763555 0.04034018
v 0.01249994 -0.01866100 0.03995305
f 6 15 14
f 14 15 4
f 14 4 13
f 4 12 13
f 9 10 4
f 11 10 16
f 11 12 4
f 4 10 11
f 3 7 8
f 20 9 19
f 10 9 20
f 19 23 20
f 22 18 21
f 22 23 18
f 24 23 19
f 18 23 24
f 17 8 7
f 4 2 1
f 4 6 2
f 15 6 4
f 7 2 5
f 1 2 7
f 7 3 1
f 5 2 11
f 11 16 5
f 2 6 11
f 11 6 14
f 14 13 11
f 11 13 12
f 1 3 24
f 24 4 1
f 3 8 24
f 19 9 24
f 24 9 4
f 24 8 18
f 5 16 17
f 16 10 17
f 17 7 5
f 17 22 21
f 10 20 17
f 17 20 23
f 23 22 17
f 18 8 17
f 21 18 17

