# https://github.com/mikedh/trimesh
v 0.01893341 -0.00989197 0.02838049
v 0.01889971 -0.00989197 0.02839589
v 0.01615596 -0.01081916 0.02923533
v 0.01697885 -0.01081916 0.02838049
v 0.01092785 -0.00989197 0.02838049
v 0.01606348 -0.01062910 0.02923533
v 0.01494748 -0.00989197 0.02923533
v 0.01092785 -0.01081916 0.02923533
v 0.01092785 -0.01081916 0.02838049
v 0.01092785 -0.00989197 0.02923491
v 0.01105168 -0.00989197 0.02923533
v 0.01092785 -0.00989270 0.02923533
f 2 3 1
f 1 3 4
f 2 7 6
f 3 2 6
f 11 10 12
f 10 2 1
f 10 1 5
f 10 7 2
f 11 7 10
f 5 1 9
f 1 4 9
f 3 8 9
f 9 4 3
f 12 7 11
f 12 8 3
f 3 6 12
f 12 6 7
f 12 10 5
f 5 9 12
f 12 9 8

