# https://github.com/mikedh/trimesh
v 0.00884047 0.01786136 0.02651339
v 0.00885156 0.01502502 0.02972141
v 0.00884047 0.01786136 0.02580820
v 0.00877142 0.01786136 0.02707455
v 0.00882814 0.01522887 0.02972141
v 0.00885526 0.01331526 0.02972141
v 0.00884047 0.01572972 0.02580820
v -0.00374078 0.01786136 0.02580820
v 0.00860620 0.01786136 0.02800880
v 0.00859880 0.01631359 0.02972141
v 0.00877265 0.01181744 0.02972141
v 0.00884047 0.01331526 0.02822331
v 0.00882197 0.01331526 0.02651339
v 0.00882074 0.01401995 0.02580820
v -0.00374078 0.01673547 0.02580820
v -0.00374078 0.01786136 0.02651339
v 0.00755817 0.01786136 0.02868182
v 0.00762722 0.01682727 0.02972141
v 0.00875786 0.01160481 0.02972141
v 0.00872333 0.01160481 0.02822331
v 0.00856675 0.01157241 0.02654480
v 0.00858401 0.01221028 0.02580820
v 0.00873936 0.01326733 0.02580820
v -0.00374078 0.01502502 0.02651339
v -0.00373092 0.01502502 0.02580820
v -0.00374078 0.01331526 0.02972141
v -0.00373462 0.01481240 0.02972141
v -0.00373339 0.01502502 0.02972141
v -0.00368777 0.01786136 0.02770352
v 0.00670742 0.01786136 0.02872548
v 0.00577653 0.01709119 0.02972141
v 0.00606135 0.01707297 0.02972141
v 0.00748666 0.01689747 0.02972141
v 0.00863209 0.01104524 0.02972141
v 0.00860127 0.01096559 0.02919663
v 0.00857291 0.01096559 0.02822331
v 0.00846318 0.01096559 0.02693474
v 0.00852236 0.01186469 0.02580820
v -0.00374078 0.01331526 0.02822331
v -0.00372229 0.01331526 0.02651339
v -0.00369640 0.01338275 0.02580820
v -0.00368530 0.01188899 0.02972141
v -0.00368037 0.01605035 0.02972141
v -0.00309347 0.01786136 0.02828996
v 0.00577653 0.01786136 0.02874962
v 0.00437341 0.01709592 0.02972141
v 0.00861360 0.01096559 0.02972141
v 0.00816233 0.01096559 0.02604684
v 0.00815123 0.01098044 0.02599551
v 0.00808095 0.01105739 0.02580820
v -0.00368530 0.01200981 0.02822331
v -0.00366064 0.01262473 0.02580820
v -0.00364831 0.01238713 0.02580820
v -0.00366681 0.01225821 0.02651339
v -0.00361132 0.01113974 0.02972141
v -0.00354104 0.01613742 0.02972141
v -0.00277537 0.01661397 0.02972141
v -0.00279140 0.01786136 0.02844816
v 0.00406640 0.01786136 0.02875153
v 0.00064613 0.01709592 0.02972141
v -0.00354351 0.01096559 0.02972141
v 0.00813767 0.01096559 0.02600739
v 0.00791944 0.01096559 0.02580820
v -0.00357557 0.01219476 0.02580820
v -0.00355954 0.01115459 0.02822331
v -0.00359529 0.01103376 0.02972141
v -0.00106400 0.01707027 0.02972141
v -0.00140060 0.01786136 0.02870710
v 0.00064613 0.01786136 0.02875153
v 0.00024665 0.01786136 0.02875115
v -0.00106400 0.01786136 0.02874962
v -0.00357803 0.01101014 0.02972141
v -0.00341281 0.01096559 0.02822331
v -0.00267796 0.01096559 0.02580820
v -0.00310827 0.01153394 0.02580820
v -0.00334377 0.01140299 0.02651339
v -0.00300100 0.01096559 0.02651339
v -0.00273098 0.01096559 0.02591814
f 34 47 35
f 18 17 33
f 10 17 18
f 9 17 10
f 43 29 28
f 19 34 20
f 20 34 35
f 20 13 19
f 6 7 3
f 3 2 6
f 1 2 3
f 19 13 11
f 14 13 23
f 7 13 14
f 53 64 65
f 5 9 10
f 5 2 1
f 33 17 32
f 17 31 32
f 60 71 67
f 16 28 29
f 67 58 57
f 44 29 43
f 44 57 58
f 67 71 68
f 68 58 67
f 13 20 21
f 37 38 21
f 21 20 37
f 36 20 35
f 37 20 36
f 40 24 25
f 6 11 12
f 12 11 13
f 12 7 6
f 12 13 7
f 66 65 72
f 72 65 61
f 61 65 73
f 76 64 75
f 76 65 64
f 76 73 65
f 53 65 54
f 54 40 53
f 51 40 54
f 54 65 66
f 4 5 1
f 9 5 4
f 30 31 17
f 30 45 31
f 31 45 46
f 45 59 46
f 27 16 26
f 28 16 27
f 56 44 43
f 57 44 56
f 48 38 37
f 48 49 38
f 50 49 63
f 38 49 50
f 22 21 38
f 23 13 22
f 13 21 22
f 55 42 51
f 55 54 66
f 51 54 55
f 25 24 15
f 24 40 39
f 39 40 51
f 39 42 26
f 51 42 39
f 41 40 25
f 73 76 77
f 63 49 62
f 49 48 62
f 53 40 52
f 40 41 52
f 78 77 76
f 75 74 78
f 78 76 75
f 60 69 70
f 71 60 70
f 55 56 43
f 47 34 55
f 43 28 55
f 55 18 33
f 55 60 67
f 67 57 55
f 55 61 47
f 6 2 55
f 33 32 55
f 55 34 19
f 55 11 6
f 10 18 55
f 55 5 10
f 31 46 55
f 19 11 55
f 2 5 55
f 55 32 31
f 66 72 55
f 55 27 26
f 26 42 55
f 55 72 61
f 55 46 60
f 28 27 55
f 57 56 55
f 39 16 8
f 26 16 39
f 8 15 39
f 39 15 24
f 60 46 69
f 69 46 59
f 63 74 52
f 52 14 23
f 75 64 52
f 23 22 52
f 8 3 52
f 52 74 75
f 52 50 63
f 52 3 7
f 52 64 53
f 52 15 8
f 7 14 52
f 38 50 52
f 52 22 38
f 25 15 52
f 52 41 25
f 47 61 78
f 78 74 63
f 35 47 78
f 61 73 78
f 78 36 35
f 37 36 78
f 63 62 78
f 78 48 37
f 73 77 78
f 78 62 48
f 70 30 17
f 29 44 70
f 70 3 8
f 70 68 71
f 17 9 70
f 8 16 70
f 1 3 70
f 70 4 1
f 70 16 29
f 70 44 58
f 58 68 70
f 9 4 70
f 45 30 70
f 70 59 45
f 70 69 59

