# https://github.com/mikedh/trimesh
v 0.01266229 -0.01771756 0.03201989
v 0.01092785 -0.01771756 0.03201989
v 0.01266229 -0.01872990 0.03201989
v 0.01265516 -0.01771756 0.03166555
v 0.01092785 -0.01872990 0.03201989
v 0.01092785 -0.01771756 0.02923533
v 0.01265465 -0.01872990 0.03164456
v 0.01265465 -0.01771756 0.03164456
v 0.01092785 -0.01872990 0.02923533
v 0.01164244 -0.01771756 0.02923533
v 0.01249150 -0.01872990 0.03001869
v 0.01240406 -0.01771756 0.03008792
v 0.01148896 -0.01872990 0.02923533
f 11 10 12
f 12 8 11
f 8 7 11
f 1 3 4
f 3 7 4
f 4 7 8
f 10 11 13
f 5 3 1
f 5 1 2
f 9 5 2
f 2 6 9
f 2 1 4
f 4 6 2
f 4 10 6
f 4 8 12
f 12 10 4
f 3 5 13
f 5 9 13
f 13 7 3
f 13 11 7
f 13 9 6
f 6 10 13

