# https://github.com/mikedh/trimesh
v 0.00668240 -0.02481839 0.01496224
v 0.00668240 -0.02619965 0.01725628
v 0.00668240 -0.02089875 0.01496224
v 0.00993341 -0.02619965 0.01496224
v 0.00668240 -0.02619965 0.02580608
v 0.00668240 -0.02089875 0.02575725
v 0.02277157 -0.02089875 0.01496224
v 0.02385581 -0.02619965 0.01496224
v 0.00668240 -0.02616229 0.02580608
v 0.02297679 -0.02619965 0.02580608
v 0.00668411 -0.02089875 0.02580608
v 0.02279893 -0.02089875 0.01625098
v 0.02414312 -0.02619965 0.01813419
v 0.02413798 -0.02619965 0.01796221
v 0.02405932 -0.02619965 0.01642932
v 0.02402853 -0.02619965 0.01611934
v 0.02286221 -0.02132164 0.01496224
v 0.02384213 -0.02611663 0.01496224
v 0.02352062 -0.02619965 0.02518507
v 0.02302467 -0.02602635 0.02580608
v 0.02227220 -0.02089875 0.02580608
v 0.02279893 -0.02089875 0.02138044
v 0.02415338 -0.02619965 0.01967239
v 0.02373439 -0.02517642 0.01541235
v 0.02358389 -0.02473381 0.01496224
v 0.02354969 -0.02602635 0.02519144
v 0.02387975 -0.02619965 0.02432945
v 0.02285879 -0.02433790 0.02580608
v 0.02262278 -0.02089875 0.02480078
v 0.02347786 -0.02440224 0.02475938
v 0.02279722 -0.02089875 0.02309061
v 0.02415166 -0.02619965 0.02138044
v 0.02387462 -0.02602635 0.02433688
v 0.02408497 -0.02619965 0.02309061
v 0.02377372 -0.02503009 0.02416066
v 0.02405590 -0.02602635 0.02309061
f 1 4 2
f 26 27 33
f 11 6 9
f 16 7 15
f 15 7 14
f 7 13 14
f 23 13 12
f 12 13 7
f 28 26 21
f 21 26 30
f 30 26 33
f 30 29 21
f 27 26 19
f 18 16 8
f 7 16 17
f 22 31 23
f 23 12 22
f 23 31 32
f 31 36 32
f 33 27 34
f 34 32 36
f 26 28 20
f 10 19 20
f 20 19 26
f 29 30 35
f 31 29 35
f 35 36 31
f 35 30 33
f 33 34 35
f 35 34 36
f 24 18 25
f 16 18 24
f 25 17 24
f 24 17 16
f 9 3 1
f 9 6 3
f 9 2 5
f 1 2 9
f 8 4 17
f 1 3 17
f 17 4 1
f 3 7 17
f 17 18 8
f 25 18 17
f 22 11 21
f 22 7 3
f 3 6 22
f 22 6 11
f 22 12 7
f 21 29 22
f 22 29 31
f 34 13 23
f 5 2 34
f 34 10 5
f 34 4 8
f 34 19 10
f 34 2 4
f 8 16 34
f 15 14 34
f 34 16 15
f 34 14 13
f 27 19 34
f 23 32 34
f 5 10 20
f 20 9 5
f 21 11 20
f 11 9 20
f 20 28 21

