# https://github.com/mikedh/trimesh
v -0.00619643 0.03926100 0.02580762
v -0.00675839 0.03926100 0.02580762
v -0.00474704 0.03926035 0.02580762
v -0.00675839 0.03908641 0.02513252
v -0.00675839 0.03517195 0.02580762
v -0.00474704 0.03903844 0.02495538
v -0.00675839 0.03900071 0.02480247
v -0.00474704 0.03543351 0.02580762
v -0.00675839 0.03454331 0.02470380
v -0.00619643 0.03900007 0.02480247
v -0.00474704 0.03899815 0.02480247
v -0.00675839 0.03846480 0.02309163
v -0.00675839 0.03295284 0.02125961
v -0.00474704 0.03288441 0.01991344
v -0.00474704 0.03854346 0.02335244
v -0.00474704 0.03846160 0.02309163
v -0.00675839 0.03786046 0.02130116
v -0.00675839 0.03272837 0.02028215
v -0.00568705 0.03277185 0.01991344
v -0.00474704 0.03735972 0.01991344
v -0.00474704 0.03785726 0.02130404
v -0.00675839 0.03746780 0.02020541
v -0.00675839 0.03272837 0.01991344
v -0.00613894 0.03272837 0.01991344
v -0.00675839 0.03736292 0.01991344
f 16 17 12
f 18 23 24
f 14 8 13
f 3 7 4
f 22 20 25
f 22 17 20
f 20 17 21
f 17 16 21
f 18 24 19
f 19 13 18
f 14 13 19
f 9 8 5
f 9 13 8
f 1 4 2
f 3 4 1
f 12 7 10
f 10 11 12
f 15 16 12
f 12 11 15
f 11 10 6
f 6 7 3
f 6 10 7
f 19 23 25
f 19 20 14
f 25 20 19
f 19 24 23
f 9 23 18
f 9 5 2
f 2 4 9
f 18 13 9
f 25 23 9
f 9 7 12
f 12 17 9
f 9 22 25
f 9 4 7
f 17 22 9
f 2 5 1
f 1 8 3
f 5 8 1
f 14 20 6
f 3 8 6
f 6 8 14
f 16 15 6
f 20 21 6
f 6 21 16
f 6 15 11

