# https://github.com/mikedh/trimesh
v 0.01462847 0.01564777 -0.00062464
v 0.01462847 0.01627949 -0.00061546
v 0.01504204 0.01564777 -0.00045029
v 0.01462847 0.01564777 0.01376896
v 0.01462847 0.01673604 -0.00060812
v 0.01544120 0.01564777 -0.00027962
v 0.01512216 0.01564777 0.01733845
v 0.01512216 0.01949608 0.01727422
v 0.01462847 0.01949608 0.01365150
v 0.01462847 0.01798026 -0.00053655
v 0.01542694 0.01673604 -0.00026493
v 0.01568158 0.01564777 0.00044897
v 0.01599049 0.01564777 0.01812392
v 0.01568531 0.01949608 0.01772201
v 0.01462847 0.01949608 -0.00036036
v 0.01462847 0.01844623 -0.00049801
v 0.01533214 0.01844623 -0.00016950
v 0.01578890 0.01673604 0.00085638
v 0.01581330 0.01564777 0.00085638
v 0.01599049 0.01949608 0.01793122
v 0.01599049 0.01564777 0.00430842
v 0.01472953 0.01949608 -0.00031265
v 0.01518856 0.01949608 -0.00007957
v 0.01523482 0.01946180 -0.00006122
v 0.01559372 0.01844623 0.00085638
v 0.01591129 0.01673604 0.00256680
v 0.01599049 0.01949608 0.00515629
v 0.01592996 0.01564777 0.00256680
v 0.01599049 0.01673604 0.00434146
v 0.01522695 0.01949608 -0.00003186
v 0.01524629 0.01949608 0.00007642
v 0.01599049 0.01844623 0.00462592
f 13 8 7
f 8 4 7
f 1 2 3
f 9 4 8
f 25 24 27
f 13 20 14
f 14 8 13
f 21 28 29
f 28 32 29
f 26 28 19
f 26 32 28
f 27 32 26
f 12 11 19
f 6 11 12
f 5 11 6
f 6 3 5
f 5 3 2
f 23 30 24
f 27 24 31
f 24 30 31
f 24 25 17
f 22 23 17
f 17 23 24
f 17 15 22
f 17 16 15
f 18 26 19
f 27 26 18
f 18 25 27
f 18 17 25
f 19 11 18
f 11 17 18
f 11 5 10
f 10 17 11
f 16 17 10
f 13 21 29
f 27 20 29
f 29 20 13
f 29 32 27
f 13 7 12
f 12 4 1
f 12 21 13
f 19 28 12
f 1 3 12
f 12 7 4
f 12 3 6
f 12 28 21
f 31 15 9
f 31 9 8
f 8 14 31
f 22 15 31
f 31 20 27
f 31 23 22
f 31 14 20
f 30 23 31
f 1 4 10
f 10 2 1
f 4 9 10
f 9 15 10
f 10 5 2
f 15 16 10

