# https://github.com/mikedh/trimesh
v 0.00918152 -0.02944626 0.08095509
v 0.00918152 -0.03054568 0.08064901
v 0.00918152 -0.02748975 0.08074578
v 0.00898190 -0.02260742 0.08155375
v 0.00888400 -0.02431803 0.08155375
v 0.00867675 -0.02581973 0.08155375
v 0.00717263 -0.02741813 0.08155375
v 0.00579183 -0.02777744 0.08155375
v 0.00577658 -0.02778102 0.08155375
v 0.00406521 -0.02781444 0.08155375
v 0.00235638 -0.02781444 0.08155375
v 0.00064628 -0.02781325 0.08155375
v -0.00380761 -0.03054568 0.08062650
v -0.00380761 -0.03060298 0.08043295
v 0.00886111 -0.03060895 0.08043295
v 0.00918152 -0.03060895 0.08043295
v 0.00918152 -0.02069269 0.07939767
v 0.00893486 -0.02089681 0.08155375
v -0.00108416 -0.02779654 0.08155375
v -0.00126217 -0.02779415 0.08155375
v -0.00380761 -0.03010997 0.08073678
v -0.00380761 -0.03086441 0.07953496
v 0.00918152 -0.03086441 0.07953496
v 0.00918152 -0.01883525 0.07893405
v 0.00862590 -0.01940824 0.08155375
v -0.00224500 -0.02717700 0.08155375
v -0.00380761 -0.02944626 0.08090333
v -0.00380761 -0.03090977 0.07850418
v 0.00918152 -0.03093961 0.07782224
v 0.00918152 -0.01883525 0.05856155
v 0.00796347 -0.01874453 0.08155375
v 0.00850892 -0.01908951 0.08155375
v -0.00298371 -0.02602863 0.08155375
v -0.00380761 -0.02862617 0.08091458
v -0.00359401 -0.02492921 0.08155375
v -0.00368428 -0.02407689 0.08155375
v -0.00369445 -0.02385128 0.08155375
v -0.00374022 -0.02260742 0.08155375
v -0.00380761 -0.03093961 0.07782224
v 0.00918152 -0.03093961 0.05856380
v 0.00918152 -0.02497099 0.05856155
v -0.00380761 -0.01883525 0.05856155
v 0.00406521 -0.01874453 0.08105862
v 0.00577531 -0.01874453 0.08106087
v 0.00765324 -0.01874453 0.08133994
v -0.00283876 -0.01874453 0.08155375
v -0.00374022 -0.02230421 0.08155375
v -0.00380761 -0.02775118 0.08078404
v -0.00380761 -0.03093961 0.05856380
v -0.00380761 -0.02497099 0.05856155
v -0.00380761 -0.01883525 0.07744189
v -0.00283495 -0.01874453 0.08154475
v -0.00274086 -0.01874453 0.08137370
v -0.00106382 -0.01874453 0.08106762
v 0.00064628 -0.01874453 0.08105862
v -0.00365885 -0.01883525 0.07920637
v -0.00366902 -0.01980814 0.08155375
v -0.00372242 -0.02089681 0.08155375
v -0.00371479 -0.02061987 0.08155375
f 24 30 31
f 13 20 21
f 13 2 12
f 9 2 1
f 6 7 1
f 1 5 6
f 2 15 16
f 19 20 13
f 13 12 19
f 1 7 8
f 8 9 1
f 2 9 10
f 14 22 15
f 14 2 13
f 14 15 2
f 28 29 23
f 39 29 28
f 23 22 28
f 30 43 44
f 1 3 4
f 4 5 1
f 32 24 31
f 11 12 2
f 2 10 11
f 31 30 45
f 30 44 45
f 17 4 3
f 18 4 17
f 24 18 17
f 25 18 24
f 24 32 25
f 51 46 42
f 42 54 55
f 53 54 42
f 20 26 27
f 27 21 20
f 42 46 52
f 52 53 42
f 35 27 33
f 33 27 26
f 51 59 57
f 51 48 47
f 36 27 35
f 36 37 27
f 56 57 46
f 46 51 56
f 51 57 56
f 58 59 51
f 51 47 58
f 34 47 48
f 27 37 38
f 38 34 27
f 47 34 38
f 30 41 42
f 42 41 50
f 49 41 40
f 50 41 49
f 40 29 49
f 49 29 39
f 16 22 23
f 15 22 16
f 1 2 17
f 17 3 1
f 30 24 17
f 17 41 30
f 17 16 23
f 17 29 40
f 40 41 17
f 23 29 17
f 2 16 17
f 30 42 55
f 55 43 30
f 52 46 31
f 31 45 52
f 52 44 43
f 52 45 44
f 43 55 52
f 52 55 54
f 54 53 52
f 50 49 34
f 34 42 50
f 13 21 34
f 39 28 34
f 34 14 13
f 34 49 39
f 22 14 34
f 34 28 22
f 34 51 42
f 21 27 34
f 34 48 51
f 7 6 38
f 38 32 31
f 20 19 38
f 5 4 38
f 38 8 7
f 38 6 5
f 31 46 38
f 38 19 12
f 9 8 38
f 38 10 9
f 12 11 38
f 38 4 18
f 18 25 38
f 38 11 10
f 35 33 38
f 38 25 32
f 38 26 20
f 38 33 26
f 38 36 35
f 46 57 38
f 38 57 59
f 59 58 38
f 37 36 38
f 38 58 47

