# https://github.com/mikedh/trimesh
v 0.01798724 -0.02456580 0.06459444
v 0.01798724 -0.03069180 0.06459444
v 0.01798724 -0.02456580 0.05940145
v 0.00918152 -0.02456580 0.06459444
v 0.01775018 -0.03076418 0.06459444
v 0.01798724 -0.03075233 0.05940145
v 0.00918152 -0.02456580 0.05940145
v 0.00918152 -0.03094078 0.06459444
v 0.01603990 -0.03094078 0.06459444
v 0.01775018 -0.03081847 0.05940145
v 0.00918152 -0.03094078 0.05940145
v 0.01603990 -0.03094078 0.05940145
f 6 2 5
f 9 12 10
f 10 5 9
f 6 5 10
f 1 3 7
f 4 1 7
f 2 3 1
f 2 6 3
f 4 7 11
f 11 8 4
f 5 1 4
f 4 8 5
f 5 2 1
f 8 9 5
f 8 11 12
f 12 9 8
f 10 7 3
f 3 6 10
f 10 11 7
f 10 12 11

