# https://github.com/mikedh/trimesh
v -0.00380785 -0.01096020 0.07555290
v -0.00484700 -0.01096020 0.07555290
v -0.00380785 -0.01249920 0.07555290
v -0.00380785 -0.01096020 0.05856155
v -0.00623500 -0.01096020 0.07452836
v -0.00623500 -0.01098160 0.07452670
v -0.00467306 -0.01143840 0.07555290
v -0.00426932 -0.01249920 0.07555290
v -0.00380785 -0.01249920 0.05856155
v -0.00623500 -0.01096020 0.05856155
v -0.00623500 -0.01249920 0.07411256
v -0.00623500 -0.01249920 0.05856155
f 6 2 5
f 7 6 11
f 2 6 7
f 11 8 7
f 1 4 10
f 5 2 10
f 10 2 1
f 9 4 1
f 1 3 9
f 9 10 4
f 12 10 9
f 5 10 6
f 6 10 12
f 12 11 6
f 8 11 12
f 8 9 3
f 12 9 8
f 1 2 7
f 7 3 1
f 7 8 3

