# https://github.com/mikedh/trimesh
v 0.01596046 -0.03093402 0.06805544
v 0.01604047 -0.03093402 0.06805544
v 0.01596046 -0.03093402 0.06922719
v 0.01596046 0.04159454 0.06805544
v 0.01612490 -0.03092692 0.06936049
v 0.01604047 -0.03093402 0.06922719
v 0.01653013 -0.03088432 0.06805544
v 0.01692897 -0.03084883 0.06845426
v 0.01612490 -0.03092692 0.06987109
v 0.01596046 0.04155904 0.06922719
v 0.01612515 0.04148095 0.06987109
v 0.01649822 0.04123246 0.06987109
v 0.01650485 0.04121116 0.06805544
v 0.01775046 -0.03075653 0.06805544
v 0.01770186 -0.03076363 0.06922719
v 0.01692897 -0.03084883 0.06922719
v 0.01775021 -0.03075653 0.06987109
v 0.01612490 0.02328491 0.06987109
v 0.01731603 0.04038762 0.06987109
v 0.01725786 0.04035923 0.06805544
v 0.01805333 -0.03066424 0.06805544
v 0.01843598 -0.03055065 0.06864905
v 0.01812967 -0.03065004 0.06987109
v 0.01775046 -0.03075653 0.06922719
v 0.01762872 0.03985516 0.06987109
v 0.01804523 0.03896062 0.06987109
v 0.01744317 0.03995455 0.06805544
v 0.01843598 -0.03054355 0.06805544
v 0.01846764 -0.03053645 0.06922737
v 0.01846764 -0.03054355 0.06987109
v 0.01819274 0.03857015 0.06987109
v 0.01782581 0.03896062 0.06805544
v 0.01843598 0.03674558 0.06805544
v 0.01846764 0.03738453 0.06922737
v 0.01846764 0.03775370 0.06987109
v 0.01825312 0.03840686 0.06987109
v 0.01796178 0.03857015 0.06805544
v 0.01846764 0.03742713 0.06927589
v 0.01846543 0.03778210 0.06987109
f 10 11 4
f 4 11 12
f 11 10 18
f 16 17 9
f 22 23 14
f 22 28 29
f 24 23 17
f 14 23 24
f 13 12 19
f 19 20 13
f 4 12 13
f 14 8 7
f 8 2 7
f 5 2 8
f 9 3 6
f 28 22 21
f 21 22 14
f 30 22 29
f 23 22 30
f 17 16 15
f 15 24 17
f 15 16 8
f 15 8 14
f 14 24 15
f 25 20 19
f 25 26 20
f 38 34 33
f 33 37 38
f 38 37 39
f 39 35 38
f 39 37 36
f 20 26 27
f 32 27 26
f 32 36 37
f 31 32 26
f 36 32 31
f 10 4 1
f 1 3 10
f 28 33 34
f 29 28 34
f 18 10 3
f 18 3 9
f 8 16 5
f 5 16 9
f 6 5 9
f 2 5 6
f 6 3 1
f 1 2 6
f 29 34 38
f 35 30 38
f 38 30 29
f 32 2 1
f 1 4 32
f 14 7 32
f 32 33 28
f 4 13 32
f 32 37 33
f 32 13 20
f 28 21 32
f 32 7 2
f 32 21 14
f 20 27 32
f 31 12 11
f 31 35 39
f 31 18 9
f 9 17 31
f 17 23 31
f 19 12 31
f 11 18 31
f 31 25 19
f 23 30 31
f 31 30 35
f 26 25 31
f 39 36 31

