# https://github.com/mikedh/trimesh
v 0.00406645 0.01388422 0.08940793
v 0.00406645 0.01385593 0.08980291
v 0.00577690 0.01386742 0.08940793
v 0.00064557 0.01388422 0.08940793
v 0.00406645 0.01345021 0.09151286
v 0.00577690 0.01383914 0.08980291
v 0.00064557 0.01385593 0.08980291
v 0.00748734 0.01330171 0.08980291
v 0.00748734 0.01332734 0.08940793
v -0.00106487 0.01381439 0.08940793
v 0.00406645 0.01280671 0.09297226
v 0.00577690 0.01279699 0.09295710
v 0.00577690 0.01343165 0.09151286
v 0.00064557 0.01345021 0.09151286
v 0.00755461 0.01288627 0.09147456
v -0.00106487 0.01378610 0.08980291
v 0.00841917 0.01253535 0.09087851
v 0.00849143 0.01261932 0.08980291
v 0.00849890 0.01263170 0.08940793
v -0.00230690 0.01327696 0.08940793
v 0.00406645 0.01229227 0.09382684
v 0.00064557 0.01280671 0.09297226
v 0.00577690 0.01228166 0.09381168
v 0.00702889 0.01267766 0.09275044
v -0.00106487 0.01337861 0.09151286
v -0.00106487 0.01276959 0.09290763
v 0.00817002 0.01225956 0.09201874
v -0.00267814 0.01308780 0.08980291
v -0.00248131 0.01288273 0.09151286
v 0.00837059 0.01078076 0.09411090
v 0.00849890 0.01105124 0.09322361
v 0.00862223 0.01165585 0.09147456
v 0.00880661 0.01160369 0.08980291
v 0.00852257 0.01255656 0.08940793
v 0.00874307 0.01184943 0.08940793
v -0.00268686 0.01310194 0.08940793
v 0.00406645 0.01143663 0.09478993
v 0.00577690 0.01142691 0.09477956
v 0.00064557 0.01229227 0.09382684
v 0.00748734 0.01110693 0.09444842
v 0.00755461 0.01194224 0.09328186
v -0.00218482 0.01264142 0.09268501
v -0.00106487 0.01224896 0.09376221
v -0.00288369 0.01285003 0.08940793
v -0.00354271 0.01199881 0.08940793
v -0.00353399 0.01198113 0.08980291
v -0.00333716 0.01180434 0.09151286
v 0.00850264 0.00989330 0.09442847
v 0.00879789 0.00989330 0.09322361
v 0.00759697 0.00997816 0.09531976
v 0.00824103 0.00882552 0.09565329
v 0.00881782 0.01160369 0.08940793
v 0.00895485 0.00989330 0.09151286
v 0.00406645 0.01055978 0.09564531
v 0.00064557 0.01143663 0.09478993
v 0.00577690 0.01054564 0.09563494
v -0.00106487 0.01139420 0.09474605
v 0.00709990 0.00946372 0.09605943
v -0.00236047 0.01115024 0.09449390
v -0.00284258 0.01154801 0.09314940
v -0.00365856 0.01134029 0.08940793
v -0.00367227 0.01094871 0.09151286
v -0.00364984 0.01080463 0.09247276
v 0.00845655 0.00768526 0.09591979
v 0.00864964 0.00822622 0.09502293
v 0.00885893 0.00647340 0.09493356
v 0.00896233 0.00818380 0.09322361
v 0.00759697 0.00822622 0.09632514
v 0.00895112 0.01028753 0.08940793
v 0.00898600 0.00989330 0.08940793
v 0.00406645 0.00970414 0.09621503
v 0.00577690 0.00969088 0.09620465
v 0.00064557 0.01055978 0.09564531
v -0.00106487 0.01050056 0.09560142
v 0.00577690 0.00818380 0.09695151
v 0.00667510 0.00573179 0.09751724
v -0.00224461 0.00940361 0.09602273
v -0.00350035 0.01030610 0.09361220
v -0.00287248 0.00985529 0.09489685
v -0.00368472 0.01114317 0.08940793
v -0.00368472 0.01112638 0.08980291
v -0.00372833 0.00989330 0.09151286
v -0.00365607 0.00916672 0.09416037
v -0.00367974 0.00979872 0.09311509
v 0.00854001 0.00647340 0.09603869
v 0.00734158 0.00636998 0.09696827
v 0.00856244 0.00485494 0.09608097
v 0.00888135 0.00485494 0.09493356
v 0.00888883 0.00485494 0.09484180
v 0.00898226 0.00647340 0.09322361
v 0.00898475 0.00818380 0.09151286
v 0.00898351 0.00485494 0.09322361
v 0.00897354 0.00857803 0.08940793
v 0.00406645 0.00818380 0.09696986
v 0.00064557 0.00970414 0.09621503
v -0.00106487 0.00964580 0.09617752
v 0.00406645 0.00673505 0.09739835
v 0.00577690 0.00668908 0.09739037
v 0.00667011 0.00485494 0.09751485
v 0.00751474 0.00485494 0.09694034
v 0.00577690 0.00583433 0.09753400
v 0.00586161 0.00485494 0.09754277
v -0.00106487 0.00818380 0.09689645
v -0.00340941 0.00818380 0.09520087
v -0.00255357 0.00818380 0.09630599
v -0.00369843 0.01084175 0.08940793
v -0.00374078 0.00989330 0.08980291
v -0.00373206 0.00818380 0.09322361
v -0.00358506 0.00647340 0.09547615
v -0.00367725 0.00818380 0.09434549
v 0.00757953 0.00485494 0.09689087
v 0.00898102 0.00485494 0.09313185
v 0.00896856 0.00818380 0.08940793
v 0.00064557 0.00818380 0.09696986
v 0.00406645 0.00587941 0.09754198
v 0.00064557 0.00673505 0.09739835
v 0.00406645 0.00485494 0.09755953
v 0.00421221 0.00485494 0.09755873
v 0.00577690 0.00485494 0.09754437
v -0.00111470 0.00640711 0.09738000
v -0.00272922 0.00647340 0.09654537
v -0.00374078 0.00989330 0.08940793
v -0.00374078 0.00818380 0.09151286
v -0.00374078 0.00647340 0.09322361
v -0.00368472 0.00647340 0.09462077
v -0.00360873 0.00485494 0.09557509
v 0.00891997 0.00485494 0.09151286
v 0.00894863 0.00806447 0.08940793
v 0.00890627 0.00485494 0.09142668
v 0.00064557 0.00587941 0.09754198
v -0.00057778 0.00579190 0.09752761
v 0.00064557 0.00485494 0.09755953
v -0.00144732 0.00485494 0.09745660
v -0.00356264 0.00485494 0.09563254
v -0.00275289 0.00485494 0.09660282
v -0.00373954 0.00818380 0.08940793
v -0.00374078 0.00485494 0.09322361
v -0.00368472 0.00485494 0.09471972
v 0.00875802 0.00694453 0.08940793
v 0.00860106 0.00485494 0.09026809
v -0.00138753 0.00485494 0.09746697
v -0.00060892 0.00485494 0.09753001
v -0.00372210 0.00485494 0.09160462
v -0.00368348 0.00677394 0.08940793
v -0.00372085 0.00485494 0.09151286
v 0.00866459 0.00651760 0.08940793
v 0.00748734 0.00485494 0.08966247
v -0.00277905 0.00621353 0.08940793
v -0.00106487 0.00485494 0.08944703
v -0.00117325 0.00485494 0.08946060
v -0.00277531 0.00485494 0.08996489
v -0.00282016 0.00485494 0.08999042
v -0.00366604 0.00485494 0.09054976
v 0.00577690 0.00485494 0.08942469
v 0.00577690 0.00513338 0.08940793
v -0.00106487 0.00539325 0.08940793
v 0.00014103 0.00512984 0.08940793
v 0.00051975 0.00485494 0.08942230
v 0.00406645 0.00485494 0.08942150
v 0.00406645 0.00507857 0.08940793
v 0.00064557 0.00485494 0.08942150
v 0.00064557 0.00507857 0.08940793
f 53 67 70
f 29 28 47
f 16 28 29
f 29 25 16
f 1 6 3
f 8 3 6
f 78 60 63
f 60 47 63
f 46 47 28
f 46 63 47
f 150 144 149
f 150 151 144
f 152 153 144
f 144 151 152
f 69 53 70
f 69 52 53
f 17 32 33
f 53 52 33
f 88 66 87
f 70 92 93
f 93 92 113
f 70 67 91
f 91 92 70
f 147 146 140
f 154 146 147
f 140 146 139
f 155 146 154
f 18 8 17
f 17 33 18
f 3 8 9
f 9 18 19
f 8 18 9
f 100 76 99
f 77 79 104
f 63 46 62
f 61 81 62
f 45 46 28
f 61 62 45
f 45 62 46
f 20 36 28
f 28 16 20
f 16 10 20
f 2 6 1
f 73 57 74
f 59 79 77
f 77 74 59
f 59 74 57
f 59 60 78
f 78 79 59
f 35 33 52
f 35 18 33
f 75 76 58
f 67 53 49
f 49 66 67
f 53 33 49
f 49 33 32
f 66 49 65
f 66 65 64
f 67 66 89
f 66 88 89
f 113 92 112
f 112 127 113
f 140 139 129
f 113 127 129
f 160 155 154
f 121 134 135
f 126 134 121
f 109 126 121
f 83 79 78
f 83 104 79
f 109 104 83
f 83 110 109
f 78 63 83
f 83 63 84
f 136 137 122
f 125 126 109
f 109 110 125
f 108 125 110
f 108 83 84
f 110 83 108
f 80 81 61
f 28 36 44
f 44 45 28
f 14 7 16
f 14 16 25
f 60 59 42
f 29 47 42
f 42 47 60
f 42 25 29
f 55 57 73
f 15 8 6
f 17 8 15
f 19 18 34
f 18 35 34
f 75 58 72
f 72 54 71
f 87 66 85
f 66 64 85
f 68 58 76
f 51 58 68
f 68 64 51
f 90 89 92
f 67 89 90
f 90 91 67
f 92 91 90
f 113 129 128
f 128 129 139
f 159 160 154
f 133 121 135
f 105 104 109
f 109 121 105
f 77 104 105
f 105 103 77
f 96 74 77
f 77 103 96
f 96 95 73
f 73 74 96
f 95 96 114
f 114 96 103
f 131 133 141
f 145 136 144
f 144 153 145
f 126 125 138
f 123 108 107
f 125 108 124
f 137 138 124
f 124 138 125
f 108 123 124
f 107 108 82
f 82 81 107
f 82 62 81
f 82 108 84
f 84 63 82
f 63 62 82
f 106 122 107
f 107 81 106
f 81 80 106
f 6 2 5
f 43 59 57
f 43 42 59
f 56 72 58
f 54 72 56
f 87 85 111
f 76 100 86
f 86 85 64
f 100 111 86
f 86 111 85
f 86 68 76
f 64 68 86
f 149 144 148
f 148 156 149
f 75 72 94
f 94 72 71
f 142 131 141
f 132 131 142
f 133 131 120
f 103 105 120
f 121 133 120
f 120 105 121
f 137 136 143
f 136 145 143
f 6 5 13
f 13 15 6
f 12 13 5
f 57 55 39
f 39 43 57
f 24 12 23
f 15 13 24
f 13 12 24
f 50 58 51
f 51 30 50
f 31 32 17
f 17 30 31
f 31 49 32
f 31 30 49
f 48 65 49
f 49 30 48
f 48 64 65
f 51 64 48
f 48 30 51
f 38 37 54
f 54 56 38
f 161 158 157
f 157 162 161
f 157 158 149
f 149 156 157
f 99 76 102
f 118 119 101
f 101 117 118
f 115 117 101
f 119 102 101
f 101 102 76
f 116 114 103
f 103 120 116
f 116 120 131
f 11 12 5
f 21 38 23
f 37 38 21
f 23 12 21
f 12 11 21
f 17 15 27
f 15 24 27
f 27 30 17
f 40 24 23
f 23 38 40
f 40 50 30
f 58 50 40
f 40 56 58
f 40 38 56
f 98 76 75
f 98 101 76
f 130 116 131
f 130 131 132
f 41 40 30
f 24 40 41
f 30 27 41
f 41 27 24
f 75 94 97
f 97 98 75
f 115 101 97
f 101 98 97
f 26 22 14
f 26 14 25
f 25 42 26
f 42 43 26
f 39 22 26
f 43 39 26
f 4 2 1
f 7 2 4
f 4 10 16
f 16 7 4
f 95 71 54
f 73 95 54
f 122 137 124
f 107 122 124
f 124 123 107
f 5 2 7
f 7 14 5
f 73 54 37
f 37 55 73
f 162 159 161
f 160 159 162
f 94 71 95
f 95 114 94
f 157 69 70
f 157 9 19
f 19 34 157
f 36 20 157
f 1 3 157
f 157 4 1
f 70 93 157
f 157 44 36
f 113 128 157
f 157 80 61
f 52 69 157
f 157 93 113
f 157 139 146
f 146 155 157
f 3 9 157
f 144 136 157
f 61 45 157
f 157 20 10
f 10 4 157
f 157 35 52
f 155 160 157
f 157 136 122
f 160 162 157
f 45 44 157
f 157 34 35
f 157 128 139
f 122 106 157
f 157 106 80
f 157 148 144
f 156 148 157
f 87 111 117
f 149 158 117
f 117 147 140
f 117 112 92
f 153 152 117
f 126 138 117
f 117 159 154
f 117 150 149
f 117 88 87
f 135 134 117
f 117 158 161
f 151 150 117
f 117 152 151
f 117 133 135
f 92 89 117
f 154 147 117
f 117 100 99
f 140 129 117
f 117 134 126
f 117 145 153
f 117 89 88
f 127 112 117
f 117 129 127
f 137 143 117
f 161 159 117
f 99 102 117
f 141 133 117
f 117 142 141
f 117 138 137
f 117 111 100
f 117 119 118
f 132 142 117
f 117 143 145
f 117 102 119
f 55 37 21
f 21 39 55
f 132 117 130
f 130 117 115
f 22 5 14
f 22 11 5
f 39 21 22
f 22 21 11
f 97 94 114
f 114 116 97
f 97 130 115
f 116 130 97

