# https://github.com/mikedh/trimesh
v -0.00740293 0.03041957 0.00736738
v -0.00740293 0.03062826 0.00758231
v -0.00643082 0.03041957 0.00736738
v -0.00740293 0.03041957 0.01795938
v -0.00643082 0.03062758 0.00758231
v -0.00740293 0.03113877 0.00818536
v -0.00643082 0.03041957 0.01710332
v -0.00740293 0.03042025 0.01796060
v -0.00643082 0.03135222 0.00843837
v -0.00740293 0.03135222 0.00843837
v -0.00643082 0.03247861 0.01972798
v -0.00740293 0.03157587 0.01991344
v -0.00643082 0.03143312 0.00857102
v -0.00740293 0.03174106 0.00907704
v -0.00643082 0.03263360 0.01991344
v -0.00740293 0.03736417 0.01991344
v -0.00643082 0.03194227 0.00940865
v -0.00740293 0.03194227 0.00940865
v -0.00643082 0.03736281 0.01991344
v -0.00740293 0.03733834 0.01984098
v -0.00740293 0.03249153 0.01032366
v -0.00643082 0.03272062 0.01070563
v -0.00643082 0.03735534 0.01989256
v -0.00643082 0.03728736 0.01970342
v -0.00740293 0.03727648 0.01967026
v -0.00740293 0.03272062 0.01070563
v -0.00740293 0.03305846 0.01126937
v -0.00643082 0.03323317 0.01156168
v -0.00643082 0.03727512 0.01967026
v -0.00740293 0.03710042 0.01923547
v -0.00740293 0.03323317 0.01156168
v -0.00740293 0.03374232 0.01245581
v -0.00643082 0.03333174 0.01173486
v -0.00643082 0.03667760 0.01819519
v -0.00740293 0.03707255 0.01916670
v -0.00740293 0.03395373 0.01282919
v -0.00643082 0.03395237 0.01282919
v -0.00643082 0.03635130 0.01745704
v -0.00740293 0.03630032 0.01733913
v -0.00740293 0.03656612 0.01794218
v -0.00740293 0.03667760 0.01819519
v -0.00740293 0.03438267 0.01360909
v -0.00740293 0.03456213 0.01393579
v -0.00643082 0.03456009 0.01393948
v -0.00643082 0.03629964 0.01734036
v -0.00740293 0.03576194 0.01624972
v -0.00643082 0.03462195 0.01405616
v -0.00740293 0.03501282 0.01479185
v -0.00643082 0.03501147 0.01479431
v -0.00643082 0.03576058 0.01624972
v -0.00740293 0.03554169 0.01582108
f 2 3 1
f 4 7 8
f 8 7 12
f 11 15 12
f 12 7 11
f 45 39 38
f 39 34 38
f 32 28 31
f 46 39 45
f 16 19 20
f 40 34 39
f 40 41 34
f 30 29 34
f 28 32 33
f 50 46 45
f 34 41 35
f 35 30 34
f 29 30 25
f 25 24 29
f 20 24 25
f 21 26 22
f 28 22 27
f 31 28 27
f 22 26 27
f 14 13 10
f 18 21 17
f 17 21 22
f 17 14 18
f 13 14 17
f 10 13 9
f 9 6 10
f 37 32 36
f 37 33 32
f 37 43 44
f 51 50 48
f 46 50 51
f 48 50 49
f 49 43 48
f 23 20 19
f 23 24 20
f 2 6 5
f 6 9 5
f 3 2 5
f 42 37 36
f 43 37 42
f 44 43 47
f 43 49 47
f 16 12 19
f 12 15 19
f 7 4 1
f 1 3 7
f 42 12 16
f 1 4 42
f 42 8 12
f 39 46 42
f 42 2 1
f 42 21 18
f 10 6 42
f 4 8 42
f 31 27 42
f 42 6 2
f 42 51 48
f 36 32 42
f 16 20 42
f 42 32 31
f 42 14 10
f 42 40 39
f 41 40 42
f 42 35 41
f 20 25 42
f 48 43 42
f 30 35 42
f 42 25 30
f 26 21 42
f 42 27 26
f 18 14 42
f 46 51 42
f 47 19 15
f 47 7 3
f 45 38 47
f 15 11 47
f 47 11 7
f 47 50 45
f 28 33 47
f 34 29 47
f 47 38 34
f 47 22 28
f 47 17 22
f 3 5 47
f 47 23 19
f 47 37 44
f 29 24 47
f 13 17 47
f 47 9 13
f 33 37 47
f 47 49 50
f 24 23 47
f 47 5 9

