# https://github.com/mikedh/trimesh
v -0.00623524 -0.02516658 0.05856315
v -0.00623524 -0.01249920 0.05856315
v -0.00489488 -0.02516658 0.05856315
v -0.00623524 -0.02516658 0.07412499
v -0.00489488 -0.01249920 0.05856315
v -0.00623524 -0.01249920 0.07411215
v -0.00489488 -0.02516658 0.07423410
v -0.00489488 -0.02260483 0.07473636
v -0.00623524 -0.02094577 0.07457750
v -0.00489488 -0.01249920 0.07460317
v -0.00623524 -0.01405410 0.07448764
v -0.00489488 -0.01254508 0.07461441
v -0.00489488 -0.02089493 0.07490966
v -0.00623524 -0.02089493 0.07458231
v -0.00623524 -0.01576400 0.07462082
v -0.00489488 -0.01405410 0.07484708
v -0.00489488 -0.01918380 0.07495298
v -0.00623524 -0.01918380 0.07462243
v -0.00623524 -0.01747514 0.07462243
v -0.00489488 -0.01576400 0.07495298
v -0.00489488 -0.01573672 0.07495138
v -0.00489488 -0.01412602 0.07485189
f 8 4 7
f 15 19 20
f 17 18 14
f 12 10 6
f 6 11 12
f 16 11 15
f 16 12 11
f 4 8 9
f 17 14 13
f 14 9 13
f 13 9 8
f 22 16 15
f 15 20 21
f 21 22 15
f 1 2 5
f 5 3 1
f 1 3 4
f 3 7 4
f 10 5 2
f 2 6 10
f 20 19 18
f 20 18 17
f 9 2 1
f 9 6 2
f 1 4 9
f 9 11 6
f 18 19 9
f 9 19 15
f 15 11 9
f 9 14 18
f 3 5 21
f 21 7 3
f 17 13 21
f 5 10 21
f 21 8 7
f 21 20 17
f 10 12 21
f 12 16 21
f 21 13 8
f 16 22 21

