# https://github.com/mikedh/trimesh
v 0.00918238 -0.02972497 0.06595792
v 0.01720796 -0.02972497 0.06595780
v 0.00918238 -0.02972497 0.06721743
v 0.00918238 0.04189925 0.06595792
v 0.01798724 -0.02972497 0.06595780
v 0.01720796 0.04048654 0.06595780
v 0.01798724 -0.02972497 0.06721743
v 0.00918238 0.04235131 0.06721743
v 0.00918324 0.04242195 0.06595792
v 0.01798724 0.03730795 0.06595780
v 0.01727520 0.04040178 0.06595780
v 0.00919962 0.04242195 0.06595792
v 0.01261933 0.04241488 0.06595792
v 0.01432875 0.04230187 0.06595792
v 0.01573474 0.04185687 0.06595792
v 0.01579766 0.04181448 0.06595792
v 0.01659160 0.04125646 0.06595792
v 0.01720796 0.04048654 0.06595792
v 0.01798724 0.03816970 0.06721743
v 0.01261933 0.04235131 0.06721743
v 0.01781742 0.03886899 0.06595780
v 0.01798724 0.03817676 0.06664070
v 0.01725623 0.04036646 0.06721743
v 0.01730795 0.04032408 0.06595780
v 0.01296759 0.04233012 0.06721743
v 0.01432875 0.04221711 0.06721743
v 0.01567353 0.04180742 0.06721743
v 0.01635627 0.04134123 0.06721743
v 0.01652867 0.04121408 0.06721743
v 0.01720796 0.04042297 0.06721743
v 0.01794155 0.03835335 0.06721743
v 0.01779156 0.03896788 0.06595780
v 0.01778811 0.03896788 0.06721743
v 0.01768294 0.03925748 0.06721743
f 9 6 4
f 4 8 9
f 12 6 9
f 12 13 6
f 10 21 22
f 22 21 19
f 19 21 31
f 13 12 20
f 6 13 14
f 14 15 6
f 14 26 27
f 27 15 14
f 23 24 11
f 33 31 21
f 17 28 29
f 26 14 25
f 13 20 25
f 25 14 13
f 32 33 21
f 24 33 32
f 34 24 23
f 34 33 24
f 27 28 16
f 16 15 27
f 28 17 16
f 6 15 16
f 16 17 6
f 23 17 30
f 30 17 29
f 6 17 18
f 18 17 23
f 18 11 6
f 23 11 18
f 2 3 1
f 5 7 2
f 2 7 3
f 4 2 1
f 6 2 4
f 1 3 4
f 3 8 4
f 22 7 5
f 19 7 22
f 5 10 22
f 9 8 20
f 20 12 9
f 5 2 32
f 32 2 6
f 32 10 5
f 32 21 10
f 6 11 32
f 32 11 24
f 3 7 30
f 30 8 3
f 30 7 19
f 26 25 30
f 19 31 30
f 27 26 30
f 30 20 8
f 30 34 23
f 30 28 27
f 31 33 30
f 29 28 30
f 30 25 20
f 33 34 30

