# https://github.com/mikedh/trimesh
v -0.00538248 0.03480646 0.03592001
v -0.00538248 0.03571989 0.03111335
v -0.00296091 0.03480646 0.03603286
v -0.00538248 0.03480646 0.05856155
v -0.00538248 0.04048668 0.03111335
v -0.00296091 0.03585774 0.03111335
v -0.00296091 0.03480646 0.05856155
v -0.00538248 0.04279917 0.05856155
v -0.00538248 0.04054689 0.03139278
v -0.00296091 0.04059997 0.03164534
v -0.00296091 0.04048509 0.03111335
v -0.00296091 0.04279125 0.05856155
v -0.00538248 0.04282056 0.05795971
v -0.00296091 0.04283878 0.05729876
v -0.00538248 0.04060076 0.03164534
v -0.00296091 0.04093824 0.03335682
v -0.00538248 0.04284274 0.05729876
v -0.00296091 0.04288552 0.05577535
v -0.00538248 0.04093587 0.03335682
v -0.00538248 0.04109431 0.03425421
v -0.00538248 0.04123691 0.03506830
v -0.00448577 0.04123612 0.03506830
v -0.00296091 0.04123454 0.03506830
v -0.00538248 0.04286730 0.05648466
v -0.00296091 0.04289107 0.05558996
v -0.00296091 0.04125910 0.03521876
v -0.00538248 0.04135337 0.03579105
v -0.00448577 0.04289107 0.05558996
v -0.00538248 0.04289028 0.05558996
v -0.00296091 0.04289820 0.05387848
v -0.00448577 0.04289978 0.05387848
v -0.00538248 0.04145794 0.03645199
v -0.00296091 0.04145557 0.03646812
v -0.00538248 0.04289978 0.05387848
v -0.00296091 0.04287364 0.05216700
v -0.00448577 0.04287523 0.05216700
v -0.00538248 0.04287602 0.05216700
v -0.00538248 0.04176532 0.03848858
v -0.00296091 0.04176136 0.03848858
v -0.00296091 0.04283165 0.05064359
v -0.00538248 0.04285304 0.05135290
v -0.00296091 0.04200220 0.04020006
v -0.00296091 0.04178750 0.03867397
v -0.00538248 0.04200378 0.04020006
v -0.00448577 0.04200378 0.04020006
v -0.00296091 0.04282611 0.05045820
v -0.00538248 0.04282769 0.05045820
v -0.00296091 0.04220817 0.04191154
v -0.00538248 0.04220817 0.04191154
v -0.00296091 0.04275639 0.04874672
v -0.00538248 0.04275639 0.04874672
v -0.00296091 0.04238405 0.04362034
v -0.00538248 0.04238405 0.04362034
v -0.00296091 0.04265499 0.04703524
v -0.00448577 0.04265578 0.04703524
v -0.00538248 0.04265578 0.04703524
v -0.00296091 0.04253140 0.04532913
v -0.00538248 0.04253140 0.04532913
v -0.00296091 0.04254487 0.04551452
f 2 3 1
f 3 2 6
f 25 30 31
f 34 29 28
f 8 12 14
f 55 50 54
f 35 40 36
f 37 34 31
f 31 36 37
f 36 40 37
f 11 5 10
f 22 26 23
f 23 16 22
f 59 57 55
f 55 54 59
f 47 46 50
f 50 51 47
f 40 46 47
f 21 26 22
f 21 27 26
f 22 16 21
f 16 10 15
f 15 19 16
f 24 28 29
f 25 28 24
f 8 14 13
f 14 17 13
f 18 17 14
f 18 24 17
f 25 24 18
f 41 37 40
f 40 47 41
f 16 19 20
f 20 21 16
f 9 10 5
f 9 15 10
f 32 33 26
f 26 27 32
f 39 33 32
f 32 38 39
f 39 38 43
f 38 42 43
f 48 42 45
f 38 44 45
f 45 42 38
f 7 4 1
f 1 3 7
f 11 6 5
f 5 6 2
f 4 7 12
f 12 8 4
f 28 25 31
f 31 34 28
f 31 30 35
f 35 36 31
f 56 50 55
f 56 51 50
f 55 57 56
f 57 58 56
f 53 52 48
f 48 49 53
f 57 52 53
f 53 58 57
f 43 7 3
f 48 52 43
f 3 6 43
f 43 6 11
f 43 54 50
f 30 25 43
f 43 12 7
f 50 46 43
f 26 33 43
f 43 35 30
f 43 23 26
f 11 10 43
f 43 14 12
f 25 18 43
f 43 52 57
f 40 35 43
f 43 46 40
f 43 10 16
f 16 23 43
f 57 59 43
f 43 59 54
f 43 33 39
f 43 18 14
f 43 42 48
f 1 4 44
f 44 2 1
f 4 8 44
f 44 29 34
f 44 5 2
f 51 56 44
f 27 21 44
f 34 37 44
f 44 20 19
f 44 24 29
f 44 53 49
f 44 47 51
f 44 32 27
f 44 56 58
f 58 53 44
f 8 13 44
f 37 41 44
f 19 15 44
f 44 9 5
f 17 24 44
f 44 13 17
f 44 41 47
f 21 20 44
f 15 9 44
f 38 32 44
f 45 49 48
f 45 44 49

