# https://github.com/mikedh/trimesh
v -0.00740426 0.01232226 0.01398441
v -0.00740426 0.02353728 0.01358973
v -0.00766037 0.02353728 0.01991199
v -0.00766037 0.01232226 0.01991199
v -0.00740426 0.01232226 0.00503479
v -0.00740426 0.02353728 0.00503479
v -0.02004302 0.02353728 0.01991199
v -0.01999106 0.01232226 0.01991199
v -0.01610849 0.01232226 0.00503479
v -0.01363394 0.02353728 0.00503479
v -0.02004178 0.01526792 0.01991199
v -0.02003683 0.02353728 0.01967022
v -0.02000343 0.01232226 0.01796040
v -0.01999600 0.01246279 0.01991199
v -0.01999724 0.01232226 0.01967022
v -0.01610849 0.01502638 0.00503479
v -0.01830960 0.01232226 0.00940838
v -0.01831084 0.01331586 0.00940838
v -0.01831702 0.02353728 0.00940838
v -0.01372055 0.02349117 0.00503479
v -0.01593774 0.02353728 0.00658878
v -0.02001456 0.01232226 0.01867696
v -0.02004055 0.01502638 0.01991199
v -0.02003560 0.02353728 0.01962945
v -0.02000219 0.01331586 0.01796040
v -0.01992424 0.02353728 0.01624913
v -0.01993043 0.01844633 0.01624913
v -0.01993538 0.01331586 0.01624913
v -0.01993538 0.01232226 0.01624913
v -0.02003065 0.01355740 0.01991199
v -0.01610478 0.01578393 0.00503479
v -0.01888617 0.01232226 0.01065652
v -0.01888617 0.01331586 0.01065507
v -0.01889112 0.02353728 0.01065361
v -0.01759569 0.02353728 0.00816752
v -0.01609488 0.01673691 0.00503479
v -0.01445673 0.02269849 0.00503479
v -0.01679641 0.02353728 0.00729222
v -0.01998239 0.02353728 0.01791963
v -0.01978072 0.02353728 0.01453930
v -0.01977577 0.01673691 0.01453930
v -0.01977206 0.01331586 0.01453930
v -0.01977082 0.01232226 0.01453930
v -0.01917569 0.01232226 0.01151143
v -0.01917445 0.02353728 0.01150998
v -0.01757713 0.02353728 0.00814713
v -0.01584247 0.01920828 0.00503479
v -0.01594022 0.01852648 0.00503479
v -0.01605405 0.01749446 0.00503479
v -0.01562348 0.01999766 0.00503479
v -0.01681621 0.02353728 0.00731261
v -0.01949738 0.02353728 0.01282802
v -0.01948996 0.01331586 0.01282802
v -0.01948872 0.01232226 0.01282802
f 1 2 3
f 1 3 4
f 22 23 11
f 20 21 10
f 30 23 22
f 15 30 22
f 37 21 20
f 45 44 52
f 14 15 8
f 30 15 14
f 35 36 19
f 40 52 53
f 53 52 44
f 37 50 38
f 21 37 38
f 49 36 35
f 9 19 16
f 34 44 45
f 40 29 28
f 41 29 40
f 40 53 41
f 54 53 44
f 51 50 47
f 51 38 50
f 48 35 47
f 48 49 35
f 9 17 18
f 18 19 9
f 31 19 36
f 31 16 19
f 44 34 32
f 32 18 17
f 13 28 29
f 7 12 13
f 13 11 7
f 22 11 13
f 43 29 42
f 29 41 42
f 42 41 53
f 47 35 46
f 46 51 47
f 33 34 19
f 33 32 34
f 19 18 33
f 18 32 33
f 25 39 26
f 26 13 25
f 25 24 39
f 25 12 24
f 25 13 12
f 27 13 26
f 28 13 27
f 27 26 40
f 40 28 27
f 1 5 6
f 6 2 1
f 14 4 3
f 14 3 7
f 7 11 14
f 14 11 23
f 14 8 4
f 23 30 14
f 31 6 5
f 5 9 31
f 31 10 6
f 20 10 31
f 47 50 31
f 31 37 20
f 31 50 37
f 9 16 31
f 36 49 31
f 31 48 47
f 49 48 31
f 13 15 22
f 13 5 1
f 1 4 13
f 4 8 13
f 13 9 5
f 44 32 13
f 8 15 13
f 13 17 9
f 13 29 43
f 13 54 44
f 43 54 13
f 13 32 17
f 42 54 43
f 53 54 42
f 7 3 46
f 46 3 2
f 2 6 46
f 46 10 21
f 45 52 46
f 6 10 46
f 46 34 45
f 40 26 46
f 21 38 46
f 46 52 40
f 26 39 46
f 35 19 46
f 39 24 46
f 46 12 7
f 19 34 46
f 24 12 46
f 38 51 46

