# https://github.com/mikedh/trimesh
v 0.00918174 0.01149211 0.08674884
v 0.00918785 0.01148261 0.08674884
v 0.01024283 0.01143514 0.08621147
v 0.01024272 0.01308904 0.08456401
v 0.00918174 0.01277194 0.08456401
v 0.00918174 -0.00128339 0.08674884
v 0.00946836 0.00989327 0.08674884
v 0.01024283 0.00647153 0.08674580
v 0.01024283 0.00818240 0.08672265
v 0.01024283 0.00939007 0.08659592
v 0.01024283 0.00989327 0.08654291
v 0.01036030 0.01349160 0.08342894
v 0.01036030 0.01489296 0.08052457
v 0.00924093 0.01452078 0.08052457
v 0.00921578 0.01451129 0.08052457
v 0.00918174 0.01449420 0.08052457
v 0.00918174 -0.00180748 0.08613166
v 0.01036030 -0.00372722 0.08309811
v 0.01024272 -0.00222523 0.08477786
v 0.01024283 -0.00042701 0.08632358
v 0.00936555 -0.00082387 0.08674884
v 0.00953044 0.00818240 0.08674884
v 0.01024283 0.00430114 0.08674580
v 0.01036030 -0.00340821 0.08342894
v 0.01036030 -0.00450575 0.08052457
v 0.00918174 -0.00411839 0.08052457
v 0.00918174 -0.00213598 0.08573990
v 0.00918174 -0.00247778 0.08532316
v 0.00918174 -0.00296578 0.08429959
v 0.01036030 -0.00377090 0.08296346
v 0.01024283 0.00081294 0.08659043
v 0.01024283 0.00134272 0.08670376
v 0.01024283 0.00256369 0.08673300
v 0.01024283 0.00305359 0.08674458
v 0.00943617 -0.00041182 0.08674884
v 0.00952755 0.00134272 0.08674884
v 0.00952744 0.00128766 0.08674884
f 14 5 13
f 1 3 4
f 4 3 12
f 4 5 1
f 12 13 4
f 13 5 4
f 16 5 15
f 5 14 15
f 12 3 11
f 12 9 8
f 30 26 25
f 30 29 26
f 30 18 29
f 29 18 28
f 10 9 12
f 12 11 10
f 22 8 7
f 31 24 32
f 31 20 24
f 24 20 19
f 19 20 6
f 19 18 24
f 6 18 19
f 27 28 18
f 2 10 11
f 2 3 1
f 2 11 3
f 9 10 2
f 2 8 9
f 7 8 2
f 32 24 33
f 24 34 33
f 23 34 24
f 8 22 23
f 6 20 21
f 20 31 21
f 21 31 32
f 32 33 21
f 21 33 34
f 17 18 6
f 17 27 18
f 34 23 35
f 35 21 34
f 37 35 23
f 36 23 22
f 36 37 23
f 15 26 16
f 15 13 25
f 25 26 15
f 15 14 13
f 25 13 30
f 30 13 12
f 12 24 30
f 24 18 30
f 23 24 12
f 12 8 23
f 17 5 16
f 1 5 17
f 16 26 17
f 26 29 17
f 17 6 1
f 29 28 17
f 28 27 17
f 1 6 36
f 36 22 7
f 36 2 1
f 7 2 36
f 6 21 36
f 21 35 36
f 35 37 36

