# https://github.com/mikedh/trimesh
v 0.00918152 -0.02859163 0.06922742
v 0.01302981 -0.02859163 0.06922742
v 0.00918152 -0.02859163 0.07098709
v 0.00918152 0.04218828 0.06922742
v 0.01302981 -0.02859163 0.07098709
v 0.01302981 0.04222295 0.06922742
v 0.00918152 0.04216054 0.07098709
v 0.00918152 0.04225070 0.06927618
v 0.00918190 0.04225763 0.06922742
v 0.01302981 0.04062094 0.07098709
v 0.01261846 0.04225763 0.06922742
v 0.01302981 0.04222295 0.06927618
v 0.01261770 0.04216054 0.07098709
v 0.01302981 0.04213973 0.07098623
f 4 8 9
f 9 8 7
f 6 11 12
f 12 11 14
f 13 10 14
f 14 11 13
f 1 2 5
f 5 3 1
f 1 3 7
f 7 4 1
f 8 4 7
f 11 6 2
f 11 2 1
f 1 4 11
f 11 4 9
f 2 6 12
f 12 5 2
f 14 10 12
f 12 10 5
f 3 5 13
f 13 7 3
f 5 10 13
f 13 11 9
f 9 7 13

