# https://github.com/mikedh/trimesh
v 0.01840553 -0.01226285 0.02715940
v 0.01767827 -0.01226285 0.02827559
v 0.01765437 -0.01230516 0.02838029
v 0.01770216 -0.01238508 0.02838029
v 0.01848579 -0.01415878 0.02838029
v 0.01864999 -0.01471132 0.02838029
v 0.01900473 -0.01595670 0.02838029
v 0.01852132 -0.01595670 0.02715940
v 0.01274676 -0.01226285 0.02715940
v 0.01765070 -0.01226285 0.02831013
v 0.01757166 -0.01226285 0.02838029
v 0.01274676 -0.01595670 0.02838029
v 0.01274676 -0.01595670 0.02715940
v 0.01274676 -0.01226285 0.02838029
f 8 1 7
f 2 3 1
f 2 10 3
f 7 1 6
f 1 5 6
f 1 3 4
f 4 5 1
f 3 10 11
f 11 12 7
f 11 4 3
f 7 6 11
f 11 14 12
f 11 6 5
f 5 4 11
f 11 1 9
f 9 14 11
f 11 2 1
f 10 2 11
f 13 14 9
f 12 14 13
f 9 1 13
f 1 8 13
f 7 12 13
f 13 8 7

