# https://github.com/mikedh/trimesh
v -0.00565769 -0.03094048 0.03747894
v -0.00565769 -0.03094048 0.04291088
v -0.00565769 -0.02785528 0.03747894
v 0.00235567 -0.03094048 0.03747894
v -0.00565769 -0.02785528 0.04291088
v 0.00235567 -0.03094048 0.04291088
v 0.00617929 -0.02785528 0.03747894
v 0.00305783 -0.03090605 0.03747894
v 0.00554202 -0.02785528 0.04291088
v 0.00406587 -0.03085622 0.04291088
v 0.00617929 -0.02785528 0.03839685
v 0.00617929 -0.02786193 0.03747894
v 0.00406587 -0.03085622 0.03747894
v 0.00551189 -0.02874143 0.04291088
v 0.00600201 -0.02785528 0.04037945
v 0.00469966 -0.03066926 0.04291088
v 0.00617697 -0.02785528 0.03848673
v 0.00514344 -0.03053728 0.04291088
v 0.00514112 -0.03053728 0.03747894
v 0.00541456 -0.02944787 0.04291088
f 10 6 8
f 8 13 10
f 4 8 6
f 12 18 19
f 13 19 16
f 19 18 16
f 10 13 16
f 17 20 18
f 15 20 17
f 14 15 9
f 14 20 15
f 11 12 7
f 18 12 11
f 11 17 18
f 1 2 5
f 5 3 1
f 4 2 1
f 4 6 2
f 1 3 12
f 12 3 7
f 12 4 1
f 12 19 13
f 13 8 12
f 8 4 12
f 14 5 2
f 2 6 14
f 14 6 10
f 14 9 5
f 10 16 14
f 14 16 18
f 18 20 14
f 3 5 11
f 7 3 11
f 5 9 11
f 9 15 11
f 15 17 11

