# https://github.com/mikedh/trimesh
v -0.01044663 -0.02721269 0.01556668
v -0.01046718 -0.03003477 0.01556668
v -0.01053415 -0.02721269 0.01454480
v -0.01822061 -0.02721269 0.01556668
v -0.01055927 -0.03003477 0.01454480
v -0.01737357 -0.03003477 0.01556668
v -0.01821300 -0.02721269 0.01454480
v -0.01809504 -0.02773760 0.01556668
v -0.01726931 -0.03003477 0.01454480
v -0.01756459 -0.02946759 0.01556668
v -0.01735988 -0.03003477 0.01534842
v -0.01807829 -0.02773235 0.01454480
v -0.01807677 -0.02773760 0.01454480
v -0.01756916 -0.02926260 0.01454480
f 1 2 3
f 5 3 2
f 4 7 8
f 11 14 9
f 8 13 10
f 10 13 14
f 10 11 6
f 14 11 10
f 12 8 7
f 12 13 8
f 4 1 7
f 1 3 7
f 2 6 11
f 11 5 2
f 9 5 11
f 10 2 1
f 10 1 4
f 10 6 2
f 4 8 10
f 12 7 3
f 12 5 9
f 3 5 12
f 9 14 12
f 14 13 12

