# https://github.com/mikedh/trimesh
v 0.01435249 0.03426203 0.03407361
v 0.01264568 0.03535885 0.03407361
v 0.01794079 0.03426203 0.03407361
v 0.01264568 0.03426203 0.03657370
v 0.01264568 0.04104508 0.03407361
v 0.01794079 0.03555251 0.03407361
v 0.01794079 0.03426203 0.05388017
v 0.01264568 0.03426203 0.05856155
v 0.01361182 0.04097996 0.03407361
v 0.01264568 0.04120829 0.03503961
v 0.01364810 0.04155924 0.03748936
v 0.01784023 0.03726328 0.03407361
v 0.01786148 0.03726328 0.03506597
v 0.01788377 0.03726328 0.03651617
v 0.01791280 0.03726328 0.03848891
v 0.01793249 0.03726328 0.04020039
v 0.01794079 0.03726328 0.04191186
v 0.01794079 0.03726328 0.05856155
v 0.01792835 0.03426203 0.05856155
v 0.01264568 0.04279221 0.05856155
v 0.01433072 0.04093091 0.03407361
v 0.01264568 0.04157192 0.03741265
v 0.01264568 0.04173091 0.03846255
v 0.01264568 0.04199052 0.04020039
v 0.01433021 0.04188228 0.04020039
v 0.01426334 0.04163788 0.03852008
v 0.01433072 0.04109581 0.03506597
v 0.01729186 0.03897744 0.03407361
v 0.01747949 0.03897236 0.03677984
v 0.01758781 0.03897236 0.03848891
v 0.01768370 0.03897236 0.04020039
v 0.01774642 0.03897236 0.04191186
v 0.01778011 0.03897236 0.04362093
v 0.01781017 0.03897236 0.04533240
v 0.01783401 0.03897236 0.04703908
v 0.01784697 0.03897236 0.04874815
v 0.01785319 0.03897236 0.05045962
v 0.01785889 0.03897236 0.05388017
v 0.01786097 0.03897236 0.05558924
v 0.01786200 0.03897236 0.05730072
v 0.01791953 0.03771402 0.05856155
v 0.01264568 0.04279390 0.05853758
v 0.01433021 0.04268397 0.05856155
v 0.01478891 0.04148228 0.03797116
v 0.01525592 0.04157361 0.03911214
v 0.01525073 0.04061210 0.03407361
v 0.01264568 0.04220109 0.04188309
v 0.01433021 0.04209285 0.04191186
v 0.01698553 0.03957109 0.03407361
v 0.01694303 0.03987976 0.03545189
v 0.01716902 0.04019857 0.04020039
v 0.01722292 0.04030851 0.04191186
v 0.01725765 0.04039476 0.04362093
v 0.01728771 0.04048102 0.04533240
v 0.01731103 0.04056643 0.04703908
v 0.01732347 0.04063324 0.04874815
v 0.01733021 0.04066622 0.05045962
v 0.01735924 0.04068229 0.05558924
v 0.01785993 0.03897236 0.05856155
v 0.01264568 0.04285394 0.05730072
v 0.01606397 0.04202942 0.05856155
v 0.01433021 0.04274316 0.05730072
v 0.01541037 0.04165564 0.04020039
v 0.01604427 0.04028821 0.03407361
v 0.01264568 0.04220448 0.04191186
v 0.01264568 0.04237699 0.04359456
v 0.01433021 0.04225353 0.04362093
v 0.01685336 0.03978420 0.03407361
v 0.01688083 0.03980957 0.03431331
v 0.01668284 0.04133683 0.04533240
v 0.01678028 0.04142224 0.04703908
v 0.01684973 0.04148736 0.04874815
v 0.01688083 0.04152203 0.05045962
v 0.01689068 0.04153302 0.05157424
v 0.01689897 0.04154148 0.05271522
v 0.01690571 0.04154909 0.05388017
v 0.01691452 0.04155924 0.05558924
v 0.01691193 0.04155586 0.05693157
v 0.01726024 0.04085057 0.05742057
v 0.01731518 0.04070343 0.05856155
v 0.01264568 0.04290130 0.05558924
v 0.01687565 0.04151696 0.05856155
v 0.01689120 0.04153302 0.05807256
v 0.01620858 0.04198545 0.05742057
v 0.01604013 0.04211568 0.05558924
v 0.01433021 0.04277783 0.05558924
v 0.01664033 0.03992289 0.03407361
v 0.01559489 0.04175712 0.04191186
v 0.01645011 0.04116432 0.04191186
v 0.01264568 0.04252583 0.04530364
v 0.01433021 0.04239982 0.04533240
v 0.01657140 0.04124888 0.04362093
v 0.01571618 0.04183154 0.04362093
v 0.01582710 0.04190427 0.04533240
v 0.01592506 0.04197446 0.04703908
v 0.01599400 0.04202604 0.04874815
v 0.01602561 0.04205226 0.05045962
v 0.01264568 0.04289200 0.05385141
v 0.01433021 0.04275923 0.05388017
v 0.01433021 0.04253090 0.04703908
v 0.01264568 0.04264845 0.04703908
v 0.01433021 0.04263238 0.04874815
v 0.01433021 0.04268904 0.05045962
v 0.01433021 0.04272540 0.05216870
v 0.01264568 0.04285563 0.05216870
v 0.01264568 0.04274654 0.04874815
v 0.01264568 0.04280997 0.05045962
f 1 4 2
f 7 18 19
f 60 62 81
f 62 60 43
f 69 49 68
f 59 58 80
f 83 82 80
f 20 43 42
f 42 43 60
f 62 43 61
f 61 82 83
f 26 27 11
f 25 26 11
f 11 24 25
f 11 27 21
f 69 68 87
f 21 45 46
f 46 45 64
f 79 80 58
f 58 36 57
f 106 107 102
f 81 62 86
f 81 86 98
f 98 86 99
f 102 107 103
f 99 86 85
f 62 61 85
f 85 86 62
f 44 45 21
f 21 27 44
f 44 27 26
f 44 26 25
f 25 45 44
f 10 11 5
f 9 11 21
f 5 11 9
f 78 79 58
f 83 80 78
f 80 79 78
f 89 92 69
f 105 103 107
f 98 103 105
f 91 67 90
f 90 100 91
f 101 100 90
f 101 106 102
f 102 100 101
f 90 67 66
f 25 24 47
f 99 85 97
f 11 10 22
f 77 78 58
f 58 57 77
f 77 57 76
f 76 85 77
f 85 78 77
f 84 85 61
f 84 78 85
f 84 61 83
f 83 78 84
f 12 28 29
f 29 30 12
f 28 51 29
f 29 51 30
f 31 32 12
f 12 30 31
f 50 28 49
f 50 51 28
f 50 49 69
f 32 31 54
f 40 58 59
f 59 41 40
f 40 41 18
f 18 17 40
f 37 36 58
f 58 38 37
f 17 36 37
f 37 38 17
f 16 36 17
f 17 6 16
f 6 15 16
f 35 57 36
f 36 16 35
f 15 34 35
f 35 16 15
f 13 6 12
f 13 33 34
f 12 32 13
f 32 33 13
f 88 91 100
f 67 91 88
f 92 89 88
f 65 66 48
f 48 66 67
f 48 45 25
f 48 47 65
f 25 47 48
f 99 97 104
f 104 97 103
f 104 98 99
f 104 103 98
f 102 103 96
f 103 97 96
f 24 11 23
f 11 22 23
f 30 51 52
f 52 31 30
f 51 50 70
f 69 92 70
f 70 50 69
f 92 88 70
f 56 33 32
f 34 33 56
f 57 35 56
f 56 35 34
f 39 38 58
f 58 40 39
f 17 38 39
f 39 40 17
f 14 34 15
f 14 13 34
f 14 15 6
f 6 13 14
f 45 48 63
f 67 88 63
f 63 48 67
f 69 87 63
f 63 89 69
f 63 88 89
f 63 87 64
f 64 45 63
f 95 100 102
f 102 96 95
f 53 54 31
f 31 52 53
f 76 57 75
f 75 85 76
f 32 54 55
f 55 56 32
f 100 95 94
f 74 75 57
f 74 97 85
f 85 75 74
f 72 53 52
f 54 53 72
f 72 95 96
f 72 55 54
f 93 88 100
f 100 94 93
f 93 70 88
f 71 52 51
f 71 72 52
f 51 70 71
f 95 72 71
f 71 94 95
f 70 93 71
f 71 93 94
f 56 55 73
f 55 72 73
f 57 56 73
f 73 74 57
f 97 74 73
f 73 96 97
f 73 72 96
f 8 4 7
f 7 1 3
f 7 19 8
f 4 1 7
f 8 19 61
f 61 20 8
f 61 41 59
f 19 18 61
f 18 41 61
f 61 43 20
f 59 80 61
f 61 80 82
f 6 7 3
f 18 7 6
f 6 17 18
f 2 5 9
f 49 28 9
f 3 1 9
f 9 1 2
f 64 87 9
f 21 46 9
f 9 6 3
f 9 68 49
f 9 87 68
f 9 46 64
f 12 6 9
f 9 28 12
f 2 4 23
f 23 101 90
f 23 4 8
f 8 20 23
f 23 5 2
f 23 60 81
f 23 105 107
f 81 98 23
f 20 42 23
f 23 42 60
f 107 106 23
f 23 10 5
f 90 66 23
f 23 47 24
f 98 105 23
f 106 101 23
f 23 66 65
f 65 47 23
f 23 22 10

