# https://github.com/mikedh/trimesh
v 0.00651385 -0.02764859 0.03201962
v 0.00651385 -0.02763769 0.03160413
v 0.01092785 -0.02697502 0.03201962
v 0.00651385 0.00021053 0.03201962
v 0.00651385 -0.02746043 0.03034645
v 0.01092785 -0.02686867 0.03087248
v 0.01092785 -0.02696139 0.03172957
v 0.01092785 0.00018326 0.03201962
v 0.01090841 0.00021053 0.03201962
v 0.00651385 0.00010417 0.02929892
v 0.00651385 -0.02690685 0.02929892
v 0.00757976 -0.02655233 0.02929892
v 0.01092785 -0.02601239 0.02999568
v 0.01092785 0.00020780 0.03201563
v 0.01092785 0.00010417 0.02929892
v 0.01092785 -0.02529791 0.02929892
f 9 8 14
f 2 3 1
f 15 9 14
f 6 2 5
f 6 5 11
f 16 13 12
f 13 6 12
f 12 6 11
f 3 2 7
f 2 6 7
f 9 4 1
f 1 3 9
f 3 8 9
f 4 10 2
f 1 4 2
f 10 11 2
f 11 5 2
f 15 10 4
f 4 9 15
f 12 11 10
f 12 15 16
f 10 15 12
f 7 8 3
f 14 8 7
f 7 15 14
f 7 13 16
f 16 15 7
f 7 6 13

