# https://github.com/mikedh/trimesh
v 0.00601696 -0.01403831 0.05856112
v 0.00601696 -0.02700776 0.05856112
v 0.00601696 -0.01403831 0.05415971
v -0.01813029 -0.01403831 0.05856112
v 0.00601696 -0.02700776 0.05415971
v -0.01804842 -0.02700776 0.05856112
v -0.01858053 -0.01403831 0.05415971
v -0.01826031 -0.01403831 0.05731718
v -0.01813029 -0.02431611 0.05856112
v -0.01825067 -0.02700776 0.05415971
v -0.01812547 -0.02602632 0.05856112
v -0.01824345 -0.02602632 0.05730210
v -0.01837347 -0.02602632 0.05559195
v -0.01814233 -0.02700776 0.05730210
v -0.01858053 -0.01405355 0.05415971
v -0.01843607 -0.01403831 0.05559195
v -0.01843607 -0.02431611 0.05559195
v -0.01826031 -0.02431611 0.05730210
v -0.01822178 -0.02700776 0.05559195
v -0.01844811 -0.02602632 0.05415971
v -0.01857090 -0.02431611 0.05415971
v -0.01857813 -0.02260589 0.05415971
f 8 9 4
f 17 21 11
f 11 9 18
f 18 17 11
f 9 8 18
f 8 17 18
f 21 17 22
f 16 17 8
f 19 20 10
f 21 20 13
f 15 22 17
f 12 6 11
f 12 13 6
f 11 21 12
f 21 13 12
f 6 13 14
f 20 19 14
f 14 13 20
f 5 3 1
f 1 2 5
f 6 2 1
f 1 4 6
f 4 9 6
f 6 9 11
f 1 3 16
f 16 3 7
f 16 4 1
f 16 8 4
f 3 5 15
f 7 3 15
f 5 10 15
f 10 20 15
f 15 20 21
f 21 22 15
f 15 16 7
f 17 16 15
f 14 5 2
f 14 10 5
f 2 6 14
f 14 19 10

