# https://github.com/mikedh/trimesh
v 0.01044023 -0.01155424 0.07610971
v 0.01953975 -0.01155424 0.07610971
v 0.01044023 -0.01155424 0.07784409
v 0.01044023 0.04189695 0.07610971
v 0.01964290 -0.01155424 0.07610988
v 0.02112564 -0.01062815 0.07610971
v 0.02141467 -0.01155424 0.07784409
v 0.01044023 0.04180278 0.07784409
v 0.01262029 0.04189695 0.07610971
v 0.02112671 -0.01155424 0.07611344
v 0.02112671 0.03383428 0.07610971
v 0.02141682 0.03554518 0.07784409
v 0.01428784 0.04180278 0.07784409
v 0.01428784 0.04189172 0.07616098
v 0.01433082 0.04189172 0.07610971
v 0.02112886 0.03554518 0.07611820
v 0.02112671 0.03554518 0.07610971
v 0.02139962 0.03725608 0.07784409
v 0.01581248 0.04178708 0.07784409
v 0.01603919 0.04178185 0.07784409
v 0.01581248 0.04182894 0.07611073
v 0.01604564 0.04181847 0.07610971
v 0.01581248 0.04182894 0.07611888
v 0.02108481 0.03725608 0.07611820
v 0.02108266 0.03725608 0.07610971
v 0.02108911 0.03896697 0.07782831
v 0.02109663 0.03894082 0.07784409
v 0.01630566 0.04176092 0.07784409
v 0.01778195 0.04163535 0.07784409
v 0.01728878 0.04164581 0.07612584
v 0.01728878 0.04164058 0.07610971
v 0.01728878 0.04168244 0.07784409
v 0.02108051 0.03726654 0.07610971
v 0.02066792 0.03895128 0.07610971
v 0.02067437 0.03897221 0.07615674
v 0.02042940 0.03995584 0.07675264
v 0.02056907 0.04008665 0.07784409
v 0.02109126 0.03896697 0.07784409
v 0.01791411 0.04160919 0.07784409
v 0.01841588 0.04147839 0.07743019
v 0.01813437 0.04128480 0.07610971
v 0.02062280 0.03902453 0.07610971
v 0.01964290 0.04019129 0.07610971
v 0.01953653 0.04031686 0.07610971
v 0.01946884 0.04037964 0.07610971
v 0.01964290 0.04032209 0.07625537
v 0.01964290 0.04070403 0.07752187
v 0.01964290 0.04071973 0.07757704
v 0.01964290 0.04078252 0.07784070
v 0.02036815 0.04024884 0.07784409
v 0.02053791 0.04012327 0.07784409
v 0.02055833 0.04010757 0.07784409
v 0.01914865 0.04112260 0.07784409
v 0.01948603 0.04039011 0.07615674
v 0.01938718 0.04096564 0.07784409
f 12 7 10
f 11 10 6
f 12 10 16
f 16 10 11
f 17 16 11
f 14 13 19
f 19 20 14
f 42 36 34
f 31 22 30
f 30 22 29
f 30 41 31
f 40 41 30
f 34 36 35
f 37 36 52
f 5 2 6
f 5 6 10
f 16 24 18
f 12 16 18
f 33 24 25
f 29 22 32
f 15 14 20
f 45 36 44
f 46 36 45
f 46 41 36
f 53 41 40
f 36 41 47
f 47 53 55
f 41 53 47
f 26 33 34
f 34 35 26
f 24 33 26
f 26 35 36
f 38 27 26
f 26 37 38
f 36 37 26
f 26 27 18
f 26 18 24
f 22 20 28
f 28 32 22
f 14 15 9
f 13 14 9
f 23 20 22
f 23 15 20
f 36 42 43
f 43 44 36
f 45 41 54
f 54 46 45
f 41 46 54
f 50 49 55
f 36 49 50
f 48 49 36
f 55 49 48
f 36 47 48
f 48 47 55
f 39 53 40
f 39 30 29
f 40 30 39
f 22 15 21
f 21 23 22
f 15 23 21
f 52 36 51
f 36 50 51
f 1 3 8
f 8 4 1
f 24 17 25
f 16 17 24
f 5 3 1
f 5 7 3
f 5 10 7
f 1 2 5
f 4 8 9
f 8 13 9
f 1 4 43
f 34 33 43
f 43 2 1
f 43 17 11
f 43 41 45
f 45 44 43
f 11 6 43
f 43 22 31
f 6 2 43
f 25 17 43
f 43 42 34
f 31 41 43
f 43 33 25
f 43 15 22
f 4 9 43
f 43 9 15
f 51 8 3
f 51 7 12
f 3 7 51
f 51 13 8
f 51 37 52
f 12 18 51
f 19 13 51
f 29 32 51
f 51 20 19
f 51 28 20
f 38 37 51
f 51 39 29
f 51 27 38
f 55 53 51
f 18 27 51
f 32 28 51
f 51 50 55
f 53 39 51

