# https://github.com/mikedh/trimesh
v -0.01303685 -0.01581850 -0.00093817
v -0.00785367 -0.01581850 -0.00093817
v -0.01469363 -0.01581850 -0.00058731
v -0.01303771 -0.00776676 -0.00093817
v -0.00745742 -0.01581343 -0.00093817
v -0.00745742 -0.01581850 -0.00091460
v -0.01303771 0.01006462 -0.00093817
v -0.01475332 -0.01581850 -0.00057160
v -0.01474813 -0.01576022 -0.00057422
v -0.01474813 0.01006462 -0.00057422
v -0.00745742 0.01006462 -0.00093817
v -0.00745742 -0.01581850 0.00426710
v -0.01568683 -0.01581850 -0.00010292
v -0.01568770 -0.01576022 -0.00010554
v -0.01484157 0.01006462 -0.00052970
v -0.00745742 0.01006462 0.00426710
v -0.00745829 -0.01581850 0.02580558
v -0.01584775 -0.01581850 0.00081874
v -0.01585640 -0.01576022 0.00085802
v -0.01568770 0.01006462 -0.00010554
v -0.00766160 0.01006462 0.02580558
v -0.00745829 0.01006209 0.01523010
v -0.00745829 0.00208636 0.02580558
v -0.01629591 -0.01581850 0.02580558
v -0.01585294 -0.01581850 0.00085540
v -0.01585640 0.00646946 0.00085802
v -0.01629591 -0.01581596 0.00597426
v -0.01629591 -0.01576022 0.00596902
v -0.01629591 -0.01237282 0.00595855
v -0.01629591 0.00128321 0.00593760
v -0.01629591 0.00641119 0.00593498
v -0.01585554 0.01006462 0.00085802
v -0.01629591 0.01006462 0.02580558
v -0.01629591 -0.01581850 0.01909215
v -0.01593686 -0.01581850 0.00256779
v -0.01629591 0.00812136 0.00593498
v -0.01629591 0.01005702 0.00594022
v -0.01586332 0.01006462 0.00102821
v -0.01629591 0.01006209 0.00600044
v -0.01629591 0.01006462 0.01909215
f 19 27 28
f 22 16 21
f 21 23 22
f 22 23 16
f 3 8 9
f 5 6 2
f 7 3 10
f 10 3 9
f 27 19 25
f 25 35 27
f 13 19 14
f 14 8 13
f 9 8 14
f 32 37 39
f 26 37 32
f 32 20 26
f 1 3 4
f 4 3 7
f 27 35 34
f 18 19 13
f 18 25 19
f 15 10 9
f 15 14 20
f 9 14 15
f 29 19 28
f 29 30 19
f 37 26 36
f 39 40 38
f 32 39 38
f 19 30 31
f 23 33 24
f 24 17 23
f 21 33 23
f 12 11 16
f 5 11 12
f 12 6 5
f 12 23 17
f 16 23 12
f 20 14 26
f 26 14 19
f 7 11 4
f 4 11 5
f 5 2 4
f 4 2 1
f 18 17 24
f 18 12 17
f 1 2 18
f 18 3 1
f 13 8 18
f 8 3 18
f 18 2 6
f 6 12 18
f 24 34 18
f 35 25 18
f 18 34 35
f 38 33 21
f 38 11 7
f 21 16 38
f 38 15 20
f 16 11 38
f 38 20 32
f 7 10 38
f 10 15 38
f 38 40 33
f 24 33 31
f 33 40 31
f 28 27 31
f 31 34 24
f 31 39 37
f 31 29 28
f 27 34 31
f 31 40 39
f 30 29 31
f 37 36 31
f 31 26 19
f 31 36 26

