# https://github.com/mikedh/trimesh
v -0.00448336 0.03926082 0.02580705
v -0.00474684 0.03926082 0.02580705
v 0.00477083 0.03925833 0.02580705
v -0.00474684 0.03899806 0.02480199
v -0.00474684 0.03543418 0.02580705
v 0.00819101 0.03925708 0.02580705
v 0.01261922 0.03899244 0.02480142
v -0.00474684 0.03846129 0.02309132
v 0.01261922 0.03848439 0.02309132
v 0.01261752 0.03848439 0.02309132
v 0.01261752 0.03817106 0.02208799
v -0.00474684 0.03288454 0.01991344
v 0.01261922 0.03543917 0.02580705
v 0.01261922 0.03925396 0.02580705
v -0.00474684 0.03785712 0.02130448
v 0.01261922 0.03817106 0.02208799
v 0.01261922 0.03785462 0.02123237
v -0.00474684 0.03736155 0.01991979
v 0.01261922 0.03290888 0.01991402
v -0.00474684 0.03735905 0.01991344
v 0.01261752 0.03290888 0.01991344
v 0.01261922 0.03736030 0.01991344
v 0.01261752 0.03736030 0.01991344
f 13 5 12
f 2 1 4
f 19 13 12
f 8 4 11
f 11 15 8
f 9 4 7
f 22 19 21
f 21 19 12
f 6 14 7
f 15 11 18
f 17 11 16
f 17 18 11
f 10 11 4
f 4 9 10
f 7 4 3
f 3 6 7
f 3 4 1
f 20 18 23
f 23 17 22
f 18 17 23
f 18 20 12
f 18 5 2
f 12 5 18
f 2 4 18
f 18 4 8
f 8 15 18
f 17 14 13
f 17 19 22
f 17 9 7
f 13 19 17
f 7 14 17
f 16 9 17
f 10 9 16
f 16 11 10
f 2 5 3
f 3 1 2
f 5 13 3
f 13 14 3
f 14 6 3
f 12 20 23
f 23 21 12
f 22 21 23

