# https://github.com/mikedh/trimesh
v -0.00468251 0.02468621 0.03668591
v -0.00468251 0.02357780 0.03578992
v -0.00619736 0.02402196 0.03668495
v -0.00552564 0.02415801 0.03668591
v -0.00468251 0.01106122 0.03668591
v -0.00619736 0.02257343 0.03589238
v -0.00619736 0.02349510 0.03634397
v -0.00468251 0.02177581 0.03522691
v -0.00619736 0.02177047 0.03564072
v -0.00619736 0.01481326 0.03668591
v -0.00570966 0.01160542 0.03668591
v -0.00468251 0.01159475 0.03631852
v -0.00468251 0.02015655 0.03505370
v -0.00619736 0.02015655 0.03543085
v -0.00619736 0.01190420 0.03668543
v -0.00619647 0.01190420 0.03668591
v -0.00468251 0.01246574 0.03576223
v -0.00468251 0.01844526 0.03505065
v -0.00619736 0.01844526 0.03541869
v -0.00619736 0.01395028 0.03573261
v -0.00468251 0.01351145 0.03526405
v -0.00468251 0.01687135 0.03505065
v -0.00619736 0.01673663 0.03541949
v -0.00619736 0.01502667 0.03548256
v -0.00468251 0.01357147 0.03525028
v -0.00468251 0.01673663 0.03505081
v -0.00468251 0.01516139 0.03507227
v -0.00468251 0.01502667 0.03507723
f 4 1 3
f 3 10 4
f 3 1 2
f 9 2 8
f 28 25 24
f 10 15 16
f 2 9 6
f 14 9 8
f 11 16 15
f 15 17 11
f 21 20 24
f 24 25 21
f 15 20 21
f 21 17 15
f 3 2 7
f 2 6 7
f 13 14 8
f 23 28 24
f 5 11 12
f 12 11 17
f 19 13 18
f 14 13 19
f 28 23 27
f 23 26 27
f 22 19 18
f 23 19 22
f 22 26 23
f 11 5 1
f 1 4 11
f 11 4 10
f 10 16 11
f 19 10 3
f 24 20 19
f 19 15 10
f 3 7 19
f 19 20 15
f 19 6 9
f 9 14 19
f 19 7 6
f 19 23 24
f 5 12 22
f 1 5 22
f 22 21 25
f 22 2 1
f 8 2 22
f 25 28 22
f 18 13 22
f 17 21 22
f 22 13 8
f 22 12 17
f 28 27 22
f 22 27 26

