# https://github.com/mikedh/trimesh
v -0.00790676 -0.02619980 0.01735790
v -0.00789859 -0.02620085 0.01735790
v -0.00789859 -0.02620085 0.01714945
v -0.00790724 -0.02619980 0.01714819
v -0.00953395 -0.02619980 0.01735790
v -0.00789859 -0.02640843 0.01735790
v -0.00953395 -0.02773744 0.01689051
v -0.00953395 -0.02626573 0.01610478
v -0.00953395 -0.02619980 0.01607502
v -0.00953395 -0.02773744 0.01735790
v -0.00914888 -0.02773744 0.01735790
f 3 1 2
f 8 3 7
f 9 3 8
f 4 3 9
f 1 3 4
f 11 10 7
f 6 3 2
f 7 3 6
f 6 11 7
f 8 10 5
f 5 9 8
f 7 10 8
f 4 9 5
f 5 1 4
f 5 10 6
f 6 1 5
f 2 1 6
f 10 11 6

