# https://github.com/mikedh/trimesh
v -0.01620743 -0.01581850 0.00554908
v -0.00751371 -0.01581850 0.00554908
v -0.01594613 -0.01581850 0.00427636
v -0.01615977 -0.01747446 0.00554908
v -0.00751371 -0.01581850 0.00427299
v -0.00751371 -0.02586510 0.00554908
v -0.01594528 -0.01582249 0.00427299
v -0.01426339 -0.01581850 0.00427299
v -0.01586952 -0.01747746 0.00427299
v -0.01596826 -0.01908352 0.00554908
v -0.00751371 -0.02470223 0.00427299
v -0.00963224 -0.02601482 0.00554908
v -0.00751371 -0.02585611 0.00427386
v -0.01569759 -0.01872717 0.00427299
v -0.01569844 -0.01872717 0.00427636
v -0.01549331 -0.01958560 0.00427299
v -0.01532819 -0.02089620 0.00554908
v -0.00790779 -0.02583216 0.00427299
v -0.01118645 -0.02586709 0.00554908
v -0.01495198 -0.02089819 0.00427299
v -0.01465322 -0.02256115 0.00554908
v -0.00961777 -0.02554568 0.00427299
v -0.01145712 -0.02470822 0.00427299
v -0.01060341 -0.02526819 0.00427299
v -0.01304879 -0.02429897 0.00554908
v -0.01265470 -0.02385178 0.00427299
v -0.01420806 -0.02217885 0.00427299
v -0.01350756 -0.02303628 0.00427299
f 13 6 12
f 12 19 18
f 18 13 12
f 7 3 8
f 1 3 4
f 4 3 7
f 13 18 11
f 10 4 9
f 9 4 7
f 17 16 21
f 10 16 17
f 27 21 20
f 21 16 20
f 22 18 19
f 19 24 22
f 19 25 26
f 14 16 10
f 23 24 19
f 19 26 23
f 28 26 25
f 28 25 21
f 28 21 27
f 9 14 15
f 10 9 15
f 15 14 10
f 1 2 8
f 2 5 8
f 8 3 1
f 2 6 11
f 11 5 2
f 6 13 11
f 17 6 2
f 17 2 1
f 12 6 17
f 17 19 12
f 21 25 17
f 1 4 17
f 17 25 19
f 17 4 10
f 28 8 5
f 28 9 7
f 5 11 28
f 7 8 28
f 18 22 28
f 28 11 18
f 27 20 28
f 24 23 28
f 28 20 16
f 28 22 24
f 16 14 28
f 28 14 9
f 28 23 26

