# https://github.com/mikedh/trimesh
v 0.01453268 0.00665059 0.01658942
v 0.01453268 0.00665059 -0.00066970
v 0.01369216 0.00688168 0.01599676
v 0.01393621 0.00665059 0.01658942
v 0.01453268 -0.01581849 0.01658942
v 0.01451142 0.00665059 -0.00067998
v 0.01369216 0.00688168 -0.00082558
v 0.01453268 -0.01577183 -0.00066970
v 0.01291162 0.00688168 0.01573297
v 0.01291162 0.00647727 0.01619374
v 0.01291162 0.00604842 0.01658942
v 0.01291162 -0.01581849 0.01658942
v 0.01453268 -0.01581849 -0.00066799
v 0.01432957 0.00665059 -0.00075534
v 0.01432957 -0.01581849 -0.00075534
v 0.01291162 0.00688168 -0.00090951
v 0.01415011 0.00665059 -0.00077590
v 0.01369216 -0.01576294 -0.00082558
v 0.01291162 -0.01581849 -0.00090779
v 0.01291162 -0.01576294 -0.00090951
f 4 3 9
f 1 3 4
f 11 4 10
f 10 4 9
f 19 20 15
f 15 20 18
f 13 15 8
f 17 18 7
f 17 15 18
f 17 14 15
f 7 14 17
f 15 14 6
f 2 8 6
f 6 8 15
f 6 7 2
f 6 14 7
f 1 4 12
f 12 5 1
f 12 4 11
f 7 16 9
f 9 3 7
f 7 3 1
f 1 2 7
f 20 10 9
f 9 16 20
f 19 12 20
f 20 12 11
f 11 10 20
f 16 7 20
f 7 18 20
f 15 12 19
f 5 12 15
f 15 13 5
f 1 5 8
f 8 2 1
f 5 13 8

