# https://github.com/mikedh/trimesh
v 0.00826803 -0.03431078 0.02402559
v 0.00826803 -0.03800119 0.02394071
v 0.00826803 -0.03431078 0.01750543
v -0.00789843 -0.03431078 0.02400006
v -0.00789843 -0.03800119 0.02394071
v 0.00826803 -0.03971108 0.02379902
v 0.00826803 -0.03457995 0.01750543
v -0.00789843 -0.03431078 0.01765733
v -0.00789843 -0.03971108 0.02376775
v -0.00619570 -0.03971108 0.02379902
v 0.00826803 -0.04118462 0.02294698
v 0.00826803 -0.03629057 0.01751117
v -0.00789843 -0.03800119 0.01765924
v -0.00789843 -0.03629933 0.01765733
v -0.00789843 -0.04114304 0.02291571
v -0.00619570 -0.04118462 0.02294698
v 0.00826803 -0.04176164 0.02138140
v -0.00619570 -0.04176237 0.02138140
v 0.00826803 -0.03798369 0.01754181
v -0.00789843 -0.03963011 0.01824195
v -0.00789843 -0.04167410 0.02138140
v 0.00826803 -0.04114304 0.01973987
v -0.00789843 -0.04109709 0.01977497
v -0.00619570 -0.04114304 0.01973987
v 0.00826803 -0.03964981 0.01821003
v -0.00619570 -0.03964981 0.01823748
v -0.00789843 -0.04048141 0.01891975
v -0.00619570 -0.04050475 0.01888464
v 0.00826803 -0.04050548 0.01888464
f 5 1 4
f 22 17 18
f 1 5 2
f 15 21 18
f 18 16 15
f 18 17 11
f 11 16 18
f 24 22 18
f 20 13 19
f 10 5 9
f 9 16 10
f 9 15 16
f 13 14 7
f 18 21 23
f 23 24 18
f 12 19 13
f 13 7 12
f 20 28 27
f 27 28 24
f 24 23 27
f 28 25 29
f 22 24 29
f 24 28 29
f 19 25 26
f 20 19 26
f 26 28 20
f 26 25 28
f 1 3 8
f 4 1 8
f 2 5 10
f 10 6 2
f 11 6 10
f 10 16 11
f 7 8 3
f 7 14 8
f 4 8 27
f 27 5 4
f 27 9 5
f 21 15 27
f 27 13 20
f 8 14 27
f 27 14 13
f 15 9 27
f 27 23 21
f 29 3 1
f 29 11 17
f 1 2 29
f 17 22 29
f 29 2 6
f 6 11 29
f 19 12 29
f 29 7 3
f 29 12 7
f 29 25 19

