# https://github.com/mikedh/trimesh
v -0.00738305 0.00476395 0.08319499
v -0.00623535 0.00476395 0.08270418
v -0.00738305 0.00647261 0.08319470
v -0.00738305 0.00305342 0.08319382
v -0.00623535 0.00471550 0.08270418
v -0.00623535 0.00647261 0.08270389
v -0.00738305 0.00817568 0.08316803
v -0.00738305 0.00157954 0.08315719
v -0.00623535 0.00300497 0.08270184
v -0.00623535 0.00305342 0.08270301
v -0.00623535 0.00818313 0.08265173
v -0.00738305 0.00818313 0.08316774
v -0.00738305 0.00134290 0.08314225
v -0.00623535 0.00134290 0.08259694
v -0.00623535 0.00968497 0.08235959
v -0.00738305 0.00997192 0.08284776
v -0.00738305 0.00133544 0.08314078
v -0.00623535 0.00129259 0.08258727
v -0.00623535 0.01051414 0.08204899
v -0.00738305 0.01005018 0.08281700
v -0.00738305 -0.00015521 0.08284307
v -0.00738305 -0.00031359 0.08280615
v -0.00623535 0.00008888 0.08230509
v -0.00623535 0.01160418 0.08133989
v -0.00738305 0.01328676 0.08096013
v -0.00738305 0.01314142 0.08104745
v -0.00623535 -0.00079992 0.08184652
v -0.00738305 -0.00469984 0.08020151
v -0.00623535 0.01332589 0.08020151
v -0.00638558 0.01349172 0.08020151
v -0.00738305 0.01433581 0.08020151
v -0.00623535 -0.00319428 0.08020151
f 27 22 28
f 16 12 11
f 32 27 28
f 16 19 20
f 15 19 16
f 16 11 15
f 6 3 1
f 1 2 6
f 1 4 5
f 5 2 1
f 22 18 21
f 22 27 23
f 23 18 22
f 19 25 26
f 26 20 19
f 3 6 7
f 7 6 11
f 7 11 12
f 17 18 13
f 17 21 18
f 31 25 30
f 8 9 4
f 10 5 4
f 4 9 10
f 13 18 14
f 14 8 13
f 9 8 14
f 29 30 24
f 24 25 19
f 24 30 25
f 30 28 31
f 30 29 32
f 30 32 28
f 31 28 8
f 8 25 31
f 1 3 8
f 28 22 8
f 8 12 16
f 16 20 8
f 8 26 25
f 8 4 1
f 8 17 13
f 22 21 8
f 8 7 12
f 20 26 8
f 3 7 8
f 21 17 8
f 24 6 2
f 19 15 24
f 24 23 27
f 2 5 24
f 27 32 24
f 24 15 11
f 11 6 24
f 24 14 18
f 18 23 24
f 32 29 24
f 5 10 24
f 24 10 9
f 9 14 24

