# https://github.com/mikedh/trimesh
v -0.00789859 -0.03352286 0.02424977
v -0.00789859 -0.03352286 0.01765731
v -0.00953395 -0.03352286 0.02424904
v -0.00790724 -0.03799987 0.02394009
v -0.00789859 -0.03799987 0.02394009
v -0.00953395 -0.03458007 0.01689249
v -0.00953395 -0.03352286 0.01689321
v -0.00789859 -0.03629955 0.01765731
v -0.00953395 -0.03799987 0.02392713
v -0.00790724 -0.03971057 0.02376725
v -0.00789859 -0.03971057 0.02376725
v -0.00953395 -0.03557346 0.01694506
v -0.00789859 -0.03799987 0.01765947
v -0.00953395 -0.03971057 0.02358577
v -0.00790724 -0.04114280 0.02291529
v -0.00789859 -0.04113562 0.02291961
v -0.00953395 -0.03629077 0.01706965
v -0.00789859 -0.03800865 0.01766235
v -0.00953395 -0.03799110 0.01745782
v -0.00953395 -0.04097285 0.02274749
v -0.00790724 -0.04167340 0.02138132
v -0.00789859 -0.04167420 0.02138132
v -0.00789859 -0.04114280 0.02291529
v -0.00789859 -0.03962998 0.01824209
v -0.00790724 -0.03962599 0.01823921
v -0.00953395 -0.03810280 0.01749815
v -0.00953395 -0.04133110 0.02138132
v -0.00953395 -0.04095210 0.02006628
v -0.00790724 -0.04109652 0.01977533
v -0.00789859 -0.04109971 0.01978326
v -0.00789859 -0.04048134 0.01891977
v -0.00790724 -0.04048134 0.01891977
v -0.00953395 -0.03952466 0.01827882
v -0.00953395 -0.03948237 0.01824569
v -0.00953395 -0.04092338 0.01998779
v -0.00953395 -0.04036804 0.01917471
v -0.00789859 -0.04109652 0.01977533
v -0.00953395 -0.04033772 0.01913294
f 4 1 3
f 6 7 2
f 9 4 3
f 10 4 9
f 9 14 10
f 1 4 5
f 16 11 10
f 6 2 8
f 8 13 6
f 27 28 21
f 21 20 27
f 14 20 15
f 23 16 15
f 20 21 15
f 10 14 15
f 15 16 10
f 22 23 15
f 15 21 22
f 6 13 12
f 25 33 34
f 22 21 29
f 29 28 35
f 29 21 28
f 13 19 17
f 17 12 13
f 26 25 34
f 19 25 26
f 33 25 32
f 38 33 32
f 31 32 24
f 24 32 25
f 36 29 35
f 38 32 36
f 36 32 29
f 18 24 25
f 18 19 13
f 18 25 19
f 29 37 30
f 22 29 30
f 2 7 3
f 3 1 2
f 5 4 10
f 10 11 5
f 3 7 36
f 27 20 36
f 36 7 6
f 36 9 3
f 6 12 36
f 36 28 27
f 14 9 36
f 35 28 36
f 36 26 34
f 36 20 14
f 36 17 19
f 34 33 36
f 36 33 38
f 12 17 36
f 19 26 36
f 37 32 31
f 29 32 37
f 30 2 1
f 30 23 22
f 1 5 30
f 30 8 2
f 30 5 11
f 11 16 30
f 30 16 23
f 13 8 30
f 30 18 13
f 31 24 30
f 30 37 31
f 24 18 30

