# https://github.com/mikedh/trimesh
v -0.01303675 0.04049198 0.03111335
v -0.01303675 0.04024098 0.02993351
v -0.01474751 0.03992432 0.02863838
v -0.01474751 0.04019924 0.02993351
v -0.01474751 0.04041184 0.03111335
v -0.00448768 0.04048641 0.03111335
v -0.00619529 0.04048753 0.03111128
v -0.01303675 0.03973677 0.02775972
v -0.01474751 0.03944403 0.02651341
v -0.01474751 0.03973621 0.02778361
v -0.00448768 0.04023264 0.02993351
v -0.00448768 0.03993489 0.02861397
v -0.00619529 0.03993489 0.02861293
v -0.00619529 0.03973677 0.02775868
v -0.01571473 0.03988592 0.02880092
v -0.01585808 0.03999333 0.02993351
v -0.01593685 0.04007903 0.03111335
v -0.00296123 0.04048475 0.03111335
v -0.00448768 0.03944459 0.02651341
v -0.01474751 0.03926205 0.02580820
v -0.00296123 0.04022985 0.02993351
v -0.00296123 0.03996606 0.02875937
v -0.00296123 0.03993378 0.02861605
v -0.00296123 0.03975847 0.02785424
v -0.00296123 0.03944459 0.02651341
v -0.01645826 0.03887136 0.02580820
v -0.01746172 0.03829869 0.02580820
v -0.01620307 0.03983360 0.03111335
v -0.00296123 0.03585663 0.03111335
v -0.00790920 0.03926205 0.02580820
v -0.00296123 0.03925926 0.02580820
v -0.00448768 0.03926038 0.02580820
v -0.00619529 0.03926149 0.02580820
v -0.01770116 0.03788574 0.02580820
v -0.01747432 0.03832429 0.02651341
v -0.01679223 0.03919248 0.03111335
v -0.00296123 0.03545426 0.02580820
v -0.00740353 0.03480646 0.03111335
v -0.01803985 0.03726243 0.02580820
v -0.01805088 0.03726243 0.02651341
v -0.01746802 0.03834488 0.02822398
v -0.01745857 0.03834600 0.02993351
v -0.01745069 0.03833765 0.03111335
v -0.00732792 0.03480646 0.02580820
v -0.01905276 0.03480646 0.03111335
v -0.01833915 0.03658068 0.02580820
v -0.01874715 0.03563402 0.02822398
v -0.01874715 0.03564292 0.02993351
v -0.01874558 0.03564905 0.03111335
v -0.01804457 0.03726243 0.02822398
v -0.01803512 0.03726243 0.02993351
v -0.01802725 0.03726243 0.03111335
v -0.01902913 0.03480646 0.02580820
v -0.01896139 0.03505912 0.03111335
v -0.01874715 0.03561677 0.02580820
v -0.01904173 0.03480646 0.02816685
v -0.01903385 0.03480646 0.02643136
v -0.01892358 0.03511311 0.02580820
f 38 44 37
f 38 37 29
f 35 40 41
f 41 36 35
f 26 15 20
f 26 27 15
f 17 5 16
f 16 5 15
f 16 27 17
f 15 27 16
f 4 5 1
f 15 5 4
f 35 36 28
f 17 27 28
f 28 27 35
f 45 55 56
f 39 40 35
f 42 52 43
f 43 36 42
f 36 41 42
f 50 41 40
f 40 49 50
f 50 42 41
f 7 2 1
f 20 15 9
f 1 2 3
f 3 4 1
f 15 4 3
f 57 56 55
f 40 39 46
f 35 27 34
f 34 39 35
f 47 55 45
f 47 46 55
f 40 46 47
f 52 42 51
f 42 50 51
f 51 49 52
f 51 50 49
f 6 7 1
f 2 7 6
f 18 21 11
f 11 6 18
f 2 6 11
f 33 30 25
f 20 9 19
f 10 9 15
f 15 3 10
f 2 9 10
f 10 3 2
f 53 57 58
f 58 57 55
f 48 49 40
f 40 47 48
f 32 25 31
f 32 33 25
f 24 25 14
f 25 19 14
f 49 48 54
f 54 47 45
f 54 48 47
f 22 11 21
f 22 23 11
f 12 23 24
f 2 11 12
f 11 23 12
f 8 19 9
f 8 14 19
f 8 9 2
f 2 14 8
f 24 14 13
f 13 12 24
f 13 14 2
f 2 12 13
f 57 38 45
f 57 44 38
f 57 53 44
f 45 56 57
f 19 30 20
f 25 30 19
f 44 53 32
f 55 46 32
f 32 37 44
f 32 31 37
f 53 58 32
f 32 26 20
f 27 26 32
f 20 30 32
f 32 34 27
f 32 46 39
f 39 34 32
f 30 33 32
f 32 58 55
f 18 6 54
f 45 38 54
f 54 29 18
f 17 28 54
f 38 29 54
f 54 5 17
f 1 5 54
f 54 36 43
f 43 52 54
f 54 28 36
f 52 49 54
f 54 6 1
f 18 29 22
f 37 31 22
f 22 29 37
f 31 25 22
f 22 25 24
f 22 21 18
f 24 23 22

