# https://github.com/mikedh/trimesh
v 0.01889589 0.03917922 0.07299151
v 0.01908163 0.03895418 0.07299151
v 0.01889589 0.03905647 0.07275963
v 0.01889589 -0.03020249 0.07299151
v 0.01921214 0.03878369 0.07299151
v 0.01889589 0.03789033 0.07098743
v 0.01889589 -0.03048890 0.07298758
v 0.01891105 -0.03048209 0.07299151
v 0.02009795 0.03755617 0.07299151
v 0.02030059 0.03632184 0.07188903
v 0.02008524 0.03591267 0.07098743
v 0.01889589 -0.03039343 0.07098743
v 0.01889589 -0.03048209 0.07269431
v 0.01976638 -0.02966374 0.07299151
v 0.02041611 0.03684013 0.07299151
v 0.02045653 0.03671056 0.07299151
v 0.02036837 0.03506024 0.07098743
v 0.01981447 -0.02930231 0.07098743
v 0.01988556 -0.02951371 0.07299151
v 0.02060167 0.03563989 0.07299151
v 0.02043388 0.03383954 0.07098743
v 0.02032046 -0.02847715 0.07098743
v 0.02034346 -0.02864764 0.07152415
v 0.02041176 -0.02877721 0.07269686
v 0.02043110 -0.02880448 0.07299151
v 0.02066928 0.03383954 0.07299151
v 0.02044765 0.03212785 0.07098743
v 0.02038806 -0.02772700 0.07098743
v 0.02061056 -0.02773382 0.07299151
v 0.02067520 0.00476115 0.07299151
v 0.02044782 0.03041615 0.07098743
v 0.02067538 0.00305627 0.07299151
v 0.02044974 -0.02602213 0.07098743
v 0.02067538 -0.02602213 0.07299151
v 0.02044887 0.00988942 0.07098743
v 0.02067590 -0.00207882 0.07299151
v 0.02044991 -0.02431725 0.07098743
v 0.02067555 -0.02461049 0.07299151
v 0.02044904 0.00646603 0.07098743
v 0.02067572 -0.02260555 0.07299151
v 0.02044991 -0.02089385 0.07098743
v 0.02044939 -0.00379052 0.07098743
v 0.02044922 0.00134457 0.07098743
f 28 29 22
f 5 9 6
f 24 25 18
f 3 5 6
f 27 26 30
f 28 33 34
f 34 29 28
f 20 17 16
f 20 26 21
f 21 17 20
f 21 26 27
f 8 4 7
f 7 13 8
f 23 18 22
f 24 18 23
f 23 22 29
f 29 25 23
f 23 25 24
f 2 3 1
f 5 3 2
f 36 27 32
f 27 30 32
f 31 27 36
f 10 11 6
f 6 9 10
f 17 11 10
f 10 16 17
f 14 13 12
f 14 8 13
f 12 18 14
f 36 39 35
f 35 31 36
f 36 41 42
f 15 10 9
f 16 10 15
f 19 18 25
f 19 14 18
f 43 39 36
f 36 42 43
f 36 40 37
f 37 41 36
f 38 37 40
f 33 37 38
f 38 34 33
f 3 4 1
f 3 13 7
f 7 4 3
f 6 12 3
f 12 13 3
f 37 12 6
f 37 33 28
f 28 22 37
f 37 21 27
f 37 18 12
f 6 11 37
f 22 18 37
f 27 31 37
f 17 21 37
f 37 11 17
f 39 43 37
f 37 35 39
f 31 35 37
f 37 42 41
f 37 43 42
f 1 4 38
f 38 2 1
f 4 8 38
f 38 15 9
f 20 16 38
f 9 5 38
f 38 26 20
f 38 25 29
f 38 30 26
f 29 34 38
f 38 40 36
f 36 32 38
f 5 2 38
f 38 32 30
f 8 14 38
f 38 19 25
f 16 15 38
f 14 19 38

