# https://github.com/mikedh/trimesh
v 0.00918152 0.04167073 0.08041963
v 0.00918152 0.03683276 0.08041963
v 0.00918152 0.04178662 0.07821378
v 0.00235444 0.04262247 0.06243482
v -0.00619600 0.04263028 0.06243482
v -0.00623524 0.04167073 0.08041963
v 0.00883745 0.03666883 0.08041963
v 0.00918152 0.03666883 0.07972642
v 0.00918152 0.04252519 0.06414643
v 0.00406423 0.04261947 0.06243482
v -0.00448471 0.04271554 0.06072534
v -0.00619600 0.04271855 0.06072534
v -0.00623524 0.04263028 0.06243482
v -0.00623524 0.03763979 0.08041963
v -0.00330310 0.03666883 0.08041963
v 0.00918152 0.03666883 0.07821378
v 0.00918152 0.04260686 0.06245193
v 0.00918152 0.04278940 0.05856656
v -0.00623524 0.04278700 0.05901586
v -0.00623524 0.04271855 0.06072534
v -0.00623524 0.03666943 0.07715044
v -0.00370904 0.03666883 0.07821378
v 0.00918152 0.03666943 0.05856228
v 0.00918152 0.04167493 0.05856228
v 0.00793804 0.04278820 0.05856228
v -0.00619600 0.04280261 0.05856228
v -0.00623524 0.04280261 0.05857298
v -0.00623524 0.03666943 0.05856228
v -0.00623524 0.04280261 0.05856228
f 22 21 28
f 15 14 21
f 21 22 15
f 7 8 2
f 10 9 17
f 17 18 10
f 26 18 25
f 12 18 19
f 19 20 12
f 11 18 12
f 11 10 18
f 9 10 4
f 4 3 9
f 4 12 5
f 4 5 1
f 1 3 4
f 4 11 12
f 10 11 4
f 24 25 18
f 26 29 27
f 27 18 26
f 27 19 18
f 6 1 13
f 1 5 13
f 6 14 2
f 2 1 6
f 2 15 7
f 14 15 2
f 7 15 16
f 16 8 7
f 16 15 22
f 28 23 16
f 16 22 28
f 20 13 5
f 5 12 20
f 24 16 23
f 24 3 1
f 1 2 24
f 17 9 24
f 24 18 17
f 24 2 8
f 8 16 24
f 9 3 24
f 28 29 24
f 24 29 26
f 24 23 28
f 26 25 24
f 28 21 27
f 27 14 6
f 27 29 28
f 21 14 27
f 6 13 27
f 13 20 27
f 20 19 27

