# https://github.com/mikedh/trimesh
v 0.01794079 0.03426182 0.05061228
v 0.01354139 0.03426182 0.05061228
v 0.01794079 0.03213088 0.05061228
v 0.01794079 0.03426182 0.03630445
v 0.01354139 0.03207435 0.05061228
v 0.01354139 0.03426182 0.03631740
v 0.01793992 0.03207435 0.05061228
v 0.01794079 0.03207435 0.04874892
v 0.01794079 0.03260264 0.03630445
v 0.01794035 0.03426182 0.03407361
v 0.01354139 0.03207435 0.03771289
v 0.01435142 0.03426182 0.03407361
v 0.01794079 0.03207435 0.03683383
v 0.01794079 0.03213088 0.03677717
v 0.01794035 0.03213281 0.03506437
v 0.01794035 0.03312279 0.03407361
v 0.01505035 0.03213281 0.03407361
v 0.01453530 0.03207435 0.03630445
v 0.01793863 0.03207435 0.03630445
v 0.01792959 0.03213281 0.03407361
f 8 3 7
f 12 11 6
f 12 17 11
f 11 17 18
f 15 14 13
f 9 14 15
f 19 15 13
f 20 15 19
f 16 15 20
f 9 15 16
f 2 6 11
f 11 5 2
f 3 1 2
f 2 5 3
f 5 7 3
f 14 4 1
f 1 3 14
f 14 8 13
f 14 9 4
f 3 8 14
f 12 6 2
f 2 1 12
f 1 4 12
f 12 4 10
f 19 7 5
f 5 11 19
f 13 8 19
f 19 8 7
f 11 18 19
f 17 20 19
f 19 18 17
f 16 12 10
f 17 12 16
f 16 20 17
f 10 4 16
f 4 9 16

