# https://github.com/mikedh/trimesh
v 0.00865116 -0.01799124 0.08270452
v 0.00896752 -0.02089627 0.08270452
v 0.00893639 -0.02089627 0.08155375
v 0.00862624 -0.01940673 0.08155375
v 0.00850916 -0.01908940 0.08155375
v 0.00851041 -0.01799124 0.08244240
v -0.00343812 -0.01799124 0.08270452
v 0.00897873 -0.02260601 0.08270452
v 0.00898372 -0.02260601 0.08155375
v 0.00790383 -0.01799124 0.08155375
v 0.00805952 -0.01799124 0.08174040
v -0.00279168 -0.01799124 0.08155375
v -0.00366979 -0.01980580 0.08155375
v -0.00368972 -0.01938750 0.08270452
v 0.00897375 -0.02266179 0.08270452
v 0.00888407 -0.02431576 0.08155375
v -0.00371587 -0.02061836 0.08155375
v -0.00370093 -0.01957021 0.08270452
v 0.00881308 -0.02431576 0.08270452
v 0.00867607 -0.02582068 0.08155375
v -0.00372335 -0.02089627 0.08155375
v -0.00373705 -0.02089627 0.08270452
v 0.00851788 -0.02542450 0.08270452
v 0.00717394 -0.02741888 0.08155375
v -0.00374078 -0.02230214 0.08155375
v -0.00374078 -0.02115109 0.08270452
v 0.00839084 -0.02552739 0.08270452
v 0.00834849 -0.02556104 0.08270452
v 0.00737322 -0.02624764 0.08270452
v 0.00722376 -0.02633034 0.08270452
v 0.00577643 -0.02676114 0.08270452
v 0.00579387 -0.02777756 0.08155375
v -0.00374078 -0.02260601 0.08155375
v -0.00374078 -0.02260601 0.08270452
v 0.00497306 -0.02678710 0.08270452
v 0.00577643 -0.02778044 0.08155375
v -0.00369470 -0.02385034 0.08155375
v -0.00373207 -0.02283295 0.08270452
v 0.00406630 -0.02680537 0.08270452
v 0.00406630 -0.02781410 0.08155375
v -0.00368473 -0.02407632 0.08155375
v -0.00368473 -0.02391092 0.08270452
v 0.00235616 -0.02680537 0.08270452
v 0.00235616 -0.02781506 0.08155375
v -0.00359506 -0.02493119 0.08155375
v -0.00354274 -0.02476675 0.08270452
v 0.00064603 -0.02680441 0.08270452
v 0.00064603 -0.02781410 0.08155375
v -0.00298474 -0.02603031 0.08155375
v -0.00343189 -0.02496581 0.08270452
v -0.00108653 -0.02675440 0.08270452
v -0.00126215 -0.02779391 0.08155375
v -0.00108403 -0.02779583 0.08155375
v -0.00224488 -0.02717751 0.08155375
v -0.00341570 -0.02498696 0.08270452
v -0.00271570 -0.02589472 0.08270452
f 56 54 52
f 3 4 1
f 1 4 5
f 20 23 24
f 7 12 13
f 11 5 10
f 9 3 2
f 2 8 9
f 2 3 1
f 9 8 16
f 23 20 19
f 20 16 19
f 30 31 24
f 46 42 45
f 45 49 46
f 45 42 41
f 1 5 6
f 5 11 6
f 15 16 8
f 15 19 16
f 24 31 32
f 31 36 32
f 29 30 24
f 56 52 51
f 52 47 51
f 50 49 54
f 50 46 49
f 7 13 14
f 13 18 14
f 17 18 13
f 39 40 36
f 44 40 39
f 28 29 24
f 53 47 52
f 53 48 47
f 55 54 56
f 55 50 54
f 37 41 42
f 33 37 34
f 35 36 31
f 35 39 36
f 44 39 43
f 43 48 44
f 47 48 43
f 24 23 27
f 27 28 24
f 38 37 42
f 38 34 37
f 26 21 25
f 21 26 22
f 17 21 22
f 18 17 22
f 6 7 1
f 10 12 6
f 6 12 7
f 6 11 10
f 24 32 21
f 10 5 21
f 54 49 21
f 9 16 21
f 44 48 21
f 21 3 9
f 21 33 25
f 21 52 54
f 21 12 10
f 4 3 21
f 21 5 4
f 21 20 24
f 21 49 45
f 21 13 12
f 21 16 20
f 21 40 44
f 45 41 21
f 36 40 21
f 21 32 36
f 41 37 21
f 21 53 52
f 21 17 13
f 48 53 21
f 21 37 33
f 25 33 26
f 33 34 26
f 22 15 8
f 1 7 22
f 22 27 23
f 22 2 1
f 23 19 22
f 56 51 22
f 8 2 22
f 47 43 22
f 31 30 22
f 7 14 22
f 42 46 22
f 22 55 56
f 19 15 22
f 30 29 22
f 22 51 47
f 46 50 22
f 22 14 18
f 22 35 31
f 29 28 22
f 50 55 22
f 22 38 42
f 39 35 22
f 22 43 39
f 28 27 22
f 34 38 22
f 22 26 34

