# https://github.com/mikedh/trimesh
v 0.02187191 -0.01878056 0.03808200
v 0.02187191 -0.01878056 0.03800798
v 0.02187102 -0.01878056 0.03848576
v 0.02185856 -0.01918573 0.03848576
v 0.02187102 -0.01878056 0.03629875
v 0.02159419 -0.01878056 0.03971914
v 0.02145711 -0.02089586 0.03848576
v 0.02145177 -0.02089586 0.03506633
v 0.02185589 -0.01918573 0.03677652
v 0.02147402 -0.01918573 0.04019692
v 0.02186835 -0.01878056 0.03466161
v 0.02148648 -0.01878056 0.04019692
v 0.02106544 -0.02089586 0.04019692
v 0.02053937 -0.02213314 0.04019692
v 0.02074143 -0.02247951 0.03848576
v 0.02074321 -0.02248354 0.03677652
v 0.02074410 -0.02247790 0.03506633
v 0.02144642 -0.02089586 0.03335517
v 0.02184699 -0.01918573 0.03335517
v 0.02093103 -0.01878056 0.04101308
v 0.02070227 -0.01918573 0.04132936
v 0.02049397 -0.02089586 0.04118612
v 0.02186390 -0.01878056 0.03335517
v 0.02033019 -0.02177790 0.04106500
v 0.01999371 -0.02298780 0.04019692
v 0.02023049 -0.02333337 0.03848576
v 0.02023316 -0.02333820 0.03677652
v 0.02022871 -0.02333175 0.03506633
v 0.02074410 -0.02246340 0.03335517
v 0.02069336 -0.02238366 0.03201989
v 0.02134673 -0.02089586 0.03201989
v 0.02174551 -0.01918573 0.03201989
v 0.02183542 -0.01878056 0.03295141
v 0.02070939 -0.01878056 0.04133320
v 0.01976139 -0.01878056 0.04163506
v 0.01946052 -0.01918573 0.04172350
v 0.01946052 -0.02089586 0.04157450
v 0.01940978 -0.02245132 0.04128802
v 0.01880537 -0.02366524 0.04117843
v 0.01913918 -0.02400598 0.04019692
v 0.01937506 -0.02424280 0.03848576
v 0.01937773 -0.02424119 0.03677652
v 0.01937328 -0.02423958 0.03506633
v 0.01936260 -0.02423877 0.03335517
v 0.02021803 -0.02331726 0.03335517
v 0.02016017 -0.02323831 0.03201989
v 0.02176421 -0.01878056 0.03201989
v 0.01946052 -0.01878056 0.04172735
v 0.01775056 -0.02089586 0.04183405
v 0.01775056 -0.02260598 0.04172735
v 0.01696812 -0.02521345 0.04108807
v 0.01818227 -0.02486063 0.04019692
v 0.01762237 -0.02426777 0.04130340
v 0.01850451 -0.02509826 0.03848576
v 0.01850005 -0.02509424 0.03335517
v 0.01930474 -0.02417997 0.03201989
v 0.01392829 -0.01878056 0.03201989
v 0.01822856 -0.01878056 0.04181194
v 0.01775056 -0.01918573 0.04183982
v 0.01604059 -0.02260598 0.04183598
v 0.01815468 -0.01878056 0.04181675
v 0.01432974 -0.02431610 0.04175138
v 0.01604059 -0.02431610 0.04161007
v 0.01604059 -0.02540275 0.04121977
v 0.01604059 -0.02603186 0.04019692
v 0.01732685 -0.02543981 0.04019692
v 0.01764997 -0.02564441 0.03848576
v 0.01764463 -0.02564602 0.03335517
v 0.01756808 -0.02558883 0.03201989
v 0.01842261 -0.02503543 0.03201989
v 0.01277911 -0.01881278 0.03201989
v 0.01277911 -0.01879908 0.03325807
v 0.01277911 -0.01879828 0.03335517
v 0.01277911 -0.01878458 0.03979412
v 0.01392383 -0.01878056 0.03335517
v 0.01775056 -0.01878056 0.04183982
v 0.01604059 -0.02089586 0.04183982
v 0.01432974 -0.02260598 0.04183982
v 0.01277911 -0.02415580 0.04178311
v 0.01277911 -0.02431610 0.04177445
v 0.01277911 -0.02556466 0.04141780
v 0.01432974 -0.02562669 0.04135724
v 0.01431728 -0.02653370 0.04009886
v 0.01373957 -0.02692035 0.03946343
v 0.01604059 -0.02643221 0.03848576
v 0.01604059 -0.02643704 0.03677652
v 0.01604059 -0.02643865 0.03506633
v 0.01604059 -0.02643463 0.03335517
v 0.01604059 -0.02633232 0.03201989
v 0.01277911 -0.02694613 0.03201989
v 0.01277911 -0.01878942 0.04015270
v 0.01435021 -0.01878056 0.04145145
v 0.01393808 -0.01878056 0.04019692
v 0.01392383 -0.01878056 0.03848576
v 0.01651860 -0.01878056 0.04182636
v 0.01277911 -0.02260598 0.04183982
v 0.01277911 -0.02568710 0.04138031
v 0.01277911 -0.02646282 0.04049974
v 0.01277911 -0.02654740 0.04038245
v 0.01277911 -0.02700493 0.03862611
v 0.01387844 -0.02693969 0.03848576
v 0.01473386 -0.02681403 0.03848576
v 0.01277911 -0.02694613 0.03954322
v 0.01474811 -0.02681886 0.03677652
v 0.01475167 -0.02681966 0.03506633
v 0.01472585 -0.02681564 0.03335517
v 0.01440629 -0.02677617 0.03201989
v 0.01321350 -0.02693163 0.03201989
v 0.01277911 -0.02700655 0.03335517
v 0.01277911 -0.01948780 0.04140338
v 0.01477659 -0.01878056 0.04156200
v 0.01604059 -0.01878056 0.04182060
v 0.01277911 -0.02244649 0.04183598
v 0.01277911 -0.02700896 0.03848576
v 0.01389268 -0.02693969 0.03677652
v 0.01389624 -0.02693969 0.03506633
v 0.01387043 -0.02693808 0.03335517
v 0.01372355 -0.02691794 0.03215928
v 0.01387221 -0.02687847 0.03201989
v 0.01359092 -0.02690988 0.03201989
v 0.01277911 -0.02700735 0.03356954
v 0.01277911 -0.02074119 0.04176099
v 0.01277911 -0.02089586 0.04179080
v 0.01277911 -0.02700896 0.03506633
f 31 18 30
f 18 31 19
f 92 91 110
f 32 19 31
f 30 18 29
f 72 57 71
f 72 73 57
f 57 73 74
f 91 92 74
f 33 23 19
f 33 32 47
f 19 32 33
f 11 9 19
f 19 23 11
f 18 19 8
f 19 9 8
f 16 7 15
f 100 84 103
f 114 101 100
f 101 84 100
f 103 84 99
f 117 121 109
f 102 84 101
f 93 74 92
f 9 11 5
f 30 29 45
f 17 8 7
f 7 16 17
f 17 29 18
f 18 8 17
f 4 10 7
f 9 5 4
f 4 8 9
f 7 8 4
f 24 38 39
f 39 38 50
f 88 89 69
f 106 89 88
f 124 121 116
f 121 117 116
f 114 124 116
f 54 41 40
f 74 93 94
f 111 92 110
f 110 112 111
f 96 76 95
f 95 112 96
f 30 45 46
f 46 45 56
f 70 55 69
f 56 55 70
f 56 45 44
f 44 55 56
f 27 17 16
f 27 16 15
f 3 4 1
f 1 4 2
f 2 4 5
f 37 21 36
f 37 50 38
f 36 50 37
f 34 21 20
f 10 12 20
f 20 21 10
f 7 10 13
f 25 39 40
f 25 24 39
f 10 21 22
f 22 13 10
f 24 13 22
f 21 37 22
f 38 24 22
f 22 37 38
f 63 50 62
f 35 48 36
f 35 21 34
f 36 21 35
f 63 62 82
f 53 51 39
f 39 50 53
f 53 50 63
f 67 54 66
f 107 89 106
f 106 117 118
f 119 107 118
f 118 107 106
f 118 117 109
f 68 88 69
f 69 55 68
f 68 54 67
f 55 54 68
f 67 66 85
f 84 102 85
f 115 101 114
f 114 116 115
f 57 74 75
f 74 94 75
f 122 112 110
f 122 123 112
f 96 112 113
f 112 123 113
f 41 54 42
f 42 54 55
f 42 27 41
f 29 17 28
f 17 27 28
f 28 45 29
f 28 44 45
f 26 27 15
f 41 27 26
f 40 41 26
f 26 25 40
f 6 12 10
f 10 4 6
f 4 3 6
f 14 13 24
f 24 25 14
f 15 7 14
f 7 13 14
f 14 26 15
f 25 26 14
f 81 62 80
f 97 82 81
f 81 82 62
f 80 62 60
f 60 62 50
f 61 76 59
f 98 82 97
f 99 82 98
f 63 82 64
f 64 53 63
f 51 53 64
f 52 54 40
f 52 66 54
f 51 66 52
f 40 39 52
f 39 51 52
f 119 118 120
f 87 68 67
f 88 68 87
f 105 115 116
f 105 117 106
f 105 116 117
f 106 88 105
f 88 87 105
f 55 44 43
f 43 42 55
f 27 42 43
f 44 28 43
f 43 28 27
f 80 60 79
f 77 60 59
f 59 60 49
f 49 60 50
f 49 50 36
f 58 61 49
f 49 61 59
f 48 58 49
f 36 48 49
f 51 64 65
f 65 66 51
f 84 85 65
f 65 85 66
f 83 82 99
f 83 64 82
f 83 65 64
f 83 99 84
f 84 65 83
f 108 120 118
f 108 109 90
f 108 118 109
f 104 102 101
f 101 115 104
f 115 105 104
f 104 85 102
f 96 79 78
f 78 79 60
f 60 77 78
f 86 105 87
f 86 104 105
f 85 104 86
f 67 85 86
f 86 87 67
f 47 57 61
f 61 33 47
f 61 3 1
f 12 6 61
f 61 95 76
f 34 20 61
f 23 33 61
f 61 11 23
f 61 93 92
f 92 111 61
f 61 5 11
f 1 2 61
f 61 35 34
f 61 94 93
f 61 111 112
f 112 95 61
f 57 75 61
f 61 2 5
f 61 20 12
f 48 35 61
f 61 58 48
f 61 75 94
f 61 6 3
f 109 121 79
f 71 90 79
f 96 113 79
f 110 91 79
f 79 124 114
f 90 109 79
f 114 100 79
f 79 72 71
f 97 81 79
f 91 74 79
f 73 72 79
f 79 74 73
f 79 121 124
f 79 100 103
f 103 99 79
f 79 98 97
f 79 122 110
f 123 122 79
f 79 113 123
f 79 81 80
f 99 98 79
f 108 90 71
f 108 31 30
f 71 57 108
f 108 57 47
f 47 32 108
f 89 107 108
f 108 32 31
f 30 46 108
f 69 89 108
f 108 70 69
f 108 46 56
f 56 70 108
f 108 107 119
f 119 120 108
f 78 76 96
f 59 76 78
f 78 77 59

