# https://github.com/mikedh/trimesh
v 0.01373193 -0.01844058 0.07098749
v 0.01521536 -0.01844058 0.07098749
v 0.01373193 -0.01844058 0.07158328
v 0.01373193 0.04210591 0.07098749
v 0.01521536 -0.01844058 0.07158328
v 0.01521536 0.04186292 0.07098749
v 0.01373193 0.04207035 0.07158328
v 0.01373193 0.04209406 0.07119536
v 0.01432902 0.04205257 0.07158328
v 0.01432873 0.04207035 0.07098749
v 0.01521536 0.04185106 0.07158328
v 0.01373294 0.04207035 0.07158328
f 11 6 10
f 11 10 9
f 9 10 4
f 4 8 9
f 12 8 7
f 12 9 8
f 1 2 5
f 5 3 1
f 2 6 5
f 5 6 11
f 1 4 10
f 10 2 1
f 10 6 2
f 8 4 1
f 1 3 8
f 3 7 8
f 3 5 12
f 12 5 11
f 12 7 3
f 11 9 12

