# https://github.com/mikedh/trimesh
v 0.01775161 0.00759797 0.03442535
v 0.01946251 0.00757112 0.03442535
v 0.02288072 0.00660173 0.02838041
v 0.02117102 0.00662233 0.02838041
v 0.01946251 0.00664231 0.02838041
v 0.01775161 0.00666103 0.02838041
v 0.01646753 0.00745440 0.03442535
v 0.02117102 0.00751932 0.03442535
v 0.02201748 0.00748561 0.03442535
v 0.02332434 0.00742319 0.03442535
v 0.02443456 0.00638888 0.02838041
v 0.01759455 0.00662795 0.02838041
v 0.01604071 0.00625780 0.02838041
v 0.01595678 0.00621597 0.02838041
v 0.01607428 0.00724404 0.03442535
v 0.02382430 0.00721782 0.03442535
v 0.02459163 0.00636703 0.02838041
v 0.01512471 0.00573159 0.02838041
v 0.01559589 0.00694193 0.03442535
v 0.02463719 0.00685766 0.03442535
v 0.02571864 0.00588015 0.02838041
v 0.01438615 0.00122108 0.02838041
v 0.01415715 0.00142957 0.03442535
v 0.01511152 0.00620224 0.03442535
v 0.02497409 0.00663731 0.03442535
v 0.02566709 0.00598377 0.03442535
v 0.02576660 0.00578340 0.02838041
v 0.01430702 0.00122108 0.03201944
v 0.02595484 0.00122108 0.02838041
v 0.02580856 0.00142957 0.03442535
v 0.02598841 0.00476220 0.03442535
v 0.02606514 0.00476220 0.03335494
v 0.02626057 0.00476158 0.02838041
v 0.02590208 0.00122108 0.03201944
v 0.02595963 0.00123419 0.02838041
v 0.02595484 0.00122108 0.02839876
v 0.02589489 0.00142957 0.03326618
v 0.02630733 0.00305250 0.03164430
v 0.02590208 0.00198199 0.03442535
v 0.02603397 0.00305250 0.03442535
v 0.02616106 0.00305250 0.03335494
v 0.02638286 0.00305250 0.02993484
v 0.02627855 0.00460490 0.02838041
v 0.02591167 0.00122108 0.03182595
v 0.02593565 0.00134218 0.03201944
v 0.02599680 0.00134218 0.02838041
v 0.02598841 0.00134218 0.02993484
v 0.02594644 0.00122108 0.02993484
v 0.02595364 0.00134218 0.03164430
v 0.02636967 0.00289583 0.02838041
v 0.02640564 0.00305250 0.02838041
v 0.02594524 0.00122108 0.03011058
f 18 22 23
f 23 22 28
f 24 18 23
f 18 24 19
f 42 38 49
f 49 47 42
f 37 38 30
f 49 38 37
f 30 34 37
f 32 26 31
f 31 38 32
f 38 42 32
f 44 47 49
f 18 19 15
f 31 40 41
f 41 38 31
f 49 37 45
f 45 37 34
f 34 44 45
f 45 44 49
f 16 17 10
f 10 17 11
f 11 3 10
f 6 7 1
f 21 20 25
f 25 26 21
f 26 27 21
f 21 16 20
f 17 16 21
f 26 32 33
f 33 27 26
f 47 46 50
f 51 42 50
f 50 42 47
f 35 46 47
f 47 44 52
f 39 41 40
f 30 38 39
f 38 41 39
f 2 3 1
f 2 8 3
f 10 3 9
f 3 8 9
f 5 6 1
f 43 42 51
f 43 32 42
f 43 33 32
f 48 35 47
f 47 52 48
f 1 3 4
f 4 5 1
f 7 6 12
f 12 13 7
f 14 15 7
f 7 13 14
f 18 15 14
f 29 35 36
f 35 48 36
f 34 30 23
f 23 28 34
f 23 30 9
f 9 19 24
f 9 24 23
f 9 16 10
f 1 7 9
f 30 39 9
f 9 26 25
f 31 26 9
f 25 20 9
f 9 40 31
f 7 15 9
f 9 15 19
f 20 16 9
f 9 2 1
f 9 39 40
f 8 2 9
f 22 18 14
f 17 21 14
f 14 29 22
f 14 11 17
f 14 12 6
f 14 43 51
f 51 50 14
f 3 11 14
f 14 35 29
f 14 21 27
f 27 33 14
f 14 50 46
f 46 35 14
f 6 5 14
f 14 4 3
f 33 43 14
f 5 4 14
f 13 12 14
f 22 29 36
f 36 34 28
f 36 28 22
f 36 44 34
f 36 52 44
f 36 48 52

