# https://github.com/mikedh/trimesh
v -0.00738422 -0.02944708 0.08145139
v -0.00738422 -0.03059470 0.08100696
v -0.00738422 -0.02768556 0.08115358
v -0.00778506 -0.02768620 0.08196684
v -0.00776823 -0.02944708 0.08196684
v -0.00786397 -0.02978153 0.08196684
v -0.00738422 -0.03087869 0.07953852
v -0.00819642 -0.03059470 0.08196684
v -0.00738422 -0.02768038 0.08115129
v -0.00815644 -0.02433135 0.08196684
v -0.00961883 -0.03088968 0.08196684
v -0.00738422 -0.03087933 0.07952707
v -0.00738422 -0.02648037 0.07957976
v -0.00814172 -0.02433135 0.07953623
v -0.01556201 -0.02433135 0.08196684
v -0.00738422 -0.02439410 0.07454674
v -0.01132951 -0.03093950 0.08196684
v -0.00738422 -0.03093950 0.07782725
v -0.00813540 -0.02433135 0.07748820
v -0.01556306 -0.02587357 0.08196684
v -0.01607227 -0.02433135 0.07782496
v -0.00738422 -0.02439410 0.05856569
v -0.01303808 -0.03093950 0.08196684
v -0.00738422 -0.03093950 0.05856569
v -0.01611330 -0.02433135 0.07748820
v -0.01556306 -0.02773666 0.08196684
v -0.01628374 -0.02602754 0.07611598
v -0.01607332 -0.02773666 0.07782725
v -0.01628268 -0.02439410 0.07611598
v -0.01813118 -0.02439410 0.05856569
v -0.01303808 -0.03093950 0.07748820
v -0.01407017 -0.03073313 0.08196684
v -0.01474770 -0.03070402 0.07953852
v -0.01474770 -0.03077453 0.07782725
v -0.01474876 -0.03078295 0.07748591
v -0.01474876 -0.03081464 0.07611598
v -0.01474876 -0.03082823 0.07440470
v -0.01474876 -0.03083211 0.06927547
v -0.01474876 -0.03083534 0.06414623
v -0.01474876 -0.03083599 0.06243495
v -0.01474876 -0.03083664 0.05901470
v -0.01348837 -0.03091297 0.05856569
v -0.01303703 -0.03093950 0.05856569
v -0.01668668 -0.02439410 0.07261783
v -0.01667827 -0.02439410 0.07269572
v -0.01648994 -0.02439410 0.07440470
v -0.01629215 -0.02439410 0.07603809
v -0.01565880 -0.02944708 0.08085577
v -0.01550836 -0.02909905 0.08196684
v -0.01628374 -0.02773666 0.07611598
v -0.01812592 -0.02602754 0.05856569
v -0.01808279 -0.02602754 0.05901470
v -0.01790814 -0.02602754 0.06072597
v -0.01685396 -0.02773666 0.07098445
v -0.01667827 -0.02773666 0.07269572
v -0.01472877 -0.03059405 0.08196684
v -0.01575875 -0.03045626 0.07782725
v -0.01496128 -0.03072019 0.07748591
v -0.01582398 -0.03049637 0.07611598
v -0.01586922 -0.03050995 0.07440470
v -0.01590288 -0.03051124 0.07269572
v -0.01593340 -0.03051254 0.07098445
v -0.01596180 -0.03051319 0.06927547
v -0.01598495 -0.03051448 0.06756648
v -0.01599757 -0.03051577 0.06585750
v -0.01600178 -0.03051642 0.06414623
v -0.01600494 -0.03051771 0.06072597
v -0.01600599 -0.03051836 0.05856569
v -0.01474876 -0.03083664 0.05856569
v -0.01648994 -0.02773666 0.07440470
v -0.01580820 -0.02944708 0.07953852
v -0.01562514 -0.03032882 0.08059690
v -0.01552414 -0.02944708 0.08171255
v -0.01548310 -0.02944708 0.08196684
v -0.01800809 -0.02773666 0.05856569
v -0.01798705 -0.02773666 0.05901470
v -0.01787237 -0.02773666 0.06072597
v -0.01772508 -0.02773666 0.06243495
v -0.01755570 -0.02773666 0.06414623
v -0.01736527 -0.02872966 0.06550013
v -0.01599336 -0.02944708 0.07782725
v -0.01506648 -0.03008235 0.08196684
v -0.01567879 -0.03038510 0.07953852
v -0.01751572 -0.02897872 0.06243495
v -0.01757569 -0.02903630 0.06072597
v -0.01685817 -0.02983393 0.06243495
v -0.01686027 -0.02989216 0.06072597
v -0.01686133 -0.02991286 0.05901470
v -0.01686133 -0.02991350 0.05856569
v -0.01743471 -0.02886810 0.06414623
v -0.01760620 -0.02905894 0.05856569
v -0.01760409 -0.02905764 0.05901470
v -0.01705912 -0.02968838 0.05856569
f 22 19 16
f 13 16 10
f 10 16 14
f 14 16 19
f 4 5 1
f 9 13 10
f 44 25 30
f 10 4 3
f 3 9 10
f 3 4 1
f 15 21 20
f 6 2 1
f 1 5 6
f 55 44 30
f 26 20 28
f 25 44 45
f 45 46 25
f 44 55 45
f 29 21 25
f 85 57 84
f 84 75 85
f 48 28 50
f 48 49 26
f 26 28 48
f 87 86 85
f 78 80 79
f 70 48 50
f 92 75 91
f 85 75 92
f 92 87 85
f 25 46 47
f 47 29 25
f 27 20 21
f 21 29 27
f 27 28 20
f 50 28 27
f 29 47 27
f 27 47 46
f 2 6 8
f 7 2 8
f 42 43 31
f 31 23 42
f 81 80 72
f 55 80 81
f 72 80 90
f 90 84 72
f 74 49 73
f 49 48 73
f 73 72 74
f 73 48 72
f 54 55 30
f 54 80 55
f 54 79 80
f 78 51 77
f 77 80 78
f 77 90 80
f 30 51 52
f 78 79 52
f 52 51 78
f 88 92 91
f 87 92 88
f 7 8 11
f 11 12 7
f 18 12 11
f 74 72 82
f 72 56 82
f 57 56 83
f 83 56 72
f 83 84 57
f 72 84 83
f 86 87 60
f 72 48 71
f 71 81 72
f 48 70 71
f 71 70 55
f 55 81 71
f 53 54 30
f 79 54 53
f 30 52 53
f 53 52 79
f 76 51 75
f 76 77 51
f 90 77 76
f 75 84 76
f 84 90 76
f 93 88 91
f 89 88 93
f 18 11 17
f 40 39 68
f 23 39 40
f 68 39 67
f 67 89 68
f 87 88 63
f 33 34 23
f 33 56 57
f 57 34 33
f 36 37 23
f 36 60 37
f 59 57 85
f 60 36 59
f 85 86 59
f 86 60 59
f 68 69 41
f 41 40 68
f 23 40 41
f 69 42 41
f 41 42 23
f 23 37 38
f 38 39 23
f 61 60 87
f 37 60 61
f 32 33 23
f 56 33 32
f 23 34 35
f 35 36 23
f 58 34 57
f 57 59 58
f 58 35 34
f 58 59 36
f 36 35 58
f 87 63 62
f 62 61 87
f 62 63 37
f 37 61 62
f 64 63 88
f 88 65 64
f 37 63 64
f 64 65 37
f 66 88 89
f 66 65 88
f 89 67 66
f 66 67 39
f 39 38 66
f 66 38 37
f 37 65 66
f 25 22 30
f 25 19 22
f 21 15 10
f 10 14 21
f 21 14 19
f 19 25 21
f 70 45 55
f 46 45 70
f 46 70 27
f 27 70 50
f 12 24 22
f 1 2 12
f 22 16 12
f 16 13 12
f 12 3 1
f 13 9 12
f 12 2 7
f 9 3 12
f 12 18 24
f 22 24 93
f 30 22 93
f 68 89 93
f 24 43 93
f 93 69 68
f 43 42 93
f 91 75 93
f 93 51 30
f 75 51 93
f 93 42 69
f 17 43 24
f 24 18 17
f 31 43 17
f 17 23 31
f 32 4 10
f 10 15 32
f 15 20 32
f 5 4 32
f 32 49 74
f 26 49 32
f 32 20 26
f 32 6 5
f 32 8 6
f 74 82 32
f 23 17 32
f 32 11 8
f 32 82 56
f 32 17 11

