# https://github.com/mikedh/trimesh
v 0.01504738 -0.01066974 0.02713853
v 0.01942790 -0.01107826 0.02713853
v 0.01504738 -0.01066974 0.02838041
v 0.01504738 0.00304764 0.02713853
v 0.01946237 -0.01106770 0.02713853
v 0.01679225 -0.01066974 0.02838041
v 0.01504738 0.00303883 0.02838041
v 0.01504738 0.00304059 0.02821740
v 0.01505182 0.00367451 0.02713853
v 0.01947016 -0.01106417 0.02713853
v 0.02116943 -0.00926454 0.02838041
v 0.01506072 0.00476099 0.02838041
v 0.01505961 0.00476099 0.02713853
v 0.02090809 -0.01035101 0.02713853
v 0.02129065 -0.00920643 0.02838041
v 0.01512300 0.00573124 0.02838041
v 0.01512300 0.00576998 0.02713853
v 0.02178219 -0.00947585 0.02713853
v 0.02234936 -0.00846862 0.02838041
v 0.01595706 0.00621548 0.02838041
v 0.01570462 0.00622605 0.02713853
v 0.02238939 -0.00878030 0.02713853
v 0.02296101 -0.00720958 0.02838041
v 0.01604047 0.00625599 0.02838041
v 0.01604047 0.00641975 0.02713853
v 0.02300438 -0.00720958 0.02713853
v 0.02557998 0.00015977 0.02838041
v 0.01759406 0.00662577 0.02838041
v 0.01775087 0.00691104 0.02713853
v 0.01712587 0.00675960 0.02713853
v 0.02599479 0.00133957 0.02713853
v 0.02599813 0.00133957 0.02822335
v 0.02599701 0.00133957 0.02838041
v 0.02595920 0.00123215 0.02838041
v 0.01775087 0.00666099 0.02838041
v 0.01883627 0.00690047 0.02713853
v 0.02639737 0.00304940 0.02713853
v 0.02640849 0.00304940 0.02822335
v 0.02636956 0.00289268 0.02838041
v 0.02117165 0.00687406 0.02713853
v 0.01946237 0.00664162 0.02838041
v 0.02636734 0.00413411 0.02713853
v 0.02640626 0.00304940 0.02838041
v 0.02288205 0.00659936 0.02838041
v 0.02288205 0.00684941 0.02713853
v 0.02631618 0.00476099 0.02713853
v 0.02627837 0.00460250 0.02838041
v 0.02443453 0.00638805 0.02838041
v 0.02459244 0.00659056 0.02713853
v 0.02459244 0.00636516 0.02838041
v 0.02597922 0.00556924 0.02713853
v 0.02626836 0.00476099 0.02822335
v 0.02626058 0.00476099 0.02838041
v 0.02578016 0.00597953 0.02713853
v 0.02571788 0.00587915 0.02838041
v 0.02576681 0.00578230 0.02838041
f 38 39 33
f 55 54 49
f 31 37 38
f 6 5 11
f 14 18 19
f 2 6 3
f 2 5 6
f 2 3 1
f 13 12 17
f 12 13 7
f 38 37 42
f 28 35 29
f 29 24 28
f 17 12 16
f 49 45 50
f 50 55 49
f 38 33 32
f 32 31 38
f 15 14 19
f 9 7 13
f 30 24 29
f 30 25 24
f 17 16 21
f 24 25 20
f 25 21 20
f 20 21 16
f 29 35 36
f 35 40 36
f 41 40 35
f 43 39 38
f 43 42 46
f 38 42 43
f 54 55 56
f 56 51 54
f 53 51 56
f 26 32 33
f 31 32 26
f 14 15 10
f 10 15 11
f 10 11 5
f 8 9 4
f 7 9 8
f 45 40 44
f 40 41 44
f 47 43 46
f 19 18 22
f 22 23 19
f 26 23 22
f 48 50 45
f 45 44 48
f 53 47 52
f 52 47 46
f 46 51 52
f 52 51 53
f 27 23 26
f 34 26 33
f 34 27 26
f 8 4 1
f 3 7 8
f 1 3 8
f 18 14 22
f 22 13 17
f 22 42 37
f 1 4 22
f 4 9 22
f 22 2 1
f 49 54 22
f 37 31 22
f 29 36 22
f 22 45 49
f 54 51 22
f 22 10 5
f 5 2 22
f 17 21 22
f 46 42 22
f 22 30 29
f 22 40 45
f 22 9 13
f 25 30 22
f 22 21 25
f 22 36 40
f 22 51 46
f 31 26 22
f 14 10 22
f 24 20 34
f 3 6 34
f 34 47 53
f 34 7 3
f 34 33 39
f 34 41 35
f 35 28 34
f 34 16 12
f 6 11 34
f 12 7 34
f 34 28 24
f 34 15 19
f 55 50 34
f 39 43 34
f 11 15 34
f 34 20 16
f 34 56 55
f 19 23 34
f 53 56 34
f 34 44 41
f 43 47 34
f 50 48 34
f 34 48 44
f 23 27 34

