# https://github.com/mikedh/trimesh
v 0.02440614 0.01573594 0.01624920
v 0.02432129 0.01573594 0.01553890
v 0.02435506 0.01949608 0.01624920
v 0.02418454 0.01573594 0.01703091
v 0.02413100 0.01573594 0.01453913
v 0.02412441 0.01949608 0.01453913
v 0.02399096 0.01949608 0.01742240
v 0.02403544 0.01573594 0.01750146
v 0.02398107 0.01573594 0.01416166
v 0.02376030 0.01949608 0.01363245
v 0.02288216 0.01949608 0.01808806
v 0.02331711 0.01573594 0.01796564
v 0.02376030 0.01573594 0.01363245
v 0.02359884 0.01573594 0.01327666
v 0.02337148 0.01949608 0.01277677
v 0.02222067 0.01949608 0.01823089
v 0.02283109 0.01573594 0.01824491
v 0.02337148 0.01573594 0.01277677
v 0.02285745 0.01949608 0.01176043
v 0.02117119 0.01949608 0.01844257
v 0.02117119 0.01573594 0.01854204
v 0.02302055 0.01573594 0.01208816
v 0.02253288 0.01949608 0.01111899
v 0.02051052 0.01949608 0.01845405
v 0.01946186 0.01573594 0.01856244
v 0.02252547 0.01573594 0.01111899
v 0.02223220 0.01949608 0.01057702
v 0.01775089 0.01949608 0.01847700
v 0.01775089 0.01573594 0.01858285
v 0.02232200 0.01573594 0.01075683
v 0.02204356 0.01949608 0.01023909
v 0.01709022 0.01949608 0.01828827
v 0.01675330 0.01573594 0.01835076
v 0.02203615 0.01573594 0.01024929
v 0.02146363 0.01573594 0.00939489
v 0.02146280 0.01673597 0.00939107
v 0.02146198 0.01844636 0.00938597
v 0.02146033 0.01949608 0.00938342
v 0.01602179 0.01573594 0.01813397
v 0.01604074 0.01949608 0.01796437
v 0.02060855 0.01573594 0.00815793
v 0.02060773 0.01673597 0.00815921
v 0.02060608 0.01844636 0.00816176
v 0.02060443 0.01949608 0.00816431
v 0.01599049 0.01949608 0.01793121
v 0.01601190 0.01573594 0.01812504
v 0.01983668 0.01573594 0.00730353
v 0.01983668 0.01673597 0.00730481
v 0.01983668 0.01844636 0.00730736
v 0.01983668 0.01949608 0.00730991
v 0.02013406 0.01949608 0.00764019
v 0.01599049 0.01573594 0.01810337
v 0.01599049 0.01949608 0.00555648
v 0.01948163 0.01573594 0.00701279
v 0.01931193 0.01949608 0.00687634
v 0.01599049 0.01573594 0.00555648
v 0.01623185 0.01949608 0.00555648
v 0.01898160 0.01573594 0.00660599
v 0.01898160 0.01949608 0.00660599
v 0.01645921 0.01573925 0.00555648
v 0.01646086 0.01573594 0.00556159
v 0.01640732 0.01844636 0.00555648
v 0.01645509 0.01674222 0.00555648
f 1 3 4
f 8 4 7
f 7 4 3
f 8 7 12
f 17 12 11
f 11 12 7
f 2 6 3
f 2 3 1
f 38 43 44
f 58 60 59
f 16 20 17
f 17 11 16
f 45 52 46
f 46 39 45
f 45 39 40
f 29 24 28
f 37 38 31
f 56 60 61
f 61 60 58
f 32 40 39
f 33 29 28
f 28 32 33
f 33 32 39
f 20 24 21
f 17 20 21
f 6 2 5
f 59 62 57
f 63 59 60
f 63 62 59
f 44 43 51
f 24 29 25
f 25 21 24
f 9 10 6
f 6 5 9
f 13 10 9
f 50 51 42
f 42 51 43
f 43 38 42
f 58 59 54
f 59 55 54
f 54 55 47
f 27 26 31
f 27 23 26
f 15 18 19
f 19 18 23
f 26 23 22
f 23 18 22
f 15 10 14
f 14 10 13
f 14 18 15
f 31 26 30
f 30 34 31
f 50 42 49
f 49 55 50
f 41 49 42
f 38 37 41
f 41 42 38
f 48 41 47
f 49 41 48
f 47 55 48
f 55 49 48
f 31 34 35
f 36 35 41
f 36 41 37
f 36 37 31
f 31 35 36
f 45 53 52
f 53 56 52
f 63 56 53
f 63 60 56
f 53 57 63
f 63 57 62
f 19 53 45
f 19 7 3
f 19 38 44
f 20 16 19
f 3 6 19
f 19 24 20
f 19 10 15
f 19 32 28
f 44 51 19
f 19 11 7
f 28 24 19
f 31 38 19
f 45 40 19
f 19 16 11
f 19 57 53
f 19 27 31
f 40 32 19
f 6 10 19
f 59 57 19
f 19 51 50
f 19 55 59
f 50 55 19
f 23 27 19
f 35 52 56
f 1 4 35
f 35 46 52
f 35 12 17
f 35 4 8
f 35 5 2
f 8 12 35
f 35 2 1
f 35 33 39
f 39 46 35
f 56 61 35
f 17 21 35
f 35 61 58
f 29 33 35
f 35 14 13
f 35 25 29
f 13 9 35
f 26 22 35
f 21 25 35
f 35 9 5
f 58 54 35
f 35 30 26
f 35 54 47
f 35 22 18
f 18 14 35
f 34 30 35
f 47 41 35

