# https://github.com/mikedh/trimesh
v -0.00623524 0.03896938 0.08041998
v -0.00623524 0.03896938 0.08402201
v -0.00623524 0.04167081 0.08041998
v 0.00918152 0.03896938 0.08041998
v -0.00623524 0.04012426 0.08396594
v 0.00918152 0.03896938 0.08399979
v 0.00918152 0.04016288 0.08396136
v 0.00918152 0.04017345 0.08396101
v -0.00623524 0.04162744 0.08124970
v 0.00918152 0.04167081 0.08041998
v -0.00623524 0.04016631 0.08395642
v 0.00918152 0.04102844 0.08306782
v -0.00623524 0.04100226 0.08310096
v -0.00623524 0.04162585 0.08127332
v 0.00918152 0.04162691 0.08125922
v 0.00918152 0.04162744 0.08124970
v 0.00918152 0.04156053 0.08221271
v -0.00623524 0.04155419 0.08223351
v -0.00623524 0.04156053 0.08221447
f 12 13 8
f 17 15 19
f 2 6 7
f 7 8 2
f 11 8 13
f 15 16 9
f 12 17 18
f 17 19 18
f 18 13 12
f 2 8 5
f 8 11 5
f 14 19 15
f 15 9 14
f 1 3 10
f 10 4 1
f 1 4 6
f 6 2 1
f 4 10 16
f 16 6 4
f 16 17 12
f 12 8 16
f 16 7 6
f 16 15 17
f 8 7 16
f 9 10 3
f 9 16 10
f 14 3 1
f 1 2 14
f 13 18 14
f 14 9 3
f 14 11 13
f 2 5 14
f 14 18 19
f 14 5 11

