# https://github.com/mikedh/trimesh
v -0.00378743 -0.01581849 0.00021192
v -0.00378743 -0.00110637 0.00021192
v -0.00188991 -0.01581849 0.00021192
v -0.00378743 -0.01581849 0.02309363
v -0.00378743 -0.00018189 0.00028584
v -0.00188991 -0.00160994 0.00021192
v -0.00188991 -0.01581849 0.02309363
v -0.00378743 -0.00018189 0.02309363
v -0.00188991 -0.00018189 0.00047846
v -0.00188991 -0.00074668 0.02309363
v -0.00212450 -0.00018189 0.02309363
v -0.00188991 -0.00018189 0.02309139
f 6 2 5
f 5 9 6
f 11 10 12
f 7 4 1
f 1 3 7
f 8 2 1
f 1 4 8
f 5 2 8
f 1 2 6
f 6 3 1
f 10 7 3
f 3 6 10
f 10 9 12
f 10 6 9
f 12 9 11
f 5 8 11
f 11 9 5
f 4 7 11
f 11 8 4
f 7 10 11

