# https://github.com/mikedh/trimesh
v -0.00378743 -0.01581849 -0.00094067
v -0.00188991 -0.01581849 -0.00094067
v -0.00378743 -0.01581849 0.00021192
v -0.00378743 -0.00550213 -0.00094067
v -0.00188991 -0.01581849 0.00021192
v -0.00188991 -0.00550213 -0.00094067
v -0.00378743 -0.00110510 0.00021192
v -0.00378743 -0.00448964 -0.00092792
v -0.00188991 -0.00161062 0.00021192
v -0.00188991 -0.00467687 -0.00091991
v -0.00188991 -0.00241283 -0.00042705
v -0.00378743 -0.00219392 -0.00050028
v -0.00378743 -0.00379113 -0.00091021
v -0.00188991 -0.00379113 -0.00089745
v -0.00378743 -0.00272680 -0.00068386
f 7 9 11
f 7 11 12
f 6 4 8
f 13 14 8
f 15 14 13
f 11 14 15
f 15 12 11
f 6 8 10
f 10 8 14
f 5 3 1
f 1 2 5
f 3 5 9
f 7 3 9
f 4 2 1
f 4 6 2
f 1 3 15
f 15 3 7
f 15 4 1
f 7 12 15
f 13 8 15
f 15 8 4
f 10 5 2
f 10 9 5
f 2 6 10
f 10 11 9
f 10 14 11

