# https://github.com/mikedh/trimesh
v -0.01683423 -0.02994082 0.04463700
v -0.01651816 -0.03016274 0.04463700
v -0.01601065 -0.03051985 0.04532876
v -0.01683646 -0.02994082 0.04608103
v 0.00542481 -0.02994082 0.04463700
v -0.01600842 -0.03051995 0.04463700
v -0.01601065 -0.03051985 0.04608103
v -0.01638683 -0.03025613 0.04608103
v -0.01525829 -0.03070976 0.04463700
v -0.01474856 -0.03083868 0.04463700
v 0.00590338 -0.02994082 0.04608103
v 0.00521335 -0.03053747 0.04463700
v -0.01474856 -0.03083868 0.04532876
v -0.01474856 -0.03083858 0.04608103
v -0.01303684 -0.03094078 0.04463700
v 0.00549604 -0.03057653 0.04608103
v 0.00477707 -0.03066639 0.04463700
v -0.01303684 -0.03094078 0.04608103
v -0.01399621 -0.03088351 0.04608103
v 0.00235529 -0.03094078 0.04463700
v 0.00483717 -0.03075244 0.04608103
v 0.00406478 -0.03085630 0.04463700
v 0.00235529 -0.03094078 0.04608103
v 0.00310764 -0.03091562 0.04608103
v 0.00406478 -0.03086824 0.04608103
f 25 22 21
f 12 5 11
f 11 16 12
f 23 20 24
f 24 20 22
f 24 22 25
f 17 12 16
f 16 21 17
f 17 21 22
f 19 13 18
f 14 13 19
f 3 2 6
f 3 8 4
f 4 1 3
f 1 2 3
f 9 3 6
f 10 3 9
f 7 13 14
f 8 3 7
f 5 1 4
f 4 11 5
f 20 23 18
f 20 18 15
f 13 10 15
f 15 18 13
f 1 5 9
f 9 2 1
f 15 10 9
f 6 2 9
f 9 17 22
f 9 20 15
f 22 20 9
f 5 12 9
f 12 17 9
f 10 13 7
f 7 3 10
f 7 11 4
f 18 23 7
f 4 8 7
f 7 16 11
f 25 21 7
f 7 24 25
f 7 19 18
f 7 21 16
f 23 24 7
f 14 19 7

