# https://github.com/mikedh/trimesh
v -0.00643082 0.01232117 -0.00094078
v -0.00643082 0.01955230 -0.00094078
v -0.00537371 0.01232117 -0.00094078
v -0.00643082 0.01232117 0.01309952
v -0.00537371 0.01955230 -0.00094078
v -0.00643082 0.01955230 0.01259783
v -0.00537371 0.01232117 0.01293321
v -0.00537371 0.01955230 0.01181026
v -0.00537371 0.01954947 0.01195183
v -0.00544274 0.01955230 0.01197245
f 4 7 6
f 6 7 9
f 9 8 10
f 10 6 9
f 1 2 5
f 5 3 1
f 1 3 7
f 7 4 1
f 6 2 1
f 1 4 6
f 3 5 8
f 8 7 3
f 9 7 8
f 10 5 2
f 2 6 10
f 10 8 5

