# https://github.com/mikedh/trimesh
v -0.00713629 0.00175220 0.03534617
v -0.00597642 0.00125298 0.03534617
v -0.00713629 0.00152819 0.03336277
v -0.00713629 -0.03094078 0.03534617
v -0.00597642 0.00074735 0.03334942
v -0.00597642 -0.03094078 0.03534617
v -0.00713629 0.00112497 0.03201989
v -0.00713629 -0.03094078 0.03201989
v -0.00597642 0.00034413 0.03201989
v -0.00597642 -0.03094078 0.03201989
f 1 2 3
f 7 3 5
f 5 9 7
f 5 3 2
f 1 4 6
f 6 2 1
f 1 3 8
f 8 4 1
f 8 3 7
f 8 6 4
f 10 6 8
f 8 9 10
f 7 9 8
f 2 6 5
f 5 6 10
f 10 9 5

