# https://github.com/mikedh/trimesh
v -0.00738305 -0.03094031 0.07614215
v -0.00738305 -0.02608721 0.07614215
v -0.00623535 -0.03094031 0.07614215
v -0.00738305 -0.03094031 0.07782882
v -0.00623535 -0.02684174 0.07614215
v -0.00738305 -0.02613901 0.07752475
v -0.00623535 -0.03094031 0.07782882
v -0.00738305 -0.03087996 0.07952692
v -0.00623535 -0.02686217 0.07656005
v -0.00623535 -0.02693677 0.07782882
v -0.00738305 -0.02636232 0.07924468
v -0.00623535 -0.02709594 0.07942505
v -0.00623535 -0.03086618 0.07953888
v -0.00738305 -0.03087949 0.07953888
v -0.00738305 -0.02647968 0.07958046
v -0.00623535 -0.02796260 0.08070473
v -0.00623535 -0.03054831 0.08065639
v -0.00738305 -0.03059535 0.08100828
v -0.00738305 -0.02768131 0.08115329
v -0.00738305 -0.02768606 0.08115433
v -0.00623535 -0.02944789 0.08095682
v -0.00738305 -0.02944789 0.08145164
f 22 18 17
f 12 10 6
f 6 5 2
f 18 14 13
f 13 17 18
f 11 15 12
f 12 6 11
f 5 6 9
f 9 6 10
f 15 19 16
f 12 15 16
f 7 13 14
f 22 17 21
f 4 7 8
f 8 7 14
f 22 21 20
f 20 21 16
f 20 16 19
f 1 2 5
f 5 3 1
f 1 3 7
f 7 4 1
f 3 5 21
f 21 10 12
f 5 9 21
f 12 16 21
f 17 13 21
f 21 9 10
f 21 7 3
f 13 7 21
f 20 8 14
f 20 2 1
f 20 18 22
f 20 6 2
f 20 14 18
f 1 4 20
f 20 19 15
f 15 11 20
f 20 11 6
f 4 8 20

