# https://github.com/mikedh/trimesh
v -0.00623524 0.03424932 0.05856339
v -0.00623524 0.03666883 0.05856339
v -0.00501557 0.03424932 0.05856339
v -0.00623524 0.03424932 0.07667788
v -0.00501557 0.03666883 0.05856339
v -0.00623524 0.03666883 0.07715022
v -0.00501557 0.03424932 0.07667420
v -0.00501736 0.03424932 0.07688372
v -0.00542773 0.03666883 0.07732115
v -0.00501557 0.03666883 0.07733769
v -0.00501557 0.03438384 0.07683594
f 9 8 10
f 9 4 8
f 6 4 9
f 8 7 11
f 10 8 11
f 1 2 5
f 5 3 1
f 1 3 4
f 3 7 4
f 4 7 8
f 4 2 1
f 4 6 2
f 9 5 2
f 2 6 9
f 10 5 9
f 3 5 11
f 11 5 10
f 11 7 3

