# https://github.com/mikedh/trimesh
v 0.01604205 0.04166561 0.08052448
v 0.01604205 0.04156034 0.08252444
v 0.01774928 0.04143354 0.08481821
v 0.01774928 0.04144131 0.08467025
v 0.01722608 0.04155257 0.08238447
v 0.01776708 0.04160162 0.08052448
v 0.01047545 0.04166561 0.08052448
v 0.01604205 0.04151249 0.08342858
v 0.01433007 0.04156034 0.08252444
v 0.01836621 0.04152745 0.08170142
v 0.01604086 0.04143833 0.08481821
v 0.01946007 0.04120685 0.08481821
v 0.01777064 0.04149096 0.08342858
v 0.01777776 0.04150950 0.08295654
v 0.01777776 0.04157649 0.08117852
v 0.01861536 0.04154240 0.08056105
v 0.01861654 0.04154240 0.08052448
v 0.01047545 0.03689135 0.08052448
v 0.01047545 0.04162734 0.08124998
v 0.01433007 0.04151249 0.08342858
v 0.01433126 0.04143833 0.08481821
v 0.02101189 0.04040596 0.08481821
v 0.01946007 0.04120864 0.08467025
v 0.01946007 0.04119967 0.08342858
v 0.01946007 0.04119608 0.08295949
v 0.01903060 0.04136236 0.08052448
v 0.01049443 0.03635662 0.08052448
v 0.01047545 0.03693561 0.08118693
v 0.01047545 0.04156034 0.08229241
v 0.01261928 0.04137672 0.08481821
v 0.02100358 0.04040416 0.08467025
v 0.01937228 0.04117934 0.08052448
v 0.02108545 0.04034494 0.08481821
v 0.01929635 0.04123735 0.08117852
v 0.01070086 0.03556111 0.08052448
v 0.01047545 0.03719400 0.08342858
v 0.01047545 0.03706301 0.08288382
v 0.01047545 0.04123795 0.08314737
v 0.01099153 0.04059197 0.08481821
v 0.02090986 0.04036528 0.08295949
v 0.02080427 0.04031504 0.08124998
v 0.02075444 0.04028214 0.08052448
v 0.02186847 0.03953747 0.08481821
v 0.01103899 0.03555512 0.08342858
v 0.01105204 0.03555512 0.08481821
v 0.02188033 0.03556111 0.08052448
v 0.01067239 0.03739676 0.08465596
v 0.01067239 0.03791953 0.08481821
v 0.01047545 0.04099332 0.08342858
v 0.01067239 0.04054233 0.08449666
v 0.01067239 0.03945254 0.08481821
v 0.02185898 0.03951953 0.08467025
v 0.02179017 0.03932633 0.08342858
v 0.02176407 0.03925276 0.08295949
v 0.02123730 0.03947287 0.08052448
v 0.02225998 0.03868155 0.08481821
v 0.02237388 0.03555512 0.08342858
v 0.02259455 0.03555512 0.08481821
v 0.01070917 0.03738361 0.08481821
v 0.02187559 0.03600312 0.08052448
v 0.02208914 0.03556111 0.08172790
v 0.02224930 0.03866420 0.08467025
v 0.02168814 0.03885082 0.08132648
v 0.02154102 0.03890525 0.08052448
v 0.02213067 0.03839863 0.08295949
v 0.02229439 0.03854398 0.08481821
v 0.02229676 0.03556111 0.08295949
v 0.02237388 0.03556111 0.08342858
v 0.02257438 0.03555512 0.08466689
v 0.02254946 0.03711505 0.08481821
v 0.02207846 0.03726219 0.08180062
v 0.02185542 0.03726219 0.08052448
v 0.02205474 0.03820065 0.08194774
v 0.02254472 0.03726278 0.08481821
v 0.02233710 0.03726278 0.08342858
v 0.02252337 0.03726278 0.08467025
v 0.02226591 0.03726219 0.08295949
f 39 30 38
f 45 35 44
f 45 36 35
f 35 36 27
f 3 1 2
f 2 8 3
f 30 21 29
f 29 38 30
f 3 8 11
f 39 38 50
f 19 29 21
f 21 20 19
f 49 50 38
f 37 27 36
f 61 57 46
f 72 64 73
f 73 71 72
f 58 69 70
f 5 6 1
f 3 12 10
f 7 19 9
f 9 19 20
f 39 50 51
f 50 49 51
f 28 18 27
f 27 37 28
f 57 61 67
f 67 61 71
f 60 72 71
f 60 61 46
f 71 61 60
f 69 71 77
f 77 71 73
f 4 1 3
f 4 5 1
f 3 10 4
f 17 6 16
f 6 10 16
f 16 10 12
f 47 48 36
f 47 59 48
f 45 59 47
f 36 45 47
f 57 67 68
f 68 67 71
f 68 69 57
f 68 71 69
f 69 77 75
f 75 77 73
f 6 5 14
f 22 32 25
f 54 55 42
f 64 55 54
f 54 63 64
f 76 70 69
f 69 75 76
f 74 70 76
f 73 74 76
f 76 75 73
f 5 4 13
f 13 14 5
f 13 4 10
f 10 14 13
f 15 10 6
f 6 14 15
f 15 14 10
f 42 32 41
f 32 40 41
f 41 43 42
f 41 40 43
f 43 40 33
f 12 22 23
f 17 16 23
f 23 16 12
f 17 25 26
f 42 43 52
f 63 54 65
f 73 64 65
f 64 63 65
f 65 66 74
f 65 74 73
f 22 33 31
f 31 33 40
f 31 32 22
f 31 40 32
f 22 25 24
f 24 23 22
f 24 25 17
f 17 23 24
f 32 26 34
f 34 25 32
f 34 26 25
f 53 54 42
f 42 52 53
f 56 52 43
f 62 53 52
f 52 56 62
f 54 53 62
f 62 65 54
f 62 56 66
f 66 65 62
f 57 35 46
f 44 35 57
f 44 57 45
f 45 69 58
f 57 69 45
f 8 20 11
f 11 20 21
f 9 1 7
f 9 2 1
f 9 20 8
f 8 2 9
f 51 49 36
f 36 48 51
f 28 19 7
f 7 18 28
f 38 29 28
f 36 49 28
f 29 19 28
f 28 49 38
f 28 37 36
f 46 35 26
f 26 18 7
f 7 1 26
f 1 6 26
f 35 27 26
f 42 55 26
f 27 18 26
f 26 60 46
f 26 6 17
f 64 72 26
f 72 60 26
f 26 55 64
f 26 32 42
f 56 45 58
f 3 11 56
f 56 30 39
f 56 21 30
f 56 12 3
f 56 11 21
f 56 59 45
f 58 70 56
f 39 51 56
f 56 70 74
f 56 22 12
f 56 51 48
f 48 59 56
f 74 66 56
f 56 33 22
f 43 33 56

