# https://github.com/mikedh/trimesh
v 0.01603952 0.02772164 0.03681278
v 0.01689348 0.02772164 0.03712199
v 0.01474115 0.02772164 0.03718027
v 0.01603995 0.02929565 0.03407361
v 0.01706142 0.02936949 0.03407361
v 0.01709803 0.02772164 0.03723855
v 0.01354139 0.02772164 0.03788935
v 0.01526825 0.02943858 0.03407361
v 0.01728966 0.02976634 0.03407361
v 0.01732670 0.02772164 0.03775174
v 0.01354139 0.02772164 0.05061228
v 0.01354139 0.02870966 0.03774203
v 0.01513561 0.02963031 0.03407361
v 0.01514509 0.02949256 0.03407361
v 0.01752737 0.03033851 0.03407361
v 0.01779179 0.02772164 0.03947587
v 0.01793992 0.02772164 0.05061228
v 0.01354139 0.03207402 0.05061228
v 0.01354139 0.03207402 0.03771289
v 0.01505035 0.03213275 0.03407361
v 0.01508824 0.03041105 0.03407361
v 0.01783442 0.03141160 0.03407361
v 0.01793562 0.02772164 0.04118705
v 0.01794079 0.02772164 0.04361701
v 0.01794079 0.02871009 0.04703775
v 0.01794079 0.03041969 0.04874892
v 0.01793992 0.03207402 0.05061228
v 0.01453444 0.03213275 0.03630445
v 0.01792959 0.03213275 0.03407361
v 0.01792959 0.03213015 0.03407361
v 0.01793906 0.02772164 0.04190908
v 0.01794035 0.03213015 0.03506599
v 0.01794079 0.02772164 0.04289660
v 0.01794079 0.03207402 0.04874892
v 0.01794035 0.03213275 0.03630445
v 0.01794035 0.03213275 0.03506437
v 0.01794079 0.03207402 0.03683383
v 0.01794079 0.03041969 0.03848834
f 12 19 20
f 20 21 12
f 28 19 18
f 20 19 28
f 25 17 24
f 25 26 17
f 5 1 4
f 1 3 4
f 5 6 2
f 2 1 5
f 10 6 5
f 22 23 16
f 34 35 27
f 13 12 21
f 7 12 13
f 13 14 7
f 8 4 3
f 8 3 7
f 7 14 8
f 32 31 23
f 16 10 9
f 9 10 5
f 33 32 38
f 31 32 33
f 38 32 37
f 23 22 30
f 30 32 23
f 15 22 16
f 16 9 15
f 36 37 32
f 32 30 36
f 29 36 30
f 17 18 11
f 27 18 17
f 7 11 12
f 11 18 12
f 18 19 12
f 28 18 27
f 27 35 28
f 27 17 34
f 17 26 34
f 33 11 7
f 24 17 33
f 33 17 11
f 33 2 6
f 7 3 33
f 6 10 33
f 33 3 1
f 1 2 33
f 16 23 33
f 33 10 16
f 23 31 33
f 37 25 24
f 37 34 26
f 26 25 37
f 24 33 37
f 37 33 38
f 34 37 36
f 35 34 36
f 29 21 20
f 5 4 29
f 29 9 5
f 14 13 29
f 29 8 14
f 29 13 21
f 4 8 29
f 22 15 29
f 29 30 22
f 29 15 9
f 29 28 35
f 35 36 29
f 20 28 29

