# https://github.com/mikedh/trimesh
v 0.01043828 -0.01498970 0.07610997
v 0.01043828 -0.01498970 0.07848733
v 0.01043828 -0.01155424 0.07610997
v 0.02016776 -0.01498970 0.07610997
v 0.01097582 -0.01498970 0.08052378
v 0.01097582 -0.01477885 0.08052378
v 0.01101166 -0.01155424 0.08052378
v 0.01054355 -0.01155424 0.07873795
v 0.01043828 -0.01155424 0.07831839
v 0.01954063 -0.01155424 0.07610997
v 0.02112638 -0.01498499 0.07610997
v 0.02112750 -0.01498970 0.07611818
v 0.02187781 -0.01498970 0.08052378
v 0.02187893 -0.01155424 0.08052378
v 0.02112638 -0.01155424 0.07611343
v 0.02112638 -0.01233441 0.07610997
f 14 13 11
f 12 11 13
f 6 2 5
f 6 7 2
f 11 12 4
f 8 9 2
f 2 7 8
f 16 10 15
f 16 15 14
f 14 11 16
f 5 13 6
f 6 13 14
f 14 7 6
f 1 2 9
f 9 3 1
f 4 13 5
f 4 2 1
f 5 2 4
f 4 12 13
f 8 7 14
f 14 15 8
f 3 9 8
f 8 10 3
f 15 10 8
f 1 3 16
f 3 10 16
f 16 4 1
f 11 4 16

