# https://github.com/mikedh/trimesh
v -0.00738305 0.03685187 0.07847418
v -0.00738305 0.04177255 0.07847418
v -0.00623535 0.03732684 0.07847418
v -0.00738305 0.03720690 0.08298173
v -0.00738305 0.04174461 0.07901564
v -0.00623535 0.04177255 0.07847418
v -0.00623535 0.03780952 0.08310845
v -0.00738305 0.03760575 0.08432720
v -0.00738305 0.04165501 0.08072613
v -0.00623535 0.04171715 0.07953952
v -0.00623535 0.03810721 0.08382818
v -0.00738305 0.03769005 0.08439875
v -0.00738305 0.04162756 0.08125001
v -0.00623535 0.04162756 0.08125001
v -0.00623535 0.03865974 0.08399190
v -0.00738305 0.03892612 0.08466312
v -0.00738305 0.04158131 0.08196550
v -0.00738305 0.04158083 0.08197277
v -0.00623535 0.04156012 0.08221410
v -0.00623535 0.03883026 0.08402828
v -0.00738305 0.03895165 0.08466797
v -0.00738305 0.04156012 0.08226806
v -0.00623535 0.04155433 0.08223350
v -0.00623535 0.04012365 0.08396582
v -0.00738305 0.03914434 0.08465887
v -0.00738305 0.04136936 0.08286107
v -0.00738305 0.04071327 0.08408891
v -0.00623535 0.04100230 0.08310057
v -0.00623535 0.04016604 0.08395673
v -0.00738305 0.04043725 0.08437147
f 1 3 4
f 22 26 23
f 8 4 7
f 7 11 8
f 7 4 3
f 8 11 12
f 19 22 23
f 23 26 27
f 29 27 30
f 15 12 11
f 14 13 17
f 14 10 5
f 5 6 2
f 5 10 6
f 23 27 28
f 27 29 28
f 25 29 30
f 12 15 16
f 20 25 21
f 21 16 20
f 20 16 15
f 18 19 14
f 14 17 18
f 22 19 18
f 9 13 14
f 14 5 9
f 29 25 24
f 25 20 24
f 1 2 6
f 6 3 1
f 1 4 9
f 9 2 1
f 9 5 2
f 21 25 9
f 9 4 8
f 26 22 9
f 9 16 21
f 8 12 9
f 9 27 26
f 30 27 9
f 9 17 13
f 22 18 9
f 9 25 30
f 12 16 9
f 9 18 17
f 3 6 24
f 6 10 24
f 24 19 23
f 24 7 3
f 11 7 24
f 24 10 14
f 14 19 24
f 24 15 11
f 23 28 24
f 24 28 29
f 24 20 15

