# https://github.com/mikedh/trimesh
v -0.00449402 -0.01581850 0.01566649
v -0.00449402 -0.01581850 0.01112735
v -0.00820137 -0.01581850 0.01566649
v -0.00449402 -0.02505542 0.01566649
v -0.00820137 -0.01581850 0.01112735
v -0.00449402 -0.02398115 0.01112735
v -0.00820137 -0.02507899 0.01566649
v -0.00449402 -0.02505542 0.01566116
v -0.00820137 -0.02478798 0.01112735
v -0.00449402 -0.02469823 0.01282108
v -0.00618766 -0.02435102 0.01112735
v -0.00820137 -0.02491490 0.01231323
v -0.00449402 -0.02492850 0.01453126
v -0.00449402 -0.02470095 0.01282908
f 8 4 7
f 7 12 8
f 8 12 9
f 13 8 9
f 9 14 13
f 10 11 6
f 9 11 10
f 10 14 9
f 1 2 5
f 3 1 5
f 4 1 3
f 3 7 4
f 3 5 12
f 12 7 3
f 5 9 12
f 11 5 2
f 11 9 5
f 2 6 11
f 10 2 1
f 1 4 10
f 10 6 2
f 4 8 10
f 8 13 10
f 10 13 14

