# https://github.com/mikedh/trimesh
v 0.02595545 0.00122108 0.02839822
v 0.02595545 0.00122108 0.02838041
v 0.02594589 0.00122108 0.03003432
v 0.02557917 0.00016264 0.03003432
v 0.02557917 0.00016156 0.02993395
v 0.02558037 0.00016047 0.02838041
v 0.01438634 0.00122108 0.02838041
v 0.01439470 0.00122108 0.03003432
v 0.02292849 -0.00720944 0.03003432
v 0.02296194 -0.00720944 0.02838041
v 0.01375204 0.00038673 0.02838041
v 0.01375204 0.00038564 0.02851236
v 0.01375204 0.00036824 0.03003432
v 0.02289265 -0.00727797 0.03003432
v 0.02234914 -0.00847021 0.02838041
v 0.01375204 -0.00989197 0.02838041
v 0.01375204 -0.00989197 0.03003432
v 0.02231688 -0.00837230 0.03003432
v 0.02129078 -0.00920883 0.02838041
v 0.01893514 -0.00989197 0.02838041
v 0.01620204 -0.00989197 0.03003432
v 0.02117013 -0.00892382 0.03003432
v 0.02116893 -0.00926757 0.02838041
f 11 12 8
f 8 7 11
f 8 12 13
f 6 2 1
f 1 5 6
f 5 10 6
f 15 10 9
f 21 20 22
f 1 3 4
f 4 5 1
f 4 10 5
f 4 9 10
f 14 18 15
f 15 9 14
f 23 22 20
f 18 22 23
f 15 18 19
f 18 23 19
f 2 7 8
f 8 3 1
f 1 2 8
f 17 12 11
f 11 16 17
f 13 12 17
f 20 17 16
f 21 17 20
f 3 8 14
f 14 8 13
f 13 17 14
f 21 22 14
f 14 17 21
f 14 4 3
f 14 22 18
f 9 4 14
f 19 16 11
f 11 7 19
f 19 7 2
f 19 20 16
f 19 10 15
f 2 6 19
f 19 6 10
f 19 23 20

