# https://github.com/mikedh/trimesh
v -0.00751286 -0.02468353 0.00959725
v -0.00619642 -0.02448395 0.00959725
v -0.00751286 -0.02460283 0.01112720
v -0.00751286 -0.01581936 0.00959725
v -0.00600574 -0.02444143 0.00959725
v -0.00417735 -0.02398672 0.01112720
v -0.00751286 -0.01581936 0.01112720
v -0.00417735 -0.01581936 0.00959725
v -0.00449340 -0.02410387 0.00959725
v -0.00417735 -0.02393986 0.00959725
v -0.00417735 -0.01581936 0.01112720
f 2 3 1
f 6 3 2
f 9 10 6
f 6 2 5
f 5 9 6
f 1 3 7
f 7 4 1
f 11 10 8
f 6 10 11
f 11 7 3
f 11 3 6
f 4 7 11
f 11 8 4
f 1 4 5
f 4 8 5
f 8 10 5
f 5 2 1
f 10 9 5

