# https://github.com/mikedh/trimesh
v 0.01262288 0.02772173 0.03784449
v 0.01262288 0.03302295 0.03771255
v 0.01268995 0.03302295 0.03770494
v 0.01354130 0.02870932 0.03774046
v 0.01354130 0.02772173 0.03788763
v 0.01262288 0.02772173 0.05061228
v 0.01262288 0.03302295 0.05061228
v 0.01354130 0.03302295 0.03765166
v 0.01354130 0.02772173 0.05061228
v 0.01354130 0.03302295 0.05061228
f 3 4 1
f 1 2 3
f 1 4 5
f 4 3 8
f 1 6 7
f 7 2 1
f 2 7 8
f 8 3 2
f 8 7 10
f 9 8 10
f 9 5 4
f 4 8 9
f 9 7 6
f 10 7 9
f 9 6 1
f 1 5 9

