# https://github.com/mikedh/trimesh
v -0.01057846 0.04158997 0.08196727
v -0.01132893 0.04158997 0.08196727
v -0.01132893 0.04135974 0.08635574
v -0.00892966 0.04158701 0.08196727
v -0.01193634 0.04158050 0.08196727
v -0.01229199 0.04155268 0.08238701
v -0.01303847 0.04107329 0.08635574
v -0.01130335 0.04135856 0.08635574
v -0.00738317 0.04156037 0.08226843
v -0.00738317 0.04158109 0.08197329
v -0.00738317 0.04158109 0.08196727
v -0.01238470 0.04156392 0.08196727
v -0.01270039 0.04150829 0.08196727
v -0.01320311 0.04140472 0.08196727
v -0.01379213 0.04103245 0.08196727
v -0.01418295 0.04031870 0.08635574
v -0.00961779 0.04121651 0.08635574
v -0.00738317 0.04155860 0.08227445
v -0.00738317 0.03713224 0.08196727
v -0.01420053 0.04030686 0.08635574
v -0.01438675 0.04053650 0.08196727
v -0.00959462 0.04120527 0.08635574
v -0.00738317 0.04136921 0.08286172
v -0.00738317 0.03720681 0.08298201
v -0.00815921 0.03554375 0.08635574
v -0.00813364 0.03554375 0.08296827
v -0.00813124 0.03554375 0.08196727
v -0.01420933 0.04028674 0.08635574
v -0.01483352 0.03960494 0.08196727
v -0.01511724 0.03897227 0.08196727
v -0.00844294 0.04045068 0.08635574
v -0.00738317 0.04071286 0.08408955
v -0.00738317 0.03760571 0.08432712
v -0.00738317 0.03766490 0.08437739
v -0.00738317 0.03769035 0.08439844
v -0.00815362 0.03557689 0.08635574
v -0.01514362 0.03554375 0.08635574
v -0.01554722 0.03554375 0.08196727
v -0.01473122 0.03897227 0.08635574
v -0.01531625 0.03798449 0.08196727
v -0.00812964 0.03897227 0.08635574
v -0.00738317 0.04043706 0.08437137
v -0.00738317 0.03892551 0.08466308
v -0.00814083 0.03728908 0.08635574
v -0.00738317 0.03895096 0.08466823
v -0.01514362 0.03555204 0.08635574
v -0.01554722 0.03555204 0.08196727
v -0.01544972 0.03729500 0.08196727
v -0.01473601 0.03894741 0.08635574
v -0.00738317 0.03914390 0.08465921
v -0.01504931 0.03726245 0.08635574
v -0.01553364 0.03580475 0.08196727
f 27 19 26
f 26 19 25
f 10 3 9
f 21 20 15
f 31 41 42
f 42 41 50
f 9 3 8
f 8 17 9
f 15 7 14
f 15 20 16
f 16 7 15
f 6 7 3
f 30 20 29
f 20 21 29
f 23 22 31
f 17 22 23
f 25 19 24
f 24 33 25
f 52 51 48
f 52 46 51
f 13 6 12
f 13 14 7
f 7 6 13
f 35 36 25
f 31 42 32
f 32 23 31
f 9 17 18
f 17 23 18
f 10 11 4
f 3 10 4
f 12 6 5
f 5 6 3
f 3 2 5
f 46 52 47
f 40 39 30
f 48 39 40
f 48 51 49
f 49 39 48
f 28 20 30
f 30 39 28
f 45 44 36
f 41 44 45
f 50 41 45
f 25 33 34
f 34 35 25
f 1 2 3
f 3 4 1
f 36 35 43
f 43 45 36
f 25 37 26
f 26 37 38
f 38 27 26
f 38 37 47
f 37 46 47
f 28 37 25
f 3 7 28
f 28 16 20
f 31 22 28
f 28 8 3
f 25 36 28
f 28 41 31
f 17 8 28
f 28 22 17
f 28 46 37
f 7 16 28
f 28 49 51
f 51 46 28
f 28 44 41
f 36 44 28
f 39 49 28
f 1 27 38
f 1 11 19
f 1 19 27
f 1 21 15
f 1 4 11
f 38 47 1
f 15 14 1
f 30 29 1
f 12 5 1
f 1 29 21
f 1 13 12
f 1 52 48
f 14 13 1
f 1 40 30
f 1 5 2
f 1 47 52
f 48 40 1
f 19 11 43
f 43 10 9
f 43 32 42
f 43 42 50
f 43 24 19
f 43 11 10
f 9 18 43
f 33 24 43
f 50 45 43
f 23 32 43
f 43 18 23
f 43 34 33
f 35 34 43

