# https://github.com/mikedh/trimesh
v 0.00918165 0.03213043 0.08251441
v 0.00918165 0.03034529 0.08229403
v 0.01047428 0.02784192 0.08164068
v 0.01047428 0.02870436 0.08164068
v 0.01047428 0.03035677 0.08163581
v 0.01047428 0.03213043 0.08156898
v 0.00918165 0.03383521 0.08223908
v 0.00918165 0.02784192 0.08172603
v 0.01047428 0.02784192 0.08052378
v 0.01047428 0.03219500 0.08155456
v 0.01047428 0.03334229 0.08129384
v 0.01047428 0.03382732 0.08118317
v 0.01047428 0.03481890 0.08058574
v 0.01047428 0.03487200 0.08052378
v 0.00918165 0.03517119 0.08052378
v 0.00918165 0.02784192 0.08052378
f 1 6 7
f 15 7 14
f 14 7 13
f 2 3 1
f 2 8 3
f 5 6 1
f 13 7 12
f 1 3 4
f 4 5 1
f 11 12 7
f 10 7 6
f 10 11 7
f 16 2 1
f 1 7 16
f 16 7 15
f 8 2 16
f 16 14 9
f 15 14 16
f 16 9 3
f 3 8 16
f 9 14 10
f 3 9 10
f 13 12 10
f 10 14 13
f 6 5 10
f 10 4 3
f 5 4 10
f 12 11 10

