# https://github.com/mikedh/trimesh
v -0.00953489 -0.03003477 0.02580820
v -0.01711568 -0.03003477 0.02580820
v -0.00953489 -0.03146979 0.02580820
v -0.00953489 -0.03003477 0.01689318
v -0.01743369 -0.03003477 0.02435176
v -0.01734405 -0.03036456 0.02410810
v -0.01709463 -0.03008077 0.02580820
v -0.01132837 -0.03146813 0.02580820
v -0.01132837 -0.03286602 0.02445650
v -0.00961829 -0.03286602 0.02445761
v -0.00953489 -0.03286602 0.02445761
v -0.00953489 -0.03286602 0.01689318
v -0.01055907 -0.03003477 0.01454590
v -0.01745707 -0.03003477 0.02382145
v -0.01736510 -0.03044438 0.02309158
v -0.01659891 -0.03286602 0.02138046
v -0.01679533 -0.03040225 0.02580820
v -0.01610709 -0.03286602 0.02310370
v -0.01303923 -0.03146536 0.02580820
v -0.01303923 -0.03286602 0.02445320
v -0.01056686 -0.03286602 0.01454590
v -0.01055907 -0.03116854 0.01454590
v -0.01726923 -0.03003477 0.01454590
v -0.01748747 -0.03003477 0.02309158
v -0.01736822 -0.03048401 0.02138046
v -0.01710944 -0.03133926 0.02138046
v -0.01659735 -0.03286602 0.01967154
v -0.01627155 -0.03078692 0.02580820
v -0.01608448 -0.03286602 0.02312245
v -0.01395273 -0.03141326 0.02580820
v -0.01474853 -0.03136282 0.02580820
v -0.01458719 -0.03286602 0.02426246
v -0.01564956 -0.03286602 0.01454590
v -0.01735964 -0.03003477 0.01534854
v -0.01723727 -0.03011763 0.01454590
v -0.01749526 -0.03003477 0.02212245
v -0.01711100 -0.03131958 0.01967154
v -0.01749682 -0.03003477 0.02138046
v -0.01747889 -0.03003477 0.01796152
v -0.01735964 -0.03044493 0.01796152
v -0.01707749 -0.03130018 0.01796152
v -0.01734561 -0.03039145 0.01672449
v -0.01647342 -0.03286602 0.01796152
v -0.01580467 -0.03227156 0.02414559
v -0.01460745 -0.03286602 0.02425254
v -0.01459654 -0.03286602 0.02426025
v -0.01593483 -0.03249853 0.01454590
v -0.01580545 -0.03286602 0.01487665
v -0.01744226 -0.03003477 0.01648634
v -0.01729807 -0.03026064 0.01558337
v -0.01671271 -0.03115829 0.01454590
v -0.01616009 -0.03286602 0.01618645
v -0.01704085 -0.03104050 0.01619307
v -0.01746097 -0.03003477 0.01719196
v -0.01605954 -0.03286602 0.01577742
f 11 3 10
f 10 3 9
f 21 22 12
f 5 6 2
f 6 5 15
f 31 28 46
f 6 15 16
f 29 28 18
f 18 28 17
f 42 49 34
f 41 42 27
f 27 37 41
f 15 24 25
f 38 39 25
f 27 42 43
f 27 16 26
f 26 37 27
f 26 25 37
f 26 16 15
f 15 25 26
f 14 15 5
f 14 24 15
f 35 51 52
f 52 43 35
f 35 43 53
f 35 34 23
f 46 28 45
f 18 17 7
f 7 16 18
f 2 6 7
f 6 16 7
f 32 31 46
f 32 20 31
f 19 20 9
f 54 49 42
f 42 41 40
f 40 41 37
f 39 54 40
f 40 54 42
f 37 25 40
f 40 25 39
f 38 25 36
f 36 25 24
f 48 47 33
f 50 35 53
f 34 35 50
f 42 34 50
f 50 43 42
f 53 43 50
f 29 45 44
f 28 29 44
f 44 45 28
f 31 20 30
f 20 19 30
f 9 3 8
f 8 19 9
f 47 48 55
f 51 47 55
f 52 51 55
f 12 4 1
f 1 3 12
f 12 3 11
f 13 4 12
f 12 22 13
f 35 23 13
f 35 21 33
f 13 22 35
f 35 22 21
f 33 47 35
f 35 47 51
f 49 54 36
f 1 4 36
f 36 2 1
f 13 23 36
f 36 4 13
f 36 5 2
f 36 39 38
f 23 34 36
f 36 14 5
f 36 34 49
f 24 14 36
f 36 54 39
f 1 2 8
f 8 3 1
f 2 7 8
f 28 31 8
f 8 17 28
f 8 7 17
f 31 30 8
f 8 30 19
f 55 12 11
f 55 29 18
f 33 21 55
f 55 10 9
f 55 32 46
f 18 16 55
f 11 10 55
f 21 12 55
f 9 20 55
f 55 16 27
f 27 43 55
f 46 45 55
f 55 43 52
f 55 45 29
f 20 32 55
f 55 48 33

