# https://github.com/mikedh/trimesh
v -0.00735452 0.02507014 0.03668591
v -0.00717565 0.02493346 0.03668591
v -0.00735452 0.02428732 0.03595500
v -0.00735452 0.01096697 0.03668591
v -0.00619985 0.02402224 0.03668591
v -0.00619736 0.02402086 0.03668489
v -0.00735452 0.02339957 0.03517645
v -0.00735452 0.01096697 0.03628141
v -0.00697775 0.01096697 0.03668591
v -0.00619736 0.01481341 0.03668591
v -0.00619736 0.02349484 0.03634396
v -0.00619736 0.02257395 0.03589225
v -0.00619736 0.02177043 0.03564084
v -0.00735452 0.02187673 0.03473005
v -0.00735452 0.01332647 0.03510267
v -0.00619736 0.01190442 0.03668530
v -0.00645994 0.01160482 0.03668591
v -0.00637272 0.01180363 0.03668591
v -0.00619736 0.02015647 0.03543092
v -0.00735452 0.02017303 0.03460762
v -0.00735452 0.01502603 0.03463951
v -0.00619736 0.01395052 0.03573241
v -0.00619736 0.01844586 0.03541866
v -0.00735452 0.01846381 0.03459781
v -0.00735452 0.01673664 0.03459863
v -0.00619736 0.01673664 0.03541968
v -0.00619736 0.01502603 0.03548243
v -0.00735452 0.01844586 0.03459781
f 5 10 6
f 16 15 22
f 6 7 3
f 2 5 6
f 2 3 1
f 6 3 2
f 18 16 10
f 15 16 8
f 21 26 27
f 21 27 22
f 22 15 21
f 20 23 24
f 13 14 7
f 4 8 9
f 9 8 16
f 26 21 25
f 23 26 25
f 12 13 7
f 19 20 14
f 14 13 19
f 23 20 19
f 16 18 17
f 17 9 16
f 24 23 28
f 23 25 28
f 11 7 6
f 11 12 7
f 1 4 17
f 17 2 1
f 10 5 17
f 5 2 17
f 17 18 10
f 4 9 17
f 28 20 24
f 28 4 1
f 1 3 28
f 28 8 4
f 28 3 7
f 7 14 28
f 15 8 28
f 28 21 15
f 14 20 28
f 28 25 21
f 11 26 23
f 6 10 11
f 11 16 22
f 10 16 11
f 22 27 11
f 27 26 11
f 23 19 11
f 13 12 11
f 11 19 13

