# https://github.com/mikedh/trimesh
v -0.00296116 0.02772121 0.03772392
v -0.00549940 0.02772121 0.03784661
v -0.00549940 0.02840839 0.03777504
v -0.00549940 0.02870978 0.03776481
v -0.00549940 0.03307606 0.03767279
v -0.00549841 0.03307606 0.03767279
v -0.00296116 0.03307606 0.03771778
v -0.00296116 0.02772121 0.05855950
v -0.00549940 0.02772121 0.05855950
v -0.00549940 0.03307606 0.05855950
v -0.00296116 0.03307606 0.05855950
f 4 5 1
f 3 1 2
f 3 4 1
f 1 5 6
f 6 7 1
f 1 8 9
f 2 1 9
f 3 10 5
f 2 9 3
f 5 4 3
f 3 9 10
f 5 10 11
f 11 6 5
f 7 6 11
f 11 9 8
f 10 9 11
f 11 8 1
f 1 7 11

