# https://github.com/mikedh/trimesh
v 0.00918168 0.02412624 0.08253310
v 0.00918156 0.02362363 0.08251028
v 0.00918156 0.02357813 0.08250832
v 0.00918168 0.02362363 0.08251048
v 0.01047416 0.02528827 0.08162717
v 0.01047416 0.02700051 0.08164075
v 0.01047416 0.02784192 0.08164075
v 0.00918168 0.02528827 0.08240152
v 0.00918168 0.02784192 0.08172591
v 0.00918156 0.02362363 0.08154712
v 0.00918156 0.02256941 0.08237673
v 0.01047416 0.02357813 0.08153906
v 0.01047416 0.02362363 0.08154142
v 0.00975896 0.02784192 0.08168795
v 0.01047416 0.02784192 0.08052397
v 0.00918168 0.02784192 0.08052397
v 0.00918168 0.02362363 0.08052378
v 0.00918156 0.02151238 0.08154712
v 0.00918156 0.02189669 0.08206184
v 0.01047416 0.02192469 0.08116359
v 0.01047416 0.02362363 0.08052378
v 0.00918168 0.02069057 0.08052378
v 0.00918156 0.02153129 0.08170742
v 0.01047416 0.02091317 0.08052378
f 10 16 17
f 24 20 19
f 22 24 23
f 24 19 23
f 11 19 20
f 20 12 11
f 8 9 2
f 22 23 18
f 3 11 12
f 12 13 3
f 3 13 5
f 14 8 7
f 9 8 14
f 1 8 2
f 7 8 1
f 1 6 7
f 5 6 1
f 2 3 1
f 4 3 5
f 5 1 4
f 4 1 3
f 16 10 9
f 9 10 2
f 22 17 21
f 21 24 22
f 16 15 21
f 17 16 21
f 13 6 5
f 24 21 13
f 13 20 24
f 13 15 7
f 7 6 13
f 13 12 20
f 13 21 15
f 18 17 22
f 18 10 17
f 2 10 3
f 10 18 3
f 3 23 19
f 19 11 3
f 3 18 23
f 7 15 14
f 16 9 14
f 14 15 16

