# https://github.com/mikedh/trimesh
v 0.01301831 0.01096559 0.03837381
v 0.01301831 0.01146069 0.03852201
v 0.01342627 0.01096559 0.03842123
v 0.01301831 0.01096559 0.05856155
v 0.01301831 0.01513882 0.03998432
v 0.01445444 0.01096559 0.03894490
v 0.01445444 0.01096559 0.05856155
v 0.01301831 0.01513882 0.05856155
v 0.01444572 0.01513882 0.04077476
v 0.01445444 0.01513718 0.04077476
v 0.01445444 0.01512861 0.04077080
v 0.01445444 0.01513882 0.05856155
v 0.01445444 0.01513882 0.04079452
f 3 5 6
f 2 3 1
f 5 3 2
f 6 5 11
f 5 10 11
f 9 13 10
f 9 10 5
f 1 3 7
f 7 4 1
f 7 3 6
f 4 7 8
f 8 7 12
f 1 4 2
f 2 8 5
f 4 8 2
f 13 7 6
f 12 7 13
f 6 11 13
f 13 11 10
f 5 8 9
f 9 8 12
f 12 13 9

