# https://github.com/mikedh/trimesh
v -0.00188909 -0.01581849 -0.00093843
v -0.00188909 -0.00550106 -0.00093843
v 0.00648821 -0.01581849 -0.00093843
v -0.00188909 -0.01581849 0.02309363
v -0.00188991 -0.00150559 0.00026834
v -0.00188909 -0.00467763 -0.00091726
v 0.00235574 0.00032778 -0.00093843
v 0.00648821 0.00032778 -0.00093843
v 0.00648821 -0.01581849 0.02309363
v -0.00188991 -0.00150559 0.02309363
v -0.00188991 0.00032778 0.00038596
v -0.00188909 -0.00379097 -0.00089139
v 0.00164799 0.00032778 -0.00074083
v 0.00648821 0.00032778 0.02309363
v -0.00188991 -0.00074695 0.02309363
v -0.00188991 0.00032778 0.02309128
v -0.00147576 0.00032778 0.02309363
f 11 12 5
f 2 1 5
f 15 17 16
f 7 12 13
f 12 11 13
f 7 2 6
f 6 12 7
f 5 12 6
f 6 2 5
f 9 4 1
f 9 1 3
f 8 9 3
f 14 9 8
f 3 1 2
f 2 8 3
f 7 8 2
f 13 8 7
f 14 8 13
f 13 17 14
f 16 17 13
f 13 11 16
f 4 9 10
f 10 9 14
f 14 17 10
f 17 15 10
f 16 11 10
f 10 11 5
f 10 15 16
f 1 4 10
f 5 1 10

