# https://github.com/mikedh/trimesh
v -0.01610763 0.01232117 0.00503479
v -0.01585659 0.01232117 0.00085551
v -0.00643082 0.01232117 0.00503479
v -0.01610763 0.01502603 0.00503479
v -0.01575902 0.01232117 0.00029633
v -0.01585659 0.01502603 0.00085551
v -0.00643082 0.01232117 -0.00094078
v -0.00643082 0.02635162 0.00503479
v -0.01610479 0.01578522 0.00503479
v -0.01568797 0.01232117 -0.00010669
v -0.01568797 0.01502603 -0.00010669
v -0.01609531 0.01673662 0.00503479
v -0.01581775 0.01673662 0.00085551
v -0.01566618 0.01673662 -0.00007919
v -0.01303833 0.01232117 -0.00094078
v -0.00643082 0.02186702 -0.00094078
v -0.00643082 0.02580815 0.00085551
v -0.00779779 0.02644842 0.00503479
v -0.01514232 0.01232117 -0.00037984
v -0.01474823 0.01673662 -0.00054947
v -0.01474823 0.01502603 -0.00057696
v -0.01605363 0.01749443 0.00503479
v -0.01569081 0.01804066 0.00085551
v -0.01563113 0.01773781 -0.00003415
v -0.01485623 0.01836424 -0.00039680
v -0.01474823 0.01232117 -0.00057696
v -0.01303833 0.01844721 -0.00094078
v -0.00961853 0.02186702 -0.00094078
v -0.00643082 0.02357761 -0.00093669
v -0.00643082 0.02506556 -0.00046641
v -0.00790768 0.02498950 -0.00044185
v -0.00790768 0.02566987 0.00085551
v -0.00961853 0.02529373 0.00085551
v -0.01062647 0.02549978 0.00503479
v -0.01303833 0.02015642 -0.00086240
v -0.01593995 0.01852880 0.00503479
v -0.01584238 0.01920917 0.00503479
v -0.01550703 0.01889526 0.00085551
v -0.01509305 0.02015642 0.00085551
v -0.01413816 0.02140099 -0.00020963
v -0.01442520 0.02015642 -0.00039212
v -0.01132748 0.02186702 -0.00091154
v -0.00790768 0.02357761 -0.00091212
v -0.00961853 0.02357761 -0.00080625
v -0.00961853 0.02479729 -0.00033597
v -0.01076952 0.02460507 -0.00017220
v -0.01101676 0.02475580 0.00085551
v -0.01213554 0.02493834 0.00503479
v -0.01312643 0.02192925 -0.00047870
v -0.01562260 0.01999740 0.00503479
v -0.01445646 0.02269811 0.00503479
v -0.01433426 0.02169139 0.00085551
v -0.01376113 0.02254738 0.00085551
v -0.01261488 0.02310191 -0.00027456
v -0.01133412 0.02363431 -0.00045647
v -0.01187124 0.02421925 0.00085551
v -0.01295402 0.02431744 0.00503479
v -0.01290571 0.02336327 0.00085551
f 18 8 17
f 57 53 51
f 52 53 40
f 40 39 52
f 51 53 52
f 52 39 51
f 51 39 50
f 18 33 34
f 34 33 48
f 18 17 32
f 32 33 18
f 56 57 48
f 38 50 39
f 37 50 38
f 23 37 38
f 23 38 24
f 24 41 25
f 40 41 24
f 24 39 40
f 24 38 39
f 10 11 19
f 29 16 28
f 30 29 43
f 29 28 43
f 33 32 45
f 5 11 10
f 6 11 5
f 5 2 6
f 6 12 13
f 23 24 13
f 12 22 13
f 13 22 23
f 48 33 47
f 47 56 48
f 53 57 58
f 57 56 58
f 11 20 21
f 26 19 21
f 21 19 11
f 21 20 27
f 42 28 27
f 44 43 42
f 42 43 28
f 30 43 31
f 31 43 44
f 44 45 31
f 31 45 32
f 31 17 30
f 31 32 17
f 54 58 56
f 40 53 54
f 53 58 54
f 6 4 9
f 9 12 6
f 36 37 23
f 23 22 36
f 14 13 24
f 14 20 11
f 14 11 6
f 6 13 14
f 14 24 25
f 25 20 14
f 35 42 27
f 25 41 35
f 27 20 35
f 35 20 25
f 55 45 44
f 44 42 55
f 33 45 46
f 46 47 33
f 45 55 46
f 46 55 54
f 56 47 46
f 46 54 56
f 42 35 49
f 49 55 42
f 54 55 49
f 40 54 49
f 49 41 40
f 49 35 41
f 16 8 3
f 3 7 16
f 16 17 8
f 30 17 16
f 16 29 30
f 7 15 28
f 28 16 7
f 28 15 27
f 5 3 1
f 5 7 3
f 1 2 5
f 5 15 7
f 5 26 15
f 10 19 5
f 5 19 26
f 4 2 1
f 6 2 4
f 15 26 21
f 27 15 21
f 3 8 36
f 1 3 36
f 36 8 18
f 51 50 36
f 36 57 51
f 18 34 36
f 48 57 36
f 36 4 1
f 36 50 37
f 36 34 48
f 12 9 36
f 36 22 12
f 36 9 4

