# https://github.com/mikedh/trimesh
v -0.00738305 -0.02480720 0.05856315
v -0.00738305 -0.01683319 0.05856155
v -0.00623535 -0.02480720 0.05856315
v -0.00738305 -0.02480720 0.07462887
v -0.00623535 -0.01683319 0.05856155
v -0.00738305 -0.01115502 0.05856155
v -0.00623535 -0.02480720 0.07400861
v -0.00623535 -0.02094514 0.07457758
v -0.00738305 -0.02089303 0.07490934
v -0.00623535 -0.02265300 0.07432755
v -0.00623535 -0.01115502 0.05856155
v -0.00738305 -0.01115502 0.07479715
v -0.00623535 -0.02089303 0.07458079
v -0.00738305 -0.02083690 0.07491095
v -0.00623535 -0.01115502 0.07446860
v -0.00738305 -0.01576544 0.07493338
v -0.00640072 -0.01115502 0.07454553
v -0.00623535 -0.01918383 0.07462246
v -0.00738305 -0.01918383 0.07493338
v -0.00623535 -0.01576544 0.07462085
v -0.00738305 -0.01683319 0.07493499
v -0.00623535 -0.01683319 0.07462246
f 16 17 12
f 8 9 4
f 13 9 8
f 15 17 20
f 17 16 20
f 4 7 10
f 10 8 4
f 19 18 21
f 21 18 22
f 18 19 14
f 13 18 14
f 14 9 13
f 7 4 1
f 1 3 7
f 1 2 5
f 5 3 1
f 5 2 6
f 6 11 5
f 6 12 17
f 17 11 6
f 15 11 17
f 22 11 15
f 22 7 3
f 3 5 22
f 22 5 11
f 15 20 22
f 13 8 22
f 22 10 7
f 8 10 22
f 22 18 13
f 22 16 21
f 22 20 16
f 1 4 14
f 14 2 1
f 6 2 14
f 21 16 14
f 14 12 6
f 14 16 12
f 4 9 14
f 14 19 21

