# https://github.com/mikedh/trimesh
v -0.00738317 0.04179151 0.07812158
v -0.00738317 0.04174527 0.07900320
v -0.00738317 0.03676793 0.07812158
v -0.01132893 0.04179151 0.07812158
v -0.00738317 0.04165555 0.08071336
v -0.00738317 0.03713232 0.08196690
v -0.00778376 0.03474096 0.07812158
v -0.01304731 0.04171421 0.07812158
v -0.01238418 0.04156376 0.08196690
v -0.01193616 0.04158032 0.08196690
v -0.01132893 0.04162725 0.08124941
v -0.00738317 0.04162725 0.08124941
v -0.00738317 0.04158101 0.08196690
v -0.00814369 0.03474096 0.08196690
v -0.01603437 0.03474096 0.07812158
v -0.01327174 0.04168730 0.07812158
v -0.01270008 0.04150855 0.08196690
v -0.01391794 0.04155755 0.07893243
v -0.01369520 0.04149958 0.08007228
v -0.01132893 0.04158930 0.08196690
v -0.00893047 0.04158722 0.08196690
v -0.01057856 0.04158930 0.08196690
v -0.01554740 0.03474096 0.08196690
v -0.01603522 0.03555189 0.07812158
v -0.01395605 0.04158860 0.07812158
v -0.01320315 0.04140434 0.08196690
v -0.01379175 0.04103235 0.08196690
v -0.01450485 0.04091502 0.07812158
v -0.01438628 0.04053613 0.08196690
v -0.01554740 0.03555189 0.08196690
v -0.01601659 0.03584451 0.07812158
v -0.01564903 0.03678311 0.08075778
v -0.01466407 0.04070867 0.07812158
v -0.01530772 0.03969898 0.07812158
v -0.01548218 0.03937047 0.07812158
v -0.01483345 0.03960512 0.08196690
v -0.01545000 0.03729520 0.08196690
v -0.01592512 0.03727173 0.07812158
v -0.01553300 0.03918758 0.07812158
v -0.01511717 0.03897226 0.08196690
v -0.01531619 0.03798466 0.08196690
v -0.01557958 0.03792323 0.08020253
v -0.01588955 0.03751052 0.07812158
v -0.01571085 0.03853539 0.07812158
v -0.01565157 0.03830764 0.07906268
f 7 6 14
f 3 6 7
f 24 15 23
f 24 23 30
f 28 18 25
f 27 26 19
f 19 18 27
f 25 18 16
f 13 12 21
f 37 38 32
f 32 30 37
f 24 30 32
f 29 34 35
f 33 34 29
f 27 18 29
f 29 28 33
f 18 28 29
f 18 19 9
f 9 4 8
f 10 4 9
f 8 16 9
f 9 16 18
f 22 21 12
f 1 4 2
f 4 5 2
f 12 5 11
f 11 5 4
f 10 20 11
f 11 4 10
f 24 32 31
f 31 32 38
f 35 40 36
f 36 29 35
f 44 45 40
f 40 45 42
f 42 38 37
f 17 19 26
f 17 9 19
f 45 44 43
f 38 42 43
f 43 42 45
f 39 40 35
f 39 44 40
f 41 42 37
f 40 42 41
f 23 15 7
f 7 14 23
f 2 3 1
f 6 3 2
f 2 13 6
f 2 12 13
f 2 5 12
f 20 22 11
f 11 22 12
f 39 15 24
f 1 3 39
f 39 3 7
f 25 16 39
f 7 15 39
f 39 4 1
f 35 34 39
f 39 28 25
f 39 34 33
f 8 4 39
f 24 31 39
f 33 28 39
f 39 16 8
f 39 31 38
f 38 43 39
f 39 43 44
f 6 13 41
f 41 14 6
f 13 21 41
f 41 26 27
f 41 23 14
f 41 20 10
f 27 29 41
f 41 30 23
f 37 30 41
f 41 17 26
f 10 9 41
f 41 22 20
f 41 36 40
f 21 22 41
f 29 36 41
f 9 17 41

