# https://github.com/mikedh/trimesh
v 0.00919655 -0.02704186 0.03506373
v 0.00919655 -0.02704104 0.03335343
v 0.01090875 -0.02704022 0.03335536
v 0.00919655 -0.02704186 0.03848431
v 0.00919655 -0.02697623 0.03201989
v 0.00919831 -0.02697623 0.03201989
v 0.01090875 -0.02697541 0.03201989
v 0.01261883 -0.02695572 0.03201989
v 0.01261883 -0.02701725 0.03335536
v 0.01261883 -0.02701889 0.03506565
v 0.01090875 -0.02704022 0.03848624
v 0.01090875 -0.02696147 0.03958853
v 0.00919831 -0.02696147 0.03958950
v 0.00919655 -0.02696147 0.03958853
v 0.00919655 -0.01866100 0.03201989
v 0.01277911 -0.02694670 0.03201989
v 0.01277911 -0.02700659 0.03335536
v 0.01277911 -0.02700741 0.03357023
v 0.01277911 -0.02700905 0.03506565
v 0.01261883 -0.02701889 0.03848624
v 0.01261883 -0.02695080 0.03955577
v 0.01090875 -0.02655949 0.04044416
v 0.00919655 -0.02656277 0.04044416
v 0.01266197 -0.01866100 0.03201989
v 0.00919655 -0.01866100 0.04186250
v 0.01277911 -0.01881277 0.03201989
v 0.01277911 -0.02700905 0.03848624
v 0.01277911 -0.02700494 0.03862595
v 0.01277911 -0.02694670 0.03954325
v 0.01261883 -0.02654882 0.04041140
v 0.00919831 -0.02656195 0.04044512
v 0.01261883 -0.02569318 0.04138265
v 0.01090875 -0.02570467 0.04138651
v 0.00919655 -0.02570795 0.04138651
v 0.01268898 -0.01866100 0.03335536
v 0.00919655 -0.01918768 0.04186250
v 0.00919831 -0.01918522 0.04186250
v 0.01277911 -0.02260614 0.04184034
v 0.01277911 -0.02244617 0.04183648
v 0.01277911 -0.02089568 0.04179023
v 0.01277911 -0.02074145 0.04176036
v 0.01277911 -0.01948793 0.04140289
v 0.01102659 -0.01866100 0.04150695
v 0.01277911 -0.01879800 0.03335536
v 0.01277911 -0.02654718 0.04038249
v 0.01277911 -0.02646268 0.04050005
v 0.01277911 -0.02568744 0.04138073
v 0.00919831 -0.02570712 0.04138747
v 0.01277911 -0.02556438 0.04141734
v 0.01261883 -0.02431578 0.04177771
v 0.00919655 -0.02431743 0.04178541
v 0.01268898 -0.01866100 0.03848624
v 0.01277911 -0.01878488 0.03979473
v 0.00919655 -0.02089814 0.04186153
v 0.00919831 -0.02089568 0.04186153
v 0.00919655 -0.02260860 0.04185479
v 0.01277911 -0.02415581 0.04178349
v 0.01277911 -0.01878980 0.04015221
v 0.01247574 -0.01866100 0.04014064
v 0.01277911 -0.02431578 0.04177481
f 44 26 35
f 24 35 26
f 2 3 1
f 3 2 7
f 3 7 8
f 6 2 5
f 6 7 2
f 48 51 34
f 25 42 43
f 59 43 58
f 58 43 42
f 29 21 20
f 30 21 29
f 41 42 25
f 25 40 41
f 25 38 39
f 39 40 25
f 50 56 51
f 59 58 52
f 9 8 16
f 3 8 9
f 45 30 29
f 54 56 38
f 38 55 54
f 37 38 25
f 37 55 38
f 60 50 49
f 38 56 57
f 56 50 57
f 57 50 60
f 35 52 53
f 53 52 58
f 44 35 53
f 29 20 28
f 20 27 28
f 17 9 16
f 3 9 10
f 11 20 21
f 47 30 46
f 30 45 46
f 34 23 31
f 31 48 34
f 21 30 22
f 22 31 23
f 36 37 25
f 19 10 9
f 4 11 12
f 12 11 21
f 21 22 12
f 12 22 23
f 47 49 32
f 32 30 47
f 32 22 30
f 32 49 50
f 48 31 33
f 31 22 33
f 22 32 33
f 33 32 50
f 51 48 33
f 33 50 51
f 9 17 18
f 18 19 9
f 14 4 13
f 4 12 13
f 13 23 14
f 13 12 23
f 6 5 15
f 15 24 6
f 6 26 16
f 6 24 26
f 16 8 6
f 6 8 7
f 15 25 52
f 52 24 15
f 35 24 52
f 25 43 52
f 52 43 59
f 11 10 20
f 3 10 11
f 11 4 1
f 1 3 11
f 36 25 15
f 36 23 34
f 15 5 36
f 36 2 1
f 5 2 36
f 34 51 36
f 51 56 36
f 1 4 36
f 36 4 14
f 14 23 36
f 56 54 36
f 36 54 55
f 55 37 36
f 20 10 19
f 19 27 20
f 16 26 18
f 18 17 16
f 18 26 44
f 18 39 38
f 29 28 18
f 38 57 18
f 42 41 18
f 18 49 47
f 18 58 42
f 18 41 40
f 40 39 18
f 44 53 18
f 18 45 29
f 60 49 18
f 18 57 60
f 18 53 58
f 18 28 27
f 47 46 18
f 18 46 45
f 27 19 18

