# https://github.com/mikedh/trimesh
v -0.02005195 0.00085136 0.02580820
v -0.02007902 0.00085136 0.02602325
v -0.02000322 0.00134127 0.02580820
v -0.00631290 0.00085136 0.02580820
v -0.02010339 0.00085136 0.02651321
v -0.02009121 0.00134127 0.02651321
v -0.01995448 0.00165873 0.02580820
v -0.00687740 0.00137177 0.02580820
v -0.00743514 0.00165873 0.02888087
v -0.00723073 0.00085136 0.02888087
v -0.02013182 0.00085136 0.02773343
v -0.02007226 0.00165873 0.02683082
v -0.02004247 0.00165873 0.02651321
v -0.02013047 0.00134127 0.02822339
v -0.02011828 0.00165873 0.02854100
v -0.00735256 0.00165873 0.02580820
v -0.00740265 0.00165873 0.02811872
v -0.02012234 0.00165873 0.02888087
v -0.02014265 0.00085136 0.02888087
v -0.02013859 0.00134127 0.02888087
f 4 9 10
f 8 9 4
f 17 8 16
f 9 8 17
f 2 5 6
f 2 3 1
f 6 3 2
f 6 14 15
f 15 12 6
f 15 20 18
f 14 20 15
f 19 20 11
f 11 20 14
f 6 5 11
f 11 14 6
f 6 12 13
f 4 1 3
f 3 8 4
f 7 16 3
f 16 8 3
f 19 10 20
f 20 10 9
f 9 18 20
f 11 1 4
f 11 10 19
f 4 10 11
f 11 2 1
f 5 2 11
f 13 18 9
f 13 16 7
f 13 15 18
f 9 17 13
f 13 17 16
f 12 15 13
f 7 3 13
f 13 3 6

