# https://github.com/mikedh/trimesh
v 0.01261922 0.03925441 0.02580762
v 0.01332384 0.03920743 0.02580762
v 0.01391366 0.03897055 0.02504654
v 0.01261922 0.03899269 0.02480189
v 0.01261922 0.03543871 0.02580762
v 0.01391366 0.03916717 0.02580762
v 0.01391366 0.03901484 0.02521792
v 0.01391366 0.03890679 0.02480247
v 0.01376123 0.03815452 0.02213436
v 0.01261922 0.03848469 0.02309163
v 0.01261922 0.03290812 0.01991402
v 0.01391366 0.03239878 0.01991344
v 0.01344725 0.03516156 0.02580762
v 0.01391366 0.03637083 0.02580762
v 0.01391366 0.03820553 0.02236517
v 0.01391366 0.03814379 0.02216495
v 0.01391366 0.03806997 0.02196241
v 0.01391366 0.03727476 0.01991344
v 0.01261922 0.03736065 0.01991344
v 0.01261922 0.03785456 0.02123192
v 0.01261922 0.03817197 0.02208763
v 0.01312503 0.03284906 0.01991344
v 0.01391366 0.03506090 0.02580474
f 2 3 1
f 12 23 13
f 3 2 7
f 1 3 4
f 22 11 19
f 12 11 22
f 9 18 19
f 6 7 2
f 5 11 12
f 12 13 5
f 20 9 19
f 21 9 20
f 10 9 21
f 4 9 10
f 14 13 23
f 8 4 3
f 8 9 4
f 18 9 17
f 9 16 17
f 15 16 9
f 9 8 15
f 22 18 12
f 19 18 22
f 10 5 1
f 1 4 10
f 19 11 10
f 10 20 19
f 11 5 10
f 21 20 10
f 14 6 2
f 14 2 1
f 1 5 14
f 14 5 13
f 15 23 12
f 6 14 15
f 12 18 15
f 3 7 15
f 7 6 15
f 15 8 3
f 15 14 23
f 18 17 15
f 15 17 16

