# https://github.com/mikedh/trimesh
v 0.01043848 -0.01498970 0.07448061
v 0.01239527 -0.01498970 0.07448061
v 0.01043848 -0.01498970 0.07507328
v 0.01043848 0.04198232 0.07448061
v 0.01239527 -0.01498970 0.07507328
v 0.01239527 0.04198232 0.07448061
v 0.01043848 0.04194886 0.07507328
v 0.01043848 0.04196002 0.07487778
v 0.01239527 0.04197117 0.07467989
v 0.01239527 0.04194886 0.07507328
f 8 7 10
f 9 6 4
f 4 8 9
f 9 8 10
f 1 4 6
f 6 2 1
f 1 2 5
f 5 3 1
f 3 5 7
f 7 5 10
f 8 4 1
f 1 3 8
f 3 7 8
f 2 6 9
f 9 5 2
f 10 5 9

