# https://github.com/mikedh/trimesh
v 0.01539341 -0.00436449 0.07448061
v 0.01818543 -0.00436901 0.07448061
v 0.01539341 -0.00436449 0.07507328
v 0.01539341 0.04183588 0.07448061
v 0.01818543 -0.00436901 0.07507328
v 0.02087920 -0.00436901 0.07448061
v 0.01539341 0.04180874 0.07507328
v 0.01549767 0.04180422 0.07507328
v 0.01611721 0.04177708 0.07507328
v 0.01616088 0.04174995 0.07448061
v 0.02096872 -0.00436901 0.07507328
v 0.02095562 -0.00436901 0.07498330
v 0.02087920 0.00476704 0.07448061
v 0.01630116 0.04174542 0.07507328
v 0.01707954 0.04160974 0.07507328
v 0.01644963 0.04169567 0.07448061
v 0.02096872 0.00476704 0.07507328
v 0.02087483 0.03383957 0.07448061
v 0.02096708 0.03383957 0.07507328
v 0.01724439 0.04153737 0.07507328
v 0.01703096 0.04159617 0.07482562
v 0.01745781 0.04120269 0.07448061
v 0.02087101 0.03554919 0.07448061
v 0.02096435 0.03554919 0.07507328
v 0.01770454 0.04123887 0.07507328
v 0.01770454 0.04104891 0.07448061
v 0.02067559 0.03731761 0.07448061
v 0.02082352 0.03729499 0.07507328
v 0.01786174 0.04113485 0.07507328
v 0.01910191 0.04018054 0.07507328
v 0.01889121 0.04006747 0.07448061
v 0.02059426 0.03764777 0.07448061
v 0.02052385 0.03850710 0.07507328
v 0.01953204 0.03977801 0.07507328
v 0.01893543 0.04002224 0.07448061
v 0.01999656 0.03880561 0.07448061
v 0.02049164 0.03840760 0.07484360
v 0.02036719 0.03875133 0.07507328
v 0.01995344 0.03930764 0.07507328
v 0.01982134 0.03904079 0.07448061
f 28 24 23
f 23 27 28
f 32 33 28
f 28 27 32
f 30 31 26
f 24 19 18
f 18 23 24
f 4 7 8
f 8 9 4
f 11 12 17
f 13 12 6
f 13 18 19
f 19 17 13
f 13 17 12
f 30 26 29
f 34 31 30
f 4 9 10
f 10 15 16
f 25 26 20
f 25 29 26
f 31 34 35
f 32 36 37
f 33 32 37
f 21 15 20
f 16 15 21
f 21 22 16
f 26 22 21
f 20 26 21
f 14 10 9
f 15 10 14
f 40 34 39
f 40 35 34
f 39 36 40
f 33 37 38
f 38 36 39
f 38 37 36
f 1 3 7
f 7 4 1
f 5 3 1
f 1 2 5
f 12 2 6
f 11 5 12
f 12 5 2
f 1 4 40
f 40 2 1
f 6 2 40
f 40 32 27
f 40 22 26
f 27 23 40
f 40 13 6
f 40 26 31
f 23 18 40
f 4 10 40
f 18 13 40
f 40 36 32
f 40 10 16
f 16 22 40
f 31 35 40
f 38 7 3
f 28 33 38
f 38 5 11
f 38 8 7
f 38 24 28
f 3 5 38
f 11 17 38
f 38 19 24
f 30 29 38
f 38 34 30
f 38 14 9
f 9 8 38
f 38 17 19
f 20 15 38
f 39 34 38
f 38 25 20
f 29 25 38
f 15 14 38

