# https://github.com/mikedh/trimesh
v 0.01775037 0.01096559 0.03883751
v 0.01838899 0.01096559 0.03883944
v 0.01637838 0.01096559 0.03887034
v 0.01445444 0.01513718 0.04077401
v 0.01838899 0.01513882 0.04098445
v 0.01838899 0.01096559 0.05856155
v 0.01461621 0.01096559 0.03892439
v 0.01445444 0.01096559 0.03894370
v 0.01445444 0.01513882 0.04079524
v 0.01450605 0.01513882 0.04077980
v 0.01838899 0.01513882 0.05856155
v 0.01445444 0.01096559 0.05856155
v 0.01445444 0.01513882 0.05856155
f 5 2 4
f 4 2 1
f 1 3 4
f 7 8 4
f 4 3 7
f 4 9 10
f 10 5 4
f 11 6 2
f 2 5 11
f 12 9 4
f 4 8 12
f 13 9 12
f 6 11 12
f 12 11 13
f 6 12 7
f 2 6 7
f 7 1 2
f 7 12 8
f 3 1 7
f 10 9 13
f 10 11 5
f 13 11 10

