# https://github.com/mikedh/trimesh
v -0.01132929 0.01650435 0.09433306
v -0.01303800 0.01606999 0.09433306
v -0.01089388 0.01644943 0.09433306
v -0.01132929 0.01800214 0.09369429
v -0.01303800 0.01800214 0.09353421
v -0.01403566 0.01557572 0.09433306
v -0.00961784 0.01623725 0.09433306
v -0.00961784 0.01800214 0.09359824
v -0.00968503 0.01800214 0.09360214
v -0.01418788 0.01800214 0.09311408
v -0.01436410 0.01504401 0.09433306
v -0.00881765 0.01592521 0.09433306
v -0.00882519 0.01800214 0.09330071
v -0.01434216 0.01800214 0.09265257
v -0.01495584 0.01331157 0.09433306
v -0.00866749 0.01578542 0.09433306
v -0.00847824 0.01800214 0.09316249
v -0.01463905 0.01800214 0.09168738
v -0.01502715 0.01160159 0.09433306
v -0.01469254 0.01800214 0.09151167
v -0.01477825 0.01800214 0.09106812
v -0.01496064 0.01800214 0.08980228
v -0.01498463 0.01800214 0.08935795
v -0.01514440 0.01800214 0.08635617
v -0.00850498 0.01552580 0.09433306
v -0.00820054 0.01391318 0.09433306
v -0.00821837 0.01800214 0.09151167
v -0.01503538 0.00646917 0.09433306
v -0.01504155 0.00134424 0.09433306
v -0.01503743 0.00476669 0.09433306
v -0.00815940 0.01800214 0.08635617
v -0.01516360 -0.00721062 0.08635617
v -0.00816009 0.01331157 0.09433306
v -0.00815940 0.01800214 0.08980228
v -0.01504360 -0.00207571 0.09433306
v -0.00815871 0.00646917 0.08635617
v -0.01516360 -0.00750020 0.08635617
v -0.00815940 0.01331406 0.09168738
v -0.00816009 -0.00207571 0.09433306
v -0.01501961 -0.00267732 0.09433306
v -0.00815871 0.00136671 0.08635617
v -0.01405006 -0.00750020 0.08635617
v -0.01502098 -0.00750020 0.08809211
v -0.00815940 -0.00378818 0.09168738
v -0.00816351 -0.00378818 0.09433306
v -0.00816009 -0.00378818 0.09322262
v -0.01489618 -0.00378818 0.09433306
v -0.00815940 -0.00750020 0.08809211
v -0.00815940 -0.00750020 0.08635773
v -0.00815940 -0.00721062 0.08635617
v -0.01444706 -0.00750020 0.08992098
v -0.01428936 -0.00522106 0.09433306
v -0.01468157 -0.00435734 0.09433306
v -0.00846864 -0.00525102 0.09433306
v -0.00840350 -0.00750020 0.08995768
v -0.01307159 -0.00750020 0.09140547
v -0.01303800 -0.00584264 0.09433306
v -0.00900347 -0.00557804 0.09433306
v -0.00870246 -0.00750020 0.09102361
v -0.01140471 -0.00750020 0.09166473
v -0.01132929 -0.00599242 0.09433306
v -0.00961784 -0.00588259 0.09433306
v -0.00947247 -0.00750020 0.09142343
v -0.01132860 -0.00750020 0.09167644
v -0.00948482 -0.00750020 0.09142812
f 33 27 26
f 37 35 32
f 49 50 41
f 10 6 5
f 22 23 15
f 15 23 24
f 24 19 15
f 26 27 17
f 29 24 32
f 32 35 29
f 27 33 34
f 33 38 34
f 36 31 34
f 34 38 36
f 42 50 49
f 48 45 54
f 49 41 48
f 1 5 2
f 2 5 6
f 11 6 10
f 10 15 11
f 14 15 10
f 22 15 21
f 21 15 20
f 4 5 1
f 28 19 24
f 35 37 40
f 54 59 55
f 55 48 54
f 46 39 45
f 45 48 46
f 44 48 41
f 39 46 44
f 44 46 48
f 65 63 62
f 64 65 62
f 62 63 59
f 51 56 52
f 52 56 57
f 53 47 43
f 43 52 53
f 51 52 43
f 47 40 43
f 43 40 37
f 20 15 18
f 15 14 18
f 26 17 25
f 24 29 30
f 30 28 24
f 64 62 61
f 58 59 54
f 58 62 59
f 57 56 60
f 60 61 57
f 64 61 60
f 17 12 16
f 16 25 17
f 12 8 7
f 13 12 17
f 13 8 12
f 3 7 8
f 8 9 3
f 3 9 4
f 3 4 1
f 32 24 42
f 42 31 36
f 24 31 42
f 42 37 32
f 36 41 42
f 42 41 50
f 44 41 36
f 36 38 44
f 33 39 44
f 44 38 33
f 60 65 64
f 37 42 60
f 49 48 60
f 60 42 49
f 59 63 60
f 60 55 59
f 60 43 37
f 48 55 60
f 60 63 65
f 60 56 51
f 51 43 60
f 13 31 24
f 13 17 27
f 24 23 13
f 13 34 31
f 13 23 22
f 13 14 10
f 10 5 13
f 22 21 13
f 27 34 13
f 5 4 13
f 13 21 20
f 20 18 13
f 13 18 14
f 4 9 13
f 13 9 8
f 6 11 3
f 3 16 12
f 3 39 33
f 3 15 19
f 35 40 3
f 54 45 3
f 3 33 26
f 57 61 3
f 1 2 3
f 3 29 35
f 3 47 53
f 19 28 3
f 45 39 3
f 3 2 6
f 3 11 15
f 53 52 3
f 26 25 3
f 3 40 47
f 3 30 29
f 3 52 57
f 3 58 54
f 28 30 3
f 3 61 62
f 62 58 3
f 25 16 3
f 12 7 3

