# https://github.com/mikedh/trimesh
v 0.02602926 0.00311584 0.03442558
v 0.02595660 0.00311584 0.03506608
v 0.02603445 0.00305045 0.03442558
v 0.01498747 0.00311584 0.03442558
v 0.02595660 0.00305045 0.03506608
v 0.02571656 0.00311584 0.03677599
v 0.02590081 0.00197941 0.03442558
v 0.02555827 0.00120944 0.03688454
v 0.01277911 0.00081089 0.03442558
v 0.01277911 0.00208676 0.03688454
v 0.01406624 0.00311584 0.03688454
v 0.02571656 0.00305045 0.03677599
v 0.02569321 0.00292088 0.03688454
v 0.02556346 0.00126374 0.03688454
v 0.02569840 0.00311584 0.03688454
v 0.02579312 0.00134024 0.03442558
v 0.02574641 0.00134024 0.03506608
v 0.02526114 -0.00021449 0.03688454
v 0.02548042 0.00037655 0.03632709
v 0.01277911 -0.00948984 0.03442558
v 0.01277911 -0.00948984 0.03688454
v 0.02569840 0.00305045 0.03688454
v 0.02564780 0.00067639 0.03442558
v 0.02523778 -0.00030334 0.03688454
v 0.02551545 0.00028031 0.03506608
v 0.01814041 -0.00948984 0.03442558
v 0.01814431 -0.00948984 0.03688454
v 0.02552843 0.00025316 0.03442558
v 0.02465520 -0.00208017 0.03688454
v 0.02292562 -0.00720956 0.03688454
v 0.02117010 -0.00893334 0.03442558
v 0.01814820 -0.00948984 0.03506608
v 0.01814820 -0.00948984 0.03677599
v 0.02117010 -0.00893334 0.03688454
v 0.02292692 -0.00720956 0.03442558
v 0.02231709 -0.00837191 0.03688454
v 0.02231709 -0.00837191 0.03442558
f 10 4 9
f 11 4 10
f 5 8 3
f 35 36 37
f 3 1 2
f 2 5 3
f 3 8 7
f 32 26 31
f 30 35 28
f 36 35 30
f 8 5 14
f 5 13 14
f 12 13 5
f 16 19 23
f 16 7 17
f 17 19 16
f 17 7 8
f 8 19 17
f 13 12 22
f 28 23 25
f 25 23 19
f 19 24 25
f 25 24 29
f 29 30 25
f 25 30 28
f 18 19 8
f 18 24 19
f 33 34 27
f 9 20 10
f 20 21 10
f 23 20 9
f 9 4 23
f 23 35 37
f 23 1 3
f 23 26 20
f 4 1 23
f 37 31 23
f 3 7 23
f 28 35 23
f 23 7 16
f 23 31 26
f 34 31 37
f 37 36 34
f 11 15 6
f 6 1 4
f 6 4 11
f 6 2 1
f 15 22 6
f 6 22 12
f 5 2 6
f 6 12 5
f 21 27 18
f 18 10 21
f 18 15 11
f 11 10 18
f 8 14 18
f 36 30 18
f 18 22 15
f 18 34 36
f 18 30 29
f 18 14 13
f 29 24 18
f 27 34 18
f 13 22 18
f 33 21 20
f 20 26 33
f 33 26 32
f 33 27 21
f 31 34 33
f 32 31 33

