# https://github.com/mikedh/trimesh
v 0.00668240 -0.01581850 0.01567301
v 0.00668240 -0.01581850 0.01112779
v 0.00332817 -0.01581850 0.01567301
v 0.00668240 -0.02493388 0.01567301
v 0.00332817 -0.01581850 0.01112779
v 0.00668240 -0.02472050 0.01112779
v 0.00332817 -0.02150634 0.01567301
v 0.00407315 -0.02505412 0.01567301
v 0.00332817 -0.02319163 0.01112779
v 0.00332817 -0.02505412 0.01566900
v 0.00577686 -0.02468886 0.01112779
v 0.00400552 -0.02505412 0.01567301
v 0.00435125 -0.02413463 0.01112779
v 0.00332817 -0.02430732 0.01271911
v 0.00332817 -0.02492755 0.01453915
f 6 4 8
f 8 10 6
f 12 7 10
f 12 10 8
f 9 13 14
f 11 14 13
f 11 6 10
f 15 11 10
f 14 11 15
f 3 1 5
f 1 2 5
f 1 4 6
f 6 2 1
f 12 4 1
f 12 1 3
f 8 4 12
f 3 7 12
f 11 5 2
f 9 5 11
f 2 6 11
f 11 13 9
f 3 5 15
f 15 5 9
f 15 7 3
f 10 7 15
f 9 14 15

