# https://github.com/mikedh/trimesh
v 0.02184243 -0.01581850 0.01112676
v 0.02230011 -0.02238903 0.01112676
v 0.02126660 -0.01581850 0.00945687
v 0.00858331 -0.01581850 0.01112676
v 0.02231505 -0.02260547 0.01112676
v 0.02124758 -0.01581850 0.00940762
v 0.02235444 -0.02319078 0.01112676
v 0.02243864 -0.02444778 0.01112676
v 0.00858331 -0.01581850 0.00506497
v 0.00858331 -0.02505240 0.01112676
v 0.02057804 -0.01581850 0.00823502
v 0.02235579 -0.02429333 0.01095941
v 0.02201627 -0.02370700 0.01028351
v 0.02203936 -0.02484714 0.01024256
v 0.02245629 -0.02592630 0.01112676
v 0.00858331 -0.02597406 0.00506497
v 0.01627830 -0.01581850 0.00506497
v 0.00858331 -0.02598423 0.00711286
v 0.01000795 -0.02619864 0.01112676
v 0.02055495 -0.01581850 0.00819585
v 0.02203936 -0.02527596 0.01024256
v 0.02062829 -0.02260547 0.00816025
v 0.02062014 -0.02089628 0.00815609
v 0.02059705 -0.01918506 0.00816322
v 0.02245765 -0.02604316 0.01112676
v 0.00858331 -0.02607568 0.00537711
v 0.01011932 -0.02580030 0.00506497
v 0.01603927 -0.02619864 0.00611058
v 0.01112159 -0.02619864 0.00576521
v 0.01897413 -0.01581850 0.00661083
v 0.01897413 -0.01747485 0.00661083
v 0.01897277 -0.02089628 0.00661142
v 0.01897141 -0.02260547 0.00661142
v 0.01626879 -0.01681332 0.00506497
v 0.00858331 -0.02607771 0.00604649
v 0.02244271 -0.02619864 0.01112676
v 0.00925692 -0.02619864 0.00767899
v 0.01985417 -0.01581850 0.00736804
v 0.02240197 -0.02619864 0.01105673
v 0.02215208 -0.02619864 0.01063659
v 0.02174057 -0.02619864 0.01000994
v 0.02145401 -0.02591817 0.00956666
v 0.02050335 -0.02602691 0.00831929
v 0.02060249 -0.02431568 0.00819111
v 0.01982701 -0.02260547 0.00730513
v 0.01982701 -0.02089628 0.00730157
v 0.01982837 -0.01918506 0.00730869
v 0.01982973 -0.01581850 0.00734074
v 0.00858331 -0.02607670 0.00567382
v 0.01087034 -0.02619864 0.00579606
v 0.00924334 -0.02619864 0.00603937
v 0.00924198 -0.02619864 0.00608209
v 0.01062045 -0.02566007 0.00506497
v 0.01100344 -0.02544566 0.00506497
v 0.01268477 -0.02423743 0.00506497
v 0.01773961 -0.02619864 0.00640669
v 0.01900265 -0.01581850 0.00663338
v 0.01894153 -0.02431568 0.00662982
v 0.01624706 -0.01747485 0.00506497
v 0.00858331 -0.02607771 0.00601978
v 0.02048433 -0.02619864 0.00834362
v 0.01975775 -0.02619864 0.00763329
v 0.01962873 -0.02602691 0.00746476
v 0.01979713 -0.02431568 0.00733658
v 0.01296318 -0.02403014 0.00506497
v 0.01775048 -0.02602691 0.00637465
v 0.01791888 -0.02619864 0.00646248
v 0.01877448 -0.02602691 0.00673426
v 0.01585864 -0.02017277 0.00506497
v 0.01610310 -0.01918506 0.00506497
v 0.01619138 -0.01851743 0.00506497
v 0.01874461 -0.02619864 0.00675266
v 0.01404287 -0.02294995 0.00506497
v 0.01551097 -0.02098570 0.00506497
v 0.01571604 -0.02063512 0.00506497
f 37 19 35
f 19 10 18
f 35 19 18
f 28 29 16
f 6 8 12
f 33 45 58
f 16 29 26
f 52 37 35
f 52 26 51
f 68 72 67
f 1 2 3
f 3 8 6
f 48 23 47
f 14 24 20
f 23 24 14
f 14 15 25
f 8 15 14
f 14 12 8
f 17 30 31
f 50 26 29
f 51 26 50
f 26 52 49
f 27 28 16
f 27 53 28
f 70 71 58
f 17 33 34
f 8 3 7
f 20 24 38
f 38 23 48
f 38 24 23
f 46 47 23
f 45 33 46
f 48 47 57
f 47 46 57
f 57 31 30
f 57 46 31
f 6 14 11
f 11 14 20
f 6 12 13
f 13 14 6
f 12 14 13
f 23 14 22
f 22 44 45
f 22 46 23
f 45 46 22
f 32 33 17
f 17 31 32
f 32 46 33
f 31 46 32
f 60 52 35
f 60 49 52
f 28 53 54
f 73 74 66
f 66 65 73
f 56 65 66
f 66 74 75
f 67 56 66
f 66 68 67
f 75 68 66
f 58 68 69
f 69 70 58
f 69 68 75
f 59 33 58
f 59 34 33
f 58 71 59
f 5 3 2
f 5 7 3
f 72 68 63
f 44 22 21
f 21 22 14
f 21 14 25
f 25 36 21
f 28 54 55
f 55 56 28
f 55 65 56
f 72 63 62
f 64 68 58
f 64 63 68
f 58 45 64
f 45 44 64
f 41 21 40
f 39 21 36
f 40 21 39
f 43 41 61
f 44 21 43
f 43 64 44
f 63 64 43
f 61 62 43
f 43 62 63
f 21 41 42
f 42 43 21
f 41 43 42
f 11 9 4
f 4 1 11
f 11 17 9
f 1 3 11
f 11 30 17
f 11 38 48
f 48 57 11
f 11 3 6
f 20 38 11
f 11 57 30
f 4 9 60
f 9 16 60
f 35 18 60
f 60 10 4
f 60 18 10
f 16 26 60
f 26 49 60
f 5 1 4
f 5 36 25
f 4 10 5
f 5 10 19
f 19 36 5
f 5 2 1
f 25 15 5
f 5 15 8
f 8 7 5
f 9 17 55
f 55 16 9
f 55 54 53
f 73 65 55
f 55 27 16
f 55 74 73
f 53 27 55
f 17 34 55
f 75 74 55
f 71 70 55
f 55 69 75
f 55 59 71
f 70 69 55
f 34 59 55
f 39 36 19
f 37 52 39
f 19 37 39
f 67 72 39
f 39 50 29
f 39 56 67
f 29 28 39
f 39 52 51
f 28 56 39
f 51 50 39
f 61 41 39
f 72 62 39
f 39 62 61
f 39 41 40

