# https://github.com/mikedh/trimesh
v 0.00996575 -0.03485643 0.01651621
v 0.01007354 -0.03629077 0.01651621
v 0.00826803 -0.03798398 0.01754162
v 0.00826803 -0.03629077 0.01751099
v 0.00826803 -0.03485643 0.01750734
v 0.02305742 -0.03485643 0.01651621
v 0.01088872 -0.03782514 0.01651621
v 0.00826803 -0.03965016 0.01820967
v 0.01097630 -0.03794410 0.01651621
v 0.00826803 -0.03485643 0.02396099
v 0.02321405 -0.03485643 0.01670729
v 0.02363006 -0.03697278 0.01894408
v 0.02257235 -0.03553845 0.01651621
v 0.00826803 -0.04050522 0.01888501
v 0.01108914 -0.03800223 0.01651621
v 0.01262013 -0.03849026 0.01651621
v 0.00826803 -0.03800088 0.02394057
v 0.01361046 -0.03485643 0.02396536
v 0.02386922 -0.03485643 0.01764810
v 0.02356100 -0.03512883 0.01736804
v 0.02392649 -0.03583248 0.01850795
v 0.02432228 -0.03635768 0.01957712
v 0.02400565 -0.03756963 0.02008472
v 0.02305405 -0.03816040 0.01949981
v 0.02248982 -0.03761087 0.01835480
v 0.02236182 -0.03583248 0.01651621
v 0.00826803 -0.04114330 0.01973975
v 0.01090893 -0.04050725 0.01888501
v 0.01604083 -0.03849026 0.01651621
v 0.01262013 -0.03972046 0.01796097
v 0.01533008 -0.03485643 0.02396609
v 0.00826803 -0.03971100 0.02379908
v 0.01775035 -0.03800088 0.02394057
v 0.02413702 -0.03485643 0.01807548
v 0.02421955 -0.03485643 0.01821113
v 0.02500778 -0.03485643 0.01968068
v 0.02359974 -0.03868155 0.02138142
v 0.02247972 -0.03928583 0.02005554
v 0.02508862 -0.03485643 0.01992062
v 0.02496062 -0.03629077 0.02138142
v 0.02416397 -0.03782717 0.02138142
v 0.02190034 -0.03875049 0.01891491
v 0.02189865 -0.03703835 0.01721416
v 0.02153317 -0.03664495 0.01651621
v 0.00826803 -0.04176110 0.02138142
v 0.01604083 -0.04114330 0.01973975
v 0.01604083 -0.04050725 0.01888501
v 0.01647369 -0.03847201 0.01651621
v 0.01714402 -0.03890123 0.01705226
v 0.01604083 -0.03972046 0.01796097
v 0.01604083 -0.03485643 0.02396609
v 0.00826803 -0.04118453 0.02294725
v 0.01604083 -0.03971100 0.02379908
v 0.01945986 -0.03800088 0.02393765
v 0.02403765 -0.03763047 0.02259864
v 0.02253024 -0.03933788 0.02268470
v 0.02274414 -0.03953998 0.02138142
v 0.02176560 -0.04039504 0.02138142
v 0.02067252 -0.04076275 0.02025465
v 0.02128727 -0.03979819 0.01958514
v 0.02521494 -0.03485643 0.02034070
v 0.02538673 -0.03521265 0.02138142
v 0.02544568 -0.03485643 0.02173806
v 0.02076010 -0.03917025 0.01847295
v 0.02075842 -0.03749258 0.01673063
v 0.02095547 -0.03711811 0.01651621
v 0.01604083 -0.04176110 0.02138142
v 0.01775035 -0.04112167 0.01979008
v 0.01775035 -0.04172190 0.02138142
v 0.01775035 -0.04045790 0.01893460
v 0.01761561 -0.03834493 0.01651621
v 0.01772845 -0.03832533 0.01651621
v 0.02117106 -0.03629077 0.02393984
v 0.01775035 -0.03485643 0.02395953
v 0.01262013 -0.04118453 0.02294725
v 0.01604083 -0.04118386 0.02294725
v 0.01775035 -0.03971100 0.02378449
v 0.02117106 -0.03800088 0.02384721
v 0.02301194 -0.03812052 0.02306321
v 0.02436944 -0.03629077 0.02289766
v 0.02126032 -0.03982928 0.02302383
v 0.02074999 -0.04079722 0.02253592
v 0.02091000 -0.04088712 0.02138142
v 0.01945986 -0.04144544 0.02138142
v 0.01945986 -0.04098040 0.01997969
v 0.01945986 -0.04029500 0.01912422
v 0.02547263 -0.03485643 0.02138142
v 0.02470629 -0.03485643 0.02297496
v 0.01945986 -0.03943995 0.01818195
v 0.01934028 -0.03793870 0.01651621
v 0.02056809 -0.03738916 0.01651621
v 0.01775035 -0.04116696 0.02293266
v 0.01945986 -0.04103110 0.02280212
v 0.01781772 -0.03830843 0.01651621
v 0.02260435 -0.03485643 0.02390118
v 0.02117106 -0.03485643 0.02394057
v 0.01945986 -0.03971100 0.02365103
v 0.02288057 -0.03629077 0.02374949
v 0.02288057 -0.03485643 0.02387055
v 0.02454966 -0.03485643 0.02306467
f 4 1 3
f 3 1 2
f 14 8 16
f 16 8 15
f 18 10 17
f 18 17 31
f 1 4 5
f 3 2 7
f 9 8 3
f 3 7 9
f 15 8 9
f 37 57 38
f 77 54 53
f 77 92 97
f 28 27 14
f 14 16 28
f 23 40 41
f 41 37 23
f 22 36 23
f 23 12 22
f 23 37 38
f 41 40 55
f 55 37 41
f 33 53 54
f 54 51 33
f 76 67 92
f 76 92 77
f 77 53 76
f 69 67 46
f 69 46 68
f 68 85 69
f 92 67 69
f 78 54 77
f 77 97 78
f 58 82 83
f 38 57 58
f 79 78 81
f 81 78 97
f 68 46 47
f 91 64 90
f 60 42 38
f 64 42 60
f 86 64 59
f 59 85 86
f 64 60 59
f 59 58 83
f 38 58 59
f 59 60 38
f 89 94 90
f 86 94 89
f 90 64 89
f 89 64 86
f 35 36 22
f 22 34 35
f 24 23 38
f 12 23 24
f 87 62 61
f 61 62 40
f 6 12 13
f 12 26 13
f 75 76 53
f 67 76 75
f 92 69 93
f 93 97 92
f 93 81 97
f 82 81 93
f 73 51 54
f 54 78 73
f 56 81 82
f 56 55 79
f 79 81 56
f 56 58 57
f 82 58 56
f 57 37 56
f 37 55 56
f 30 28 16
f 44 26 43
f 43 42 44
f 64 91 65
f 65 42 64
f 84 69 85
f 85 59 84
f 84 59 83
f 83 82 84
f 82 93 84
f 84 93 69
f 34 20 19
f 12 20 21
f 21 20 34
f 22 12 21
f 21 34 22
f 39 61 40
f 39 23 36
f 40 23 39
f 63 62 87
f 40 62 63
f 63 55 40
f 98 78 79
f 99 78 98
f 51 73 74
f 74 73 96
f 96 73 95
f 95 78 99
f 95 73 78
f 70 85 68
f 86 85 70
f 68 47 70
f 70 72 94
f 70 94 86
f 25 43 26
f 25 26 12
f 12 24 25
f 42 43 25
f 38 42 25
f 25 24 38
f 66 65 91
f 44 42 66
f 42 65 66
f 11 19 20
f 11 12 6
f 11 20 12
f 80 63 88
f 55 63 80
f 79 55 80
f 80 98 79
f 99 98 100
f 100 80 88
f 98 80 100
f 71 72 49
f 72 70 49
f 49 50 29
f 47 50 49
f 49 70 47
f 71 49 48
f 48 49 29
f 10 5 32
f 32 27 45
f 17 10 32
f 32 4 3
f 3 8 32
f 14 27 32
f 32 8 14
f 32 5 4
f 45 52 32
f 45 27 67
f 27 46 67
f 17 32 33
f 32 53 33
f 33 51 31
f 31 17 33
f 47 46 27
f 27 28 47
f 75 32 52
f 75 53 32
f 75 52 45
f 45 67 75
f 50 47 28
f 28 30 50
f 16 29 50
f 50 30 16
f 36 35 100
f 1 5 100
f 100 6 1
f 100 18 31
f 10 18 100
f 100 5 10
f 31 51 100
f 87 61 100
f 100 39 36
f 100 63 87
f 51 74 100
f 100 35 34
f 100 95 99
f 100 11 6
f 34 19 100
f 61 39 100
f 88 63 100
f 100 74 96
f 96 95 100
f 19 11 100
f 1 6 48
f 48 2 1
f 15 9 48
f 48 72 71
f 48 16 15
f 48 7 2
f 90 94 48
f 6 13 48
f 48 9 7
f 48 91 90
f 48 26 44
f 48 29 16
f 94 72 48
f 48 13 26
f 44 66 48
f 48 66 91

