# https://github.com/mikedh/trimesh
v -0.02014678 0.01844890 0.02822417
v -0.02012925 0.01774370 0.02580927
v -0.02012299 0.01673838 0.02580927
v -0.02014678 0.01844890 0.02993419
v -0.02014678 0.02771980 0.02993419
v -0.02014553 0.02357389 0.02822417
v -0.02013551 0.02771980 0.02651521
v -0.02013551 0.01844890 0.02651521
v -0.02012925 0.02771980 0.02580927
v -0.02007165 0.01603318 0.02580927
v -0.01999903 0.01502786 0.03668485
v -0.02012299 0.01673838 0.02993419
v -0.02013927 0.01844890 0.03164315
v -0.02011047 0.01673674 0.03335424
v -0.02013927 0.02771980 0.03164315
v -0.02014178 0.02771980 0.02822417
v -0.02014428 0.02699492 0.02822417
v -0.00766016 0.02771980 0.02580927
v -0.01944056 0.01096723 0.02580927
v -0.01948814 0.01096559 0.03613649
v -0.01948814 0.01096559 0.03668485
v -0.02003785 0.01673838 0.03668485
v -0.02009169 0.01673838 0.03506533
v -0.02012299 0.01844890 0.03335531
v -0.02013176 0.02771980 0.03236507
v -0.00766016 0.02771980 0.03335318
v -0.00740847 0.02771816 0.03668485
v -0.00735588 0.02339841 0.03517607
v -0.00735588 0.02187649 0.03472993
v -0.00735588 0.02017253 0.03460748
v -0.00735588 0.01846530 0.03459683
v -0.00766016 0.01096723 0.02580927
v -0.01944056 0.01096559 0.03335424
v -0.00735588 0.01096559 0.03668485
v -0.02003785 0.02015613 0.03668485
v -0.02009044 0.02357553 0.03506533
v -0.02012049 0.02771816 0.03335531
v -0.02012049 0.02771980 0.03335318
v -0.00735588 0.02506792 0.03668485
v -0.00735588 0.02428565 0.03595441
v -0.02003534 0.02771816 0.03668485
v -0.00735588 0.01844890 0.03459683
v -0.00735588 0.01673838 0.03459790
v -0.00735588 0.01502786 0.03463942
v -0.00735588 0.01332883 0.03510153
v -0.00735588 0.01096559 0.03628023
v -0.00766016 0.01096559 0.03335531
v -0.00767268 0.01096559 0.03335424
v -0.02003659 0.02528604 0.03668485
v -0.02008918 0.02771816 0.03506533
v -0.02006539 0.02771816 0.03578725
f 22 23 11
f 11 12 3
f 18 26 27
f 28 18 27
f 4 5 1
f 50 38 37
f 24 15 13
f 1 5 6
f 5 17 6
f 6 7 1
f 17 7 6
f 23 24 14
f 14 24 13
f 11 23 14
f 14 12 11
f 14 4 12
f 13 4 14
f 2 3 1
f 10 19 11
f 11 3 10
f 20 21 11
f 11 19 20
f 41 38 51
f 38 50 51
f 36 24 23
f 36 50 37
f 37 24 36
f 25 24 37
f 15 24 25
f 37 38 25
f 16 17 5
f 16 7 17
f 1 7 8
f 8 2 1
f 27 39 40
f 28 27 40
f 29 18 28
f 29 30 18
f 47 32 46
f 44 32 43
f 33 20 19
f 49 51 50
f 50 36 49
f 41 51 49
f 45 32 44
f 45 46 32
f 18 30 31
f 48 32 47
f 23 22 35
f 35 36 23
f 35 49 36
f 42 43 32
f 4 3 12
f 1 3 4
f 41 27 38
f 38 27 26
f 15 4 13
f 5 4 15
f 32 9 18
f 19 10 32
f 32 2 9
f 3 2 32
f 32 10 3
f 18 9 16
f 5 15 16
f 16 26 18
f 16 38 26
f 16 25 38
f 9 7 16
f 15 25 16
f 8 7 9
f 9 2 8
f 34 21 48
f 48 46 34
f 21 20 48
f 47 46 48
f 20 33 48
f 19 32 48
f 48 33 19
f 35 22 11
f 35 27 41
f 34 39 35
f 11 21 35
f 35 21 34
f 35 39 27
f 41 49 35
f 42 39 34
f 28 40 42
f 42 29 28
f 34 46 42
f 42 40 39
f 30 29 42
f 44 43 42
f 42 45 44
f 46 45 42
f 42 31 30
f 42 32 18
f 18 31 42

