# https://github.com/mikedh/trimesh
v 0.01900479 -0.01595706 0.02838029
v 0.01927565 -0.01660698 0.02838029
v 0.01956658 -0.01735631 0.02715940
v 0.01852058 -0.01595706 0.02715940
v 0.01274622 -0.01595706 0.02838029
v 0.01957861 -0.01737889 0.02838029
v 0.01956457 -0.01750511 0.02715940
v 0.01274622 -0.01595706 0.02715940
v 0.01274622 -0.01665169 0.02838029
v 0.01957393 -0.01750511 0.02838029
v 0.01368721 -0.01750511 0.02715940
v 0.01274622 -0.01726175 0.02715940
v 0.01274622 -0.01744101 0.02716108
v 0.01443626 -0.01750511 0.02838029
f 1 3 4
f 6 3 2
f 2 3 1
f 7 3 6
f 14 9 13
f 10 7 6
f 11 14 13
f 13 12 11
f 10 1 5
f 6 2 10
f 10 2 1
f 5 9 10
f 9 14 10
f 11 10 14
f 7 10 11
f 3 7 8
f 8 4 3
f 7 11 8
f 8 11 12
f 8 9 5
f 13 9 8
f 8 12 13
f 5 1 8
f 1 4 8

