# https://github.com/mikedh/trimesh
v 0.00406429 0.02693343 0.02972093
v 0.00577505 0.02691567 0.02972093
v 0.00577628 0.02680999 0.02875453
v 0.00406429 0.02682775 0.02875453
v 0.00064649 0.02693343 0.02972093
v 0.00595266 0.02687660 0.02972093
v 0.00675931 0.02659418 0.02875491
v 0.00577628 0.02675137 0.02822325
v 0.00406429 0.02676913 0.02822325
v 0.00064649 0.02682775 0.02875453
v 0.00003965 0.02680466 0.02875491
v -0.00106426 0.02686683 0.02972093
v 0.00733902 0.02651957 0.02972093
v 0.00725021 0.02646718 0.02875491
v 0.00720088 0.02643787 0.02822325
v 0.00577628 0.02637037 0.02677958
v 0.00692336 0.02628866 0.02698949
v 0.00406429 0.02638014 0.02675928
v 0.00064649 0.02676913 0.02822325
v -0.00106426 0.02676114 0.02875453
v -0.00230755 0.02638813 0.02822325
v -0.00234949 0.02641833 0.02875491
v -0.00242719 0.02647162 0.02972093
v 0.00808894 0.02602223 0.02972093
v 0.00751663 0.02629044 0.02875453
v 0.00805687 0.02583573 0.02822325
v 0.00577628 0.02603022 0.02592426
v 0.00749197 0.02565544 0.02645707
v 0.00746236 0.02532595 0.02580858
v 0.00595759 0.02590056 0.02580858
v 0.00406429 0.02603910 0.02590396
v 0.00064649 0.02638014 0.02675928
v -0.00106426 0.02634462 0.02684853
v -0.00106426 0.02670164 0.02822325
v -0.00238772 0.02637481 0.02875453
v -0.00210157 0.02625403 0.02708142
v -0.00316231 0.02540410 0.02822325
v -0.00253327 0.02634906 0.02972093
v 0.00819501 0.02594763 0.02972093
v 0.00850337 0.02473802 0.02651337
v 0.00844046 0.02460303 0.02580858
v 0.00811361 0.02490232 0.02580858
v 0.00577628 0.02595917 0.02580858
v 0.00421354 0.02597871 0.02580858
v 0.00406429 0.02598049 0.02580858
v 0.00064649 0.02603910 0.02590396
v -0.00106426 0.02600180 0.02599282
v -0.00262454 0.02505863 0.02580858
v -0.00283175 0.02524780 0.02658500
v -0.00106426 0.02588901 0.02580858
v -0.00364704 0.02447159 0.02722965
v -0.00320548 0.02542364 0.02875491
v -0.00328195 0.02546006 0.02972093
v 0.00825915 0.02584194 0.02972093
v 0.00846390 0.02528510 0.02875491
v 0.00857491 0.02497959 0.02822325
v 0.00875375 0.02357726 0.02651337
v 0.00851694 0.02424778 0.02580858
v 0.00064649 0.02598049 0.02580858
v -0.00349780 0.02397957 0.02580858
v -0.00356317 0.02410124 0.02608897
v -0.00367048 0.02454796 0.02822325
v -0.00367295 0.02316517 0.02580858
v -0.00368405 0.02354973 0.02660109
v -0.00367541 0.02456839 0.02875453
v -0.00368281 0.02460480 0.02972093
v 0.00859094 0.02509238 0.02972093
v 0.00858107 0.02502044 0.02875453
v 0.00882406 0.02357726 0.02822325
v 0.00881542 0.02186764 0.02580858
v 0.00865878 0.02355061 0.02580858
v -0.00372475 0.02357726 0.02822325
v -0.00367788 0.02452487 0.02875491
v -0.00368898 0.02279927 0.02580858
v -0.00372228 0.02186320 0.02580858
v -0.00374078 0.02186764 0.02651337
v -0.00369021 0.02448313 0.02972093
v 0.00884749 0.02357726 0.02972093
v 0.00883269 0.02357726 0.02875453
v 0.00884009 0.02186764 0.02651337
v 0.00884009 0.02015802 0.02580858
v -0.00372968 0.02357726 0.02875453
v -0.00373955 0.02116337 0.02580858
v -0.00374078 0.01945286 0.02580858
v -0.00374078 0.02336411 0.02972093
v -0.00373832 0.02357726 0.02972093
v 0.00885983 0.02186764 0.02972093
v 0.00884009 0.01786225 0.02580858
v -0.00374078 0.01786225 0.02580858
v -0.00374078 0.02186764 0.02972093
v 0.00884009 0.01786225 0.02651337
v 0.00858354 0.02002836 0.02972093
v 0.00860574 0.01786225 0.02800875
v 0.00877102 0.01786225 0.02707452
v -0.00374078 0.01786225 0.02651337
v -0.00373462 0.02167581 0.02972093
v 0.00831466 0.01931254 0.02972093
v 0.00761777 0.01878056 0.02972093
v 0.00755857 0.01786225 0.02868175
v -0.00368775 0.01786225 0.02770309
v -0.00368651 0.02068911 0.02972093
v 0.00577505 0.01823792 0.02972093
v 0.00670628 0.01786225 0.02872541
v -0.00309201 0.01786225 0.02828990
v -0.00255424 0.01877612 0.02972093
v -0.00329182 0.01969887 0.02972093
v -0.00340899 0.01993511 0.02972093
v 0.00406429 0.01823437 0.02972093
v 0.00577628 0.01786225 0.02874955
v -0.00279105 0.01786225 0.02844809
v -0.00130355 0.01833295 0.02972093
v 0.00406429 0.01786225 0.02875146
v 0.00064649 0.01823437 0.02972093
v -0.00139975 0.01786225 0.02870703
v -0.00106426 0.01826634 0.02972093
v 0.00064649 0.01786225 0.02875146
v 0.00033937 0.01823704 0.02972093
v -0.00106426 0.01786225 0.02874955
f 91 88 87
f 105 106 100
f 30 17 29
f 16 17 27
f 27 30 43
f 17 30 27
f 48 36 50
f 51 63 64
f 92 93 87
f 92 97 93
f 93 97 98
f 87 93 94
f 94 91 87
f 105 100 104
f 101 100 107
f 107 100 106
f 50 46 59
f 16 27 18
f 36 34 33
f 33 34 19
f 2 3 1
f 16 18 9
f 29 17 28
f 17 26 28
f 31 18 27
f 15 26 17
f 79 67 78
f 69 67 79
f 57 70 71
f 69 70 57
f 87 88 81
f 53 51 62
f 62 51 64
f 36 48 49
f 36 49 37
f 37 49 51
f 76 83 84
f 75 83 76
f 76 64 75
f 12 5 11
f 21 34 36
f 36 37 21
f 99 98 102
f 93 98 99
f 105 104 110
f 47 46 50
f 47 33 46
f 50 36 47
f 36 33 47
f 46 33 32
f 32 33 19
f 1 3 4
f 16 9 8
f 8 17 16
f 8 15 17
f 29 28 42
f 42 28 26
f 26 41 42
f 6 13 7
f 7 2 6
f 3 2 7
f 7 8 3
f 15 8 7
f 80 79 78
f 80 81 70
f 80 70 69
f 69 79 80
f 80 78 87
f 87 81 80
f 58 57 71
f 41 57 58
f 69 57 56
f 72 64 76
f 72 62 64
f 65 66 53
f 53 62 65
f 61 48 60
f 61 49 48
f 51 49 61
f 60 63 61
f 63 51 61
f 23 37 38
f 64 63 74
f 74 75 64
f 19 34 20
f 20 11 19
f 12 11 20
f 20 21 12
f 34 21 20
f 22 23 12
f 12 21 22
f 22 21 23
f 35 37 23
f 23 21 35
f 35 21 37
f 105 110 111
f 111 110 115
f 19 11 10
f 10 11 5
f 44 45 31
f 44 27 43
f 44 31 27
f 25 24 39
f 39 26 25
f 26 15 25
f 40 57 41
f 40 56 57
f 40 41 26
f 55 56 40
f 40 54 55
f 39 54 40
f 40 26 39
f 68 56 55
f 68 54 67
f 55 54 68
f 68 67 69
f 69 56 68
f 96 95 100
f 96 90 95
f 96 100 101
f 76 85 86
f 62 72 73
f 73 65 62
f 53 38 52
f 52 38 37
f 52 51 53
f 52 37 51
f 108 109 102
f 103 99 102
f 102 109 103
f 117 118 113
f 115 118 117
f 115 110 114
f 114 118 115
f 13 24 14
f 24 25 14
f 14 25 15
f 14 7 13
f 15 7 14
f 82 72 76
f 76 86 82
f 113 118 116
f 77 82 86
f 72 82 77
f 77 73 72
f 66 65 77
f 65 73 77
f 109 108 112
f 18 31 32
f 32 31 46
f 19 9 32
f 32 9 18
f 9 4 8
f 8 4 3
f 46 31 45
f 45 59 46
f 89 95 90
f 90 85 76
f 90 84 89
f 76 84 90
f 10 9 19
f 10 4 9
f 10 5 1
f 1 4 10
f 44 58 71
f 44 48 50
f 88 89 44
f 50 59 44
f 44 81 88
f 44 30 29
f 44 63 60
f 43 30 44
f 71 70 44
f 60 48 44
f 89 84 44
f 29 42 44
f 44 74 63
f 70 81 44
f 44 84 83
f 83 75 44
f 44 42 41
f 59 45 44
f 41 58 44
f 75 74 44
f 101 107 77
f 77 106 105
f 77 38 53
f 77 54 39
f 87 78 77
f 53 66 77
f 105 111 77
f 1 5 77
f 115 117 77
f 39 24 77
f 102 98 77
f 77 92 87
f 77 108 102
f 77 13 6
f 78 67 77
f 77 2 1
f 12 23 77
f 77 5 12
f 97 92 77
f 77 98 97
f 77 107 106
f 6 2 77
f 77 96 101
f 77 24 13
f 85 90 77
f 23 38 77
f 77 111 115
f 67 54 77
f 90 96 77
f 77 86 85
f 113 108 77
f 77 117 113
f 112 89 88
f 88 91 112
f 112 95 89
f 112 94 93
f 91 94 112
f 112 104 100
f 100 95 112
f 93 99 112
f 112 110 104
f 99 103 112
f 112 114 110
f 112 103 109
f 118 114 112
f 112 116 118
f 112 108 113
f 113 116 112

