# https://github.com/mikedh/trimesh
v -0.00953480 -0.04133124 0.02138113
v -0.00961778 -0.04131301 0.02138113
v -0.00961778 -0.04091445 0.01999833
v -0.00953480 -0.04095173 0.02006529
v -0.00953480 -0.04097328 0.02274742
v -0.00961778 -0.04096416 0.02273869
v -0.01089231 -0.04080424 0.02138113
v -0.01072426 -0.04070812 0.02029915
v -0.01078028 -0.04074126 0.02247474
v -0.00953480 -0.04092356 0.01998766
v -0.00961778 -0.04033026 0.01914343
v -0.00961778 -0.03971045 0.02357612
v -0.00953480 -0.03971045 0.02358583
v -0.01134181 -0.03977177 0.02293858
v -0.01174706 -0.04026563 0.02138113
v -0.01256585 -0.03920831 0.01996340
v -0.01217582 -0.03885034 0.01882417
v -0.01245728 -0.03734142 0.01681063
v -0.01274496 -0.03581923 0.01484949
v -0.01258936 -0.03924228 0.02261933
v -0.00953480 -0.04036755 0.01917448
v -0.00953480 -0.04033772 0.01913275
v -0.01132867 -0.03800017 0.02378088
v -0.00953480 -0.03800017 0.02392643
v -0.00961778 -0.03800017 0.02392643
v -0.01311079 -0.03805735 0.02299778
v -0.01277470 -0.03941049 0.02138113
v -0.01362876 -0.03855618 0.02138113
v -0.01412391 -0.03745163 0.01967034
v -0.01393373 -0.03719226 0.01872616
v -0.01388463 -0.03542813 0.01540843
v -0.01331134 -0.03522262 0.01454480
v -0.01304509 -0.03540409 0.01454480
v -0.01166753 -0.03581923 0.01484949
v -0.00953480 -0.03952401 0.01827882
v -0.01416886 -0.03752537 0.02256402
v -0.01303887 -0.03629072 0.02372168
v -0.01303887 -0.03286685 0.02445335
v -0.01458725 -0.03286685 0.02426218
v -0.01459624 -0.03286685 0.02426024
v -0.00953480 -0.03286685 0.02445820
v -0.01132867 -0.03286685 0.02445626
v -0.01460730 -0.03286685 0.02425345
v -0.01429956 -0.03770104 0.02138113
v -0.01505335 -0.03614406 0.01976544
v -0.01551945 -0.03528643 0.01925890
v -0.01531406 -0.03504281 0.01796053
v -0.01573176 -0.03392003 0.01671262
v -0.01553328 -0.03363747 0.01557243
v -0.01416125 -0.03575129 0.01654863
v -0.01527119 -0.03335408 0.01454480
v -0.01441159 -0.03428545 0.01454480
v -0.01267028 -0.03540409 0.01454480
v -0.01138192 -0.03511573 0.01454480
v -0.00953480 -0.03948258 0.01824583
v -0.01474284 -0.03612665 0.02275324
v -0.01560935 -0.03544635 0.02224476
v -0.00953480 -0.03286685 0.01689311
v -0.01608445 -0.03286685 0.02312199
v -0.01506510 -0.03341208 0.02368966
v -0.01515501 -0.03632967 0.02138113
v -0.01562457 -0.03547536 0.02039813
v -0.01585347 -0.03418767 0.01796053
v -0.01610104 -0.03298783 0.01618571
v -0.01606024 -0.03286685 0.01577718
v -0.01580506 -0.03286685 0.01487666
v -0.01565015 -0.03286685 0.01454480
v -0.01122563 -0.03492266 0.01454480
v -0.00953480 -0.03810292 0.01749766
v -0.01610658 -0.03286685 0.02310355
v -0.01659896 -0.03286685 0.02138113
v -0.01596688 -0.03457961 0.02138113
v -0.01562387 -0.03547453 0.02138113
v -0.00953480 -0.03457961 0.01689311
v -0.01056659 -0.03286685 0.01454480
v -0.01659757 -0.03286685 0.01967034
v -0.01647240 -0.03286933 0.01796053
v -0.01615982 -0.03286685 0.01618668
v -0.01112813 -0.03471716 0.01454480
v -0.00953480 -0.03799106 0.01745788
v -0.00953480 -0.03557396 0.01694551
v -0.01056659 -0.03287928 0.01454480
v -0.01647310 -0.03286685 0.01796053
v -0.00953480 -0.03629072 0.01706972
f 34 54 55
f 81 84 82
f 82 74 81
f 23 40 37
f 25 23 13
f 38 23 25
f 29 46 47
f 16 28 29
f 54 34 53
f 80 82 84
f 79 80 69
f 82 80 79
f 20 9 14
f 26 23 37
f 20 14 26
f 26 14 23
f 37 40 26
f 40 23 39
f 39 23 38
f 29 28 44
f 43 26 40
f 41 25 24
f 24 25 13
f 42 25 41
f 38 25 42
f 31 51 52
f 31 52 32
f 49 51 31
f 1 3 4
f 4 3 10
f 10 3 11
f 11 3 8
f 68 79 69
f 68 69 55
f 55 54 68
f 1 5 6
f 6 14 9
f 13 23 12
f 23 14 12
f 14 6 12
f 12 5 13
f 12 6 5
f 9 7 2
f 1 6 2
f 2 6 9
f 2 7 8
f 2 3 1
f 8 3 2
f 15 16 8
f 8 7 15
f 15 9 20
f 15 7 9
f 20 26 36
f 26 43 36
f 36 28 20
f 36 44 28
f 60 43 59
f 76 83 77
f 77 62 76
f 29 44 45
f 44 62 45
f 45 46 29
f 45 62 46
f 46 62 63
f 63 62 77
f 77 83 78
f 78 63 77
f 64 63 78
f 67 49 66
f 67 51 49
f 30 16 29
f 30 31 16
f 29 49 30
f 20 28 27
f 27 15 20
f 28 16 27
f 16 15 27
f 57 70 71
f 44 36 57
f 56 59 70
f 70 57 56
f 56 57 36
f 60 59 56
f 56 43 60
f 56 36 43
f 48 63 64
f 66 49 48
f 29 47 48
f 48 49 29
f 48 47 46
f 46 63 48
f 64 78 65
f 66 48 65
f 65 48 64
f 49 31 50
f 50 30 49
f 31 30 50
f 16 31 17
f 31 18 17
f 8 16 17
f 17 18 8
f 10 11 21
f 11 22 21
f 19 22 11
f 19 31 32
f 19 18 31
f 19 11 8
f 8 18 19
f 72 57 71
f 71 76 72
f 72 76 62
f 61 62 44
f 44 57 61
f 22 19 35
f 35 34 55
f 35 19 34
f 33 19 32
f 73 72 62
f 57 72 73
f 62 61 73
f 73 61 57
f 75 58 82
f 58 74 82
f 71 70 65
f 65 42 41
f 41 58 65
f 75 67 65
f 40 39 65
f 65 58 75
f 65 43 40
f 65 39 38
f 70 59 65
f 38 42 65
f 65 76 71
f 65 59 43
f 83 76 65
f 65 78 83
f 65 67 66
f 35 80 84
f 35 84 81
f 35 58 41
f 35 5 1
f 41 24 35
f 81 74 35
f 1 4 35
f 35 74 58
f 55 69 35
f 69 80 35
f 13 5 35
f 35 24 13
f 35 4 10
f 10 21 35
f 35 21 22
f 32 52 33
f 75 82 33
f 33 68 54
f 33 67 75
f 54 53 33
f 82 79 33
f 52 51 33
f 79 68 33
f 51 67 33
f 33 53 34
f 34 19 33

