# https://github.com/mikedh/trimesh
v 0.01343231 -0.02558925 0.02838049
v 0.01432996 -0.02556759 0.02838049
v 0.01343231 -0.02515176 0.02923533
v 0.01343231 -0.01918414 0.02838049
v 0.01432996 -0.02507069 0.02923533
v 0.01617237 -0.02472126 0.02838049
v 0.01704581 -0.02448994 0.02923533
v 0.01702422 -0.02449553 0.02923533
v 0.01605329 -0.02473104 0.02923533
v 0.01343231 -0.02001160 0.02923533
v 0.01343231 -0.01920511 0.02841857
v 0.01428613 -0.01845033 0.02843313
v 0.01425734 -0.01845033 0.02838049
v 0.01738210 -0.02392316 0.02838049
v 0.01757969 -0.02413841 0.02923533
v 0.01420107 -0.01905345 0.02923533
v 0.01504442 -0.01845033 0.02923533
v 0.01955425 -0.01845033 0.02838049
v 0.01815740 -0.02315720 0.02838049
v 0.01792187 -0.02380085 0.02923533
v 0.02011561 -0.01845033 0.02923533
v 0.01953986 -0.01928408 0.02838049
v 0.01831508 -0.02299576 0.02838049
v 0.01893794 -0.02275814 0.02923533
v 0.02009009 -0.01918903 0.02923533
v 0.01904981 -0.02221932 0.02838049
v 0.01926441 -0.02241291 0.02923533
v 0.01969950 -0.02088029 0.02923533
f 21 22 18
f 12 16 17
f 13 4 12
f 15 14 20
f 2 3 1
f 2 5 3
f 11 10 16
f 12 4 11
f 11 16 12
f 7 2 6
f 6 15 7
f 14 15 6
f 5 2 9
f 25 26 22
f 25 22 21
f 8 2 7
f 8 9 2
f 27 26 28
f 26 25 28
f 20 23 24
f 24 23 26
f 24 26 27
f 20 14 19
f 19 23 20
f 13 17 21
f 21 18 13
f 12 17 13
f 11 4 1
f 3 10 11
f 1 3 11
f 24 25 21
f 24 10 3
f 21 17 24
f 3 5 24
f 27 28 24
f 24 17 16
f 16 10 24
f 24 15 20
f 7 15 24
f 5 9 24
f 24 8 7
f 9 8 24
f 24 28 25
f 1 4 19
f 19 18 22
f 4 13 19
f 19 2 1
f 19 13 18
f 22 26 19
f 14 6 19
f 19 6 2
f 26 23 19

