# https://github.com/mikedh/trimesh
v 0.01697905 -0.01081925 0.02838049
v 0.01615551 -0.01081925 0.02923533
v 0.01732125 -0.01109122 0.02838049
v 0.01092866 -0.01081925 0.02838049
v 0.01777347 -0.01230512 0.02923533
v 0.01092866 -0.01081925 0.02923533
v 0.01914551 -0.01428291 0.02923533
v 0.01919243 -0.01438555 0.02923533
v 0.01848538 -0.01415862 0.02838049
v 0.01092866 -0.01438555 0.02838049
v 0.01092866 -0.01438555 0.02923533
v 0.01855334 -0.01438555 0.02838049
f 3 7 8
f 5 7 3
f 2 5 3
f 1 2 3
f 8 12 9
f 9 3 8
f 6 1 4
f 6 2 1
f 10 6 4
f 11 6 10
f 7 11 8
f 2 6 7
f 7 5 2
f 7 6 11
f 8 11 12
f 11 10 12
f 4 1 9
f 9 10 4
f 9 12 10
f 1 3 9

