# https://github.com/mikedh/trimesh
v 0.00918152 0.02751148 0.06096590
v 0.00918238 -0.00673856 0.05995910
v 0.00918152 0.02751148 0.06278788
v 0.00918152 0.03557885 0.05995910
v 0.01798638 -0.00673856 0.05995910
v 0.00918324 -0.00674340 0.06096590
v 0.00918238 -0.00673856 0.06096534
v 0.00918324 -0.00674340 0.06278788
v 0.00918152 0.04151075 0.06278788
v 0.00918152 0.04232426 0.05995910
v 0.01798810 -0.00673856 0.06096590
v 0.01798810 -0.00674340 0.06278788
v 0.01797000 -0.00674340 0.06096590
v 0.01798638 0.03363222 0.05995910
v 0.00918497 0.04259059 0.06278788
v 0.00918152 0.04260512 0.06245006
v 0.00918152 0.04268260 0.06072361
v 0.00918411 0.04272134 0.05995910
v 0.01798810 0.02751148 0.06096590
v 0.01798810 0.02751148 0.06278788
v 0.01798638 0.03498324 0.06128460
v 0.01793638 0.03725915 0.05995910
v 0.00919876 0.04259059 0.06278788
v 0.01262019 0.04272618 0.05995910
v 0.00918152 0.04268260 0.06074023
v 0.01798638 0.03535126 0.06262036
v 0.01798638 0.03539000 0.06278788
v 0.01785276 0.03896851 0.06072361
v 0.01794241 0.03690566 0.06278788
v 0.01785535 0.03896851 0.05995910
v 0.01262019 0.04258575 0.06278788
v 0.01262019 0.04260512 0.06243345
v 0.01432875 0.04261481 0.05995910
v 0.01432875 0.04248406 0.06278788
v 0.01432875 0.04258091 0.06072361
v 0.01783724 0.03896851 0.06243345
v 0.01785448 0.03861502 0.06278788
v 0.01762174 0.03971907 0.05995910
v 0.01597610 0.04202404 0.05995910
v 0.01588128 0.04195625 0.06278788
v 0.01589507 0.04196593 0.06243345
v 0.01740192 0.04040184 0.05995910
v 0.01733295 0.04061491 0.05995910
v 0.01783293 0.03896851 0.06278788
v 0.01683125 0.04146716 0.05995910
v 0.01673642 0.04138000 0.06278788
v 0.01675022 0.04138969 0.06243345
v 0.01732175 0.04053743 0.06243345
v 0.01742519 0.04021299 0.06278788
v 0.01731744 0.04052291 0.06278788
f 11 12 5
f 3 7 8
f 13 5 12
f 16 15 18
f 18 15 24
f 9 15 16
f 36 44 37
f 14 21 19
f 19 21 26
f 26 27 19
f 19 27 20
f 4 2 1
f 18 10 17
f 21 14 22
f 22 26 21
f 29 27 22
f 27 26 22
f 48 45 50
f 36 37 28
f 28 37 29
f 28 22 30
f 29 22 28
f 43 45 48
f 43 44 36
f 16 18 25
f 18 17 25
f 32 31 34
f 32 34 24
f 48 50 49
f 44 43 49
f 49 43 48
f 35 34 40
f 40 33 35
f 35 33 24
f 24 34 35
f 38 28 30
f 36 28 38
f 31 32 23
f 24 15 23
f 23 32 24
f 47 46 50
f 47 50 45
f 45 39 41
f 41 47 45
f 41 39 33
f 41 33 40
f 42 43 36
f 36 38 42
f 1 2 7
f 7 3 1
f 8 7 2
f 8 2 6
f 13 8 6
f 12 8 13
f 2 5 13
f 6 2 13
f 14 19 11
f 11 5 14
f 11 19 20
f 20 12 11
f 1 3 25
f 3 9 25
f 25 9 16
f 10 4 25
f 25 4 1
f 25 17 10
f 23 8 12
f 3 8 23
f 23 37 44
f 23 9 3
f 23 46 40
f 15 9 23
f 12 20 23
f 29 37 23
f 23 27 29
f 40 34 23
f 23 20 27
f 34 31 23
f 44 49 23
f 23 49 50
f 50 46 23
f 40 46 41
f 46 47 41
f 42 5 2
f 30 22 42
f 42 18 24
f 42 14 5
f 42 10 18
f 2 4 42
f 24 33 42
f 42 4 10
f 42 22 14
f 42 39 45
f 45 43 42
f 33 39 42
f 42 38 30

