# https://github.com/mikedh/trimesh
v 0.00918238 -0.02456580 0.06278815
v 0.01798638 -0.02456580 0.06278815
v 0.00918238 -0.02456580 0.06459495
v 0.00918238 0.04151086 0.06278815
v 0.01798638 -0.02456580 0.06459495
v 0.01798638 0.03539752 0.06278815
v 0.00918238 0.04141883 0.06459495
v 0.00918238 0.04252318 0.06414414
v 0.00918583 0.04258891 0.06278815
v 0.01798638 0.03698830 0.06459495
v 0.01794156 0.03690285 0.06278815
v 0.01798638 0.03624550 0.06344271
v 0.00918669 0.04249688 0.06459495
v 0.00918238 0.04252318 0.06416076
v 0.01261985 0.04258891 0.06278815
v 0.01798638 0.03696201 0.06443189
v 0.01783295 0.03896692 0.06278815
v 0.01786053 0.03851992 0.06459495
v 0.01785364 0.03861195 0.06278815
v 0.01261985 0.04249688 0.06459495
v 0.01432911 0.04247716 0.06278815
v 0.01387831 0.04241800 0.06459495
v 0.01432911 0.04241142 0.06414414
v 0.01781916 0.03896692 0.06414414
v 0.01742439 0.04020931 0.06278815
v 0.01781140 0.03896692 0.06459495
v 0.01588063 0.04195128 0.06278815
v 0.01580391 0.04190527 0.06459495
v 0.01582719 0.04191841 0.06414414
v 0.01432911 0.04238513 0.06459495
v 0.01731750 0.04051826 0.06278815
v 0.01743214 0.04007784 0.06459495
v 0.01673569 0.04137939 0.06278815
v 0.01665983 0.04131365 0.06459495
v 0.01730371 0.04047225 0.06414414
v 0.01729682 0.04045910 0.06459495
v 0.01668224 0.04132680 0.06414414
f 4 8 9
f 18 10 17
f 29 27 21
f 21 28 29
f 14 7 13
f 9 8 14
f 33 27 29
f 29 28 33
f 9 14 15
f 6 11 12
f 23 30 28
f 28 21 23
f 21 15 23
f 17 25 24
f 24 25 26
f 26 18 24
f 24 18 17
f 20 14 13
f 20 15 14
f 16 12 11
f 11 19 16
f 16 19 17
f 17 10 16
f 34 33 28
f 31 33 35
f 33 36 35
f 30 23 22
f 22 23 15
f 15 20 22
f 37 34 36
f 37 36 33
f 33 34 37
f 32 25 31
f 31 35 32
f 26 25 32
f 32 35 36
f 1 2 5
f 5 3 1
f 1 3 14
f 14 4 1
f 8 4 14
f 3 7 14
f 19 6 2
f 19 2 1
f 1 4 19
f 19 4 9
f 27 33 19
f 9 15 19
f 19 21 27
f 19 25 17
f 19 11 6
f 31 25 19
f 19 33 31
f 19 15 21
f 16 5 2
f 16 10 5
f 2 6 16
f 6 12 16
f 3 5 32
f 30 22 32
f 32 7 3
f 5 10 32
f 13 7 32
f 32 18 26
f 10 18 32
f 28 30 32
f 32 20 13
f 32 34 28
f 36 34 32
f 32 22 20

