# https://github.com/mikedh/trimesh
v -0.02014846 -0.00037179 0.02993415
v -0.02013926 -0.01405362 0.02993415
v -0.02013619 -0.01405362 0.03164450
v -0.02014846 0.00084825 0.02993415
v -0.02014846 0.00084825 0.02944476
v -0.02008560 -0.01559111 0.02839177
v -0.02008100 -0.01575918 0.02993415
v -0.02014539 -0.00037179 0.02839177
v -0.02013313 -0.01405362 0.02839177
v -0.02013313 -0.01405362 0.03201989
v -0.02013619 -0.00037179 0.03164450
v -0.02007794 -0.01575918 0.03164450
v -0.02007640 -0.01575918 0.03201989
v -0.02012853 0.00084825 0.03164450
v -0.02013466 0.00084825 0.02839177
v -0.02014539 -0.00020372 0.02839177
v -0.02007794 -0.01575918 0.02839177
v -0.01991543 -0.01730290 0.02839177
v -0.01989857 -0.01747097 0.03164450
v -0.01989857 -0.01747097 0.03201989
v -0.02013159 -0.00037179 0.03201989
v -0.02012546 0.00084825 0.03178194
v -0.00721424 0.00084825 0.02839177
v -0.01989704 -0.01747097 0.02839177
v -0.01966248 -0.01917964 0.03201989
v -0.02011933 0.00084825 0.03201989
v -0.00682178 0.00084825 0.03158875
v -0.00448697 0.00011063 0.02839177
v -0.01968395 -0.01901157 0.02839177
v -0.01941413 -0.02089142 0.02839177
v -0.01941566 -0.02089142 0.03164450
v -0.01941566 -0.02089142 0.03201989
v -0.00692143 0.00084825 0.03201989
v -0.00448697 0.00020711 0.03201989
v -0.00448697 -0.03094116 0.02839177
v -0.01918111 -0.02241647 0.02839177
v -0.01921330 -0.02221106 0.03201989
v -0.00582224 -0.03093805 0.03201989
v -0.00448697 -0.03093805 0.03201953
v -0.00598781 -0.03094116 0.02858142
v -0.00598781 -0.03094116 0.02839177
v -0.01914278 -0.02266546 0.02839177
v -0.01912592 -0.02277128 0.03201989
v -0.00598781 -0.03093805 0.03201989
v -0.01303824 -0.03093494 0.03201989
v -0.01303824 -0.03093805 0.02839177
v -0.01902014 -0.02343732 0.03201989
v -0.01902014 -0.02343732 0.02839177
v -0.01474757 -0.03083534 0.03201989
v -0.01474757 -0.03083845 0.02839177
v -0.01850198 -0.02602367 0.02839177
v -0.01850044 -0.02602367 0.03201989
v -0.01600466 -0.03051788 0.03201989
v -0.01600466 -0.03051788 0.02839177
v -0.01820150 -0.02735886 0.03201989
v -0.01811872 -0.02773234 0.02839177
v -0.01686010 -0.02991098 0.03201989
v -0.01609051 -0.03045875 0.02839177
v -0.01811718 -0.02773234 0.03201989
v -0.01760822 -0.02905820 0.02839177
v -0.01753463 -0.02914223 0.02839177
v -0.01686010 -0.02991098 0.02839177
v -0.01760668 -0.02905508 0.03201989
v -0.01771860 -0.02876564 0.03201989
f 35 39 40
f 45 40 44
f 10 21 11
f 39 34 38
f 38 40 39
f 38 44 40
f 14 11 21
f 27 33 34
f 27 34 28
f 28 23 27
f 5 2 1
f 8 2 5
f 46 40 45
f 1 2 3
f 10 11 3
f 3 13 10
f 9 2 8
f 22 21 26
f 22 14 21
f 16 5 15
f 8 5 16
f 4 5 1
f 11 14 4
f 35 40 41
f 40 46 41
f 50 53 54
f 57 63 60
f 49 53 50
f 13 3 12
f 20 13 12
f 12 7 20
f 12 2 7
f 12 3 2
f 2 9 6
f 7 2 6
f 6 17 7
f 60 63 64
f 64 59 60
f 47 48 51
f 47 51 52
f 60 59 56
f 7 17 18
f 61 62 57
f 61 57 60
f 53 57 58
f 58 54 53
f 57 62 58
f 55 52 51
f 51 56 55
f 55 56 59
f 19 18 24
f 19 25 20
f 24 25 19
f 20 7 19
f 7 18 19
f 32 25 31
f 25 30 31
f 30 36 31
f 31 37 32
f 31 36 37
f 29 25 24
f 29 30 25
f 42 43 37
f 37 36 42
f 47 43 42
f 42 48 47
f 34 39 35
f 34 35 28
f 4 3 11
f 1 3 4
f 26 33 4
f 23 15 4
f 15 5 4
f 4 27 23
f 33 27 4
f 4 22 26
f 14 22 4
f 50 46 49
f 49 46 45
f 43 21 10
f 43 64 63
f 34 33 43
f 43 38 34
f 26 21 43
f 45 44 43
f 43 33 26
f 44 38 43
f 10 13 43
f 43 13 20
f 63 57 43
f 43 49 45
f 43 55 59
f 43 57 53
f 53 49 43
f 59 64 43
f 47 52 43
f 20 25 43
f 32 37 43
f 43 25 32
f 52 55 43
f 28 35 42
f 42 23 28
f 42 9 8
f 8 16 42
f 42 15 23
f 17 6 42
f 35 41 42
f 42 46 50
f 60 56 42
f 42 16 15
f 42 41 46
f 54 58 42
f 50 54 42
f 42 6 9
f 42 51 48
f 42 18 17
f 42 61 60
f 42 56 51
f 24 18 42
f 42 29 24
f 62 61 42
f 42 58 62
f 42 36 30
f 30 29 42

