# https://github.com/mikedh/trimesh
v 0.01645127 0.00688497 0.02580609
v 0.01645127 0.01006462 0.02126774
v 0.01599489 0.01006462 0.02118339
v 0.01603996 0.00678616 0.02580609
v 0.01645127 -0.01581850 0.02580609
v 0.01645127 0.01006462 0.00553326
v 0.01572650 0.01006462 0.02103366
v 0.01514842 0.00738916 0.02407469
v 0.01565100 0.00648213 0.02580609
v 0.01520852 0.01006462 0.02053807
v 0.01453276 -0.01581850 0.02580609
v 0.01645127 -0.01581850 0.00555435
v 0.01641371 0.01006462 0.00543414
v 0.01645127 0.00480236 0.00552904
v 0.01598569 0.00477449 0.00426370
v 0.01511855 0.00602355 0.02580609
v 0.01453276 0.01006462 0.01539025
v 0.01453276 -0.01581850 0.00426370
v 0.01453276 0.00207622 0.02580609
v 0.01600052 -0.01581850 0.00431853
v 0.01645127 -0.01581596 0.00553115
v 0.01590417 0.01006462 0.00426370
v 0.01597085 0.00647200 0.00426370
v 0.01645127 -0.01576275 0.00552904
v 0.01598569 -0.01405259 0.00426370
v 0.01453276 0.01006462 0.00426370
v 0.01596766 -0.01581850 0.00426370
v 0.01598399 -0.01581850 0.00427636
v 0.01598362 -0.01581596 0.00426370
v 0.01598531 -0.01576275 0.00426370
f 6 14 15
f 17 19 16
f 1 2 3
f 3 4 1
f 7 4 3
f 10 4 7
f 30 25 24
f 30 24 21
f 21 29 30
f 21 12 20
f 20 29 21
f 8 10 17
f 17 16 8
f 4 10 8
f 13 23 22
f 15 23 13
f 13 6 15
f 28 27 29
f 29 20 28
f 9 8 16
f 4 8 9
f 11 19 26
f 26 18 11
f 26 19 17
f 1 5 12
f 12 24 14
f 14 6 12
f 12 2 1
f 6 2 12
f 21 24 12
f 14 24 25
f 15 14 25
f 18 26 30
f 26 22 30
f 15 25 30
f 30 27 18
f 30 23 15
f 29 27 30
f 22 23 30
f 13 2 6
f 13 26 17
f 13 3 2
f 17 10 13
f 13 22 26
f 7 3 13
f 13 10 7
f 28 5 11
f 11 18 28
f 28 12 5
f 18 27 28
f 28 20 12
f 9 5 1
f 11 5 9
f 9 19 11
f 9 16 19
f 1 4 9

