# https://github.com/mikedh/trimesh
v -0.00374078 0.02357732 0.08350200
v -0.00374078 0.02357732 0.08638156
v -0.00374078 0.02728918 0.08809161
v -0.00369588 0.02532389 0.08350200
v -0.00371085 0.02240945 0.08350200
v -0.00369089 0.02184529 0.08350200
v -0.00368465 0.02229161 0.08638156
v -0.00366719 0.02254746 0.08753339
v -0.00369588 0.02357087 0.08809780
v -0.00374078 0.02528838 0.08809161
v -0.00372956 0.02728918 0.08840655
v -0.00369588 0.02728918 0.08633644
v -0.00356242 0.02582994 0.08350200
v -0.00363975 0.02099299 0.08350200
v -0.00363726 0.02099783 0.08399298
v -0.00367842 0.02179928 0.08460605
v -0.00366719 0.02413665 0.08912047
v -0.00361231 0.02118266 0.08513331
v -0.00352749 0.02143609 0.08638156
v -0.00358861 0.02299702 0.08867283
v -0.00368465 0.02528838 0.08936994
v -0.00367717 0.02708498 0.08986535
v -0.00367717 0.02728918 0.08987066
v -0.00363601 0.02728918 0.08609140
v -0.00345140 0.02603737 0.08350200
v -0.00287888 0.02014069 0.08350200
v -0.00200700 0.01925288 0.08424334
v -0.00280903 0.02015925 0.08468833
v -0.00352500 0.02528838 0.09022540
v -0.00361106 0.02657247 0.09047842
v -0.00267183 0.02032632 0.08638156
v -0.00321317 0.02193326 0.08809780
v -0.00228391 0.02072261 0.08809161
v -0.00227767 0.02202204 0.08964861
v -0.00321067 0.02357087 0.08973531
v -0.00366345 0.02728918 0.09012632
v -0.00324684 0.02728918 0.08519523
v -0.00288637 0.02690339 0.08350200
v -0.00203569 0.01923593 0.08350200
v -0.00107899 0.01911406 0.08350200
v -0.00111267 0.01919961 0.08475644
v -0.00171388 0.01931987 0.08538455
v -0.00266933 0.02528838 0.09133742
v -0.00312585 0.02728918 0.09118172
v -0.00195461 0.02098895 0.08897627
v -0.00195337 0.02269436 0.09067924
v -0.00228141 0.02357732 0.09094286
v -0.00314207 0.02728918 0.08500769
v -0.00295372 0.02728918 0.08472283
v -0.00155297 0.02716247 0.08350200
v -0.00052268 0.01909065 0.08350200
v 0.00064606 0.01911890 0.08467063
v -0.00057382 0.01927386 0.08562164
v -0.00111267 0.01953133 0.08626744
v -0.00232008 0.02728918 0.09204869
v -0.00280404 0.02702042 0.09150639
v -0.00165775 0.02632792 0.09234505
v -0.00106402 0.02035538 0.08809161
v -0.00106402 0.02093730 0.08904350
v -0.00106402 0.02177346 0.08989808
v -0.00106402 0.02262817 0.09073055
v -0.00106402 0.02357732 0.09130646
v -0.00107899 0.02541106 0.09213096
v -0.00106402 0.02728918 0.08443708
v -0.00106402 0.02722946 0.08350200
v 0.00064606 0.01904465 0.08350200
v 0.00064606 0.01925934 0.08566941
v 0.00406623 0.01911890 0.08467063
v 0.00064606 0.01953779 0.08652399
v -0.00168644 0.02728918 0.09242732
v -0.00051769 0.02606239 0.09239105
v -0.00107899 0.02693809 0.09246006
v 0.00064606 0.02027709 0.08809161
v 0.00064606 0.02089694 0.08909481
v 0.00064606 0.02172099 0.08995028
v 0.00064606 0.02257652 0.09077036
v 0.00064606 0.02357732 0.09138431
v 0.00064606 0.02516731 0.09212565
v 0.00064606 0.02728918 0.08443089
v 0.00686024 0.02727707 0.08350200
v 0.00406623 0.01904465 0.08350200
v 0.00406623 0.01925934 0.08566941
v 0.00460757 0.01904949 0.08350200
v 0.00577632 0.01913504 0.08467063
v 0.00577632 0.01926741 0.08564376
v 0.00406623 0.01953779 0.08652399
v -0.00110269 0.02728918 0.09246271
v 0.00064606 0.02602284 0.09240344
v 0.00064606 0.02699863 0.09253525
v -0.00073722 0.02728918 0.09248040
v 0.00406623 0.02027709 0.08809161
v 0.00406623 0.02089694 0.08909481
v 0.00406623 0.02172099 0.08995028
v 0.00406623 0.02257652 0.09077036
v 0.00406623 0.02357732 0.09138431
v 0.00406623 0.02516731 0.09212565
v 0.00406623 0.02728918 0.08443089
v 0.00577632 0.02728918 0.08443178
v 0.00749763 0.02728918 0.08447247
v 0.00839321 0.02728918 0.08469452
v 0.00757247 0.02725771 0.08350200
v 0.00577632 0.01906160 0.08350200
v 0.00610062 0.01909065 0.08350200
v 0.00680162 0.01922705 0.08467063
v 0.00667439 0.01928355 0.08558803
v 0.00577632 0.01954747 0.08649922
v 0.00577632 0.02029646 0.08809161
v 0.00406623 0.02602284 0.09240344
v 0.00064606 0.02728918 0.09253879
v 0.00406623 0.02699863 0.09253525
v 0.00577632 0.02090663 0.08908243
v 0.00577632 0.02173391 0.08993789
v 0.00577632 0.02258863 0.09076062
v 0.00577632 0.02357732 0.09136485
v 0.00577632 0.02519233 0.09211681
v 0.00577632 0.02604786 0.09239548
v 0.00858405 0.02728918 0.08483960
v 0.00858529 0.02670161 0.08350200
v 0.00687771 0.01919073 0.08350200
v 0.00765604 0.01981866 0.08467063
v 0.00838572 0.02096958 0.08730869
v 0.00738911 0.02070808 0.08796422
v 0.00675297 0.02094860 0.08902935
v 0.00406623 0.02728918 0.09253879
v 0.00577632 0.02699863 0.09251844
v 0.00577632 0.02728918 0.09252286
v 0.00435561 0.02728918 0.09253614
v 0.00675173 0.02264190 0.09071993
v 0.00666441 0.02609629 0.09238132
v 0.00889338 0.02728918 0.08638156
v 0.00891085 0.02528838 0.08350200
v 0.00773337 0.01978557 0.08350200
v 0.00857532 0.02067338 0.08467063
v 0.00848301 0.02083318 0.08638156
v 0.00879734 0.02186789 0.08638156
v 0.00856409 0.02192842 0.08796422
v 0.00846430 0.02253939 0.08912931
v 0.00789303 0.02139896 0.08844813
v 0.00732300 0.02202043 0.08964949
v 0.00678416 0.02699863 0.09243528
v 0.00678915 0.02728918 0.09243705
v 0.00789178 0.02322462 0.09026964
v 0.00838323 0.02436506 0.09069693
v 0.00738786 0.02370808 0.09095702
v 0.00848052 0.02528838 0.09083228
v 0.00763982 0.02699863 0.09184522
v 0.00898194 0.02728918 0.08809161
v 0.00900190 0.02357732 0.08350200
v 0.00802400 0.02005594 0.08350200
v 0.00858779 0.02064029 0.08350200
v 0.00889588 0.02186789 0.08467063
v 0.00890087 0.02357732 0.08809161
v 0.00856284 0.02370808 0.08974061
v 0.00693508 0.02728918 0.09233709
v 0.00879360 0.02528838 0.08980165
v 0.00857407 0.02699863 0.09098975
v 0.00764481 0.02728918 0.09184698
v 0.00898194 0.02699863 0.08809161
v 0.00889463 0.02728918 0.08980165
v 0.00897696 0.02528838 0.08809161
v 0.00897696 0.02357732 0.08638156
v 0.00891708 0.02186789 0.08350200
v 0.00889338 0.02699863 0.08980165
v 0.00857407 0.02728918 0.09099152
v 0.00862895 0.02728918 0.09078805
f 69 73 58
f 122 121 123
f 69 53 67
f 80 65 64
f 64 65 49
f 50 38 49
f 49 65 50
f 117 118 101
f 131 147 148
f 80 98 99
f 73 74 59
f 59 58 73
f 45 58 59
f 59 60 45
f 105 122 123
f 121 122 105
f 105 120 121
f 123 107 105
f 85 105 106
f 106 105 107
f 53 41 52
f 52 67 53
f 41 40 52
f 42 41 53
f 75 59 74
f 60 59 75
f 114 128 129
f 132 120 119
f 129 128 144
f 144 143 129
f 128 143 144
f 162 151 150
f 150 151 133
f 120 132 133
f 135 151 152
f 135 133 151
f 4 12 13
f 3 4 1
f 3 12 4
f 80 64 79
f 148 160 161
f 161 160 152
f 152 151 161
f 161 162 148
f 151 162 161
f 148 147 158
f 158 160 148
f 130 131 118
f 147 131 130
f 130 118 117
f 80 99 100
f 100 101 80
f 117 101 100
f 28 31 18
f 15 28 18
f 15 6 14
f 14 26 15
f 8 15 18
f 7 15 8
f 45 60 46
f 82 68 85
f 119 120 104
f 120 105 104
f 84 104 105
f 85 68 84
f 84 105 85
f 111 91 107
f 111 107 123
f 66 52 51
f 51 52 40
f 54 42 53
f 54 53 69
f 69 58 54
f 54 58 45
f 45 42 54
f 128 114 113
f 114 95 113
f 115 114 129
f 129 146 140
f 141 126 140
f 143 155 145
f 129 143 145
f 145 146 129
f 159 158 147
f 160 158 159
f 142 143 128
f 142 137 143
f 152 155 153
f 153 137 152
f 153 155 143
f 143 137 153
f 123 121 138
f 121 137 138
f 139 128 123
f 123 138 139
f 139 138 137
f 139 142 128
f 137 142 139
f 150 133 149
f 149 133 132
f 152 137 136
f 136 135 152
f 136 137 121
f 121 135 136
f 134 135 121
f 133 135 134
f 121 120 134
f 120 133 134
f 24 13 12
f 24 37 38
f 49 38 48
f 38 37 48
f 30 44 36
f 2 6 7
f 2 8 9
f 7 8 2
f 97 98 80
f 80 79 97
f 90 89 109
f 90 72 89
f 71 88 89
f 89 72 71
f 78 88 71
f 27 26 39
f 31 28 27
f 27 15 26
f 28 15 27
f 27 42 31
f 41 42 27
f 39 40 27
f 27 40 41
f 7 6 16
f 16 15 7
f 6 15 16
f 18 31 19
f 19 8 18
f 8 19 20
f 77 78 62
f 61 46 60
f 61 75 76
f 60 75 61
f 61 62 46
f 61 76 77
f 77 62 61
f 43 44 30
f 85 106 86
f 86 82 85
f 107 91 86
f 86 106 107
f 119 104 103
f 103 84 102
f 104 84 103
f 68 81 83
f 83 84 68
f 102 84 83
f 91 111 92
f 94 113 95
f 96 95 114
f 114 115 96
f 146 157 154
f 141 140 154
f 154 140 146
f 126 110 125
f 129 140 125
f 125 140 126
f 156 145 155
f 146 145 156
f 164 157 156
f 156 157 146
f 25 24 38
f 13 24 25
f 30 36 21
f 5 2 1
f 6 2 5
f 70 72 87
f 72 90 87
f 29 20 35
f 29 43 30
f 35 43 29
f 34 46 35
f 35 20 34
f 45 46 34
f 32 20 19
f 45 34 32
f 32 34 20
f 78 71 63
f 63 62 78
f 46 62 63
f 35 46 47
f 47 43 35
f 56 55 44
f 44 43 56
f 56 43 55
f 93 92 111
f 113 94 93
f 127 124 110
f 127 110 126
f 164 156 165
f 165 156 159
f 163 156 155
f 159 156 163
f 163 155 152
f 152 160 163
f 160 159 163
f 10 2 9
f 17 29 30
f 20 29 17
f 30 21 17
f 9 8 17
f 8 20 17
f 17 10 9
f 21 10 17
f 45 32 33
f 33 42 45
f 31 42 33
f 33 19 31
f 33 32 19
f 57 63 71
f 57 72 70
f 57 71 72
f 70 55 57
f 55 43 57
f 43 47 57
f 46 63 57
f 57 47 46
f 112 93 111
f 113 93 112
f 128 113 112
f 123 128 112
f 112 111 123
f 116 115 129
f 129 125 116
f 116 108 96
f 116 96 115
f 110 108 116
f 116 125 110
f 3 10 11
f 10 23 11
f 36 23 22
f 22 21 36
f 22 10 21
f 22 23 10
f 81 52 66
f 68 52 81
f 82 52 68
f 67 52 82
f 67 82 86
f 69 67 86
f 86 73 69
f 86 91 73
f 73 91 92
f 92 74 73
f 94 95 77
f 77 76 94
f 77 95 96
f 96 78 77
f 109 89 124
f 89 110 124
f 80 101 5
f 5 132 119
f 5 65 80
f 102 83 5
f 39 26 5
f 1 4 5
f 5 81 66
f 148 162 5
f 5 25 38
f 38 50 5
f 5 131 148
f 150 149 5
f 5 50 65
f 5 101 118
f 118 131 5
f 5 26 14
f 5 40 39
f 66 51 5
f 5 162 150
f 4 13 5
f 14 6 5
f 119 103 5
f 5 51 40
f 5 149 132
f 5 103 102
f 5 83 81
f 13 25 5
f 74 92 93
f 93 75 74
f 93 94 76
f 76 75 93
f 78 96 108
f 108 88 78
f 108 110 89
f 89 88 108
f 1 2 10
f 10 3 1
f 141 154 11
f 11 157 164
f 11 64 49
f 11 130 117
f 11 36 44
f 98 97 11
f 117 100 11
f 11 24 12
f 49 48 11
f 11 90 109
f 11 99 98
f 11 126 141
f 11 127 126
f 12 3 11
f 11 79 64
f 147 130 11
f 11 100 99
f 44 55 11
f 11 159 147
f 37 24 11
f 11 48 37
f 164 165 11
f 11 97 79
f 109 124 11
f 11 55 70
f 11 154 157
f 70 87 11
f 11 87 90
f 124 127 11
f 11 165 159
f 11 23 36

