# https://github.com/mikedh/trimesh
v 0.00858272 -0.01581950 0.01112676
v 0.00858331 -0.01581950 0.00889312
v 0.00262562 -0.01581950 0.01112676
v 0.00858272 -0.02505223 0.01112676
v 0.00858331 -0.01581950 0.00506497
v 0.00858331 -0.02516773 0.00889312
v 0.00262562 -0.01581950 0.00889372
v 0.00262562 -0.02347645 0.01112676
v 0.00262621 -0.02551422 0.00742204
v 0.00262621 -0.02583862 0.00621561
v 0.00262621 -0.02589988 0.00598715
v 0.00858331 -0.02598324 0.00711286
v 0.00858331 -0.02585870 0.00764219
v 0.00577708 -0.02468766 0.01112676
v 0.00262621 -0.01581950 0.00506497
v 0.00858331 -0.02597420 0.00506497
v 0.00262562 -0.02453701 0.00889372
v 0.00262621 -0.02592097 0.00506497
v 0.00858331 -0.02607865 0.00604708
v 0.00858331 -0.02607564 0.00537770
v 0.00827189 -0.02601638 0.00506497
f 11 18 19
f 19 18 20
f 13 6 4
f 16 20 21
f 21 20 18
f 12 11 19
f 4 11 12
f 12 13 4
f 4 14 9
f 9 14 8
f 10 11 4
f 4 9 10
f 17 9 8
f 17 10 9
f 11 10 17
f 18 11 17
f 2 1 6
f 6 1 4
f 2 5 7
f 3 1 7
f 5 15 7
f 7 1 2
f 14 1 3
f 4 1 14
f 3 8 14
f 21 15 5
f 5 16 21
f 18 15 21
f 12 5 2
f 2 6 12
f 12 16 5
f 19 20 12
f 12 20 16
f 6 13 12
f 17 15 18
f 17 7 15
f 17 8 3
f 3 7 17

