# https://github.com/mikedh/trimesh
v 0.01103214 0.02699879 0.08342882
v 0.01103214 0.02871498 0.08342882
v 0.01103331 0.02528867 0.08342882
v 0.01105924 0.02355124 0.09151198
v 0.01105924 0.02357804 0.09151198
v 0.01106042 0.02528867 0.09151198
v 0.01105924 0.02871498 0.08980745
v 0.02237433 0.02871498 0.08342882
v 0.01103921 0.02355124 0.08342882
v 0.01141276 0.02355124 0.09287402
v 0.01106985 0.02871498 0.09151198
v 0.02257584 0.02871498 0.08467109
v 0.02237433 0.02355124 0.08342882
v 0.01142219 0.02871498 0.09273346
v 0.01261945 0.02355124 0.09346200
v 0.02282213 0.02871498 0.08638156
v 0.02257584 0.02355124 0.08467109
v 0.01261945 0.02871498 0.09313733
v 0.01429987 0.02355124 0.09354020
v 0.01262535 0.02871498 0.09313832
v 0.02303424 0.02871498 0.08808708
v 0.02304014 0.02528867 0.08809203
v 0.02304249 0.02357804 0.08809203
v 0.02282213 0.02355124 0.08638156
v 0.01433051 0.02355124 0.09354119
v 0.01433051 0.02871498 0.09316801
v 0.02303424 0.02871498 0.08809203
v 0.02307077 0.02355124 0.08980151
v 0.02304367 0.02355124 0.08811975
v 0.02304249 0.02355124 0.08809203
v 0.01433522 0.02871498 0.09316801
v 0.01775025 0.02355124 0.09351545
v 0.01775025 0.02871498 0.09314525
v 0.02298004 0.02871498 0.08980151
v 0.02306370 0.02355124 0.08982923
v 0.01945777 0.02355124 0.09341053
v 0.01946013 0.02871498 0.09303240
v 0.02242736 0.02871498 0.09122789
v 0.02243207 0.02355124 0.09162879
v 0.02084122 0.02871498 0.09264339
v 0.02128430 0.02355124 0.09276415
v 0.02242500 0.02870942 0.09123284
v 0.02169557 0.02871498 0.09208511
v 0.02241558 0.02355124 0.09165254
v 0.02129255 0.02355124 0.09275920
v 0.02130787 0.02355124 0.09274930
v 0.02169321 0.02870942 0.09208808
v 0.02193479 0.02407444 0.09228209
f 3 9 4
f 3 4 1
f 10 15 14
f 14 11 10
f 27 34 28
f 28 21 27
f 6 7 2
f 11 7 6
f 6 10 11
f 14 15 18
f 15 20 18
f 29 21 28
f 29 22 21
f 21 22 16
f 46 44 48
f 36 41 40
f 37 36 40
f 28 34 35
f 34 39 35
f 38 39 34
f 5 6 2
f 4 10 5
f 10 6 5
f 33 32 36
f 33 36 37
f 33 25 32
f 23 16 22
f 29 30 23
f 22 29 23
f 45 40 41
f 46 40 45
f 43 40 47
f 47 40 46
f 48 43 47
f 47 46 48
f 44 39 42
f 39 38 42
f 48 44 42
f 42 38 43
f 42 43 48
f 19 20 15
f 19 25 20
f 20 25 26
f 25 33 31
f 31 26 25
f 13 3 1
f 1 2 13
f 9 3 13
f 2 8 13
f 5 2 1
f 1 4 5
f 12 13 8
f 12 17 13
f 4 9 24
f 24 41 36
f 36 32 24
f 44 46 24
f 9 13 24
f 24 10 4
f 15 10 24
f 24 45 41
f 24 39 44
f 28 35 24
f 24 29 28
f 24 30 29
f 13 17 24
f 24 35 39
f 32 25 24
f 24 19 15
f 46 45 24
f 25 19 24
f 24 23 30
f 16 23 24
f 24 12 16
f 17 12 24
f 31 38 34
f 31 8 2
f 2 7 31
f 20 26 31
f 31 11 14
f 14 18 31
f 37 40 31
f 31 7 11
f 34 27 31
f 31 27 21
f 31 18 20
f 21 16 31
f 31 40 43
f 43 38 31
f 31 33 37
f 31 12 8
f 16 12 31

