# https://github.com/mikedh/trimesh
v -0.00081365 0.02360664 0.01277983
v -0.00643027 0.02360664 0.01299121
v -0.00643027 0.02323005 0.01297211
v -0.00643027 0.01955301 0.01259845
v -0.00081365 0.01955301 0.01193430
v -0.00081365 0.02360664 -0.00093123
v -0.00643027 0.02360664 -0.00092715
v -0.00643027 0.01955301 -0.00094078
v -0.00081365 0.01955301 -0.00094078
v -0.00081365 0.02357768 -0.00094078
v -0.00619604 0.02360664 -0.00093123
v -0.00643027 0.02357768 -0.00093669
v -0.00643027 0.02186733 -0.00094078
v -0.00619604 0.02357768 -0.00094078
f 1 4 5
f 3 1 2
f 3 4 1
f 7 14 12
f 11 14 7
f 13 12 14
f 9 6 1
f 1 5 9
f 10 6 9
f 4 8 9
f 9 5 4
f 11 7 2
f 2 1 11
f 1 6 11
f 11 6 10
f 10 14 11
f 13 9 8
f 10 9 13
f 13 14 10
f 13 8 4
f 13 3 2
f 4 3 13
f 2 7 13
f 7 12 13

