# https://github.com/mikedh/trimesh
v 0.01396792 0.03727042 0.01991313
v 0.01406395 0.03726466 0.01991313
v 0.01396792 0.03719934 0.01972212
v 0.01396792 0.03233299 0.01991313
v 0.01432983 0.03724641 0.01991313
v 0.01432966 0.03715612 0.01967091
v 0.01396792 0.03718013 0.01967060
v 0.01396792 0.03216009 0.01972589
v 0.01480782 0.02745800 0.01670395
v 0.01480782 0.03076147 0.01991313
v 0.01480782 0.03709656 0.01991313
v 0.01480782 0.03686025 0.01916260
v 0.01480782 0.03656919 0.01842714
v 0.01432966 0.03661914 0.01831467
v 0.01396792 0.03675651 0.01860150
v 0.01396792 0.03040893 0.01775891
v 0.01480782 0.03583050 0.01670395
v 0.01396792 0.02947908 0.01670395
v 0.01480782 0.03601301 0.01712148
v 0.01432966 0.03625796 0.01745983
v 0.01396792 0.03663163 0.01829079
v 0.01432966 0.03592848 0.01670395
v 0.01396792 0.03594769 0.01670395
v 0.01396792 0.03634634 0.01761660
f 1 2 3
f 9 10 4
f 7 3 2
f 12 5 11
f 16 18 9
f 5 12 6
f 14 7 6
f 12 13 6
f 6 13 14
f 2 5 6
f 6 7 2
f 9 4 8
f 8 16 9
f 14 13 20
f 20 21 14
f 15 7 14
f 14 21 15
f 19 20 13
f 17 22 19
f 22 20 19
f 21 20 24
f 24 22 23
f 24 20 22
f 1 4 5
f 5 2 1
f 10 11 5
f 5 4 10
f 22 17 9
f 9 18 22
f 18 23 22
f 19 11 10
f 9 17 19
f 19 10 9
f 19 12 11
f 19 13 12
f 24 4 1
f 1 3 24
f 24 23 18
f 3 7 24
f 18 16 24
f 24 8 4
f 7 15 24
f 16 8 24
f 24 15 21

