# https://github.com/mikedh/trimesh
v 0.01612480 -0.03093283 0.06987120
v 0.01663539 -0.03088319 0.06987120
v 0.01775061 -0.03077682 0.07098645
v 0.01612480 -0.03093283 0.07098645
v 0.01612480 0.04148571 0.06987120
v 0.01775061 -0.03076973 0.06987120
v 0.01846787 -0.03056407 0.07040140
v 0.01775061 -0.03077682 0.07098743
v 0.01612480 -0.03087610 0.07098743
v 0.01612480 0.04150698 0.07022328
v 0.01649799 0.04124459 0.06987120
v 0.01846787 -0.03055698 0.06987120
v 0.01846787 -0.03056407 0.07098645
v 0.01846787 -0.03026623 0.07098743
v 0.01612480 0.04140770 0.07098743
v 0.01612480 0.04151407 0.07098645
v 0.01652529 0.04129423 0.07098645
v 0.01739301 0.04043616 0.07098743
v 0.01731640 0.04038652 0.06987120
v 0.01846787 0.03776266 0.06987120
v 0.01846787 0.03862783 0.07098743
v 0.01652529 0.04129423 0.07098743
v 0.01827244 0.03896822 0.07098743
v 0.01762904 0.03986175 0.06987120
v 0.01846580 0.03779102 0.06987120
v 0.01846787 0.03779102 0.06989098
v 0.01846787 0.03861364 0.07095662
v 0.01804581 0.03896113 0.06987120
v 0.01825363 0.03840799 0.06987120
v 0.01819307 0.03857109 0.06987120
f 8 9 4
f 2 3 1
f 6 12 7
f 7 3 6
f 3 2 6
f 16 17 10
f 5 10 11
f 11 10 17
f 17 18 11
f 11 18 19
f 8 13 14
f 22 18 17
f 16 15 22
f 22 17 16
f 19 18 23
f 24 23 21
f 19 23 24
f 20 25 26
f 27 26 25
f 27 25 29
f 29 30 27
f 27 30 28
f 28 24 27
f 27 24 21
f 1 3 4
f 4 3 8
f 8 3 13
f 13 3 7
f 1 4 10
f 10 5 1
f 10 15 16
f 10 4 9
f 9 15 10
f 23 15 9
f 23 9 8
f 23 22 15
f 8 14 23
f 23 14 21
f 18 22 23
f 1 5 30
f 12 6 30
f 20 12 30
f 30 2 1
f 30 6 2
f 5 11 30
f 19 24 30
f 30 11 19
f 30 25 20
f 30 24 28
f 29 25 30
f 27 12 20
f 7 12 27
f 21 14 27
f 27 13 7
f 27 14 13
f 20 26 27

