# https://github.com/mikedh/trimesh
v 0.00918155 0.00818295 0.08760962
v 0.00918155 0.00989349 0.08757819
v 0.00918155 0.00476518 0.08688888
v 0.00935007 0.00476518 0.08674893
v 0.00953030 0.00818295 0.08674893
v 0.00918155 0.01148546 0.08677387
v 0.00946820 0.00989349 0.08674893
v 0.00918155 0.00476518 0.08674893
v 0.00918777 0.01148349 0.08674893
v 0.00918155 0.01149337 0.08674893
f 1 5 2
f 1 3 4
f 4 5 1
f 7 2 5
f 8 4 3
f 2 7 6
f 10 6 9
f 9 6 7
f 1 2 6
f 6 3 1
f 6 8 3
f 10 8 6
f 9 7 5
f 5 4 9
f 9 8 10
f 4 8 9

