# https://github.com/mikedh/trimesh
v 0.01635790 -0.03091756 0.07299151
v 0.01635790 -0.03091046 0.07177820
v 0.01635815 -0.03091046 0.07130484
v 0.01683114 -0.03087497 0.07177820
v 0.01775077 -0.03079689 0.07299151
v 0.01635790 0.04159572 0.07299151
v 0.01635790 0.04148215 0.07177820
v 0.01635815 -0.03090336 0.07098743
v 0.01713917 -0.03084658 0.07177820
v 0.01775077 -0.03078269 0.07177820
v 0.01796143 -0.03074011 0.07299151
v 0.01672506 0.04144666 0.07299151
v 0.01635790 0.04153184 0.07215170
v 0.01635815 0.04138278 0.07098743
v 0.01775028 -0.03076850 0.07098743
v 0.01828040 -0.03063364 0.07177820
v 0.01889548 -0.03047748 0.07298719
v 0.01889548 -0.03019356 0.07299151
v 0.01779574 0.04048134 0.07299151
v 0.01652583 0.04129051 0.07098743
v 0.01884058 -0.03044909 0.07098743
v 0.01886666 -0.03046328 0.07177780
v 0.01889548 -0.03047038 0.07264605
v 0.01889548 0.03916820 0.07299151
v 0.01798354 0.04029679 0.07299151
v 0.01739355 0.04043165 0.07098743
v 0.01889548 -0.03038521 0.07098743
v 0.01889548 -0.03042779 0.07177780
v 0.01889548 0.03905463 0.07275944
v 0.01827220 0.03896946 0.07098743
v 0.01889548 0.03788346 0.07098743
v 0.01881052 0.03803252 0.07098743
f 17 18 11
f 11 10 17
f 17 10 16
f 10 11 5
f 1 4 5
f 3 4 1
f 9 3 8
f 4 3 9
f 10 5 9
f 9 5 4
f 2 3 1
f 8 3 2
f 29 26 24
f 24 26 25
f 20 12 19
f 14 12 20
f 19 25 20
f 20 25 26
f 6 12 13
f 13 14 7
f 13 12 14
f 15 16 10
f 15 9 8
f 10 9 15
f 26 29 30
f 22 21 27
f 22 15 21
f 16 15 22
f 22 23 17
f 17 16 22
f 32 29 31
f 32 30 29
f 28 22 27
f 23 22 28
f 2 14 8
f 7 14 2
f 1 5 25
f 25 6 1
f 25 11 18
f 18 24 25
f 25 5 11
f 25 12 6
f 19 12 25
f 1 6 13
f 13 2 1
f 7 2 13
f 31 27 32
f 8 14 32
f 32 15 8
f 14 20 32
f 27 21 32
f 32 20 26
f 21 15 32
f 26 30 32
f 28 24 18
f 31 29 28
f 28 18 17
f 28 27 31
f 28 29 24
f 17 23 28

