# https://github.com/mikedh/trimesh
v -0.00633996 0.00494521 0.03738606
v -0.00633996 0.00494521 0.04463686
v -0.00633996 0.01096559 0.03742013
v 0.01244786 0.01096559 0.03742013
v 0.01241979 0.01067680 0.03742013
v 0.01233370 0.01037740 0.03742013
v 0.01225884 0.01012338 0.03742013
v 0.01098436 0.00861343 0.03742013
v 0.01002803 0.00825863 0.03742013
v 0.00919709 0.00797750 0.03742013
v 0.00859448 0.00783959 0.03742013
v 0.01277911 0.00494521 0.03781758
v -0.00633996 0.01096559 0.04463686
v 0.01277911 0.00494521 0.04463686
v 0.01277724 0.01096559 0.03834706
v 0.01277911 0.01096441 0.03834706
v 0.01277911 0.00984579 0.03801276
v 0.01277911 0.00955995 0.03795031
v 0.01277911 0.00818319 0.03787436
v 0.01277911 0.00789911 0.03786301
v 0.01277911 0.00758852 0.03785236
v 0.01277911 0.00647285 0.03781758
v 0.01277911 0.01096559 0.04463686
f 1 3 4
f 11 12 1
f 8 9 1
f 12 9 8
f 23 16 15
f 15 16 4
f 1 9 10
f 10 11 1
f 10 9 12
f 12 11 10
f 7 8 1
f 12 8 7
f 12 4 22
f 4 16 17
f 17 18 4
f 1 4 5
f 5 4 12
f 4 18 19
f 6 7 1
f 1 5 6
f 12 7 6
f 6 5 12
f 21 22 4
f 4 19 20
f 20 21 4
f 14 2 1
f 1 12 14
f 1 2 13
f 13 3 1
f 2 14 13
f 13 14 23
f 3 13 15
f 15 4 3
f 15 13 23
f 20 14 12
f 23 14 20
f 20 16 23
f 12 22 20
f 20 17 16
f 18 17 20
f 20 19 18
f 22 21 20

