# https://github.com/mikedh/trimesh
v -0.00629930 -0.03146515 0.02580820
v -0.00376612 -0.03147147 0.02580820
v -0.00447423 -0.03147147 0.02581262
v -0.00623249 -0.03101925 0.02761314
v -0.00629930 -0.03119002 0.02644018
v -0.00629930 0.00083264 0.02580820
v -0.00106326 -0.03147463 0.02580820
v -0.00106326 -0.03102241 0.02761314
v -0.00629930 -0.03095600 0.02651456
v -0.00629930 -0.03115523 0.02651332
v -0.00623249 0.00035512 0.02761314
v -0.00629930 0.00066187 0.02638929
v 0.00734994 0.00018435 0.02761314
v 0.00734994 0.00053221 0.02580961
v 0.00580545 0.00053221 0.02580820
v 0.00235439 -0.03147147 0.02580820
v 0.00003632 -0.03102241 0.02761314
v -0.00629930 0.00061760 0.02651456
v 0.00734994 -0.02701246 0.02761314
v 0.00734994 -0.00089720 0.02580820
v 0.00406455 -0.03144301 0.02580820
v 0.00235439 -0.03101925 0.02761314
v 0.00539260 -0.03062710 0.02761314
v 0.00734994 -0.02944436 0.02678876
v 0.00734994 -0.03109514 0.02580820
v 0.00576002 -0.03129438 0.02580820
v 0.00406455 -0.03094651 0.02761314
v 0.00734994 -0.03077890 0.02614583
f 13 6 11
f 14 6 13
f 4 9 10
f 15 14 20
f 6 14 15
f 1 4 5
f 4 10 5
f 12 18 11
f 12 11 6
f 19 23 24
f 25 23 27
f 3 4 1
f 28 23 25
f 28 24 23
f 25 27 26
f 26 27 21
f 22 16 21
f 21 27 22
f 2 3 1
f 2 7 3
f 4 3 8
f 3 7 8
f 17 7 16
f 16 22 17
f 17 8 7
f 18 9 4
f 4 11 18
f 12 6 1
f 1 5 12
f 12 10 9
f 9 18 12
f 12 5 10
f 20 14 28
f 28 14 13
f 28 25 20
f 13 19 28
f 19 24 28
f 20 25 2
f 1 6 2
f 6 15 2
f 2 15 20
f 25 26 2
f 21 16 2
f 2 26 21
f 16 7 2
f 17 11 4
f 17 19 13
f 13 11 17
f 17 23 19
f 17 27 23
f 17 22 27
f 4 8 17

