# https://github.com/mikedh/trimesh
v 0.02245408 0.02355074 0.09156667
v 0.02243739 0.02355074 0.09161502
v 0.02282485 0.01688431 0.09307530
v 0.02257449 0.02261629 0.09156667
v 0.01107352 0.02355074 0.09156667
v 0.02243024 0.02355074 0.09162984
v 0.02276286 0.01688431 0.09322634
v 0.02289161 0.02010038 0.09156667
v 0.02305136 0.01659280 0.09235010
v 0.02308832 0.01839290 0.09156667
v 0.01106160 0.01844739 0.09156667
v 0.01105922 0.01673719 0.09235010
v 0.01106518 0.01688431 0.09322299
v 0.01110213 0.01844671 0.09322299
v 0.01141329 0.02355006 0.09287398
v 0.01127738 0.02355074 0.09235010
v 0.02241593 0.02355074 0.09165366
v 0.02268894 0.01688431 0.09336909
v 0.02322900 0.01659280 0.09165595
v 0.01105922 0.01659280 0.09235010
v 0.02323377 0.01668271 0.09156667
v 0.01105922 0.01673719 0.09156667
v 0.01110094 0.01688431 0.09336909
v 0.01114267 0.01844671 0.09336909
v 0.01130004 0.02011536 0.09336909
v 0.01130480 0.02015691 0.09336909
v 0.01149198 0.02168866 0.09336909
v 0.01243022 0.02355006 0.09336909
v 0.02171135 0.02355074 0.09235010
v 0.02206066 0.02293300 0.09240445
v 0.02208689 0.02297522 0.09235028
v 0.02239090 0.01816678 0.09336909
v 0.02323854 0.01659280 0.09156667
v 0.01105922 0.01659280 0.09156667
v 0.01957377 0.02355006 0.09336909
v 0.02128455 0.02355006 0.09276475
v 0.02130720 0.02355006 0.09274993
v 0.02198079 0.01940976 0.09336909
v 0.02116295 0.02119828 0.09336909
f 20 13 12
f 12 13 5
f 10 3 9
f 13 20 23
f 12 5 11
f 8 3 10
f 18 9 7
f 7 9 3
f 14 5 13
f 14 23 24
f 13 23 14
f 39 36 35
f 33 21 19
f 19 21 10
f 10 9 19
f 12 11 22
f 1 3 4
f 3 8 4
f 36 39 38
f 15 27 28
f 28 16 15
f 15 14 24
f 15 16 5
f 5 14 15
f 18 30 32
f 30 38 32
f 31 30 18
f 18 17 31
f 31 17 30
f 2 3 1
f 2 7 3
f 36 38 37
f 37 38 30
f 25 15 24
f 18 7 6
f 7 2 6
f 6 17 18
f 30 17 29
f 29 37 30
f 36 37 29
f 35 36 29
f 27 15 26
f 15 25 26
f 20 9 23
f 23 9 18
f 19 34 33
f 19 20 34
f 19 9 20
f 34 20 22
f 22 20 12
f 4 5 1
f 33 34 4
f 34 22 4
f 4 21 33
f 10 21 4
f 4 11 5
f 4 8 10
f 4 22 11
f 1 5 29
f 5 16 29
f 17 6 29
f 29 2 1
f 29 6 2
f 28 35 29
f 29 16 28
f 26 35 28
f 26 23 18
f 28 27 26
f 24 23 26
f 26 39 35
f 18 32 26
f 26 38 39
f 26 32 38
f 26 25 24

