# https://github.com/mikedh/trimesh
v 0.01262065 0.03734792 0.01991344
v 0.01396792 0.03681319 0.01991344
v 0.01396792 0.03727053 0.01991295
v 0.01262065 0.03735998 0.01991295
v 0.01262065 0.03290730 0.01991344
v 0.01396792 0.03233238 0.01991344
v 0.01262065 0.03726952 0.01966950
v 0.01396792 0.03718006 0.01967048
v 0.01262065 0.02791488 0.01489912
v 0.01396752 0.02709370 0.01489912
v 0.01396792 0.02866068 0.01612767
v 0.01396792 0.03675691 0.01860145
v 0.01262065 0.03667650 0.01819996
v 0.01262065 0.03510349 0.01489912
v 0.01396792 0.02937833 0.01489912
v 0.01396792 0.02851594 0.01590140
v 0.01396792 0.03663127 0.01829027
v 0.01396792 0.03634581 0.01761636
v 0.01396792 0.03585130 0.01648205
v 0.01262065 0.03629757 0.01734493
v 0.01262065 0.03577692 0.01624891
v 0.01324318 0.03510148 0.01489912
v 0.01396792 0.03509846 0.01489912
v 0.01396792 0.03518390 0.01507042
f 1 2 3
f 5 9 10
f 10 6 5
f 15 16 10
f 11 6 10
f 10 16 11
f 19 24 20
f 22 24 23
f 18 19 13
f 19 20 13
f 13 17 18
f 12 17 13
f 21 20 24
f 21 22 14
f 24 22 21
f 7 8 12
f 12 13 7
f 3 8 7
f 1 3 4
f 3 7 4
f 5 6 2
f 5 2 1
f 24 3 2
f 2 6 24
f 18 17 24
f 24 15 23
f 6 11 24
f 16 15 24
f 24 11 16
f 24 8 3
f 24 19 18
f 12 8 24
f 24 17 12
f 9 14 22
f 10 9 22
f 22 15 10
f 23 15 22
f 4 14 9
f 4 5 1
f 9 5 4
f 4 21 14
f 4 13 20
f 20 21 4
f 4 7 13

