# https://github.com/mikedh/trimesh
v -0.00463928 -0.03094078 0.05856374
v -0.00463928 -0.02516714 0.05856374
v -0.00380761 -0.03094078 0.05856374
v -0.00463928 -0.03094078 0.07782669
v -0.00380761 -0.02516714 0.05856374
v -0.00463928 -0.02516714 0.07471503
v -0.00380761 -0.03094078 0.07782669
v -0.00463928 -0.03087239 0.07938471
v -0.00380761 -0.02516714 0.07654002
v -0.00463928 -0.02628005 0.07782669
v -0.00380761 -0.02537684 0.07782669
v -0.00406600 -0.02516714 0.07612206
v -0.00380761 -0.03086561 0.07953789
v -0.00463928 -0.03086561 0.07953789
v -0.00463928 -0.02659713 0.07862102
v -0.00380761 -0.02607770 0.07970419
v -0.00380761 -0.03054683 0.08062544
v -0.00463928 -0.03054683 0.08062762
v -0.00463928 -0.03057565 0.08052915
v -0.00463928 -0.02703065 0.07970200
v -0.00463928 -0.02703856 0.07971294
v -0.00463928 -0.02789372 0.08066920
v -0.00380761 -0.02711656 0.08044600
v -0.00380761 -0.03011105 0.08073703
v -0.00463928 -0.02944749 0.08090334
v -0.00463928 -0.02802598 0.08069108
v -0.00380761 -0.02775186 0.08078518
v -0.00380761 -0.02944749 0.08090334
v -0.00380761 -0.02862737 0.08091647
f 8 7 13
f 13 14 8
f 7 8 4
f 17 18 13
f 19 14 13
f 13 18 19
f 29 26 25
f 27 26 29
f 29 25 28
f 16 20 21
f 16 11 10
f 10 11 6
f 12 11 9
f 6 11 12
f 24 25 18
f 24 28 25
f 18 17 24
f 22 23 16
f 16 21 22
f 27 23 22
f 26 27 22
f 15 20 16
f 16 10 15
f 1 2 5
f 5 3 1
f 1 3 4
f 3 7 4
f 12 5 2
f 12 9 5
f 2 6 12
f 3 5 24
f 24 7 3
f 9 11 24
f 13 7 24
f 5 9 24
f 24 27 29
f 24 17 13
f 29 28 24
f 24 11 16
f 16 23 24
f 24 23 27
f 15 2 1
f 14 19 15
f 15 6 2
f 15 8 14
f 1 4 15
f 15 25 26
f 15 4 8
f 15 19 18
f 18 25 15
f 15 10 6
f 15 21 20
f 26 22 15
f 15 22 21

