# https://github.com/mikedh/trimesh
v -0.00740293 0.02457653 0.01406775
v -0.00643082 0.02457653 0.01329850
v -0.00740293 0.02457653 0.00503479
v -0.00740293 0.01232278 0.01398464
v -0.00643082 0.02457653 0.00503479
v -0.00643082 0.01232278 0.01310044
v -0.00740293 0.01660410 0.00503479
v -0.00740293 0.01232278 0.00503567
v -0.00643082 0.01660410 0.00503479
v -0.00643082 0.01232278 0.00503567
f 4 2 1
f 2 4 6
f 5 3 1
f 1 2 5
f 10 6 8
f 8 6 4
f 9 5 2
f 2 6 9
f 9 6 10
f 1 3 7
f 7 4 1
f 7 8 4
f 3 5 7
f 5 9 7
f 10 8 7
f 7 9 10

