# https://github.com/mikedh/trimesh
v -0.00623524 0.01676755 0.05856553
v -0.00623524 0.02185203 0.05856346
v -0.00464703 0.01676755 0.05856553
v -0.00623524 0.01676755 0.07971823
v -0.00464703 0.02185203 0.05856346
v -0.00623524 0.02294023 0.05856346
v -0.00464703 0.01676755 0.07968924
v -0.00464703 0.01828655 0.07965818
v -0.00623524 0.01839289 0.07967682
v -0.00464703 0.02294023 0.05856346
v -0.00623524 0.02294023 0.07743213
v -0.00464703 0.01844727 0.07965404
v -0.00623524 0.01844727 0.07967475
v -0.00464703 0.02294023 0.07800572
v -0.00623524 0.01976748 0.07916327
v -0.00464703 0.01996325 0.07958156
v -0.00464703 0.02019769 0.07949045
f 14 11 15
f 4 7 8
f 13 12 16
f 16 15 13
f 14 15 17
f 17 15 16
f 12 13 9
f 9 8 12
f 4 8 9
f 7 4 1
f 1 3 7
f 14 10 11
f 11 10 6
f 1 2 5
f 5 3 1
f 5 2 6
f 6 10 5
f 17 7 3
f 3 5 17
f 17 10 14
f 17 5 10
f 17 8 7
f 16 12 17
f 12 8 17
f 9 2 1
f 1 4 9
f 6 2 9
f 9 11 6
f 9 15 11
f 9 13 15

