# https://github.com/mikedh/trimesh
v 0.01262288 0.02895568 0.05856155
v -0.00296091 0.02895568 0.05856155
v 0.01262288 0.02772121 0.05856155
v 0.01262288 0.02895568 0.03888384
v -0.00296091 0.02772121 0.05856155
v -0.00296091 0.02895568 0.03778093
v 0.01262288 0.02772121 0.03784407
v 0.01262288 0.02870553 0.03783986
v 0.01261831 0.02895568 0.03783986
v -0.00296091 0.02772121 0.03772410
v -0.00114565 0.02895568 0.03775146
v 0.00064673 0.02772121 0.03705898
v -0.00106480 0.02772121 0.03716212
v -0.00257193 0.02772121 0.03732208
v 0.00577675 0.02772121 0.03707372
v 0.00746998 0.02895568 0.03776619
v 0.00064673 0.02895568 0.03774514
v 0.00406674 0.02772121 0.03705898
v 0.00503082 0.02772121 0.03706530
v 0.00577675 0.02895568 0.03774725
v 0.00407590 0.02895568 0.03774514
f 11 17 12
f 12 6 11
f 14 10 6
f 9 4 8
f 7 15 8
f 8 15 9
f 13 6 12
f 13 14 6
f 9 15 16
f 19 18 20
f 20 16 19
f 19 16 15
f 20 18 21
f 5 3 1
f 5 1 2
f 10 5 2
f 2 6 10
f 1 3 8
f 3 7 8
f 8 4 1
f 3 5 19
f 19 7 3
f 19 13 12
f 5 10 19
f 19 15 7
f 10 14 19
f 14 13 19
f 12 18 19
f 2 1 21
f 21 6 2
f 17 11 21
f 1 4 21
f 21 11 6
f 21 4 9
f 9 16 21
f 21 16 20
f 21 18 12
f 12 17 21

