# https://github.com/mikedh/trimesh
v -0.00205985 -0.02785528 0.03747841
v 0.00617929 -0.02785528 0.03747841
v -0.00205985 -0.02785528 0.04181131
v -0.00205985 0.00276076 0.03747841
v 0.00617929 -0.02785528 0.03839707
v 0.00617929 0.00276076 0.03747841
v 0.00565103 -0.02785528 0.04181131
v -0.00205985 0.00366505 0.04181131
v -0.00205985 0.00367431 0.03775961
v 0.00617929 -0.02785219 0.03848699
v 0.00617767 -0.02785528 0.03848699
v 0.00617929 0.00367431 0.03775961
v 0.00600267 -0.02785528 0.04037945
v 0.00617929 -0.02706828 0.04115560
v 0.00571233 -0.02765158 0.04181131
v -0.00205582 0.00367431 0.04181131
v -0.00205985 0.00367431 0.04179137
v 0.00617929 -0.02784294 0.03858157
v 0.00617929 0.00367431 0.04181131
v 0.00617929 -0.02758986 0.04013176
v 0.00617929 -0.02756208 0.04018902
v 0.00617929 -0.02608375 0.04181131
f 8 16 17
f 13 14 7
f 15 14 22
f 7 14 15
f 21 13 20
f 14 13 21
f 13 11 18
f 20 13 18
f 11 5 10
f 10 18 11
f 1 4 6
f 6 2 1
f 12 4 9
f 12 6 4
f 17 4 1
f 1 3 17
f 9 4 17
f 3 8 17
f 17 16 19
f 19 12 17
f 17 12 9
f 15 8 3
f 3 7 15
f 15 22 19
f 19 16 15
f 15 16 8
f 5 3 1
f 1 2 5
f 5 7 3
f 5 13 7
f 5 11 13
f 19 22 10
f 10 12 19
f 2 6 10
f 6 12 10
f 10 21 20
f 22 14 10
f 14 21 10
f 20 18 10
f 10 5 2

