# https://github.com/mikedh/trimesh
v 0.01453276 0.00485376 0.01951538
v 0.01453276 0.00581109 0.01901593
v 0.01291154 0.00337002 0.01951538
v 0.01453276 -0.01581849 0.01951538
v 0.01453276 0.00754639 0.01731625
v 0.01291154 -0.01581849 0.01951538
v 0.01291154 0.00604867 0.01658999
v 0.01453276 -0.01581849 0.01658999
v 0.01453276 0.00797731 0.01658999
v 0.01291154 -0.01581849 0.01658999
f 3 1 2
f 9 7 5
f 5 7 3
f 3 2 5
f 6 4 1
f 6 1 3
f 7 6 3
f 10 6 7
f 4 6 8
f 8 6 10
f 10 7 8
f 8 7 9
f 5 2 1
f 1 4 5
f 4 8 5
f 5 8 9

