# https://github.com/mikedh/trimesh
v 0.02309405 0.00663472 0.09408358
v 0.02285715 0.00663472 0.09493400
v 0.02309995 0.00305126 0.09408358
v 0.01106039 0.00663472 0.09408358
v 0.02286187 0.00305126 0.09493400
v 0.02222895 0.00663472 0.09599215
v 0.02223366 0.00305126 0.09599641
v 0.02306223 0.00134115 0.09408358
v 0.01106039 0.00049150 0.09408358
v 0.01106039 0.00663472 0.09493400
v 0.02280647 0.00134115 0.09493400
v 0.02117055 0.00663472 0.09661107
v 0.02117055 0.00305126 0.09661808
v 0.02219595 0.00134115 0.09595864
v 0.02278643 -0.00033005 0.09408358
v 0.01110047 -0.00121862 0.09408358
v 0.01106039 0.00134115 0.09493400
v 0.01109339 0.00663472 0.09508111
v 0.02210284 0.00033043 0.09586391
v 0.02243992 -0.00029114 0.09494679
v 0.01946038 0.00663472 0.09709903
v 0.01946038 0.00305126 0.09710756
v 0.01946038 0.00134115 0.09704085
v 0.02117055 0.00134115 0.09654711
v 0.02233738 -0.00178181 0.09408358
v 0.01137273 -0.00304224 0.09408358
v 0.01113818 -0.00036897 0.09493400
v 0.01141162 0.00134115 0.09633024
v 0.01141162 0.00305126 0.09636862
v 0.01141162 0.00663472 0.09638720
v 0.02164671 -0.00081001 0.09552551
v 0.02224781 -0.00163588 0.09438543
v 0.02111398 -0.00029114 0.09610576
v 0.01791168 0.00663472 0.09716665
v 0.01775021 0.00305126 0.09718584
v 0.01775021 0.00134115 0.09711761
v 0.01775021 -0.00036897 0.09663240
v 0.01946038 -0.00036897 0.09655077
v 0.02199205 -0.00241635 0.09408358
v 0.01147762 -0.00356003 0.09408358
v 0.01140573 -0.00203152 0.09494953
v 0.01148941 -0.00036897 0.09613287
v 0.01261970 0.00134115 0.09699303
v 0.01261970 0.00305126 0.09706979
v 0.01152595 0.00663472 0.09646091
v 0.02119059 -0.00206935 0.09492790
v 0.02177754 -0.00267578 0.09408358
v 0.02050581 -0.00136347 0.09588584
v 0.01775021 0.00663472 0.09717366
v 0.01432987 0.00663472 0.09719528
v 0.01604122 0.00305126 0.09719041
v 0.01604122 0.00134115 0.09712005
v 0.01775021 -0.00156237 0.09601986
v 0.01946038 -0.00149751 0.09597783
v 0.01604122 -0.00036897 0.09663209
v 0.01261970 -0.00437185 0.09408358
v 0.01153302 -0.00341626 0.09438969
v 0.01163320 -0.00142941 0.09591447
v 0.01261970 -0.00036897 0.09655168
v 0.01432987 0.00134115 0.09711761
v 0.01261970 0.00663472 0.09709385
v 0.01432987 0.00305126 0.09719132
v 0.02091244 -0.00348436 0.09408358
v 0.01946038 -0.00419348 0.09408358
v 0.01994715 -0.00399026 0.09408358
v 0.02073329 -0.00329843 0.09433030
v 0.01775021 -0.00436104 0.09408358
v 0.01432987 -0.00156561 0.09601225
v 0.01432987 -0.00242067 0.09543261
v 0.01432987 -0.00440860 0.09408358
v 0.01806490 -0.00433077 0.09408358
v 0.01432987 -0.00036897 0.09662905
v 0.01261970 -0.00367029 0.09456514
v 0.01261970 -0.00240554 0.09542012
v 0.01261970 -0.00155048 0.09599336
f 3 1 2
f 3 2 5
f 41 58 42
f 54 64 48
f 62 44 60
f 23 35 36
f 50 35 49
f 22 35 23
f 21 35 22
f 23 13 22
f 61 62 50
f 44 62 61
f 60 44 43
f 42 58 43
f 24 13 23
f 21 22 12
f 12 22 13
f 3 5 8
f 7 2 6
f 7 5 2
f 6 12 7
f 7 12 13
f 40 41 26
f 27 41 42
f 27 17 16
f 16 26 27
f 27 26 41
f 16 17 9
f 28 27 42
f 17 27 28
f 42 43 28
f 28 43 44
f 70 53 69
f 69 53 68
f 67 53 70
f 54 53 67
f 63 48 66
f 40 56 57
f 57 56 58
f 57 41 40
f 58 41 57
f 68 72 75
f 68 53 55
f 55 72 68
f 60 72 55
f 51 36 35
f 51 35 50
f 50 62 51
f 34 35 21
f 34 49 35
f 44 61 45
f 59 72 60
f 60 43 59
f 59 43 58
f 58 75 59
f 59 75 72
f 63 47 46
f 46 48 63
f 19 24 33
f 33 24 23
f 14 24 19
f 13 24 14
f 14 7 13
f 18 10 17
f 18 17 30
f 30 17 29
f 17 28 29
f 29 45 30
f 29 28 44
f 44 45 29
f 73 56 70
f 70 69 73
f 73 69 68
f 58 56 73
f 71 64 54
f 54 67 71
f 63 66 65
f 65 48 64
f 65 66 48
f 37 53 54
f 37 55 53
f 23 36 37
f 25 32 39
f 31 46 47
f 47 39 31
f 48 46 31
f 31 32 19
f 31 39 32
f 19 33 31
f 31 33 48
f 11 15 8
f 11 14 19
f 11 8 5
f 5 7 11
f 7 14 11
f 68 75 74
f 74 73 68
f 74 75 58
f 58 73 74
f 23 37 38
f 38 37 54
f 54 48 38
f 38 33 23
f 48 33 38
f 60 55 52
f 55 37 52
f 52 37 36
f 52 62 60
f 52 51 62
f 36 51 52
f 20 11 19
f 15 11 20
f 19 32 20
f 25 15 20
f 20 32 25
f 9 10 4
f 17 10 9
f 18 1 4
f 18 2 1
f 18 12 6
f 50 49 18
f 6 2 18
f 18 61 50
f 4 10 18
f 18 34 21
f 21 12 18
f 30 45 18
f 49 34 18
f 18 45 61
f 4 1 39
f 40 26 39
f 39 1 3
f 39 47 63
f 39 9 4
f 3 8 39
f 70 56 39
f 64 71 39
f 39 56 40
f 63 65 39
f 39 67 70
f 39 26 16
f 16 9 39
f 39 15 25
f 8 15 39
f 39 71 67
f 39 65 64

