# https://github.com/mikedh/trimesh
v -0.00426939 -0.01249920 0.07555342
v -0.00380761 -0.01249920 0.07555342
v -0.00380761 -0.01249920 0.07782629
v -0.00380761 -0.01223976 0.07953850
v -0.00454784 -0.01096020 0.07782890
v -0.00467287 -0.01143840 0.07555342
v -0.00380761 -0.01096020 0.07555342
v -0.00380761 -0.01118936 0.08088583
v -0.00399907 -0.01096020 0.08031840
v -0.00417253 -0.01096020 0.07953746
v -0.00484694 -0.01096020 0.07555342
v -0.00380761 -0.01096020 0.08058567
f 1 4 5
f 3 1 2
f 3 4 1
f 6 5 11
f 1 5 6
f 8 12 9
f 9 4 8
f 10 5 4
f 4 9 10
f 2 7 3
f 3 12 8
f 8 4 3
f 7 12 3
f 2 1 6
f 11 7 6
f 6 7 2
f 10 7 11
f 10 12 7
f 11 5 10
f 10 9 12

