# https://github.com/mikedh/trimesh
v 0.00648821 0.00138921 0.02309363
v -0.00106653 0.00138921 0.02309363
v 0.00648821 0.00032778 0.02309363
v 0.00648821 0.00367043 0.01896007
v -0.00188991 0.00138921 0.02309128
v -0.00147576 0.00032778 0.02309363
v -0.00106489 0.00367043 0.01896007
v -0.00188991 0.00367043 0.01895772
v 0.00648821 0.00032778 -0.00093843
v 0.00648821 0.00367043 -0.00093843
v -0.00188991 0.00032778 0.02309128
v -0.00188991 0.00367043 -0.00074552
v 0.00235574 0.00032778 -0.00093843
v 0.00173738 0.00367043 -0.00093843
v -0.00188991 0.00032778 0.00038374
v -0.00188991 0.00305170 -0.00063259
v 0.00164799 0.00032778 -0.00074316
f 5 2 8
f 13 16 12
f 7 8 2
f 14 13 12
f 6 2 5
f 11 6 5
f 17 15 16
f 16 13 17
f 1 4 7
f 7 2 1
f 12 8 14
f 4 10 14
f 14 7 4
f 8 7 14
f 14 10 9
f 9 13 14
f 3 10 4
f 3 4 1
f 9 10 3
f 1 2 6
f 6 3 1
f 11 8 12
f 5 8 11
f 12 16 11
f 16 15 11
f 17 13 9
f 9 3 17
f 3 6 17
f 17 11 15
f 6 11 17

