# https://github.com/mikedh/trimesh
v 0.01599054 0.01232150 0.00428785
v 0.01599054 0.01331491 0.00428785
v 0.01651032 0.01232150 0.00558300
v 0.01599054 0.01232150 0.01958269
v 0.01599054 0.01502531 0.00428936
v 0.01651032 0.01502531 0.00558300
v 0.01651032 0.01232150 0.01967305
v 0.01651032 0.01430765 0.01890349
v 0.01602112 0.01573594 0.01813393
v 0.01601176 0.01573594 0.01812489
v 0.01599054 0.01573594 0.01810230
v 0.01599054 0.01573594 0.00431044
v 0.01651032 0.01570853 0.00558451
v 0.01651032 0.01573594 0.01827850
v 0.01651032 0.01573594 0.00558601
f 13 12 15
f 8 4 7
f 8 14 9
f 9 4 8
f 12 13 5
f 5 13 6
f 10 11 4
f 10 4 9
f 2 5 6
f 3 7 4
f 1 3 4
f 8 7 3
f 3 6 8
f 8 13 15
f 15 14 8
f 6 13 8
f 10 14 15
f 9 14 10
f 15 12 10
f 12 11 10
f 1 4 2
f 2 11 12
f 4 11 2
f 12 5 2
f 2 3 1
f 2 6 3

