# https://github.com/mikedh/trimesh
v -0.00631419 0.00085136 0.02580820
v -0.00629930 0.00083837 0.02580820
v -0.02005054 0.00085136 0.02580820
v -0.00631826 0.00085136 0.02582044
v -0.00629930 0.00066951 0.02638910
v -0.00629930 -0.01121221 0.02580820
v -0.02007356 0.00063527 0.02580820
v -0.02007898 0.00085136 0.02602313
v -0.00658099 0.00085136 0.02651444
v -0.00629930 0.00062464 0.02651444
v -0.00629930 -0.01121221 0.02651444
v -0.02011690 -0.01121221 0.02580820
v -0.02011419 -0.00107461 0.02580820
v -0.02013451 -0.00037082 0.02651444
v -0.02010336 0.00085136 0.02651299
v -0.02010336 0.00085136 0.02651444
v -0.01748285 -0.01121221 0.02651444
v -0.02011690 -0.01121221 0.02651299
v -0.02012367 -0.00892136 0.02651299
v -0.02012096 -0.00962515 0.02580820
v -0.02012232 -0.00892136 0.02651444
v -0.02011825 -0.01063123 0.02651444
f 16 15 14
f 1 4 2
f 13 20 14
f 14 20 19
f 12 19 20
f 5 4 9
f 9 10 5
f 2 4 5
f 7 13 14
f 14 19 21
f 21 19 22
f 22 19 18
f 19 12 18
f 3 7 8
f 14 15 8
f 8 7 14
f 22 18 17
f 5 6 2
f 5 10 11
f 5 11 6
f 20 13 7
f 2 6 7
f 7 1 2
f 3 1 7
f 6 12 7
f 7 12 20
f 8 16 9
f 15 16 8
f 9 4 8
f 8 1 3
f 4 1 8
f 17 10 9
f 17 16 14
f 9 16 17
f 14 21 17
f 11 10 17
f 17 21 22
f 6 11 17
f 17 12 6
f 17 18 12

