# https://github.com/mikedh/trimesh
v 0.01103985 0.00305192 0.08880817
v 0.01104224 0.00134173 0.08880817
v 0.01106016 -0.00308235 0.09011843
v 0.01103985 0.00719183 0.08880817
v 0.01106016 -0.00308235 0.08880817
v 0.02310062 -0.00308235 0.09011843
v 0.01106016 0.02355074 0.09011843
v 0.01104104 0.00890202 0.08880817
v 0.02307791 -0.00308235 0.08880817
v 0.02315919 -0.00308235 0.08980212
v 0.02319385 -0.00207865 0.09011843
v 0.02278270 0.02355074 0.09011843
v 0.01106016 0.02355074 0.08880817
v 0.02310899 -0.00207865 0.08880817
v 0.02320341 -0.00207865 0.08980212
v 0.02324285 -0.00036846 0.09011843
v 0.02306357 0.02355074 0.08982931
v 0.02296198 0.02354553 0.09011843
v 0.02305521 0.02355074 0.08880817
v 0.02311855 -0.00036846 0.08880817
v 0.02322732 -0.00036846 0.08980212
v 0.02324883 0.00134173 0.09011843
v 0.02307074 0.02355074 0.08980212
v 0.02299903 0.02326136 0.09011843
v 0.02300023 0.02323790 0.09011843
v 0.02307791 0.02155117 0.09011843
v 0.02307433 0.02285989 0.08880817
v 0.02311855 0.00476472 0.08880817
v 0.02324883 0.00476472 0.09011843
v 0.02311616 0.01772931 0.08880817
v 0.02322373 0.01673344 0.08980212
v 0.02311736 0.02186662 0.08980212
v 0.02315082 0.01983837 0.09011843
v 0.02321178 0.01812818 0.09011843
v 0.02316277 0.02015643 0.08980212
v 0.02320580 0.01844624 0.08980212
v 0.02311018 0.01943950 0.08880817
v 0.02324524 0.01470780 0.09011843
v 0.02324166 0.01641799 0.09011843
f 2 3 1
f 2 5 3
f 7 13 8
f 7 8 4
f 17 12 18
f 9 15 10
f 10 11 6
f 15 11 10
f 16 11 15
f 38 31 39
f 37 31 30
f 30 31 21
f 22 16 21
f 21 16 15
f 14 15 9
f 14 21 15
f 20 21 14
f 34 35 32
f 32 23 34
f 23 33 34
f 31 38 29
f 22 21 29
f 29 21 31
f 32 35 27
f 19 23 27
f 27 23 32
f 30 21 28
f 28 21 20
f 24 17 18
f 24 25 17
f 17 25 26
f 23 17 26
f 26 33 23
f 37 27 36
f 31 37 36
f 36 34 39
f 39 31 36
f 35 34 36
f 36 27 35
f 4 3 7
f 1 3 4
f 19 13 17
f 7 12 17
f 17 13 7
f 17 23 19
f 10 6 3
f 5 9 10
f 3 5 10
f 1 4 28
f 28 2 1
f 28 13 19
f 5 2 28
f 28 8 13
f 28 9 5
f 28 4 8
f 28 14 9
f 19 27 28
f 28 37 30
f 20 14 28
f 28 27 37
f 7 3 26
f 26 12 7
f 26 16 22
f 3 6 26
f 39 34 26
f 18 12 26
f 6 11 26
f 22 29 26
f 11 16 26
f 26 38 39
f 26 24 18
f 26 34 33
f 26 29 38
f 25 24 26

