# https://github.com/mikedh/trimesh
v -0.00081365 0.01574794 -0.00094078
v -0.00081365 0.01574794 0.01193652
v -0.00081365 0.02013985 -0.00094078
v 0.01261789 0.01574794 -0.00094078
v -0.00081365 0.02013985 0.01199485
v 0.01257581 0.01574794 0.01195301
v 0.01261789 0.02013985 0.01201260
v 0.01092415 0.02013985 -0.00094078
v 0.01261789 0.01844612 -0.00094078
v 0.01262052 0.01673477 -0.00093952
v 0.01262052 0.01574794 -0.00035119
v 0.01261789 0.01574794 0.01195301
v 0.01262052 0.01576987 0.01194793
v 0.01262052 0.01954216 0.01194793
v 0.01262052 0.02013985 0.01105783
v 0.01261789 0.02013985 -0.00091415
v 0.01262052 0.01844483 -0.00093952
v 0.01262052 0.01574794 0.01193526
v 0.01262052 0.02013985 0.00047171
f 7 12 13
f 7 5 2
f 11 4 10
f 9 8 16
f 6 12 7
f 7 2 6
f 14 15 7
f 7 13 14
f 18 13 12
f 17 9 16
f 16 19 17
f 2 5 3
f 2 3 1
f 9 4 1
f 1 3 9
f 3 8 9
f 19 5 7
f 3 5 19
f 19 8 3
f 16 8 19
f 7 15 19
f 1 4 18
f 18 2 1
f 12 6 18
f 4 11 18
f 18 6 2
f 4 9 17
f 10 4 17
f 17 19 15
f 17 11 10
f 17 14 13
f 13 18 17
f 15 14 17
f 17 18 11

