# https://github.com/mikedh/trimesh
v 0.00918152 -0.00434644 0.08005302
v 0.00577704 -0.00434644 0.08006565
v 0.00918152 -0.00677295 0.07969936
v 0.00918152 -0.00434644 0.05856572
v 0.00406423 -0.00434644 0.08006986
v 0.00918152 -0.00677295 0.05856362
v -0.00623524 -0.00677295 0.07971830
v 0.00918152 -0.00551053 0.05856362
v -0.00623524 -0.00434644 0.05856572
v 0.00235444 -0.00434644 0.08006986
v -0.00623524 -0.00677295 0.05856362
v 0.00061749 -0.00434644 0.08006355
v -0.00112700 -0.00434644 0.08004460
v -0.00512003 -0.00434644 0.07994566
v -0.00623524 -0.00434644 0.07990145
v -0.00623524 -0.00551053 0.05856362
f 7 3 5
f 2 3 1
f 2 5 3
f 14 15 7
f 7 13 14
f 12 13 7
f 7 5 10
f 10 12 7
f 11 6 3
f 11 3 7
f 16 11 7
f 7 15 16
f 16 15 9
f 3 6 8
f 1 3 8
f 8 4 1
f 6 11 8
f 11 16 8
f 9 4 8
f 8 16 9
f 1 4 10
f 10 4 9
f 10 2 1
f 5 2 10
f 9 15 10
f 15 14 10
f 10 14 13
f 13 12 10

