# https://github.com/mikedh/trimesh
v -0.00751286 -0.01581850 0.01112637
v -0.00751286 -0.02460138 0.01112637
v -0.00751286 -0.01581850 0.00554921
v -0.01904369 -0.01581850 0.01112637
v -0.00994391 -0.02619864 0.01112637
v -0.00751286 -0.02552702 0.00749106
v -0.00751286 -0.02586435 0.00554921
v -0.01620728 -0.01581850 0.00554921
v -0.01888448 -0.01581850 0.01066179
v -0.01888787 -0.01747570 0.01065796
v -0.01889013 -0.01918574 0.01065469
v -0.01904482 -0.01654397 0.01112637
v -0.00954419 -0.02619864 0.00790869
v -0.00751286 -0.02587350 0.00598704
v -0.01820925 -0.02619864 0.01112637
v -0.00964243 -0.02619864 0.00601652
v -0.00963226 -0.02601473 0.00554921
v -0.01758935 -0.02431485 0.00816855
v -0.01830523 -0.02260481 0.00940725
v -0.01831539 -0.02089680 0.00940725
v -0.01830862 -0.01581850 0.00940725
v -0.01615873 -0.01747570 0.00554921
v -0.01889126 -0.02089680 0.01069782
v -0.01904821 -0.01918574 0.01112637
v -0.01904708 -0.01824690 0.01112637
v -0.01831539 -0.02619762 0.01112637
v -0.01831427 -0.02619864 0.01111108
v -0.01125259 -0.02619864 0.00573974
v -0.01118710 -0.02586638 0.00554921
v -0.01752048 -0.02602591 0.00825153
v -0.01823974 -0.02431485 0.00940725
v -0.01596790 -0.01908515 0.00554921
v -0.01889803 -0.02273486 0.01112637
v -0.01902111 -0.02089680 0.01112637
v -0.01904144 -0.01999453 0.01112637
v -0.01837863 -0.02602591 0.01112637
v -0.01837863 -0.02602591 0.01111709
v -0.01827588 -0.02619864 0.01089926
v -0.01457566 -0.02619864 0.00630695
v -0.01304906 -0.02429859 0.00554921
v -0.01672443 -0.02602591 0.00739662
v -0.01750354 -0.02619864 0.00827719
v -0.01801165 -0.02602591 0.00940725
v -0.01873431 -0.02431485 0.01111709
v -0.01880657 -0.02363408 0.01112637
v -0.01889691 -0.02274807 0.01112637
v -0.01586967 -0.02602591 0.00667927
v -0.01532767 -0.02089680 0.00554921
v -0.01584369 -0.02619864 0.00669456
v -0.01873544 -0.02431485 0.01112637
v -0.01795633 -0.02619864 0.00940725
v -0.01473939 -0.02619864 0.00634298
v -0.01465244 -0.02256010 0.00554921
v -0.01655393 -0.02619864 0.00729125
v -0.01791003 -0.02619864 0.00923692
f 7 14 16
f 6 2 5
f 5 14 6
f 13 14 5
f 13 16 14
f 30 32 41
f 41 42 30
f 22 32 30
f 48 53 49
f 49 32 48
f 4 11 12
f 16 28 17
f 7 16 17
f 27 15 26
f 47 32 49
f 49 41 47
f 47 41 32
f 54 41 49
f 42 41 54
f 25 11 24
f 25 12 11
f 4 9 10
f 10 11 4
f 10 9 21
f 21 11 10
f 20 11 21
f 20 19 11
f 20 21 8
f 8 19 20
f 18 19 8
f 8 22 18
f 18 22 30
f 29 17 28
f 28 39 29
f 49 53 52
f 37 36 50
f 37 50 44
f 26 36 37
f 37 27 26
f 31 18 30
f 19 18 31
f 40 29 39
f 39 52 40
f 40 52 53
f 44 50 45
f 45 31 44
f 43 37 44
f 51 37 43
f 43 55 51
f 44 31 43
f 43 31 30
f 42 55 43
f 30 42 43
f 38 37 51
f 27 37 38
f 23 33 34
f 23 31 33
f 19 31 23
f 11 19 23
f 34 35 23
f 23 35 24
f 24 11 23
f 33 31 46
f 31 45 46
f 1 2 6
f 6 3 1
f 6 7 3
f 6 14 7
f 9 4 1
f 1 3 9
f 3 8 9
f 8 21 9
f 40 8 3
f 3 7 40
f 53 48 40
f 40 22 8
f 32 22 40
f 40 48 32
f 7 17 40
f 17 29 40
f 5 15 38
f 38 54 49
f 38 55 42
f 38 13 5
f 38 28 16
f 16 13 38
f 15 27 38
f 38 39 28
f 49 52 38
f 51 55 38
f 42 54 38
f 38 52 39
f 46 36 26
f 46 2 1
f 1 4 46
f 5 2 46
f 46 15 5
f 26 15 46
f 24 35 46
f 4 12 46
f 46 25 24
f 50 36 46
f 12 25 46
f 34 33 46
f 46 35 34
f 46 45 50

