# https://github.com/mikedh/trimesh
v -0.00738305 -0.03094078 0.05856155
v -0.00738305 -0.02480858 0.05856155
v -0.00623535 -0.03094078 0.05856155
v -0.00738305 -0.03094078 0.07614163
v -0.00623535 -0.02480858 0.05856155
v -0.00738305 -0.02480858 0.07462902
v -0.00623535 -0.03094078 0.07614163
v -0.00738305 -0.02608725 0.07614163
v -0.00623535 -0.02480858 0.07400952
v -0.00623535 -0.02684184 0.07614163
f 9 6 8
f 9 8 10
f 1 2 5
f 5 3 1
f 1 3 7
f 7 4 1
f 6 5 2
f 9 5 6
f 8 2 1
f 1 4 8
f 8 6 2
f 3 5 10
f 10 7 3
f 10 5 9
f 4 7 10
f 10 8 4

