# https://github.com/mikedh/trimesh
v 0.00406549 0.02699078 0.03332135
v 0.00577687 0.02697741 0.03332135
v 0.00406549 0.02699078 0.03164464
v 0.00064665 0.02699078 0.03332135
v 0.00742821 0.02655432 0.03332135
v 0.00577687 0.02697455 0.03164464
v 0.00406549 0.02697932 0.03106334
v 0.00064665 0.02699078 0.03164464
v -0.00106473 0.02692393 0.03332135
v 0.00738774 0.02655145 0.03164464
v 0.00826627 0.02609015 0.03332135
v 0.00631470 0.02682460 0.03106334
v 0.00577687 0.02696309 0.03106334
v 0.00064665 0.02697932 0.03106334
v -0.00048252 0.02693539 0.03106334
v -0.00106473 0.02692393 0.03164464
v -0.00246543 0.02649988 0.03332135
v 0.00737860 0.02654477 0.03106334
v 0.00828324 0.02607965 0.03332135
v -0.00106473 0.02691247 0.03106334
v -0.00245759 0.02649510 0.03106334
v -0.00246543 0.02649988 0.03164464
v -0.00248240 0.02647982 0.03332135
v 0.00794253 0.02618853 0.03106334
v 0.00823364 0.02599465 0.03106334
v 0.00917614 0.02524014 0.03332135
v -0.00274870 0.02614937 0.03106334
v -0.00332046 0.02547509 0.03164464
v -0.00332046 0.02547509 0.03332135
v 0.00864615 0.02513986 0.03106334
v 0.00958473 0.02479890 0.03332135
v -0.00331263 0.02547318 0.03106334
v -0.00368467 0.02461743 0.03106334
v -0.00368467 0.02462030 0.03164464
v -0.00367945 0.02463749 0.03332135
v 0.00901035 0.02409788 0.03106334
v 0.00958473 0.02390209 0.03251261
v 0.00958473 0.01723379 0.03332135
v -0.00368728 0.02459929 0.03332135
v -0.00368598 0.02462030 0.03332135
v -0.00370425 0.02426597 0.03106334
v -0.00374602 0.02357736 0.03332135
v 0.00958473 0.02317050 0.03202724
v 0.00930276 0.02259651 0.03106334
v 0.00958473 0.01723379 0.03182699
v -0.00374994 0.01723379 0.03332135
v -0.00373950 0.02357736 0.03106334
v -0.00374994 0.02186779 0.03332135
v 0.00958473 0.02199481 0.03175781
v 0.00930668 0.02194897 0.03106334
v 0.00958473 0.02198431 0.03175670
v 0.00958473 0.02015726 0.03167956
v 0.00911087 0.01723379 0.03149832
v 0.00891897 0.01896915 0.03106334
v 0.00914872 0.02012192 0.03106334
v 0.00922444 0.02063861 0.03106334
v 0.00958473 0.01979051 0.03169769
v -0.00375124 0.02015821 0.03332135
v -0.00373950 0.02186779 0.03106334
v -0.00371339 0.01723379 0.03230462
v 0.00851561 0.01723379 0.03131752
v 0.00762532 0.01723379 0.03106334
v -0.00369250 0.02039793 0.03106334
v -0.00369120 0.01723379 0.03194082
v -0.00191194 0.01723379 0.03106334
v -0.00353194 0.01974276 0.03106334
v -0.00350975 0.01968068 0.03106334
v -0.00278525 0.01723379 0.03126204
v -0.00280091 0.01847633 0.03106334
f 59 46 58
f 25 26 31
f 2 6 3
f 5 6 2
f 33 40 34
f 34 28 33
f 33 28 32
f 22 16 21
f 47 59 58
f 39 40 33
f 33 42 39
f 46 59 60
f 59 64 60
f 21 16 20
f 36 43 44
f 43 49 44
f 44 52 50
f 37 36 31
f 37 43 36
f 31 36 30
f 30 25 31
f 26 25 19
f 19 25 24
f 2 3 1
f 11 19 18
f 18 19 24
f 35 29 28
f 35 34 40
f 28 34 35
f 27 22 21
f 28 22 27
f 27 32 28
f 28 29 23
f 23 22 28
f 17 22 23
f 48 47 58
f 42 47 48
f 41 42 33
f 41 47 42
f 64 67 68
f 63 64 59
f 52 44 51
f 51 44 49
f 53 54 45
f 10 5 11
f 11 18 10
f 6 5 10
f 13 6 12
f 6 10 12
f 12 10 18
f 65 68 69
f 69 68 67
f 66 67 64
f 64 63 66
f 62 54 61
f 61 54 53
f 50 52 57
f 57 45 50
f 50 45 56
f 16 8 15
f 15 20 16
f 15 8 14
f 55 45 54
f 55 56 45
f 3 13 7
f 3 6 13
f 17 9 22
f 9 16 22
f 48 38 31
f 48 19 11
f 58 46 48
f 48 46 38
f 48 9 17
f 31 26 48
f 17 23 48
f 48 5 2
f 48 4 9
f 40 39 48
f 48 35 40
f 11 5 48
f 2 1 48
f 48 39 42
f 26 19 48
f 48 1 4
f 29 35 48
f 48 23 29
f 4 1 8
f 8 1 3
f 8 3 7
f 7 14 8
f 9 4 8
f 8 16 9
f 38 46 61
f 61 68 65
f 65 62 61
f 46 60 61
f 61 60 64
f 61 45 38
f 64 68 61
f 53 45 61
f 31 38 57
f 52 51 57
f 57 37 31
f 57 49 43
f 43 37 57
f 57 51 49
f 38 45 57
f 55 27 21
f 55 62 65
f 7 13 55
f 13 12 55
f 55 30 36
f 33 32 55
f 24 25 55
f 55 63 59
f 55 14 7
f 55 44 50
f 55 18 24
f 59 47 55
f 55 41 33
f 21 20 55
f 36 44 55
f 25 30 55
f 67 66 55
f 32 27 55
f 47 41 55
f 65 69 55
f 50 56 55
f 55 54 62
f 55 12 18
f 55 69 67
f 55 66 63
f 20 15 55
f 55 15 14

