# https://github.com/mikedh/trimesh
v -0.00081365 0.02357518 0.00425576
v -0.00081365 0.02014028 0.00425670
v -0.00081365 0.02593433 0.00425576
v 0.01262052 0.02357518 0.00425576
v -0.00081365 0.02014028 0.01199419
v 0.01262052 0.02014028 0.00425670
v -0.00081365 0.02621874 0.00499873
v 0.00194262 0.02606404 0.00425576
v 0.01262052 0.02386732 0.00425576
v -0.00081365 0.02621874 0.01389269
v 0.01261657 0.02014028 0.01201213
v 0.01262052 0.02014028 0.01105674
v 0.00235553 0.02621874 0.00488167
v 0.00360479 0.02608963 0.00425576
v 0.00235816 0.02607475 0.00425576
v 0.01186439 0.02452360 0.00425576
v 0.01262052 0.02621874 0.00590125
v 0.01261657 0.02621874 0.01390024
v 0.01262052 0.02039791 0.01203951
v 0.00406636 0.02621874 0.00488167
v 0.00406768 0.02608963 0.00425576
v 0.01092152 0.02499900 0.00425576
v 0.01262052 0.02621874 0.01354245
v 0.01090837 0.02500495 0.00425576
v 0.00919754 0.02562672 0.00425576
v 0.00750907 0.02596468 0.00425576
v 0.00741570 0.02598015 0.00425576
v 0.01257186 0.02621874 0.00589181
v 0.01262052 0.02598967 0.01377091
v 0.00577851 0.02621874 0.00489111
v 0.00577851 0.02608725 0.00425576
v 0.00682000 0.02621874 0.00499967
f 10 5 11
f 10 11 18
f 18 11 19
f 12 19 11
f 29 23 18
f 18 19 29
f 9 16 17
f 24 25 17
f 17 25 26
f 26 27 17
f 14 7 13
f 8 3 7
f 17 16 22
f 22 24 17
f 32 31 30
f 15 7 14
f 15 8 7
f 21 20 30
f 30 31 21
f 31 32 28
f 27 31 28
f 17 27 28
f 6 2 1
f 1 4 6
f 2 6 12
f 12 5 2
f 11 5 12
f 1 2 3
f 2 5 3
f 5 10 3
f 10 7 3
f 9 6 4
f 9 29 19
f 9 12 6
f 19 12 9
f 17 23 9
f 23 29 9
f 21 4 1
f 21 26 25
f 1 3 21
f 21 9 4
f 25 24 21
f 21 15 14
f 16 9 21
f 21 22 16
f 27 26 21
f 21 31 27
f 3 8 21
f 24 22 21
f 8 15 21
f 13 20 21
f 14 13 21
f 28 10 18
f 28 23 17
f 28 7 10
f 18 23 28
f 30 20 28
f 28 13 7
f 28 20 13
f 28 32 30

