# https://github.com/mikedh/trimesh
v -0.00081365 0.01955264 0.01193520
v -0.00537049 0.01955264 0.01195286
v -0.00081365 0.01577310 0.01193520
v -0.00081365 0.01955264 -0.00093952
v -0.00537361 0.01955005 0.01195160
v -0.00537361 0.01577310 0.01195034
v -0.00537361 0.01955264 0.01181025
v -0.00081365 0.01577310 -0.00093952
v -0.00537361 0.01955264 -0.00093952
v -0.00537361 0.01577310 -0.00093952
f 2 3 1
f 6 2 5
f 3 2 6
f 5 2 7
f 8 4 1
f 1 3 8
f 3 6 8
f 8 6 10
f 4 8 9
f 9 8 10
f 1 4 7
f 7 2 1
f 4 9 7
f 10 6 7
f 7 6 5
f 7 9 10

