# https://github.com/mikedh/trimesh
v 0.01598085 -0.01581850 0.00427248
v 0.01592772 -0.01747599 0.00427248
v 0.01593710 -0.01581850 0.00261961
v -0.01426140 -0.01581850 0.00427248
v 0.01570269 -0.01918599 0.00427248
v 0.01584646 -0.01747599 0.00256500
v 0.01593397 -0.01581850 0.00256500
v -0.01594291 -0.01581850 0.00422094
v -0.01594291 -0.01582246 0.00427248
v 0.01535576 -0.02031443 0.00427248
v 0.01523699 -0.02015096 0.00085599
v 0.01544952 -0.01918599 0.00085599
v 0.01571831 -0.01747599 0.00085599
v 0.01582145 -0.01581850 0.00085599
v -0.01593666 -0.01581850 0.00256500
v -0.01586790 -0.01747797 0.00427248
v 0.01485255 -0.02116745 0.00427248
v 0.01482442 -0.02110008 0.00256500
v 0.01473378 -0.02100398 0.00085599
v 0.01519010 -0.02005585 -0.00000846
v 0.01526512 -0.01918599 -0.00009827
v 0.01539326 -0.01747599 -0.00023503
v 0.01544640 -0.01581850 -0.00028505
v -0.01585227 -0.01581850 0.00085344
v -0.01584290 -0.01747599 0.00256500
v -0.01569600 -0.01872827 0.00427248
v 0.01399617 -0.02249404 0.00427248
v 0.01397116 -0.02243459 0.00256500
v 0.01388053 -0.02234642 0.00085599
v 0.01369300 -0.02209180 -0.00019421
v 0.01428996 -0.02073450 -0.00030954
v 0.01432747 -0.01918599 -0.00056827
v 0.01432747 -0.01747599 -0.00070554
v 0.01432747 -0.01581850 -0.00075555
v -0.01584602 -0.01581850 0.00081670
v -0.01565849 -0.01705790 -0.00007072
v -0.01572725 -0.01756713 0.00078149
v -0.01564286 -0.01853706 0.00130149
v -0.01567412 -0.01867576 0.00256500
v -0.01549284 -0.01958525 0.00427248
v -0.01548971 -0.01953076 0.00256500
v 0.01336169 -0.02335003 0.00427248
v 0.01330231 -0.02328959 0.00256500
v 0.01321479 -0.02320142 0.00085599
v 0.01210212 -0.02368192 -0.00019523
v 0.01265221 -0.02263868 -0.00042181
v 0.01261783 -0.02089401 -0.00085097
v 0.01261783 -0.01918599 -0.00094028
v 0.01261783 -0.01581850 -0.00094028
v -0.01568662 -0.01581850 -0.00010491
v -0.01490212 -0.01756713 -0.00041823
v -0.01460833 -0.01918599 -0.00046416
v -0.01557410 -0.01819823 0.00016147
v -0.01475210 -0.01581850 -0.00057184
v -0.01544596 -0.01913843 0.00078149
v -0.01495213 -0.02089698 0.00427248
v -0.01477398 -0.02089401 0.00085599
v -0.01491463 -0.02089401 0.00256500
v 0.01250531 -0.02398608 0.00427248
v 0.01244592 -0.02396032 0.00256500
v 0.01235841 -0.02386917 0.00085599
v 0.01007055 -0.02517991 -0.00001254
v 0.01074566 -0.02427735 -0.00031260
v 0.01090818 -0.02260500 -0.00085148
v 0.00919541 -0.02260500 -0.00094028
v -0.01303621 -0.01581850 -0.00094028
v -0.01303621 -0.01918599 -0.00093466
v -0.01303621 -0.02089401 -0.00077239
v -0.01427078 -0.02089401 -0.00030188
v -0.01398635 -0.02189762 -0.00009674
v -0.01469271 -0.01581850 -0.00058816
v -0.01420827 -0.02217799 0.00427248
v -0.01409575 -0.02205811 0.00085599
v -0.01417076 -0.02215521 0.00256500
v 0.01117072 -0.02484108 0.00427248
v 0.01112072 -0.02481532 0.00256500
v 0.01102383 -0.02472417 0.00085599
v 0.00919541 -0.02431500 -0.00057387
v 0.01017057 -0.02522845 0.00085599
v 0.00919541 -0.02544839 0.00085599
v 0.00748577 -0.02571787 0.00085599
v 0.00919541 -0.02525817 -0.00010338
v 0.00748577 -0.02431500 -0.00071013
v 0.00577613 -0.02431500 -0.00076218
v -0.00961379 -0.02260500 -0.00094028
v -0.01303621 -0.01747599 -0.00094028
v -0.01132656 -0.02089401 -0.00094028
v -0.01132656 -0.02260500 -0.00080453
v -0.01297682 -0.02252277 -0.00032536
v -0.01236735 -0.02359672 -0.00013246
v -0.01340189 -0.02291312 0.00085599
v -0.01349565 -0.02301021 0.00256500
v -0.01350503 -0.02303498 0.00427248
v 0.01031746 -0.02532059 0.00427248
v 0.01026433 -0.02527205 0.00256500
v 0.00748577 -0.02538598 -0.00023963
v 0.00919541 -0.02556530 0.00256500
v 0.00748577 -0.02584766 0.00256500
v 0.00577613 -0.02582487 0.00085599
v 0.00577613 -0.02544047 -0.00029168
v -0.00003729 -0.02499068 -0.00047998
v -0.00448486 -0.02431500 -0.00076218
v -0.00619450 -0.02431500 -0.00076116
v -0.00790727 -0.02431500 -0.00069125
v -0.00970131 -0.02446163 -0.00043610
v -0.01132656 -0.02395933 -0.00033403
v -0.01032953 -0.02512938 0.00031865
v -0.01254550 -0.02373443 0.00085599
v -0.01263927 -0.02381963 0.00256500
v -0.01265177 -0.02385134 0.00427248
v 0.00919541 -0.02563366 0.00427248
v 0.00748577 -0.02586846 0.00427248
v 0.00577613 -0.02593980 0.00256500
v -0.00448486 -0.02582487 0.00085599
v -0.00448486 -0.02544047 -0.00029168
v -0.00619450 -0.02544047 -0.00029117
v -0.00790727 -0.02536814 -0.00022075
v -0.00918873 -0.02525421 -0.00010032
v -0.00790727 -0.02567824 0.00085599
v -0.00970131 -0.02532753 0.00087539
v -0.01050768 -0.02519080 0.00145866
v -0.01117654 -0.02468157 0.00087539
v -0.01138282 -0.02467463 0.00256500
v -0.01145471 -0.02470733 0.00427248
v 0.00577613 -0.02593980 0.00427248
v -0.00448486 -0.02593980 0.00256500
v -0.00619450 -0.02582388 0.00085599
v -0.00790727 -0.02580407 0.00256500
v -0.00961379 -0.02545236 0.00256500
v -0.00961379 -0.02554449 0.00427248
v -0.01060145 -0.02526709 0.00427248
v -0.00448486 -0.02593980 0.00427248
v -0.00619450 -0.02593781 0.00256500
v -0.00790727 -0.02583082 0.00427248
v -0.00619450 -0.02593781 0.00427248
f 8 9 4
f 48 49 34
f 64 65 48
f 16 9 8
f 1 2 3
f 112 125 113
f 88 87 85
f 48 34 33
f 33 34 23
f 47 64 48
f 48 33 47
f 47 33 32
f 52 69 53
f 14 7 6
f 6 7 3
f 6 3 2
f 111 95 94
f 94 95 76
f 42 60 43
f 81 99 96
f 60 76 61
f 65 64 83
f 83 84 65
f 103 85 102
f 102 116 103
f 102 115 116
f 22 33 23
f 32 33 22
f 22 21 32
f 23 14 22
f 52 54 67
f 67 87 88
f 15 16 8
f 36 52 53
f 50 54 36
f 40 41 56
f 30 47 31
f 31 47 32
f 27 42 28
f 28 42 43
f 79 76 95
f 60 42 59
f 59 76 60
f 62 63 45
f 45 61 62
f 45 63 64
f 44 28 43
f 29 28 44
f 43 60 44
f 60 61 44
f 30 29 44
f 44 45 30
f 61 45 44
f 64 63 78
f 78 83 64
f 78 63 62
f 96 83 78
f 100 83 96
f 84 83 100
f 96 99 100
f 116 115 114
f 114 127 116
f 103 116 104
f 104 105 88
f 88 85 104
f 104 85 103
f 88 105 106
f 106 89 88
f 90 89 106
f 90 106 107
f 13 22 14
f 21 22 13
f 14 6 13
f 6 12 13
f 87 67 86
f 69 52 68
f 52 67 68
f 68 67 88
f 88 89 68
f 68 89 69
f 56 41 58
f 58 41 57
f 58 72 56
f 74 72 58
f 92 110 93
f 109 110 92
f 93 72 92
f 92 72 74
f 50 36 35
f 35 36 24
f 51 54 52
f 52 36 51
f 51 36 54
f 39 38 41
f 24 36 37
f 37 36 53
f 53 38 37
f 53 57 55
f 55 38 53
f 57 41 55
f 41 38 55
f 20 12 11
f 21 13 20
f 20 13 12
f 20 29 30
f 30 31 20
f 32 21 20
f 20 31 32
f 5 6 2
f 5 12 6
f 5 10 11
f 11 12 5
f 27 28 17
f 95 111 97
f 97 79 95
f 77 61 76
f 76 79 77
f 62 61 77
f 77 79 62
f 94 76 75
f 76 59 75
f 30 45 46
f 46 45 64
f 46 47 30
f 64 47 46
f 96 78 82
f 82 78 62
f 82 81 96
f 62 81 82
f 101 102 84
f 115 102 101
f 101 100 115
f 84 100 101
f 134 133 135
f 126 133 127
f 127 114 126
f 118 106 105
f 118 107 106
f 124 110 109
f 124 123 131
f 109 123 124
f 66 86 71
f 71 67 54
f 71 86 67
f 109 92 108
f 108 122 109
f 90 107 108
f 107 122 108
f 41 40 26
f 26 39 41
f 25 15 24
f 24 37 25
f 16 15 25
f 25 37 38
f 38 39 25
f 25 26 16
f 39 26 25
f 10 17 18
f 11 10 18
f 18 17 28
f 18 28 29
f 98 111 112
f 98 97 111
f 98 112 113
f 113 99 98
f 99 81 98
f 80 81 62
f 62 79 80
f 79 97 80
f 80 98 81
f 97 98 80
f 116 127 117
f 117 104 116
f 105 104 117
f 117 118 105
f 73 92 74
f 73 58 57
f 74 58 73
f 11 18 19
f 19 18 29
f 19 20 11
f 29 20 19
f 121 130 131
f 121 122 107
f 131 123 121
f 121 123 109
f 109 122 121
f 91 108 92
f 92 73 91
f 90 108 91
f 134 130 128
f 127 133 128
f 133 134 128
f 90 91 70
f 70 91 73
f 69 89 70
f 70 89 90
f 70 73 57
f 53 69 70
f 70 57 53
f 130 121 129
f 129 128 130
f 107 118 119
f 127 128 119
f 119 117 127
f 118 117 119
f 120 129 121
f 128 129 120
f 120 119 128
f 120 121 107
f 107 119 120
f 102 85 65
f 65 84 102
f 115 100 114
f 114 100 99
f 86 66 49
f 86 49 48
f 48 65 86
f 65 85 86
f 86 85 87
f 126 114 99
f 126 99 113
f 125 132 126
f 113 125 126
f 126 132 135
f 135 133 126
f 71 34 49
f 1 3 71
f 8 4 71
f 49 66 71
f 71 4 1
f 23 34 71
f 71 14 23
f 71 7 14
f 50 35 71
f 71 15 8
f 3 7 71
f 71 54 50
f 24 15 71
f 71 35 24
f 1 4 130
f 130 72 93
f 130 2 1
f 9 16 130
f 130 4 9
f 94 75 130
f 135 132 130
f 130 111 94
f 27 17 130
f 93 110 130
f 130 40 56
f 130 132 125
f 125 112 130
f 130 5 2
f 112 111 130
f 130 42 27
f 130 124 131
f 130 59 42
f 130 134 135
f 56 72 130
f 10 5 130
f 130 17 10
f 130 75 59
f 16 26 130
f 110 124 130
f 130 26 40

