# https://github.com/mikedh/trimesh
v 0.02382168 0.01096559 0.04538843
v 0.02381322 0.01096559 0.04542932
v 0.02382591 0.00989138 0.04538843
v -0.01939345 0.01096559 0.04538843
v 0.02288664 0.01096559 0.04918596
v 0.02382591 0.00762208 0.04538843
v 0.02289510 0.00475980 0.04918596
v -0.01939768 0.00995296 0.04538843
v -0.01924960 0.01096559 0.04703979
v -0.01905497 0.01096559 0.04918596
v 0.02382168 0.00248137 0.04538843
v 0.02289510 -0.00207775 0.04918596
v -0.01939768 0.00818085 0.04538843
v -0.01924960 -0.00942846 0.04703979
v -0.01905497 -0.00942846 0.04918596
v 0.02381745 -0.00036950 0.04538843
v 0.02288664 -0.00422389 0.04918596
v -0.01939345 -0.00942846 0.04538843
v -0.01924536 -0.01233407 0.04703979
v -0.01905497 -0.01233407 0.04918559
v 0.02256508 -0.00942846 0.04918596
v 0.02381322 -0.00096933 0.04538843
v 0.02284856 -0.00593442 0.04918596
v 0.02367783 -0.00207775 0.04591930
v -0.01938499 -0.01233407 0.04538843
v 0.02225622 -0.01233407 0.04918559
v 0.02257354 -0.00935775 0.04918596
v 0.02379629 -0.00207775 0.04538843
v 0.02275124 -0.00764495 0.04918596
v 0.00860711 -0.01233407 0.04538843
v 0.02225199 -0.01233407 0.04874208
v 0.02338166 -0.00555810 0.04538843
v 0.02364821 -0.00381793 0.04538843
v 0.01261384 -0.01193495 0.04538843
v 0.01945532 -0.01233407 0.04589477
v 0.02211660 -0.01233407 0.04769781
v 0.02297549 -0.00720933 0.04538843
v 0.01359543 -0.01178442 0.04538843
v 0.01945955 -0.01055056 0.04538843
v 0.02027613 -0.01019477 0.04538843
v 0.02121963 -0.00970898 0.04538843
v 0.02052576 -0.01233407 0.04606169
v 0.02138464 -0.01233407 0.04684424
v 0.02237892 -0.00865758 0.04538843
v 0.02295433 -0.00728003 0.04538843
v 0.02053422 -0.01233407 0.04606355
f 18 25 19
f 3 1 2
f 2 5 3
f 14 18 19
f 20 14 19
f 18 14 13
f 9 4 8
f 3 5 7
f 26 32 33
f 14 20 15
f 23 29 28
f 29 33 28
f 24 17 23
f 23 28 24
f 35 30 34
f 34 38 35
f 40 35 39
f 35 38 39
f 44 46 41
f 41 35 40
f 44 45 36
f 27 21 26
f 26 33 27
f 27 33 29
f 12 17 16
f 35 41 42
f 42 41 46
f 43 46 44
f 44 36 43
f 32 36 37
f 37 36 45
f 31 32 26
f 31 36 32
f 17 24 22
f 22 16 17
f 22 24 28
f 12 16 11
f 12 11 6
f 5 2 9
f 9 10 5
f 9 2 1
f 1 4 9
f 8 13 9
f 9 13 14
f 10 9 15
f 15 9 14
f 21 20 26
f 21 15 20
f 5 10 27
f 23 17 27
f 27 7 5
f 27 29 23
f 12 7 27
f 27 17 12
f 10 15 27
f 15 21 27
f 19 25 31
f 25 30 31
f 31 20 19
f 26 20 31
f 31 30 35
f 46 43 31
f 35 42 31
f 31 42 46
f 31 43 36
f 6 13 8
f 8 4 6
f 6 1 3
f 25 18 6
f 40 39 6
f 6 4 1
f 6 30 25
f 18 13 6
f 6 33 32
f 6 41 40
f 6 34 30
f 6 28 33
f 6 22 28
f 6 45 44
f 38 34 6
f 6 39 38
f 44 41 6
f 32 37 6
f 6 37 45
f 16 22 6
f 6 11 16
f 6 7 12
f 3 7 6

