# https://github.com/mikedh/trimesh
v 0.01053801 0.03897220 0.08481910
v 0.01053924 0.03897680 0.08481910
v 0.01070806 0.03738375 0.08481910
v 0.01106048 0.03555512 0.09151223
v 0.01107650 0.03726222 0.09151223
v 0.01108019 0.03897220 0.08980131
v 0.01099147 0.04059232 0.08481910
v 0.01143261 0.04026058 0.08980131
v 0.01105185 0.03555512 0.08481910
v 0.01141167 0.03555512 0.09298847
v 0.01142892 0.03726222 0.09285652
v 0.01155214 0.03844233 0.09260059
v 0.01137100 0.03899639 0.09153348
v 0.01155584 0.04005382 0.09097823
v 0.01261926 0.04110204 0.08809216
v 0.01261926 0.04125408 0.08638124
v 0.01261926 0.04137733 0.08481910
v 0.01261926 0.04077720 0.08980131
v 0.02259667 0.03555512 0.08481910
v 0.01261926 0.03555512 0.09372704
v 0.01261926 0.03726222 0.09342506
v 0.01261926 0.03863066 0.09274140
v 0.01261926 0.03948594 0.09201789
v 0.01261926 0.04018801 0.09116331
v 0.01433083 0.04122586 0.08809216
v 0.01433083 0.04135545 0.08638124
v 0.01433083 0.04143838 0.08481910
v 0.01433083 0.04086935 0.08980131
v 0.02255108 0.03711478 0.08481910
v 0.02282341 0.03555512 0.08637770
v 0.01433083 0.03555512 0.09385279
v 0.01433083 0.03726222 0.09350919
v 0.01433083 0.03866291 0.09277062
v 0.01433083 0.03951819 0.09204888
v 0.01433083 0.04021278 0.09119431
v 0.01604118 0.04088318 0.08980131
v 0.01604118 0.04123565 0.08809216
v 0.01775029 0.04124141 0.08809216
v 0.01775029 0.04135545 0.08638124
v 0.01604118 0.04143838 0.08481910
v 0.02254492 0.03726222 0.08481910
v 0.02276303 0.03726222 0.08638124
v 0.02304398 0.03555512 0.08808862
v 0.01604118 0.03555512 0.09386253
v 0.01604118 0.03726222 0.09351893
v 0.01775029 0.03868941 0.09278656
v 0.01604118 0.03867559 0.09277948
v 0.01775029 0.03954468 0.09207811
v 0.01604118 0.04021681 0.09120759
v 0.01775029 0.04021796 0.09122265
v 0.01775029 0.04089066 0.08980131
v 0.01946063 0.04077778 0.08980131
v 0.01946063 0.04111240 0.08809216
v 0.01775029 0.04143435 0.08481910
v 0.02229478 0.03854369 0.08481910
v 0.02296265 0.03726222 0.08809216
v 0.02312654 0.03555512 0.08979777
v 0.01775029 0.03555512 0.09386519
v 0.01775029 0.03726222 0.09352513
v 0.01946063 0.03861914 0.09273254
v 0.01946063 0.03947442 0.09200549
v 0.01946063 0.04016152 0.09115092
v 0.02063495 0.04001235 0.09093307
v 0.02119193 0.04016901 0.08965519
v 0.01946063 0.04118900 0.08638124
v 0.02133733 0.04029687 0.08804257
v 0.01946063 0.04120743 0.08481910
v 0.02226027 0.03868192 0.08481910
v 0.02295895 0.03726222 0.08980131
v 0.02236255 0.03886507 0.08638124
v 0.02237364 0.03913634 0.08804257
v 0.02271251 0.03555512 0.09150869
v 0.01946063 0.03555512 0.09376335
v 0.01946063 0.03726222 0.09341886
v 0.02066083 0.03840086 0.09257314
v 0.02121780 0.03899466 0.09153968
v 0.02177477 0.03958846 0.09012809
v 0.02203847 0.03984014 0.08898836
v 0.02110567 0.04042530 0.08638124
v 0.02203847 0.03984014 0.08857922
v 0.02101325 0.04040629 0.08481910
v 0.02186842 0.03953720 0.08481910
v 0.02234160 0.03899984 0.08965519
v 0.02223440 0.03844867 0.09100657
v 0.02241554 0.03722766 0.09155120
v 0.02196084 0.03972035 0.08638124
v 0.02201752 0.03981538 0.08743950
v 0.02217525 0.03555512 0.09252620
v 0.02211364 0.03663387 0.09246244
v 0.02117098 0.03555512 0.09317444
v 0.02120671 0.03722766 0.09280073
v 0.02180188 0.03777423 0.09214718
v 0.02108719 0.04034524 0.08481910
f 9 4 3
f 3 4 1
f 1 4 5
f 2 8 7
f 43 56 57
f 1 5 6
f 6 2 1
f 8 2 6
f 14 8 6
f 56 43 42
f 57 56 69
f 56 71 69
f 67 54 65
f 27 17 26
f 26 17 25
f 25 37 26
f 7 8 15
f 55 42 41
f 68 56 55
f 56 42 55
f 30 42 43
f 81 67 79
f 79 87 81
f 67 65 79
f 79 65 66
f 78 66 64
f 52 63 64
f 57 69 72
f 83 71 78
f 83 69 71
f 25 28 36
f 36 37 25
f 51 37 36
f 50 51 36
f 39 54 40
f 38 37 51
f 38 51 52
f 39 26 38
f 38 26 37
f 16 17 7
f 7 15 16
f 25 17 16
f 16 15 25
f 18 8 14
f 18 15 8
f 14 24 18
f 18 24 28
f 18 28 25
f 25 15 18
f 73 59 58
f 13 6 5
f 5 12 13
f 14 6 13
f 13 12 14
f 11 12 5
f 28 24 35
f 35 36 28
f 60 48 46
f 46 59 60
f 50 48 62
f 62 63 52
f 52 51 62
f 62 51 50
f 14 12 23
f 23 24 14
f 29 30 19
f 41 42 29
f 42 30 29
f 87 79 80
f 78 71 80
f 71 87 80
f 80 66 78
f 80 79 66
f 63 76 77
f 78 64 77
f 77 64 63
f 85 72 69
f 53 38 52
f 52 64 53
f 39 38 53
f 66 65 53
f 53 64 66
f 53 54 39
f 53 65 54
f 50 36 49
f 36 35 49
f 49 48 50
f 49 35 48
f 47 48 33
f 47 46 48
f 61 48 60
f 61 62 48
f 63 62 61
f 48 35 34
f 33 48 34
f 34 35 24
f 24 23 34
f 93 86 82
f 81 87 93
f 87 86 93
f 68 82 70
f 82 86 70
f 70 56 68
f 70 71 56
f 70 87 71
f 70 86 87
f 84 77 76
f 84 83 78
f 78 77 84
f 69 83 84
f 84 85 69
f 60 59 74
f 59 73 74
f 73 90 74
f 74 90 91
f 92 84 76
f 10 20 11
f 10 5 4
f 10 11 5
f 22 23 12
f 33 34 22
f 22 34 23
f 89 90 88
f 91 90 89
f 89 92 91
f 88 72 89
f 72 85 89
f 85 84 89
f 84 92 89
f 75 92 76
f 75 61 60
f 91 92 75
f 75 76 63
f 63 61 75
f 60 74 75
f 75 74 91
f 58 59 44
f 20 31 21
f 21 22 12
f 12 11 21
f 11 20 21
f 32 21 31
f 32 47 33
f 33 22 32
f 22 21 32
f 46 47 32
f 45 44 59
f 59 46 45
f 46 32 45
f 27 26 40
f 40 26 39
f 1 2 93
f 93 29 19
f 93 3 1
f 19 9 93
f 27 40 93
f 93 17 27
f 93 67 81
f 9 3 93
f 93 2 7
f 68 55 93
f 7 17 93
f 93 82 68
f 93 54 67
f 93 55 41
f 93 40 54
f 41 29 93
f 44 9 19
f 44 43 57
f 44 73 58
f 44 4 9
f 19 30 44
f 57 72 44
f 44 30 43
f 44 72 88
f 44 10 4
f 88 90 44
f 44 90 73
f 20 10 44
f 44 31 20
f 31 44 45
f 45 32 31

