# https://github.com/mikedh/trimesh
v -0.00738305 0.01433235 0.08020150
v -0.00638567 0.01348952 0.08020150
v -0.00738305 0.01844359 0.08002563
v -0.00738305 -0.00469581 0.08020150
v -0.00623535 0.01332224 0.08020150
v -0.00738305 0.02010675 0.07949991
v -0.00623535 0.01844359 0.07967816
v -0.00738305 -0.00720824 0.08004845
v -0.00623535 -0.00319350 0.08020150
v -0.00623535 0.01976254 0.07916575
v -0.00623535 0.02184711 0.07740319
v -0.00738305 0.02184711 0.07801876
v -0.00738305 -0.00882635 0.07992343
v -0.00623535 -0.00726292 0.07971476
v -0.00623535 0.02184711 0.07534594
v -0.00738305 0.02184711 0.07534594
v -0.00738305 -0.00891964 0.07991060
v -0.00623535 -0.00891964 0.07947947
v -0.00623535 -0.01063427 0.07534594
v -0.00738305 -0.01101708 0.07534594
v -0.00738305 -0.01025145 0.07947472
v -0.00623535 -0.00896146 0.07946521
v -0.00623535 -0.01026111 0.07782815
v -0.00738305 -0.01080155 0.07782815
v -0.00738305 -0.01044769 0.07937965
v -0.00623535 -0.01001018 0.07896705
v -0.00623535 -0.01019677 0.07812333
v -0.00738305 -0.01073721 0.07812333
v -0.00738305 -0.01045090 0.07937109
f 7 3 5
f 2 3 1
f 5 3 2
f 6 7 10
f 3 7 6
f 10 11 6
f 6 11 12
f 8 9 4
f 17 18 14
f 9 8 13
f 13 14 9
f 17 14 13
f 20 19 24
f 23 24 19
f 24 23 28
f 26 22 21
f 21 25 26
f 21 22 18
f 21 18 17
f 26 25 29
f 29 28 26
f 26 28 27
f 27 28 23
f 15 19 16
f 16 19 20
f 1 4 2
f 2 9 5
f 4 9 2
f 15 16 11
f 16 12 11
f 17 13 29
f 29 4 1
f 29 16 20
f 3 6 29
f 1 3 29
f 29 12 16
f 29 6 12
f 29 8 4
f 29 21 17
f 29 13 8
f 20 24 29
f 24 28 29
f 25 21 29
f 27 19 15
f 18 22 27
f 27 7 5
f 5 9 27
f 15 11 27
f 27 14 18
f 10 7 27
f 27 11 10
f 9 14 27
f 27 22 26
f 27 23 19

