# https://github.com/mikedh/trimesh
v -0.00267810 0.01096559 0.02580881
v -0.00261715 0.01088497 0.02580881
v -0.00273052 0.01096559 0.02591825
v 0.00791876 0.01096559 0.02580881
v -0.00229412 0.01047152 0.02580881
v -0.00285120 0.01096559 0.02618214
v 0.00811014 0.01096559 0.02598210
v 0.00722270 0.01043915 0.02580881
v -0.00248794 0.01030817 0.02651352
v -0.00175653 0.01027772 0.02580881
v -0.00300114 0.01096559 0.02651352
v 0.00813818 0.01096559 0.02600763
v 0.00754330 0.01029572 0.02654453
v 0.00577695 0.00974190 0.02651352
v 0.00577695 0.01008775 0.02580881
v -0.00106413 0.00979552 0.02651352
v -0.00106413 0.00929934 0.02822392
v -0.00270492 0.01005902 0.02822392
v -0.00106413 0.01013907 0.02580881
v -0.00332052 0.01096559 0.02784208
v 0.00816256 0.01096559 0.02604716
v 0.00841002 0.01065287 0.02713615
v 0.00748723 0.00980509 0.02822392
v 0.00577695 0.00924514 0.02822392
v 0.00406546 0.00972332 0.02651352
v 0.00406546 0.01006994 0.02580881
v 0.00064614 0.00972332 0.02651352
v 0.00064614 0.00922944 0.02822392
v 0.00064614 0.00905728 0.02955491
v -0.00097149 0.00910382 0.02995318
v -0.00125918 0.00909328 0.03164412
v -0.00274515 0.00996595 0.02993372
v -0.00355335 0.01096559 0.02984373
v -0.00341195 0.01096559 0.02822392
v -0.00026081 0.01010518 0.02580881
v 0.00846365 0.01096559 0.02693489
v 0.00857215 0.01096559 0.02822392
v 0.00847462 0.01054907 0.02822392
v 0.00731656 0.00952244 0.03009971
v 0.00663270 0.00903832 0.03078010
v 0.00577695 0.00906456 0.02973732
v 0.00406546 0.00905728 0.02955491
v 0.00406546 0.00922944 0.02822392
v 0.00064614 0.01006994 0.02580881
v 0.00064614 0.00902396 0.03040981
v -0.00033882 0.00902894 0.03053628
v -0.00125918 0.00909328 0.03201989
v -0.00275490 0.00994853 0.03201989
v -0.00275368 0.00994853 0.03164412
v -0.00040343 0.00902396 0.03164412
v -0.00059116 0.00903909 0.03201989
v -0.00360943 0.01096559 0.03165750
v -0.00355945 0.01096559 0.02993372
v 0.00884277 0.01096559 0.03201989
v 0.00864772 0.01046156 0.03201989
v 0.00781514 0.00977905 0.03201989
v 0.00663270 0.00903813 0.03164412
v 0.00577695 0.00902339 0.03164412
v 0.00577695 0.00903105 0.03059283
v 0.00406546 0.00902396 0.03040981
v 0.00064614 0.00900922 0.03164412
v -0.00294141 0.01016646 0.03201989
v -0.00360943 0.01096023 0.03201989
v -0.00017304 0.00902071 0.03201989
v -0.00040343 0.00902396 0.03201989
v -0.00361065 0.01096559 0.03201989
v 0.00663270 0.00903813 0.03201989
v 0.00577695 0.00902339 0.03201989
v 0.00406546 0.00900922 0.03164412
v 0.00064614 0.00900922 0.03201989
v 0.00406546 0.00900922 0.03201989
f 31 47 48
f 55 38 54
f 18 11 9
f 18 9 17
f 17 9 16
f 54 38 37
f 38 23 22
f 36 37 22
f 22 37 38
f 38 55 56
f 33 34 18
f 32 18 31
f 53 33 32
f 32 33 18
f 18 34 20
f 20 11 18
f 10 19 16
f 16 9 10
f 57 56 67
f 61 70 64
f 64 50 61
f 64 65 50
f 50 65 51
f 51 47 31
f 31 50 51
f 31 18 30
f 18 17 30
f 31 48 49
f 49 32 31
f 53 32 52
f 32 49 52
f 16 19 27
f 27 17 16
f 5 10 9
f 6 9 11
f 6 5 9
f 3 5 6
f 39 23 38
f 38 56 39
f 46 50 31
f 31 30 46
f 61 50 46
f 8 4 7
f 7 12 8
f 8 12 13
f 13 12 22
f 13 22 23
f 23 24 13
f 36 22 21
f 22 12 21
f 40 57 58
f 41 24 40
f 40 24 23
f 23 39 40
f 56 57 40
f 40 39 56
f 62 49 48
f 14 15 8
f 8 13 14
f 14 13 24
f 2 3 1
f 2 5 3
f 29 30 17
f 29 46 30
f 58 69 59
f 59 40 58
f 59 69 60
f 41 40 59
f 66 52 63
f 63 52 49
f 49 62 63
f 35 27 19
f 35 44 27
f 41 59 42
f 42 59 60
f 42 24 41
f 42 43 24
f 46 29 45
f 61 46 45
f 28 29 17
f 17 27 28
f 25 26 15
f 15 14 25
f 25 14 24
f 24 43 25
f 67 68 57
f 57 68 58
f 21 20 34
f 66 54 21
f 21 4 1
f 21 6 11
f 1 3 21
f 54 37 21
f 34 33 21
f 21 37 36
f 21 33 53
f 11 20 21
f 21 52 66
f 21 7 4
f 53 52 21
f 3 6 21
f 12 7 21
f 68 71 69
f 58 68 69
f 69 71 70
f 69 70 61
f 63 54 66
f 47 51 63
f 63 55 54
f 67 56 63
f 63 48 47
f 70 71 63
f 63 68 67
f 63 64 70
f 63 56 55
f 63 71 68
f 65 64 63
f 63 51 65
f 63 62 48
f 1 4 26
f 26 4 8
f 8 15 26
f 26 2 1
f 19 10 26
f 10 5 26
f 26 35 19
f 5 2 26
f 44 35 26
f 29 42 45
f 45 42 60
f 45 69 61
f 60 69 45
f 28 42 29
f 43 42 28
f 44 26 25
f 27 44 25
f 43 28 25
f 25 28 27

