# https://github.com/mikedh/trimesh
v 0.00918152 0.03382239 0.05940144
v 0.00918152 0.03382239 0.05995863
v 0.00918152 0.03388649 0.05856155
v 0.01793835 0.03382239 0.05940144
v 0.01795295 0.03382239 0.05995863
v 0.00918152 0.04232757 0.05995863
v 0.01792547 0.03388649 0.05856155
v 0.00918152 0.04167508 0.05856155
v 0.01794007 0.03726310 0.05856155
v 0.01794007 0.03726310 0.05901288
v 0.01793835 0.03726310 0.05940144
v 0.01793577 0.03726310 0.05995863
v 0.00918409 0.04272188 0.05995863
v 0.00918152 0.04276754 0.05902943
v 0.00918152 0.04279038 0.05856606
v 0.00919869 0.04279038 0.05856155
v 0.01785936 0.03897204 0.05856155
v 0.01785850 0.03897204 0.05901288
v 0.01785507 0.03897204 0.05995863
v 0.01262106 0.04272539 0.05995863
v 0.01262020 0.04275349 0.05940144
v 0.01090987 0.04275174 0.05940144
v 0.00918152 0.04276842 0.05901288
v 0.00965031 0.04279125 0.05856155
v 0.01731415 0.04070382 0.05856155
v 0.01733561 0.04064673 0.05901288
v 0.01762239 0.03971938 0.05995863
v 0.01262106 0.04275349 0.05940144
v 0.01432795 0.04261913 0.05995863
v 0.01136064 0.04279301 0.05856155
v 0.01733476 0.04063356 0.05940144
v 0.01687541 0.04151701 0.05856155
v 0.01740087 0.04040260 0.05995863
v 0.01262020 0.04279301 0.05856155
v 0.01432881 0.04266392 0.05901288
v 0.01597560 0.04202460 0.05995863
v 0.01432881 0.04264548 0.05940144
v 0.01733218 0.04061424 0.05995863
v 0.01606317 0.04202899 0.05856155
v 0.01599363 0.04203777 0.05940144
v 0.01684879 0.04148891 0.05940144
v 0.01686167 0.04150120 0.05901288
v 0.01432881 0.04268411 0.05856155
v 0.01683076 0.04146959 0.05995863
v 0.01600565 0.04204568 0.05901288
f 5 4 7
f 24 16 15
f 15 16 8
f 23 24 15
f 13 20 21
f 30 24 21
f 14 6 13
f 13 23 14
f 13 21 22
f 22 21 24
f 22 23 13
f 24 23 22
f 28 20 29
f 28 21 20
f 32 39 40
f 40 36 32
f 40 43 36
f 44 38 41
f 41 36 44
f 32 36 41
f 35 28 29
f 36 43 35
f 45 39 43
f 43 40 45
f 45 40 39
f 42 38 32
f 32 41 42
f 42 41 38
f 19 10 18
f 18 10 17
f 17 26 18
f 5 7 9
f 9 10 5
f 17 10 9
f 19 18 27
f 27 18 26
f 25 26 17
f 34 35 43
f 28 35 34
f 29 36 37
f 37 35 29
f 36 35 37
f 11 12 5
f 5 10 11
f 19 12 11
f 11 10 19
f 31 27 26
f 32 38 31
f 31 25 32
f 26 25 31
f 33 31 38
f 27 31 33
f 2 4 5
f 1 4 2
f 7 4 1
f 1 3 7
f 1 2 14
f 14 3 1
f 2 6 14
f 14 8 3
f 15 8 14
f 14 23 15
f 34 7 3
f 34 24 30
f 3 8 34
f 16 24 34
f 34 39 32
f 34 8 16
f 32 25 34
f 43 39 34
f 34 9 7
f 17 9 34
f 34 25 17
f 30 21 34
f 21 28 34
f 33 2 5
f 13 6 33
f 44 36 33
f 33 20 13
f 33 6 2
f 29 20 33
f 33 36 29
f 33 38 44
f 5 12 33
f 33 12 19
f 19 27 33

