# https://github.com/mikedh/trimesh
v -0.00277603 0.02859409 0.00625385
v -0.00081365 0.02859409 0.00625519
v -0.00643027 0.02859409 0.00625519
v -0.00643027 0.02977258 0.00669643
v -0.00448603 0.02977258 0.00669643
v -0.00081365 0.02977172 0.00669643
v -0.00081365 0.02859409 0.01536203
v -0.00643027 0.02859409 0.01543825
v -0.00643027 0.02989017 0.00681810
v -0.00643027 0.03062834 0.00758291
v -0.00277603 0.03062748 0.00758291
v -0.00081365 0.03062662 0.00758291
v -0.00081365 0.03291494 0.01991211
v -0.00643027 0.03262826 0.01990676
v -0.00643027 0.03072705 0.00769924
v -0.00081365 0.03135277 0.00843864
v -0.00081365 0.03735339 0.01991211
v -0.00643027 0.03263341 0.01991211
v -0.00643027 0.03135277 0.00843730
v -0.00081365 0.03194245 0.00940802
v -0.00106547 0.03735424 0.01991211
v -0.00081365 0.03726584 0.01967010
v -0.00643027 0.03736197 0.01991211
v -0.00643027 0.03194245 0.00940802
v -0.00081365 0.03260680 0.01051512
v -0.00619604 0.03727528 0.01967010
v -0.00619604 0.03736197 0.01991211
v -0.00106547 0.03726669 0.01967010
v -0.00081365 0.03718000 0.01945483
v -0.00643027 0.03728730 0.01970353
v -0.00643027 0.03279134 0.01082265
v -0.00081365 0.03323252 0.01156206
v -0.00106547 0.03667702 0.01819931
v -0.00643027 0.03675942 0.01839720
v -0.00643027 0.03727528 0.01967010
v -0.00081365 0.03667702 0.01820065
v -0.00643027 0.03323252 0.01156206
v -0.00081365 0.03395953 0.01282961
v -0.00619604 0.03667702 0.01819530
v -0.00081365 0.03629763 0.01734492
v -0.00643027 0.03635171 0.01745723
v -0.00643027 0.03667702 0.01819530
v -0.00643027 0.03333123 0.01173454
v -0.00106547 0.03395953 0.01282961
v -0.00081365 0.03456809 0.01392601
v -0.00081365 0.03621867 0.01718313
v -0.00643027 0.03629935 0.01733957
v -0.00643027 0.03395181 0.01282961
v -0.00643027 0.03403507 0.01298070
v -0.00643027 0.03456037 0.01393938
v -0.00643027 0.03501185 0.01479511
v -0.00081365 0.03501442 0.01478174
v -0.00081365 0.03576032 0.01624985
v -0.00643027 0.03583413 0.01639827
v -0.00643027 0.03576032 0.01624985
v -0.00081365 0.03565045 0.01603324
f 14 7 13
f 13 18 14
f 8 7 14
f 3 4 1
f 1 4 5
f 2 1 6
f 6 1 5
f 5 10 6
f 5 4 9
f 9 10 5
f 19 16 15
f 20 16 19
f 16 12 11
f 10 15 11
f 11 15 16
f 11 12 6
f 11 6 10
f 24 20 19
f 41 42 39
f 31 37 32
f 20 24 31
f 47 53 54
f 53 55 54
f 33 41 39
f 40 33 36
f 47 41 40
f 41 33 40
f 27 21 26
f 26 21 28
f 39 42 34
f 34 35 26
f 34 33 39
f 26 33 34
f 48 45 44
f 49 45 48
f 44 45 38
f 51 55 52
f 52 45 51
f 51 45 50
f 50 45 49
f 25 31 32
f 20 31 25
f 46 53 47
f 47 40 46
f 26 35 30
f 23 27 30
f 30 27 26
f 43 44 37
f 43 48 44
f 56 55 53
f 56 52 55
f 28 22 29
f 36 33 29
f 29 33 26
f 26 28 29
f 1 8 3
f 2 7 1
f 1 7 8
f 13 17 27
f 23 18 27
f 27 18 13
f 17 21 27
f 32 37 38
f 37 44 38
f 22 21 17
f 22 28 21
f 3 8 43
f 43 18 23
f 43 4 3
f 19 15 43
f 43 41 47
f 8 14 43
f 43 24 19
f 43 14 18
f 43 9 4
f 10 9 43
f 43 15 10
f 51 50 43
f 43 55 51
f 23 30 43
f 37 31 43
f 42 41 43
f 47 54 43
f 43 34 42
f 43 31 24
f 43 54 55
f 35 34 43
f 49 48 43
f 43 50 49
f 43 30 35
f 29 17 13
f 29 7 2
f 13 7 29
f 2 6 29
f 16 20 29
f 29 12 16
f 6 12 29
f 29 22 17
f 53 46 29
f 29 25 32
f 32 38 29
f 29 40 36
f 29 38 45
f 45 52 29
f 20 25 29
f 29 46 40
f 29 56 53
f 52 56 29

