# https://github.com/mikedh/trimesh
v 0.00918152 0.03666883 0.07972826
v 0.00918152 0.03666883 0.07817314
v 0.00883805 0.03666883 0.08041963
v 0.00918152 0.03526587 0.08041963
v 0.00918152 0.02294023 0.07817314
v -0.00379031 0.03666883 0.07817314
v -0.00330294 0.03666883 0.08041963
v 0.00918152 0.02294023 0.08041963
v -0.00455871 0.02294023 0.07817314
v -0.00434421 0.03404029 0.07817314
v -0.00368035 0.03482240 0.08041963
v -0.00379710 0.02294023 0.08041963
v -0.00466868 0.02528925 0.07817314
v -0.00457772 0.03225434 0.07817314
v -0.00371972 0.03434669 0.08041963
v -0.00381204 0.02528925 0.08041963
v -0.00468769 0.02699995 0.07817314
v -0.00467954 0.03044554 0.07817314
v -0.00374823 0.03384006 0.08041963
v -0.00381475 0.03130021 0.08041963
v -0.00468769 0.02871065 0.07817314
v -0.00378624 0.03301092 0.08041963
f 13 9 12
f 13 12 17
f 10 7 6
f 1 3 4
f 11 10 14
f 7 10 11
f 17 20 21
f 21 20 18
f 17 12 16
f 16 20 17
f 14 18 15
f 15 11 14
f 18 20 22
f 19 15 18
f 18 22 19
f 8 9 5
f 12 9 8
f 2 6 3
f 1 2 3
f 6 7 3
f 5 2 4
f 4 2 1
f 4 8 5
f 21 2 5
f 21 13 17
f 21 6 2
f 5 9 21
f 21 10 6
f 9 13 21
f 21 18 14
f 14 10 21
f 12 8 19
f 19 3 7
f 7 11 19
f 8 4 19
f 19 4 3
f 19 16 12
f 20 16 19
f 11 15 19
f 19 22 20

