# https://github.com/mikedh/trimesh
v 0.01489870 0.01006462 -0.00051884
v 0.01462847 0.01232171 -0.00063033
v 0.01489870 0.01232116 -0.00051884
v 0.01544955 0.01006462 -0.00028516
v 0.01489870 0.01006462 0.01613265
v 0.01462847 0.01502475 -0.00063033
v 0.01462847 0.01232171 0.01437253
v 0.01544937 0.01502475 -0.00028516
v 0.01544955 0.01232116 -0.00028516
v 0.01566907 0.01232116 0.00037730
v 0.01582730 0.01160469 0.00085753
v 0.01578805 0.01006462 0.00074176
v 0.01511051 0.01006462 0.01969792
v 0.01462847 0.01564777 -0.00062390
v 0.01504206 0.01564777 -0.00045024
v 0.01462847 0.01564777 0.01376795
v 0.01544131 0.01564777 -0.00027659
v 0.01582730 0.01502475 0.00085753
v 0.01582568 0.01006462 0.00085753
v 0.01645914 0.01160469 0.00555047
v 0.01645914 0.01006462 0.00555691
v 0.01520853 0.01006462 0.02053618
v 0.01514420 0.01272558 0.01888110
v 0.01512234 0.01564777 0.01733751
v 0.01568143 0.01564777 0.00045019
v 0.01581314 0.01564777 0.00085753
v 0.01645914 0.01232116 0.00555047
v 0.01645914 0.01006462 0.02127153
v 0.01572659 0.01006462 0.02103356
v 0.01526157 0.01057561 0.02035181
v 0.01599037 0.01564777 0.01812217
v 0.01592980 0.01564777 0.00256834
v 0.01599037 0.01564777 0.00430917
v 0.01645914 0.01232116 0.01966148
v 0.01599467 0.01006462 0.02118363
v 0.01645914 0.01094396 0.02068411
f 20 21 11
f 18 8 17
f 15 17 8
f 15 6 14
f 8 6 15
f 18 17 25
f 19 11 21
f 3 6 8
f 33 27 32
f 34 31 36
f 36 31 28
f 30 31 24
f 24 22 30
f 7 5 13
f 13 16 7
f 22 16 13
f 24 16 23
f 23 22 24
f 23 16 22
f 18 25 26
f 26 27 18
f 26 32 27
f 28 31 35
f 11 19 12
f 12 4 11
f 18 11 10
f 11 4 10
f 10 8 18
f 29 30 22
f 31 30 29
f 29 35 31
f 8 10 9
f 9 10 4
f 9 3 8
f 1 7 2
f 1 5 7
f 20 11 27
f 27 11 18
f 34 27 31
f 31 27 33
f 16 6 2
f 2 7 16
f 14 6 16
f 2 6 3
f 3 1 2
f 28 21 36
f 36 21 20
f 20 27 36
f 36 27 34
f 26 15 14
f 26 31 33
f 26 25 17
f 17 15 26
f 14 16 26
f 24 31 26
f 26 16 24
f 33 32 26
f 29 21 28
f 5 1 29
f 1 4 29
f 29 19 21
f 29 13 5
f 22 13 29
f 28 35 29
f 29 12 19
f 4 12 29
f 1 3 9
f 9 4 1

