# https://github.com/mikedh/trimesh
v 0.01106007 -0.01700817 0.08342882
v 0.01106007 -0.01700817 0.08809158
v 0.01106007 -0.01016555 0.08342882
v 0.02237279 -0.01700817 0.08342882
v 0.01106237 -0.01016555 0.08855833
v 0.01106007 -0.01016555 0.08809158
v 0.01115537 -0.01700817 0.08847374
v 0.01114733 -0.01063244 0.08980194
v 0.01112667 -0.01016555 0.08980194
v 0.02237394 -0.01016555 0.08342882
v 0.02237394 -0.01405275 0.08342882
v 0.02257601 -0.01700817 0.08467086
v 0.01141256 -0.01700817 0.08946597
v 0.01122311 -0.01016555 0.09018097
v 0.02250023 -0.01016555 0.08420334
v 0.02257601 -0.01016555 0.08467086
v 0.02278842 -0.01016555 0.08638122
v 0.02266327 -0.01700817 0.08638122
v 0.01147915 -0.01016555 0.09099934
v 0.01174093 -0.01700817 0.08964531
v 0.01163415 -0.01198087 0.09076988
v 0.01149982 -0.01063244 0.09092729
v 0.02268394 -0.01016555 0.08809158
v 0.02231883 -0.01700817 0.08781827
v 0.01180637 -0.01016555 0.09116380
v 0.01261926 -0.01700817 0.09009483
v 0.02224764 -0.01016555 0.08938922
v 0.02180905 -0.01700817 0.08867344
v 0.01261926 -0.01016555 0.09138699
v 0.01308541 -0.01700817 0.09012380
v 0.02151742 -0.01016555 0.09019742
v 0.02118675 -0.01700817 0.08918639
v 0.01433000 -0.01700817 0.09019820
v 0.01308771 -0.01016555 0.09140578
v 0.02095368 -0.01016555 0.09065398
v 0.02095368 -0.01700817 0.08937435
v 0.01479615 -0.01700817 0.09019428
v 0.01479730 -0.01016555 0.09142693
v 0.01433000 -0.01016555 0.09142849
v 0.02070338 -0.01016555 0.09085211
v 0.01946108 -0.01700817 0.08997657
v 0.01650689 -0.01700817 0.09017862
v 0.01604075 -0.01016555 0.09141362
v 0.01946108 -0.01016555 0.09123898
v 0.01821649 -0.01700817 0.09011284
v 0.01775034 -0.01700817 0.09016296
v 0.01775034 -0.01016555 0.09139169
f 14 13 19
f 17 12 16
f 11 12 4
f 18 12 17
f 8 14 9
f 8 7 13
f 13 14 8
f 19 13 22
f 35 40 36
f 15 11 10
f 15 16 12
f 12 11 15
f 23 18 17
f 24 23 27
f 18 23 24
f 5 6 2
f 9 5 2
f 2 8 9
f 7 8 2
f 26 29 25
f 47 46 44
f 39 34 33
f 33 34 29
f 40 44 41
f 36 40 41
f 28 24 27
f 27 31 28
f 21 25 19
f 19 22 21
f 26 25 21
f 21 20 26
f 13 20 21
f 21 22 13
f 46 47 43
f 30 29 26
f 30 33 29
f 44 46 45
f 45 41 44
f 32 28 31
f 31 35 32
f 32 35 36
f 46 43 42
f 38 42 43
f 39 33 38
f 37 38 33
f 42 38 37
f 3 10 11
f 1 3 11
f 11 4 1
f 2 3 1
f 2 6 3
f 38 23 17
f 19 25 38
f 38 10 3
f 3 6 38
f 38 15 10
f 17 16 38
f 38 14 19
f 38 44 40
f 38 5 9
f 9 14 38
f 38 31 27
f 40 35 38
f 38 6 5
f 38 34 39
f 38 35 31
f 16 15 38
f 27 23 38
f 29 34 38
f 38 25 29
f 38 47 44
f 38 43 47
f 1 4 37
f 37 45 46
f 36 41 37
f 4 12 37
f 13 7 37
f 37 2 1
f 12 18 37
f 37 20 13
f 18 24 37
f 7 2 37
f 26 20 37
f 37 32 36
f 37 30 26
f 24 28 37
f 33 30 37
f 41 45 37
f 28 32 37
f 46 42 37

