# https://github.com/mikedh/trimesh
v 0.01277911 -0.00963232 0.03778832
v 0.01278038 -0.00962829 0.03688454
v 0.01811145 -0.00963232 0.03778832
v 0.01277911 -0.00963232 0.04463686
v 0.01277911 0.00356195 0.03772079
v 0.01814309 -0.00962829 0.03688454
v 0.01278038 0.00208607 0.03688454
v 0.01946067 -0.00952748 0.04463686
v 0.01808740 -0.00963232 0.03848646
v 0.01529150 -0.00963232 0.04463686
v 0.01277911 0.01096559 0.04463686
v 0.01277911 0.00789687 0.03786269
v 0.02117062 -0.00893269 0.03688454
v 0.02126428 -0.00927545 0.04463686
v 0.02060865 -0.00938231 0.04463686
v 0.01277911 0.00818318 0.03787483
v 0.01277911 0.00956027 0.03794996
v 0.01430933 0.00665688 0.03688454
v 0.01930753 -0.00953151 0.04463686
v 0.01769631 -0.00963232 0.04014073
v 0.01804184 -0.00963232 0.03869286
v 0.02400576 0.01096559 0.04463686
v 0.01342714 0.01096559 0.03842044
v 0.01277911 0.01096357 0.03834683
v 0.02231606 -0.00837016 0.03688454
v 0.02235656 -0.00853952 0.04463686
v 0.01277911 0.00984456 0.03801218
v 0.01478776 0.00804204 0.03688454
v 0.02425256 0.01096559 0.04361773
v 0.02401082 0.00989295 0.04463686
v 0.02426269 0.00989295 0.04361773
v 0.02117062 0.01096559 0.03885677
v 0.02117062 0.00901790 0.03688454
v 0.02025299 0.00903000 0.03688454
v 0.01946067 0.00904008 0.03688454
v 0.01775073 0.00903806 0.03688454
v 0.01694955 0.00893927 0.03688454
v 0.01604205 0.00877192 0.03688454
v 0.01572057 0.00868321 0.03688454
v 0.02292486 -0.00720880 0.03688454
v 0.02260211 -0.00806167 0.04463686
v 0.02446393 0.01096559 0.04190807
v 0.02466897 0.00818318 0.04190807
v 0.02505248 0.00647139 0.04019764
v 0.02460696 0.00989295 0.04190807
v 0.02401082 0.00818318 0.04463686
v 0.02400955 0.00647139 0.04463686
v 0.02400828 0.00530197 0.04463686
v 0.02426016 0.00818318 0.04361773
v 0.02148451 0.01096559 0.03890002
v 0.02288182 0.00887273 0.03688454
v 0.02208697 0.00894935 0.03688454
v 0.02295903 -0.00721082 0.04463686
v 0.02465505 -0.00207949 0.03688454
v 0.02556635 0.00617500 0.03688454
v 0.02530055 0.00697343 0.03688454
v 0.02414498 0.01096559 0.04026594
v 0.02557267 0.00613468 0.03688454
v 0.02465632 0.00134006 0.04190807
v 0.02505248 0.00304983 0.04019764
v 0.02527397 0.00433216 0.03918535
v 0.02534612 0.00476162 0.03884691
v 0.02551952 0.00476162 0.03799169
v 0.02549420 0.00600564 0.03787180
v 0.02399943 0.00016862 0.04463686
v 0.02287423 0.01096559 0.03918307
v 0.02435382 0.00816705 0.03688454
v 0.02287929 0.01096559 0.03918459
v 0.02357922 0.01096559 0.03942666
v 0.02382476 0.00911266 0.03753259
v 0.02317420 -0.00651723 0.04463686
v 0.02523600 -0.00030116 0.03688454
v 0.02438040 0.00813680 0.03688454
v 0.02381337 0.01096559 0.03962092
v 0.02570937 0.00476162 0.03688454
v 0.02502843 0.00134006 0.04019764
v 0.02399689 -0.00036568 0.04463686
v 0.02423611 -0.00036568 0.04361773
v 0.02527271 0.00304983 0.03918535
v 0.02534612 0.00304983 0.03884008
v 0.02551698 0.00304983 0.03798486
v 0.02374629 0.01076195 0.03933180
v 0.02352479 -0.00509578 0.04463686
v 0.02543218 0.00061623 0.03746809
v 0.02525752 -0.00021043 0.03688454
v 0.02570178 0.00355994 0.03688454
v 0.02397664 -0.00157139 0.04463686
v 0.02460189 -0.00036568 0.04190807
v 0.02549167 0.00175540 0.03786269
v 0.02526638 0.00261634 0.03918535
v 0.02569418 0.00292079 0.03688454
v 0.02569671 0.00304781 0.03688454
v 0.02381970 -0.00337996 0.04463686
v 0.02555622 0.00120900 0.03688454
v 0.02556255 0.00126344 0.03688454
v 0.02488541 -0.00036568 0.04019764
v 0.02386020 -0.00311785 0.04463686
v 0.02394627 -0.00207747 0.04463686
f 23 24 11
f 1 5 2
f 2 5 7
f 14 25 26
f 8 3 6
f 7 5 12
f 24 23 32
f 25 14 13
f 14 6 13
f 8 6 15
f 15 6 14
f 89 76 88
f 31 22 30
f 59 76 60
f 60 43 59
f 26 25 40
f 16 17 7
f 7 12 16
f 7 17 18
f 17 28 18
f 24 28 27
f 27 28 17
f 24 38 39
f 39 28 24
f 42 56 57
f 24 32 33
f 37 38 24
f 24 36 37
f 10 20 19
f 19 20 8
f 9 3 8
f 89 95 91
f 84 95 89
f 84 71 72
f 87 88 76
f 22 31 29
f 45 42 29
f 29 31 43
f 59 43 49
f 43 31 49
f 31 48 49
f 55 56 42
f 72 71 53
f 70 67 51
f 70 51 69
f 69 67 70
f 74 57 56
f 52 32 51
f 52 33 32
f 35 36 24
f 69 51 68
f 51 66 68
f 51 32 50
f 50 66 51
f 8 20 21
f 21 9 8
f 97 84 96
f 96 84 89
f 96 88 97
f 89 88 96
f 71 84 83
f 95 84 94
f 97 88 98
f 88 87 98
f 77 87 78
f 59 77 78
f 78 76 59
f 78 87 76
f 46 31 30
f 65 49 48
f 65 77 59
f 59 49 65
f 43 60 44
f 44 29 43
f 44 64 45
f 45 29 44
f 89 91 81
f 81 76 89
f 58 64 75
f 45 64 58
f 58 42 45
f 58 55 42
f 72 53 54
f 54 53 40
f 26 40 41
f 40 53 41
f 73 74 56
f 67 74 73
f 69 74 82
f 82 67 69
f 82 74 67
f 24 33 34
f 34 35 24
f 93 84 97
f 93 83 84
f 85 84 72
f 85 94 84
f 47 48 31
f 31 46 47
f 61 44 60
f 62 44 61
f 75 81 86
f 63 81 75
f 63 44 62
f 75 64 63
f 64 44 63
f 62 61 80
f 80 63 62
f 81 63 80
f 92 81 91
f 92 86 81
f 76 81 90
f 81 80 90
f 79 61 60
f 79 80 61
f 79 90 80
f 79 60 76
f 76 90 79
f 6 3 1
f 1 2 6
f 27 4 11
f 1 4 27
f 11 24 27
f 27 5 1
f 17 16 27
f 27 12 5
f 27 16 12
f 11 22 50
f 50 23 11
f 22 29 50
f 50 74 69
f 50 32 23
f 42 57 50
f 69 68 50
f 50 29 42
f 57 74 50
f 50 68 66
f 21 4 1
f 21 10 4
f 1 3 21
f 21 20 10
f 3 9 21
f 11 4 47
f 4 10 47
f 47 14 26
f 47 22 11
f 26 41 47
f 30 22 47
f 97 98 47
f 8 15 47
f 47 19 8
f 77 65 47
f 47 15 14
f 10 19 47
f 47 87 77
f 47 46 30
f 47 53 71
f 71 83 47
f 47 98 87
f 47 93 97
f 47 65 48
f 47 41 53
f 83 93 47
f 25 13 92
f 92 2 7
f 92 34 33
f 92 40 25
f 38 37 92
f 92 85 72
f 92 6 2
f 7 18 92
f 92 39 38
f 51 67 92
f 92 13 6
f 36 35 92
f 92 58 75
f 92 18 28
f 28 39 92
f 72 54 92
f 92 52 51
f 92 37 36
f 92 91 95
f 56 55 92
f 33 52 92
f 92 73 56
f 95 94 92
f 55 58 92
f 92 54 40
f 67 73 92
f 35 34 92
f 94 85 92
f 75 86 92

