# https://github.com/mikedh/trimesh
v -0.01629627 0.00511313 0.02105779
v -0.01629627 0.00511313 0.00593163
v -0.01945302 0.00511313 0.02105779
v -0.01629627 -0.01581849 0.02105779
v -0.01759476 0.00304988 0.00817056
v -0.01759476 0.00511313 0.00817056
v -0.01629627 -0.00041892 0.00593755
v -0.01759439 -0.01581849 0.00817649
v -0.01759439 -0.01405234 0.00817501
v -0.01828800 -0.01581849 0.00936852
v -0.01978799 0.00511313 0.01796000
v -0.02004865 -0.00721104 0.02105779
v -0.02004236 -0.01581849 0.02105779
v -0.01629627 -0.01581849 0.00597161
v -0.01830168 0.00511313 0.00940850
v -0.01831092 -0.01576317 0.00940850
v -0.01629627 -0.00383649 0.00594199
v -0.01629627 -0.01408102 0.00595976
v -0.01629627 -0.01576317 0.00596420
v -0.01831092 -0.01581849 0.00940850
v -0.01991813 0.00511313 0.01660064
v -0.02006085 -0.00891983 0.02105779
v -0.01993810 0.00511313 0.01624970
v -0.02004569 -0.01577342 0.02105779
v -0.02002831 -0.01581849 0.01961551
v -0.01887735 0.00511313 0.01067308
v -0.01888696 -0.01576317 0.01066420
v -0.01888696 -0.01581849 0.01066420
v -0.02007009 -0.01063066 0.02105779
v -0.02002979 -0.00550020 0.01967030
v -0.01993810 -0.00036974 0.01624970
v -0.02000169 -0.01576317 0.01796000
v -0.02000021 -0.00550020 0.01796000
v -0.02003682 -0.00721104 0.01967030
v -0.01976063 0.00511313 0.01453792
v -0.01977616 -0.00891983 0.01453792
v -0.01977985 -0.01234150 0.01453792
v -0.01978281 -0.01576317 0.01453792
v -0.02004643 -0.01576317 0.02105779
v -0.01999836 -0.01581849 0.01796000
v -0.02003275 -0.01576317 0.01967030
v -0.01917609 0.00511313 0.01152749
v -0.01917646 -0.01576317 0.01151861
v -0.01917646 -0.01581849 0.01151861
v -0.02004680 -0.01405234 0.01967030
v -0.02007268 -0.01266318 0.02105779
v -0.01993588 -0.01576317 0.01624970
v -0.01999725 -0.01581849 0.01790521
v -0.02007305 -0.01405234 0.02105779
v -0.01947890 0.00511313 0.01282910
v -0.01949664 -0.01063066 0.01282910
v -0.01949997 -0.01405234 0.01282910
v -0.01950145 -0.01576317 0.01282910
v -0.01950145 -0.01581849 0.01282910
v -0.01977394 -0.01581849 0.01448461
v -0.01978207 -0.01581849 0.01453792
v -0.02007009 -0.01437401 0.02105779
v -0.01923857 0.00511313 0.01179551
v -0.01992996 -0.01581849 0.01619491
v -0.01993329 -0.01581849 0.01624970
f 11 12 3
f 56 47 38
f 23 12 21
f 12 11 21
f 22 12 23
f 49 32 41
f 31 32 23
f 47 32 31
f 23 38 31
f 31 38 47
f 23 32 33
f 59 47 56
f 59 60 47
f 48 32 47
f 47 60 48
f 29 22 30
f 30 22 23
f 14 8 19
f 8 18 19
f 17 18 8
f 8 10 9
f 2 8 9
f 9 10 2
f 27 42 26
f 26 15 27
f 29 33 45
f 45 32 49
f 45 33 32
f 23 33 34
f 34 33 29
f 34 30 23
f 29 30 34
f 25 39 41
f 37 38 23
f 56 38 55
f 38 54 55
f 51 35 50
f 42 27 43
f 7 8 2
f 7 17 8
f 5 6 2
f 2 10 5
f 10 6 5
f 16 10 20
f 16 6 10
f 15 6 16
f 16 27 15
f 49 41 57
f 41 39 57
f 46 45 49
f 29 45 46
f 24 25 13
f 39 25 24
f 40 41 32
f 40 25 41
f 32 48 40
f 23 35 36
f 36 37 23
f 35 51 36
f 36 51 37
f 58 51 50
f 42 51 58
f 52 51 42
f 37 51 52
f 53 52 42
f 42 43 53
f 53 54 38
f 43 28 44
f 43 27 28
f 7 2 1
f 1 4 7
f 4 14 7
f 14 19 7
f 7 19 18
f 18 17 7
f 20 28 16
f 28 27 16
f 24 4 1
f 12 22 24
f 24 13 4
f 1 3 24
f 3 12 24
f 49 57 24
f 24 22 29
f 24 46 49
f 24 57 39
f 29 46 24
f 40 14 4
f 4 13 40
f 13 25 40
f 40 8 14
f 40 59 56
f 20 10 40
f 40 28 20
f 40 10 8
f 44 28 40
f 60 59 40
f 40 48 60
f 40 54 44
f 56 55 40
f 40 55 54
f 1 2 58
f 58 3 1
f 26 42 58
f 58 35 23
f 23 21 58
f 58 11 3
f 58 15 26
f 58 21 11
f 2 6 58
f 50 35 58
f 58 6 15
f 44 54 53
f 53 43 44
f 37 52 53
f 38 37 53

