# https://github.com/mikedh/trimesh
v -0.01363401 0.02353761 0.00503479
v -0.01295544 0.02431912 0.00503479
v -0.00740302 0.02353761 0.00503479
v -0.01593720 0.02353761 0.00659008
v -0.01596320 0.02699957 0.00662067
v -0.01587157 0.02871160 0.00668620
v -0.01572174 0.02965971 0.00678377
v -0.01213694 0.02493946 0.00503479
v -0.00740302 0.02630881 0.00503479
v -0.00740302 0.02353761 0.01358891
v -0.01679532 0.02353761 0.00729346
v -0.01681761 0.02683975 0.00730948
v -0.01673713 0.02683975 0.00724395
v -0.01681637 0.02699957 0.00730948
v -0.01672846 0.02871160 0.00731094
v -0.01474846 0.02974098 0.00672552
v -0.00779803 0.02644967 0.00503479
v -0.01062748 0.02550020 0.00503479
v -0.01751105 0.03001999 0.00829683
v -0.01703060 0.03115908 0.00862449
v -0.01589138 0.03132568 0.00847595
v -0.00740302 0.02977349 0.00669639
v -0.00740302 0.03157625 0.01991203
v -0.00765934 0.02353761 0.01991058
v -0.01681637 0.02353761 0.00731385
v -0.01760515 0.02871160 0.00816722
v -0.01474846 0.03059428 0.00758180
v -0.01303964 0.02977484 0.00669785
v -0.00961953 0.02977484 0.00669639
v -0.01833078 0.02871160 0.00940797
v -0.01884714 0.03042091 0.01068657
v -0.01797416 0.03052114 0.00927981
v -0.01773394 0.03165346 0.00976475
v -0.01645975 0.03176859 0.00927981
v -0.01769679 0.03315012 0.01170305
v -0.01645851 0.03270857 0.01070841
v -0.01474846 0.03135141 0.00843663
v -0.00740302 0.03037621 0.00732113
v -0.00740302 0.03736245 0.01991203
v -0.00765934 0.02683975 0.01991203
v -0.02004208 0.02353761 0.01991058
v -0.01757791 0.02353761 0.00814829
v -0.01759525 0.02353761 0.00816868
v -0.01303964 0.03062950 0.00758180
v -0.01831592 0.02353761 0.00940942
v -0.01889048 0.02353761 0.01065453
v -0.01889544 0.02871160 0.01065308
v -0.01917281 0.03042091 0.01154140
v -0.01912575 0.03160876 0.01170741
v -0.01883847 0.03274785 0.01215595
v -0.01822801 0.03352666 0.01276466
v -0.01778470 0.03490955 0.01496800
v -0.01645851 0.03457906 0.01390638
v -0.01645851 0.03396956 0.01282728
v -0.01645851 0.03323139 0.01156324
v -0.01474846 0.03194196 0.00940797
v -0.00740302 0.03194196 0.00940797
v -0.00740302 0.03135141 0.00843809
v -0.00740302 0.03113877 0.00818615
v -0.00740302 0.03062814 0.00758326
v -0.00816456 0.03736516 0.01991203
v -0.00740302 0.03727577 0.01966884
v -0.02005074 0.02683975 0.01991203
v -0.02003712 0.02353761 0.01967612
v -0.02004827 0.02528891 0.01991058
v -0.02004332 0.02528891 0.01966884
v -0.02003712 0.02357824 0.01966884
v -0.01917405 0.02353761 0.01151082
v -0.01917405 0.02357824 0.01151082
v -0.01917281 0.02699957 0.01150791
v -0.01917157 0.02871160 0.01150936
v -0.01949847 0.03042091 0.01282728
v -0.01931026 0.03215867 0.01276466
v -0.01918395 0.03322868 0.01329329
v -0.01828001 0.03439486 0.01445394
v -0.01645851 0.03501655 0.01476121
v -0.01892515 0.03459803 0.01573982
v -0.01754324 0.03655656 0.01842664
v -0.01645851 0.03629921 0.01735483
v -0.01645851 0.03576556 0.01624806
v -0.00740302 0.03576150 0.01624806
v -0.00790948 0.03501249 0.01478742
v -0.00740302 0.03501249 0.01479034
v -0.01303964 0.03457229 0.01391512
v -0.00740302 0.03395331 0.01282728
v -0.00740302 0.03323274 0.01156179
v -0.00790948 0.03323274 0.01156179
v -0.01474846 0.03271941 0.01070696
v -0.01474846 0.03737464 0.01991203
v -0.00790948 0.03727712 0.01966884
v -0.00740302 0.03667710 0.01819364
v -0.02005322 0.02871160 0.01991203
v -0.02005198 0.02683975 0.01991058
v -0.02003588 0.02353761 0.01962806
v -0.02004703 0.02683975 0.01966884
v -0.01999874 0.02871160 0.01795918
v -0.01998264 0.02353761 0.01791840
v -0.01948981 0.02353761 0.01279670
v -0.01949724 0.02353761 0.01282728
v -0.01975480 0.02683975 0.01437676
v -0.01978080 0.03042091 0.01453695
v -0.01967307 0.03213022 0.01453695
v -0.01929664 0.03352124 0.01453695
v -0.01474846 0.03576827 0.01624806
v -0.00961953 0.03576421 0.01624806
v -0.01905270 0.03474160 0.01688008
v -0.01775994 0.03678140 0.01966884
v -0.01645108 0.03730286 0.01991203
v -0.01645851 0.03722159 0.01966884
v -0.01645851 0.03665543 0.01820965
v -0.01474846 0.03630192 0.01733298
v -0.01474846 0.03667710 0.01818781
v -0.00740302 0.03611636 0.01696600
v -0.00740302 0.03456010 0.01393405
v -0.01132959 0.03456958 0.01392094
v -0.00740302 0.03438267 0.01360784
v -0.01474846 0.03728390 0.01966884
v -0.00740302 0.03629921 0.01733881
v -0.01303964 0.03630192 0.01733444
v -0.02003465 0.03042091 0.01991203
v -0.02003217 0.03042091 0.01966884
v -0.02004827 0.02871160 0.01966884
v -0.01999502 0.03042091 0.01795918
v -0.01993063 0.03042091 0.01624806
v -0.01992939 0.02871160 0.01624806
v -0.01992320 0.02353761 0.01624806
v -0.01977337 0.02353761 0.01449762
v -0.01978080 0.02528891 0.01453840
v -0.01978080 0.02683975 0.01453695
v -0.01977956 0.03213022 0.01624806
v -0.01928301 0.03395196 0.01628447
v -0.01935607 0.03383954 0.01795918
v -0.01906013 0.03476598 0.01795918
v -0.01863045 0.03560980 0.01991203
v -0.01851033 0.03581432 0.01991203
v -0.01777604 0.03681797 0.01991203
v -0.01980804 0.03213022 0.01991203
v -0.01980804 0.03213022 0.01966884
v -0.01980309 0.03213022 0.01795918
v -0.01977956 0.02353761 0.01453840
v -0.01992072 0.02353761 0.01620729
v -0.01933502 0.03383954 0.01991203
v -0.01929540 0.03396685 0.01991203
v -0.01904650 0.03475379 0.01991203
f 40 24 23
f 23 24 10
f 106 135 136
f 66 93 95
f 122 93 92
f 95 93 122
f 9 17 22
f 76 81 53
f 92 93 63
f 65 66 41
f 93 66 65
f 41 63 65
f 65 63 93
f 96 66 95
f 95 122 96
f 96 122 123
f 33 20 19
f 19 32 33
f 125 96 124
f 124 96 123
f 130 124 123
f 102 124 130
f 103 131 106
f 103 130 131
f 102 130 103
f 61 90 89
f 91 90 62
f 62 61 39
f 90 61 62
f 117 90 91
f 91 112 117
f 89 90 117
f 117 112 110
f 119 91 118
f 110 112 79
f 17 16 28
f 19 15 26
f 26 15 14
f 26 30 19
f 43 30 26
f 1 4 5
f 6 1 5
f 5 15 6
f 14 15 5
f 88 56 55
f 110 79 78
f 54 85 86
f 53 85 54
f 76 53 52
f 51 75 52
f 52 78 79
f 92 120 121
f 121 122 92
f 123 122 121
f 121 130 123
f 126 96 125
f 125 141 126
f 45 30 43
f 45 46 30
f 101 124 102
f 30 46 47
f 71 48 47
f 46 68 47
f 139 121 120
f 130 121 139
f 49 33 32
f 77 103 106
f 77 52 75
f 78 52 77
f 109 108 89
f 89 117 109
f 109 117 110
f 110 78 109
f 109 78 108
f 113 119 118
f 76 52 80
f 80 52 79
f 111 79 112
f 111 112 91
f 91 119 111
f 111 80 79
f 22 17 29
f 17 28 29
f 20 34 21
f 7 16 17
f 7 1 6
f 19 20 7
f 20 21 7
f 7 21 16
f 7 15 19
f 6 15 7
f 4 11 12
f 12 26 14
f 136 108 107
f 108 78 107
f 78 77 107
f 106 136 107
f 107 77 106
f 55 54 87
f 87 54 86
f 87 88 55
f 56 88 87
f 115 83 114
f 114 116 115
f 115 116 85
f 81 83 82
f 82 53 81
f 82 83 53
f 53 54 35
f 35 52 53
f 51 52 35
f 35 54 55
f 35 34 20
f 20 33 35
f 134 133 144
f 134 135 106
f 106 133 134
f 144 133 132
f 106 131 132
f 132 133 106
f 131 130 132
f 130 139 132
f 66 96 97
f 96 126 97
f 71 47 70
f 72 101 102
f 72 49 48
f 72 48 71
f 71 70 72
f 140 141 125
f 125 124 140
f 30 47 31
f 31 47 48
f 48 49 31
f 31 49 32
f 19 30 31
f 31 32 19
f 138 120 137
f 138 139 120
f 137 132 138
f 138 132 139
f 102 103 74
f 103 77 74
f 74 75 51
f 74 77 75
f 119 113 104
f 76 80 104
f 104 111 119
f 80 111 104
f 36 21 34
f 36 35 55
f 34 35 36
f 18 7 17
f 8 7 18
f 1 7 2
f 2 7 8
f 13 5 4
f 4 12 13
f 14 5 13
f 13 12 14
f 25 12 11
f 26 12 25
f 84 85 53
f 84 115 85
f 53 83 84
f 83 115 84
f 142 132 137
f 66 97 94
f 99 72 98
f 98 72 68
f 68 72 69
f 69 72 70
f 69 47 68
f 69 70 47
f 100 72 99
f 101 72 100
f 102 74 73
f 73 74 49
f 73 72 102
f 49 72 73
f 33 49 50
f 49 74 50
f 50 35 33
f 51 35 50
f 50 74 51
f 105 113 81
f 105 104 113
f 105 81 76
f 76 104 105
f 22 29 38
f 37 57 58
f 56 57 37
f 21 36 37
f 55 56 37
f 37 36 55
f 43 26 42
f 26 25 42
f 144 132 143
f 132 142 143
f 41 66 67
f 66 94 67
f 127 100 99
f 44 29 28
f 44 38 29
f 60 38 44
f 41 67 64
f 64 67 94
f 128 127 140
f 128 140 124
f 100 127 128
f 27 28 16
f 27 44 28
f 37 44 27
f 16 21 27
f 21 37 27
f 60 44 59
f 59 37 58
f 59 44 37
f 124 101 129
f 129 128 124
f 101 100 129
f 100 128 129
f 63 41 24
f 24 40 63
f 86 57 87
f 87 57 56
f 3 1 2
f 2 9 3
f 17 9 2
f 2 18 17
f 8 18 2
f 89 108 143
f 143 61 89
f 143 40 23
f 23 39 143
f 92 63 143
f 143 136 135
f 143 120 92
f 143 108 136
f 143 63 40
f 137 120 143
f 135 134 143
f 39 61 143
f 143 134 144
f 143 142 137
f 3 10 64
f 64 10 24
f 24 41 64
f 64 1 3
f 64 127 99
f 43 42 64
f 64 4 1
f 99 98 64
f 64 45 43
f 64 11 4
f 64 126 141
f 46 45 64
f 64 68 46
f 64 97 126
f 141 140 64
f 64 25 11
f 64 94 97
f 64 98 68
f 64 42 25
f 140 127 64
f 59 10 3
f 59 39 23
f 23 10 59
f 58 57 59
f 3 9 59
f 59 113 118
f 59 116 114
f 118 91 59
f 59 62 39
f 59 9 22
f 114 83 59
f 91 62 59
f 59 57 86
f 86 85 59
f 59 83 81
f 81 113 59
f 85 116 59
f 22 38 59
f 59 38 60

