# https://github.com/mikedh/trimesh
v -0.00081343 0.01232150 -0.00094078
v -0.00537361 0.01232150 -0.00093943
v -0.00081343 0.01574708 -0.00094078
v 0.01261700 0.01232150 -0.00094078
v -0.00537361 0.01577310 -0.00093943
v -0.00537361 0.01232150 0.01293336
v 0.01261700 0.01574708 -0.00094078
v 0.01262052 0.01232150 -0.00093943
v -0.00537361 0.01577310 0.01194875
v -0.00081343 0.01577310 -0.00093943
v -0.00537361 0.01539195 0.01219728
v 0.01261700 0.01232150 0.01285051
v 0.01262052 0.01232218 0.01285187
v 0.01262052 0.01574708 -0.00035138
v 0.01262052 0.01502365 -0.00093943
v 0.01262052 0.01232150 0.01134712
v 0.01261700 0.01574708 0.01195282
v -0.00081343 0.01577310 0.01193517
v 0.01262052 0.01574708 0.01193517
f 12 13 6
f 17 9 11
f 6 13 11
f 11 13 17
f 18 9 17
f 15 7 14
f 13 12 16
f 14 7 10
f 19 18 17
f 17 13 19
f 2 6 11
f 11 5 2
f 11 9 5
f 3 1 2
f 2 5 3
f 3 4 1
f 7 4 3
f 8 4 15
f 15 4 7
f 2 1 16
f 16 6 2
f 16 4 8
f 16 12 6
f 1 4 16
f 10 3 5
f 7 3 10
f 5 9 10
f 9 18 10
f 19 10 18
f 14 10 19
f 19 16 8
f 8 15 19
f 19 15 14
f 13 16 19

