# https://github.com/mikedh/trimesh
v 0.00918152 0.03666883 0.07817314
v -0.00378975 0.03666883 0.07817314
v 0.00918152 0.03352775 0.07817314
v 0.00918152 0.03666883 0.05856155
v -0.00434423 0.03404096 0.07817314
v -0.00449293 0.03666883 0.07780648
v -0.00440260 0.03352775 0.07817314
v 0.00918152 0.03352775 0.05856155
v -0.00501545 0.03666883 0.05856155
v -0.00501545 0.03666883 0.07733616
v -0.00501545 0.03352775 0.07759916
v -0.00501545 0.03352775 0.05856155
f 11 7 10
f 6 10 7
f 2 6 5
f 5 6 7
f 8 4 1
f 1 3 8
f 12 8 3
f 3 7 12
f 12 7 11
f 4 8 12
f 9 4 12
f 12 10 9
f 11 10 12
f 1 4 6
f 6 4 9
f 9 10 6
f 6 2 1
f 5 3 1
f 5 7 3
f 1 2 5

