# https://github.com/mikedh/trimesh
v 0.01244794 0.01096527 0.03742002
v 0.01241974 0.01067727 0.03742002
v 0.01237494 0.01096527 0.03721990
v -0.00450021 0.01096527 0.03742002
v 0.01226047 0.01012357 0.03742002
v 0.01203817 0.01096527 0.03639067
v -0.00450021 0.01096527 0.03665418
v -0.00450021 0.00994007 0.03742002
v 0.01189881 0.01051001 0.03639067
v 0.01196020 0.01069511 0.03639067
v 0.01098472 0.00861381 0.03742002
v -0.00427127 0.01096527 0.03639067
v -0.00450021 0.01034594 0.03696354
v -0.00450021 0.00983940 0.03741992
v -0.00441394 0.00983271 0.03742002
v 0.01094158 0.00977186 0.03639067
v 0.01002748 0.00825890 0.03742002
v -0.00421652 0.01088786 0.03639067
v -0.00398261 0.01055940 0.03639067
v -0.00289266 0.00956892 0.03639067
v -0.00262058 0.00833473 0.03742002
v 0.01060481 0.00965239 0.03639067
v 0.00936057 0.00922230 0.03639067
v 0.00919799 0.00797791 0.03742002
v -0.00088197 0.00854244 0.03639067
v -0.00103792 0.00774312 0.03742002
v 0.00919799 0.00916750 0.03639067
v 0.00859578 0.00783901 0.03742002
v 0.00717736 0.00859087 0.03639067
v 0.00041037 0.00844687 0.03639067
v 0.00064595 0.00771349 0.03742002
v 0.00692187 0.00774694 0.03742002
v 0.00577552 0.00845133 0.03639067
v 0.00064595 0.00844336 0.03639067
v 0.00235636 0.00771094 0.03742002
v 0.00577552 0.00771413 0.03742002
v 0.00539063 0.00844783 0.03639067
v 0.00197148 0.00844145 0.03639067
v 0.00406511 0.00771126 0.03742002
v 0.00406511 0.00844145 0.03639067
v 0.00521976 0.00771158 0.03742002
f 26 21 25
f 25 21 20
f 21 14 20
f 28 29 24
f 2 5 6
f 17 16 11
f 24 29 27
f 11 16 9
f 9 5 11
f 33 28 32
f 32 36 33
f 33 36 37
f 29 28 33
f 15 8 14
f 15 14 21
f 13 7 12
f 13 19 20
f 13 20 14
f 1 2 3
f 3 2 6
f 23 17 24
f 24 27 23
f 6 5 10
f 5 9 10
f 31 34 35
f 37 36 40
f 30 26 25
f 30 31 26
f 34 31 30
f 18 13 12
f 19 13 18
f 16 17 22
f 17 23 22
f 41 40 36
f 35 34 38
f 38 40 35
f 35 40 39
f 40 41 39
f 13 8 4
f 4 7 13
f 14 8 13
f 4 1 3
f 3 7 4
f 6 12 3
f 12 7 3
f 38 12 6
f 25 20 38
f 38 27 29
f 29 33 38
f 38 30 25
f 38 18 12
f 20 19 38
f 37 40 38
f 38 9 16
f 38 33 37
f 6 10 38
f 38 23 27
f 38 10 9
f 16 22 38
f 34 30 38
f 19 18 38
f 38 22 23
f 39 28 24
f 39 1 4
f 39 15 21
f 24 17 39
f 39 2 1
f 4 8 39
f 21 26 39
f 11 5 39
f 32 28 39
f 39 31 35
f 5 2 39
f 39 17 11
f 39 36 32
f 8 15 39
f 26 31 39
f 39 41 36

