# https://github.com/mikedh/trimesh
v 0.01043608 -0.03286888 0.01522546
v 0.00974882 -0.03296446 0.01679397
v 0.01043608 -0.03038926 0.01522546
v 0.01044076 -0.03296521 0.01522546
v 0.00975505 -0.03296521 0.01678982
v 0.00974882 -0.03296521 0.01680743
v 0.00974882 -0.03038926 0.01679397
v 0.02411894 -0.03038926 0.01522546
v 0.02321818 -0.03296521 0.01522546
v 0.00974882 -0.03296521 0.02443861
v 0.00974882 -0.03038926 0.02580820
v 0.02427790 -0.03038926 0.01555491
v 0.02397712 -0.03115864 0.01522546
v 0.02363895 -0.03219810 0.01522546
v 0.02377453 -0.03209421 0.01533528
v 0.02339895 -0.03296521 0.01548757
v 0.00974882 -0.03109535 0.02580820
v 0.01261942 -0.03296521 0.02444275
v 0.01967902 -0.03038926 0.02580820
v 0.02447114 -0.03115864 0.01625007
v 0.02452568 -0.03038926 0.01625007
v 0.02483581 -0.03286888 0.01796050
v 0.02383375 -0.03168443 0.01522546
v 0.02373401 -0.03200090 0.01522546
v 0.02404569 -0.03274607 0.01629876
v 0.02401608 -0.03296521 0.01640547
v 0.02379167 -0.03296521 0.01605737
v 0.01090984 -0.03109560 0.02580820
v 0.01604169 -0.03296521 0.02444689
v 0.01955747 -0.03045811 0.02580820
v 0.02288156 -0.03296521 0.02391232
v 0.01987694 -0.03038926 0.02574086
v 0.02507892 -0.03115864 0.01796050
v 0.02533294 -0.03286888 0.01915915
v 0.02485918 -0.03038926 0.01719179
v 0.02534853 -0.03296521 0.01924721
v 0.02485139 -0.03296521 0.01805581
v 0.02406439 -0.03296521 0.01649663
v 0.01604169 -0.03109560 0.02580820
v 0.01774971 -0.03296521 0.02439510
v 0.01921929 -0.03061521 0.02580820
v 0.02022758 -0.03038926 0.02560307
v 0.01998915 -0.03038926 0.02569735
v 0.01897930 -0.03067725 0.02580820
v 0.01774971 -0.03098717 0.02580820
v 0.01956993 -0.03296521 0.02423141
v 0.02449607 -0.03296521 0.02325757
v 0.02501035 -0.03038926 0.01796050
v 0.02551372 -0.03168947 0.02008844
v 0.02556359 -0.03286888 0.02001489
v 0.02556203 -0.03296521 0.02003561
v 0.02117042 -0.03038926 0.02515966
v 0.02460049 -0.03296521 0.02320680
v 0.02273974 -0.03038926 0.02441271
v 0.02516619 -0.03038926 0.01886389
v 0.02552151 -0.03166501 0.02138137
v 0.02566956 -0.03286888 0.02138137
v 0.02521762 -0.03038926 0.01962017
v 0.02524411 -0.03038926 0.02085301
v 0.02566333 -0.03296521 0.02138137
v 0.02555112 -0.03296521 0.02240598
v 0.02459270 -0.03286888 0.02321923
v 0.02363739 -0.03038926 0.02391439
v 0.02547943 -0.03187255 0.02228994
v 0.02533294 -0.03080989 0.02138137
v 0.02555112 -0.03286888 0.02240598
v 0.02566021 -0.03296521 0.02145596
v 0.02523788 -0.03038926 0.02138137
v 0.02449763 -0.03038926 0.02308041
f 1 4 2
f 5 6 2
f 2 4 5
f 69 64 68
f 60 51 57
f 57 64 66
f 66 61 57
f 64 69 66
f 66 69 63
f 28 17 29
f 36 34 51
f 51 34 50
f 57 51 50
f 50 49 57
f 56 64 57
f 57 49 56
f 57 61 67
f 67 60 57
f 63 54 62
f 54 53 62
f 62 66 63
f 62 53 61
f 61 66 62
f 18 17 10
f 18 29 17
f 31 45 46
f 46 45 40
f 39 29 40
f 40 45 39
f 28 29 39
f 14 15 9
f 14 24 15
f 15 26 27
f 25 26 15
f 49 58 59
f 59 56 49
f 55 49 48
f 55 58 49
f 19 31 32
f 30 31 19
f 30 41 31
f 44 45 31
f 31 41 44
f 15 24 23
f 9 15 16
f 15 27 16
f 38 25 37
f 26 25 38
f 12 13 8
f 20 13 12
f 34 20 33
f 33 50 34
f 49 50 33
f 33 35 48
f 48 49 33
f 65 59 68
f 56 59 65
f 68 64 65
f 64 56 65
f 54 52 47
f 47 53 54
f 47 52 42
f 47 42 31
f 31 42 43
f 43 32 31
f 15 23 22
f 37 25 22
f 22 25 15
f 22 23 13
f 22 13 20
f 22 20 34
f 22 36 37
f 34 36 22
f 35 33 21
f 20 12 21
f 21 33 20
f 2 7 1
f 1 7 3
f 2 6 17
f 17 7 2
f 11 7 17
f 17 6 10
f 44 19 11
f 11 17 44
f 44 17 28
f 28 39 44
f 44 30 19
f 44 39 45
f 41 30 44
f 9 4 23
f 3 8 23
f 23 1 3
f 4 1 23
f 23 14 9
f 24 14 23
f 8 13 23
f 47 4 9
f 47 5 4
f 10 6 47
f 47 67 61
f 47 38 37
f 31 46 47
f 51 60 47
f 47 18 10
f 6 5 47
f 47 36 51
f 61 53 47
f 40 29 47
f 9 16 47
f 37 36 47
f 60 67 47
f 29 18 47
f 47 46 40
f 47 27 26
f 47 16 27
f 26 38 47
f 21 7 11
f 3 7 21
f 11 19 21
f 21 8 3
f 19 32 21
f 21 69 68
f 21 52 54
f 21 54 63
f 63 69 21
f 68 59 21
f 21 55 48
f 48 35 21
f 21 59 58
f 58 55 21
f 42 52 21
f 21 12 8
f 21 43 42
f 32 43 21

