# https://github.com/mikedh/trimesh
v 0.01239536 -0.01498970 0.07448061
v 0.01422896 -0.01498970 0.07448061
v 0.01239536 -0.01498970 0.07507328
v 0.01239536 0.04198232 0.07448061
v 0.01422896 -0.01498970 0.07507328
v 0.01539248 -0.01498412 0.07448061
v 0.01239536 0.04194886 0.07507328
v 0.01239536 0.04197117 0.07467989
v 0.01261950 0.04198232 0.07448061
v 0.01539248 -0.01498412 0.07507328
v 0.01539248 0.04182617 0.07448061
v 0.01261950 0.04194886 0.07507328
v 0.01432958 0.04193771 0.07507328
v 0.01422896 0.04196559 0.07457007
v 0.01331832 0.04197675 0.07448061
v 0.01539248 0.04180387 0.07507328
v 0.01539248 0.04182060 0.07469718
v 0.01432958 0.04196002 0.07448061
v 0.01422925 0.04196559 0.07448061
f 18 19 14
f 13 18 14
f 14 9 13
f 8 9 4
f 14 19 15
f 15 9 14
f 12 13 9
f 12 8 7
f 9 8 12
f 11 18 17
f 17 13 16
f 18 13 17
f 1 2 5
f 5 3 1
f 5 2 6
f 6 10 5
f 8 4 1
f 1 3 8
f 3 7 8
f 15 2 1
f 1 4 15
f 6 2 15
f 15 11 6
f 15 18 11
f 19 18 15
f 4 9 15
f 12 10 16
f 12 7 3
f 3 5 12
f 12 5 10
f 16 13 12
f 6 11 17
f 17 10 6
f 16 10 17

