# https://github.com/mikedh/trimesh
v -0.00814072 -0.01182361 0.08196727
v -0.00738422 -0.00151542 0.08196498
v -0.00738422 0.01133417 0.08196498
v -0.00816071 0.02582561 0.08196498
v -0.01555630 -0.01182361 0.08196727
v -0.00815966 -0.01682777 0.08196727
v -0.00738317 -0.00882013 0.07991904
v -0.00738317 -0.00381105 0.08041850
v -0.00815650 -0.02432419 0.08196498
v -0.00738317 -0.00891352 0.07990530
v -0.00738317 0.01365437 0.08041850
v -0.00738317 0.01844225 0.08002214
v -0.00738317 0.02582561 0.07809076
v -0.01554683 0.02582561 0.08196498
v -0.01554788 0.02381509 0.08196498
v -0.01555735 -0.01387345 0.08196727
v -0.01555841 -0.01682777 0.08196727
v -0.01555946 -0.02432419 0.08196498
v -0.00811441 -0.02439301 0.07748362
v -0.00738317 -0.02439301 0.07454416
v -0.00738317 -0.01024567 0.07946999
v -0.00738317 0.02582561 0.05856155
v -0.01621811 0.02582561 0.07665196
v -0.01555946 -0.02244148 0.08196498
v -0.01611394 -0.02439301 0.07748362
v -0.01628545 0.02106231 0.07611355
v -0.00738317 -0.02439301 0.05856842
v -0.00738317 0.02106231 0.05856155
v -0.01813092 0.02582561 0.05856155
v -0.01628545 0.02582561 0.07611355
v -0.01648641 -0.02439301 0.07440211
v -0.01642749 -0.01182361 0.07491761
v -0.01642643 0.02582561 0.07494052
v -0.01649061 0.00654138 0.07439982
v -0.00738317 -0.01682777 0.05856613
v -0.01813092 -0.02439301 0.05856842
v -0.00738632 -0.01182361 0.05856384
v -0.01812777 0.02106231 0.05856155
v -0.01813092 0.02483264 0.05856155
v -0.01813198 -0.02430944 0.05856842
v -0.01686413 0.02582561 0.07098152
v -0.01648851 -0.01233975 0.07440211
v -0.01668000 -0.02089304 0.07269296
v -0.01667895 -0.02439301 0.07269296
v -0.01649061 0.02582561 0.07440211
v -0.01649061 0.02106231 0.07440211
v -0.01668105 0.02106231 0.07269067
v -0.01812671 -0.01182361 0.05856384
v -0.01813092 -0.01682777 0.05856613
v -0.01686413 0.02357422 0.07098152
v -0.01668105 0.02582561 0.07269067
v -0.01676733 0.02106231 0.07189337
f 44 43 40
f 40 36 44
f 9 20 21
f 41 29 40
f 19 20 9
f 27 37 35
f 28 35 37
f 48 36 40
f 7 8 2
f 9 21 10
f 7 2 10
f 10 2 9
f 40 43 50
f 50 41 40
f 18 17 24
f 24 23 30
f 17 23 24
f 9 2 6
f 6 2 1
f 49 48 40
f 11 12 3
f 3 13 4
f 3 12 13
f 4 1 3
f 1 2 3
f 51 41 52
f 41 50 52
f 52 50 43
f 43 44 31
f 14 23 15
f 15 23 17
f 17 16 15
f 15 5 14
f 15 16 5
f 48 49 39
f 39 38 48
f 40 29 39
f 39 49 40
f 47 52 43
f 51 52 47
f 33 45 46
f 46 47 34
f 34 47 43
f 34 33 46
f 43 31 42
f 42 34 43
f 26 25 18
f 30 33 26
f 33 34 26
f 31 25 32
f 32 42 31
f 25 26 32
f 34 42 32
f 32 26 34
f 27 36 48
f 48 37 27
f 10 28 22
f 13 12 10
f 22 13 10
f 10 8 7
f 10 20 27
f 10 12 11
f 11 8 10
f 10 21 20
f 27 35 10
f 35 28 10
f 4 14 5
f 5 1 4
f 6 17 18
f 18 9 6
f 37 48 38
f 38 28 37
f 3 8 11
f 3 2 8
f 1 5 16
f 17 6 16
f 16 6 1
f 39 29 22
f 22 28 39
f 28 38 39
f 47 45 51
f 46 45 47
f 33 13 22
f 4 13 33
f 22 29 33
f 33 14 4
f 29 41 33
f 33 41 51
f 33 23 14
f 30 23 33
f 51 45 33
f 25 36 27
f 27 20 25
f 25 44 36
f 20 19 25
f 25 31 44
f 25 9 18
f 25 19 9
f 26 24 30
f 18 24 26

