# https://github.com/mikedh/trimesh
v -0.00538248 0.04280016 0.05856155
v -0.00538248 0.04084259 0.05856155
v -0.00538248 0.04281327 0.05819839
v -0.00574533 0.04280198 0.05856155
v -0.01541841 0.04084259 0.05856155
v -0.00538248 0.04084259 0.03493069
v -0.00538248 0.04284412 0.05730090
v -0.00745634 0.04281004 0.05856155
v -0.01511948 0.04113013 0.05856155
v -0.01514996 0.04112227 0.04361878
v -0.01542726 0.04084259 0.04361878
v -0.01490413 0.04084259 0.03493069
v -0.00538248 0.04121422 0.03493069
v -0.00961771 0.04286106 0.05730090
v -0.00961771 0.04281892 0.05856155
v -0.00538248 0.04286832 0.05648668
v -0.01449014 0.04162114 0.05856155
v -0.01428954 0.04181734 0.04533049
v -0.01429446 0.04181492 0.04361878
v -0.01514210 0.04112469 0.04190938
v -0.01542530 0.04084259 0.04190938
v -0.01490806 0.04084259 0.03494919
v -0.01474876 0.04093010 0.03493069
v -0.01119302 0.04121785 0.03493069
v -0.01303776 0.04124326 0.03506716
v -0.00619668 0.04123842 0.03506716
v -0.00538248 0.04123781 0.03506716
v -0.00538248 0.04289151 0.05559150
v -0.00961771 0.04289332 0.05559150
v -0.01132773 0.04282758 0.05730090
v -0.01087638 0.04280903 0.05856155
v -0.01426398 0.04179698 0.05856155
v -0.01394046 0.04196192 0.05856155
v -0.01303776 0.04242207 0.05730090
v -0.01303776 0.04242812 0.05045868
v -0.01428659 0.04179335 0.04190938
v -0.01303776 0.04241361 0.04874928
v -0.01509981 0.04112610 0.04019767
v -0.01539973 0.04084259 0.04019767
v -0.01493265 0.04084259 0.03506716
v -0.01474876 0.04094623 0.03506716
v -0.01303776 0.04121866 0.03493069
v -0.01412631 0.04165219 0.03848827
v -0.01399061 0.04157718 0.03737103
v -0.01290304 0.04121866 0.03493069
v -0.01303776 0.04146830 0.03639258
v -0.00538248 0.04135416 0.03578886
v -0.00538248 0.04290038 0.05387979
v -0.00961771 0.04290260 0.05387979
v -0.01132773 0.04283928 0.05559150
v -0.01258640 0.04252391 0.05856155
v -0.01132773 0.04280016 0.05856155
v -0.01303776 0.04241683 0.05856155
v -0.01132773 0.04284049 0.05387979
v -0.01132773 0.04283363 0.05217039
v -0.01424431 0.04174152 0.04019767
v -0.01303776 0.04237469 0.04703757
v -0.01303776 0.04231440 0.04533049
v -0.01132773 0.04280823 0.05045868
v -0.01498181 0.04112751 0.03848827
v -0.01532205 0.04084259 0.03848827
v -0.01513816 0.04084259 0.03678581
v -0.01303776 0.04212808 0.04190938
v -0.01303776 0.04197644 0.04019767
v -0.01303776 0.04177238 0.03848827
v -0.01303776 0.04159573 0.03724844
v -0.00961771 0.04146446 0.03641803
v -0.01132773 0.04177742 0.03848827
v -0.00538248 0.04176653 0.03848827
v -0.00538248 0.04145942 0.03645041
v -0.00538248 0.04287679 0.05217039
v -0.00790769 0.04287901 0.05217039
v -0.00961771 0.04288001 0.05217039
v -0.01303776 0.04223777 0.04361878
v -0.01132773 0.04275217 0.04874928
v -0.00961771 0.04283061 0.05045868
v -0.01132773 0.04265901 0.04703757
v -0.01132773 0.04253278 0.04533049
v -0.01132773 0.04238497 0.04361878
v -0.01132773 0.04220853 0.04190938
v -0.01132773 0.04200810 0.04019767
v -0.00961771 0.04200749 0.04019767
v -0.00790769 0.04200669 0.04019767
v -0.00538248 0.04200507 0.04019767
v -0.00538248 0.04285400 0.05135617
v -0.00538248 0.04282879 0.05045868
v -0.00619668 0.04282920 0.05045868
v -0.00790769 0.04283000 0.05045868
v -0.00961771 0.04275761 0.04874928
v -0.00538248 0.04275741 0.04874928
v -0.00619668 0.04265720 0.04703757
v -0.00538248 0.04259771 0.04622567
v -0.00538248 0.04253217 0.04533049
v -0.00619668 0.04253238 0.04533049
v -0.00790769 0.04238538 0.04361878
v -0.00961771 0.04220894 0.04190938
v -0.00790769 0.04220914 0.04190938
v -0.00538248 0.04220914 0.04190938
v -0.00538248 0.04279492 0.04964446
v -0.00538248 0.04265679 0.04703757
v -0.00538248 0.04246220 0.04451627
v -0.00619668 0.04238518 0.04361878
v -0.00538248 0.04230129 0.04280456
v -0.00538248 0.04238497 0.04361878
f 11 5 10
f 9 10 5
f 18 10 9
f 23 44 42
f 44 23 43
f 63 44 43
f 29 14 28
f 91 90 100
f 87 73 86
f 11 10 21
f 41 43 23
f 14 15 7
f 75 74 58
f 101 94 93
f 91 100 92
f 87 86 99
f 72 86 73
f 72 48 71
f 73 48 72
f 18 9 17
f 17 32 18
f 18 32 33
f 34 35 18
f 34 33 53
f 18 33 34
f 39 21 20
f 20 21 10
f 63 43 56
f 56 74 63
f 56 36 58
f 58 74 56
f 42 44 25
f 44 46 25
f 25 45 42
f 24 45 25
f 13 24 25
f 44 65 66
f 66 46 44
f 31 15 14
f 16 28 14
f 14 7 16
f 8 7 15
f 28 48 49
f 29 28 49
f 49 48 73
f 29 49 50
f 50 49 54
f 50 34 53
f 50 54 35
f 35 34 50
f 77 90 91
f 91 92 77
f 77 92 93
f 93 94 77
f 63 74 77
f 74 75 77
f 73 76 59
f 59 76 75
f 64 44 63
f 64 65 44
f 65 64 81
f 81 64 80
f 85 72 71
f 86 72 85
f 36 20 19
f 18 35 19
f 19 10 18
f 19 20 10
f 35 37 19
f 19 37 36
f 61 39 38
f 39 20 38
f 38 20 36
f 36 56 38
f 40 56 43
f 43 41 40
f 58 36 57
f 36 37 57
f 37 59 57
f 57 75 58
f 57 59 75
f 27 13 26
f 13 25 26
f 26 46 27
f 26 25 46
f 46 66 68
f 68 69 46
f 68 66 65
f 84 69 68
f 65 81 68
f 7 8 3
f 29 50 30
f 30 14 29
f 52 31 30
f 30 31 14
f 88 73 87
f 88 76 73
f 87 99 88
f 88 99 90
f 90 76 88
f 89 76 90
f 75 76 89
f 90 77 89
f 89 77 75
f 55 49 73
f 73 59 55
f 54 49 55
f 55 59 37
f 35 54 55
f 55 37 35
f 78 77 94
f 94 95 78
f 63 77 78
f 103 98 95
f 98 81 97
f 95 98 97
f 61 38 60
f 60 38 56
f 60 62 61
f 60 40 62
f 56 40 60
f 22 40 41
f 22 23 12
f 22 41 23
f 27 46 47
f 84 68 83
f 83 98 84
f 1 3 4
f 4 3 8
f 52 30 51
f 51 50 53
f 51 30 50
f 79 78 95
f 80 64 79
f 79 64 63
f 63 78 79
f 104 103 102
f 102 103 95
f 102 101 104
f 94 101 102
f 102 95 94
f 96 81 80
f 96 97 81
f 80 79 96
f 95 97 96
f 96 79 95
f 70 47 67
f 67 47 46
f 69 70 67
f 46 69 67
f 82 68 81
f 82 83 68
f 82 81 98
f 98 83 82
f 6 12 45
f 12 23 45
f 45 23 42
f 45 13 6
f 45 24 13
f 22 6 2
f 22 5 11
f 2 5 22
f 22 12 6
f 11 21 22
f 22 39 61
f 22 21 39
f 61 62 22
f 62 40 22
f 2 6 47
f 1 2 47
f 71 48 47
f 6 13 47
f 84 98 47
f 47 13 27
f 90 99 47
f 47 101 93
f 47 103 104
f 28 16 47
f 47 100 90
f 93 92 47
f 47 85 71
f 47 48 28
f 104 101 47
f 47 92 100
f 47 99 86
f 47 69 84
f 47 16 7
f 47 3 1
f 86 85 47
f 47 70 69
f 7 3 47
f 98 103 47
f 51 5 2
f 51 2 1
f 51 31 52
f 51 9 5
f 1 4 51
f 51 17 9
f 53 33 51
f 32 17 51
f 51 33 32
f 15 31 51
f 51 8 15
f 51 4 8

