# https://github.com/mikedh/trimesh
v -0.00623535 0.01287257 0.07534466
v -0.00738305 0.01287257 0.07534466
v -0.00623535 -0.01063512 0.07534466
v -0.00623535 0.01287257 0.07074167
v -0.00738305 0.01287257 0.07074167
v -0.00738305 -0.01101614 0.07534466
v -0.00623535 -0.01115490 0.07447003
v -0.00623535 -0.01115490 0.07074167
v -0.00738305 -0.01115490 0.07074167
v -0.00738305 -0.01115490 0.07479807
v -0.00640072 -0.01115490 0.07454798
v -0.00637376 -0.01115490 0.07453537
f 3 6 7
f 6 10 11
f 7 6 12
f 6 11 12
f 1 4 5
f 2 1 5
f 8 5 4
f 9 5 8
f 3 4 1
f 7 8 3
f 3 8 4
f 3 1 2
f 2 6 3
f 2 5 10
f 10 6 2
f 10 5 9
f 12 8 7
f 9 8 12
f 12 10 9
f 12 11 10

