# https://github.com/mikedh/trimesh
v -0.00206021 0.00367431 0.04291088
v -0.00206021 0.00367431 0.03775974
v -0.00565769 0.00367431 0.04291088
v -0.00206021 -0.02785528 0.04291088
v -0.00565769 0.00327309 0.03747894
v -0.00565769 0.00367431 0.03764593
v -0.00206021 0.00276076 0.03747894
v -0.00565769 -0.02785528 0.04291088
v -0.00206021 -0.02785528 0.03747894
v -0.00565769 -0.02785528 0.03747894
f 5 6 2
f 2 7 5
f 8 4 1
f 8 1 3
f 3 1 2
f 2 6 3
f 10 8 3
f 3 6 10
f 10 6 5
f 1 4 9
f 9 2 1
f 7 2 9
f 4 8 9
f 8 10 9
f 9 10 5
f 5 7 9

