# https://github.com/mikedh/trimesh
v -0.00953395 -0.03352229 0.01689322
v -0.00953395 -0.02864354 0.01689147
v -0.00789859 -0.03352229 0.01765701
v -0.00953395 -0.03352229 0.02424832
v -0.00953395 -0.02773745 0.01689147
v -0.00789859 -0.02774651 0.01765614
v -0.00789859 -0.03352229 0.02424919
v -0.00862581 -0.03352229 0.02424919
v -0.00953395 -0.03146942 0.02580820
v -0.00789859 -0.02773745 0.01765614
v -0.00953395 -0.02773745 0.02580820
v -0.00789859 -0.03147112 0.02580820
v -0.00790724 -0.03147112 0.02580820
v -0.00789859 -0.02773745 0.02580820
f 2 3 1
f 3 2 6
f 9 4 8
f 8 13 9
f 1 4 11
f 11 2 1
f 5 2 11
f 11 4 9
f 11 10 5
f 14 10 11
f 6 2 5
f 5 10 6
f 8 4 1
f 3 7 8
f 1 3 8
f 12 10 14
f 12 7 3
f 3 6 12
f 12 6 10
f 12 11 9
f 14 11 12
f 9 13 12
f 12 8 7
f 13 8 12

