# https://github.com/mikedh/trimesh
v -0.00380785 -0.01096005 0.08058588
v -0.00380785 -0.01010812 0.07968473
v -0.00381046 -0.01010326 0.07968473
v -0.00433277 -0.01010326 0.07955968
v -0.00588307 -0.01010326 0.07904659
v -0.00623500 -0.01010326 0.07855721
v -0.00399914 -0.01096005 0.08031855
v -0.00380785 -0.01096005 0.05856370
v -0.00380785 -0.01010326 0.07816915
v -0.00623500 -0.01026319 0.07782853
v -0.00623500 -0.01010326 0.05856370
v -0.00623500 -0.01096005 0.07452789
v -0.00623500 -0.01096005 0.05856370
v -0.00380785 -0.01010326 0.05856370
f 6 1 5
f 7 1 6
f 1 3 4
f 4 5 1
f 2 3 1
f 12 7 10
f 10 7 6
f 3 2 9
f 1 7 13
f 13 8 1
f 13 7 12
f 6 11 13
f 13 10 6
f 12 10 13
f 13 11 14
f 13 14 8
f 9 4 3
f 6 5 9
f 9 11 6
f 5 4 9
f 14 11 9
f 1 8 9
f 8 14 9
f 9 2 1

