# https://github.com/mikedh/trimesh
v 0.01474530 -0.03094078 0.05856155
v 0.01604039 -0.03094078 0.05856155
v 0.01474530 -0.03094078 0.05940145
v 0.01474530 0.03388563 0.05856155
v 0.01775035 -0.03082021 0.05856155
v 0.01604039 -0.03094078 0.05940145
v 0.01474530 0.03388563 0.05940145
v 0.01792652 0.03388563 0.05856155
v 0.01775035 -0.03082021 0.05901274
v 0.01798779 -0.03075676 0.05856155
v 0.01775035 -0.03081387 0.05940145
v 0.01793605 0.03388563 0.05940145
v 0.01798779 0.03356835 0.05940145
v 0.01798779 0.03354932 0.05929342
v 0.01798779 0.03287668 0.05856155
v 0.01798779 -0.03075676 0.05901274
v 0.01798779 -0.03075041 0.05940145
f 15 8 14
f 14 8 13
f 13 8 12
f 11 16 17
f 9 16 11
f 9 11 6
f 7 4 1
f 1 3 7
f 4 7 12
f 12 8 4
f 5 2 1
f 1 4 5
f 4 8 5
f 5 15 10
f 5 8 15
f 10 15 16
f 16 14 13
f 13 17 16
f 15 14 16
f 16 5 10
f 9 5 16
f 6 17 13
f 6 7 3
f 13 12 6
f 6 12 7
f 6 11 17
f 1 2 6
f 6 3 1
f 2 5 6
f 6 5 9

