# https://github.com/mikedh/trimesh
v 0.00764254 0.03712554 0.08447277
v 0.00757653 0.03712554 0.08463113
v 0.00844336 0.03481547 0.08743330
v 0.00854548 0.03499265 0.08638180
v 0.00861149 0.03528730 0.08467072
v 0.00861398 0.03531041 0.08447277
v -0.00256011 0.03712554 0.08447277
v 0.00747814 0.03516308 0.08803903
v 0.00744950 0.03712554 0.08470477
v 0.00690275 0.03485398 0.08913962
v 0.00804233 0.03437733 0.08857270
v 0.00848197 0.03323626 0.08918713
v 0.00861274 0.03382076 0.08803903
v 0.00886307 0.03384098 0.08638180
v 0.00893282 0.03384098 0.08467072
v 0.00863142 0.03523242 0.08447277
v -0.00361749 0.03487709 0.08447277
v -0.00366108 0.03477213 0.08467072
v -0.00363866 0.03471532 0.08561296
v -0.00356891 0.03437348 0.08675315
v -0.00253769 0.03712554 0.08452582
v 0.00577687 0.03712554 0.08527486
v 0.00577687 0.03631090 0.08695822
v 0.00577687 0.03570329 0.08809208
v 0.00577687 0.03494354 0.08924889
v 0.00577687 0.03412119 0.09010403
v 0.00687535 0.03316404 0.09078894
v 0.00745946 0.03377069 0.08973347
v 0.00801493 0.03255932 0.09032732
v 0.00841596 0.03141920 0.09073430
v 0.00859530 0.03204607 0.08977544
v 0.00892161 0.03213081 0.08809208
v 0.00889794 0.03403164 0.08447277
v 0.00898139 0.03213081 0.08638180
v 0.00893655 0.03384098 0.08447277
v -0.00366232 0.03477791 0.08447277
v -0.00367229 0.03461421 0.08447277
v -0.00371588 0.03384098 0.08467072
v -0.00367976 0.03381883 0.08626223
v -0.00366730 0.03323337 0.08762017
v -0.00361001 0.03279812 0.08875956
v -0.00333602 0.03381883 0.08815067
v -0.00242311 0.03513034 0.08809208
v -0.00251901 0.03712554 0.08455749
v 0.00510682 0.03712554 0.08529070
v 0.00406563 0.03631957 0.08698356
v 0.00406563 0.03572255 0.08809208
v 0.00406563 0.03495413 0.08926156
v 0.00406563 0.03413371 0.09011670
v 0.00577687 0.03326611 0.09086495
v 0.00577687 0.03213081 0.09152531
v 0.00670348 0.02967918 0.09239787
v 0.00746195 0.03204607 0.09104311
v 0.00851061 0.03042064 0.09087208
v 0.00882695 0.03042064 0.08980157
v 0.00735982 0.03031761 0.09177393
v 0.00889919 0.02871047 0.08980157
v 0.00898014 0.03042064 0.08809208
v 0.00898263 0.02871047 0.08809208
v 0.00898014 0.03213081 0.08447277
v 0.00897516 0.03232917 0.08447277
v 0.00893904 0.03374854 0.08447277
v -0.00371712 0.03384098 0.08447277
v -0.00374079 0.03213081 0.08638180
v -0.00369595 0.03218955 0.08815067
v -0.00366730 0.03165897 0.08915625
v -0.00355770 0.03042064 0.09029961
v -0.00330737 0.03218955 0.08975644
v -0.00242934 0.03374468 0.08971684
v -0.00208186 0.03481354 0.08908974
v -0.00106433 0.03564455 0.08809208
v -0.00106433 0.03628201 0.08687350
v -0.00138566 0.03712554 0.08508008
v 0.00406563 0.03712554 0.08530179
v 0.00064566 0.03631957 0.08698356
v 0.00064566 0.03572255 0.08809208
v 0.00064566 0.03495413 0.08926156
v 0.00406563 0.03327863 0.09087524
v 0.00064566 0.03413371 0.09011670
v 0.00406563 0.03213081 0.09154431
v 0.00406563 0.03064693 0.09218171
v 0.00577687 0.03061900 0.09217300
v 0.00681432 0.02871047 0.09244775
v 0.00766994 0.02871047 0.09185707
v 0.00577687 0.02976392 0.09242162
v 0.00577687 0.02871047 0.09254435
v 0.00857911 0.02871047 0.09100114
v 0.00889421 0.02728919 0.08980157
v 0.00890915 0.02728919 0.08951177
v 0.00898139 0.02728919 0.08809208
v 0.00889421 0.02728919 0.08638180
v 0.00858409 0.02728919 0.08484017
v 0.00871860 0.03028487 0.08447277
v -0.00374079 0.03213081 0.08447277
v -0.00374079 0.03042064 0.08809208
v -0.00368474 0.03042064 0.08944447
v -0.00361998 0.02920542 0.09054031
v -0.00270209 0.03042064 0.09138041
v -0.00238699 0.03213081 0.09102568
v -0.00205819 0.03311107 0.09075093
v -0.00106433 0.03408171 0.09006603
v -0.00106433 0.03491272 0.08921089
v -0.00106433 0.03712554 0.08519648
v 0.00064566 0.03712554 0.08530179
v 0.00064566 0.03327863 0.09087524
v -0.00106433 0.03322663 0.09083645
v 0.00064566 0.03213081 0.09154431
v 0.00406563 0.02979185 0.09242954
v 0.00064566 0.03064693 0.09218171
v 0.00678941 0.02728919 0.09243746
v 0.00693513 0.02728919 0.09233690
v 0.00764503 0.02728919 0.09184678
v 0.00857413 0.02728919 0.09099164
v 0.00406563 0.02871047 0.09256019
v 0.00406563 0.02728919 0.09253960
v 0.00577687 0.02728919 0.09252297
v 0.00862893 0.02728919 0.09078815
v 0.00871362 0.03025020 0.08447277
v 0.00839229 0.02728919 0.08469448
v -0.00374079 0.02728919 0.08809208
v -0.00369595 0.03048901 0.08447277
v -0.00369595 0.02728919 0.08633666
v -0.00367727 0.02866521 0.08990292
v -0.00363617 0.02806531 0.09066858
v -0.00280795 0.02879521 0.09151660
v -0.00187885 0.02952511 0.09236382
v -0.00106433 0.03213081 0.09146988
v 0.00064566 0.02979185 0.09242954
v -0.00121130 0.03033975 0.09218804
v -0.00073803 0.02971577 0.09240895
v 0.00064566 0.02871047 0.09256019
v 0.00064566 0.02728919 0.09253960
v 0.00846328 0.02910335 0.08447277
v 0.00749807 0.02728919 0.08447277
v -0.00372958 0.02728919 0.08840801
v -0.00363617 0.02728919 0.08609121
v -0.00283659 0.02878847 0.08447277
v -0.00295367 0.02728919 0.08472298
v -0.00314173 0.02728919 0.08500803
v -0.00324634 0.02728919 0.08519489
v -0.00367727 0.02728919 0.08987045
v -0.00363617 0.02771384 0.09066858
v -0.00199717 0.02838500 0.09241054
v -0.00121130 0.02885684 0.09247071
v -0.00073678 0.02728919 0.09248022
v -0.00127979 0.02728919 0.08447277
v -0.00366357 0.02728919 0.09012620
v -0.00312678 0.02728919 0.09118167
v -0.00199717 0.02746925 0.09241054
v -0.00168581 0.02728919 0.09242796
v -0.00110294 0.02728919 0.09246200
v -0.00231974 0.02728919 0.09204869
f 59 60 34
f 64 63 94
f 43 42 70
f 91 92 60
f 120 94 122
f 84 52 83
f 134 133 119
f 92 119 118
f 118 119 133
f 3 8 11
f 121 122 94
f 59 34 58
f 52 84 56
f 30 29 27
f 40 19 39
f 23 9 22
f 24 9 23
f 60 92 93
f 92 118 93
f 90 60 59
f 90 91 60
f 57 55 87
f 87 88 57
f 59 58 57
f 57 90 59
f 113 84 112
f 87 84 113
f 62 35 34
f 1 3 4
f 126 130 129
f 70 100 101
f 101 100 106
f 131 145 132
f 20 19 40
f 40 41 20
f 20 41 42
f 7 19 20
f 42 43 20
f 106 100 127
f 127 107 106
f 127 126 129
f 100 126 127
f 69 41 68
f 68 100 69
f 69 100 70
f 70 42 69
f 42 41 69
f 137 146 138
f 138 121 137
f 30 56 54
f 54 56 84
f 54 84 87
f 54 55 30
f 87 55 54
f 51 27 50
f 51 82 52
f 52 27 51
f 81 82 51
f 52 56 53
f 53 27 52
f 53 56 30
f 30 27 53
f 24 25 10
f 11 8 10
f 10 9 24
f 26 49 50
f 25 49 26
f 50 27 26
f 26 10 25
f 27 10 26
f 48 49 25
f 50 49 78
f 38 63 64
f 64 39 38
f 2 3 1
f 8 3 2
f 2 10 8
f 9 10 2
f 47 25 24
f 47 48 25
f 71 76 75
f 46 23 22
f 24 23 46
f 46 47 24
f 104 103 75
f 89 57 88
f 90 57 89
f 117 88 87
f 87 113 117
f 61 34 60
f 61 62 34
f 5 6 1
f 1 4 5
f 32 58 34
f 55 57 32
f 32 57 58
f 85 82 81
f 81 108 85
f 52 82 85
f 85 108 114
f 70 101 102
f 102 71 70
f 77 76 102
f 76 71 102
f 77 102 79
f 79 102 101
f 79 101 106
f 129 130 109
f 109 127 129
f 107 127 109
f 142 147 148
f 148 149 142
f 68 41 67
f 97 98 67
f 144 126 143
f 143 149 144
f 130 126 144
f 144 131 130
f 144 149 150
f 145 131 144
f 130 131 128
f 128 109 130
f 83 52 86
f 86 85 114
f 52 85 86
f 115 86 114
f 116 86 115
f 83 86 110
f 110 86 116
f 139 121 138
f 139 140 121
f 122 121 136
f 121 140 136
f 11 10 28
f 28 10 27
f 28 29 11
f 28 27 29
f 81 51 80
f 80 51 50
f 50 78 80
f 63 38 37
f 18 38 39
f 18 39 19
f 36 37 18
f 18 37 38
f 18 17 36
f 7 17 18
f 18 19 7
f 70 71 44
f 44 43 70
f 74 46 45
f 45 46 22
f 34 35 15
f 15 32 34
f 30 55 31
f 55 32 31
f 99 126 100
f 99 98 126
f 99 100 68
f 68 67 99
f 99 67 98
f 125 98 97
f 143 126 125
f 126 98 125
f 105 79 106
f 106 107 105
f 123 95 120
f 64 95 65
f 65 39 64
f 40 39 65
f 150 149 152
f 149 148 152
f 151 144 150
f 145 144 151
f 112 84 111
f 111 84 83
f 83 110 111
f 72 44 71
f 75 103 72
f 72 71 75
f 43 44 21
f 7 20 21
f 21 20 43
f 33 15 35
f 14 5 4
f 14 15 5
f 32 15 14
f 14 4 3
f 30 31 12
f 12 3 11
f 12 29 30
f 11 29 12
f 135 123 120
f 141 147 142
f 142 123 141
f 123 135 141
f 124 123 142
f 124 125 97
f 143 125 124
f 66 41 40
f 40 65 66
f 66 67 41
f 97 67 66
f 66 65 95
f 73 72 103
f 44 72 73
f 15 33 16
f 6 5 16
f 5 15 16
f 32 14 13
f 13 31 32
f 13 12 31
f 13 14 3
f 3 12 13
f 123 124 96
f 95 123 96
f 96 66 95
f 96 124 97
f 97 66 96
f 77 48 47
f 47 76 77
f 76 47 46
f 75 76 46
f 75 46 104
f 104 46 74
f 79 48 77
f 49 48 79
f 95 94 120
f 64 94 95
f 128 131 114
f 114 108 128
f 128 108 81
f 81 109 128
f 114 131 115
f 115 131 132
f 80 109 81
f 107 109 80
f 49 79 105
f 105 78 49
f 107 80 105
f 105 80 78
f 134 119 141
f 141 146 134
f 120 122 141
f 141 113 112
f 92 91 141
f 91 90 141
f 141 115 132
f 138 146 141
f 141 119 92
f 150 152 141
f 112 111 141
f 141 151 150
f 141 89 88
f 88 117 141
f 132 145 141
f 122 136 141
f 141 139 138
f 90 89 141
f 141 117 113
f 141 148 147
f 116 115 141
f 141 110 116
f 140 139 141
f 141 136 140
f 141 152 148
f 145 151 141
f 141 111 110
f 141 135 120
f 142 149 124
f 124 149 143
f 1 7 73
f 73 104 74
f 74 45 73
f 22 9 73
f 73 2 1
f 9 2 73
f 103 104 73
f 7 21 73
f 73 45 22
f 73 21 44
f 16 7 1
f 16 133 134
f 1 6 16
f 16 121 94
f 16 94 63
f 134 146 16
f 16 61 60
f 60 93 16
f 16 118 133
f 63 37 16
f 16 17 7
f 146 137 16
f 16 93 118
f 35 62 16
f 16 137 121
f 36 17 16
f 62 61 16
f 16 37 36
f 16 33 35

