# https://github.com/mikedh/trimesh
v -0.00953498 -0.02619965 0.02580820
v -0.01846876 -0.02619965 0.02580820
v -0.00953498 -0.03003477 0.02580820
v -0.00953498 -0.02619965 0.01607595
v -0.01846963 -0.02619965 0.02504831
v -0.01812125 -0.02773768 0.02580820
v -0.01711548 -0.03003477 0.02580820
v -0.00953498 -0.03003477 0.01689298
v -0.00968029 -0.02619965 0.01556768
v -0.01847138 -0.02619965 0.02309143
v -0.01790329 -0.02844381 0.02580820
v -0.01847664 -0.02619965 0.01625038
v -0.01812125 -0.02773768 0.02480169
v -0.01766344 -0.02944801 0.02138116
v -0.01766169 -0.02944801 0.02309143
v -0.01748750 -0.03003477 0.02309143
v -0.01759516 -0.02929185 0.02580820
v -0.01743323 -0.03003477 0.02435157
v -0.01046723 -0.03003477 0.01556768
v -0.01847401 -0.02619965 0.01556768
v -0.01745686 -0.03003477 0.02382125
v -0.01810724 -0.02773768 0.01625038
v -0.01811774 -0.02773768 0.02138116
v -0.01765031 -0.02944801 0.01796064
v -0.01749625 -0.03003477 0.02138116
v -0.01749537 -0.03003477 0.02212301
v -0.01737370 -0.03003477 0.01556768
v -0.01809499 -0.02773768 0.01556768
v -0.01747874 -0.03003477 0.01796064
v -0.01756453 -0.02946753 0.01556768
v -0.01744285 -0.03003477 0.01648697
v -0.01756278 -0.02959330 0.01619224
v -0.01746036 -0.03003477 0.01719173
f 9 4 8
f 8 19 9
f 12 6 10
f 12 20 22
f 20 28 22
f 5 6 2
f 5 10 6
f 15 14 25
f 6 14 15
f 24 29 25
f 25 14 24
f 14 22 24
f 28 29 24
f 24 22 28
f 12 22 23
f 23 22 14
f 17 18 7
f 27 31 30
f 33 29 28
f 28 31 33
f 6 15 16
f 13 6 12
f 12 23 13
f 13 14 6
f 13 23 14
f 18 17 11
f 6 16 11
f 28 30 32
f 32 31 28
f 32 30 31
f 26 15 25
f 26 16 15
f 18 11 21
f 21 11 16
f 8 4 1
f 1 3 8
f 5 20 12
f 1 4 5
f 5 2 1
f 5 4 9
f 9 20 5
f 12 10 5
f 30 20 9
f 9 19 30
f 30 19 27
f 30 28 20
f 1 2 11
f 11 3 1
f 2 6 11
f 11 7 3
f 11 17 7
f 27 19 21
f 21 8 3
f 3 7 21
f 19 8 21
f 29 33 21
f 25 29 21
f 7 18 21
f 21 31 27
f 21 33 31
f 21 26 25
f 16 26 21

