# https://github.com/mikedh/trimesh
v 0.00856959 0.03621120 0.08041963
v 0.00855559 0.03621120 0.08085018
v 0.00880367 0.03603982 0.08041963
v -0.00330267 0.03621120 0.08041963
v 0.00855432 0.03621120 0.08087040
v 0.00882784 0.03602160 0.08041963
v -0.00368052 0.03482275 0.08041963
v -0.00331921 0.03621120 0.08189564
v 0.00835967 0.03621120 0.08295981
v 0.00886983 0.03593963 0.08041963
v -0.00367797 0.03482110 0.08295981
v -0.00331921 0.03621120 0.08193728
v -0.00371996 0.03434669 0.08041963
v 0.00826934 0.03621120 0.08345583
v 0.00862429 0.03542300 0.08350200
v 0.00902758 0.03562833 0.08041963
v -0.00367289 0.03480619 0.08350200
v -0.00331158 0.03621120 0.08301834
v -0.00373395 0.03384083 0.08295981
v -0.00374795 0.03384083 0.08041963
v 0.00826044 0.03621120 0.08350200
v 0.00872607 0.03496433 0.08350200
v 0.00918152 0.03526570 0.08041963
v -0.00340954 0.03538989 0.08350200
v -0.00372759 0.03384083 0.08350200
v -0.00323016 0.03621120 0.08315955
v -0.00378738 0.03301041 0.08041963
v -0.00303169 0.03621120 0.08350200
v 0.00895379 0.03384083 0.08350200
v 0.00918152 0.03383503 0.08223930
v 0.00918152 0.02775386 0.08041963
v -0.00381537 0.03130073 0.08041963
v -0.00374031 0.03213032 0.08350200
v 0.00896779 0.03329853 0.08350200
v 0.00918152 0.03213032 0.08251417
v 0.00918152 0.02775386 0.08172638
v -0.00378738 0.02775386 0.08041963
v -0.00381283 0.02959022 0.08041963
v -0.00369324 0.03048853 0.08350200
v 0.00899705 0.03213032 0.08350200
v 0.00918152 0.03034529 0.08229421
v 0.00890418 0.03146963 0.08350200
v 0.00872861 0.03025008 0.08350200
v 0.00851870 0.02987834 0.08350200
v 0.00811159 0.02922179 0.08350200
v 0.00771339 0.02872751 0.08350200
v 0.00766886 0.02775386 0.08289433
v -0.00369451 0.02775386 0.08117694
v -0.00279124 0.02775386 0.08284304
v -0.00277343 0.02884342 0.08350200
v 0.00577581 0.02856606 0.08350200
v 0.00577581 0.02775386 0.08309256
v 0.00648825 0.02775386 0.08306028
v -0.00191978 0.02775386 0.08299179
v -0.00106486 0.02775386 0.08308804
v -0.00106486 0.02857103 0.08350200
v 0.00406596 0.02775386 0.08309317
v 0.00064627 0.02856606 0.08350200
v -0.00039440 0.02775386 0.08309015
v 0.00064627 0.02775386 0.08309317
v -0.00053689 0.02856938 0.08350200
f 38 33 32
f 37 33 38
f 39 33 37
f 22 29 30
f 22 30 23
f 23 15 22
f 35 34 40
f 29 34 35
f 30 29 35
f 46 53 47
f 47 36 46
f 50 39 49
f 16 15 23
f 16 9 15
f 9 6 5
f 25 27 32
f 32 33 25
f 40 36 41
f 41 35 40
f 46 36 45
f 42 36 40
f 42 43 36
f 46 51 52
f 52 53 46
f 48 39 37
f 48 49 39
f 10 6 9
f 9 16 10
f 14 21 15
f 15 9 14
f 24 18 17
f 4 7 8
f 7 13 11
f 17 18 11
f 27 25 19
f 19 11 13
f 19 25 17
f 17 11 19
f 36 43 44
f 44 45 36
f 2 3 1
f 6 3 2
f 2 5 6
f 26 24 28
f 18 24 26
f 12 8 7
f 7 11 12
f 12 11 18
f 27 19 20
f 20 19 13
f 57 52 51
f 55 56 50
f 60 58 61
f 56 60 61
f 59 60 56
f 56 55 59
f 50 49 54
f 54 55 50
f 41 31 23
f 23 30 41
f 41 36 31
f 30 35 41
f 12 1 4
f 28 21 12
f 4 8 12
f 9 5 12
f 12 14 9
f 12 2 1
f 21 14 12
f 12 26 28
f 5 2 12
f 18 26 12
f 23 31 20
f 20 38 32
f 32 27 20
f 31 37 20
f 4 1 20
f 20 7 4
f 6 10 20
f 20 16 23
f 37 38 20
f 20 13 7
f 1 3 20
f 20 10 16
f 20 3 6
f 51 58 57
f 57 58 60
f 61 39 50
f 50 56 61
f 61 51 46
f 40 34 61
f 15 21 61
f 61 22 15
f 17 25 61
f 61 42 40
f 33 39 61
f 29 22 61
f 61 34 29
f 46 45 61
f 61 44 43
f 61 21 28
f 61 25 33
f 61 24 17
f 43 42 61
f 28 24 61
f 45 44 61
f 61 58 51
f 54 37 31
f 31 36 54
f 54 47 53
f 36 47 54
f 53 52 54
f 54 48 37
f 49 48 54
f 52 57 54
f 54 57 60
f 60 59 54
f 54 59 55

