# https://github.com/mikedh/trimesh
v -0.00448682 -0.03102037 0.02761357
v 0.00235522 -0.03102037 0.02761357
v -0.00448574 -0.03093782 0.03201989
v -0.00448682 -0.03093782 0.03201946
v -0.00448682 0.00018917 0.02761357
v 0.00406626 -0.03094699 0.02761357
v 0.00235522 -0.03093782 0.03201989
v -0.00448682 0.00020752 0.03201989
v 0.00651385 0.00018917 0.02761357
v 0.00539289 -0.03062903 0.02761357
v 0.00406626 -0.03085527 0.03201989
v 0.00651385 0.00020752 0.03201989
v 0.00651385 -0.02797218 0.02761357
v 0.00575039 -0.02996252 0.02761357
v 0.00514199 -0.03053730 0.03201989
v 0.00651385 -0.02764810 0.03201989
v 0.00596144 -0.02944583 0.02761357
f 1 3 4
f 4 3 8
f 13 16 17
f 17 16 14
f 10 14 15
f 14 16 15
f 11 6 10
f 10 15 11
f 2 6 7
f 6 11 7
f 4 5 1
f 8 5 4
f 9 5 12
f 12 5 8
f 16 13 9
f 9 12 16
f 9 13 17
f 1 5 17
f 17 5 9
f 17 2 1
f 10 6 17
f 17 14 10
f 17 6 2
f 7 12 8
f 8 3 7
f 7 16 12
f 7 15 16
f 7 11 15
f 1 2 7
f 7 3 1

