# https://github.com/mikedh/trimesh
v -0.00725982 0.03162344 0.05856155
v -0.01813154 0.03162344 0.05856155
v -0.00725982 0.02772121 0.05856155
v -0.00725982 0.03162344 0.03652138
v -0.01826122 0.03162344 0.05730119
v -0.01836320 0.02772121 0.05631215
v -0.01818694 0.02772121 0.05802386
v -0.01813154 0.02772121 0.05856155
v -0.00725982 0.02772121 0.03688395
v -0.00725982 0.03041973 0.03653618
v -0.00766019 0.02772121 0.03336433
v -0.00766019 0.03162344 0.03336433
v -0.01843623 0.03162344 0.05558948
v -0.01843623 0.02772121 0.05558948
v -0.00725982 0.02870985 0.03660770
v -0.02012081 0.02772121 0.03336433
v -0.01990300 0.03162344 0.03336433
v -0.01848659 0.03162344 0.05508386
v -0.01860746 0.03041973 0.05388023
v -0.01853569 0.02772121 0.05460290
v -0.02012207 0.02870985 0.03336433
v -0.02008933 0.02772121 0.03506618
v -0.02008556 0.03041973 0.03336433
v -0.01990048 0.03162344 0.03456302
v -0.01860620 0.03162344 0.05388023
v -0.01870314 0.02772121 0.05289119
v -0.01860746 0.02772121 0.05388023
v -0.01882149 0.03162344 0.05166290
v -0.01902294 0.03162344 0.04957875
v -0.01902294 0.02772121 0.04958122
v -0.02008933 0.02870985 0.03506618
v -0.02006164 0.03041973 0.03506618
v -0.02003268 0.02772121 0.03677789
v -0.01988663 0.03162344 0.03626980
v -0.01904560 0.03162344 0.04932470
v -0.01909974 0.02870985 0.04872536
v -0.01909974 0.02772121 0.04872536
v -0.02003268 0.02870985 0.03677789
v -0.02001757 0.03041973 0.03677789
v -0.01985264 0.03162344 0.03798151
v -0.01999491 0.02772121 0.03750056
v -0.01924704 0.03162344 0.04703831
v -0.01954669 0.03041973 0.04361981
v -0.01918409 0.02772121 0.04775111
v -0.01994329 0.02870985 0.03848714
v -0.01993825 0.03041973 0.03848714
v -0.01978843 0.03162344 0.03969076
v -0.01994329 0.02772121 0.03848714
v -0.01944093 0.03162344 0.04482344
v -0.01969274 0.03041973 0.04190810
v -0.01968770 0.02870985 0.04190810
v -0.01968393 0.02772121 0.04190810
v -0.01982368 0.03041973 0.04019885
v -0.01969652 0.03162344 0.04140248
v -0.01982242 0.02772121 0.04019885
v -0.01957943 0.03162344 0.04311172
v -0.01976450 0.02772121 0.04092152
f 11 12 4
f 15 9 11
f 21 16 22
f 11 4 10
f 10 15 11
f 53 48 55
f 50 53 55
f 56 53 50
f 45 53 46
f 48 53 45
f 45 41 48
f 46 39 38
f 38 45 46
f 33 41 38
f 41 45 38
f 31 38 39
f 21 22 31
f 47 39 46
f 47 40 39
f 7 8 2
f 2 6 7
f 19 26 27
f 30 26 19
f 19 29 30
f 57 50 55
f 56 50 49
f 29 35 36
f 30 29 36
f 32 23 21
f 21 31 32
f 32 31 39
f 39 40 32
f 40 34 32
f 32 34 23
f 17 23 24
f 23 34 24
f 54 47 46
f 54 53 56
f 46 53 54
f 29 19 28
f 28 19 25
f 20 19 27
f 5 6 2
f 51 57 52
f 50 57 51
f 52 44 51
f 43 49 50
f 50 51 43
f 43 51 44
f 30 36 37
f 37 43 44
f 36 43 37
f 42 36 35
f 49 43 42
f 42 43 36
f 19 20 13
f 6 5 13
f 6 13 14
f 14 13 20
f 25 19 18
f 19 13 18
f 1 2 8
f 8 3 1
f 10 4 1
f 3 9 10
f 1 3 10
f 9 15 10
f 23 12 11
f 23 16 21
f 11 16 23
f 23 17 12
f 31 22 33
f 33 38 31
f 14 16 11
f 3 8 14
f 14 9 3
f 11 9 14
f 14 26 30
f 14 22 16
f 33 22 14
f 55 48 14
f 14 41 33
f 8 7 14
f 48 41 14
f 14 20 27
f 27 26 14
f 14 57 55
f 14 7 6
f 52 57 14
f 14 44 52
f 30 37 14
f 14 37 44
f 1 4 18
f 18 2 1
f 18 4 12
f 12 17 18
f 17 24 18
f 29 28 18
f 56 49 18
f 18 54 56
f 18 35 29
f 18 34 40
f 40 47 18
f 18 5 2
f 18 24 34
f 47 54 18
f 18 28 25
f 18 42 35
f 49 42 18
f 18 13 5

