# https://github.com/mikedh/trimesh
v 0.00406517 0.01398992 0.08638113
v 0.00406517 0.01398992 0.08466954
v 0.00064661 0.01398992 0.08638113
v 0.00406517 0.01398034 0.08771517
v 0.00577572 0.01396205 0.08809160
v 0.00577700 0.01397424 0.08638113
v 0.00577700 0.01397511 0.08467104
v 0.00064661 0.01398992 0.08466954
v 0.00577700 0.01397511 0.08466954
v -0.00106394 0.01392113 0.08467104
v -0.00106394 0.01392026 0.08638113
v -0.00068637 0.01392635 0.08771517
v 0.00064661 0.01398034 0.08771517
v 0.00406517 0.01397686 0.08809160
v 0.00535988 0.01393593 0.08850748
v 0.00577572 0.01393158 0.08850748
v 0.00748627 0.01338652 0.08850748
v 0.00748627 0.01341439 0.08809160
v 0.00748627 0.01350145 0.08467104
v 0.00577700 0.01396466 0.08771479
v 0.00406517 0.01394725 0.08850748
v -0.00106394 0.01392113 0.08466954
v 0.00748627 0.01350145 0.08466954
v -0.00272474 0.01315492 0.08466954
v -0.00271964 0.01315405 0.08638113
v -0.00271582 0.01314969 0.08771517
v -0.00271454 0.01314795 0.08809160
v -0.00106394 0.01390807 0.08809160
v 0.00064661 0.01397686 0.08809160
v 0.00851822 0.01265775 0.08850748
v 0.00901825 0.01279445 0.08466954
v 0.00750158 0.01349449 0.08466954
v 0.00064661 0.01394725 0.08850748
v -0.00357938 0.01208657 0.08466954
v -0.00357938 0.01208657 0.08467104
v -0.00270561 0.01313315 0.08850748
v -0.00290460 0.01291112 0.08771479
v -0.00357173 0.01205871 0.08771479
v -0.00356918 0.01205523 0.08809160
v -0.00145554 0.01370868 0.08850748
v -0.00106394 0.01387847 0.08850748
v 0.00023077 0.01393071 0.08850748
v 0.00859475 0.01241134 0.08850748
v 0.00918152 0.01148492 0.08677372
v 0.00918152 0.01261509 0.08466954
v 0.00907947 0.01275092 0.08466954
v -0.00369036 0.01122981 0.08466954
v -0.00369036 0.01123155 0.08467104
v -0.00368526 0.01120021 0.08809160
v -0.00357556 0.01207351 0.08638113
v -0.00335233 0.01230599 0.08850748
v -0.00368526 0.01118192 0.08850748
v -0.00359724 0.01182885 0.08850748
v -0.00356025 0.01203694 0.08850748
v 0.00884094 0.01160334 0.08850748
v 0.00918152 0.00989329 0.08757805
v 0.00888303 0.01118802 0.08850748
v 0.00918152 0.00509576 0.08466954
v -0.00378475 0.00989155 0.08466954
v -0.00378475 0.00989329 0.08467104
v -0.00373883 0.00989329 0.08850748
v 0.00918152 0.00818412 0.08760923
v 0.00899656 0.00989329 0.08850748
v 0.00918152 0.00509576 0.08689657
v -0.00262780 0.00509576 0.08466954
v -0.00383450 0.00818324 0.08466954
v -0.00384981 0.00647233 0.08466954
v -0.00373883 0.00860031 0.08850748
v 0.00899273 0.00947971 0.08850748
v 0.00897870 0.00818412 0.08850748
v 0.00891237 0.00779230 0.08850748
v 0.00863557 0.00651760 0.08850748
v 0.00851694 0.00509576 0.08755664
v -0.00384853 0.00509576 0.08467067
v -0.00373756 0.00818412 0.08850748
v 0.00822866 0.00509576 0.08771517
v 0.00764700 0.00614059 0.08850748
v 0.00620687 0.00509576 0.08833279
v 0.00748627 0.00509576 0.08808784
v 0.00770057 0.00509576 0.08800444
v -0.00382047 0.00509576 0.08497685
v -0.00368398 0.00704089 0.08850748
v 0.00748627 0.00608226 0.08850748
v 0.00577572 0.00509576 0.08836697
v -0.00368781 0.00509576 0.08595700
v -0.00341866 0.00509576 0.08675719
v -0.00329238 0.00509576 0.08701040
v -0.00270816 0.00509576 0.08771517
v -0.00261760 0.00509576 0.08782261
v -0.00280128 0.00628948 0.08850748
v 0.00590966 0.00601086 0.08850748
v 0.00577572 0.00600563 0.08850748
v 0.00452310 0.00509576 0.08836923
v -0.00106394 0.00509576 0.08834481
v -0.00106394 0.00600651 0.08850748
v 0.00406517 0.00600215 0.08850748
v 0.00406517 0.00509576 0.08836960
v 0.00064661 0.00509576 0.08836960
v -0.00090067 0.00600563 0.08850748
v 0.00064661 0.00600215 0.08850748
f 65 74 67
f 64 71 72
f 44 45 30
f 67 74 68
f 68 61 67
f 56 63 62
f 70 64 62
f 71 64 70
f 73 64 72
f 78 79 72
f 84 78 83
f 67 61 66
f 94 98 95
f 95 98 99
f 62 63 69
f 69 70 62
f 72 79 80
f 77 78 72
f 77 83 78
f 59 66 60
f 60 66 61
f 42 33 29
f 42 28 41
f 29 28 42
f 44 30 43
f 43 55 44
f 57 56 44
f 44 55 57
f 63 56 57
f 34 47 48
f 36 28 27
f 52 60 61
f 76 73 72
f 72 80 76
f 84 83 91
f 91 92 84
f 6 1 5
f 14 21 5
f 17 5 16
f 16 5 15
f 5 21 15
f 24 25 11
f 11 28 12
f 27 28 11
f 12 3 11
f 41 28 40
f 28 36 40
f 48 60 49
f 60 52 49
f 38 49 52
f 27 37 38
f 75 68 74
f 74 82 75
f 92 97 93
f 84 92 93
f 99 98 100
f 7 6 19
f 1 6 7
f 5 19 20
f 20 6 5
f 19 6 20
f 5 1 4
f 4 14 5
f 13 3 12
f 13 28 29
f 12 28 13
f 31 17 30
f 18 19 5
f 5 17 18
f 17 31 18
f 22 24 10
f 24 11 10
f 10 11 3
f 27 11 26
f 26 11 25
f 35 34 48
f 48 49 35
f 35 37 27
f 27 26 35
f 35 26 25
f 24 34 35
f 35 25 24
f 53 38 52
f 90 89 94
f 82 89 90
f 94 95 90
f 88 82 87
f 88 89 82
f 81 82 74
f 81 85 82
f 87 82 86
f 82 85 86
f 96 97 92
f 32 23 19
f 19 18 32
f 32 18 31
f 46 30 45
f 46 31 30
f 50 38 37
f 37 35 50
f 49 38 50
f 50 35 49
f 39 53 54
f 38 53 39
f 54 51 39
f 27 38 39
f 39 51 36
f 39 36 27
f 58 45 56
f 56 45 44
f 56 64 58
f 62 64 56
f 47 59 60
f 48 47 60
f 33 21 14
f 29 33 14
f 2 8 3
f 3 1 2
f 7 23 9
f 19 23 7
f 7 9 2
f 2 1 7
f 29 14 13
f 14 4 13
f 1 3 13
f 13 4 1
f 10 8 22
f 10 3 8
f 86 65 58
f 74 65 86
f 86 98 94
f 58 64 86
f 79 78 86
f 86 88 87
f 64 73 86
f 86 78 84
f 73 76 86
f 94 89 86
f 86 80 79
f 86 76 80
f 86 97 98
f 84 93 86
f 86 81 74
f 86 93 97
f 89 88 86
f 85 81 86
f 68 75 96
f 96 43 30
f 96 95 99
f 96 91 83
f 72 71 96
f 63 57 96
f 96 77 72
f 61 68 96
f 71 70 96
f 96 69 63
f 96 42 41
f 96 17 16
f 96 51 54
f 96 52 61
f 70 69 96
f 41 40 96
f 83 77 96
f 33 42 96
f 96 21 33
f 55 43 96
f 96 57 55
f 16 15 96
f 99 100 96
f 54 53 96
f 92 91 96
f 30 17 96
f 96 15 21
f 36 51 96
f 96 40 36
f 96 75 82
f 96 90 95
f 96 53 52
f 82 90 96
f 98 97 96
f 96 100 98
f 46 65 67
f 46 45 58
f 2 9 46
f 58 65 46
f 67 66 46
f 46 8 2
f 46 59 47
f 47 34 46
f 46 66 59
f 22 8 46
f 46 24 22
f 46 34 24
f 9 23 46
f 23 32 46
f 46 32 31

