# https://github.com/mikedh/trimesh
v 0.01846813 0.03863109 0.07098698
v 0.02008511 0.03591478 0.07098698
v 0.02008492 0.03591478 0.07098611
v 0.01843619 0.03674796 0.06805544
v 0.01843619 0.03745922 0.06922748
v 0.01846813 -0.03026563 0.07098698
v 0.02036818 0.03505450 0.07098698
v 0.02036798 0.03506128 0.07098611
v 0.02031693 0.03469549 0.07012861
v 0.01985310 0.03382844 0.06805544
v 0.01843619 -0.03055013 0.06805544
v 0.01843619 -0.03055690 0.06922748
v 0.01846813 -0.03057045 0.07098611
v 0.01884128 -0.03045529 0.07098698
v 0.02043382 0.03383521 0.07098698
v 0.02033073 0.03383521 0.06994322
v 0.02020575 0.03212820 0.06805544
v 0.01879988 -0.03043497 0.06805544
v 0.01877879 -0.03045529 0.06922748
v 0.01884128 -0.03045529 0.07098611
v 0.01981427 -0.02930374 0.07098698
v 0.02044762 0.03212820 0.07098698
v 0.02024833 0.03041442 0.06805544
v 0.01956274 -0.02944599 0.06805544
v 0.01982689 -0.02928342 0.07098698
v 0.02044802 0.02528663 0.07098698
v 0.02044900 0.00646213 0.07098698
v 0.02025089 -0.02601843 0.06805544
v 0.02019412 -0.02772544 0.06805544
v 0.02032048 -0.02847733 0.07098698
v 0.02044920 0.00134111 0.07098698
v 0.02044959 -0.01062827 0.07098698
v 0.02044979 -0.01746984 0.07098698
v 0.02044979 -0.02089063 0.07098611
v 0.02044979 -0.02431142 0.07098611
v 0.02044979 -0.02602520 0.07098698
v 0.02023828 -0.02649937 0.06805544
v 0.02038809 -0.02772544 0.07098698
f 5 1 4
f 4 1 3
f 12 11 13
f 13 6 12
f 13 11 20
f 29 30 24
f 2 3 1
f 22 23 15
f 15 23 17
f 38 30 29
f 29 36 38
f 14 6 13
f 13 20 14
f 9 17 10
f 3 2 9
f 9 10 4
f 4 3 9
f 37 36 29
f 37 28 36
f 36 28 35
f 27 28 23
f 21 14 20
f 21 18 24
f 20 18 21
f 11 18 19
f 19 20 11
f 19 18 20
f 15 9 8
f 8 9 2
f 15 17 16
f 16 9 15
f 17 9 16
f 34 28 33
f 34 35 28
f 33 28 32
f 23 22 26
f 26 27 23
f 25 24 30
f 25 21 24
f 15 8 7
f 7 8 2
f 28 27 31
f 31 32 28
f 4 11 12
f 12 5 4
f 12 6 1
f 1 5 12
f 10 17 37
f 37 11 4
f 4 10 37
f 29 24 37
f 37 18 11
f 37 17 23
f 23 28 37
f 24 18 37
f 33 36 34
f 36 35 34
f 31 36 33
f 31 2 1
f 1 6 31
f 30 38 31
f 31 26 22
f 31 25 30
f 31 22 15
f 31 38 36
f 6 14 31
f 33 32 31
f 14 21 31
f 15 7 31
f 27 26 31
f 21 25 31
f 31 7 2

