# https://github.com/mikedh/trimesh
v -0.00623535 0.03602762 0.07534519
v -0.00623535 0.03602762 0.05856155
v -0.00738305 0.03602762 0.07534519
v -0.00623535 0.01287257 0.07534519
v -0.00737991 0.03602762 0.05856155
v -0.00623535 0.01287257 0.05856155
v -0.00738305 0.03602762 0.05861084
v -0.00738305 0.01287257 0.07534519
v -0.00738305 0.03602535 0.05856155
v -0.00738305 0.01287257 0.05856155
f 7 5 9
f 8 4 1
f 8 1 3
f 1 4 6
f 6 2 1
f 4 8 6
f 6 8 10
f 10 9 5
f 5 6 10
f 2 6 5
f 7 8 3
f 10 8 7
f 7 9 10
f 3 1 7
f 1 2 7
f 2 5 7

