# https://github.com/mikedh/trimesh
v 0.01612480 -0.02859701 0.07098726
v 0.01612480 -0.03087815 0.07098726
v 0.01612480 -0.02859701 0.06922742
v 0.00918152 -0.02859701 0.07098726
v 0.01603984 -0.03094078 0.07098726
v 0.01612480 -0.03093275 0.07098640
v 0.01612480 -0.03089926 0.06922742
v 0.00918152 -0.02859701 0.06922742
v 0.00918152 -0.03094078 0.07098726
v 0.01603984 -0.03094078 0.06922742
v 0.01612480 -0.03093275 0.06936077
v 0.01612480 -0.03093206 0.06922984
v 0.00918152 -0.03094078 0.06922742
f 5 6 2
f 12 10 7
f 11 10 12
f 4 1 8
f 1 3 8
f 8 9 4
f 13 9 8
f 4 9 2
f 2 1 4
f 2 9 5
f 5 9 10
f 10 9 13
f 7 8 3
f 13 8 7
f 7 10 13
f 11 3 1
f 1 2 11
f 11 2 6
f 11 7 3
f 12 7 11
f 5 10 11
f 11 6 5

