# https://github.com/mikedh/trimesh
v 0.01391366 0.03916730 0.02580820
v 0.01432977 0.03913837 0.02580820
v 0.01432977 0.03887942 0.02480228
v 0.01391366 0.03901510 0.02521834
v 0.01391366 0.03637112 0.02580820
v 0.01491075 0.03895793 0.02580820
v 0.01542902 0.03824993 0.02350250
v 0.01391366 0.03890697 0.02480228
v 0.01490168 0.03807638 0.02236222
v 0.01433096 0.03834498 0.02299629
v 0.01391366 0.03820517 0.02236482
v 0.01391366 0.03506119 0.02580517
v 0.01391760 0.03506051 0.02580820
v 0.01598870 0.03852266 0.02580820
v 0.01574022 0.03844139 0.02480228
v 0.01659493 0.03785117 0.02480228
v 0.01616856 0.03701301 0.02138100
v 0.01609441 0.03705502 0.02138100
v 0.01391366 0.03814387 0.02216459
v 0.01441457 0.03776990 0.02138100
v 0.01433096 0.03779607 0.02138100
v 0.01433096 0.03783740 0.02149109
v 0.01391366 0.03389934 0.02292045
v 0.01505472 0.03213141 0.02580820
v 0.01667342 0.03809428 0.02580820
v 0.01679017 0.03801370 0.02580820
v 0.01699053 0.03652471 0.02184041
v 0.01627702 0.03692829 0.02138100
v 0.01391366 0.03806949 0.02196219
v 0.01391366 0.03782431 0.02138100
v 0.01391366 0.03332357 0.02138187
v 0.01466779 0.03213141 0.02138100
v 0.01791190 0.03213141 0.02580820
v 0.01687970 0.03789663 0.02580820
v 0.01711753 0.03671479 0.02309207
v 0.01726465 0.03578847 0.02138100
v 0.01391366 0.03355705 0.02138100
v 0.01391405 0.03332288 0.02138100
v 0.01794306 0.03213141 0.02138100
v 0.01792452 0.03213141 0.02480141
v 0.01793990 0.03384148 0.02580820
v 0.01725953 0.03722306 0.02580820
v 0.01725085 0.03699579 0.02480228
v 0.01731514 0.03567759 0.02138100
v 0.01784445 0.03384148 0.02138100
v 0.01790519 0.03384148 0.02309207
v 0.01793911 0.03384148 0.02480228
v 0.01781723 0.03555225 0.02580820
v 0.01777227 0.03555225 0.02480228
v 0.01761253 0.03555225 0.02309207
f 13 12 24
f 38 32 31
f 31 32 24
f 40 41 33
f 39 41 40
f 17 7 16
f 26 27 16
f 50 45 44
f 46 45 48
f 39 45 46
f 35 36 27
f 44 36 35
f 12 13 5
f 38 31 37
f 24 12 23
f 23 31 24
f 2 6 7
f 49 42 48
f 48 45 49
f 45 50 49
f 48 41 47
f 47 46 48
f 47 41 39
f 39 46 47
f 27 36 28
f 17 16 28
f 28 16 27
f 34 27 26
f 34 35 27
f 43 50 44
f 44 35 43
f 42 49 43
f 43 49 50
f 43 34 42
f 35 34 43
f 26 16 15
f 15 16 7
f 6 14 15
f 7 6 15
f 18 20 9
f 18 7 17
f 18 9 7
f 1 2 3
f 7 9 3
f 3 2 7
f 26 15 25
f 25 15 14
f 30 29 21
f 9 20 21
f 8 3 11
f 10 3 9
f 11 3 10
f 10 19 11
f 9 19 10
f 9 21 22
f 22 21 29
f 29 19 22
f 22 19 9
f 1 3 4
f 3 8 4
f 40 33 24
f 40 32 39
f 24 32 40
f 24 33 25
f 48 42 25
f 25 34 26
f 25 41 48
f 33 41 25
f 25 2 1
f 25 13 24
f 1 5 25
f 25 5 13
f 25 14 6
f 6 2 25
f 42 34 25
f 39 32 21
f 38 37 21
f 21 45 39
f 17 28 21
f 21 32 38
f 44 45 21
f 21 36 44
f 21 37 30
f 21 18 17
f 21 28 36
f 20 18 21
f 4 23 12
f 30 37 4
f 4 5 1
f 12 5 4
f 4 37 31
f 31 23 4
f 11 19 4
f 4 29 30
f 4 19 29
f 4 8 11

