# https://github.com/mikedh/trimesh
v 0.01101614 -0.00533328 0.08342882
v 0.01105908 -0.01016488 0.08342882
v 0.01105908 -0.01016488 0.08376837
v 0.01106024 -0.01016488 0.08673246
v 0.01101614 -0.00522437 0.08467059
v 0.01101614 0.01612182 0.08342882
v 0.02237372 -0.01016488 0.08342882
v 0.02275784 -0.01016488 0.08673246
v 0.01101614 -0.00311879 0.08673246
v 0.01101614 -0.00378875 0.08612807
v 0.01101614 0.01610202 0.08403936
v 0.01103935 0.02355074 0.08342882
v 0.02250021 -0.01016488 0.08420331
v 0.02237372 0.02355074 0.08342882
v 0.02278801 -0.01016488 0.08638094
v 0.02281818 -0.00892068 0.08673246
v 0.01101614 0.01316477 0.08673246
v 0.01101614 0.01483471 0.08619177
v 0.01106024 0.02355074 0.08673246
v 0.02257565 -0.01016488 0.08467059
v 0.02256404 0.02355074 0.08459848
v 0.02281703 -0.00892068 0.08638094
v 0.02285416 -0.00721113 0.08673246
v 0.02286809 0.02355074 0.08673246
v 0.02283095 -0.00721113 0.08638094
v 0.02257565 0.02355074 0.08467059
v 0.02286577 -0.00549829 0.08673246
v 0.02287041 -0.00378875 0.08673246
v 0.02282283 0.02355074 0.08638094
f 1 2 3
f 3 4 1
f 1 4 5
f 26 29 25
f 25 23 22
f 12 6 11
f 11 18 12
f 4 9 10
f 10 5 4
f 28 25 24
f 24 25 29
f 22 15 20
f 20 25 22
f 26 25 20
f 20 21 26
f 8 15 16
f 22 23 16
f 16 15 22
f 27 25 28
f 23 25 27
f 19 18 17
f 12 18 19
f 21 20 13
f 7 14 13
f 14 21 13
f 12 14 6
f 6 2 1
f 6 14 7
f 7 2 6
f 10 6 1
f 10 9 17
f 17 18 10
f 1 5 10
f 10 11 6
f 18 11 10
f 19 9 4
f 8 16 19
f 4 8 19
f 17 9 19
f 28 24 19
f 19 27 28
f 19 16 23
f 23 27 19
f 19 14 12
f 19 21 14
f 26 21 19
f 19 29 26
f 19 24 29
f 13 2 7
f 13 8 4
f 4 3 13
f 13 3 2
f 13 15 8
f 13 20 15

