# https://github.com/mikedh/trimesh
v 0.00751017 -0.01747492 0.04294306
v 0.00751017 -0.01657370 0.04293558
v 0.00751017 -0.01918457 0.04294199
v 0.00919620 -0.01108774 0.04231864
v 0.00751017 -0.01576528 0.04292595
v 0.00751017 -0.02089421 0.04288425
v 0.00919620 -0.01108617 0.04228121
v 0.00914669 -0.01108617 0.04233040
v 0.00919620 -0.02260700 0.04185459
v 0.00751578 -0.01108617 0.04237958
v 0.00751017 -0.01108617 0.04237958
v 0.00751017 -0.02431507 0.04200535
v 0.00919620 -0.02431664 0.04178509
v 0.00919620 -0.01108617 0.03201989
v 0.00751017 -0.01108617 0.03201989
v 0.00751017 -0.02571487 0.04140338
v 0.00919620 -0.02570701 0.04138627
v 0.00919620 -0.02697627 0.03201989
v 0.00751017 -0.02710681 0.03201989
v 0.00751017 -0.02655947 0.04050951
v 0.00919620 -0.02656262 0.04044429
v 0.00919620 -0.02704075 0.03335321
v 0.00751017 -0.02715242 0.03335534
v 0.00751017 -0.02657048 0.04049668
v 0.00751017 -0.02699986 0.03965306
v 0.00919620 -0.02696211 0.03958891
v 0.00751017 -0.02715399 0.03506610
v 0.00919620 -0.02704075 0.03848440
v 0.00751017 -0.02700458 0.03964130
v 0.00751017 -0.02713984 0.03850044
v 0.00751017 -0.02714141 0.03848654
v 0.00751017 -0.02715399 0.03679931
f 17 13 12
f 12 16 17
f 1 4 2
f 4 5 2
f 4 7 8
f 8 5 4
f 6 12 13
f 13 9 6
f 6 9 4
f 11 5 10
f 5 8 10
f 17 16 20
f 21 20 24
f 17 20 21
f 27 23 22
f 22 19 18
f 22 23 19
f 3 4 1
f 3 6 4
f 25 21 24
f 26 21 25
f 29 26 25
f 30 26 29
f 30 31 26
f 26 31 28
f 32 28 31
f 14 18 19
f 19 15 14
f 10 7 14
f 10 15 11
f 14 15 10
f 10 8 7
f 28 7 4
f 28 18 14
f 28 13 17
f 4 9 28
f 14 7 28
f 28 9 13
f 17 21 28
f 28 21 26
f 28 22 18
f 32 23 27
f 32 20 16
f 1 2 32
f 32 5 11
f 11 15 32
f 32 30 29
f 16 12 32
f 32 2 5
f 15 19 32
f 32 3 1
f 12 6 32
f 19 23 32
f 24 20 32
f 29 25 32
f 6 3 32
f 32 25 24
f 31 30 32
f 22 28 32
f 27 22 32

