# https://github.com/mikedh/trimesh
v 0.00735109 -0.03109850 0.02580820
v 0.01090825 -0.03109540 0.02580820
v 0.00735109 -0.03077645 0.02614566
v 0.00735109 -0.00089716 0.02580820
v 0.01092785 -0.03107063 0.02580820
v 0.01092785 -0.03108921 0.02581173
v 0.01092785 -0.03077645 0.02611138
v 0.00735109 -0.02944800 0.02678876
v 0.00735109 0.00053348 0.02580961
v 0.00748764 0.00053348 0.02580820
v 0.01092785 0.00053658 0.02580820
v 0.01092785 -0.02944800 0.02675272
v 0.00735109 -0.02701406 0.02761314
v 0.00735109 0.00018976 0.02761314
v 0.01092785 0.00018976 0.02761314
v 0.01092785 -0.02628016 0.02761314
f 10 9 11
f 14 15 11
f 11 9 14
f 13 8 12
f 12 16 13
f 9 10 4
f 8 3 7
f 7 12 8
f 2 7 3
f 2 3 1
f 6 2 5
f 7 2 6
f 14 16 15
f 13 16 14
f 4 8 13
f 13 14 4
f 1 3 4
f 4 3 8
f 4 14 9
f 2 11 5
f 1 4 2
f 2 10 11
f 2 4 10
f 11 15 6
f 5 11 6
f 15 16 6
f 16 12 6
f 12 7 6

