# https://github.com/mikedh/trimesh
v -0.02013076 0.02772190 0.02580820
v -0.02013704 0.02772190 0.02651307
v -0.02013076 0.02871020 0.02580820
v -0.00765997 0.02772190 0.02580820
v -0.02013578 0.02871020 0.02651307
v -0.02014331 0.02772190 0.02822385
v -0.02014331 0.02871020 0.02822385
v -0.02009061 0.03042048 0.02580820
v -0.00732744 0.03480576 0.02580820
v -0.00765997 0.02772190 0.03336433
v -0.02009437 0.03042048 0.02651307
v -0.02014708 0.02772190 0.02993389
v -0.02014582 0.02871020 0.02993389
v -0.02009939 0.03042048 0.02822385
v -0.01981579 0.03213007 0.02580820
v -0.00739771 0.03480576 0.03335471
v -0.00739771 0.03480160 0.03336433
v -0.01903025 0.03480576 0.02580820
v -0.02012072 0.02772190 0.03336433
v -0.02013955 0.02772190 0.03164393
v -0.02013955 0.02871020 0.03164393
v -0.02009688 0.03042048 0.03164393
v -0.02010065 0.03042048 0.02993389
v -0.01982583 0.03213007 0.03335471
v -0.01982332 0.03213978 0.03336433
v -0.01935024 0.03384590 0.03336433
v -0.01952718 0.03313571 0.02580820
v -0.00746045 0.03480576 0.03336433
v -0.01904656 0.03475999 0.02580820
v -0.01903402 0.03480576 0.02643171
v -0.02012198 0.02871020 0.03336433
v -0.02013202 0.02772190 0.03236656
v -0.02008559 0.03042048 0.03335471
v -0.01982583 0.03213007 0.03336433
v -0.01932389 0.03384104 0.02580820
v -0.01906288 0.03480230 0.03336433
v -0.01906288 0.03480230 0.03335471
v -0.01905660 0.03478704 0.02993389
v -0.01906162 0.03480576 0.03335471
v -0.01905284 0.03477802 0.02822385
v -0.01916076 0.03438478 0.02580820
v -0.01904280 0.03480576 0.02816690
v -0.02008433 0.03042048 0.03336433
v -0.02008308 0.03042950 0.03336433
v -0.01906162 0.03480576 0.03334732
f 9 10 4
f 17 10 9
f 16 28 17
f 16 17 9
f 36 28 39
f 1 2 3
f 12 7 6
f 7 2 6
f 20 21 12
f 13 7 12
f 12 21 13
f 23 14 13
f 13 14 7
f 21 20 31
f 8 3 5
f 5 2 7
f 5 3 2
f 7 14 11
f 11 5 7
f 8 5 11
f 38 45 42
f 35 27 26
f 26 38 35
f 19 31 32
f 32 31 20
f 21 31 33
f 15 11 14
f 8 11 15
f 15 25 26
f 26 27 15
f 37 26 36
f 37 38 26
f 45 38 37
f 43 33 31
f 22 34 23
f 22 33 34
f 21 33 22
f 23 13 22
f 22 13 21
f 34 25 24
f 25 15 24
f 24 15 14
f 23 34 24
f 24 14 23
f 18 29 30
f 40 38 42
f 42 30 40
f 40 30 29
f 40 35 38
f 34 33 44
f 33 43 44
f 35 40 41
f 41 40 29
f 12 6 32
f 32 4 10
f 1 4 32
f 10 19 32
f 32 2 1
f 32 6 2
f 32 20 12
f 39 45 37
f 36 39 37
f 9 18 30
f 30 16 9
f 28 16 30
f 30 39 28
f 30 45 39
f 42 45 30
f 44 19 10
f 44 28 36
f 10 17 44
f 17 28 44
f 36 26 44
f 44 31 19
f 44 25 34
f 26 25 44
f 44 43 31
f 41 4 1
f 9 4 41
f 41 18 9
f 1 3 41
f 41 3 8
f 8 15 41
f 27 35 41
f 41 15 27
f 41 29 18

