# https://github.com/mikedh/trimesh
v 0.01262084 0.01949608 -0.00092480
v 0.01262084 0.02015570 -0.00091486
v 0.01328020 0.01949608 -0.00080848
v 0.01262084 0.01949608 0.00504561
v 0.01262084 0.02186564 -0.00069861
v 0.01437015 0.01949608 -0.00048118
v 0.01593516 0.01949608 0.00504561
v 0.01262084 0.02420845 0.00504561
v 0.01262084 0.02311016 -0.00025441
v 0.01350345 0.02275682 -0.00003114
v 0.01378932 0.02186702 -0.00023278
v 0.01439287 0.02008236 -0.00039293
v 0.01472936 0.01949608 -0.00031285
v 0.01589784 0.01967828 0.00504561
v 0.01535465 0.01949608 0.00085551
v 0.01262084 0.02362909 0.00085434
v 0.01398661 0.02324116 0.00504561
v 0.01423225 0.02186702 0.00085551
v 0.01498668 0.02054409 0.00085551
v 0.01522680 0.01949608 -0.00003347
v 0.01518819 0.01949608 -0.00008023
v 0.01579660 0.02017046 0.00504561
v 0.01524594 0.01949608 0.00007582
v 0.01531084 0.01968843 0.00085551
f 10 9 16
f 8 17 16
f 16 17 10
f 12 6 5
f 5 9 10
f 19 20 10
f 10 20 21
f 11 5 10
f 12 5 11
f 10 21 11
f 11 21 12
f 15 23 22
f 10 17 18
f 18 19 10
f 17 22 18
f 22 19 18
f 24 23 20
f 20 19 24
f 22 23 24
f 24 19 22
f 13 6 12
f 12 21 13
f 1 2 3
f 3 2 5
f 3 5 6
f 7 15 14
f 14 15 22
f 1 4 2
f 2 4 8
f 8 16 2
f 2 16 9
f 9 5 2
f 7 4 3
f 3 4 1
f 6 13 3
f 3 21 20
f 20 23 3
f 3 15 7
f 23 15 3
f 3 13 21
f 14 4 7
f 8 4 14
f 14 17 8
f 14 22 17

