# https://github.com/mikedh/trimesh
v 0.02190973 -0.01773772 0.03532973
v 0.02190739 -0.01773772 0.03703896
v 0.02187221 -0.01878055 0.03808200
v 0.02190973 -0.01773772 0.03335517
v 0.02190426 -0.01773772 0.03848576
v 0.02187143 -0.01878055 0.03848576
v 0.02187221 -0.01878055 0.03800798
v 0.02186830 -0.01878055 0.03466161
v 0.02186439 -0.01878055 0.03335517
v 0.02183546 -0.01878055 0.03295141
v 0.02184250 -0.01773772 0.03241884
v 0.02187143 -0.01878055 0.03629875
v 0.02152040 -0.01773772 0.04019692
v 0.02148679 -0.01878055 0.04019692
v 0.02176432 -0.01878055 0.03201989
v 0.02180888 -0.01784980 0.03201989
v 0.02181358 -0.01773772 0.03201989
v 0.02140157 -0.01773772 0.04037092
v 0.02093093 -0.01878055 0.04101308
v 0.01392844 -0.01878055 0.03201989
v 0.01392844 -0.01773772 0.03201989
v 0.02072689 -0.01773772 0.04134474
v 0.02070891 -0.01878055 0.04133320
v 0.01392766 -0.01878055 0.03205930
v 0.01392375 -0.01773772 0.03335517
v 0.02053613 -0.01773772 0.04140627
v 0.01976138 -0.01878055 0.04163506
v 0.01392375 -0.01878055 0.03335517
v 0.01392375 -0.01773772 0.03677652
v 0.01946117 -0.01773772 0.04173888
v 0.01946117 -0.01878055 0.04172735
v 0.01392375 -0.01878055 0.03680440
v 0.01392453 -0.01773772 0.03848576
v 0.01919770 -0.01773772 0.04175715
v 0.01822828 -0.01878055 0.04181194
v 0.01392453 -0.01878055 0.03851172
v 0.01393782 -0.01773772 0.04019692
v 0.01775139 -0.01773772 0.04183982
v 0.01775139 -0.01878055 0.04183982
v 0.01815480 -0.01878055 0.04181675
v 0.01393782 -0.01878055 0.04019692
v 0.01434982 -0.01878055 0.04145145
v 0.01434982 -0.01773772 0.04139473
v 0.01748793 -0.01773772 0.04183694
v 0.01651851 -0.01878055 0.04182636
v 0.01477668 -0.01878055 0.04156200
v 0.01578597 -0.01773772 0.04176869
v 0.01604083 -0.01773772 0.04182060
v 0.01604083 -0.01878055 0.04182060
f 42 43 37
f 10 4 9
f 2 3 1
f 42 37 41
f 47 43 42
f 16 10 15
f 36 41 37
f 7 12 4
f 9 4 8
f 4 12 8
f 11 16 17
f 4 10 11
f 10 16 11
f 6 5 13
f 13 14 6
f 6 2 5
f 3 2 6
f 13 18 19
f 19 14 13
f 19 18 22
f 22 23 19
f 27 30 31
f 38 44 45
f 45 44 48
f 33 36 37
f 31 30 34
f 30 27 26
f 26 27 23
f 26 23 22
f 38 45 39
f 39 34 38
f 49 45 48
f 48 47 49
f 25 21 24
f 24 21 20
f 24 28 25
f 31 34 35
f 46 47 42
f 46 49 47
f 33 29 32
f 36 33 32
f 34 39 40
f 40 35 34
f 15 20 16
f 16 21 17
f 20 21 16
f 7 4 1
f 1 3 7
f 1 4 29
f 29 11 17
f 29 21 25
f 29 26 22
f 29 2 1
f 13 5 29
f 43 47 29
f 29 37 43
f 29 44 38
f 29 18 13
f 17 21 29
f 5 2 29
f 48 44 29
f 29 47 48
f 22 18 29
f 4 11 29
f 38 34 29
f 29 33 37
f 29 34 30
f 30 26 29
f 32 29 25
f 25 28 32
f 42 41 40
f 15 10 40
f 40 24 20
f 40 20 15
f 40 10 9
f 9 8 40
f 23 27 40
f 40 7 3
f 3 6 40
f 40 19 23
f 41 36 40
f 12 7 40
f 40 8 12
f 40 6 14
f 14 19 40
f 40 27 31
f 31 35 40
f 40 46 42
f 40 39 45
f 45 49 40
f 28 24 40
f 36 32 40
f 49 46 40
f 40 32 28

