# https://github.com/mikedh/trimesh
v 0.01590421 0.01006462 0.00426322
v 0.01453276 0.01006462 0.00426322
v 0.01597078 0.00647200 0.00426322
v 0.01582584 0.01006462 0.00085533
v 0.01453276 0.01006462 -0.00067250
v 0.01453276 -0.01581850 0.00426322
v 0.01592598 0.00647200 0.00256531
v 0.01598586 0.00476183 0.00426322
v 0.01594077 0.00476183 0.00256531
v 0.01582726 0.00647200 0.00085533
v 0.01544934 0.01006462 -0.00028740
v 0.01453276 -0.01576275 -0.00067250
v 0.01453276 -0.01581850 -0.00067009
v 0.01596765 -0.01581850 0.00426322
v 0.01598586 -0.01405259 0.00426322
v 0.01594077 -0.01576275 0.00256531
v 0.01582726 -0.01576275 0.00085533
v 0.01544934 -0.01576275 -0.00028740
v 0.01544763 -0.01581850 -0.00028547
v 0.01598372 -0.01581596 0.00426322
v 0.01594048 -0.01581850 0.00261991
v 0.01598543 -0.01576275 0.00426322
v 0.01593778 -0.01581850 0.00256531
v 0.01582797 -0.01581850 0.00090992
v 0.01582385 -0.01581850 0.00085533
f 3 4 1
f 7 3 8
f 4 3 7
f 9 7 8
f 4 7 9
f 16 15 22
f 21 23 16
f 21 22 20
f 16 22 21
f 20 14 21
f 18 17 19
f 19 13 18
f 13 12 18
f 19 17 25
f 16 23 24
f 24 17 16
f 24 25 17
f 4 9 10
f 10 11 4
f 12 6 2
f 2 5 12
f 12 13 6
f 2 1 11
f 11 5 2
f 1 4 11
f 8 15 9
f 9 15 16
f 22 1 2
f 2 6 22
f 6 14 22
f 8 3 22
f 22 14 20
f 22 3 1
f 22 15 8
f 18 12 5
f 5 11 18
f 6 13 24
f 24 14 6
f 24 13 19
f 24 21 14
f 23 21 24
f 19 25 24
f 10 9 16
f 16 17 10
f 10 18 11
f 17 18 10

