# https://github.com/mikedh/trimesh
v 0.01391366 0.03239927 0.01991344
v 0.01485846 0.03066100 0.01991344
v 0.01499861 0.03066100 0.02138043
v 0.01391409 0.03332346 0.02138043
v 0.01391366 0.03319934 0.02117521
v 0.01391366 0.03727472 0.01991344
v 0.01831857 0.03066100 0.01991344
v 0.01797791 0.03066100 0.02138043
v 0.01391366 0.03355695 0.02138043
v 0.01391366 0.03782376 0.02138043
v 0.01392703 0.03782306 0.02138043
v 0.01406416 0.03726490 0.01991344
v 0.01821163 0.03204447 0.01991344
v 0.01784423 0.03384164 0.02138043
v 0.01794298 0.03213071 0.02138043
v 0.01433065 0.03779641 0.02138043
v 0.01432979 0.03724667 0.01991344
v 0.01784854 0.03384164 0.01991344
v 0.01731512 0.03567809 0.02138043
v 0.01441431 0.03776977 0.02138043
v 0.01552599 0.03687223 0.01991344
v 0.01726467 0.03533870 0.01991344
v 0.01730391 0.03568299 0.02131451
v 0.01726424 0.03578818 0.02138043
v 0.01609477 0.03705524 0.02138043
v 0.01577825 0.03676214 0.01991344
v 0.01715773 0.03552943 0.01991344
v 0.01683474 0.03634072 0.02069986
v 0.01627718 0.03692832 0.02138043
v 0.01616851 0.03701247 0.02138043
v 0.01597489 0.03663312 0.01991344
v 0.01617455 0.03698652 0.02131451
v 0.01662819 0.03618295 0.01991344
f 2 3 1
f 1 3 4
f 15 8 7
f 7 14 15
f 4 9 5
f 1 4 5
f 13 14 7
f 13 18 14
f 19 18 22
f 14 18 19
f 29 24 28
f 21 17 16
f 16 20 21
f 17 12 16
f 24 19 23
f 22 24 23
f 23 19 22
f 25 26 21
f 21 20 25
f 31 28 33
f 33 28 27
f 27 24 22
f 27 28 24
f 11 16 12
f 11 6 10
f 11 12 6
f 29 28 30
f 26 25 30
f 26 30 32
f 32 30 28
f 32 31 26
f 28 31 32
f 8 2 7
f 3 2 8
f 5 6 1
f 5 9 10
f 10 6 5
f 1 6 27
f 27 2 1
f 7 2 27
f 27 17 21
f 27 13 7
f 6 12 27
f 22 18 27
f 27 12 17
f 18 13 27
f 27 31 33
f 21 26 27
f 26 31 27
f 3 8 30
f 30 15 14
f 30 4 3
f 10 9 30
f 30 9 4
f 8 15 30
f 14 19 30
f 30 24 29
f 30 11 10
f 30 19 24
f 20 16 30
f 30 25 20
f 16 11 30

