# https://github.com/mikedh/trimesh
v 0.01934715 0.02533751 0.01945961
v 0.01934715 0.02647806 0.01938831
v 0.01934715 0.02357906 0.01938463
v 0.02237027 0.02231101 0.01889663
v 0.02237027 0.02311247 0.01889663
v 0.01934715 0.02699789 0.01930964
v 0.01934715 0.02199855 0.01902815
v 0.02051122 0.01949748 0.01845411
v 0.02117211 0.01949748 0.01844304
v 0.02117211 0.02207001 0.01896792
v 0.02222120 0.01949748 0.01823162
v 0.02288210 0.01949748 0.01808780
v 0.02291720 0.02179118 0.01859055
v 0.02291720 0.02364071 0.01859424
v 0.01934715 0.02870870 0.01895440
v 0.01934715 0.01949748 0.01846148
v 0.02399122 0.01949748 0.01742279
v 0.02416166 0.02186824 0.01770305
v 0.02416624 0.02357906 0.01771289
v 0.02399987 0.02528987 0.01744738
v 0.02384673 0.02652009 0.01723718
v 0.02288210 0.02528987 0.01812959
v 0.01934715 0.03041952 0.01848115
v 0.01934715 0.01949748 0.00690561
v 0.02435550 0.01949748 0.01624889
v 0.02454171 0.02186824 0.01624889
v 0.02454476 0.02357906 0.01624889
v 0.02435702 0.02528987 0.01624889
v 0.02395204 0.02870870 0.01586783
v 0.02383553 0.02999917 0.01557774
v 0.02362745 0.02765783 0.01698274
v 0.02215913 0.02975957 0.01716835
v 0.02247101 0.02870870 0.01732200
v 0.02298690 0.02705253 0.01754694
v 0.01934715 0.03193698 0.01780631
v 0.01934715 0.02528987 0.00690315
v 0.01983659 0.02528987 0.00730264
v 0.01983659 0.01949748 0.00730879
v 0.02412452 0.01949748 0.01453905
v 0.02414029 0.02186824 0.01453905
v 0.02413011 0.02015742 0.01453905
v 0.02413469 0.02357906 0.01453905
v 0.02410671 0.02528987 0.01453905
v 0.02407008 0.02699789 0.01453905
v 0.02377092 0.02996554 0.01360976
v 0.02399478 0.02870870 0.01453905
v 0.02383604 0.03019113 0.01453905
v 0.02369460 0.03104584 0.01453905
v 0.02255496 0.03177024 0.01582850
v 0.02292687 0.03045034 0.01627348
v 0.02158269 0.03090012 0.01696921
v 0.02179739 0.03291078 0.01517578
v 0.01934715 0.03335495 0.01630912
v 0.01934715 0.02699789 0.00690929
v 0.01983099 0.02699789 0.00730141
v 0.02061908 0.02699789 0.00815695
v 0.02013422 0.01949748 0.00763945
v 0.02376074 0.01949748 0.01363189
v 0.02378008 0.02870870 0.01359132
v 0.02337509 0.02870870 0.01273701
v 0.02243336 0.02875354 0.01095957
v 0.02338731 0.03048818 0.01295704
v 0.02258803 0.03218498 0.01284027
v 0.02216676 0.03308172 0.01341677
v 0.02216676 0.03308172 0.01403507
v 0.02276101 0.03225644 0.01457839
v 0.01934715 0.03381033 0.01467549
v 0.01934715 0.03339839 0.01626118
v 0.01934715 0.02767465 0.00699903
v 0.02054073 0.02870870 0.00827373
v 0.02201413 0.02935324 0.01028227
v 0.02204618 0.02821269 0.01023310
v 0.02147432 0.02699789 0.00936404
v 0.02060534 0.01949748 0.00816433
v 0.02337153 0.01949748 0.01277881
v 0.02254529 0.02699789 0.01111937
v 0.02285767 0.01949748 0.01175979
v 0.02253308 0.01949748 0.01111937
v 0.02254427 0.02528987 0.01111937
v 0.02205585 0.02699789 0.01021835
v 0.02245574 0.03041952 0.01131973
v 0.02226699 0.03165254 0.01165285
v 0.02174601 0.03279308 0.01227729
v 0.02060534 0.03309854 0.01179912
v 0.02117415 0.03325266 0.01284027
v 0.01934715 0.03367862 0.01294107
v 0.01934715 0.03380893 0.01454028
v 0.01934715 0.02877596 0.00722028
v 0.01943618 0.02884882 0.00731493
v 0.02041303 0.02970913 0.00844459
v 0.02181418 0.03041952 0.01046419
v 0.02205432 0.02528987 0.01022081
v 0.02147025 0.02528987 0.00936650
v 0.02146059 0.01949748 0.00938371
v 0.02223239 0.01949748 0.01057728
v 0.02205127 0.02357906 0.01022572
v 0.02061552 0.03151383 0.01001061
v 0.01946162 0.03318681 0.01163687
v 0.01946162 0.03363238 0.01282921
v 0.01946162 0.03173941 0.00966889
v 0.01946162 0.03259412 0.01078133
v 0.01934715 0.03364499 0.01282921
v 0.01934715 0.02891327 0.00727191
v 0.01946162 0.03008324 0.00805984
v 0.02204364 0.01949748 0.01023801
v 0.01946162 0.03093935 0.00881335
v 0.01934715 0.03097438 0.00878754
v 0.01934715 0.03260253 0.01077641
v 0.01934715 0.03318961 0.01163195
v 0.01934715 0.03323025 0.01171554
v 0.01934715 0.03174221 0.00963939
v 0.01934715 0.03011267 0.00803034
v 0.01934715 0.03021495 0.00811884
f 1 3 4
f 4 3 10
f 68 52 67
f 49 52 35
f 1 4 5
f 5 4 14
f 35 52 53
f 52 68 53
f 67 52 65
f 65 64 67
f 74 57 56
f 56 57 38
f 27 19 26
f 27 26 40
f 1 5 2
f 9 4 10
f 10 3 9
f 23 32 35
f 23 15 14
f 51 49 35
f 35 32 51
f 50 49 51
f 51 32 50
f 27 45 46
f 28 19 27
f 52 49 66
f 66 65 52
f 83 63 82
f 64 63 83
f 74 56 73
f 59 40 58
f 39 26 25
f 14 15 6
f 6 5 14
f 6 2 5
f 8 7 16
f 3 7 8
f 8 9 3
f 11 12 4
f 4 9 11
f 18 17 25
f 25 26 18
f 18 26 19
f 14 19 20
f 20 21 14
f 19 28 20
f 20 28 29
f 50 32 31
f 32 21 31
f 29 28 30
f 30 49 50
f 50 31 30
f 30 31 21
f 30 20 29
f 21 20 30
f 47 46 45
f 47 30 28
f 27 46 47
f 47 28 27
f 67 64 87
f 64 86 87
f 64 83 84
f 54 55 36
f 36 55 37
f 37 24 36
f 37 38 24
f 37 56 38
f 37 55 56
f 56 55 70
f 70 89 90
f 88 89 70
f 93 94 74
f 74 73 93
f 44 45 27
f 27 43 44
f 44 43 45
f 75 59 58
f 40 59 42
f 27 40 42
f 42 43 27
f 45 43 42
f 42 59 45
f 41 40 26
f 26 39 41
f 41 39 58
f 58 40 41
f 17 18 13
f 12 17 13
f 4 12 13
f 14 4 13
f 13 19 14
f 13 18 19
f 33 21 32
f 33 34 21
f 32 23 33
f 23 34 33
f 22 23 14
f 22 34 23
f 14 21 22
f 21 34 22
f 48 66 49
f 49 30 48
f 30 47 48
f 48 63 64
f 48 47 45
f 64 65 48
f 65 66 48
f 104 112 113
f 107 106 113
f 106 104 113
f 103 112 104
f 103 89 88
f 103 104 90
f 90 89 103
f 111 100 107
f 97 106 107
f 107 100 97
f 100 84 97
f 97 84 83
f 97 83 82
f 82 90 97
f 90 104 97
f 97 104 106
f 55 54 69
f 88 70 69
f 69 70 55
f 94 93 92
f 92 93 73
f 59 75 60
f 45 59 60
f 101 84 100
f 100 111 101
f 102 99 110
f 86 99 102
f 110 99 98
f 98 99 84
f 84 101 98
f 64 84 85
f 84 99 85
f 85 86 64
f 85 99 86
f 56 70 71
f 71 70 90
f 78 92 79
f 79 60 78
f 76 60 79
f 78 60 77
f 77 60 75
f 108 101 111
f 108 98 101
f 72 73 56
f 56 71 72
f 91 71 90
f 81 71 91
f 91 90 82
f 82 81 91
f 62 71 81
f 62 81 82
f 82 63 62
f 62 48 45
f 63 48 62
f 96 105 94
f 94 92 96
f 96 92 78
f 110 98 109
f 98 108 109
f 76 79 80
f 80 79 92
f 80 92 73
f 73 72 80
f 61 60 76
f 76 80 61
f 61 80 72
f 61 72 71
f 45 60 61
f 61 62 45
f 71 62 61
f 95 96 78
f 105 96 95
f 36 24 109
f 16 7 109
f 109 3 1
f 109 54 36
f 35 53 109
f 109 24 16
f 109 23 35
f 109 7 3
f 1 2 109
f 109 68 67
f 109 53 68
f 109 103 88
f 67 87 109
f 109 6 15
f 15 23 109
f 88 69 109
f 2 6 109
f 109 87 86
f 107 113 109
f 109 111 107
f 109 113 112
f 112 103 109
f 109 102 110
f 109 69 54
f 86 102 109
f 109 108 111
f 16 24 95
f 25 17 95
f 95 75 58
f 24 38 95
f 74 94 95
f 95 57 74
f 95 39 25
f 38 57 95
f 12 11 95
f 95 8 16
f 95 17 12
f 58 39 95
f 9 8 95
f 95 11 9
f 94 105 95
f 78 77 95
f 95 77 75

