# https://github.com/mikedh/trimesh
v 0.01838937 0.02772091 0.05856155
v 0.01838937 0.02464035 0.05856155
v 0.01838937 0.02772091 0.05488252
v 0.01310363 0.02772091 0.05856155
v 0.01310363 0.02464035 0.05856155
v 0.01838937 0.02464035 0.05044129
v 0.01838937 0.02485357 0.05060310
v 0.01793509 0.02772091 0.04118624
v 0.01310363 0.02772091 0.03786703
v 0.01310363 0.02464035 0.04878275
v 0.01823622 0.02464035 0.04950025
v 0.01777729 0.02464065 0.04191013
v 0.01788232 0.02464065 0.04255736
v 0.01786369 0.02528903 0.04191013
v 0.01779177 0.02772091 0.03947660
v 0.01474171 0.02772091 0.03718147
v 0.01310363 0.02697964 0.03787129
v 0.01811204 0.02464035 0.04878275
v 0.01310363 0.02464065 0.03856749
v 0.01816223 0.02464035 0.04907230
v 0.01745598 0.02464065 0.04081579
v 0.01732663 0.02772091 0.03775206
v 0.01603935 0.02772091 0.03681101
v 0.01310363 0.02526310 0.03830349
v 0.01603935 0.02464065 0.03950641
v 0.01604969 0.02464065 0.03951280
v 0.01726506 0.02464065 0.04037081
v 0.01709846 0.02772091 0.03723896
v 0.01689254 0.02772091 0.03712186
v 0.01706483 0.02760903 0.03729857
f 18 10 19
f 16 17 9
f 6 13 8
f 27 28 22
f 25 19 23
f 25 18 19
f 17 16 24
f 24 16 23
f 23 19 24
f 7 8 3
f 6 8 7
f 12 22 15
f 6 11 12
f 12 13 6
f 29 25 23
f 27 18 26
f 18 25 26
f 14 12 15
f 13 12 14
f 15 8 14
f 14 8 13
f 27 22 21
f 22 12 21
f 21 18 27
f 21 12 18
f 18 12 20
f 20 12 11
f 30 29 28
f 25 29 30
f 30 26 25
f 30 28 27
f 27 26 30
f 5 1 4
f 5 2 1
f 24 5 4
f 4 9 24
f 19 10 24
f 9 17 24
f 24 10 5
f 1 2 7
f 7 3 1
f 2 6 7
f 29 9 4
f 4 1 29
f 1 3 29
f 15 22 29
f 23 16 29
f 29 8 15
f 29 16 9
f 3 8 29
f 29 22 28
f 2 5 20
f 20 6 2
f 5 10 20
f 10 18 20
f 20 11 6

