# https://github.com/mikedh/trimesh
v 0.00735116 0.02772043 0.03733643
v 0.00919610 0.02750838 0.03733643
v 0.00715146 0.02772043 0.03727269
v -0.00258622 0.02772043 0.03733643
v 0.00919610 0.02704763 0.03668591
v 0.00748674 0.02729009 0.03668591
v 0.01089813 0.02716847 0.03733643
v 0.00577554 0.02772043 0.03707192
v -0.00256973 0.02772043 0.03732096
v -0.00618632 0.02499806 0.03733338
v -0.00525378 0.02539721 0.03733643
v 0.00929137 0.02702503 0.03668591
v 0.00577554 0.02742184 0.03668591
v 0.01166762 0.02645046 0.03733643
v 0.01106302 0.02641927 0.03668591
v 0.01079920 0.02660482 0.03668591
v 0.00502987 0.02772043 0.03706485
v -0.00106373 0.02772043 0.03716132
v -0.00106373 0.02738520 0.03668591
v -0.00249645 0.02690964 0.03668591
v -0.00618632 0.02487956 0.03723780
v -0.00618632 0.02427303 0.03733643
v 0.00406618 0.02742808 0.03668591
v 0.00406618 0.02772043 0.03705893
v 0.01186549 0.02549856 0.03668591
v 0.01192595 0.02615343 0.03733643
v 0.00064746 0.02772043 0.03705893
v -0.00102709 0.02738676 0.03668591
v -0.00618632 0.02402511 0.03668591
v -0.00618632 0.01975679 0.03733643
v 0.00064746 0.02742808 0.03668591
v 0.01205053 0.02525533 0.03668591
v 0.01200473 0.02599829 0.03733643
v -0.00618632 0.01975679 0.03668591
v 0.01244443 0.01975679 0.03733643
v 0.01235100 0.02530288 0.03733643
v 0.01237481 0.02357762 0.03668591
v 0.01243894 0.01975679 0.03668591
v 0.01244077 0.01975679 0.03677621
v 0.01253054 0.02362206 0.03733643
v 0.01243894 0.02186795 0.03668591
f 40 35 39
f 39 38 40
f 10 22 11
f 11 4 10
f 36 37 32
f 40 37 36
f 10 4 9
f 40 38 41
f 41 37 40
f 5 7 12
f 7 16 12
f 15 16 7
f 20 29 21
f 10 9 21
f 21 9 20
f 2 7 5
f 20 9 19
f 33 36 32
f 32 26 33
f 25 26 32
f 14 15 7
f 14 25 15
f 26 25 14
f 1 2 3
f 6 13 8
f 8 3 6
f 6 2 5
f 6 3 2
f 18 19 9
f 28 27 31
f 28 18 27
f 19 18 28
f 13 23 24
f 8 13 17
f 13 24 17
f 39 35 30
f 30 34 39
f 39 34 38
f 21 34 30
f 30 22 21
f 21 22 10
f 21 29 34
f 14 35 40
f 14 22 30
f 30 35 14
f 4 11 14
f 40 36 14
f 14 11 22
f 14 1 4
f 36 33 14
f 7 2 14
f 14 2 1
f 14 33 26
f 38 34 28
f 34 29 28
f 28 41 38
f 20 19 28
f 32 37 28
f 5 12 28
f 28 29 20
f 37 41 28
f 28 25 32
f 28 12 16
f 16 15 28
f 28 6 5
f 31 23 28
f 15 25 28
f 13 6 28
f 28 23 13
f 24 23 31
f 31 27 24
f 4 1 17
f 17 9 4
f 17 18 9
f 17 3 8
f 1 3 17
f 27 18 17
f 17 24 27

