# https://github.com/mikedh/trimesh
v 0.00668240 -0.01581850 0.02580820
v 0.00668240 -0.02619864 0.02580820
v 0.00668240 -0.01581850 0.01567542
v -0.00820137 -0.01581850 0.02580820
v 0.00668240 -0.02619864 0.01725669
v -0.00820137 -0.02619864 0.02580820
v 0.00668240 -0.02493262 0.01567542
v 0.00254915 -0.01581850 0.01566748
v -0.00820137 -0.01581850 0.01566748
v 0.00406579 -0.02619864 0.01715444
v 0.00406579 -0.02505353 0.01567542
v -0.00820137 -0.02619864 0.01696287
v 0.00254915 -0.02505455 0.01566748
v -0.00820137 -0.02507893 0.01566748
f 14 13 12
f 5 10 11
f 11 7 5
f 13 7 11
f 11 10 12
f 12 13 11
f 6 1 4
f 6 2 1
f 1 3 9
f 4 1 9
f 9 3 8
f 14 6 4
f 4 9 14
f 12 6 14
f 14 9 8
f 8 13 14
f 2 6 10
f 10 6 12
f 10 5 2
f 7 3 1
f 1 2 7
f 2 5 7
f 8 3 7
f 7 13 8

