# https://github.com/mikedh/trimesh
v -0.00395724 0.03712650 0.08041963
v -0.00330262 0.03621120 0.08041963
v -0.00396884 0.03712650 0.08078290
v 0.00918152 0.03712650 0.08041963
v -0.00331937 0.03621120 0.08189564
v -0.00398301 0.03712650 0.08124966
v 0.00857071 0.03621120 0.08041963
v 0.00918152 0.03712650 0.08188991
v 0.00918152 0.03683254 0.08041963
v -0.00331937 0.03621120 0.08193728
v -0.00331164 0.03621120 0.08301834
v -0.00334386 0.03712650 0.08311821
v 0.00855525 0.03621120 0.08087040
v 0.00918152 0.03695287 0.08124966
v 0.00879493 0.03712650 0.08295981
v 0.00826016 0.03621120 0.08350200
v 0.00826918 0.03621120 0.08345583
v 0.00836067 0.03621120 0.08295981
v -0.00303201 0.03621120 0.08350200
v -0.00312221 0.03712650 0.08350200
v 0.00856943 0.03712650 0.08321929
v 0.00828851 0.03712650 0.08350200
f 3 1 2
f 3 2 6
f 20 11 19
f 16 8 15
f 6 2 5
f 6 11 12
f 11 20 12
f 21 22 16
f 16 15 21
f 10 11 6
f 6 5 10
f 14 18 9
f 17 8 16
f 17 14 8
f 17 18 14
f 7 9 13
f 13 9 18
f 20 19 16
f 16 22 20
f 21 8 4
f 21 3 6
f 4 1 21
f 6 12 21
f 1 3 21
f 21 20 22
f 21 15 8
f 21 12 20
f 9 1 4
f 2 1 9
f 9 7 2
f 4 8 9
f 8 14 9
f 2 7 13
f 13 5 2
f 16 19 13
f 19 11 13
f 11 10 13
f 13 17 16
f 13 10 5
f 18 17 13

