# https://github.com/mikedh/trimesh
v 0.01919237 -0.01438590 0.02923533
v 0.01970238 -0.01550386 0.02923533
v 0.01855324 -0.01438590 0.02838049
v 0.01355638 -0.01438590 0.02923533
v 0.01980632 -0.01576405 0.02923533
v 0.01957908 -0.01737892 0.02838049
v 0.01355638 -0.01438590 0.02838049
v 0.01355638 -0.01650485 0.02923533
v 0.02015107 -0.01747401 0.02923533
v 0.01955454 -0.01844993 0.02838049
v 0.01355638 -0.01647739 0.02838049
v 0.01425749 -0.01844993 0.02838049
v 0.01428654 -0.01844993 0.02843313
v 0.01504446 -0.01844993 0.02923533
v 0.01355638 -0.01650166 0.02913173
v 0.02011621 -0.01844993 0.02923533
f 2 3 1
f 2 5 3
f 6 5 9
f 9 10 6
f 3 5 6
f 16 10 9
f 14 8 13
f 13 8 12
f 15 11 12
f 12 8 15
f 4 1 7
f 1 3 7
f 16 1 4
f 9 5 16
f 16 2 1
f 4 8 16
f 5 2 16
f 16 8 14
f 12 10 13
f 13 16 14
f 10 16 13
f 11 7 3
f 3 6 11
f 11 10 12
f 11 6 10
f 4 7 15
f 15 8 4
f 7 11 15

