# https://github.com/mikedh/trimesh
v -0.00623524 -0.00043613 0.08202804
v -0.00407726 -0.00237406 0.08202804
v -0.00257723 -0.00339607 0.08331880
v -0.00343288 -0.00248546 0.08331880
v -0.00623524 0.00008902 0.08230524
v -0.00623524 0.01053194 0.08202804
v -0.00273568 -0.00340315 0.08202804
v -0.00226032 -0.00350570 0.08331880
v -0.00384788 -0.00181001 0.08331880
v -0.00623524 0.00129316 0.08258737
v -0.00623524 0.01051426 0.08204901
v -0.00341779 0.01245750 0.08331880
v -0.00274172 0.01314002 0.08331880
v -0.00286546 0.01317892 0.08202804
v -0.00204452 -0.00364008 0.08202804
v -0.00106362 -0.00391769 0.08331880
v -0.00439718 -0.00033711 0.08331880
v -0.00623524 0.00134267 0.08259710
v -0.00359737 0.01223470 0.08331880
v -0.00623524 0.00968498 0.08235982
v -0.00106362 0.01390564 0.08331880
v -0.00187249 0.01364041 0.08202804
v -0.00106362 -0.00392476 0.08202804
v -0.00028645 -0.00395482 0.08202804
v 0.00064616 -0.00398311 0.08331880
v -0.00453451 0.00134267 0.08331880
v -0.00623524 0.00300476 0.08270197
v -0.00444396 0.01027025 0.08331880
v -0.00623524 0.00818202 0.08265206
v 0.00028700 0.01397637 0.08331880
v -0.00113153 0.01397814 0.08202804
v 0.00064616 -0.00398665 0.08202804
v 0.00235595 -0.00400079 0.08202804
v 0.00235595 -0.00399019 0.08331880
v -0.00459789 0.00305251 0.08331880
v -0.00623524 0.00305251 0.08270311
v -0.00623524 0.00647218 0.08270399
v -0.00446811 0.00993783 0.08331880
v 0.00064616 0.01399051 0.08331880
v 0.00064616 0.01406124 0.08202804
v 0.00406574 -0.00400079 0.08202804
v 0.00406574 -0.00399019 0.08331880
v -0.00623524 0.00471460 0.08270424
v -0.00459789 0.00647218 0.08331880
v -0.00459638 0.00658004 0.08331880
v -0.00456771 0.00818202 0.08331880
v -0.00456318 0.00832347 0.08331880
v -0.00623524 0.00476234 0.08270424
v 0.00406574 0.01399051 0.08331880
v 0.00202245 0.01406301 0.08202804
v 0.00577704 -0.00397781 0.08202804
v 0.00577704 -0.00395659 0.08331880
v 0.00541787 0.01405594 0.08202804
v 0.00406574 0.01406124 0.08202804
v 0.00235595 0.01406301 0.08202804
v 0.00577704 0.01397637 0.08331880
v 0.00748682 -0.00379038 0.08202804
v 0.00918152 -0.00358704 0.08202804
v 0.00748682 -0.00363301 0.08331880
v 0.00577704 0.01405240 0.08202804
v 0.00696921 0.01397637 0.08202804
v 0.00712766 0.01374120 0.08331880
v 0.00840133 0.01379601 0.08202804
v 0.00837869 0.01379955 0.08202804
v 0.00918152 -0.00323694 0.08331880
v 0.00918152 0.01361566 0.08202804
v 0.00882538 0.01332921 0.08331880
v 0.00918152 0.01315593 0.08331880
v 0.00883896 0.01332568 0.08331880
v 0.00912417 0.01318953 0.08331880
v 0.00917850 0.01316300 0.08331880
v 0.00918152 0.01328147 0.08297652
v 0.00918152 0.01317715 0.08327243
f 2 3 1
f 2 7 3
f 58 65 59
f 59 52 58
f 16 15 23
f 7 15 16
f 1 3 4
f 58 52 57
f 52 51 57
f 3 7 8
f 7 16 8
f 5 4 9
f 1 4 5
f 27 17 26
f 18 17 27
f 40 39 50
f 30 31 21
f 30 40 31
f 39 40 30
f 13 14 6
f 10 5 9
f 9 17 10
f 10 17 18
f 20 29 28
f 20 28 19
f 28 29 37
f 48 44 37
f 56 60 53
f 49 53 54
f 56 53 49
f 61 60 56
f 56 64 61
f 56 62 63
f 63 64 56
f 63 62 66
f 66 62 67
f 67 69 66
f 12 13 6
f 14 13 22
f 22 13 21
f 21 31 22
f 32 33 25
f 42 51 52
f 26 35 36
f 36 27 26
f 11 20 19
f 19 12 11
f 11 12 6
f 55 49 54
f 73 71 68
f 66 69 70
f 70 71 66
f 24 32 25
f 24 25 16
f 24 16 23
f 25 33 34
f 51 42 41
f 43 36 35
f 28 37 38
f 37 47 38
f 46 47 37
f 66 71 72
f 71 73 72
f 45 37 44
f 45 46 37
f 39 49 55
f 50 39 55
f 41 66 58
f 1 6 41
f 60 61 41
f 6 14 41
f 41 2 1
f 23 15 41
f 7 2 41
f 41 15 7
f 58 57 41
f 41 40 50
f 50 55 41
f 41 63 66
f 41 57 51
f 41 22 31
f 41 53 60
f 31 40 41
f 41 24 23
f 54 53 41
f 41 61 64
f 64 63 41
f 14 22 41
f 33 32 41
f 41 55 54
f 32 24 41
f 42 34 41
f 41 34 33
f 43 6 1
f 48 37 43
f 1 5 43
f 43 10 18
f 18 27 43
f 43 11 6
f 5 10 43
f 29 20 43
f 43 37 29
f 27 36 43
f 20 11 43
f 43 35 44
f 43 44 48
f 58 66 72
f 72 65 58
f 68 65 72
f 72 73 68
f 45 65 68
f 45 12 19
f 45 59 65
f 45 4 3
f 56 49 45
f 45 67 62
f 3 8 45
f 19 28 45
f 52 59 45
f 45 30 21
f 9 4 45
f 26 17 45
f 45 35 26
f 45 62 56
f 16 25 45
f 45 8 16
f 45 17 9
f 45 42 52
f 39 30 45
f 68 71 45
f 21 13 45
f 44 35 45
f 45 49 39
f 25 34 45
f 69 67 45
f 13 12 45
f 45 70 69
f 28 38 45
f 71 70 45
f 45 34 42
f 45 38 47
f 47 46 45

