# https://github.com/mikedh/trimesh
v 0.01262288 0.03309113 0.05856155
v -0.00296091 0.03309113 0.05856155
v 0.01262288 0.02895580 0.05856155
v 0.01262288 0.03309113 0.03840659
v -0.00296091 0.02895580 0.05856155
v -0.00296091 0.03309113 0.03771652
v 0.01262288 0.02895580 0.03888433
v 0.01262288 0.03213048 0.03780635
v 0.01261831 0.03309113 0.03770427
v -0.00296091 0.02895580 0.03778185
v 0.00064673 0.02895580 0.03774510
v -0.00114565 0.02895580 0.03775123
v 0.01261831 0.02895580 0.03783902
v 0.01262288 0.03041400 0.03783697
v 0.01262288 0.03212359 0.03780635
v 0.00746998 0.02895580 0.03776756
v 0.00577675 0.02895580 0.03774714
v 0.00407590 0.02895580 0.03774510
f 14 13 9
f 9 13 16
f 16 17 9
f 11 6 9
f 9 4 8
f 13 14 7
f 9 17 18
f 18 11 9
f 10 6 12
f 6 11 12
f 15 14 9
f 9 8 15
f 5 1 2
f 5 3 1
f 1 4 6
f 2 1 6
f 6 4 9
f 6 5 2
f 10 5 6
f 3 5 12
f 12 5 10
f 12 18 17
f 12 16 13
f 17 16 12
f 12 7 3
f 13 7 12
f 11 18 12
f 15 4 1
f 1 3 15
f 15 8 4
f 3 7 15
f 15 7 14

