# https://github.com/mikedh/trimesh
v 0.01410376 -0.01226285 0.02580820
v 0.02173375 -0.01226285 0.02580820
v 0.01410376 -0.01226285 0.02713853
v 0.01410376 -0.00052840 0.02580820
v 0.02300461 -0.00721036 0.02713853
v 0.02238844 -0.00878068 0.02713853
v 0.02132096 -0.01226285 0.02614078
v 0.02598320 0.00133957 0.02580820
v 0.02599282 0.00133957 0.02651295
v 0.02599523 0.00133957 0.02713853
v 0.01852410 -0.01226285 0.02713853
v 0.01410376 0.00099040 0.02713853
v 0.01410376 0.00127661 0.02580937
v 0.01418319 0.00131477 0.02580820
v 0.02178189 -0.00947711 0.02713853
v 0.01954103 -0.01226285 0.02688890
v 0.02090697 -0.01035100 0.02713853
v 0.02636590 0.00305109 0.02580820
v 0.02639117 0.00305109 0.02651295
v 0.02639719 0.00305109 0.02713853
v 0.01946160 -0.01226285 0.02691117
v 0.01512310 0.00577005 0.02713853
v 0.01410376 0.00115831 0.02638364
v 0.01511949 0.00602382 0.02580820
v 0.02637793 0.00375515 0.02580820
v 0.02635025 0.00476069 0.02580820
v 0.02636710 0.00413676 0.02713853
v 0.01570558 0.00622607 0.02713853
v 0.01604135 0.00678703 0.02580820
v 0.01565142 0.00648175 0.02580820
v 0.02634303 0.00476069 0.02651295
v 0.02613483 0.00541706 0.02580820
v 0.02631656 0.00476069 0.02713853
v 0.01604135 0.00642069 0.02713853
v 0.01712567 0.00676032 0.02713853
v 0.01775148 0.00722970 0.02580820
v 0.02580388 0.00621271 0.02580820
v 0.02597959 0.00556970 0.02713853
v 0.01775148 0.00690915 0.02713853
v 0.01902956 0.00722397 0.02580820
v 0.02577981 0.00598184 0.02713853
v 0.02459199 0.00693395 0.02580820
v 0.01883580 0.00689961 0.02713853
v 0.02241973 0.00720489 0.02580820
v 0.02072765 0.00721634 0.02580820
v 0.02459199 0.00659241 0.02713853
v 0.02378566 0.00706179 0.02580820
v 0.01946160 0.00689388 0.02713853
v 0.02288186 0.00719726 0.02580820
v 0.02117053 0.00687480 0.02713853
v 0.02288186 0.00685000 0.02713853
f 24 14 13
f 13 14 4
f 22 24 13
f 41 37 42
f 42 46 41
f 47 46 42
f 47 51 46
f 49 51 47
f 21 17 11
f 16 17 21
f 7 17 16
f 7 2 6
f 6 2 5
f 2 10 5
f 12 22 23
f 23 22 13
f 24 22 30
f 30 22 29
f 25 26 20
f 36 39 40
f 39 45 40
f 44 45 39
f 44 51 49
f 15 7 6
f 17 7 15
f 2 8 9
f 9 10 2
f 20 10 9
f 29 34 35
f 36 29 35
f 35 39 36
f 29 22 28
f 28 34 29
f 18 25 19
f 19 25 20
f 19 8 18
f 20 9 19
f 19 9 8
f 37 33 32
f 37 41 38
f 38 33 37
f 20 26 27
f 51 44 50
f 26 32 31
f 31 32 33
f 33 27 31
f 31 27 26
f 48 50 44
f 43 44 39
f 43 48 44
f 7 11 3
f 7 3 1
f 1 2 7
f 7 21 11
f 16 21 7
f 1 3 23
f 3 12 23
f 23 4 1
f 13 4 23
f 32 29 36
f 32 2 1
f 1 4 32
f 32 47 42
f 24 30 32
f 14 24 32
f 42 37 32
f 32 25 18
f 32 4 14
f 18 8 32
f 32 44 49
f 36 40 32
f 49 47 32
f 32 8 2
f 32 30 29
f 26 25 32
f 32 40 45
f 45 44 32
f 43 12 3
f 43 38 41
f 3 11 43
f 6 5 43
f 43 10 20
f 43 15 6
f 11 17 43
f 20 27 43
f 43 22 12
f 43 41 46
f 46 51 43
f 43 5 10
f 39 35 43
f 43 28 22
f 17 15 43
f 43 35 34
f 34 28 43
f 33 38 43
f 43 27 33
f 51 50 43
f 50 48 43

