# https://github.com/mikedh/trimesh
v 0.01470606 0.03383963 0.02580820
v 0.01493500 0.03383963 0.02822724
v 0.01794012 0.03383963 0.02580820
v 0.01515350 0.02951659 0.02580820
v 0.01515477 0.02952184 0.02586929
v 0.01512215 0.03096693 0.02822346
v 0.01512215 0.03096955 0.02822724
v 0.01793410 0.03383963 0.02822724
v 0.01794075 0.03383963 0.02651218
v 0.01791194 0.03213025 0.02580820
v 0.01604015 0.02937724 0.02580820
v 0.01604015 0.02945980 0.02609732
v 0.01604015 0.03028195 0.02822724
v 0.01794043 0.03383570 0.02822724
v 0.01794043 0.03383963 0.02822346
v 0.01748191 0.03034529 0.02580820
v 0.01788090 0.03213025 0.02822346
v 0.01682104 0.02939908 0.02580820
v 0.01699520 0.02946810 0.02603244
v 0.01735809 0.03059036 0.02822724
v 0.01787964 0.03212719 0.02822724
v 0.01702497 0.02942355 0.02580820
f 10 3 9
f 9 14 10
f 7 2 1
f 4 5 1
f 11 5 4
f 12 5 11
f 17 10 14
f 1 5 6
f 6 7 1
f 15 8 14
f 15 14 9
f 21 17 14
f 19 22 20
f 20 22 16
f 16 21 20
f 17 21 16
f 10 17 16
f 7 6 13
f 13 19 20
f 12 19 13
f 5 12 13
f 13 6 5
f 22 19 18
f 18 12 11
f 18 19 12
f 15 3 1
f 1 2 15
f 9 3 15
f 2 8 15
f 13 8 2
f 2 7 13
f 20 21 13
f 14 8 13
f 13 21 14
f 1 3 18
f 18 4 1
f 3 10 18
f 11 4 18
f 10 16 18
f 18 16 22

