# https://github.com/mikedh/trimesh
v 0.01497801 0.03213022 0.02304669
v 0.01506804 0.03041977 0.02480227
v 0.01506141 0.03142541 0.02580820
v 0.01505477 0.03213022 0.02580820
v 0.01505477 0.03213141 0.02580820
v 0.01498609 0.03213141 0.02309211
v 0.01506487 0.03213141 0.02304669
v 0.01511046 0.02884426 0.02304669
v 0.01509748 0.03042930 0.02580820
v 0.01791168 0.03213141 0.02580820
v 0.01792553 0.03213141 0.02309130
v 0.01792582 0.03213022 0.02304669
v 0.01511219 0.02881688 0.02304669
v 0.01515346 0.02951653 0.02580820
v 0.01792438 0.03213141 0.02480146
v 0.01791168 0.03213022 0.02580820
v 0.01792438 0.03213022 0.02480227
v 0.01784935 0.03041977 0.02304669
v 0.01575053 0.02815571 0.02304669
v 0.01604026 0.02807714 0.02304669
v 0.01604026 0.02937684 0.02580820
v 0.01766581 0.03041977 0.02480227
v 0.01784559 0.03041977 0.02309211
v 0.01748199 0.03034477 0.02580820
v 0.01733337 0.02866647 0.02304669
v 0.01731317 0.02862400 0.02304669
v 0.01702517 0.02942327 0.02580820
v 0.01682115 0.02939906 0.02580820
f 6 7 1
f 1 5 6
f 12 7 11
f 8 2 1
f 1 2 3
f 12 11 15
f 24 25 22
f 26 27 20
f 24 27 26
f 26 25 24
f 28 21 20
f 20 27 28
f 4 5 1
f 1 3 4
f 13 19 14
f 14 8 13
f 14 19 20
f 20 21 14
f 17 18 12
f 12 15 17
f 17 15 10
f 24 22 16
f 16 17 10
f 18 17 16
f 25 18 23
f 23 22 25
f 18 16 23
f 23 16 22
f 9 3 2
f 2 8 9
f 8 14 9
f 5 10 15
f 15 6 5
f 7 6 15
f 15 11 7
f 20 19 26
f 1 7 26
f 26 7 12
f 12 18 26
f 26 8 1
f 26 18 25
f 26 19 13
f 13 8 26
f 9 14 21
f 9 10 5
f 9 27 24
f 21 28 9
f 5 4 9
f 9 28 27
f 9 4 3
f 24 16 9
f 9 16 10

