# https://github.com/mikedh/trimesh
v 0.01262065 0.03510375 0.01489816
v 0.01396792 0.03509764 0.01489816
v 0.01396792 0.03502431 0.01475253
v 0.01262065 0.03502890 0.01475156
v 0.01262065 0.02791432 0.01489816
v 0.01396792 0.02709241 0.01489816
v 0.01396792 0.03467599 0.01407837
v 0.01396792 0.03458127 0.01389705
v 0.01262065 0.03457975 0.01389609
v 0.01262065 0.01949814 0.01194691
v 0.01396792 0.01949814 0.01252173
v 0.01396792 0.03397324 0.01282843
v 0.01262065 0.03397172 0.01282747
v 0.01262065 0.01949814 0.00504620
v 0.01396792 0.01949814 0.00504620
v 0.01396792 0.03338966 0.01182828
v 0.01262065 0.03323230 0.01155920
v 0.01262065 0.02420961 0.00504620
v 0.01396792 0.02325173 0.00504620
v 0.01396792 0.03323230 0.01156017
v 0.01396792 0.03271899 0.01070372
v 0.01396792 0.03194138 0.00940845
v 0.01262065 0.03193985 0.00940749
v 0.01396792 0.02870874 0.00630964
v 0.01262065 0.02870874 0.00630964
v 0.01396792 0.03135016 0.00844110
v 0.01262065 0.03135016 0.00844014
v 0.01396792 0.02893331 0.00639066
v 0.01262065 0.02976744 0.00669350
v 0.01396792 0.03062144 0.00758562
v 0.01262065 0.03062144 0.00758466
v 0.01396792 0.02976744 0.00669350
v 0.01396792 0.02994924 0.00688157
f 11 5 10
f 6 5 11
f 30 31 26
f 26 31 27
f 1 2 3
f 31 30 33
f 29 31 33
f 32 29 33
f 26 27 22
f 24 19 18
f 18 25 24
f 17 13 12
f 28 25 29
f 28 29 32
f 28 24 25
f 21 17 20
f 22 17 21
f 23 22 27
f 23 17 22
f 16 17 12
f 20 17 16
f 8 9 4
f 4 7 8
f 3 7 4
f 1 3 4
f 5 6 2
f 5 2 1
f 10 14 15
f 15 11 10
f 14 18 19
f 19 15 14
f 9 8 12
f 12 13 9
f 16 3 2
f 2 6 16
f 32 33 16
f 6 11 16
f 26 22 16
f 11 15 16
f 12 8 16
f 16 21 20
f 16 30 26
f 15 19 16
f 8 7 16
f 16 33 30
f 16 28 32
f 19 24 16
f 16 7 3
f 24 28 16
f 22 21 16
f 4 14 10
f 4 18 14
f 4 5 1
f 10 5 4
f 29 25 4
f 4 31 29
f 4 25 18
f 4 27 31
f 4 23 27
f 13 17 4
f 4 9 13
f 17 23 4

