# https://github.com/mikedh/trimesh
v -0.00740293 0.02457789 0.00503605
v -0.00740293 0.02630895 0.00503605
v -0.00643082 0.02457789 0.00503605
v -0.00740293 0.02457789 0.01406799
v -0.00643082 0.02635241 0.00503605
v -0.00740293 0.02977221 0.00669720
v -0.00643082 0.02457789 0.01329877
v -0.00740293 0.03041899 0.01795960
v -0.00643082 0.02977163 0.00669720
v -0.00740293 0.03041899 0.00736773
v -0.00643082 0.03041899 0.00736773
v -0.00643082 0.03041899 0.01710183
f 8 4 7
f 7 12 8
f 6 5 2
f 6 10 11
f 9 6 11
f 5 6 9
f 1 2 5
f 5 3 1
f 10 12 11
f 8 12 10
f 7 4 1
f 1 3 7
f 1 4 6
f 6 2 1
f 6 4 8
f 8 10 6
f 3 5 9
f 9 7 3
f 11 12 9
f 12 7 9

