# https://github.com/mikedh/trimesh
v -0.02012936 -0.01405519 0.02761314
v -0.02007359 -0.01576474 0.02651444
v -0.02011168 -0.01466495 0.02761314
v -0.02011712 -0.01234564 0.02761314
v -0.02011576 -0.01234564 0.02651616
v -0.02012256 -0.01405519 0.02651444
v -0.02007767 -0.01576474 0.02761314
v -0.01989812 -0.01747613 0.02651444
v -0.00623412 -0.01234564 0.02761314
v -0.01694631 -0.01234564 0.02651444
v -0.02001510 -0.01637450 0.02761314
v -0.01966143 -0.01918568 0.02651444
v -0.01981378 -0.01808589 0.02761314
v -0.01989812 -0.01747613 0.02761314
v -0.00623412 -0.01234564 0.02651444
v -0.00623412 -0.03102173 0.02761314
v -0.01957301 -0.01979544 0.02761314
v -0.01966007 -0.01918568 0.02761314
v -0.01941522 -0.02089707 0.02651444
v -0.01941522 -0.02089707 0.02761314
v -0.00623412 -0.03116174 0.02651444
v -0.00961850 -0.03102173 0.02761314
v -0.00623412 -0.03102542 0.02758980
v -0.01915676 -0.02258452 0.02651444
v -0.01915676 -0.02258636 0.02761314
v -0.00790726 -0.03116174 0.02651444
v -0.01303959 -0.03101989 0.02761314
v -0.01902210 -0.02344113 0.02651444
v -0.01902210 -0.02344113 0.02761314
v -0.01132836 -0.03115990 0.02651444
v -0.01474810 -0.03091489 0.02761314
v -0.01303959 -0.03115621 0.02651444
v -0.01884934 -0.02431617 0.02651444
v -0.01850655 -0.02602572 0.02651444
v -0.01850383 -0.02602572 0.02761314
v -0.01605125 -0.03055750 0.02761314
v -0.01474810 -0.03104937 0.02651444
v -0.01812023 -0.02773711 0.02651444
v -0.01811887 -0.02773711 0.02761314
v -0.01836644 -0.02663733 0.02761314
v -0.01613287 -0.03062198 0.02651444
v -0.01660080 -0.03016696 0.02761314
v -0.01793796 -0.02823635 0.02761314
v -0.01761149 -0.02913718 0.02651444
v -0.01690686 -0.02994405 0.02761314
v -0.01698712 -0.02999379 0.02651444
v -0.01760877 -0.02908744 0.02761314
f 4 5 1
f 6 2 1
f 1 5 6
f 10 6 5
f 43 44 47
f 32 27 31
f 31 37 32
f 36 37 31
f 1 2 3
f 2 7 3
f 14 11 8
f 8 11 7
f 8 7 2
f 29 34 35
f 29 28 33
f 33 34 29
f 39 34 38
f 38 43 39
f 44 43 38
f 16 22 23
f 26 22 27
f 21 23 26
f 26 23 22
f 37 36 41
f 25 28 29
f 25 20 19
f 19 20 12
f 40 34 39
f 40 35 34
f 27 32 30
f 30 26 27
f 28 25 24
f 24 25 19
f 8 12 13
f 14 8 13
f 12 18 13
f 42 41 36
f 42 45 41
f 41 45 46
f 46 45 47
f 47 44 46
f 17 12 20
f 17 18 12
f 10 4 9
f 9 15 10
f 5 4 10
f 9 16 23
f 23 15 9
f 21 15 23
f 46 15 21
f 46 33 28
f 2 6 46
f 46 10 15
f 6 10 46
f 44 38 46
f 21 26 46
f 46 30 32
f 46 8 2
f 46 32 37
f 28 24 46
f 34 33 46
f 46 38 34
f 19 12 46
f 37 41 46
f 46 12 8
f 26 30 46
f 46 24 19
f 17 16 9
f 17 4 1
f 17 40 39
f 9 4 17
f 17 43 47
f 17 22 16
f 17 11 14
f 29 35 17
f 31 27 17
f 1 3 17
f 39 43 17
f 27 22 17
f 17 36 31
f 17 3 7
f 7 11 17
f 47 45 17
f 17 25 29
f 20 25 17
f 35 40 17
f 14 13 17
f 17 42 36
f 17 13 18
f 45 42 17

