# https://github.com/mikedh/trimesh
v 0.01837349 0.03358450 0.06334667
v 0.01798810 0.03555130 0.06334620
v 0.01798826 0.03358450 0.06334667
v 0.01850773 0.03312364 0.06334667
v 0.01820531 0.03459711 0.06334620
v 0.01798815 0.03498658 0.06128386
v 0.01798810 0.03535008 0.06262066
v 0.01798810 0.03358450 0.06334620
v 0.01798815 0.03103351 0.06334667
v 0.01850778 0.03103351 0.06334667
v 0.01850778 0.03103351 0.06025011
v 0.01850773 0.03161121 0.06076441
v 0.01798826 0.03354556 0.05929365
v 0.01798810 0.03358450 0.05956813
v 0.01798815 -0.00914630 0.06334667
v 0.01850778 -0.00914630 0.06334667
v 0.01850778 0.03022861 0.05894891
v 0.01798826 0.03287048 0.05856155
v 0.01798815 0.03103351 0.05856155
v 0.01798815 -0.00914630 0.05856155
v 0.01798826 -0.03076161 0.05901308
v 0.01798826 -0.03069021 0.06334667
v 0.01850773 -0.03053442 0.06334667
v 0.01850773 -0.03061232 0.05901308
v 0.01850778 -0.00914630 0.05856155
v 0.01850778 0.02980020 0.05856155
v 0.01798826 -0.03075512 0.05856155
v 0.01850773 -0.03061232 0.05856155
f 21 22 15
f 15 20 21
f 27 28 21
f 21 20 27
f 24 23 22
f 24 22 21
f 21 28 24
f 2 4 5
f 5 6 2
f 4 6 5
f 2 6 7
f 14 7 6
f 1 4 2
f 2 3 1
f 17 26 18
f 23 24 16
f 9 3 2
f 20 14 19
f 19 14 18
f 13 17 18
f 18 14 13
f 13 14 6
f 12 6 4
f 12 13 6
f 17 13 12
f 11 4 10
f 11 12 4
f 17 12 11
f 14 15 8
f 20 15 14
f 14 8 2
f 2 7 14
f 4 1 9
f 10 4 9
f 22 23 9
f 9 15 22
f 9 16 10
f 9 1 3
f 23 16 9
f 8 15 9
f 2 8 9
f 18 26 25
f 28 27 25
f 25 19 18
f 25 27 20
f 20 19 25
f 10 16 25
f 25 11 10
f 26 17 25
f 17 11 25
f 25 24 28
f 25 16 24

