# https://github.com/mikedh/trimesh
v -0.01052827 -0.02620055 0.01454394
v -0.01847554 -0.02620055 0.01454394
v -0.01052827 -0.02709252 0.01454394
v -0.01052827 -0.02620055 0.00587833
v -0.01847554 -0.02620055 0.01453876
v -0.01807798 -0.02773222 0.01454394
v -0.01056639 -0.03287863 0.01454394
v -0.01052827 -0.02880078 0.00907342
v -0.01125181 -0.02620055 0.00573956
v -0.01052827 -0.02896837 0.00663163
v -0.01843897 -0.02620055 0.01282874
v -0.01807642 -0.02773763 0.01453876
v -0.01807642 -0.02773763 0.01454394
v -0.01112810 -0.03471663 0.01454394
v -0.01071343 -0.03286871 0.01282874
v -0.01052827 -0.02910261 0.00749699
v -0.01303887 -0.02773763 0.00626619
v -0.01457620 -0.02620055 0.00630583
v -0.01132883 -0.02913054 0.00655061
v -0.01122535 -0.03492205 0.01454394
v -0.01152488 -0.03423550 0.01282874
v -0.01183764 -0.03385259 0.01180480
v -0.01169916 -0.03227317 0.00993877
v -0.01165792 -0.03067933 0.00812101
v -0.01831449 -0.02620055 0.01111096
v -0.01796906 -0.02773763 0.01282874
v -0.01756917 -0.02926209 0.01453876
v -0.01756917 -0.02926299 0.01454394
v -0.01468668 -0.02766735 0.00661698
v -0.01303887 -0.02897738 0.00663250
v -0.01407517 -0.02871699 0.00676437
v -0.01474191 -0.02620055 0.00634289
v -0.01303887 -0.03069284 0.00810032
v -0.01303887 -0.02983241 0.00724531
v -0.01138173 -0.03511486 0.01454394
v -0.01267088 -0.03540407 0.01454394
v -0.01239858 -0.03385259 0.01180480
v -0.01266621 -0.03227317 0.00993877
v -0.01827637 -0.02620055 0.01089980
v -0.01757617 -0.02738264 0.00940870
v -0.01769287 -0.02786557 0.01104632
v -0.01749059 -0.02899540 0.01282874
v -0.01723696 -0.03011712 0.01453876
v -0.01723696 -0.03011802 0.01454394
v -0.01571986 -0.02705018 0.00677212
v -0.01410473 -0.03044688 0.00838130
v -0.01465945 -0.02937201 0.00773574
v -0.01521494 -0.02819082 0.00709017
v -0.01584512 -0.02620055 0.00669455
v -0.01304510 -0.03540407 0.01454394
v -0.01795661 -0.02620055 0.00940870
v -0.01791149 -0.02620055 0.00923804
v -0.01741590 -0.02705018 0.00840027
v -0.01727197 -0.02852148 0.01042833
v -0.01739956 -0.02876565 0.01156863
v -0.01671337 -0.03115775 0.01454394
v -0.01636794 -0.02762050 0.00774522
v -0.01655621 -0.02620055 0.00729099
v -0.01524450 -0.03002612 0.00897171
v -0.01587546 -0.02888638 0.00823047
v -0.01331195 -0.03522118 0.01454394
v -0.01750304 -0.02620055 0.00827615
v -0.01705802 -0.02823767 0.00940870
v -0.01591436 -0.03069195 0.01111786
v -0.01573309 -0.03217496 0.01338812
v -0.01593459 -0.03249661 0.01453876
v -0.01593459 -0.03249841 0.01454394
v -0.01569107 -0.03040183 0.01011201
v -0.01408995 -0.03389854 0.01343552
v -0.01613531 -0.02945309 0.00948885
v -0.01441204 -0.03428506 0.01454394
v -0.01527018 -0.03335164 0.01453876
v -0.01527095 -0.03335344 0.01454394
v -0.01545378 -0.03186232 0.01224695
f 52 62 53
f 53 62 58
f 58 45 53
f 58 49 45
f 8 3 7
f 7 16 8
f 63 54 53
f 63 64 54
f 60 63 53
f 60 48 47
f 46 60 47
f 22 35 36
f 71 73 72
f 74 71 72
f 54 64 65
f 65 72 73
f 42 41 55
f 54 56 55
f 53 54 40
f 54 55 40
f 40 55 41
f 51 52 40
f 40 52 53
f 40 41 25
f 9 17 18
f 31 48 45
f 31 17 30
f 31 30 34
f 47 48 31
f 34 46 31
f 31 46 47
f 63 60 70
f 57 60 53
f 48 60 57
f 53 45 57
f 45 48 57
f 60 46 59
f 14 15 7
f 10 16 7
f 7 15 10
f 15 14 10
f 9 4 10
f 33 46 34
f 66 73 67
f 66 65 73
f 54 65 66
f 67 56 66
f 66 56 54
f 12 13 6
f 6 11 12
f 43 27 42
f 42 55 43
f 43 56 44
f 43 55 56
f 26 27 12
f 26 11 25
f 12 11 26
f 42 27 26
f 26 41 42
f 25 41 26
f 28 13 12
f 12 27 28
f 51 40 39
f 39 40 25
f 45 49 32
f 29 31 45
f 17 31 29
f 45 32 29
f 29 32 18
f 29 18 17
f 68 70 60
f 60 59 68
f 68 71 74
f 68 65 64
f 64 63 68
f 63 70 68
f 68 69 71
f 59 69 68
f 74 72 68
f 72 65 68
f 20 10 14
f 35 22 21
f 22 10 21
f 21 20 35
f 10 20 21
f 37 50 46
f 46 33 37
f 5 6 2
f 11 6 5
f 71 69 61
f 46 50 61
f 61 59 46
f 61 69 59
f 33 24 23
f 23 10 22
f 23 24 10
f 10 24 19
f 34 30 19
f 19 33 34
f 19 24 33
f 9 10 19
f 19 17 9
f 30 17 19
f 38 37 33
f 33 23 38
f 1 3 10
f 3 8 10
f 10 8 16
f 10 4 1
f 28 43 44
f 27 43 28
f 36 50 37
f 37 22 36
f 2 1 5
f 5 58 62
f 1 4 5
f 62 52 5
f 5 52 51
f 9 18 5
f 5 32 49
f 49 58 5
f 5 4 9
f 25 11 5
f 51 39 5
f 5 39 25
f 18 32 5
f 61 3 1
f 61 1 2
f 61 14 7
f 67 73 61
f 7 3 61
f 36 35 61
f 61 56 67
f 61 50 36
f 44 56 61
f 61 73 71
f 2 6 61
f 35 20 61
f 61 28 44
f 61 6 13
f 13 28 61
f 61 20 14
f 22 37 38
f 38 23 22

