# https://github.com/mikedh/trimesh
v 0.00925702 -0.01233492 0.04555124
v 0.00925702 -0.01233435 0.04572826
v 0.01089836 -0.01233435 0.04556143
v 0.01090996 -0.01233435 0.04556143
v 0.01774843 -0.01807667 0.04586071
v 0.00919776 -0.01807667 0.04583142
v 0.00919647 -0.01747411 0.04583014
v 0.00919647 -0.01403861 0.04582760
v 0.00925702 -0.01233435 0.05856027
v 0.01262086 -0.01233435 0.04559963
v 0.01946063 -0.01807667 0.04589127
v 0.01835266 -0.01807667 0.04586707
v 0.00919647 -0.01807667 0.04857331
v 0.00919647 -0.01403861 0.05856155
v 0.02090099 -0.01233435 0.05856027
v 0.01946063 -0.01233435 0.04589382
v 0.01987676 -0.01807667 0.04594858
v 0.00919647 -0.01807667 0.05856155
v 0.02090228 -0.01403861 0.05856155
v 0.02090228 -0.01233435 0.05855391
v 0.02053123 -0.01233435 0.04606192
v 0.02059050 -0.01807667 0.04605428
v 0.02090228 -0.01807667 0.05856155
v 0.02199994 -0.01807667 0.05287654
v 0.02199736 -0.01233435 0.05284470
v 0.02053897 -0.01233435 0.04606447
v 0.02089068 -0.01807667 0.04626441
v 0.02215325 -0.01807667 0.05202456
v 0.02213263 -0.01233435 0.05198380
v 0.02139055 -0.01233435 0.04684387
v 0.02144595 -0.01807667 0.04674835
v 0.02233104 -0.01807667 0.05046067
v 0.02226662 -0.01233435 0.05045176
v 0.02211846 -0.01233435 0.04769840
v 0.02217773 -0.01807667 0.04760289
v 0.02170491 -0.01807667 0.04704890
v 0.02235809 -0.01807667 0.04875160
v 0.02225503 -0.01233435 0.04874524
v 0.02212104 -0.01234335 0.04770604
v 0.02226018 -0.01807667 0.04804734
f 7 8 1
f 1 8 2
f 3 1 2
f 4 1 3
f 11 12 4
f 6 13 7
f 7 1 6
f 39 40 35
f 35 34 39
f 37 40 39
f 30 34 35
f 24 19 23
f 5 6 1
f 5 1 4
f 4 12 5
f 25 24 28
f 28 29 25
f 36 30 35
f 36 31 30
f 17 16 22
f 11 16 17
f 26 27 22
f 31 27 26
f 30 31 26
f 10 11 4
f 10 16 11
f 38 39 34
f 37 39 38
f 38 33 37
f 37 33 32
f 32 33 29
f 32 29 28
f 24 25 20
f 15 19 20
f 19 24 20
f 22 16 21
f 21 26 22
f 9 8 14
f 2 8 9
f 13 18 14
f 13 8 7
f 14 8 13
f 19 9 14
f 15 9 19
f 14 18 19
f 18 23 19
f 32 17 22
f 18 13 32
f 32 5 12
f 32 40 37
f 32 23 18
f 32 36 35
f 35 40 32
f 13 6 32
f 12 11 32
f 32 24 23
f 28 24 32
f 6 5 32
f 22 27 32
f 32 27 31
f 31 36 32
f 11 17 32
f 2 9 21
f 21 9 15
f 21 10 4
f 21 3 2
f 4 3 21
f 34 30 21
f 30 26 21
f 21 38 34
f 29 33 21
f 21 25 29
f 15 20 21
f 16 10 21
f 33 38 21
f 21 20 25

