# https://github.com/mikedh/trimesh
v -0.00738674 0.02772121 0.05856155
v -0.01813106 0.02772121 0.05856155
v -0.00738674 0.01975618 0.05856155
v -0.00738674 0.02772121 0.03765165
v -0.01818680 0.02772121 0.05802408
v -0.01814593 0.01975618 0.05842022
v -0.01813106 0.01975618 0.05856155
v -0.00738674 0.01975618 0.03668591
v -0.00738674 0.02771965 0.03673302
v -0.00740284 0.02772121 0.03671375
v -0.01843698 0.02772121 0.05559155
v -0.01830322 0.01975618 0.05689989
v -0.02003841 0.01975618 0.03668591
v -0.00738674 0.02509297 0.03668591
v -0.00740904 0.02772121 0.03668591
v -0.01860666 0.02772121 0.05388064
v -0.01843698 0.01975618 0.05559155
v -0.02003717 0.02528788 0.03668591
v -0.02003593 0.01975618 0.03675658
v -0.02003470 0.02357808 0.03677799
v -0.02003593 0.02772121 0.03668591
v -0.01870327 0.02772121 0.05289136
v -0.01864630 0.01975618 0.05348022
v -0.01860666 0.01975618 0.05388064
v -0.02003346 0.02772121 0.03677799
v -0.01994304 0.02772121 0.03848676
v -0.01996162 0.01975618 0.03808633
v -0.01994304 0.02528788 0.03848676
v -0.01893859 0.02528788 0.05045883
v -0.01881226 0.01975618 0.05176931
v -0.01902281 0.02772121 0.04958089
v -0.01989226 0.02772121 0.03921052
v -0.01993809 0.01975618 0.03848676
v -0.01993933 0.02015771 0.03848676
v -0.01982167 0.02699846 0.04019766
v -0.01895841 0.01975618 0.05025326
v -0.01902281 0.02186751 0.04958303
v -0.01906740 0.02772121 0.04908625
v -0.01910084 0.02699846 0.04872436
v -0.01910084 0.02528788 0.04872651
v -0.01904139 0.01975618 0.04938175
v -0.01982167 0.02772121 0.04019766
v -0.01980433 0.01975618 0.04019766
v -0.01981052 0.02186751 0.04019766
v -0.01981547 0.02357808 0.04019766
v -0.01981919 0.02528788 0.04019766
v -0.01976469 0.02772121 0.04092143
v -0.01902281 0.01975618 0.04958303
v -0.01909960 0.02772121 0.04872436
v -0.01918382 0.02772121 0.04775007
v -0.01924822 0.02528788 0.04704129
v -0.01924946 0.02357808 0.04704129
v -0.01925070 0.02186751 0.04704129
v -0.01910084 0.01975618 0.04872651
v -0.01953557 0.01975618 0.04361948
v -0.01943153 0.01975618 0.04492996
v -0.01968419 0.02772121 0.04190857
v -0.01924575 0.02699846 0.04704129
v -0.01939809 0.02015771 0.04533039
v -0.01925070 0.01975618 0.04704129
v -0.01939809 0.01975618 0.04533039
f 15 9 14
f 10 4 9
f 10 9 15
f 13 20 18
f 19 20 13
f 20 19 26
f 24 16 23
f 17 12 11
f 40 39 53
f 56 61 57
f 57 61 59
f 28 26 19
f 19 27 28
f 20 26 25
f 21 18 25
f 25 18 20
f 46 55 56
f 45 55 46
f 34 27 33
f 34 28 27
f 45 46 34
f 6 7 2
f 5 11 12
f 12 6 5
f 5 6 2
f 50 39 49
f 52 59 53
f 53 39 52
f 26 28 32
f 56 57 47
f 47 46 56
f 35 34 46
f 35 47 42
f 46 47 35
f 28 34 35
f 42 32 35
f 35 32 28
f 43 34 33
f 41 40 54
f 51 57 59
f 59 52 51
f 39 50 51
f 51 52 39
f 44 43 55
f 44 55 45
f 45 34 44
f 34 43 44
f 39 40 31
f 40 41 31
f 58 50 57
f 57 51 58
f 58 51 50
f 37 41 48
f 37 31 41
f 29 31 37
f 49 39 38
f 39 31 38
f 36 30 29
f 36 37 48
f 29 37 36
f 22 30 23
f 23 16 22
f 29 30 22
f 22 31 29
f 7 3 1
f 1 2 7
f 3 8 14
f 1 3 14
f 14 4 1
f 9 4 14
f 18 8 13
f 18 14 8
f 18 21 15
f 15 14 18
f 61 60 53
f 53 59 61
f 11 24 17
f 16 24 11
f 60 54 40
f 53 60 40
f 36 8 3
f 13 8 36
f 3 7 36
f 33 27 36
f 36 54 60
f 36 24 23
f 36 19 13
f 7 6 36
f 60 61 36
f 36 41 54
f 36 27 19
f 36 61 56
f 36 12 17
f 17 24 36
f 56 55 36
f 36 6 12
f 36 43 33
f 55 43 36
f 48 41 36
f 23 30 36
f 22 2 1
f 15 21 22
f 22 10 15
f 1 4 22
f 4 10 22
f 22 5 2
f 21 25 22
f 42 47 22
f 22 50 49
f 16 11 22
f 22 32 42
f 22 25 26
f 11 5 22
f 57 50 22
f 26 32 22
f 22 47 57
f 49 38 22
f 22 38 31

