# https://github.com/mikedh/trimesh
v -0.00447500 0.01006462 -0.00094078
v -0.00447500 0.01006462 -0.00077059
v -0.00447500 0.01231653 -0.00094078
v 0.01261748 0.01006462 -0.00094078
v -0.00352781 0.01006462 0.01372786
v -0.00447500 0.01006727 0.01372497
v -0.00447500 0.01232094 -0.00072731
v -0.00349171 0.01232094 -0.00094078
v 0.01261748 0.01232094 -0.00094078
v 0.01308678 0.01006462 -0.00089030
v 0.01308678 0.01006462 0.01379420
v 0.01308678 0.01232094 0.01303264
v -0.00447500 0.01232094 0.01283504
v 0.01308678 0.01232094 -0.00089030
f 11 12 6
f 11 6 5
f 13 6 12
f 8 3 7
f 2 5 6
f 14 11 10
f 14 12 11
f 10 4 14
f 14 4 9
f 8 4 1
f 1 3 8
f 9 4 8
f 8 14 9
f 12 14 8
f 7 13 8
f 8 13 12
f 2 3 1
f 2 13 7
f 7 3 2
f 6 13 2
f 10 11 2
f 1 4 2
f 2 4 10
f 11 5 2

