# https://github.com/mikedh/trimesh
v 0.00651385 -0.02797499 0.02761331
v 0.01092785 -0.02627670 0.02761331
v 0.01092785 -0.02529522 0.02929876
v 0.00758019 -0.02655240 0.02929876
v 0.00651385 -0.02690529 0.02929876
v 0.00651385 0.00019016 0.02761331
v 0.01092785 0.00018741 0.02761331
v 0.01092785 0.00010194 0.02929876
v 0.00651385 0.00010470 0.02929876
v 0.00940179 0.00019016 0.02761331
v 0.00940179 0.00010470 0.02929876
f 1 2 3
f 1 3 4
f 4 5 1
f 9 6 1
f 1 5 9
f 1 6 10
f 10 2 1
f 10 7 2
f 6 9 10
f 9 11 10
f 8 9 5
f 8 4 3
f 5 4 8
f 8 11 9
f 2 7 8
f 8 3 2
f 7 10 8
f 8 10 11

