# https://github.com/mikedh/trimesh
v 0.02315930 -0.00308235 0.08980212
v 0.02310127 -0.00308235 0.09011843
v 0.02312733 -0.00379088 0.08980212
v 0.02307876 -0.00379088 0.08880817
v 0.02307758 -0.00308235 0.08880817
v 0.02306929 -0.00379088 0.09011843
v 0.01105922 -0.00308235 0.09011843
v 0.02293189 -0.00550120 0.08980212
v 0.02281582 -0.00721082 0.08880817
v 0.02297927 -0.00550120 0.08880817
v 0.01105922 -0.00308235 0.08880817
v 0.02282648 -0.00548248 0.09011843
v 0.01105922 -0.00518506 0.09011843
v 0.02263460 -0.00721082 0.08980212
v 0.02243207 -0.01016419 0.08880817
v 0.02261210 -0.00886360 0.08880817
v 0.01105922 -0.00820498 0.08880817
v 0.02249839 -0.00721082 0.09011843
v 0.01105922 -0.00721082 0.08980212
v 0.01106751 -0.00689469 0.09011843
v 0.02224848 -0.01016419 0.08938961
v 0.01107580 -0.01016419 0.08880817
v 0.01106395 -0.00991530 0.08880817
v 0.02222006 -0.00854538 0.09011843
v 0.01106988 -0.00892114 0.08980212
v 0.01112317 -0.00863828 0.09011843
v 0.02157099 -0.01016419 0.09011843
v 0.01112673 -0.01016419 0.08980212
v 0.01120727 -0.01016419 0.09011843
f 1 4 5
f 15 16 8
f 8 16 9
f 9 10 3
f 3 8 9
f 3 10 4
f 3 4 1
f 3 6 8
f 27 21 24
f 24 21 18
f 8 6 12
f 2 3 1
f 6 3 2
f 8 12 14
f 14 21 15
f 15 8 14
f 14 12 18
f 18 21 14
f 17 23 19
f 19 23 25
f 28 23 22
f 25 23 28
f 26 28 29
f 25 28 26
f 20 19 25
f 25 26 20
f 19 20 13
f 2 5 11
f 1 5 2
f 2 11 7
f 15 22 23
f 23 5 4
f 23 16 15
f 11 5 23
f 4 10 23
f 9 16 23
f 23 10 9
f 23 17 11
f 28 22 15
f 15 21 28
f 28 21 27
f 27 29 28
f 7 11 13
f 11 17 13
f 17 19 13
f 13 29 27
f 13 2 7
f 18 12 13
f 27 24 13
f 13 24 18
f 13 12 6
f 6 2 13
f 13 26 29
f 13 20 26

