# https://github.com/mikedh/trimesh
v 0.00918152 -0.03094078 0.06805544
v 0.01097739 -0.03094078 0.06805544
v 0.00918152 -0.03094078 0.06922742
v 0.00918152 0.04065537 0.06805544
v 0.01097739 -0.03094078 0.06922742
v 0.01097739 0.04231906 0.06805544
v 0.00918152 0.04218998 0.06922742
v 0.00918627 0.04231906 0.06805544
v 0.01097739 0.04125057 0.06922742
v 0.01097651 0.04225453 0.06922742
v 0.01097739 0.04225453 0.06922662
v 0.00918187 0.04225453 0.06922742
f 8 7 12
f 7 8 4
f 6 10 11
f 9 11 10
f 5 3 1
f 1 2 5
f 6 8 10
f 10 8 12
f 4 2 1
f 4 6 2
f 4 8 6
f 1 3 4
f 3 7 4
f 3 5 9
f 9 7 3
f 12 7 9
f 9 10 12
f 9 5 2
f 2 6 9
f 6 11 9

