# https://github.com/mikedh/trimesh
v 0.01310363 0.02772121 0.05856155
v -0.00738537 0.02772121 0.05856155
v 0.01310363 0.01975618 0.05856155
v 0.01310363 0.02772121 0.03786837
v -0.00738537 0.01975618 0.05856155
v -0.00738537 0.02772121 0.03765230
v 0.01310363 0.01975618 0.04023687
v 0.01310363 0.02748575 0.03786837
v 0.01253003 0.02362252 0.03733650
v 0.01234953 0.02530270 0.03733650
v 0.01192635 0.02615331 0.03733650
v 0.01166763 0.02644958 0.03733650
v 0.01089749 0.02716843 0.03733650
v 0.00919676 0.02750758 0.03733650
v 0.00735163 0.02772121 0.03733650
v -0.00738537 0.01975618 0.03733650
v -0.00679172 0.02772121 0.03744661
v -0.00738537 0.02771887 0.03733650
v 0.01310363 0.02372466 0.03879499
v 0.01244179 0.01975618 0.03733650
v 0.01310363 0.02697975 0.03787045
v -0.00258401 0.02772121 0.03733650
v 0.01310363 0.02526138 0.03830052
f 7 20 19
f 21 20 9
f 15 4 14
f 4 13 14
f 10 4 9
f 9 4 8
f 8 21 9
f 19 20 23
f 20 21 23
f 18 6 17
f 17 22 18
f 4 10 11
f 12 13 4
f 4 11 12
f 5 3 1
f 5 1 2
f 3 5 7
f 7 5 16
f 16 20 7
f 6 5 2
f 16 5 6
f 6 18 16
f 1 3 23
f 23 4 1
f 3 7 23
f 23 7 19
f 23 8 4
f 21 8 23
f 2 1 17
f 1 4 17
f 17 4 15
f 17 6 2
f 15 22 17
f 12 20 16
f 16 18 12
f 9 20 12
f 15 14 12
f 12 22 15
f 18 22 12
f 12 14 13
f 12 10 9
f 12 11 10

