# https://github.com/mikedh/trimesh
v 0.01092785 -0.01845033 0.02838050
v 0.01144862 -0.01845033 0.02838050
v 0.01092785 -0.01845033 0.02923525
v 0.01092785 -0.01438590 0.02838050
v 0.01148592 -0.01845033 0.02923525
v 0.01355638 -0.01647739 0.02838050
v 0.01092785 -0.01438590 0.02923525
v 0.01355638 -0.01438590 0.02838050
v 0.01355638 -0.01650285 0.02917299
v 0.01355638 -0.01650484 0.02923525
v 0.01355638 -0.01438590 0.02923525
f 6 5 2
f 9 10 5
f 9 5 6
f 7 4 1
f 1 3 7
f 7 8 4
f 11 8 7
f 1 4 2
f 2 8 6
f 4 8 2
f 2 3 1
f 2 5 3
f 11 7 10
f 3 5 10
f 10 7 3
f 6 8 9
f 9 8 11
f 11 10 9

