# https://github.com/mikedh/trimesh
v -0.00706828 0.01006462 0.01443229
v -0.00706828 0.01006462 0.00476802
v -0.00706828 0.01145185 0.01404094
v -0.00766009 0.01232072 0.02580820
v -0.00766009 0.01006462 0.02580820
v -0.01599487 0.01006462 0.00476802
v -0.00706828 0.01232072 0.00476802
v -0.00706828 0.01232072 0.01332827
v -0.01948111 0.01232072 0.02580820
v -0.01944055 0.01006462 0.02580820
v -0.01605063 0.01160403 0.00476802
v -0.01830635 0.01006462 0.00941066
v -0.01605063 0.01232072 0.00476802
v -0.01998041 0.01232072 0.02038492
v -0.01999561 0.01006462 0.01812951
v -0.01830889 0.01160403 0.00941066
v -0.01836465 0.01006462 0.00953425
v -0.01830889 0.01232072 0.00941066
v -0.01999561 0.01232072 0.01966814
v -0.02001462 0.01232072 0.01867534
v -0.01999815 0.01006462 0.01795856
v -0.01888423 0.01160403 0.01065680
v -0.01888296 0.01006462 0.01066092
v -0.01888423 0.01232072 0.01065680
v -0.02000195 0.01232072 0.01795856
v -0.02000575 0.01160403 0.01795856
v -0.01994239 0.01006462 0.01641787
v -0.01917443 0.01006462 0.01151571
v -0.01917443 0.01160403 0.01151159
v -0.01917443 0.01232072 0.01151159
v -0.01993479 0.01232072 0.01624692
v -0.01993605 0.01006462 0.01624692
v -0.01948491 0.01006462 0.01282982
v -0.01948744 0.01232072 0.01282982
v -0.01930622 0.01232072 0.01206566
v -0.01976877 0.01232072 0.01453940
v -0.01976877 0.01160403 0.01453940
v -0.01976624 0.01006462 0.01453940
f 1 4 5
f 10 9 14
f 3 8 4
f 3 4 1
f 10 14 15
f 20 15 19
f 19 15 14
f 6 12 11
f 21 15 20
f 20 26 21
f 32 26 31
f 31 36 32
f 37 33 38
f 38 32 37
f 32 36 37
f 34 28 33
f 33 37 34
f 34 37 36
f 27 26 32
f 27 21 26
f 22 17 23
f 23 28 22
f 12 17 16
f 16 11 12
f 17 22 16
f 25 26 20
f 25 31 26
f 28 34 29
f 29 22 28
f 30 29 35
f 35 29 34
f 4 9 5
f 5 9 10
f 1 2 3
f 7 8 3
f 2 7 3
f 2 6 11
f 11 7 2
f 11 13 7
f 1 5 27
f 27 2 1
f 27 5 10
f 27 6 2
f 10 15 27
f 27 32 38
f 27 12 6
f 38 33 27
f 27 28 23
f 15 21 27
f 23 17 27
f 33 28 27
f 27 17 12
f 13 11 16
f 16 18 13
f 24 18 16
f 16 22 24
f 30 24 29
f 24 22 29
f 4 8 35
f 20 19 35
f 35 9 4
f 35 8 7
f 35 14 9
f 7 13 35
f 35 19 14
f 13 18 35
f 35 24 30
f 35 25 20
f 35 18 24
f 36 31 35
f 35 34 36
f 31 25 35

