# https://github.com/mikedh/trimesh
v 0.00648821 0.00663407 0.01595371
v 0.00648821 0.00367043 0.01595371
v 0.00648821 0.01006462 0.01372944
v -0.00633360 0.00704966 0.01595371
v -0.00633360 0.00367043 0.01595371
v 0.00648821 0.00367043 -0.00094078
v -0.00633360 0.01006462 0.01395601
v -0.00633360 0.00813435 0.01524095
v 0.00648821 0.01006462 -0.00094078
v -0.00633360 0.00367043 -0.00094078
v -0.00633360 0.01006462 -0.00094078
f 4 1 3
f 3 7 8
f 4 3 8
f 11 7 9
f 9 7 3
f 2 9 3
f 2 3 1
f 6 9 2
f 4 5 2
f 2 1 4
f 10 9 6
f 11 9 10
f 6 2 10
f 10 2 5
f 11 10 8
f 8 5 4
f 8 7 11
f 8 10 5

