# https://github.com/mikedh/trimesh
v 0.01485867 0.03066037 0.01991344
v 0.01511326 0.02723767 0.02138043
v 0.01506219 0.02869721 0.02138043
v 0.01506181 0.02870847 0.02138043
v 0.01487834 0.03066037 0.02012025
v 0.01831889 0.03066037 0.01991344
v 0.01511175 0.02572745 0.01991344
v 0.01512234 0.02558794 0.01991344
v 0.01514579 0.02601648 0.02060938
v 0.01511704 0.02719262 0.02138043
v 0.01499864 0.03066037 0.02138043
v 0.01856137 0.02870910 0.01991344
v 0.01797767 0.03066037 0.02138043
v 0.01599808 0.02451752 0.01991344
v 0.01580591 0.02659517 0.02138043
v 0.01872290 0.02699931 0.01991344
v 0.01798372 0.03041951 0.02138043
v 0.01777339 0.02426978 0.01991344
v 0.01604045 0.02646128 0.02138043
v 0.01845280 0.02526575 0.01991344
v 0.01787629 0.02870910 0.02138043
v 0.01746395 0.02706124 0.02138043
v 0.01727065 0.02573370 0.02080699
v 0.01773140 0.02812978 0.02138043
f 18 20 22
f 7 2 1
f 7 8 2
f 12 6 13
f 12 13 16
f 19 14 18
f 21 20 16
f 8 14 9
f 2 8 9
f 5 4 11
f 1 4 5
f 1 2 3
f 3 4 1
f 22 19 23
f 18 22 23
f 23 19 18
f 24 22 20
f 20 21 24
f 16 13 17
f 17 21 16
f 14 19 15
f 15 9 14
f 2 9 10
f 9 15 10
f 1 6 12
f 16 20 12
f 12 7 1
f 18 14 12
f 12 20 18
f 8 7 12
f 12 14 8
f 5 6 1
f 13 6 5
f 5 11 13
f 13 11 10
f 22 24 10
f 10 17 13
f 11 4 10
f 10 19 22
f 10 3 2
f 4 3 10
f 10 24 21
f 21 17 10
f 10 15 19

