# https://github.com/mikedh/trimesh
v 0.01957408 -0.01750511 0.02838029
v 0.01956670 -0.01902497 0.02715940
v 0.01956469 -0.01750511 0.02715940
v 0.01443577 -0.01750511 0.02838029
v 0.01954390 -0.01902497 0.02838029
v 0.01272457 -0.01902497 0.02715940
v 0.01368678 -0.01750511 0.02715940
v 0.01272457 -0.01849906 0.02715940
v 0.01272457 -0.01902497 0.02782912
v 0.01390806 -0.01902497 0.02838029
f 1 2 3
f 5 2 1
f 6 9 8
f 4 9 10
f 7 8 4
f 4 8 9
f 6 2 9
f 2 5 9
f 5 10 9
f 8 3 2
f 8 2 6
f 8 7 3
f 3 7 4
f 1 3 4
f 4 10 5
f 4 5 1

