# https://github.com/mikedh/trimesh
v 0.01044101 -0.03296540 0.01522443
v 0.01048931 -0.03457949 0.01522443
v 0.00974768 -0.03485143 0.01681147
v 0.00974768 -0.03457949 0.01679523
v 0.00974768 -0.03296540 0.01679523
v 0.02321860 -0.03296540 0.01522443
v 0.01059059 -0.03485643 0.01522443
v 0.00974768 -0.03485643 0.01894198
v 0.00976326 -0.03485643 0.01680064
v 0.00974768 -0.03296540 0.02443887
v 0.02379197 -0.03296540 0.01605767
v 0.02319056 -0.03303630 0.01522443
v 0.02191296 -0.03485643 0.01522443
v 0.00974768 -0.03485643 0.02396131
v 0.01016836 -0.03485643 0.02396221
v 0.01251790 -0.03296540 0.02444248
v 0.02347724 -0.03323475 0.01576066
v 0.02401633 -0.03296540 0.01640523
v 0.02387766 -0.03398802 0.01690085
v 0.02246139 -0.03426570 0.01522443
v 0.02261564 -0.03485643 0.01598184
v 0.01189000 -0.03485643 0.02396401
v 0.01593938 -0.03296540 0.02444609
v 0.02406463 -0.03296540 0.01649731
v 0.02510852 -0.03463576 0.01969578
v 0.02419862 -0.03456671 0.01794714
v 0.02421887 -0.03485643 0.01821075
v 0.02413630 -0.03485643 0.01807533
v 0.02386987 -0.03485643 0.01764833
v 0.02321393 -0.03485643 0.01670675
v 0.02500881 -0.03485643 0.01968043
v 0.02286025 -0.03485643 0.01627614
v 0.02295841 -0.03485643 0.01639530
v 0.01533018 -0.03485643 0.02396672
v 0.01604066 -0.03296540 0.02444609
v 0.02485144 -0.03296540 0.01805547
v 0.02553699 -0.03410298 0.02028167
v 0.02508982 -0.03485643 0.01991967
v 0.01604066 -0.03485643 0.02396672
v 0.01774984 -0.03485643 0.02395950
v 0.02117132 -0.03485643 0.02394055
v 0.02260473 -0.03485643 0.02390173
v 0.01774984 -0.03296540 0.02439553
v 0.02534846 -0.03296540 0.01924711
v 0.02556191 -0.03296540 0.02003432
v 0.02566475 -0.03296540 0.02138123
v 0.02559463 -0.03435697 0.02138123
v 0.02547311 -0.03485643 0.02138123
v 0.02521603 -0.03485643 0.02034035
v 0.02288206 -0.03485643 0.02387013
v 0.02288206 -0.03457949 0.02389360
v 0.01956964 -0.03296540 0.02423123
v 0.02566007 -0.03296540 0.02145616
v 0.02555412 -0.03418925 0.02240766
v 0.02544506 -0.03485643 0.02173782
v 0.02454918 -0.03485643 0.02306397
v 0.02474705 -0.03468741 0.02298362
v 0.02449621 -0.03296540 0.02325716
v 0.02288051 -0.03296540 0.02391166
v 0.02279949 -0.03296540 0.02391978
v 0.02555257 -0.03296540 0.02240586
v 0.02460060 -0.03296540 0.02320660
v 0.02470654 -0.03485643 0.02297460
f 3 1 2
f 2 7 3
f 4 5 1
f 4 1 3
f 9 8 3
f 3 7 9
f 16 15 23
f 10 15 16
f 14 15 10
f 51 52 43
f 61 62 54
f 54 47 46
f 30 20 19
f 43 35 42
f 42 35 41
f 50 51 42
f 42 51 43
f 40 35 39
f 41 35 40
f 59 51 58
f 58 51 50
f 60 51 59
f 52 51 60
f 55 54 63
f 48 47 55
f 47 54 55
f 57 54 62
f 63 54 57
f 57 56 63
f 62 58 57
f 50 56 57
f 57 58 50
f 53 54 46
f 61 54 53
f 37 45 46
f 46 47 37
f 48 49 37
f 37 47 48
f 44 45 37
f 37 49 38
f 37 36 44
f 13 20 21
f 29 19 28
f 30 19 29
f 28 19 27
f 18 19 11
f 17 19 20
f 17 11 19
f 22 34 23
f 23 15 22
f 36 37 25
f 25 24 36
f 18 24 25
f 25 19 18
f 32 21 20
f 12 17 20
f 6 11 12
f 11 17 12
f 19 25 31
f 31 37 38
f 31 25 37
f 33 20 30
f 33 32 20
f 26 31 27
f 26 27 19
f 19 31 26
f 10 5 14
f 3 8 14
f 14 4 3
f 5 4 14
f 34 35 23
f 39 35 34
f 24 53 46
f 1 5 24
f 23 35 24
f 24 60 59
f 24 6 1
f 24 5 10
f 24 16 23
f 44 36 24
f 59 58 24
f 10 16 24
f 24 62 61
f 43 52 24
f 46 45 24
f 24 35 43
f 24 45 44
f 24 11 6
f 24 58 62
f 52 60 24
f 61 53 24
f 18 11 24
f 1 6 12
f 12 2 1
f 13 7 12
f 7 2 12
f 12 20 13
f 33 7 13
f 33 14 8
f 33 9 7
f 33 49 48
f 28 27 33
f 48 55 33
f 8 9 33
f 33 56 50
f 15 14 33
f 41 40 33
f 13 21 33
f 33 29 28
f 50 42 33
f 63 56 33
f 38 49 33
f 39 34 33
f 33 42 41
f 33 40 39
f 33 55 63
f 33 22 15
f 30 29 33
f 33 31 38
f 34 22 33
f 21 32 33
f 27 31 33

