# https://github.com/mikedh/trimesh
v 0.02112088 0.01096559 0.03885584
v 0.02112088 0.01447029 0.04089584
v 0.02117195 0.01096559 0.03885764
v 0.02112088 0.01096559 0.05725730
v 0.02112088 0.01533475 0.04168157
v 0.02226588 0.01431244 0.04094630
v 0.02117195 0.01443946 0.04088142
v 0.02148586 0.01096559 0.03890089
v 0.02112088 0.02015649 0.05726631
v 0.02425409 0.01096559 0.04361885
v 0.02112088 0.01609439 0.04251234
v 0.02209993 0.01592051 0.04270697
v 0.02275295 0.01490684 0.04203658
v 0.02340598 0.01381547 0.04136619
v 0.02358012 0.01096559 0.03942711
v 0.02288192 0.01096559 0.03918563
v 0.02287570 0.01096559 0.03918383
v 0.02112088 0.02186692 0.05725730
v 0.02446489 0.01096559 0.04190863
v 0.02424820 0.01160438 0.04361885
v 0.02112088 0.01612399 0.04255019
v 0.02385736 0.01436177 0.04250694
v 0.02112088 0.01693666 0.04371075
v 0.02112088 0.01752488 0.04458478
v 0.02112088 0.01907993 0.04697079
v 0.02112088 0.02018486 0.04875309
v 0.02222366 0.01777892 0.04587150
v 0.02383052 0.01267601 0.04093188
v 0.02381514 0.01096559 0.03962174
v 0.02141057 0.02186692 0.05559034
v 0.02112088 0.02356378 0.05559034
v 0.02388748 0.01331603 0.04510199
v 0.02414607 0.01331603 0.04361885
v 0.02414607 0.01096559 0.04026690
v 0.02437913 0.01160438 0.04190863
v 0.02389828 0.01453812 0.04361885
v 0.02400008 0.01327411 0.04192485
v 0.02193594 0.01923531 0.04803404
v 0.02215688 0.01951031 0.04917298
v 0.02112088 0.02112207 0.05045970
v 0.02383216 0.01447029 0.04488754
v 0.02112088 0.02284606 0.05391797
v 0.02112088 0.02194707 0.05207620
v 0.02112088 0.02197914 0.05214108
f 9 4 10
f 10 18 9
f 41 36 31
f 31 36 22
f 32 18 20
f 18 10 20
f 20 10 19
f 31 18 30
f 30 41 31
f 12 21 23
f 23 24 12
f 25 26 12
f 12 24 25
f 7 2 6
f 6 2 5
f 6 17 8
f 15 14 29
f 6 14 15
f 41 30 33
f 32 20 33
f 33 18 32
f 33 30 18
f 33 20 19
f 36 41 33
f 19 34 35
f 35 33 19
f 35 22 36
f 36 33 35
f 28 34 29
f 29 14 28
f 28 14 22
f 12 22 13
f 22 14 13
f 13 6 12
f 13 14 6
f 31 22 39
f 22 38 39
f 27 22 12
f 27 38 22
f 12 26 27
f 26 38 27
f 6 5 11
f 11 21 12
f 12 6 11
f 1 2 3
f 2 7 3
f 3 7 6
f 6 8 3
f 16 17 6
f 6 15 16
f 22 35 37
f 37 35 34
f 37 28 22
f 34 28 37
f 38 44 42
f 31 39 42
f 42 39 38
f 40 38 26
f 43 44 38
f 38 40 43
f 16 4 1
f 19 10 16
f 16 34 19
f 16 10 4
f 16 15 29
f 29 34 16
f 16 8 17
f 1 3 16
f 16 3 8
f 43 2 1
f 1 4 43
f 43 4 9
f 43 18 31
f 9 18 43
f 21 11 43
f 43 23 21
f 26 25 43
f 24 23 43
f 43 25 24
f 43 5 2
f 31 42 43
f 43 11 5
f 43 42 44
f 43 40 26

