# https://github.com/mikedh/trimesh
v -0.01632906 -0.03074469 0.02580820
v -0.01627212 -0.03078633 0.02580820
v -0.01613271 -0.03062173 0.02651444
v -0.01632906 -0.03047696 0.02651299
v -0.01632906 -0.01121481 0.02580820
v -0.01474841 -0.03136144 0.02580820
v -0.01632906 -0.03042540 0.02651444
v -0.01632906 -0.03043928 0.02651416
v -0.01474841 -0.03104810 0.02651444
v -0.01632906 -0.01121481 0.02651444
v -0.00630028 -0.01121481 0.02580820
v -0.01395318 -0.03141300 0.02580820
v -0.01303817 -0.03115717 0.02651444
v -0.00630028 -0.01121481 0.02651444
v -0.00630028 -0.03147051 0.02580820
v -0.01303817 -0.03146456 0.02580820
v -0.01060730 -0.03146853 0.02580820
v -0.00961768 -0.03116114 0.02651444
v -0.00630028 -0.03096283 0.02651444
v -0.00630028 -0.03116313 0.02651299
v -0.00790744 -0.03147051 0.02580820
v -0.00790744 -0.03116114 0.02651444
f 1 3 4
f 2 3 1
f 2 6 3
f 3 6 9
f 3 7 8
f 8 4 3
f 13 16 17
f 12 16 13
f 13 9 12
f 12 9 6
f 22 20 19
f 15 20 21
f 20 22 18
f 13 17 18
f 17 21 18
f 18 21 20
f 11 5 14
f 14 5 10
f 20 15 11
f 11 14 20
f 20 14 19
f 8 5 1
f 10 5 8
f 1 4 8
f 8 7 10
f 11 15 21
f 1 5 21
f 21 2 1
f 21 5 11
f 6 2 21
f 21 12 6
f 21 17 16
f 16 12 21
f 19 14 18
f 10 7 18
f 18 14 10
f 3 9 18
f 18 7 3
f 18 9 13
f 18 22 19

