# https://github.com/mikedh/trimesh
v 0.02187781 -0.01499063 0.08052304
v 0.02187895 -0.02431627 0.08052304
v 0.02067499 -0.01499063 0.07299151
v 0.01097598 -0.01499063 0.08052304
v 0.02187781 -0.02452821 0.08052304
v 0.02067499 -0.02452821 0.07299151
v 0.01022051 -0.01499063 0.07299151
v 0.01022051 -0.01499063 0.07836643
v 0.01022051 -0.01518017 0.07837455
v 0.01022051 -0.01576465 0.07839740
v 0.01022051 -0.01747516 0.07839814
v 0.01097598 -0.01918567 0.08052304
v 0.01098169 -0.02452821 0.08052304
v 0.01022051 -0.02452821 0.07299151
v 0.01022051 -0.01918567 0.07839814
v 0.01022051 -0.02089525 0.07836938
v 0.01022051 -0.02260576 0.07824552
v 0.01022051 -0.02305206 0.07812755
v 0.01022051 -0.02434334 0.07778618
v 0.01022051 -0.02452821 0.07748978
f 3 1 2
f 6 3 2
f 15 13 12
f 5 6 2
f 20 13 19
f 13 15 16
f 16 17 13
f 13 17 18
f 18 19 13
f 4 8 9
f 9 10 4
f 4 10 11
f 7 3 14
f 3 6 14
f 1 4 5
f 2 1 5
f 5 4 12
f 12 13 5
f 5 14 6
f 20 14 5
f 5 13 20
f 1 3 8
f 8 3 7
f 8 4 1
f 7 14 11
f 11 14 20
f 11 8 7
f 20 19 11
f 11 16 15
f 11 9 8
f 17 16 11
f 11 18 17
f 19 18 11
f 10 9 11
f 12 4 11
f 11 15 12

