# https://github.com/mikedh/trimesh
v 0.02517141 0.01006518 0.01806546
v 0.02515606 0.01006518 0.01779640
v 0.02440559 0.01573538 0.01624812
v 0.02502899 0.01006518 0.01944223
v 0.02478935 0.01006518 0.01624812
v 0.02475183 0.01160458 0.01624812
v 0.02432031 0.01573538 0.01553691
v 0.02418471 0.01573538 0.01703012
v 0.02490704 0.01006518 0.01969870
v 0.02403547 0.01573538 0.01750059
v 0.02472795 0.01006518 0.01607661
v 0.02413781 0.01502480 0.01453777
v 0.02413013 0.01573538 0.01453777
v 0.02416595 0.01006518 0.02094015
v 0.02331741 0.01573538 0.01796476
v 0.02405850 0.01006518 0.02103613
v 0.02414549 0.01006518 0.01453777
v 0.02414463 0.01232127 0.01453777
v 0.02414378 0.01331441 0.01453777
v 0.02398089 0.01573538 0.01416172
v 0.02283046 0.01573538 0.01824483
v 0.02293706 0.01006518 0.02144366
v 0.02410796 0.01006518 0.01444651
v 0.02376002 0.01573538 0.01363146
v 0.02117090 0.01573538 0.01854064
v 0.02288163 0.01006518 0.02145625
v 0.02375746 0.01006518 0.01363461
v 0.02376002 0.01160458 0.01363146
v 0.02337114 0.01573538 0.01277865
v 0.01775200 0.01573538 0.01858312
v 0.01775114 0.01006518 0.02162303
v 0.01946187 0.01006518 0.02159471
v 0.01979703 0.01006518 0.02158842
v 0.02117090 0.01006518 0.02156167
v 0.02337029 0.01006518 0.01278337
v 0.02337114 0.01232182 0.01277865
v 0.02301978 0.01573538 0.01208948
v 0.01675336 0.01573538 0.01834868
v 0.01773238 0.01006518 0.02162146
v 0.02252515 0.01573538 0.01112023
v 0.02250554 0.01006518 0.01110292
v 0.01651116 0.01573538 0.01827787
v 0.01645914 0.01006518 0.02126901
v 0.02232133 0.01573538 0.01075676
v 0.02242111 0.01006518 0.01095502
v 0.02203394 0.01502480 0.01025168
v 0.01645914 0.01232127 0.01966251
v 0.01645914 0.01098060 0.02065693
v 0.01645914 0.01094396 0.02068368
v 0.01651116 0.01573538 0.00558639
v 0.01645914 0.01006518 0.00555650
v 0.02203479 0.01573538 0.01025168
v 0.02202541 0.01006518 0.01026584
v 0.02197680 0.01006518 0.01019032
v 0.02148302 0.01006518 0.00942877
v 0.01645914 0.01232127 0.00555020
v 0.01898174 0.01573538 0.00660756
v 0.01645914 0.01160458 0.00555020
v 0.01898174 0.01006518 0.00660913
v 0.02138666 0.01006518 0.00928401
v 0.02179686 0.01573538 0.00989451
v 0.01948234 0.01573538 0.00701351
v 0.01947893 0.01232182 0.00700879
v 0.01898174 0.01232182 0.00660756
v 0.01983711 0.01006518 0.00729988
v 0.02061913 0.01006518 0.00815427
v 0.02146256 0.01573538 0.00939572
v 0.01983711 0.01573538 0.00730303
v 0.01983711 0.01331441 0.00729988
v 0.02054153 0.01006518 0.00806930
v 0.02028910 0.01573538 0.00780339
v 0.02060975 0.01573538 0.00815899
f 1 3 4
f 43 42 49
f 42 47 48
f 48 49 42
f 14 10 16
f 8 4 3
f 8 10 4
f 15 21 16
f 16 10 15
f 30 39 31
f 16 21 22
f 21 26 22
f 58 59 51
f 56 50 57
f 4 10 9
f 10 14 9
f 39 30 38
f 43 39 38
f 38 42 43
f 25 30 31
f 34 26 25
f 25 26 21
f 66 72 67
f 6 5 13
f 59 58 64
f 32 25 31
f 2 5 6
f 2 3 1
f 66 67 60
f 34 25 33
f 25 32 33
f 3 2 7
f 6 13 7
f 7 2 6
f 55 60 52
f 52 60 61
f 61 60 67
f 35 41 40
f 35 40 36
f 63 65 59
f 59 64 63
f 63 64 57
f 46 55 52
f 46 45 53
f 41 45 46
f 29 36 37
f 37 36 40
f 69 68 66
f 65 63 69
f 71 72 66
f 66 68 71
f 54 46 53
f 55 46 54
f 44 46 52
f 44 40 41
f 41 46 44
f 18 11 17
f 19 11 18
f 18 24 19
f 5 11 12
f 12 13 5
f 12 11 19
f 70 69 66
f 65 69 70
f 68 69 62
f 62 63 57
f 62 69 63
f 23 18 17
f 24 18 23
f 13 12 20
f 19 24 20
f 20 12 19
f 28 23 27
f 24 23 28
f 28 27 35
f 35 36 28
f 56 47 50
f 50 47 42
f 58 51 43
f 58 48 47
f 58 47 56
f 43 49 58
f 49 48 58
f 64 58 56
f 56 57 64
f 43 51 23
f 1 4 23
f 23 39 43
f 51 59 23
f 23 14 16
f 4 9 23
f 23 2 1
f 23 26 34
f 35 27 23
f 23 54 53
f 16 22 23
f 31 39 23
f 23 22 26
f 23 9 14
f 23 41 35
f 66 60 23
f 23 32 31
f 5 2 23
f 34 33 23
f 23 11 5
f 53 45 23
f 59 65 23
f 23 33 32
f 60 55 23
f 23 45 41
f 17 11 23
f 55 54 23
f 23 70 66
f 65 70 23
f 20 50 42
f 20 57 50
f 21 15 20
f 20 8 3
f 20 67 72
f 10 8 20
f 20 15 10
f 42 38 20
f 20 25 21
f 72 71 20
f 20 38 30
f 30 25 20
f 3 7 20
f 52 61 20
f 29 37 20
f 20 7 13
f 20 61 67
f 20 62 57
f 20 44 52
f 20 24 29
f 20 37 40
f 20 71 68
f 40 44 20
f 68 62 20
f 29 24 28
f 28 36 29

