# https://github.com/mikedh/trimesh
v 0.01521536 -0.02970240 0.07098749
v 0.01635766 -0.02970240 0.07098749
v 0.01521536 -0.02970240 0.07158328
v 0.01521536 0.04186674 0.07098749
v 0.01635766 -0.02970240 0.07158328
v 0.01635766 0.04138335 0.07098749
v 0.01521536 0.04184572 0.07158328
v 0.01521536 0.04185973 0.07118959
v 0.01572411 0.04175465 0.07158328
v 0.01567055 0.04175465 0.07098749
v 0.01635766 0.04146041 0.07158328
v 0.01602210 0.04164256 0.07158328
f 9 8 7
f 9 10 4
f 4 8 9
f 10 9 12
f 11 6 12
f 6 10 12
f 1 2 5
f 5 3 1
f 2 6 5
f 5 6 11
f 1 4 10
f 10 2 1
f 10 6 2
f 8 4 1
f 1 3 8
f 3 7 8
f 3 5 12
f 12 5 11
f 12 7 3
f 12 9 7

