# https://github.com/mikedh/trimesh
v 0.02595517 0.00142850 0.03202009
v 0.02589327 0.00142850 0.03326656
v 0.02587135 0.00133985 0.03335467
v 0.02593454 0.00133985 0.03202009
v 0.02591133 0.00122017 0.03182624
v 0.02591520 0.00122017 0.03164442
v 0.02594486 0.00122017 0.03010997
v 0.02594486 0.00122017 0.03003433
v 0.01443628 0.00142850 0.03202009
v 0.02581203 0.00142850 0.03436990
v 0.02579268 0.00133985 0.03442535
v 0.02564824 0.00067609 0.03442535
v 0.02552702 0.00025390 0.03442535
v 0.02554894 0.00020847 0.03335467
v 0.02556700 0.00017855 0.03202009
v 0.02557087 0.00017079 0.03164442
v 0.02557861 0.00016192 0.03003433
v 0.01439630 0.00122017 0.03003433
v 0.01278040 0.00081128 0.03442535
v 0.01320082 0.00102182 0.03442535
v 0.01442338 0.00142850 0.03210992
v 0.02580687 0.00142850 0.03442535
v 0.02292585 -0.00721034 0.03442535
v 0.02292714 -0.00721034 0.03202009
v 0.02292714 -0.00721034 0.03003433
v 0.01314150 0.00020292 0.03003433
v 0.01278040 0.00024725 0.03202009
v 0.01278040 -0.00948751 0.03442535
v 0.01415901 0.00142850 0.03442535
v 0.01425315 0.00142850 0.03337788
v 0.02231586 -0.00837164 0.03442535
v 0.02289232 -0.00727904 0.03003433
v 0.01314150 -0.00989197 0.03003433
v 0.01278040 -0.00948751 0.03202009
v 0.01314150 -0.00989197 0.03202009
v 0.01814136 -0.00948751 0.03442535
v 0.02188771 -0.00858218 0.03442535
v 0.02231586 -0.00837164 0.03003433
v 0.01620306 -0.00989197 0.03003433
v 0.01782411 -0.00989197 0.03202009
v 0.02117068 -0.00893456 0.03442535
v 0.02117068 -0.00893456 0.03335467
v 0.02117068 -0.00892348 0.03003433
v 0.01772352 -0.00989197 0.03157952
v 0.01777382 -0.00989197 0.03179658
f 19 18 26
f 19 20 9
f 9 18 19
f 19 26 27
f 20 29 30
f 39 43 44
f 36 40 41
f 10 22 11
f 11 2 10
f 13 5 12
f 21 9 20
f 20 30 21
f 43 40 45
f 45 44 43
f 42 40 43
f 42 41 40
f 14 13 23
f 23 15 14
f 14 5 13
f 16 15 23
f 1 5 6
f 6 14 15
f 5 14 6
f 38 42 43
f 11 12 3
f 3 2 11
f 1 2 3
f 15 16 7
f 7 6 15
f 7 8 1
f 1 6 7
f 8 7 17
f 17 7 16
f 24 25 17
f 23 24 17
f 17 16 23
f 32 25 24
f 31 38 32
f 32 23 31
f 32 24 23
f 37 38 31
f 41 42 37
f 42 38 37
f 4 5 1
f 1 3 4
f 4 12 5
f 4 3 12
f 34 35 28
f 33 35 34
f 36 28 40
f 28 35 40
f 8 9 1
f 18 9 8
f 27 28 19
f 27 34 28
f 27 26 33
f 33 34 27
f 29 22 21
f 1 9 21
f 21 2 1
f 21 30 29
f 22 10 21
f 21 10 2
f 33 39 45
f 45 35 33
f 45 40 35
f 39 44 45
f 32 39 33
f 33 26 32
f 32 26 18
f 32 43 39
f 18 8 32
f 32 38 43
f 8 17 32
f 32 17 25
f 19 28 37
f 11 22 37
f 37 28 36
f 36 41 37
f 37 20 19
f 37 29 20
f 31 23 37
f 37 22 29
f 23 13 37
f 37 12 11
f 13 12 37

