# https://github.com/mikedh/trimesh
v 0.00099673 0.04743045 0.10723737
v 0.00046287 0.03639788 0.08617799
v -0.00450730 0.04722613 0.10718501
v -0.00433739 0.03663033 0.08713754
v -0.00712923 0.03619911 0.08713754
v -0.00914824 0.04654611 0.10721658
v -0.00987987 0.03555543 0.08713754
v -0.01268500 0.04571751 0.10721656
v -0.01257316 0.03470309 0.08713754
v -0.01614796 0.04462062 0.10721657
v -0.01519330 0.03364708 0.08713754
v -0.01951680 0.04326186 0.10721658
v -0.01772492 0.03239359 0.08713754
v -0.02277174 0.04164921 0.10721657
v -0.02015315 0.03094999 0.08713754
v -0.02589367 0.03979212 0.10721657
v -0.02246376 0.02932475 0.08713754
v -0.02886430 0.03770150 0.10721658
v -0.02440410 0.02706405 0.08615439
v -0.03166616 0.03538962 0.10721656
v -0.02667860 0.02556849 0.08713754
v -0.03428284 0.03287003 0.10721657
v -0.02855811 0.02345952 0.08713754
v -0.03669895 0.03015754 0.10721656
v -0.03027066 0.02121287 0.08713754
v -0.03890034 0.02726805 0.10721656
v -0.03180622 0.01884171 0.08713754
v -0.04087410 0.02421853 0.10721657
v -0.03315575 0.01635996 0.08713754
v -0.04260861 0.02102687 0.10721657
v -0.03431134 0.01378219 0.08713754
v -0.04409372 0.01771179 0.10721656
v -0.03482395 0.01084741 0.08615440
v -0.04532070 0.01429276 0.10721657
v -0.03601478 0.00839955 0.08713754
v -0.04628236 0.01078984 0.10721656
v -0.03655262 0.00562629 0.08713754
v -0.04697305 0.00722357 0.10721657
v -0.03638303 0.00265190 0.08615439
v -0.04738872 0.00361491 0.10721657
v -0.03698480 -0.00000289 0.08713754
v -0.04752694 -0.00001499 0.10721657
v -0.03687660 -0.00282576 0.08713754
v -0.04738687 -0.00364482 0.10721657
v -0.03655262 -0.00563207 0.08713754
v -0.04696936 -0.00725328 0.10721657
v -0.03601478 -0.00840534 0.08713754
v -0.04627684 -0.01081918 0.10721656
v -0.03474562 -0.01110070 0.08615441
v -0.04531340 -0.01432162 0.10721657
v -0.03431134 -0.01378797 0.08713754
v -0.04408467 -0.01774002 0.10721656
v -0.03315575 -0.01636574 0.08713754
v -0.04259787 -0.02105434 0.10721657
v -0.03130582 -0.01870101 0.08615439
v -0.04086173 -0.02424511 0.10721656
v -0.03027066 -0.02121865 0.08713754
v -0.03888642 -0.02729363 0.10721656
v -0.02855811 -0.02346531 0.08713754
v -0.03668356 -0.03018200 0.10721657
v -0.02667860 -0.02557428 0.08713754
v -0.03426605 -0.03289326 0.10721657
v -0.02464317 -0.02753319 0.08713754
v -0.03164809 -0.03541149 0.10721654
v -0.02246376 -0.02933054 0.08713754
v -0.02884504 -0.03772195 0.10721655
v -0.02015315 -0.03095578 0.08713754
v -0.02587336 -0.03981107 0.10721658
v -0.01772492 -0.03239938 0.08713754
v -0.02275047 -0.04166654 0.10721655
v -0.01519330 -0.03365286 0.08713754
v -0.01949471 -0.04327755 0.10721658
v -0.01257316 -0.03470887 0.08713754
v -0.01612519 -0.04463458 0.10721656
v -0.00987987 -0.03556122 0.08713754
v -0.01266167 -0.04572970 0.10721655
v -0.00712923 -0.03620489 0.08713754
v -0.00912447 -0.04655650 0.10721658
v -0.00433739 -0.03663612 0.08713754
v -0.00553439 -0.04711008 0.10721657
v -0.00108675 -0.03636813 0.08615093
v -0.00180156 -0.04743084 0.10729204
v 0.00127278 -0.04737711 0.10714191
v 0.00130420 -0.03685236 0.08713754
v 0.00389346 -0.03618545 0.08621447
v 0.00534188 -0.04710731 0.10721657
v 0.00694398 -0.03568443 0.08615439
v 0.00893171 -0.04655189 0.10721659
v 0.00966333 -0.03556122 0.08713754
v 0.01246846 -0.04572329 0.10721655
v 0.01235662 -0.03470887 0.08713754
v 0.01593142 -0.04462640 0.10721654
v 0.01488863 -0.03313897 0.08615438
v 0.01930027 -0.04326764 0.10721657
v 0.01750838 -0.03239938 0.08713754
v 0.02255518 -0.04165498 0.10721653
v 0.01993662 -0.03095578 0.08713754
v 0.02567715 -0.03979790 0.10721657
v 0.02224722 -0.02933054 0.08713754
v 0.02864775 -0.03770729 0.10721657
v 0.02442663 -0.02753319 0.08713754
v 0.03144962 -0.03539540 0.10721656
v 0.02618823 -0.02513059 0.08615440
v 0.03406629 -0.03287581 0.10721655
v 0.02834157 -0.02346531 0.08713754
v 0.03648242 -0.03016332 0.10721656
v 0.03005413 -0.02121865 0.08713754
v 0.03868382 -0.02727384 0.10721657
v 0.03122196 -0.01847787 0.08615440
v 0.04065756 -0.02422431 0.10721656
v 0.03293921 -0.01636574 0.08713754
v 0.04239207 -0.02103265 0.10721655
v 0.03409481 -0.01378797 0.08713754
v 0.04387718 -0.01771757 0.10721656
v 0.03460740 -0.01085320 0.08615439
v 0.04510416 -0.01429854 0.10721655
v 0.03579824 -0.00840534 0.08713754
v 0.04606583 -0.01079561 0.10721657
v 0.03633609 -0.00563207 0.08713754
v 0.04675650 -0.00722936 0.10721653
v 0.03616650 -0.00265769 0.08615439
v 0.04717219 -0.00362068 0.10721657
v 0.03676826 -0.00000289 0.08713754
v 0.04731042 0.00000922 0.10721661
v 0.03666006 0.00281998 0.08713754
v 0.04717034 0.00363904 0.10721658
v 0.03633609 0.00562629 0.08713754
v 0.04675281 0.00724748 0.10721653
v 0.03579824 0.00839955 0.08713754
v 0.04606031 0.01081340 0.10721657
v 0.03452908 0.01109491 0.08615439
v 0.04509686 0.01431583 0.10721656
v 0.03409481 0.01378219 0.08713754
v 0.04386813 0.01773424 0.10721656
v 0.03293921 0.01635996 0.08713754
v 0.04238133 0.02104855 0.10721656
v 0.03108929 0.01869522 0.08615440
v 0.04064519 0.02423933 0.10721657
v 0.03005413 0.02121287 0.08713754
v 0.03866989 0.02728785 0.10721657
v 0.02834157 0.02345952 0.08713754
v 0.03646702 0.03017620 0.10721655
v 0.02600823 0.02531185 0.08615440
v 0.03404951 0.03288747 0.10721656
v 0.02442663 0.02752740 0.08713754
v 0.03143156 0.03540573 0.10721658
v 0.02224722 0.02932475 0.08713754
v 0.02862851 0.03771618 0.10721659
v 0.01993662 0.03094999 0.08713754
v 0.02565683 0.03980527 0.10721657
v 0.01750838 0.03239359 0.08713754
v 0.02253394 0.04166076 0.10721656
v 0.01497677 0.03364708 0.08713754
v 0.01927818 0.04327176 0.10721657
v 0.01235662 0.03470309 0.08713754
v 0.01590865 0.04462880 0.10721656
v 0.00940436 0.03510290 0.08615440
v 0.01244513 0.04572393 0.10721656
v 0.00691269 0.03619911 0.08713754
v 0.00890794 0.04655071 0.10721657
v 0.00412086 0.03663033 0.08713754
v 0.00531785 0.04710430 0.10721657
v 0.00173026 0.04796189 0.11028639
v 0.00001209 0.04799634 0.10940559
v 0.00540115 0.04767908 0.10957782
v 0.00902516 0.04711909 0.10957676
v 0.01260767 0.04628154 0.10957954
v 0.01612221 0.04516899 0.10957793
v 0.01952786 0.04379604 0.10957798
v 0.02281929 0.04216626 0.10957721
v 0.02598754 0.04028294 0.10957881
v 0.02899665 0.03816563 0.10957837
v 0.03182425 0.03583346 0.10957874
v 0.03447667 0.03328074 0.10957758
v 0.03692625 0.03053187 0.10957798
v 0.03914826 0.02761635 0.10957659
v 0.04114672 0.02453214 0.10957957
v 0.04290907 0.02129113 0.10957793
v 0.04441220 0.01793730 0.10957783
v 0.04565472 0.01447800 0.10958097
v 0.04662466 0.01095121 0.10958160
v 0.04732955 0.00731713 0.10957815
v 0.04775002 0.00367274 0.10957833
v 0.04789084 -0.00000200 0.10957745
v 0.04774970 -0.00368343 0.10957827
v 0.04732893 -0.00732454 0.10957642
v 0.04663105 -0.01092871 0.10957943
v 0.04565326 -0.01448772 0.10957802
v 0.04440949 -0.01794984 0.10957782
v 0.04290899 -0.02129648 0.10957678
v 0.04115141 -0.02453006 0.10957945
v 0.03914786 -0.02762325 0.10957796
v 0.03692218 -0.03054253 0.10957804
v 0.03447778 -0.03328526 0.10957726
v 0.03182192 -0.03584143 0.10957871
v 0.02898396 -0.03818109 0.10957847
v 0.02598620 -0.04028949 0.10957887
v 0.02282074 -0.04217136 0.10957764
v 0.01952177 -0.04380458 0.10957792
v 0.01612137 -0.04517475 0.10957663
v 0.01261654 -0.04628486 0.10957955
v 0.00902518 -0.04712515 0.10957793
v 0.00539405 -0.04768566 0.10957787
v 0.00172986 -0.04796717 0.10956890
v -0.00142183 -0.04800043 0.10959634
v -0.00562034 -0.04768461 0.10957824
v -0.00924490 -0.04712453 0.10957846
v -0.01282681 -0.04628630 0.10957745
v -0.01633858 -0.04517486 0.10957813
v -0.01973808 -0.04380432 0.10957649
v -0.02302962 -0.04217576 0.10957952
v -0.02620189 -0.04028999 0.10957799
v -0.02920971 -0.03817394 0.10957781
v -0.03203966 -0.03583988 0.10957689
v -0.03469273 -0.03328739 0.10957941
v -0.03714367 -0.03053659 0.10957797
v -0.03936824 -0.02761772 0.10957815
v -0.04136583 -0.02453298 0.10957731
v -0.04312643 -0.02129544 0.10957850
v -0.04462547 -0.01795035 0.10957637
v -0.04586905 -0.01449089 0.10958005
v -0.04684526 -0.01093787 0.10957767
v -0.04754573 -0.00732490 0.10957787
v -0.04796597 -0.00368256 0.10957670
v -0.04810751 -0.00000632 0.10957824
v -0.04796623 0.00367721 0.10957794
v -0.04754465 0.00732598 0.10957792
v -0.04684506 0.01093434 0.10958169
v -0.04587725 0.01445961 0.10958212
v -0.04462485 0.01794716 0.10957829
v -0.04312477 0.02129285 0.10957858
v -0.04136676 0.02452573 0.10957753
v -0.03936486 0.02761682 0.10957807
v -0.03714246 0.03053176 0.10957653
v -0.03469900 0.03327505 0.10957957
v -0.03204039 0.03583378 0.10957797
v -0.02920387 0.03817261 0.10957783
v -0.02619734 0.04028737 0.10958067
v -0.02305291 0.04215752 0.10958137
v -0.01973705 0.04379939 0.10957813
v -0.01633342 0.04517088 0.10957822
v -0.01282851 0.04628003 0.10957738
v -0.00924069 0.04711963 0.10957839
v -0.00551930 0.04769096 0.10941305
v -0.00286522 0.04791787 0.11028639
v -0.00686715 0.03484776 0.08155704
v -0.00848539 0.03468022 0.08348999
v 0.01341243 0.03351625 0.08535508
v 0.02864264 0.02189978 0.08535508
v 0.03537197 -0.00689451 0.08535508
v 0.02287959 -0.02789376 0.08535508
v -0.00563582 -0.03572107 0.08535509
v -0.02885917 -0.02190557 0.08535508
v -0.02089369 0.02956581 0.08535509
v -0.02708425 0.02405201 0.08535509
v -0.03044007 0.01965223 0.08535508
v -0.03308492 0.01479178 0.08535508
v -0.03309347 -0.01477848 0.08535509
v -0.03559249 -0.00687398 0.08535508
v -0.03622550 -0.00137681 0.08535508
v -0.03558852 0.00688869 0.08535509
v -0.02517877 -0.02603771 0.08535508
v -0.02091075 -0.02955959 0.08535509
v -0.01615515 -0.03238868 0.08535508
v 0.01078694 -0.03446499 0.08535508
v 0.02863000 -0.02192216 0.08535510
v 0.03600896 0.00137105 0.08535508
v 0.03537595 0.00686822 0.08535509
v 0.02289569 0.02787470 0.08535509
v 0.01837063 0.03105951 0.08535509
v 0.01490743 0.03216286 0.08257934
v -0.00527440 0.03577629 0.08534209
v 0.00541931 0.03571528 0.08535509
v -0.01100348 0.03445920 0.08535508
v -0.01613645 0.03239216 0.08535509
v -0.01418792 0.03258974 0.08259963
v -0.03157501 0.01681822 0.08349098
v -0.02929936 0.02021921 0.08267822
v -0.02674296 0.02374052 0.08348082
v -0.02290509 0.02743146 0.08344318
v -0.01849796 0.03057493 0.08349548
v -0.03323150 -0.01277448 0.08258805
v -0.03459966 -0.00846229 0.08268825
v -0.03555473 -0.00409003 0.08348082
v -0.03576321 0.00136876 0.08348082
v -0.03515077 0.00666837 0.08345195
v -0.03383890 0.01108660 0.08260545
v -0.03137538 -0.01719453 0.08349539
v -0.01812255 -0.03080199 0.08349036
v -0.02148997 -0.02835574 0.08267967
v -0.02474082 -0.02579831 0.08343154
v -0.02834822 -0.02181338 0.08349529
v -0.01102338 -0.03445869 0.08535509
v -0.01253484 -0.03326229 0.08260267
v 0.01090000 -0.03394293 0.08349122
v 0.00693557 -0.03480913 0.08268047
v 0.00376696 -0.03529809 0.08263940
v -0.00242044 -0.03560673 0.08345035
v -0.00805430 -0.03478859 0.08349549
v 0.01835268 -0.03107596 0.08535508
v 0.01652496 -0.03137339 0.08260600
v 0.02997781 -0.01918407 0.08348958
v 0.02739585 -0.02246561 0.08268029
v 0.02472414 -0.02560709 0.08343554
v 0.02059255 -0.02906599 0.08349541
v 0.03286842 -0.01479749 0.08535509
v 0.03262423 -0.01375006 0.08259485
v 0.03422848 0.00969710 0.08349070
v 0.03495146 0.00564056 0.08267716
v 0.03554706 0.00135880 0.08348082
v 0.03534142 -0.00396362 0.08344500
v 0.03434358 -0.00929020 0.08349544
v 0.03287695 0.01477268 0.08535508
v 0.03189613 0.01537229 0.08260447
v 0.02021187 0.02932579 0.08348866
v 0.02344783 0.02656475 0.08265386
v 0.02643034 0.02382951 0.08343942
v 0.02973450 0.01955712 0.08349548
v -0.00438157 0.03525286 0.08266270
v 0.00041042 0.03567459 0.08348844
v 0.00521129 0.03526930 0.08344855
v 0.01050648 0.03406341 0.08349533
v -0.01210787 0.03340758 0.08155704
v -0.01004039 0.03409384 0.08157617
v -0.01688402 0.03129533 0.08155186
v -0.01940491 0.02979458 0.08155704
v -0.02147176 0.02836004 0.08156100
v -0.02372733 0.02649975 0.08155704
v -0.02568678 0.02461396 0.08155704
v -0.02749613 0.02258372 0.08155704
v -0.03062299 0.01813827 0.08155704
v -0.03303460 0.01326762 0.08155704
v -0.03209503 0.01541764 0.08154493
v -0.03460208 0.00842815 0.08152632
v -0.03519222 0.00541616 0.08155704
v -0.03550410 0.00271461 0.08155704
v -0.03560827 -0.00000289 0.08155704
v -0.03550410 -0.00272039 0.08155704
v -0.03519222 -0.00542194 0.08155704
v -0.03395384 -0.01071397 0.08155704
v -0.02931088 -0.02020490 0.08154874
v -0.03062299 -0.01814405 0.08155704
v -0.03207543 -0.01546983 0.08154933
v -0.02749613 -0.02258950 0.08155704
v -0.02569803 -0.02460952 0.08155805
v -0.02372733 -0.02650553 0.08155704
v -0.01940491 -0.02980036 0.08155704
v -0.01463021 -0.03239677 0.08155704
v -0.01653687 -0.03149021 0.08158111
v -0.00986202 -0.03414416 0.08149376
v -0.00686715 -0.03485354 0.08155704
v -0.00434521 -0.03525700 0.08156622
v -0.00095035 -0.03550793 0.08158391
v 0.00125148 -0.03547684 0.08155704
v 0.00929857 -0.03423389 0.08155704
v 0.01441367 -0.03239677 0.08155704
v 0.01225148 -0.03329475 0.08157660
v 0.01891309 -0.02998797 0.08153386
v 0.02141273 -0.02823579 0.08155704
v 0.02347739 -0.02653999 0.08156910
v 0.02547025 -0.02461974 0.08155704
v 0.02892823 -0.02042670 0.08155704
v 0.03170561 -0.01575494 0.08155704
v 0.03065890 -0.01773757 0.08157164
v 0.03366726 -0.01097099 0.08155277
v 0.03445792 -0.00809169 0.08155704
v 0.03494695 -0.00566176 0.08155528
v 0.03528757 -0.00272039 0.08155704
v 0.03539174 -0.00000289 0.08155704
v 0.03528757 0.00271461 0.08155704
v 0.03445792 0.00808591 0.08155704
v 0.03281807 0.01326762 0.08155704
v 0.03363370 0.01106013 0.08154170
v 0.03059615 0.01783339 0.08151949
v 0.02892823 0.02042092 0.08155704
v 0.02736085 0.02249508 0.08156665
v 0.02547025 0.02461396 0.08155704
v 0.02141273 0.02823000 0.08155704
v 0.01685079 0.03118429 0.08155704
v 0.01888732 0.02999978 0.08156335
v 0.01224995 0.03328944 0.08154105
v 0.00038472 0.03551418 0.08152032
v 0.00396300 0.03526288 0.08155704
v 0.00695481 0.03479702 0.08154150
v 0.00929857 0.03422811 0.08155704
v 0.00902265 -0.02990561 0.00200065
v 0.02032482 0.02370262 0.00200030
v -0.01051354 -0.02947174 0.00200104
v -0.02191829 -0.02219640 0.00200125
v -0.03025813 -0.00719466 0.00200080
v -0.03003641 0.00805382 0.00200113
v -0.02640611 0.01647609 0.00200059
v -0.00272307 0.03091758 0.00200071
v -0.01944067 0.02425181 0.00200125
v 0.01029700 0.02946596 0.00200104
v 0.02909865 0.01119836 0.00200290
v 0.03071935 0.00321784 0.00200109
v 0.03031672 -0.00652586 0.00200125
v 0.02577890 -0.01726799 0.00200125
v 0.03201188 -0.01511679 0.00626983
v 0.03355903 -0.01131610 0.00632261
v 0.03482229 -0.00640426 0.00631733
v 0.02986491 -0.01902279 0.00625976
v 0.03088373 -0.01731606 0.00700000
v 0.02746559 -0.02236917 0.00629483
v 0.02387734 -0.02620777 0.00634787
v 0.02075541 -0.02872260 0.00627209
v 0.01850464 -0.03023218 0.00700000
v 0.01296478 -0.03300593 0.00625732
v 0.01699172 -0.03111064 0.00625559
v 0.00875452 -0.03437557 0.00625517
v 0.00433824 -0.03522186 0.00627677
v 0.00737085 -0.03470610 0.00700000
v 0.00037059 -0.03552523 0.00671543
v -0.00455206 -0.03522175 0.00625786
v -0.00891133 -0.03439140 0.00625716
v -0.01318385 -0.03300522 0.00627813
v -0.01050348 -0.03394681 0.00700000
v -0.02113338 -0.02861709 0.00659233
v -0.01679262 -0.03136265 0.00635642
v -0.02436054 -0.02592255 0.00625614
v -0.02573771 -0.02456672 0.00700000
v -0.02746824 -0.02261987 0.00627871
v -0.02989320 -0.01935112 0.00633901
v -0.03234052 -0.01490846 0.00662060
v -0.03386442 -0.01098612 0.00626594
v -0.03446279 -0.00894811 0.00700000
v -0.03497730 -0.00665597 0.00628153
v -0.03551970 -0.00268636 0.00661419
v -0.03446279 0.00894233 0.00700000
v -0.03497859 0.00664304 0.00626694
v -0.03552025 0.00266139 0.00632097
v -0.03560827 -0.00000289 0.00700000
v -0.03233955 0.01490488 0.00664232
v -0.03387076 0.01096164 0.00625923
v -0.02745591 0.02263187 0.00657507
v -0.02987993 0.01936647 0.00632334
v -0.02107991 0.02864845 0.00660913
v -0.02440443 0.02587754 0.00625664
v -0.02573771 0.02456094 0.00700000
v -0.01317207 0.03300423 0.00627451
v -0.01681077 0.03134796 0.00633908
v -0.00894839 0.03437884 0.00654694
v -0.01050348 0.03394103 0.00700000
v -0.00015032 0.03549392 0.00625535
v -0.00456441 0.03521422 0.00625738
v 0.00737085 0.03470032 0.00700000
v 0.00434883 0.03521421 0.00627611
v 0.00139839 0.03546512 0.00700000
v 0.01697019 0.03111629 0.00625854
v 0.01303327 0.03297792 0.00627267
v 0.00873133 0.03437622 0.00625200
v 0.02075811 0.02871721 0.00700000
v 0.01850464 0.03022639 0.00700000
v 0.02392385 0.02615614 0.00635771
v 0.03088373 0.01731028 0.00700000
v 0.02984524 0.01904555 0.00625838
v 0.02736487 0.02249437 0.00629483
v 0.03355400 0.01132890 0.00667747
v 0.03201445 0.01510450 0.00628003
v 0.03531805 -0.00224982 0.00627960
v 0.03539174 -0.00000289 0.00700000
v 0.03531903 0.00223957 0.00626812
v 0.03483067 0.00636239 0.00662702
v 0.02057059 0.02857438 0.00539637
v 0.03303280 0.01071269 0.00435163
v 0.03426804 0.00653304 0.00471341
v -0.00015830 -0.03483321 0.00435163
v -0.02069337 -0.02829958 0.00471341
v -0.03177916 -0.01488252 0.00471340
v -0.03503267 -0.00217878 0.00471339
v -0.03176100 0.01491532 0.00471339
v -0.02691358 0.02223735 0.00435162
v -0.02065887 0.02831886 0.00471339
v -0.00872174 0.03374561 0.00435162
v 0.00426034 0.03449823 0.00438020
v 0.00855002 0.03367865 0.00438021
v 0.01261305 0.03191906 0.00370758
v 0.01665428 0.03046724 0.00438019
v 0.02370526 0.02534128 0.00438018
v 0.02669395 0.02215682 0.00438019
v 0.02894675 0.01834510 0.00370758
v 0.03136281 0.01479519 0.00438020
v 0.03460035 0.00217075 0.00438021
v 0.03459908 -0.00219653 0.00438020
v 0.03405045 -0.00652923 0.00438019
v 0.03296314 -0.01075899 0.00438020
v 0.03135427 -0.01481911 0.00438019
v 0.02924922 -0.01864558 0.00438020
v 0.02668116 -0.02217805 0.00438018
v 0.02369062 -0.02536080 0.00438017
v 0.02032482 -0.02814363 0.00438021
v 0.01663669 -0.03048268 0.00438019
v 0.01268452 -0.03234104 0.00438018
v 0.00836323 -0.03330569 0.00370758
v 0.00424044 -0.03450652 0.00438020
v -0.00447688 -0.03450400 0.00438019
v -0.00876656 -0.03368443 0.00438020
v -0.01291971 -0.03233365 0.00438017
v -0.01687080 -0.03047301 0.00438017
v -0.02392180 -0.02534706 0.00438018
v -0.02663455 -0.02184778 0.00370757
v -0.02947649 -0.01862866 0.00438020
v -0.03281342 -0.01054878 0.00370758
v -0.03427075 -0.00650952 0.00438018
v -0.03439895 0.00223136 0.00370758
v -0.03426699 0.00652345 0.00438018
v -0.03317967 0.01075320 0.00438018
v -0.02946574 0.01863981 0.00438018
v -0.02390717 0.02535502 0.00438019
v -0.01659569 0.03014686 0.00370758
v -0.01290106 0.03233526 0.00438019
v -0.00445699 0.03450074 0.00438020
v -0.00009823 0.03477369 0.00438018
v 0.02007369 0.02774866 0.00374348
v 0.00631375 0.03319122 0.00317445
v 0.01762215 0.02839797 0.00289979
v 0.02459825 0.02307694 0.00317445
v 0.03092956 0.01255219 0.00289979
v 0.03344571 0.00414693 0.00317445
v 0.03342358 -0.00432792 0.00317445
v 0.03129453 -0.01253107 0.00317445
v 0.02719231 -0.01994706 0.00317446
v 0.02137471 -0.02610985 0.00317446
v 0.01420724 -0.03063225 0.00317445
v 0.00224109 -0.03340135 0.00289979
v -0.00653030 -0.03319700 0.00317446
v -0.01458358 -0.03055705 0.00317445
v -0.02172732 -0.02599728 0.00317446
v -0.02977830 -0.01621338 0.00317445
v -0.03366226 -0.00415272 0.00317446
v -0.03283363 0.00849074 0.00317445
v -0.03064260 0.01439279 0.00318687
v -0.02733978 0.01947585 0.00289979
v -0.02159123 0.02610408 0.00317446
v -0.01068971 0.03176202 0.00289979
v -0.00214305 0.03374546 0.00317446
v 0.00614658 0.03186245 0.00236254
v 0.01387467 0.02930582 0.00236254
v 0.02368201 0.02210018 0.00236254
v 0.02843141 0.01548937 0.00236254
v 0.03213033 0.00389535 0.00236254
v 0.03208695 -0.00424456 0.00236254
v 0.03002059 -0.01211795 0.00236254
v 0.02606114 -0.01923007 0.00236253
v 0.02014382 -0.02493516 0.00220617
v 0.01356145 -0.02945901 0.00236254
v 0.00580656 -0.03193310 0.00236254
v -0.00339122 -0.03187406 0.00219089
v -0.01030757 -0.03083304 0.00236254
v -0.01765430 -0.02732798 0.00236254
v -0.02389852 -0.02210598 0.00236254
v -0.02839377 -0.01522442 0.00220617
v -0.03160408 -0.00791093 0.00236254
v -0.03205103 -0.00125473 0.00216568
v -0.03230348 0.00423878 0.00236254
v -0.03023714 0.01211214 0.00236254
v -0.02639617 0.01836799 0.00220063
v -0.02067395 0.02512829 0.00236254
v -0.01377797 0.02945322 0.00236254
v -0.00197451 0.03241686 0.00236254
v -0.01018957 0.03000734 0.00209013
v 0.03801601 -0.00352529 0.08549070
v 0.04877293 -0.00697224 0.10661216
v 0.03808591 -0.00590234 0.08620746
v 0.03710938 -0.00873215 0.08539578
v 0.04784488 -0.01185972 0.10669623
v 0.03616648 -0.01220127 0.08544533
v 0.04634208 -0.01608530 0.10618323
v 0.03573702 -0.01444984 0.08620746
v 0.04423017 -0.02176136 0.10666223
v 0.03416159 -0.01693394 0.08538315
v 0.03243696 -0.02014351 0.08545136
v 0.04172227 -0.02628173 0.10669990
v 0.03150234 -0.02223729 0.08620746
v 0.03984994 -0.02810887 0.10563598
v 0.02899257 -0.02485281 0.08543341
v 0.03863677 -0.03065978 0.10672481
v 0.02773781 -0.02680206 0.08620746
v 0.03519163 -0.03420864 0.10620338
v 0.02482691 -0.02904047 0.08545781
v 0.03058701 -0.03829214 0.10600027
v 0.02332059 -0.03073866 0.08620746
v 0.02013952 -0.03247719 0.08543957
v 0.02703109 -0.04127560 0.10670135
v 0.01835422 -0.03395485 0.08620746
v 0.02287834 -0.04343717 0.10615865
v 0.01489269 -0.03521945 0.08547210
v 0.01722669 -0.04592935 0.10604218
v 0.01295511 -0.03637523 0.08620746
v 0.00939207 -0.03707621 0.08544468
v 0.01274247 -0.04744363 0.10620877
v 0.00724980 -0.03794308 0.08620746
v 0.00827589 -0.04843807 0.10618493
v 0.00402024 -0.03803761 0.08544848
v 0.00225240 -0.04933787 0.10665912
v -0.00017092 -0.03828641 0.08544203
v -0.00198282 -0.04918878 0.10631490
v -0.00518758 -0.03793521 0.08544630
v -0.00571089 -0.04853346 0.10563598
v -0.00746633 -0.03794308 0.08620746
v -0.00814727 -0.04875677 0.10674364
v -0.01317933 -0.04764048 0.10668989
v -0.01093523 -0.03671161 0.08545142
v -0.01317164 -0.03637523 0.08620746
v -0.01812968 -0.04600037 0.10670541
v -0.01575409 -0.03488178 0.08539412
v -0.02225606 -0.04382629 0.10607995
v -0.01896300 -0.03330382 0.08543601
v -0.02111558 -0.03244194 0.08620746
v -0.02708834 -0.04108317 0.10618192
v -0.02387540 -0.03000554 0.08546270
v -0.03198333 -0.03732214 0.10601418
v -0.02582118 -0.02885501 0.08620746
v -0.02768011 -0.02647981 0.08539137
v -0.03537571 -0.03423036 0.10620104
v -0.03004093 -0.02385078 0.08544341
v -0.03847112 -0.03073633 0.10618926
v -0.03171887 -0.02223729 0.08620746
v -0.04198385 -0.02563598 0.10606628
v -0.03337057 -0.01893483 0.08545448
v -0.03474248 -0.01715138 0.08620746
v -0.04459518 -0.02147299 0.10669612
v -0.03585291 -0.01367690 0.08544488
v -0.04613706 -0.01725474 0.10618362
v -0.03695428 -0.01166352 0.08620746
v -0.04788571 -0.01145027 0.10614857
v -0.03732026 -0.00874255 0.08538441
v -0.03803032 -0.00517382 0.08545059
v -0.04908387 -0.00648207 0.10670732
v -0.03864198 -0.00296130 0.08620746
v -0.04919369 -0.00075405 0.10604777
v -0.03833466 -0.00001689 0.08539054
v -0.03821078 0.00358830 0.08544511
v -0.04933949 0.00407309 0.10670586
v -0.03830245 0.00589656 0.08620746
v -0.04816593 0.00992354 0.10599457
v -0.03720239 0.00941721 0.08545051
v -0.03695428 0.01165774 0.08620746
v -0.04734128 0.01445552 0.10670302
v -0.03538454 0.01485630 0.08546083
v -0.04550994 0.01880581 0.10616526
v -0.03474248 0.01714560 0.08620746
v -0.04273868 0.02432849 0.10603181
v -0.03297180 0.01952316 0.08539151
v -0.03102599 0.02255277 0.08544372
v -0.04043108 0.02852863 0.10669706
v -0.02992409 0.02458604 0.08620746
v -0.03745912 0.03195281 0.10618600
v -0.02728955 0.02696312 0.08549496
v -0.03313990 0.03633733 0.10609530
v -0.02582118 0.02884923 0.08620746
v -0.02327041 0.03040899 0.08539629
v -0.02946409 0.03972579 0.10669653
v -0.02032808 0.03249044 0.08544577
v -0.02561262 0.04201863 0.10618306
v -0.01857076 0.03394907 0.08620746
v -0.02031840 0.04479570 0.10619090
v -0.01577668 0.03486188 0.08538181
v -0.01239983 0.03624306 0.08545217
v -0.01558011 0.04691262 0.10670327
v -0.01034904 0.03726272 0.08620746
v -0.01305338 0.04710368 0.10563598
v -0.00732296 0.03753381 0.08538470
v -0.01032723 0.04832615 0.10670949
v -0.00446212 0.03796971 0.08538369
v -0.00548650 0.04884887 0.10618259
v 0.00040839 0.03825641 0.08541768
v 0.00062731 0.04906330 0.10599599
v 0.00493322 0.03793346 0.08544066
v 0.00519490 0.04885454 0.10619867
v 0.00724980 0.03793730 0.08620746
v 0.01003337 0.04833041 0.10663831
v 0.01072368 0.03671206 0.08547577
v 0.01581431 0.04643662 0.10605366
v 0.01295511 0.03636945 0.08620746
v 0.01555389 0.03486855 0.08539458
v 0.02027860 0.04472179 0.10621145
v 0.01876304 0.03329177 0.08544451
v 0.02433146 0.04264648 0.10618417
v 0.02089905 0.03243616 0.08620746
v 0.02940533 0.03926467 0.10612946
v 0.02366164 0.02999374 0.08545434
v 0.02560465 0.02884923 0.08620746
v 0.03348016 0.03621945 0.10669780
v 0.02794776 0.02602638 0.08544681
v 0.03509130 0.03387329 0.10563598
v 0.02970756 0.02458604 0.08620746
v 0.03720876 0.03238030 0.10673205
v 0.03118700 0.02194631 0.08538881
v 0.04034336 0.02835662 0.10670383
v 0.03313812 0.01895919 0.08545395
v 0.04324156 0.02299058 0.10598962
v 0.03452595 0.01714560 0.08620746
v 0.03562589 0.01369233 0.08543727
v 0.04519476 0.01903494 0.10619252
v 0.03673775 0.01165774 0.08620746
v 0.04686406 0.01444968 0.10617301
v 0.03731809 0.00801962 0.08546555
v 0.04845915 0.00855327 0.10647755
v 0.03808591 0.00589656 0.08620746
v 0.03809487 0.00226829 0.08544273
v 0.04915722 0.00376563 0.10672427
v 0.03853885 -0.00000289 0.08620746
v 0.04904074 -0.00079435 0.10618745
v -0.00456792 0.03724175 0.08246637
v -0.00723776 0.03681520 0.08245890
v -0.01060591 0.03601055 0.08233219
v -0.01278390 0.03528986 0.08155704
v -0.01544424 0.03422002 0.08246968
v -0.01770996 0.03312317 0.08247267
v -0.02049279 0.03147523 0.08246147
v -0.02267415 0.02996050 0.08247949
v -0.02508067 0.02797904 0.08246837
v -0.02722046 0.02591577 0.08225036
v -0.02903911 0.02385620 0.08155704
v -0.03105636 0.02120542 0.08234600
v -0.03234213 0.01916031 0.08155704
v -0.03373971 0.01659521 0.08249473
v -0.03468145 0.01455419 0.08153986
v -0.03572299 0.01174931 0.08237849
v -0.03652468 0.00901009 0.08247889
v -0.03721507 0.00544030 0.08225840
v -0.03749823 0.00286771 0.08155704
v -0.03761121 0.00000855 0.08245425
v -0.03748610 -0.00311702 0.08227160
v -0.03716878 -0.00572724 0.08155704
v -0.03650976 -0.00908720 0.08235847
v -0.03586063 -0.01131741 0.08155704
v -0.03487909 -0.01405588 0.08247975
v -0.03392583 -0.01624005 0.08247179
v -0.03234521 -0.01916712 0.08247013
v -0.03098475 -0.02130476 0.08247560
v -0.02885375 -0.02409438 0.08227408
v -0.02712783 -0.02600661 0.08155704
v -0.02506167 -0.02799782 0.08244860
v -0.02247036 -0.03012193 0.08232623
v -0.02049205 -0.03147910 0.08155704
v -0.01749464 -0.03324762 0.08235819
v -0.01544834 -0.03422178 0.08155704
v -0.01277369 -0.03530179 0.08247156
v -0.01041469 -0.03607309 0.08248096
v -0.00725963 -0.03681781 0.08246524
v -0.00462835 -0.03723809 0.08246991
v -0.00145967 -0.03748415 0.08243203
v 0.00074594 -0.03750939 0.08154873
v 0.00408688 -0.03727209 0.08242763
v 0.00735000 -0.03677078 0.08231922
v 0.00982854 -0.03616240 0.08155704
v 0.01257831 -0.03529569 0.08248949
v 0.01456404 -0.03453166 0.08154285
v 0.01740803 -0.03316344 0.08237464
v 0.02002232 -0.03165829 0.08249057
v 0.02261042 -0.02984158 0.08246081
v 0.02475982 -0.02807841 0.08246113
v 0.02690653 -0.02601580 0.08245429
v 0.02908125 -0.02356645 0.08231906
v 0.03056408 -0.02157734 0.08155704
v 0.03236416 -0.01879678 0.08234642
v 0.03349794 -0.01664239 0.08155704
v 0.03468168 -0.01400937 0.08247980
v 0.03548738 -0.01185079 0.08247068
v 0.03641157 -0.00853640 0.08247199
v 0.03729991 -0.00433455 0.08316784
v 0.03690546 -0.00609058 0.08155142
v 0.03728170 -0.00287349 0.08155704
v 0.03739612 0.00028383 0.08226711
v 0.03728170 0.00286771 0.08155704
v 0.03688871 0.00621052 0.08233911
v 0.03640531 0.00854161 0.08155704
v 0.03548747 0.01185617 0.08236497
v 0.03467307 0.01401525 0.08155704
v 0.03350116 0.01663763 0.08247539
v 0.03235323 0.01879897 0.08247512
v 0.03056563 0.02157492 0.08246494
v 0.02894905 0.02371734 0.08247949
v 0.02689772 0.02602158 0.08246715
v 0.02472467 0.02811146 0.08227308
v 0.02262519 0.02982059 0.08155704
v 0.01981369 0.03178571 0.08234705
v 0.01780623 0.03294132 0.08155704
v 0.01522237 0.03422276 0.08247434
v 0.01292371 0.03517349 0.08247372
v 0.00981396 0.03616316 0.08246827
v 0.00734788 0.03676029 0.08247707
v 0.00420017 0.03725179 0.08245840
v 0.00120459 0.03748333 0.08232097
v -0.00010827 0.03749711 0.08155704
v 0.00057042 -0.03305465 0.00000009
v 0.01946735 -0.02694130 0.00000045
v 0.03127894 -0.01030269 0.00000066
v 0.03083230 0.01219753 0.00000096
v 0.02310223 0.02350276 0.00000066
v 0.00649666 0.03232687 0.00000074
v -0.00954719 0.03163706 0.00000117
v -0.01863426 0.02745113 0.00000117
v -0.02601112 0.02043784 0.00000102
v -0.03117975 0.01144772 0.00000204
v -0.03324191 -0.00128981 0.00000029
v -0.02442536 -0.02247190 0.00000102
v -0.01510071 -0.02943874 0.00000066
v 0.03525621 0.01246525 0.00425747
v 0.03651024 0.00806225 0.00425050
v 0.03685233 0.00633464 0.00500000
v 0.03345855 0.01671202 0.00425988
v 0.03113424 0.02073389 0.00428003
v 0.03262976 0.01828567 0.00500000
v 0.02906808 0.02355536 0.00500000
v 0.02833608 0.02442841 0.00424989
v 0.02495377 0.02791358 0.00467719
v 0.02153597 0.03061841 0.00426730
v 0.01955326 0.03192945 0.00500000
v 0.01362750 0.03490184 0.00460585
v 0.01760418 0.03304735 0.00425668
v 0.00448584 0.03721425 0.00458491
v 0.00856899 0.03650069 0.00435601
v -0.00013849 0.03749458 0.00425438
v -0.00472210 0.03721027 0.00425785
v 0.00148328 0.03746332 0.00500000
v -0.00926029 0.03636142 0.00426038
v -0.01751797 0.03323124 0.00432093
v -0.01369219 0.03494777 0.00427960
v -0.01108912 0.03585336 0.00500000
v -0.02219099 0.03032983 0.00434236
v -0.02537012 0.02770973 0.00427010
v -0.02718162 0.02594482 0.00500000
v -0.02860637 0.02436666 0.00425479
v -0.03129695 0.02083112 0.00459464
v -0.03392650 0.01625579 0.00436769
v -0.03548465 0.01243211 0.00427652
v -0.03639825 0.00944628 0.00500000
v -0.03674483 0.00798225 0.00425125
v -0.03744720 0.00345021 0.00425995
v -0.03760827 -0.00000289 0.00500000
v -0.03758300 -0.00121911 0.00424314
v -0.03716145 -0.00576373 0.00426033
v -0.03628097 -0.00995322 0.00462321
v -0.03451070 -0.01496880 0.00433928
v -0.03257189 -0.01877149 0.00427125
v -0.03117738 -0.02100195 0.00500000
v -0.03002022 -0.02261626 0.00425731
v -0.02240701 -0.03015279 0.00500000
v -0.02361930 -0.02921446 0.00425761
v -0.02711248 -0.02602584 0.00427053
v -0.01699091 -0.03348761 0.00500000
v -0.01981508 -0.03190482 0.00427689
v -0.00699567 -0.03686347 0.00426225
v -0.01129693 -0.03580415 0.00462590
v -0.01572445 -0.03409145 0.00424645
v -0.00236924 -0.03743334 0.00430115
v -0.00009726 -0.03750240 0.00456053
v -0.00487144 -0.03719916 0.00500000
v 0.01128669 -0.03572799 0.00427222
v 0.00719377 -0.03680589 0.00435434
v 0.00213237 -0.03743689 0.00455364
v 0.01963646 -0.03188160 0.00425771
v 0.01559253 -0.03405444 0.00425345
v 0.01387385 -0.03479873 0.00500000
v 0.02339698 -0.02921968 0.00425945
v 0.02682728 -0.02609149 0.00428007
v 0.02906808 -0.02356114 0.00500000
v 0.02466704 -0.02815310 0.00500000
v 0.03442945 -0.01460702 0.00426735
v 0.03249480 -0.01855481 0.00465133
v 0.02985342 -0.02254460 0.00424322
v 0.03596737 -0.01023059 0.00428116
v 0.03524964 -0.01249564 0.00500000
v 0.03722668 0.00349180 0.00427319
v 0.03740843 -0.00064872 0.00436004
v 0.03691853 -0.00602662 0.00461942
v -0.00169817 -0.03442156 0.00037056
v -0.00169694 -0.03575915 0.00119147
v -0.00172001 -0.03677643 0.00238452
v 0.00154845 -0.03700439 0.00274586
v -0.02158163 0.02696726 0.00036246
v -0.01435468 0.03139032 0.00036246
v -0.01317128 0.03393284 0.00170724
v -0.00849024 0.03414091 0.00067523
v -0.00349840 0.03379398 0.00016525
v -0.00449935 0.03609413 0.00170724
v 0.00219241 0.03439480 0.00036246
v -0.00003016 0.03636014 0.00170724
v 0.00431092 0.03548054 0.00118677
v 0.00445916 0.03670610 0.00271323
v 0.00866033 0.03404367 0.00067523
v 0.00887196 0.03566038 0.00238008
v -0.02454816 0.02692234 0.00170724
v -0.02105413 0.02972163 0.00170724
v -0.03149070 0.01584638 0.00067523
v -0.03321740 0.00960333 0.00036246
v -0.03437827 0.01215620 0.00170724
v -0.03302473 0.01639897 0.00238012
v -0.03174168 -0.01151071 0.00009010
v -0.03104788 -0.01520928 0.00036246
v -0.03362563 -0.01410476 0.00170724
v -0.03163864 -0.01811676 0.00170724
v -0.02346542 -0.02535911 0.00036246
v -0.01657524 -0.03029040 0.00036246
v -0.02296597 -0.02828366 0.00170724
v -0.01931736 -0.03087824 0.00170724
v -0.00871810 -0.03302078 0.00020603
v -0.00686675 -0.03573241 0.00170723
v 0.00943432 -0.03260137 0.00016525
v 0.00479428 -0.03409035 0.00036240
v 0.00508524 -0.03540275 0.00117918
v 0.01084085 -0.03467844 0.00170724
v 0.00663934 -0.03615510 0.00238008
v 0.01966406 -0.02824380 0.00036246
v 0.02595523 -0.02256810 0.00036246
v 0.02262773 -0.02838160 0.00170724
v 0.02594281 -0.02537251 0.00170724
v 0.02890520 -0.01766471 0.00016525
v 0.03234670 -0.01162912 0.00036246
v 0.03084610 -0.01790350 0.00118677
v 0.03334821 -0.01424862 0.00170725
v 0.03191693 -0.01851771 0.00271324
v 0.03375896 -0.00205508 0.00014691
v 0.03398525 0.00510849 0.00036246
v 0.03524456 -0.00302213 0.00089928
v 0.03610686 0.00327450 0.00170724
v 0.03665052 -0.00114565 0.00238011
v 0.03170879 0.01326996 0.00036246
v 0.02751038 0.02062971 0.00036246
v 0.03247741 0.01613558 0.00170724
v 0.03024719 0.02001767 0.00170725
v 0.01498006 0.03009702 0.00008918
v 0.02164362 0.02674313 0.00036246
v 0.02400006 0.02640528 0.00118676
v 0.02096509 0.02963138 0.00170724
v 0.02482915 0.02731992 0.00271322
v -0.01724258 0.03207033 0.00170724
v -0.02767172 0.02371488 0.00170724
v -0.02751145 0.02091503 0.00036246
v -0.03093293 0.02044831 0.00271323
v -0.02990193 0.01976934 0.00118676
v -0.03561273 0.00785267 0.00170724
v -0.03456049 0.00123741 0.00036246
v -0.03630898 0.00343004 0.00170724
v -0.03645646 -0.00104462 0.00170724
v -0.03402354 -0.00781112 0.00049378
v -0.03605294 -0.00550349 0.00170724
v -0.03554639 -0.01003295 0.00235132
v -0.02946275 -0.02215757 0.00238013
v -0.02828431 -0.02103069 0.00067523
v -0.02626809 -0.02526036 0.00170724
v -0.01537753 -0.03300480 0.00170724
v -0.01097227 -0.03407014 0.00118677
v -0.01134321 -0.03524757 0.00271323
v 0.01525360 -0.03341738 0.00238012
v 0.01440492 -0.03202514 0.00067523
v 0.01896802 -0.03096047 0.00170724
v 0.02886299 -0.02197884 0.00170724
v 0.03484526 -0.01002925 0.00170725
v 0.03627820 -0.00570266 0.00235133
v 0.03542962 0.00770006 0.00170724
v 0.03421366 0.01200887 0.00170725
v 0.02755681 0.02359625 0.00170724
v 0.01716367 0.03199643 0.00170724
v 0.01409913 0.03176759 0.00049378
v 0.01324382 0.03432180 0.00235132
v -0.00906865 0.03566537 0.00238008
v -0.04801209 0.00326413 0.23906226
v 0.03941618 -0.02726832 0.23903878
v 0.04260980 -0.02194698 0.23898194
v 0.04448237 -0.01777034 0.23901992
v 0.00970128 -0.04701140 0.23907274
v 0.01565424 -0.04536119 0.23895277
v 0.02004609 -0.04356680 0.23905675
v 0.02282229 -0.04217148 0.23883965
v 0.02462898 -0.04113853 0.23909603
v 0.02893651 -0.03821922 0.23926431
v 0.03290206 -0.03485008 0.23902125
v 0.03447677 -0.03328765 0.23883965
v 0.03647415 -0.03107922 0.23902054
v -0.00541323 -0.04771475 0.23906806
v -0.00010712 -0.04800335 0.23905856
v 0.00173026 -0.04796767 0.23883965
v 0.00507894 -0.04772196 0.23905651
v -0.02485824 -0.04113019 0.23902237
v -0.02001663 -0.04369320 0.23907232
v -0.01543432 -0.04549053 0.23905734
v -0.01282738 -0.04628706 0.23883965
v -0.01045934 -0.04687584 0.23926389
v -0.03691860 -0.03083141 0.23903824
v -0.03311594 -0.03485267 0.23902268
v -0.03204390 -0.03583745 0.23883965
v -0.02916423 -0.03821098 0.23926164
v -0.02619951 -0.04029243 0.23883965
v -0.04466848 -0.01785817 0.23903117
v -0.04251663 -0.02248694 0.23895360
v -0.04136761 -0.02453178 0.23883965
v -0.03983886 -0.02693789 0.23902077
v -0.04810827 -0.00000289 0.23883965
v -0.04801170 -0.00328168 0.23906457
v -0.04747619 -0.00776775 0.23905660
v -0.04684565 -0.01093986 0.23883965
v -0.04636128 -0.01283660 0.23905832
v -0.04684565 0.01093408 0.23883965
v -0.04747566 0.00776553 0.23905665
v -0.03269541 0.03527164 0.23907183
v -0.03691951 0.03082558 0.23926823
v -0.03983740 0.02693413 0.23902069
v -0.04136761 0.02452601 0.23883965
v -0.04251619 0.02248211 0.23895380
v -0.04467614 0.01783118 0.23896595
v -0.04635915 0.01283834 0.23905834
v -0.02619951 0.04028665 0.23883965
v -0.02915521 0.03821085 0.23905636
v 0.01563672 0.04536066 0.23907300
v 0.00966246 0.04701566 0.23907583
v 0.00508245 0.04771576 0.23905647
v 0.00173026 0.04796189 0.23883965
v -0.00010094 0.04799747 0.23905841
v -0.00545314 0.04770572 0.23906852
v -0.01042800 0.04687479 0.23905768
v -0.01282738 0.04628128 0.23883965
v -0.01543057 0.04548616 0.23905747
v -0.02008361 0.04365404 0.23907076
v -0.02485439 0.04112661 0.23892708
v 0.04258239 0.02198884 0.23893027
v 0.03941173 0.02726978 0.23904164
v 0.03647567 0.03107156 0.23902048
v 0.03447677 0.03328187 0.23883965
v 0.03290638 0.03484066 0.23905799
v 0.02894134 0.03820880 0.23906122
v 0.02463647 0.04112757 0.23905790
v 0.02282229 0.04216570 0.23883965
v 0.02004945 0.04355955 0.23905682
v 0.04565476 0.01447970 0.23883965
v 0.04448321 0.01776249 0.23901994
v 0.04565476 -0.01448548 0.23883965
v 0.04614137 -0.01284754 0.23902209
v 0.04730400 -0.00755734 0.23926464
v 0.04782167 -0.00259991 0.23909530
v 0.04789173 -0.00000289 0.23883965
v 0.04782226 0.00258801 0.23909550
v 0.04729295 0.00760561 0.23906956
v 0.04614104 0.01284569 0.23909671
v -0.03745116 -0.03317109 0.23933930
v -0.04684946 -0.01330036 0.23933734
v -0.04917683 -0.00528107 0.23936920
v -0.04713350 -0.01698602 0.23929998
v -0.04190549 -0.02435651 0.23933166
v -0.03537459 -0.03321962 0.23933618
v -0.02130085 -0.04373143 0.23933757
v -0.02168237 -0.04491680 0.23933645
v -0.00807082 -0.04936342 0.23926766
v 0.00213222 -0.04871625 0.23933776
v -0.00013984 -0.05000141 0.23930593
v 0.01449096 -0.04764439 0.23933620
v 0.01700927 -0.04519512 0.23932513
v 0.02290486 -0.04438873 0.23928819
v 0.03438956 -0.03570483 0.23933906
v 0.03497959 -0.03340899 0.23933640
v 0.04160970 -0.02448868 0.23933076
v 0.04489679 -0.02179549 0.23928933
v 0.04576427 -0.01558573 0.23933645
v 0.04869323 -0.01003303 0.23933268
v 0.04832039 0.00461524 0.23933480
v 0.04956078 0.00125871 0.23933612
v 0.04766790 0.01473696 0.23930063
v 0.04340066 0.02102176 0.23932423
v 0.04203893 0.02691499 0.23933709
v 0.03853846 0.02921360 0.23933671
v 0.02758744 0.04012895 0.23933818
v 0.02833189 0.04091005 0.23933621
v 0.02058049 0.04551358 0.23928705
v 0.00636878 0.04892598 0.23935814
v 0.00274419 0.04839530 0.23933800
v -0.00696559 0.04934954 0.23933625
v -0.01277021 0.04708662 0.23933762
v -0.02212003 0.04469712 0.23933660
v -0.02769920 0.03977220 0.23932586
v -0.02986950 0.04016999 0.23928619
v -0.04107129 0.02839125 0.23933684
v -0.04182622 0.02448417 0.23933115
v -0.04922751 0.00932065 0.23928601
v -0.04634040 0.01458227 0.23933084
v -0.04793855 0.01458982 0.23928225
v 0.08199330 0.00765275 0.21891040
v 0.08199560 0.00796142 0.13751741
v 0.08199584 -0.00296708 0.21899454
v 0.08199846 -0.00292410 0.13825786
v 0.08199335 0.00785665 0.23881453
v 0.08196524 -0.00285886 0.23881501
v 0.08398705 -0.00373782 0.23865557
v 0.08434900 0.00792857 0.23862736
v 0.08662191 -0.00295200 0.23808136
v 0.08663432 0.00794622 0.23807732
v 0.08879640 -0.00295198 0.23718177
v 0.08880802 0.00794620 0.23717585
v 0.09077442 -0.00359228 0.23595225
v 0.09081535 0.00826698 0.23593665
v 0.09259347 -0.00295198 0.23442556
v 0.09260269 0.00794618 0.23441634
v 0.09412252 -0.00295208 0.23263683
v 0.09413020 0.00794630 0.23262626
v 0.09532679 -0.00359223 0.23064333
v 0.09535889 0.00794618 0.23061930
v 0.09624655 -0.00327274 0.22846125
v 0.09625848 0.00794618 0.22844480
v 0.09682647 -0.00375655 0.22591258
v 0.09680164 0.00826693 0.22614917
v 0.09698946 -0.00292362 0.22384158
v 0.09699129 0.00796128 0.22379224
v 0.09699129 -0.00296709 0.13213833
v 0.09698946 0.00791780 0.13209317
v 0.09677134 -0.00295199 0.12956170
v 0.09676930 0.00794620 0.12954993
v 0.09610885 -0.00359226 0.12710232
v 0.09609070 0.00858649 0.12705154
v 0.09504583 -0.00359228 0.12476642
v 0.09501928 0.00858650 0.12471946
v 0.09359967 -0.00359232 0.12264627
v 0.09359249 0.00794624 0.12260957
v 0.09181283 -0.00359229 0.12080410
v 0.09177203 0.00858651 0.12076881
v 0.08973055 -0.00327276 0.11927633
v 0.08971046 0.00826698 0.11926425
v 0.08743226 -0.00358788 0.11815862
v 0.08740877 0.00795501 0.11813113
v 0.08495738 -0.00286160 0.11741448
v 0.08492709 0.00784352 0.11740739
v 0.05095860 -0.00638885 0.23699515
v 0.08342937 -0.00598180 0.23739713
v 0.05087813 -0.00518153 0.23806665
v 0.08215027 -0.00510128 0.23810495
v 0.05028314 -0.00327976 0.23880935
v 0.05057473 -0.00749732 0.23425369
v 0.08411485 -0.00749826 0.23424646
v 0.05066560 -0.00718045 0.23563901
v 0.08465134 -0.00720121 0.23550040
v 0.08306587 -0.00679975 0.23640158
v 0.08725460 -0.00577152 0.23662471
v 0.08758861 -0.00443572 0.23738093
v 0.08816076 -0.00722012 0.23405932
v 0.09206922 -0.00749864 0.22827731
v 0.09095498 -0.00577152 0.23437221
v 0.09221439 -0.00679577 0.23135062
v 0.09313677 -0.00443569 0.23336265
v 0.09377819 -0.00577152 0.23108649
v 0.09516596 -0.00578593 0.22816444
v 0.09322927 -0.00736188 0.22481622
v 0.09469336 -0.00672514 0.22539161
v 0.09642799 -0.00480916 0.22524385
v 0.09585177 -0.00570550 0.22381791
v 0.09659086 -0.00449506 0.13072695
v 0.09575243 -0.00581722 0.13081150
v 0.09454850 -0.00681539 0.13092897
v 0.09353044 -0.00725994 0.13105681
v 0.09236318 -0.00749873 0.12866642
v 0.08609996 -0.00748571 0.12199422
v 0.08600119 -0.00695609 0.12040201
v 0.08465973 -0.00637413 0.11919447
v 0.08623288 -0.00549082 0.11868430
v 0.09353541 -0.00678505 0.12692027
v 0.09460746 -0.00577743 0.12639736
v 0.09042472 -0.00704699 0.12319062
v 0.09194868 -0.00577744 0.12248751
v 0.08919406 -0.00578596 0.12025998
v 0.08489088 -0.00430229 0.11771680
v 0.08200805 0.00935563 0.23848185
v 0.08543840 0.00941318 0.23808693
v 0.08324444 0.01075096 0.23762396
v 0.08326223 0.01162052 0.23664202
v 0.08270566 0.01216308 0.23565765
v 0.08374096 0.01249058 0.23426268
v 0.08627554 0.01075085 0.23695314
v 0.08733484 0.01202887 0.23488237
v 0.08989587 0.01248825 0.23122504
v 0.08953084 0.00980280 0.23622242
v 0.08899916 0.01107400 0.23544941
v 0.09316532 0.00942990 0.23332923
v 0.09254933 0.01076574 0.23277787
v 0.09166127 0.01177669 0.23198135
v 0.09555808 0.00942985 0.22941152
v 0.09480184 0.01076573 0.22907748
v 0.09371109 0.01177669 0.22859436
v 0.09381876 0.01216390 0.22595328
v 0.09240419 0.01249240 0.22601048
v 0.09604901 0.01041749 0.22525606
v 0.09519175 0.01135671 0.22496045
v 0.09659902 0.00948023 0.22381634
v 0.09245601 0.01248837 0.12872862
v 0.09399594 0.01209136 0.13039347
v 0.09530326 0.01126379 0.13211394
v 0.09600976 0.01047228 0.13061286
v 0.09665068 0.00934509 0.13071034
v 0.08650087 0.00902443 0.11796687
v 0.08486492 0.01002530 0.11806732
v 0.08619199 0.01097152 0.11910742
v 0.08556484 0.01178196 0.11996572
v 0.09457035 0.01077165 0.12631622
v 0.09347358 0.01177927 0.12678505
v 0.09305977 0.01013748 0.12300339
v 0.09023954 0.01203551 0.12300194
v 0.08974369 0.01078614 0.12059551
v 0.08573934 0.01248627 0.12193166
v 0.08147672 0.00794052 0.22112080
v 0.08141417 -0.00294629 0.22127179
v 0.08052191 0.00860218 0.22282010
v 0.08087163 -0.00365542 0.22236735
v 0.07944272 0.00794064 0.22398526
v 0.07931844 -0.00294643 0.22409140
v 0.07749693 0.00864964 0.22524963
v 0.07729790 -0.00294640 0.22529962
v 0.07632994 0.00794058 0.22561412
v 0.07511698 -0.00287817 0.22581579
v 0.07446858 0.00785493 0.22581934
v 0.08210269 0.00859943 0.21831654
v 0.08238479 0.00947435 0.13751655
v 0.08251977 0.00973044 0.21887111
v 0.08313862 0.01070447 0.21906635
v 0.08322097 0.01080139 0.13744034
v 0.08416953 0.01164124 0.22039242
v 0.08406734 0.01155577 0.13675600
v 0.08501407 0.01210456 0.21924927
v 0.08513253 0.01215382 0.13728077
v 0.08649151 0.01248869 0.22062822
v 0.08655591 0.01249270 0.13613836
v 0.07663669 0.00786415 0.13104007
v 0.07670449 -0.00288834 0.13105350
v 0.07845044 0.00860217 0.13185785
v 0.07829345 -0.00360794 0.13176342
v 0.07982482 0.00793901 0.13294149
v 0.07995184 -0.00294480 0.13307197
v 0.08130250 0.00793899 0.13504452
v 0.08117371 -0.00356008 0.13479007
v 0.08179746 -0.00294473 0.13643010
v 0.07680624 0.00931617 0.13075099
v 0.07702569 0.01071450 0.12994644
v 0.07743033 0.01177940 0.12877674
v 0.07785366 0.01238154 0.12736759
v 0.08088139 0.01249693 0.12693671
v 0.08022567 0.01072130 0.13165647
v 0.08032624 0.01177314 0.13023913
v 0.08345994 0.01236803 0.13087525
v 0.08015180 0.00941132 0.13275446
v 0.08268383 0.01177313 0.13266846
v 0.08196000 0.01016898 0.13483540
v 0.08695705 -0.00750283 0.13439750
v 0.08655134 -0.00749851 0.22076906
v 0.08620871 -0.00744230 0.13628025
v 0.08513398 -0.00715993 0.21920746
v 0.08501428 -0.00711070 0.13723911
v 0.08379143 -0.00636152 0.21903568
v 0.08405836 -0.00655210 0.13734285
v 0.08313885 -0.00571102 0.13743777
v 0.08277035 -0.00520621 0.21869551
v 0.08233626 -0.00436296 0.13751763
v 0.08226125 -0.00412707 0.21938392
v 0.05027721 -0.00750199 0.12090998
v 0.07971787 -0.00750284 0.12661173
v 0.07933798 -0.00738000 0.12773191
v 0.05011136 -0.00726915 0.12225995
v 0.07742254 -0.00678409 0.12877825
v 0.05051728 -0.00613694 0.12426340
v 0.07679278 -0.00427833 0.13076776
v 0.05103240 -0.00426887 0.12559428
v 0.07702125 -0.00571782 0.12994979
v 0.05152613 -0.00277677 0.12598937
v 0.08097650 -0.00676434 0.13070684
v 0.08020004 -0.00572708 0.13163432
v 0.08014741 -0.00441709 0.13274996
v 0.08433800 -0.00737396 0.13248694
v 0.08292511 -0.00638330 0.13442625
v 0.07789081 0.01248273 0.22999204
v 0.07524154 0.00929936 0.22612032
v 0.08208186 0.01017013 0.22144925
v 0.08028596 0.01015796 0.22415804
v 0.07526100 0.01106322 0.22725464
v 0.07854470 0.01104919 0.22634960
v 0.08173742 0.01197601 0.22560369
v 0.07674193 0.01205120 0.22869231
v 0.08461389 0.01248172 0.22453868
v 0.07549275 -0.00699750 0.22851309
v 0.08273724 -0.00748660 0.22701295
v 0.07618875 -0.00749179 0.23033335
v 0.08366250 -0.00698178 0.22295401
v 0.08108326 -0.00695763 0.22608195
v 0.07839953 -0.00700348 0.22780613
v 0.08228702 -0.00573897 0.22227173
v 0.07981786 -0.00517592 0.22456539
v 0.07762639 -0.00517593 0.22590475
v 0.07527923 -0.00570995 0.22695453
v 0.07523271 -0.00427429 0.22611214
v 0.04991335 0.00787836 0.23881621
v 0.05024165 -0.00749161 0.11472284
v 0.05059605 -0.00750253 0.23054943
v 0.04994192 0.01137781 0.23699237
v 0.05017139 0.01047495 0.23784640
v 0.04951540 0.01218068 0.23563707
v 0.04955777 0.01249499 0.23415155
v 0.05014790 0.00914451 0.23856506
v 0.05082041 -0.00319284 0.11055024
v 0.05011845 0.00780220 0.11040811
v 0.05052337 -0.00607879 0.11200932
v 0.05035863 -0.00499126 0.11110933
v 0.05029558 -0.00686905 0.11303698
v 0.04844659 -0.01192882 0.23903291
v 0.04767037 -0.01474065 0.23883971
v 0.04692409 -0.01697108 0.23903250
v 0.04227987 -0.02652122 0.23903342
v 0.04120367 -0.02816889 0.23883971
v 0.03921370 -0.03088521 0.23913079
v 0.03605267 -0.03456689 0.23900482
v 0.03147014 -0.03879501 0.23905090
v 0.02753128 -0.04166872 0.23902846
v 0.02489173 -0.04330416 0.23883971
v 0.01812901 -0.04655999 0.23896913
v 0.01304935 -0.04824038 0.23903314
v 0.01101778 -0.04874928 0.23883971
v 0.00784177 -0.04936662 0.23902809
v 0.00319027 -0.04990881 0.23894704
v -0.00349739 -0.04990121 0.23904021
v -0.01123432 -0.04874928 0.23883971
v -0.01327125 -0.04823867 0.23903341
v -0.01834649 -0.04655963 0.23896865
v -0.02775110 -0.04166646 0.23902853
v -0.02510827 -0.04330416 0.23883971
v -0.02316085 -0.04437133 0.23903280
v -0.03633253 -0.03450238 0.23900204
v -0.03173214 -0.03875710 0.23901040
v -0.03943637 -0.03087822 0.23902770
v -0.04511952 -0.02178501 0.23903511
v -0.04249942 -0.02651589 0.23903373
v -0.04142021 -0.02816889 0.23883971
v -0.04868047 -0.01186533 0.23902907
v -0.04788691 -0.01474065 0.23883971
v -0.05012871 -0.00073132 0.23899954
v -0.04963606 -0.00698579 0.23901377
v -0.04994862 0.00398771 0.23902746
v -0.04954981 0.00744922 0.23883971
v -0.04617421 0.01943704 0.23903163
v -0.04384406 0.02422839 0.23902968
v -0.04515671 0.02169130 0.23883971
v -0.03774020 0.03291826 0.23903518
v -0.04120860 0.02849798 0.23905823
v -0.03402259 0.03673678 0.23902732
v -0.03676086 0.03400575 0.23883971
v -0.02530955 0.04319394 0.23894409
v -0.03128276 0.03908869 0.23883971
v -0.02076963 0.04552832 0.23903093
v -0.01580734 0.04746827 0.23903036
v -0.01837532 0.04654080 0.23883971
v -0.00542764 0.04971302 0.23903465
v -0.01092923 0.04882564 0.23894043
v -0.00010640 0.04999695 0.23902728
v -0.00384477 0.04985730 0.23883971
v 0.01073488 0.04882075 0.23906099
v 0.00521914 0.04971178 0.23903508
v 0.00362824 0.04985730 0.23883971
v 0.01559502 0.04746701 0.23903022
v 0.01815878 0.04654080 0.23883971
v 0.02970663 0.04013490 0.23903418
v 0.02510504 0.04318679 0.23894710
v 0.03380880 0.03673423 0.23902733
v 0.03106622 0.03908869 0.23883971
v 0.04101203 0.02846981 0.23905733
v 0.03752929 0.03291117 0.23903567
v 0.03654432 0.03400575 0.23883971
v 0.04362967 0.02422473 0.23902956
v 0.04595939 0.01943256 0.23903182
v 0.04494018 0.02169130 0.23883971
v 0.04885410 0.01075549 0.23867163
v 0.05005710 0.00366879 0.23896467
v 0.04983359 -0.00594709 0.23842158
v 0.05024957 0.01012726 0.22653142
v 0.05068964 0.00827989 0.22583663
v 0.04906936 0.01249596 0.23026317
v 0.04948479 0.01219081 0.22902946
v 0.04935799 0.01141782 0.22767072
v 0.05170879 -0.00287533 0.22581702
v 0.05128672 -0.00441808 0.22617729
v 0.05064607 -0.00511194 0.22649186
v 0.05090760 -0.00639636 0.22764660
v 0.05050059 -0.00725823 0.22917808
v 0.04924911 -0.00832450 0.23593355
v 0.04914656 -0.00864719 0.22926881
v 0.04934170 -0.00748139 0.22649667
v 0.04981197 -0.00298847 0.22427952
v 0.05069529 -0.00252211 0.22541651
v 0.04983343 -0.00702194 0.22754940
v 0.04989953 0.00038246 0.22424949
v 0.04971662 0.00418605 0.22408294
v 0.04935605 0.00731264 0.22405603
v 0.05026663 0.00259883 0.22508627
v 0.04954065 0.00902373 0.22517124
v 0.04876038 0.01061905 0.22511690
v 0.04801192 0.01360442 0.22869861
v 0.04819723 0.01311398 0.23606263
v 0.04926208 -0.00808933 0.11331211
v 0.04767037 -0.01474065 0.11028639
v 0.04845568 -0.01190717 0.10977617
v 0.04981346 -0.00445382 0.10991102
v 0.04925784 -0.00808938 0.12326520
v 0.04959890 -0.00545258 0.12608883
v 0.04982429 -0.00271079 0.12726925
v 0.04989163 -0.00000289 0.12749247
v 0.04983483 0.00241182 0.12709922
v 0.04916487 0.00850888 0.12670728
v 0.04935512 0.00731841 0.12704506
v 0.04865789 0.01110195 0.12557295
v 0.04819680 0.01295618 0.12205864
v 0.04817476 0.01308407 0.11338019
v 0.04763793 0.01482053 0.10912046
v 0.04889515 0.01017177 0.11005623
v 0.04595369 0.01944158 0.10912942
v 0.04494018 0.02169130 0.11028639
v 0.04359342 0.02428278 0.10914594
v 0.04098919 0.02850167 0.10971684
v 0.03751731 0.03292528 0.10961659
v 0.03654432 0.03400575 0.11028639
v 0.03379354 0.03674776 0.10965905
v 0.03106622 0.03908869 0.11028639
v 0.02962769 0.04018657 0.10910861
v 0.02508552 0.04319652 0.10918436
v 0.02054503 0.04552993 0.10913030
v 0.01815878 0.04654080 0.11028639
v 0.01552570 0.04748591 0.10914543
v 0.01070666 0.04882651 0.10970479
v 0.00522323 0.04970903 0.10912111
v 0.00362824 0.04985730 0.11028639
v -0.00015429 0.04999462 0.10914380
v -0.00384477 0.04985730 0.11028639
v -0.00552916 0.04969607 0.10910622
v -0.01095118 0.04882066 0.10974983
v -0.01582096 0.04746373 0.10961201
v -0.01837532 0.04654080 0.11028639
v -0.02082059 0.04550147 0.10912181
v -0.02534049 0.04317353 0.10916990
v -0.02993058 0.04012919 0.10961504
v -0.03128276 0.03908869 0.11028639
v -0.03405807 0.03670066 0.10914462
v -0.03676086 0.03400575 0.11028639
v -0.03780929 0.03282928 0.10910349
v -0.04122723 0.02847147 0.10978065
v -0.04385700 0.02420156 0.10913468
v -0.04515671 0.02169130 0.11028639
v -0.04619455 0.01937949 0.10912018
v -0.04794477 0.01457118 0.10967675
v -0.04923808 0.00927065 0.10912392
v -0.04954981 0.00744922 0.11028639
v -0.04994970 0.00396735 0.10967139
v -0.05010827 -0.00000289 0.11028639
v -0.05007948 -0.00146370 0.10910045
v -0.04963037 -0.00702823 0.10980071
v -0.04867111 -0.01189633 0.10913628
v -0.04788691 -0.01474065 0.11028639
v -0.04711690 -0.01702592 0.10911836
v -0.04511556 -0.02179232 0.10966075
v -0.04249646 -0.02651689 0.10912507
v -0.04142021 -0.02816889 0.11028639
v -0.03939952 -0.03092064 0.10914578
v -0.03676086 -0.03401153 0.11028639
v -0.03582476 -0.03498171 0.10909700
v -0.03168942 -0.03879261 0.10981881
v -0.02772100 -0.04168425 0.10913781
v -0.02510827 -0.04330416 0.11028639
v -0.02309787 -0.04439931 0.10911634
v -0.01834166 -0.04656104 0.10964350
v -0.01325719 -0.04824253 0.10961218
v -0.01123432 -0.04874928 0.11028639
v -0.00804210 -0.04936864 0.10967894
v -0.00339799 -0.04990915 0.10980888
v -0.00010019 -0.05000241 0.10963442
v 0.00327524 -0.04990158 0.10987182
v 0.00787847 -0.04935878 0.10913924
v 0.01101778 -0.04874928 0.11028639
v 0.01311934 -0.04821662 0.10911448
v 0.01814310 -0.04655265 0.10913444
v 0.02294410 -0.04436912 0.10912718
v 0.02489173 -0.04330416 0.11028639
v 0.02754764 -0.04165705 0.10968235
v 0.03151988 -0.03875317 0.10973676
v 0.03568807 -0.03490611 0.10911504
v 0.03654432 -0.03401153 0.11028639
v 0.03922971 -0.03086507 0.10965049
v 0.04120367 -0.02816889 0.11028639
v 0.04227887 -0.02652249 0.10961030
v 0.04490362 -0.02178301 0.10967685
v 0.04692526 -0.01696258 0.10912840
v 0.04961813 -0.00150363 0.10803284
v 0.04942042 0.00722773 0.10960135
v 0.04994934 0.00165914 0.10981041
v 0.03161821 -0.03827056 0.10789149
v -0.00198066 -0.04970160 0.10787053
v -0.03183474 -0.03827056 0.10789149
v 0.05060672 0.00825650 0.12579456
v 0.04925975 0.01249086 0.12111122
v 0.05001532 0.00969636 0.12518181
v 0.04963430 0.01089204 0.12429205
v 0.04950443 0.01192606 0.12288527
v 0.04916450 0.01249373 0.11489146
v 0.04889035 0.01221191 0.11351008
v 0.04936128 0.01167836 0.11252783
v 0.04950310 0.01073792 0.11147241
v 0.04972901 0.00923422 0.11061175
v 0.05031405 -0.00292626 0.12631648
v 0.05052322 0.00247884 0.12618248
f 2 1 3
f 2 3 4
f 4 3 5
f 5 3 6
f 5 6 7
f 7 6 8
f 7 8 9
f 9 8 10
f 9 10 11
f 11 10 12
f 11 12 13
f 13 12 14
f 13 14 15
f 15 14 16
f 15 16 17
f 17 16 18
f 17 18 19
f 19 18 20
f 19 20 21
f 21 20 22
f 21 22 23
f 23 22 24
f 23 24 25
f 25 24 26
f 25 26 27
f 27 26 28
f 27 28 29
f 29 28 30
f 29 30 31
f 31 30 32
f 31 32 33
f 33 32 34
f 33 34 35
f 35 34 36
f 35 36 37
f 37 36 38
f 37 38 39
f 39 38 40
f 39 40 41
f 41 40 42
f 41 42 43
f 43 42 44
f 43 44 45
f 45 44 46
f 45 46 47
f 47 46 48
f 47 48 49
f 49 48 50
f 49 50 51
f 51 50 52
f 51 52 53
f 53 52 54
f 53 54 55
f 55 54 56
f 55 56 57
f 57 56 58
f 57 58 59
f 59 58 60
f 59 60 61
f 61 60 62
f 61 62 63
f 63 62 64
f 63 64 65
f 65 64 66
f 65 66 67
f 67 66 68
f 67 68 69
f 69 68 70
f 69 70 71
f 71 70 72
f 71 72 73
f 73 72 74
f 73 74 75
f 75 74 76
f 75 76 77
f 77 76 78
f 77 78 79
f 79 78 80
f 79 80 81
f 81 80 82
f 81 82 83
f 81 83 84
f 84 83 85
f 85 83 86
f 85 86 87
f 87 86 88
f 87 88 89
f 89 88 90
f 89 90 91
f 91 90 92
f 91 92 93
f 93 92 94
f 93 94 95
f 95 94 96
f 95 96 97
f 97 96 98
f 97 98 99
f 99 98 100
f 99 100 101
f 101 100 102
f 101 102 103
f 103 102 104
f 103 104 105
f 105 104 106
f 105 106 107
f 107 106 108
f 107 108 109
f 109 108 110
f 109 110 111
f 111 110 112
f 111 112 113
f 113 112 114
f 113 114 115
f 115 114 116
f 115 116 117
f 117 116 118
f 117 118 119
f 119 118 120
f 119 120 121
f 121 120 122
f 121 122 123
f 123 122 124
f 123 124 125
f 125 124 126
f 125 126 127
f 127 126 128
f 127 128 129
f 129 128 130
f 129 130 131
f 131 130 132
f 131 132 133
f 133 132 134
f 133 134 135
f 135 134 136
f 135 136 137
f 137 136 138
f 137 138 139
f 139 138 140
f 139 140 141
f 141 140 142
f 141 142 143
f 143 142 144
f 143 144 145
f 145 144 146
f 145 146 147
f 147 146 148
f 147 148 149
f 149 148 150
f 149 150 151
f 151 150 152
f 151 152 153
f 153 152 154
f 153 154 155
f 155 154 156
f 155 156 157
f 157 156 158
f 157 158 159
f 159 158 160
f 159 160 161
f 161 160 162
f 161 162 2
f 2 162 1
f 163 164 165
f 245 244 164
f 164 1 165
f 165 1 162
f 165 162 166
f 166 162 160
f 166 160 167
f 167 160 158
f 167 158 168
f 168 158 156
f 168 156 169
f 169 156 154
f 169 154 170
f 170 154 152
f 170 152 171
f 171 152 150
f 171 150 172
f 172 150 148
f 172 148 173
f 173 148 146
f 173 146 174
f 174 146 144
f 174 144 175
f 175 144 142
f 175 142 176
f 176 142 140
f 176 140 177
f 177 140 138
f 177 138 178
f 178 138 136
f 178 136 179
f 179 136 134
f 179 134 180
f 180 134 132
f 180 132 181
f 181 132 130
f 181 130 182
f 182 130 128
f 182 128 183
f 183 128 126
f 183 126 184
f 184 126 124
f 184 124 185
f 185 124 122
f 185 122 186
f 186 122 120
f 186 120 187
f 187 120 118
f 187 118 188
f 188 118 116
f 188 116 189
f 189 116 114
f 189 114 190
f 190 114 112
f 190 112 191
f 191 112 110
f 191 110 192
f 192 110 108
f 192 108 193
f 193 108 106
f 193 106 194
f 194 106 104
f 194 104 195
f 195 104 102
f 195 102 196
f 196 102 100
f 196 100 197
f 197 100 98
f 197 98 198
f 198 98 96
f 198 96 199
f 199 96 94
f 199 94 200
f 200 94 92
f 200 92 201
f 201 92 90
f 201 90 202
f 202 90 88
f 202 88 203
f 203 88 86
f 203 86 204
f 204 86 83
f 204 83 205
f 205 83 82
f 205 82 206
f 206 82 80
f 206 80 207
f 207 80 78
f 207 78 208
f 208 78 76
f 208 76 209
f 209 76 74
f 209 74 210
f 210 74 72
f 210 72 211
f 211 72 70
f 211 70 212
f 212 70 68
f 212 68 213
f 213 68 66
f 213 66 214
f 214 66 64
f 214 64 215
f 215 64 62
f 215 62 216
f 216 62 60
f 216 60 217
f 217 60 58
f 217 58 218
f 218 58 56
f 218 56 219
f 219 56 54
f 219 54 220
f 220 54 52
f 220 52 221
f 221 52 50
f 221 50 222
f 222 50 48
f 222 48 223
f 223 48 46
f 223 46 224
f 224 46 44
f 224 44 225
f 225 44 42
f 225 42 226
f 226 42 40
f 226 40 227
f 227 40 38
f 227 38 228
f 228 38 36
f 228 36 229
f 229 36 34
f 229 34 230
f 230 34 32
f 230 32 231
f 231 32 30
f 231 30 232
f 232 30 28
f 232 28 233
f 233 28 26
f 233 26 234
f 234 26 24
f 234 24 235
f 235 24 22
f 235 22 236
f 236 22 20
f 236 20 237
f 237 20 18
f 237 18 238
f 238 18 16
f 238 16 239
f 239 16 14
f 239 14 240
f 240 14 12
f 240 12 241
f 241 12 10
f 241 10 242
f 242 10 8
f 242 8 243
f 243 8 6
f 243 6 244
f 244 6 3
f 244 3 164
f 164 3 1
f 248 155 157
f 249 139 141
f 250 117 119
f 251 99 101
f 252 77 79
f 253 59 61
f 254 15 17
f 254 17 19
f 19 21 255
f 255 21 23
f 255 23 25
f 255 25 256
f 256 25 27
f 256 27 29
f 256 29 257
f 53 258 51
f 51 258 49
f 49 259 47
f 47 259 45
f 45 259 260
f 45 260 43
f 43 260 41
f 41 260 39
f 39 261 37
f 37 261 35
f 35 261 33
f 33 257 31
f 253 61 262
f 262 61 63
f 262 63 65
f 262 65 263
f 263 65 67
f 263 67 69
f 263 69 264
f 252 79 81
f 81 84 85
f 87 89 265
f 265 89 91
f 251 101 103
f 103 105 266
f 266 105 107
f 266 107 109
f 250 119 121
f 121 123 267
f 267 123 125
f 267 125 127
f 267 127 268
f 268 127 129
f 268 129 131
f 249 141 143
f 143 145 269
f 269 145 147
f 269 147 149
f 269 149 270
f 153 155 248
f 7 272 5
f 5 272 4
f 4 272 2
f 2 273 161
f 161 273 159
f 9 11 274
f 274 11 275
f 274 275 276
f 257 277 256
f 256 277 278
f 256 278 279
f 256 279 255
f 255 279 280
f 255 280 19
f 19 280 254
f 254 280 281
f 258 282 49
f 49 282 283
f 49 283 259
f 259 283 284
f 259 284 260
f 260 284 285
f 260 285 39
f 39 285 286
f 39 286 261
f 261 286 287
f 261 287 33
f 33 287 257
f 258 288 282
f 53 55 258
f 258 55 288
f 264 289 263
f 263 289 290
f 263 290 291
f 263 291 262
f 262 291 292
f 262 292 253
f 71 73 264
f 264 73 293
f 264 293 294
f 265 295 296
f 265 296 87
f 87 296 297
f 87 297 85
f 85 297 298
f 85 298 81
f 81 298 252
f 252 298 299
f 93 95 300
f 93 300 301
f 109 302 266
f 266 302 303
f 266 303 304
f 266 304 103
f 103 304 251
f 251 304 305
f 111 113 306
f 131 308 268
f 268 308 309
f 268 309 310
f 268 310 267
f 267 310 311
f 267 311 121
f 121 311 250
f 250 311 312
f 133 135 313
f 270 315 269
f 269 315 316
f 269 316 317
f 269 317 143
f 143 317 249
f 249 317 318
f 151 153 270
f 270 153 248
f 270 248 271
f 272 319 320
f 272 320 2
f 2 320 321
f 2 321 273
f 273 321 322
f 7 274 272
f 272 274 247
f 272 247 319
f 319 247 246
f 323 324 247
f 247 324 246
f 276 323 247
f 276 247 274
f 9 274 7
f 281 325 276
f 281 276 275
f 13 275 11
f 13 15 275
f 275 15 254
f 275 254 281
f 325 281 326
f 326 281 327
f 327 281 280
f 327 280 328
f 328 280 279
f 328 279 329
f 329 279 330
f 330 279 278
f 277 331 278
f 332 333 277
f 277 333 331
f 29 31 257
f 277 257 287
f 277 287 332
f 334 287 286
f 334 286 335
f 335 286 285
f 335 285 336
f 336 285 337
f 337 285 284
f 337 284 338
f 338 284 339
f 339 284 283
f 282 340 283
f 341 342 288
f 288 342 343
f 288 343 282
f 292 341 288
f 292 288 253
f 253 288 55
f 253 55 57
f 57 59 253
f 341 292 344
f 344 292 345
f 345 292 291
f 345 291 346
f 346 291 290
f 289 347 290
f 348 349 289
f 289 349 347
f 294 348 289
f 294 289 264
f 71 264 69
f 299 350 294
f 299 294 293
f 75 293 73
f 75 77 293
f 293 77 252
f 293 252 299
f 350 299 351
f 351 299 352
f 352 299 298
f 352 298 353
f 353 298 297
f 353 297 354
f 295 355 296
f 356 357 295
f 295 357 355
f 301 356 295
f 301 295 93
f 93 295 265
f 93 265 91
f 305 358 301
f 305 301 300
f 97 300 95
f 97 99 300
f 300 99 251
f 300 251 305
f 358 305 359
f 359 305 360
f 360 305 304
f 360 304 361
f 361 304 303
f 302 362 303
f 363 364 302
f 302 364 362
f 307 363 302
f 307 302 306
f 306 302 109
f 306 109 111
f 312 365 307
f 312 307 115
f 115 307 306
f 115 306 113
f 115 117 250
f 115 250 312
f 365 312 366
f 366 312 367
f 367 312 311
f 367 311 368
f 368 311 310
f 368 310 369
f 369 310 370
f 370 310 309
f 308 371 309
f 372 373 308
f 308 373 371
f 314 372 308
f 314 308 313
f 313 308 131
f 313 131 133
f 318 374 314
f 318 314 137
f 137 314 313
f 137 313 135
f 137 139 249
f 137 249 318
f 374 318 375
f 375 318 376
f 376 318 317
f 376 317 377
f 377 317 316
f 315 378 316
f 379 380 315
f 315 380 378
f 149 151 270
f 315 270 271
f 315 271 379
f 159 273 157
f 157 273 322
f 248 157 322
f 248 322 271
f 271 322 381
f 319 382 320
f 320 382 383
f 320 383 321
f 321 383 384
f 321 384 322
f 322 384 385
f 322 385 381
f 386 387 388
f 387 389 388
f 387 390 389
f 391 390 387
f 392 391 387
f 393 394 387
f 387 394 392
f 387 395 393
f 387 397 396
f 387 398 397
f 387 399 398
f 387 386 399
f 400 307 401
f 401 307 365
f 401 365 402
f 402 365 366
f 403 364 404
f 404 364 400
f 400 364 363
f 400 363 307
f 405 360 361
f 361 303 405
f 405 303 403
f 403 303 362
f 403 362 364
f 360 405 406
f 360 406 359
f 359 406 407
f 359 407 358
f 358 407 408
f 409 356 410
f 410 356 301
f 410 301 408
f 408 301 358
f 411 357 409
f 409 357 356
f 412 296 413
f 413 296 411
f 411 296 355
f 411 355 357
f 414 415 352
f 352 353 414
f 414 353 354
f 414 354 412
f 412 354 297
f 412 297 296
f 416 351 415
f 415 351 352
f 417 294 418
f 418 294 350
f 418 350 416
f 416 350 351
f 346 290 419
f 419 290 347
f 419 347 420
f 420 347 349
f 420 349 417
f 417 349 348
f 417 348 294
f 346 419 345
f 345 419 421
f 345 421 422
f 345 422 344
f 344 422 423
f 344 423 341
f 341 423 424
f 341 424 342
f 342 424 343
f 343 424 425
f 343 425 282
f 282 425 426
f 282 426 340
f 340 426 283
f 283 426 427
f 283 427 428
f 283 428 339
f 339 428 429
f 339 429 338
f 338 429 337
f 430 334 431
f 431 334 335
f 431 335 432
f 432 335 336
f 432 336 337
f 432 337 433
f 433 337 429
f 434 332 435
f 435 332 287
f 435 287 430
f 430 287 334
f 436 278 437
f 437 278 331
f 437 331 434
f 434 331 333
f 434 333 332
f 438 327 439
f 439 327 328
f 439 328 440
f 440 328 329
f 440 329 436
f 436 329 330
f 436 330 278
f 441 276 442
f 442 276 325
f 442 325 438
f 438 325 326
f 438 326 327
f 443 324 444
f 444 324 441
f 441 324 323
f 441 323 276
f 445 319 446
f 446 319 443
f 443 319 246
f 443 246 324
f 447 384 448
f 448 384 383
f 448 383 449
f 449 383 382
f 449 382 445
f 445 382 319
f 450 271 451
f 451 271 381
f 451 381 452
f 452 381 385
f 452 385 447
f 447 385 384
f 453 380 454
f 454 380 450
f 450 380 379
f 450 379 271
f 455 316 453
f 453 316 378
f 453 378 380
f 456 374 457
f 457 374 375
f 457 375 458
f 458 375 376
f 458 376 455
f 455 376 377
f 455 377 316
f 459 372 460
f 460 372 314
f 460 314 456
f 456 314 374
f 366 367 402
f 402 367 461
f 461 367 368
f 461 368 462
f 462 368 369
f 462 369 463
f 369 370 463
f 463 370 309
f 463 309 464
f 464 309 371
f 464 371 459
f 459 371 373
f 459 373 372
f 443 444 441
f 439 440 436
f 435 430 431
f 429 432 433
f 428 427 426
f 421 423 422
f 417 418 416
f 412 413 411
f 410 408 407
f 403 404 400
f 461 462 463
f 457 460 456
f 465 455 453
f 465 453 450
f 450 453 454
f 452 447 448
f 445 448 449
f 459 460 466
f 459 466 464
f 464 466 467
f 464 467 463
f 414 412 468
f 414 468 415
f 419 420 469
f 419 469 421
f 425 424 470
f 425 470 426
f 429 428 471
f 429 471 432
f 434 435 472
f 434 472 437
f 436 437 473
f 436 473 439
f 438 439 474
f 438 474 442
f 443 441 475
f 443 475 446
f 448 476 452
f 452 476 477
f 452 477 451
f 451 477 478
f 451 478 450
f 450 478 479
f 450 479 465
f 455 465 480
f 455 480 458
f 458 480 481
f 458 481 457
f 457 481 482
f 457 482 460
f 460 482 483
f 460 483 466
f 463 467 484
f 463 484 461
f 461 484 485
f 461 485 402
f 402 485 486
f 402 486 401
f 401 486 487
f 401 487 400
f 400 487 488
f 400 488 403
f 403 488 489
f 403 489 405
f 405 489 490
f 405 490 406
f 406 490 491
f 406 491 407
f 407 491 492
f 407 492 410
f 410 492 493
f 410 493 409
f 409 493 494
f 409 494 411
f 411 494 495
f 411 495 412
f 412 495 496
f 412 496 468
f 415 468 497
f 415 497 416
f 416 497 498
f 416 498 417
f 417 498 499
f 417 499 420
f 420 499 500
f 420 500 469
f 421 469 501
f 421 501 423
f 423 501 502
f 423 502 424
f 424 502 503
f 424 503 470
f 426 470 504
f 426 504 428
f 428 504 505
f 428 505 471
f 432 471 506
f 432 506 431
f 431 506 507
f 431 507 435
f 435 507 508
f 435 508 472
f 437 472 509
f 437 509 473
f 439 473 510
f 439 510 474
f 442 474 511
f 442 511 441
f 441 511 512
f 441 512 475
f 446 475 513
f 446 513 445
f 445 513 514
f 445 514 448
f 448 514 476
f 465 479 515
f 465 515 480
f 476 516 477
f 477 516 478
f 479 478 517
f 479 517 515
f 480 515 518
f 480 518 481
f 481 518 482
f 483 482 519
f 483 519 466
f 467 466 520
f 467 520 484
f 484 520 485
f 485 520 521
f 485 521 486
f 486 521 487
f 487 521 522
f 487 522 488
f 488 522 489
f 489 522 523
f 489 523 490
f 490 523 491
f 491 523 524
f 491 524 492
f 492 524 493
f 493 524 525
f 493 525 494
f 494 525 495
f 496 495 526
f 496 526 468
f 497 468 527
f 497 527 498
f 498 527 499
f 499 527 528
f 499 528 500
f 500 528 469
f 469 528 529
f 469 529 501
f 501 529 502
f 503 502 530
f 503 530 470
f 470 530 504
f 505 504 531
f 505 531 471
f 471 531 506
f 507 506 532
f 507 532 508
f 508 532 472
f 472 532 533
f 472 533 509
f 509 533 534
f 509 534 473
f 510 473 535
f 510 535 474
f 474 535 511
f 512 511 536
f 512 536 475
f 513 475 537
f 513 537 514
f 514 537 476
f 476 537 516
f 515 517 518
f 466 519 520
f 468 526 527
f 473 534 535
f 475 536 537
f 516 538 478
f 478 538 539
f 478 539 517
f 518 517 540
f 518 540 482
f 482 540 541
f 482 541 519
f 520 519 542
f 520 542 521
f 521 542 543
f 521 543 522
f 522 543 544
f 522 544 523
f 523 544 545
f 523 545 524
f 524 545 546
f 524 546 525
f 525 546 547
f 525 547 495
f 495 547 548
f 495 548 526
f 527 526 549
f 527 549 550
f 527 550 528
f 528 550 551
f 528 551 529
f 529 551 552
f 529 552 502
f 502 552 530
f 530 552 553
f 530 553 504
f 504 553 554
f 504 554 531
f 531 554 555
f 531 555 506
f 506 555 556
f 506 556 532
f 532 556 557
f 532 557 533
f 533 557 534
f 534 557 558
f 535 534 559
f 535 559 511
f 511 559 560
f 511 560 536
f 537 536 561
f 537 561 516
f 516 561 538
f 517 539 387
f 517 387 540
f 519 541 396
f 519 396 542
f 526 548 549
f 534 558 559
f 536 560 562
f 536 562 561
f 538 395 539
f 539 395 387
f 540 387 541
f 541 387 396
f 542 396 397
f 542 397 543
f 543 397 398
f 543 398 544
f 544 398 399
f 544 399 545
f 545 399 546
f 547 546 386
f 547 386 548
f 548 386 549
f 549 388 550
f 550 388 551
f 551 388 389
f 551 389 552
f 552 389 553
f 554 553 390
f 554 390 555
f 556 555 391
f 556 391 557
f 557 391 392
f 557 392 558
f 559 558 394
f 559 394 560
f 560 394 562
f 561 562 393
f 561 393 538
f 538 393 395
f 546 399 386
f 549 386 388
f 553 389 390
f 555 390 391
f 558 392 394
f 562 394 393
f 563 564 565
f 565 564 566
f 566 564 567
f 566 567 568
f 568 567 569
f 568 569 570
f 570 569 571
f 570 571 572
f 572 571 573
f 573 571 574
f 573 574 575
f 575 574 576
f 575 576 577
f 577 576 578
f 577 578 579
f 578 580 579
f 579 580 581
f 581 580 582
f 581 582 583
f 583 582 584
f 584 582 585
f 584 585 586
f 585 587 586
f 586 587 588
f 588 587 589
f 588 589 590
f 590 589 591
f 591 589 592
f 591 592 593
f 593 592 594
f 593 594 595
f 595 594 596
f 595 596 597
f 597 596 598
f 597 598 599
f 599 598 600
f 599 600 601
f 600 602 601
f 601 602 603
f 601 603 604
f 604 603 605
f 605 603 606
f 605 606 607
f 607 606 608
f 607 608 609
f 609 608 610
f 608 611 610
f 610 611 612
f 612 611 613
f 612 613 614
f 614 613 615
f 615 613 616
f 615 616 617
f 617 616 618
f 617 618 619
f 619 618 620
f 619 620 621
f 621 620 622
f 622 620 623
f 622 623 624
f 624 623 625
f 624 625 626
f 626 625 627
f 626 627 628
f 628 627 629
f 629 627 630
f 629 630 631
f 631 630 632
f 631 632 633
f 633 632 634
f 634 632 635
f 634 635 636
f 636 635 637
f 636 637 638
f 638 637 639
f 639 637 640
f 639 640 641
f 640 642 641
f 641 642 643
f 643 642 644
f 643 644 645
f 645 644 646
f 646 644 647
f 646 647 648
f 648 647 649
f 648 649 650
f 650 649 651
f 650 651 652
f 652 651 653
f 653 651 654
f 653 654 655
f 655 654 656
f 655 656 657
f 657 656 658
f 657 658 659
f 659 658 660
f 660 658 661
f 660 661 662
f 662 661 663
f 662 663 664
f 664 663 665
f 664 665 666
f 665 667 666
f 666 667 668
f 668 667 669
f 668 669 670
f 670 669 671
f 670 671 672
f 671 673 672
f 672 673 674
f 674 673 675
f 674 675 676
f 676 675 677
f 677 675 678
f 677 678 679
f 679 678 680
f 679 680 681
f 681 680 682
f 681 682 683
f 683 682 684
f 684 682 685
f 684 685 686
f 686 685 687
f 686 687 688
f 688 687 689
f 688 689 690
f 689 691 690
f 690 691 692
f 692 691 693
f 692 693 694
f 694 693 695
f 695 693 696
f 695 696 697
f 696 698 697
f 697 698 699
f 699 698 700
f 699 700 701
f 701 700 702
f 702 700 703
f 702 703 704
f 704 703 705
f 704 705 563
f 563 705 564
f 708 709 710
f 715 716 717
f 717 718 719
f 719 720 721
f 723 724 725
f 726 727 728
f 728 729 730
f 734 735 736
f 737 738 739
f 739 740 741
f 745 746 747
f 748 749 750
f 750 751 752
f 757 758 759
f 759 760 761
f 763 765 764
f 764 765 766
f 764 766 767
f 767 768 769
f 769 770 771
f 771 772 773
f 778 779 780
f 780 781 782
f 787 788 706
f 787 668 786
f 786 668 670
f 786 670 785
f 785 670 784
f 784 670 674
f 784 674 783
f 783 674 782
f 782 674 677
f 782 677 780
f 780 677 679
f 780 679 778
f 778 679 683
f 778 683 777
f 777 683 686
f 777 686 776
f 776 686 775
f 775 686 690
f 775 690 774
f 774 690 692
f 774 692 773
f 773 692 771
f 771 692 695
f 771 695 769
f 769 695 699
f 769 699 767
f 767 699 702
f 767 702 764
f 764 702 563
f 764 563 763
f 763 563 566
f 763 566 762
f 762 566 568
f 762 568 761
f 761 568 759
f 759 568 572
f 759 572 573
f 759 573 757
f 757 573 577
f 757 577 756
f 756 577 755
f 755 577 581
f 755 581 754
f 754 581 753
f 753 581 584
f 753 584 752
f 752 584 588
f 752 588 750
f 750 588 748
f 748 588 591
f 748 591 747
f 747 591 595
f 747 595 745
f 745 595 597
f 745 597 744
f 744 597 599
f 744 599 743
f 743 599 742
f 742 599 604
f 742 604 741
f 741 604 739
f 739 604 607
f 739 607 609
f 739 609 737
f 737 609 612
f 737 612 736
f 736 612 734
f 734 612 615
f 734 615 617
f 734 617 733
f 733 617 732
f 732 617 621
f 732 621 731
f 731 621 730
f 730 621 624
f 730 624 728
f 728 624 628
f 728 628 726
f 726 628 629
f 726 629 725
f 725 629 633
f 725 633 723
f 723 633 634
f 723 634 722
f 722 634 638
f 722 638 721
f 721 638 641
f 721 641 719
f 719 641 717
f 717 641 645
f 717 645 646
f 717 646 715
f 715 646 650
f 715 650 714
f 714 650 713
f 713 650 653
f 713 653 712
f 712 653 655
f 712 655 711
f 711 655 710
f 710 655 659
f 710 659 708
f 708 659 660
f 708 660 707
f 707 660 664
f 707 664 706
f 706 664 666
f 706 666 787
f 787 666 668
f 670 672 674
f 674 676 677
f 679 681 683
f 683 684 686
f 686 688 690
f 692 694 695
f 695 697 699
f 699 701 702
f 702 704 563
f 563 565 566
f 568 570 572
f 573 575 577
f 577 579 581
f 581 583 584
f 584 586 588
f 588 590 591
f 591 593 595
f 599 601 604
f 604 605 607
f 609 610 612
f 612 614 615
f 617 619 621
f 621 622 624
f 624 626 628
f 629 631 633
f 634 636 638
f 638 639 641
f 641 643 645
f 646 648 650
f 650 652 653
f 655 657 659
f 660 662 664
f 789 791 790
f 789 792 791
f 789 793 792
f 789 794 793
f 795 794 789
f 789 796 795
f 789 797 796
f 789 798 797
f 789 799 798
f 789 800 799
f 789 801 800
f 802 771 803
f 803 771 770
f 803 770 804
f 805 772 802
f 802 772 771
f 806 774 807
f 807 774 805
f 805 774 773
f 805 773 772
f 808 778 777
f 777 776 808
f 808 776 806
f 806 776 775
f 806 775 774
f 808 809 778
f 778 809 810
f 778 810 779
f 779 810 811
f 779 811 780
f 780 811 812
f 813 782 814
f 814 782 781
f 814 781 812
f 812 781 780
f 815 785 816
f 816 785 784
f 816 784 813
f 813 784 783
f 813 783 782
f 817 818 706
f 706 788 817
f 817 788 787
f 817 787 819
f 819 787 815
f 815 787 786
f 815 786 785
f 820 707 818
f 818 707 706
f 821 710 822
f 822 710 709
f 822 709 823
f 823 709 708
f 823 708 820
f 820 708 707
f 714 713 824
f 824 713 712
f 824 712 821
f 821 712 711
f 821 711 710
f 714 824 715
f 715 824 825
f 715 825 826
f 715 826 716
f 716 826 827
f 716 827 717
f 717 827 828
f 717 828 718
f 718 828 719
f 719 828 829
f 719 829 720
f 720 829 830
f 720 830 721
f 721 830 722
f 722 830 831
f 722 831 832
f 722 832 723
f 723 832 833
f 723 833 724
f 724 833 834
f 724 834 725
f 725 834 726
f 726 834 835
f 726 835 727
f 727 835 836
f 727 836 728
f 728 836 837
f 728 837 729
f 729 837 730
f 730 837 838
f 730 838 731
f 731 838 839
f 731 839 732
f 732 839 733
f 733 839 840
f 733 840 841
f 733 841 734
f 842 737 843
f 843 737 736
f 734 841 735
f 735 841 844
f 735 844 736
f 736 844 843
f 845 739 846
f 846 739 738
f 846 738 842
f 842 738 737
f 847 742 848
f 848 742 741
f 848 741 849
f 849 741 740
f 849 740 845
f 845 740 739
f 850 851 746
f 746 745 850
f 850 745 744
f 850 744 852
f 852 744 847
f 847 744 743
f 847 743 742
f 853 749 854
f 854 749 748
f 854 748 855
f 855 748 747
f 855 747 746
f 855 746 851
f 856 752 857
f 857 752 751
f 857 751 858
f 858 751 853
f 853 751 750
f 853 750 749
f 859 753 856
f 856 753 752
f 860 861 757
f 757 756 860
f 860 756 755
f 860 755 862
f 862 755 859
f 859 755 754
f 859 754 753
f 863 760 864
f 864 760 759
f 864 759 865
f 865 759 758
f 865 758 861
f 861 758 757
f 866 762 867
f 867 762 863
f 863 762 761
f 863 761 760
f 770 769 804
f 804 769 868
f 868 769 768
f 868 768 869
f 869 768 767
f 869 767 766
f 869 766 870
f 870 766 765
f 870 765 866
f 866 765 763
f 866 763 762
f 850 873 874
f 876 796 875
f 795 796 876
f 878 795 876
f 878 876 877
f 879 795 878
f 879 878 880
f 794 795 879
f 881 879 882
f 882 879 880
f 794 879 881
f 883 881 882
f 883 882 884
f 885 794 881
f 885 881 883
f 885 883 886
f 886 883 884
f 886 884 816
f 822 820 877
f 825 824 887
f 887 824 888
f 889 798 890
f 889 890 891
f 889 891 892
f 892 891 829
f 829 891 830
f 799 800 893
f 895 894 896
f 895 896 838
f 838 896 839
f 800 801 897
f 897 801 898
f 897 898 899
f 899 898 900
f 899 900 843
f 843 900 846
f 801 789 901
f 901 789 871
f 901 871 902
f 902 871 872
f 902 872 873
f 902 873 847
f 847 873 850
f 904 903 905
f 905 903 906
f 905 906 907
f 907 906 854
f 854 906 853
f 908 790 909
f 908 909 910
f 910 909 911
f 910 911 859
f 859 911 860
f 790 791 912
f 912 791 913
f 912 913 914
f 914 913 915
f 914 915 916
f 916 915 863
f 916 863 864
f 791 792 917
f 917 918 919
f 919 918 920
f 919 920 921
f 921 920 869
f 869 920 868
f 922 792 923
f 922 923 924
f 924 923 925
f 924 925 805
f 805 925 806
f 793 926 927
f 928 927 929
f 928 929 930
f 930 929 811
f 930 811 810
f 820 822 823
f 821 822 931
f 931 822 877
f 824 821 888
f 888 821 931
f 827 826 825
f 827 825 932
f 932 825 887
f 932 887 933
f 828 827 934
f 934 827 932
f 934 932 935
f 935 932 933
f 829 828 934
f 829 934 892
f 892 934 889
f 889 934 935
f 889 935 933
f 889 933 798
f 832 831 830
f 832 830 936
f 936 830 891
f 936 891 890
f 798 799 890
f 890 799 937
f 890 937 936
f 936 937 938
f 936 938 832
f 832 938 833
f 835 834 833
f 835 833 939
f 939 833 938
f 939 938 937
f 937 799 940
f 937 940 939
f 939 940 941
f 939 941 835
f 835 941 836
f 837 836 942
f 942 836 941
f 942 941 940
f 893 940 799
f 893 894 940
f 940 894 895
f 940 895 942
f 942 895 838
f 942 838 837
f 841 840 839
f 841 839 943
f 943 839 896
f 943 896 944
f 944 896 894
f 944 894 800
f 800 894 893
f 844 841 945
f 945 841 943
f 945 943 944
f 945 944 897
f 897 944 800
f 945 897 899
f 945 899 844
f 844 899 843
f 843 846 842
f 849 845 846
f 849 846 946
f 946 846 900
f 946 900 898
f 801 901 898
f 898 901 946
f 946 901 947
f 946 947 948
f 946 948 849
f 849 948 848
f 847 848 948
f 847 948 902
f 902 948 947
f 902 947 901
f 874 851 850
f 847 850 852
f 855 851 874
f 874 873 905
f 905 873 872
f 905 872 904
f 904 872 871
f 904 871 789
f 789 903 904
f 874 905 907
f 874 907 854
f 874 854 855
f 857 858 853
f 857 853 949
f 949 853 906
f 949 906 950
f 950 906 903
f 950 903 790
f 790 903 789
f 950 790 908
f 950 908 951
f 950 951 949
f 949 951 857
f 857 951 856
f 951 908 910
f 951 910 856
f 856 910 859
f 859 860 862
f 865 861 860
f 865 860 952
f 952 860 911
f 952 911 909
f 912 909 790
f 909 912 952
f 952 912 914
f 952 914 916
f 952 916 865
f 865 916 864
f 866 863 953
f 953 863 915
f 953 915 913
f 866 867 863
f 870 866 954
f 954 866 953
f 954 953 919
f 919 953 913
f 919 913 917
f 917 913 791
f 954 919 921
f 954 921 869
f 954 869 870
f 803 804 868
f 803 868 955
f 955 868 920
f 955 920 918
f 792 918 917
f 918 792 922
f 918 922 955
f 955 922 956
f 955 956 803
f 803 956 802
f 956 922 924
f 956 924 802
f 802 924 805
f 805 806 807
f 809 808 806
f 809 806 957
f 957 806 925
f 957 925 923
f 793 923 792
f 923 793 927
f 923 927 957
f 957 927 928
f 957 928 930
f 957 930 809
f 809 930 810
f 814 812 811
f 814 811 958
f 958 811 929
f 958 929 959
f 959 929 927
f 959 927 926
f 813 814 960
f 960 814 958
f 960 958 959
f 794 926 793
f 926 794 885
f 926 885 959
f 959 885 960
f 960 885 886
f 960 886 816
f 960 816 813
f 796 797 875
f 876 875 931
f 876 931 877
f 878 877 961
f 878 961 880
f 882 880 817
f 882 817 884
f 884 817 815
f 884 815 816
f 797 798 933
f 875 933 887
f 875 887 888
f 961 877 820
f 961 820 818
f 797 933 875
f 875 888 931
f 880 961 818
f 880 818 817
f 815 817 819
f 225 226 962
f 192 963 191
f 191 963 964
f 191 964 190
f 190 964 189
f 189 964 965
f 189 965 188
f 202 966 201
f 201 966 967
f 201 967 200
f 200 967 199
f 199 967 968
f 199 968 198
f 198 968 969
f 198 969 197
f 197 969 970
f 197 970 196
f 196 970 971
f 196 971 195
f 195 971 972
f 195 972 194
f 194 972 973
f 194 973 193
f 193 973 974
f 193 974 192
f 192 974 963
f 975 976 204
f 204 976 977
f 204 977 203
f 203 977 978
f 203 978 202
f 202 978 966
f 212 979 211
f 211 979 980
f 211 980 210
f 210 980 209
f 209 980 981
f 209 981 208
f 208 981 982
f 208 982 207
f 207 982 983
f 207 983 206
f 206 983 975
f 206 975 205
f 205 975 204
f 216 984 215
f 215 984 985
f 215 985 214
f 214 985 986
f 214 986 213
f 213 986 987
f 213 987 212
f 212 987 988
f 212 988 979
f 221 989 220
f 220 989 219
f 219 989 990
f 219 990 218
f 218 990 991
f 218 991 217
f 217 991 992
f 217 992 216
f 216 992 984
f 962 993 225
f 225 993 994
f 225 994 224
f 224 994 223
f 223 994 995
f 223 995 222
f 222 995 996
f 222 996 221
f 221 996 997
f 221 997 989
f 228 998 227
f 227 998 999
f 227 999 226
f 226 999 962
f 236 1000 235
f 235 1000 1001
f 235 1001 234
f 234 1001 233
f 233 1001 1002
f 233 1002 232
f 232 1002 1003
f 232 1003 231
f 231 1003 1004
f 231 1004 230
f 230 1004 1005
f 230 1005 229
f 229 1005 228
f 228 1005 1006
f 228 1006 998
f 238 1007 237
f 237 1007 1008
f 237 1008 236
f 236 1008 1000
f 168 1009 167
f 167 1009 1010
f 167 1010 166
f 166 1010 165
f 165 1010 1011
f 165 1011 163
f 163 1011 1012
f 163 1012 164
f 164 1012 1013
f 164 1013 245
f 245 1013 1014
f 245 1014 244
f 244 1014 243
f 243 1014 1015
f 243 1015 242
f 242 1015 1016
f 242 1016 241
f 241 1016 1017
f 241 1017 240
f 240 1017 1018
f 240 1018 239
f 239 1018 238
f 238 1018 1019
f 238 1019 1007
f 178 1020 177
f 177 1020 1021
f 177 1021 176
f 176 1021 175
f 175 1021 1022
f 175 1022 174
f 174 1022 1023
f 174 1023 173
f 173 1023 1024
f 173 1024 172
f 172 1024 1025
f 172 1025 171
f 171 1025 1026
f 171 1026 170
f 170 1026 1027
f 170 1027 169
f 169 1027 1028
f 169 1028 168
f 168 1028 1009
f 180 1029 179
f 179 1029 1030
f 179 1030 178
f 178 1030 1020
f 965 1031 188
f 188 1031 1032
f 188 1032 187
f 187 1032 1033
f 187 1033 186
f 186 1033 185
f 185 1033 1034
f 185 1034 184
f 184 1034 1035
f 184 1035 183
f 183 1035 1036
f 183 1036 182
f 182 1036 1037
f 182 1037 181
f 181 1037 180
f 180 1037 1038
f 180 1038 1029
f 1040 1041 1042
f 1040 1042 1043
f 1042 1039 1043
f 1043 1039 1044
f 1044 1039 987
f 987 1039 1045
f 1045 1039 1046
f 983 1045 1046
f 1046 1047 983
f 983 1047 1048
f 1047 1049 1048
f 1048 1049 1050
f 1048 1050 1051
f 1051 1050 1052
f 1051 1052 971
f 971 1052 1053
f 971 1053 1054
f 1054 1053 1055
f 1053 1056 1055
f 1055 1056 1057
f 1057 1056 1058
f 1057 1058 1033
f 1033 1058 1059
f 1059 1058 1060
f 1059 1060 1061
f 1059 1061 1062
f 1062 1061 1063
f 1062 1063 1064
f 1064 1063 1065
f 1065 1063 1066
f 1065 1066 1067
f 1065 1067 1068
f 1069 1068 1070
f 1069 1070 1071
f 1071 1070 1072
f 1071 1072 1073
f 1073 1072 1074
f 1073 1074 1001
f 1001 1074 1075
f 1001 1075 1076
f 1076 1075 1078
f 1078 1075 1079
f 1078 1079 1077
f 1078 1077 1041
f 1071 1073 1018
f 1017 1071 1018
f 1015 1071 1017
f 1014 1071 1015
f 1069 1071 1013
f 1013 1071 1014
f 1011 1069 1013
f 1073 1001 1000
f 1001 1076 1002
f 1076 1078 1004
f 1004 1078 1005
f 1078 1006 1005
f 1078 1041 999
f 999 1041 962
f 1041 1040 994
f 994 1040 995
f 1040 1043 989
f 989 1043 990
f 1043 992 990
f 984 1044 985
f 1044 987 985
f 1045 980 979
f 980 1045 981
f 975 1048 976
f 976 1048 978
f 1048 1051 966
f 966 1051 967
f 1051 968 967
f 971 1054 972
f 972 1054 974
f 963 1055 964
f 1055 1057 965
f 1055 965 964
f 1057 1033 1032
f 1033 1059 1034
f 1059 1038 1037
f 1059 1062 1038
f 1038 1062 1030
f 1062 1064 1021
f 1062 1021 1020
f 1021 1064 1022
f 1025 1065 1026
f 1026 1065 1028
f 1017 1016 1015
f 1073 1008 1019
f 1073 1019 1018
f 1008 1007 1019
f 1000 1008 1073
f 1002 1076 1004
f 1002 1004 1003
f 1006 1078 999
f 1006 999 998
f 962 1041 994
f 962 994 993
f 997 996 995
f 997 995 1040
f 997 1040 989
f 992 991 990
f 984 992 1044
f 1044 992 1043
f 987 986 985
f 979 988 987
f 979 987 1045
f 983 982 981
f 983 981 1045
f 975 983 1048
f 978 977 976
f 966 978 1048
f 970 969 968
f 970 968 1051
f 1051 971 970
f 974 973 972
f 963 974 1055
f 1055 974 1054
f 1032 1031 965
f 1032 965 1057
f 1036 1035 1034
f 1036 1034 1059
f 1037 1036 1059
f 1030 1029 1038
f 1020 1030 1062
f 1024 1023 1022
f 1024 1022 1064
f 1024 1064 1065
f 1024 1065 1025
f 1028 1027 1026
f 1009 1028 1068
f 1068 1028 1065
f 1009 1068 1010
f 1068 1069 1010
f 1010 1069 1011
f 1011 1013 1012
f 1080 1081 1082
f 1082 1081 1083
f 1084 1085 1086
f 1084 1086 1087
f 1087 1086 1088
f 1087 1088 1089
f 1089 1088 1090
f 1089 1090 1091
f 1091 1090 1092
f 1091 1092 1093
f 1093 1092 1094
f 1093 1094 1095
f 1095 1094 1096
f 1095 1096 1097
f 1097 1096 1098
f 1097 1098 1099
f 1099 1098 1100
f 1099 1100 1101
f 1101 1100 1102
f 1101 1102 1103
f 1103 1102 1104
f 1103 1104 1105
f 1104 1106 1105
f 1105 1106 1107
f 1107 1106 1108
f 1107 1108 1109
f 1109 1108 1110
f 1109 1110 1111
f 1111 1110 1112
f 1111 1112 1113
f 1113 1112 1114
f 1113 1114 1115
f 1115 1114 1116
f 1115 1116 1117
f 1117 1116 1118
f 1117 1118 1119
f 1119 1118 1120
f 1119 1120 1121
f 1121 1120 1122
f 1121 1122 1123
f 1124 1125 1126
f 1126 1125 1127
f 1086 1128 1126
f 1086 1126 1127
f 1128 1086 1085
f 1129 1130 1131
f 1131 1130 1132
f 1131 1132 1133
f 1133 1124 1131
f 1125 1124 1133
f 1086 1127 1125
f 1133 1132 1125
f 1125 1132 1134
f 1125 1134 1086
f 1086 1134 1135
f 1086 1135 1088
f 1132 1136 1134
f 1088 1135 1090
f 1130 1137 1136
f 1130 1136 1132
f 1134 1136 1138
f 1134 1138 1135
f 1135 1138 1092
f 1135 1092 1090
f 1136 1139 1138
f 1092 1138 1140
f 1092 1140 1094
f 1136 1137 1139
f 1138 1139 1141
f 1138 1141 1140
f 1094 1140 1096
f 1140 1141 1098
f 1140 1098 1096
f 1139 1137 1142
f 1139 1142 1141
f 1141 1142 1098
f 1098 1142 1100
f 1137 1143 1144
f 1137 1144 1142
f 1142 1144 1145
f 1142 1145 1100
f 1100 1145 1102
f 1144 1146 1145
f 1106 1104 1102
f 1106 1102 1147
f 1147 1102 1145
f 1147 1145 1146
f 1147 1146 1148
f 1148 1146 1144
f 1148 1144 1149
f 1149 1144 1143
f 1149 1143 1150
f 1150 1143 1151
f 1151 1143 1137
f 1153 1154 1155
f 1150 1151 1149
f 1149 1151 1156
f 1149 1156 1148
f 1148 1156 1157
f 1148 1157 1147
f 1147 1157 1110
f 1110 1157 1112
f 1151 1158 1156
f 1156 1158 1157
f 1157 1158 1159
f 1157 1159 1112
f 1112 1159 1114
f 1151 1152 1158
f 1114 1159 1116
f 1158 1160 1159
f 1159 1160 1116
f 1116 1160 1118
f 1158 1152 1153
f 1158 1153 1160
f 1160 1153 1155
f 1160 1155 1120
f 1160 1120 1118
f 1155 1161 1120
f 1106 1147 1108
f 1108 1147 1110
f 1120 1161 1122
f 1084 1087 1162
f 1162 1087 1163
f 1162 1163 1164
f 1087 1089 1163
f 1164 1163 1168
f 1164 1168 1165
f 1165 1168 1169
f 1165 1169 1166
f 1166 1169 1167
f 1089 1091 1163
f 1163 1091 1171
f 1163 1171 1168
f 1168 1171 1172
f 1168 1172 1169
f 1167 1169 1170
f 1091 1093 1171
f 1093 1095 1173
f 1093 1173 1171
f 1171 1173 1174
f 1171 1174 1172
f 1172 1174 1175
f 1172 1175 1169
f 1169 1175 1170
f 1095 1097 1173
f 1097 1099 1173
f 1173 1099 1176
f 1173 1176 1174
f 1174 1176 1177
f 1174 1177 1175
f 1175 1177 1178
f 1175 1178 1170
f 1170 1178 1179
f 1170 1179 1180
f 1099 1101 1176
f 1101 1103 1176
f 1176 1103 1181
f 1176 1181 1177
f 1177 1181 1182
f 1177 1182 1178
f 1178 1182 1179
f 1103 1105 1183
f 1103 1183 1181
f 1184 1180 1179
f 1184 1179 1185
f 1185 1179 1182
f 1185 1182 1186
f 1186 1182 1181
f 1186 1181 1187
f 1187 1181 1183
f 1187 1183 1188
f 1188 1183 1105
f 1188 1105 1107
f 1121 1123 1189
f 1189 1190 1191
f 1107 1109 1188
f 1186 1187 1185
f 1109 1111 1188
f 1188 1111 1187
f 1187 1111 1193
f 1187 1193 1185
f 1185 1193 1194
f 1185 1194 1184
f 1111 1113 1193
f 1113 1115 1195
f 1113 1195 1193
f 1193 1195 1194
f 1194 1195 1196
f 1194 1196 1184
f 1115 1117 1195
f 1195 1117 1197
f 1195 1197 1196
f 1117 1119 1197
f 1119 1121 1189
f 1119 1189 1197
f 1197 1189 1191
f 1197 1191 1192
f 1197 1192 1196
f 1196 1192 1198
f 1184 1196 1198
f 1080 1082 1199
f 1199 1082 1200
f 1199 1200 1201
f 1201 1200 1202
f 1201 1202 1203
f 1203 1202 1204
f 1203 1204 1205
f 1205 1204 1206
f 1205 1206 1207
f 1207 1206 1208
f 1207 1208 1209
f 1081 1080 1210
f 1081 1210 1211
f 1211 1210 1212
f 1211 1212 1213
f 1211 1213 1214
f 1214 1213 1215
f 1214 1215 1216
f 1216 1215 1217
f 1216 1217 1218
f 1218 1217 1219
f 1218 1219 1220
f 1221 1222 1223
f 1223 1222 1224
f 1223 1224 1225
f 1225 1224 1226
f 1225 1226 1227
f 1227 1226 1228
f 1227 1228 1229
f 1227 1229 1081
f 1081 1229 1083
f 1221 1223 1230
f 1230 1223 1231
f 1231 1223 1235
f 1231 1235 1232
f 1232 1235 1236
f 1232 1236 1233
f 1233 1236 1237
f 1233 1237 1234
f 1223 1225 1238
f 1223 1238 1235
f 1236 1235 1239
f 1236 1239 1237
f 1225 1227 1238
f 1238 1227 1240
f 1238 1240 1235
f 1235 1240 1239
f 1234 1237 1220
f 1239 1240 1216
f 1239 1216 1237
f 1227 1081 1240
f 1240 1081 1211
f 1240 1211 1214
f 1240 1214 1216
f 1216 1218 1237
f 1237 1218 1220
f 1241 1242 1243
f 1243 1242 1244
f 1243 1244 1245
f 1245 1244 1246
f 1245 1246 1247
f 1247 1246 1248
f 1248 1246 1249
f 1248 1249 1250
f 1250 1249 1251
f 1250 1251 1082
f 1250 1082 1083
f 1252 1253 1254
f 1252 1254 1255
f 1255 1254 1256
f 1255 1256 1257
f 1258 1259 1260
f 1257 1256 1260
f 1257 1260 1259
f 1222 1261 1258
f 1261 1259 1258
f 1256 1254 1262
f 1256 1262 1260
f 1260 1262 1263
f 1260 1263 1258
f 1258 1263 1224
f 1258 1224 1222
f 1224 1263 1264
f 1224 1264 1226
f 1253 1241 1254
f 1254 1241 1265
f 1254 1265 1262
f 1262 1265 1266
f 1262 1266 1263
f 1263 1266 1264
f 1264 1266 1228
f 1264 1228 1226
f 1265 1241 1243
f 1265 1243 1245
f 1265 1245 1266
f 1266 1245 1247
f 1266 1247 1248
f 1266 1248 1228
f 1228 1248 1250
f 1228 1250 1229
f 1229 1250 1083
f 1210 1080 1212
f 1212 1080 1199
f 1212 1199 1269
f 1269 1199 1201
f 1201 1203 1270
f 1270 1203 1205
f 1205 1207 1268
f 1268 1207 1209
f 1268 1271 1272
f 1268 1272 1205
f 1205 1272 1270
f 1201 1270 1269
f 1269 1213 1212
f 1215 1213 1269
f 1215 1269 1270
f 1215 1270 1273
f 1273 1270 1272
f 1271 1274 1272
f 1272 1274 1273
f 1217 1215 1275
f 1275 1215 1273
f 1219 1217 1275
f 1275 1273 1267
f 1267 1273 1274
f 1244 1242 1279
f 1279 1242 1277
f 1280 1277 1281
f 1281 1277 1278
f 1281 1278 1276
f 1279 1277 1280
f 1279 1246 1244
f 1249 1246 1279
f 1249 1279 1282
f 1282 1279 1280
f 1282 1280 1283
f 1283 1280 1281
f 1283 1281 1284
f 1284 1281 1276
f 1284 1276 1285
f 1285 1286 1284
f 1283 1202 1282
f 1282 1202 1251
f 1282 1251 1249
f 1082 1251 1200
f 1200 1251 1202
f 1202 1283 1204
f 1204 1283 1284
f 1204 1284 1206
f 1206 1284 1286
f 1206 1286 1208
f 1084 1287 1085
f 1085 1287 1128
f 1252 1288 1253
f 1253 1288 1152
f 1241 1151 1242
f 1242 1151 1137
f 1152 1151 1253
f 1253 1151 1241
f 1278 1277 1130
f 1129 1289 1130
f 1130 1289 1278
f 1242 1137 1277
f 1277 1137 1130
f 1290 1291 1164
f 1165 1290 1164
f 1166 1292 1165
f 1165 1292 1290
f 1167 1292 1166
f 1167 1293 1292
f 1287 1084 1294
f 1294 1084 1162
f 1291 1162 1164
f 1291 1294 1162
f 1122 1295 1123
f 1123 1295 1296
f 1297 1298 1155
f 1154 1297 1155
f 1152 1288 1153
f 1153 1288 1299
f 1153 1299 1154
f 1154 1299 1297
f 1161 1295 1122
f 1155 1298 1161
f 1161 1298 1295
f 1301 1300 1302
f 1304 1303 1305
f 1309 1308 1052
f 1312 1311 1313
f 1305 1056 1053
f 1316 1047 1317
f 1319 1320 1321
f 1326 1327 1324
f 1328 1329 1042
f 1077 1333 1332
f 1335 1336 1334
f 1339 1340 1337
f 1074 1342 1339
f 1344 1345 1343
f 1348 1349 1346
f 1351 1352 1348
f 1067 1354 1353
f 1357 1358 1355
f 1360 1361 1357
f 1363 1364 1362
f 1058 1367 1128
f 1052 1050 1310
f 1310 1050 1311
f 1317 1046 1318
f 1318 1046 1321
f 1074 1072 1341
f 1341 1072 1343
f 1344 1070 1347
f 1347 1070 1346
f 1067 1066 1356
f 1356 1066 1355
f 1049 1314 1313
f 1058 1128 1060
f 1060 1366 1061
f 1300 1058 1302
f 1302 1058 1056
f 1303 1056 1305
f 1305 1053 1306
f 1306 1053 1307
f 1307 1052 1308
f 1311 1050 1313
f 1313 1050 1049
f 1317 1047 1046
f 1321 1046 1319
f 1319 1046 1039
f 1319 1039 1323
f 1323 1039 1322
f 1322 1039 1324
f 1324 1039 1326
f 1326 1039 1042
f 1326 1042 1325
f 1328 1042 1041
f 1328 1041 1331
f 1331 1041 1330
f 1330 1041 1077
f 1330 1077 1332
f 1334 1079 1075
f 1334 1075 1335
f 1335 1075 1338
f 1338 1075 1337
f 1337 1075 1074
f 1337 1074 1339
f 1343 1072 1344
f 1344 1072 1070
f 1346 1070 1348
f 1348 1070 1068
f 1348 1068 1351
f 1351 1068 1350
f 1350 1067 1353
f 1355 1066 1357
f 1357 1066 1063
f 1357 1063 1360
f 1360 1063 1359
f 1359 1063 1362
f 1362 1063 1363
f 1363 1063 1061
f 1350 1068 1067
f 1307 1053 1052
f 1315 1049 1047
f 1370 1267 1371
f 1371 1267 1274
f 1271 1372 1274
f 1274 1372 1371
f 1268 1368 1271
f 1271 1368 1372
f 1209 1369 1268
f 1268 1369 1368
f 1373 1369 1209
f 1373 1209 1208
f 1373 1208 1286
f 1286 1374 1373
f 1285 1375 1374
f 1285 1374 1286
f 1276 1376 1285
f 1285 1376 1375
f 1276 1377 1376
f 1289 1377 1278
f 1278 1377 1276
f 1128 1366 1060
f 1128 1287 1366
f 1367 1126 1128
f 1367 1124 1126
f 1287 1294 1365
f 1061 1287 1365
f 1061 1366 1287
f 1294 1291 1365
f 1058 1378 1367
f 1129 1131 1378
f 1378 1131 1124
f 1378 1124 1367
f 1289 1129 1377
f 1377 1129 1378
f 1377 1378 1379
f 1383 1377 1379
f 1380 1383 1379
f 1383 1376 1377
f 1382 1373 1374
f 1375 1382 1374
f 1380 1381 1375
f 1375 1383 1380
f 1375 1381 1382
f 1376 1383 1375
f 1382 1369 1373
f 1382 1387 1369
f 1387 1388 1369
f 1385 1386 1388
f 1385 1388 1387
f 1381 1384 1387
f 1381 1387 1382
f 1387 1384 1385
f 1388 1372 1368
f 1371 1372 1370
f 1390 1370 1372
f 1388 1386 1389
f 1389 1390 1372
f 1369 1388 1368
f 1388 1389 1372
f 1293 1370 1391
f 1391 1370 1390
f 1292 1391 1365
f 1365 1291 1290
f 1365 1290 1292
f 1292 1293 1391
f 1058 1300 1378
f 1392 1393 1394
f 1392 1394 1395
f 1392 1396 1393
f 1393 1396 1380
f 1393 1380 1379
f 1301 1379 1300
f 1300 1379 1378
f 1381 1396 1397
f 1397 1398 1381
f 1381 1380 1396
f 1385 1399 1386
f 1386 1399 1400
f 1385 1384 1399
f 1399 1384 1398
f 1398 1384 1381
f 1365 1391 1061
f 1061 1391 1390
f 1401 1390 1389
f 1400 1402 1386
f 1386 1402 1401
f 1386 1401 1389
f 1390 1401 1061
f 1061 1401 1403
f 1061 1403 1404
f 1404 1405 1406
f 1406 1405 1407
f 1061 1404 1406
f 1061 1406 1363
f 1363 1406 1408
f 1363 1408 1364
f 1364 1408 1409
f 1364 1409 1362
f 1362 1409 1410
f 1362 1410 1359
f 1359 1410 1411
f 1359 1411 1360
f 1360 1411 1412
f 1360 1412 1361
f 1361 1412 1413
f 1361 1413 1357
f 1357 1413 1414
f 1357 1414 1358
f 1358 1414 1415
f 1358 1415 1355
f 1355 1415 1416
f 1355 1416 1356
f 1356 1416 1417
f 1356 1417 1067
f 1067 1417 1418
f 1067 1418 1354
f 1354 1418 1419
f 1354 1419 1353
f 1353 1419 1420
f 1353 1420 1350
f 1350 1420 1421
f 1350 1421 1351
f 1351 1421 1422
f 1351 1422 1352
f 1352 1422 1423
f 1352 1423 1348
f 1348 1423 1424
f 1348 1424 1349
f 1349 1424 1425
f 1349 1425 1346
f 1346 1425 1426
f 1346 1426 1347
f 1347 1426 1427
f 1347 1427 1344
f 1344 1427 1428
f 1344 1428 1345
f 1345 1428 1429
f 1345 1429 1343
f 1343 1429 1430
f 1343 1430 1341
f 1341 1430 1431
f 1341 1431 1074
f 1074 1431 1432
f 1074 1432 1342
f 1342 1432 1433
f 1342 1433 1339
f 1339 1433 1434
f 1339 1434 1340
f 1340 1434 1435
f 1340 1435 1337
f 1337 1435 1436
f 1337 1436 1338
f 1338 1436 1437
f 1338 1437 1335
f 1335 1437 1438
f 1335 1438 1336
f 1336 1438 1439
f 1336 1439 1334
f 1334 1439 1440
f 1334 1440 1079
f 1079 1440 1441
f 1079 1441 1077
f 1077 1441 1442
f 1077 1442 1333
f 1333 1442 1443
f 1333 1443 1332
f 1332 1443 1444
f 1332 1444 1330
f 1330 1444 1445
f 1330 1445 1446
f 1330 1446 1331
f 1331 1446 1447
f 1331 1447 1328
f 1328 1447 1448
f 1328 1448 1329
f 1329 1448 1449
f 1329 1449 1042
f 1042 1449 1450
f 1042 1450 1325
f 1325 1450 1451
f 1325 1451 1326
f 1326 1451 1452
f 1326 1452 1327
f 1327 1452 1453
f 1327 1453 1324
f 1324 1453 1454
f 1324 1454 1322
f 1322 1454 1455
f 1322 1455 1456
f 1322 1456 1323
f 1323 1456 1457
f 1323 1457 1319
f 1319 1457 1458
f 1319 1458 1320
f 1320 1458 1459
f 1320 1459 1321
f 1321 1459 1460
f 1321 1460 1318
f 1318 1460 1461
f 1318 1461 1317
f 1317 1461 1462
f 1317 1462 1316
f 1316 1462 1463
f 1316 1463 1047
f 1047 1463 1464
f 1047 1464 1315
f 1315 1464 1465
f 1315 1465 1049
f 1049 1465 1466
f 1049 1466 1314
f 1314 1466 1467
f 1314 1467 1313
f 1313 1467 1468
f 1313 1468 1312
f 1312 1468 1469
f 1312 1469 1311
f 1311 1469 1470
f 1311 1470 1310
f 1310 1470 1471
f 1310 1471 1052
f 1052 1471 1472
f 1052 1472 1309
f 1309 1472 1473
f 1309 1473 1308
f 1308 1473 1474
f 1308 1474 1307
f 1307 1474 1475
f 1307 1475 1306
f 1306 1475 1476
f 1306 1476 1477
f 1306 1477 1305
f 1305 1477 1478
f 1305 1478 1304
f 1304 1478 1479
f 1304 1479 1303
f 1303 1479 1480
f 1303 1480 1056
f 1056 1480 1481
f 1056 1481 1302
f 1302 1481 1482
f 1302 1482 1301
f 1301 1482 1393
f 1301 1393 1379
f 1469 1468 1470
f 1473 1472 1474
f 1480 1479 1478
f 1476 1478 1477
f 1394 1393 1482
f 703 1484 1485
f 703 1485 1483
f 1483 1485 1395
f 1408 1410 1409
f 1413 1412 1414
f 1415 1414 1416
f 1418 1420 1419
f 1423 1422 1424
f 1425 1424 1426
f 1429 1428 1430
f 1436 1435 1434
f 1432 1434 1433
f 1439 1438 1440
f 1446 1445 1444
f 1442 1444 1443
f 1449 1448 1450
f 1456 1455 1454
f 1452 1454 1453
f 1459 1458 1460
f 1462 1464 1463
f 600 598 602
f 663 661 665
f 689 687 685
f 578 576 574
f 669 1422 671
f 671 1422 673
f 673 1420 675
f 675 1420 1418
f 675 1418 678
f 678 1418 1417
f 678 1417 680
f 680 1417 1416
f 680 1416 682
f 682 1416 685
f 691 1410 693
f 693 1410 1408
f 693 1408 696
f 696 1408 1406
f 696 1406 698
f 698 1406 700
f 703 1483 705
f 705 1483 564
f 567 1482 569
f 569 1482 571
f 578 1476 580
f 580 1476 1486
f 580 1486 582
f 582 1486 585
f 585 1472 587
f 587 1472 1471
f 587 1471 589
f 589 1471 1470
f 589 1470 592
f 592 1470 1468
f 592 1468 594
f 594 1468 596
f 596 1487 598
f 598 1487 602
f 606 1460 608
f 608 1460 1458
f 608 1458 611
f 611 1458 1488
f 611 1488 613
f 613 1488 1456
f 613 1456 616
f 616 1456 1454
f 616 1454 618
f 618 1454 1452
f 618 1452 620
f 620 1452 623
f 623 1450 625
f 625 1450 1448
f 625 1448 627
f 627 1448 630
f 630 1446 632
f 632 1446 635
f 635 1442 637
f 637 1442 640
f 640 1440 642
f 642 1440 1438
f 642 1438 644
f 644 1438 647
f 647 1436 649
f 649 1436 1434
f 649 1434 651
f 651 1434 654
f 654 1431 656
f 656 1431 1430
f 656 1430 658
f 658 1430 661
f 665 1426 667
f 667 1426 1424
f 667 1424 669
f 669 1424 1422
f 1483 1395 564
f 564 1395 1394
f 564 1394 567
f 567 1394 1482
f 1482 1481 571
f 571 1481 1480
f 571 1480 574
f 574 1480 1478
f 574 1478 578
f 578 1478 1476
f 1476 1475 1486
f 1486 1475 1474
f 1486 1474 585
f 585 1474 1472
f 1468 1467 596
f 596 1467 1466
f 596 1466 1487
f 1487 1466 1465
f 1487 1465 1464
f 1487 1464 602
f 602 1464 1462
f 602 1462 603
f 603 1462 1461
f 603 1461 606
f 606 1461 1460
f 1458 1457 1488
f 1488 1457 1456
f 1452 1451 623
f 623 1451 1450
f 1448 1447 630
f 630 1447 1446
f 1446 1444 635
f 635 1444 1442
f 1442 1441 640
f 640 1441 1440
f 1438 1437 647
f 647 1437 1436
f 1434 1432 654
f 654 1432 1431
f 1430 1428 661
f 661 1428 1427
f 661 1427 665
f 665 1427 1426
f 1422 1421 673
f 673 1421 1420
f 1416 1414 685
f 685 1414 1412
f 685 1412 689
f 689 1412 1411
f 689 1411 691
f 691 1411 1410
f 1406 1407 700
f 700 1407 1484
f 700 1484 703
f 1261 1222 1221
f 1261 1221 1489
f 1490 1233 1234
f 1489 1221 1230
f 1491 1489 1230
f 1231 1491 1230
f 1231 1492 1491
f 1232 1492 1231
f 1232 1493 1492
f 1233 1493 1232
f 1233 1490 1493
f 1494 1490 1198
f 1198 1490 1234
f 1220 1184 1234
f 1234 1184 1198
f 1184 1220 1180
f 1180 1220 1219
f 1267 1167 1275
f 1370 1293 1267
f 1267 1293 1167
f 1275 1180 1219
f 1275 1170 1180
f 1167 1170 1275
f 1495 1494 1198
f 1496 1495 1192
f 1192 1495 1198
f 1190 1497 1191
f 1191 1497 1192
f 1192 1497 1496
f 1190 1498 1497
f 1123 1296 1189
f 1189 1296 1498
f 1189 1498 1190
f 1395 1295 1298
f 1499 1259 1261
f 1397 1257 1259
f 1397 1259 1499
f 1396 1255 1257
f 1396 1257 1397
f 1398 1397 1499
f 1395 1485 1295
f 1295 1485 1296
f 1485 1484 1296
f 1407 1498 1484
f 1296 1484 1498
f 1498 1407 1497
f 1496 1497 1495
f 1407 1405 1495
f 1497 1407 1495
f 1495 1405 1494
f 1490 1494 1404
f 1404 1494 1405
f 1491 1401 1489
f 1401 1491 1403
f 1493 1404 1492
f 1403 1492 1404
f 1490 1404 1493
f 1403 1491 1492
f 1261 1489 1500
f 1500 1499 1261
f 1400 1499 1500
f 1402 1400 1401
f 1401 1400 1500
f 1401 1500 1489
f 1400 1398 1499
f 1398 1400 1399
f 1288 1252 1392
f 1392 1252 1255
f 1392 1255 1396
f 1288 1392 1299
f 1298 1297 1299
f 1298 1299 1392
f 1298 1392 1395

