# https://github.com/mikedh/trimesh
v -0.00741694 -0.03833217 0.01789773
v 0.00004603 -0.03875570 0.01813372
v -0.00713759 -0.03835882 0.01403429
v -0.00014765 -0.03873277 0.01403060
v -0.00885382 -0.03750666 0.01403308
v -0.00907735 -0.03726611 0.01780574
v -0.00968995 -0.03555450 0.01400395
v -0.00967922 -0.03540414 0.01803863
v -0.00846069 -0.02801173 0.01778777
v -0.00862034 -0.02863089 0.01400175
v -0.00704488 -0.02627818 0.01400401
v -0.00616345 -0.02573889 0.01782305
v -0.00455580 -0.02520397 0.01400276
v -0.00427888 -0.02520031 0.01783643
v 0.00599887 -0.03963093 0.01896129
v 0.00708598 -0.03835867 0.01802698
v -0.00812506 -0.03921988 0.01896988
v 0.01066935 -0.03607961 0.01899073
v 0.00950888 -0.03548993 0.01812727
v 0.00878685 -0.03745898 0.01834931
v 0.00849171 -0.02896421 0.01803937
v 0.00941377 -0.02807783 0.01899290
v 0.00748009 -0.02684643 0.01822516
v 0.00523514 -0.02437292 0.01899050
v 0.00469919 -0.02522804 0.01780168
v -0.00553443 -0.02435732 0.01899412
v -0.00925291 -0.02758030 0.01896586
v -0.01076305 -0.03625168 0.01898509
v -0.00777081 0.04027246 0.01900137
v -0.00333569 0.00496263 0.01900002
v -0.00138362 0.00576027 0.01900002
v -0.00279819 -0.00570621 0.01900002
v -0.00030861 -0.00629285 0.01900002
v 0.00173264 -0.00601484 0.01900002
v -0.02355406 -0.03415580 0.01900088
v -0.00448359 -0.00440420 0.01900002
v -0.00565711 -0.00278847 0.01900002
v -0.03480938 -0.02279862 0.01900412
v 0.00066965 0.00584111 0.01900002
v 0.00517009 0.04083627 0.01900293
v 0.00305795 0.00505424 0.01900002
v 0.02234262 0.03431550 0.01900053
v 0.03815245 -0.01562336 0.01900108
v 0.00581164 -0.00169011 0.01900002
v 0.00596991 0.00036387 0.01900002
v 0.00497814 -0.00357404 0.01900002
v 0.00356466 -0.00507267 0.01900002
v 0.01973884 -0.03650816 0.01900313
v -0.03543864 0.02073491 0.01900043
v -0.00584098 0.00182856 0.01900001
v 0.00522035 0.00284735 0.01900002
v -0.03992950 -0.01132490 0.01900213
v -0.00487118 0.00358926 0.01900002
v 0.03621106 0.01925741 0.01900220
v 0.04051733 0.00745552 0.01900271
v 0.03068695 -0.02724170 0.01900088
v -0.00620772 -0.00017246 0.01900002
v -0.02993044 0.02846347 0.01900102
v -0.00254208 -0.04150517 0.01904836
v -0.04125527 0.00190473 0.01900243
v -0.00366014 0.04464560 0.02279757
v 0.00132378 0.04457797 0.02198624
v 0.00169950 0.04480183 0.02324901
v -0.00869954 0.04401068 0.02314529
v -0.01315353 0.04284542 0.02240700
v -0.01873717 0.04078290 0.02305013
v -0.02332172 0.03833266 0.02254380
v -0.02820334 0.03498346 0.02308799
v -0.03334099 0.03015688 0.02283195
v -0.03718107 0.02524733 0.02239542
v -0.03943359 0.02173963 0.02322701
v -0.04116849 0.01814328 0.02242242
v -0.04302049 0.01332592 0.02313436
v -0.04434555 0.00811496 0.02306209
v -0.04509318 0.00151500 0.02307314
v -0.04481225 -0.00547535 0.02285434
v -0.04343614 -0.01246004 0.02315132
v -0.04165683 -0.01738509 0.02249058
v -0.03950267 -0.02200367 0.02309480
v -0.03663104 -0.02646844 0.02282044
v -0.03345532 -0.03043791 0.02302146
v -0.02965619 -0.03414228 0.02312686
v -0.02658650 -0.03654401 0.02249084
v -0.02245667 -0.03926886 0.02259050
v -0.01751596 -0.04167220 0.02251490
v -0.01390389 -0.04300606 0.02250623
v -0.00892568 -0.04436903 0.02317403
v -0.00372362 -0.04502700 0.02249325
v 0.00112581 -0.04520127 0.02260017
v 0.00667775 -0.04467048 0.02252113
v 0.01158580 -0.04368228 0.02302449
v 0.01666510 -0.04197708 0.02316398
v 0.01956232 -0.04065118 0.02238386
v 0.02482122 -0.03770819 0.02309254
v 0.02889683 -0.03461682 0.02284236
v 0.03275072 -0.03098181 0.02301141
v 0.03596528 -0.02714213 0.02316753
v 0.03777498 -0.02444829 0.02237360
v 0.04078891 -0.01908286 0.02312320
v 0.04326698 -0.01235191 0.02310082
v 0.04463846 -0.00540908 0.02321820
v 0.04457330 -0.00367408 0.02208000
v 0.04486656 -0.00011264 0.02247648
v 0.04463927 0.00498561 0.02312207
v 0.04324676 0.01202411 0.02310281
v 0.04081862 0.01860755 0.02288976
v 0.03890018 0.02220901 0.02242005
v 0.03535946 0.02756805 0.02312408
v 0.03182401 0.03150408 0.02281014
v 0.02806470 0.03493112 0.02305671
v 0.02366998 0.03800652 0.02282948
v 0.01864480 0.04075292 0.02312737
v 0.01200604 0.04315661 0.02283365
v 0.00776574 0.04407828 0.02238041
v 0.01864088 0.04038395 0.02176900
v 0.02759760 0.03488792 0.02176900
v 0.03301097 0.02938871 0.02111459
v 0.03708528 0.02461195 0.02176902
v 0.04293316 0.01190700 0.02176898
v 0.04429759 0.00502624 0.02176903
v 0.04344918 -0.00927455 0.02121591
v 0.04183207 -0.01569901 0.02176899
v 0.03957523 -0.02045057 0.02144132
v 0.03270966 -0.03056557 0.02176901
v 0.02471487 -0.03738555 0.02176901
v 0.01200989 -0.04323343 0.02176898
v 0.00331356 -0.04446681 0.02111504
v -0.00884590 -0.04404043 0.02176900
v -0.02904986 -0.03405225 0.02144127
v -0.03294317 -0.03052645 0.02176902
v -0.03911487 -0.02202117 0.02176899
v -0.04313053 -0.01231015 0.02176900
v -0.04434177 -0.00551936 0.02143107
v -0.04476615 0.00158005 0.02176901
v -0.04393751 0.00854564 0.02176900
v -0.04202941 0.01529586 0.02176901
v -0.03313350 0.02947954 0.02112279
v -0.02775309 0.03492091 0.02176899
v -0.01878984 0.04040626 0.02176900
v -0.00541644 0.04404150 0.02143107
v 0.01670887 0.04072988 0.02082907
v 0.02297192 0.03723664 0.02053523
v 0.04013035 0.01804765 0.02080917
v 0.02837805 -0.03371205 0.02053524
v -0.02016077 -0.03933452 0.02053522
v -0.03574012 -0.02596127 0.02053522
v 0.00168173 0.04372513 0.02056470
v 0.00853146 0.04290580 0.02056470
v 0.02716116 0.03428939 0.02056470
v 0.03614836 0.02385326 0.02002792
v 0.04222829 0.01167923 0.02056469
v 0.04263284 0.00732235 0.01994505
v 0.04337563 0.00136958 0.02002793
v 0.04355295 -0.00542291 0.02056469
v 0.04112794 -0.01546897 0.02056469
v 0.03642478 -0.02467123 0.02056469
v 0.03214720 -0.03008351 0.02056468
v 0.02395617 -0.03644863 0.02002793
v 0.01948386 -0.03901041 0.02002815
v 0.01482988 -0.04106261 0.02002793
v 0.00825404 -0.04289488 0.02002793
v -0.00187917 -0.04412831 0.02056469
v -0.00872883 -0.04330898 0.02056469
v -0.01536604 -0.04142820 0.02056468
v -0.02570562 -0.03568793 0.02026890
v -0.03241848 -0.03000354 0.02056468
v -0.03848258 -0.02163525 0.02056470
v -0.04136299 -0.01536679 0.02056470
v -0.04322732 -0.00872492 0.02056470
v -0.04402540 0.00157881 0.02056470
v -0.04320607 0.00842854 0.02056470
v -0.04158852 0.01249423 0.01994505
v -0.04000036 0.01825326 0.02056469
v -0.03662211 0.02426806 0.02056469
v -0.02727300 0.03435680 0.02056470
v -0.02153231 0.03818232 0.02056469
v -0.01526385 0.04106273 0.02056470
v -0.00862201 0.04292705 0.02056470
v 0.01213676 0.04117962 0.01980666
v 0.03144472 0.02927810 0.01982269
v 0.03961345 0.01606624 0.01961333
v 0.03959837 -0.01721203 0.01979340
v -0.04289418 -0.00340148 0.01961332
v -0.02905151 0.03125803 0.01950417
v -0.00329856 0.04259391 0.01961332
v 0.00504727 0.04237624 0.01964912
v 0.01697119 0.03876778 0.01941594
v 0.02559677 0.03370617 0.01941594
v 0.04202937 -0.00717274 0.01949139
v 0.03572060 -0.02315746 0.01941594
v 0.03031646 -0.02996436 0.01942087
v 0.00147941 -0.04306024 0.01964913
v -0.00524458 -0.04277944 0.01964913
v -0.01348716 -0.04099871 0.01964607
v -0.02305452 -0.03602089 0.01941594
v -0.03078211 -0.02967224 0.01941594
v -0.03841372 -0.01958236 0.01964607
v -0.04140474 -0.01174118 0.01964912
v -0.04267651 0.00494436 0.01964912
v -0.03801062 0.01944663 0.01949139
v -0.03371351 0.02643290 0.01964913
v -0.02383776 0.03551688 0.01964913
v -0.01795791 0.03879074 0.01964913
v -0.01163826 0.04110447 0.01964912
v 0.03117155 0.02761458 0.01915203
v 0.04136695 -0.00276216 0.01909466
v 0.00765767 -0.04122464 0.01912314
v -0.01169052 -0.04036517 0.01914166
v -0.04026225 0.01139026 0.01914166
v -0.01741900 0.03777448 0.01912064
v -0.03693997 0.02571379 0.02883393
v -0.04499879 0.00330507 0.02896280
v 0.04378513 -0.01038268 0.02898521
v 0.04462211 -0.00532647 0.02901849
v 0.04494673 -0.00020104 0.02884074
v 0.04032562 -0.02007469 0.02897997
v 0.04232301 -0.01526723 0.02902470
v 0.03784062 -0.02443949 0.02902872
v 0.03487362 -0.02855686 0.02878886
v 0.03152506 -0.03224530 0.02885641
v 0.02701747 -0.03616496 0.02896240
v 0.02107083 -0.03994942 0.02881170
v -0.04459394 -0.00724062 0.02898682
v -0.04347199 -0.01221823 0.02883101
v -0.04184339 -0.01712729 0.02884086
v -0.03870546 -0.02342113 0.02902609
v -0.03456056 -0.02918940 0.02881247
v -0.03116067 -0.03279054 0.02902941
v -0.02715769 -0.03621380 0.02898469
v -0.02302235 -0.03894710 0.02902723
v -0.01832145 -0.04140242 0.02899062
v -0.01336569 -0.04323360 0.02913967
v -0.00854819 -0.04444946 0.02884315
v -0.00142791 -0.04523351 0.02899847
v 0.00552050 -0.04489209 0.02898206
v 0.01032780 -0.04400268 0.02903611
v 0.01528098 -0.04253732 0.02897610
v -0.04509567 -0.00176491 0.02903417
v -0.04314179 0.01299749 0.02878387
v -0.04434751 0.00809704 0.02902795
v -0.04145399 0.01759522 0.02885733
v -0.03965328 0.02128182 0.02901645
v -0.03380742 0.02963577 0.02902444
v -0.03018965 0.03331335 0.02897386
v -0.02626578 0.03643632 0.02903161
v -0.02191825 0.03918357 0.02879466
v -0.01582203 0.04201463 0.02885065
v -0.00885167 0.04398668 0.02884175
v -0.00360579 0.04467084 0.02883664
v 0.00133370 0.04482601 0.02899099
v 0.00665073 0.04431124 0.02903121
v 0.01146581 0.04333233 0.02898341
v 0.01650459 0.04164805 0.02903214
v 0.02094129 0.03960928 0.02880330
v 0.02693016 0.03583822 0.02897592
v 0.04439940 0.00682650 0.02898996
v 0.04275308 0.01367372 0.02897953
v 0.04090043 0.01839486 0.02902734
v 0.03849950 0.02302322 0.02898588
v 0.03479421 0.02826569 0.02880837
v 0.03138873 0.03197707 0.02902640
v -0.02478933 0.03888876 0.02998561
v -0.01393492 0.04403923 0.02999585
v -0.01380265 0.04328791 0.02965592
v -0.00538425 0.04859437 0.02999730
v -0.00538770 0.04521473 0.02982501
v 0.00157854 0.04554332 0.02984618
v 0.01073304 0.04456070 0.02996228
v -0.03296225 0.03214838 0.02997506
v -0.03738372 0.02605622 0.02971690
v -0.04279284 0.01787637 0.02999007
v -0.04299326 0.01526417 0.02965592
v -0.04133683 -0.02149724 0.02998805
v -0.04524849 -0.00777457 0.02983490
v -0.04270900 -0.01643236 0.02962144
v -0.02602956 -0.03829501 0.02998154
v -0.01634525 -0.04335283 0.02996780
v 0.01764409 -0.04265215 0.02996138
v 0.02463986 -0.03844107 0.02965770
v 0.04312267 -0.01635755 0.02998423
v 0.04526928 -0.00828068 0.02998156
v 0.04575959 0.00155839 0.02991624
v 0.03198350 0.03296432 0.02998665
v 0.03894700 0.02370010 0.02983490
v 0.03505141 0.02875914 0.02965770
v -0.02183739 0.03981941 0.02965769
v -0.04547648 0.00713191 0.02997732
v -0.04618895 -0.00129213 0.02996650
v -0.03459454 -0.02993845 0.02962848
v -0.03235494 -0.03349162 0.02999585
v -0.00521832 -0.04580885 0.02996166
v 0.00278234 -0.04617817 0.02992537
v 0.02048119 -0.04477627 0.02999304
v 0.00721947 -0.04546554 0.02982206
v 0.03036839 -0.03467989 0.02989922
v 0.02557078 -0.04167289 0.03000597
v 0.03392437 -0.03061801 0.02969529
v 0.04550077 -0.01836539 0.02999537
v 0.03923395 -0.02359551 0.02984080
v 0.04233200 0.01794828 0.02998739
v 0.04446344 0.01021710 0.02984080
v 0.02524398 0.03871029 0.02999568
v 0.02245311 0.03940039 0.02959921
v -0.04311270 0.02353635 0.02997029
v -0.04815186 0.00997785 0.02997783
v -0.04866231 -0.00759912 0.02997606
v -0.04689645 -0.01512440 0.02997788
v -0.04051730 -0.02811306 0.02997793
v -0.03063026 -0.03867922 0.02997799
v -0.01391187 -0.04714142 0.03000056
v 0.04132334 0.02620211 0.02997640
v 0.02937465 0.03909823 0.02997604
v 0.02284257 0.04323141 0.02997785
v 0.00919116 0.04803139 0.02997788
v -0.02034368 0.04456902 0.02998326
v -0.03604488 0.03293314 0.02999695
v 0.00146503 -0.04939170 0.02996716
v 0.03767133 -0.03133471 0.02999743
v 0.04878551 -0.00500171 0.02997800
v 0.04729073 0.01269979 0.02998301
v -0.01082131 0.04864307 0.02878725
v -0.01582375 0.04729357 0.02887044
v -0.00031698 -0.05024393 0.02883228
v -0.02110380 0.04518494 0.02887817
v -0.02485926 0.04323173 0.02909775
v -0.02935148 0.04039960 0.02885102
v -0.03380876 0.03671560 0.02922733
v -0.04072218 0.02894262 0.02920845
v -0.03735800 0.03319843 0.02869634
v -0.04617211 0.01925700 0.02877137
v -0.04367475 0.02436572 0.02890901
v -0.04763695 0.01528302 0.02890975
v -0.04903335 0.01026108 0.02885748
v -0.04986619 0.00469439 0.02878726
v -0.04975597 -0.00615627 0.02877348
v -0.05001877 -0.00278319 0.02910735
v -0.05010219 0.00044782 0.02888699
v -0.04905268 -0.01038224 0.02889994
v -0.04775233 -0.01547617 0.02885102
v -0.04571696 -0.02067900 0.02879997
v -0.04025105 -0.03001317 0.02888220
v -0.04338623 -0.02529731 0.02885726
v -0.03284235 -0.03800702 0.02877136
v -0.03692935 -0.03405316 0.02890901
v -0.02951556 -0.04062817 0.02890976
v -0.02517092 -0.04350810 0.02885748
v -0.02013401 -0.04602038 0.02878727
v -0.00978044 -0.04926857 0.02877348
v -0.01527887 -0.04787574 0.02872162
v -0.00554399 -0.04990560 0.02889995
v 0.00526835 -0.04991466 0.02889793
v 0.01581332 -0.04760616 0.02908700
v 0.01044224 -0.04911495 0.02887138
v 0.02573284 -0.04302946 0.02866042
v 0.02071482 -0.04569034 0.02890901
v 0.02898418 -0.04085063 0.02923106
v 0.03333936 -0.03743212 0.02876059
v 0.03728019 -0.03341968 0.02888849
v 0.04296083 -0.02568954 0.02885749
v 0.03993763 -0.03015633 0.02908874
v 0.04586679 -0.01992081 0.02893326
v 0.04781744 -0.01453082 0.02877483
v 0.04883975 -0.01045954 0.02889794
v 0.04990958 0.00032030 0.02877894
v 0.04967801 -0.00529172 0.02887139
v 0.04861298 0.01113739 0.02877136
v 0.04924094 0.00780640 0.02910983
v 0.04967498 0.00460422 0.02889232
v 0.04746223 0.01521340 0.02890976
v 0.04564009 0.02009706 0.02885749
v 0.04304188 0.02509007 0.02878725
v 0.03657553 0.03380069 0.02887817
v 0.04021256 0.02943070 0.02887044
v 0.03355747 0.03676872 0.02909775
v 0.02947579 0.04016591 0.02885102
v 0.02477099 0.04317872 0.02879997
v 0.01486250 0.04751745 0.02888220
v 0.02017088 0.04554501 0.02885726
v 0.00417004 0.04962988 0.02877137
v 0.00980046 0.04883344 0.02890901
v -0.00006207 0.04979501 0.02890975
v -0.00526976 0.04957119 0.02885749
v 0.03411668 -0.03600655 0.02972211
v -0.01452132 -0.04775335 0.02949018
v 0.00194664 0.04917951 0.02974145
v 0.01624702 0.04644062 0.02974145
v 0.03717902 0.03224915 0.02974145
v 0.04501716 0.01997857 0.02974145
v 0.04926050 0.00231817 0.02974145
v 0.04785275 -0.01217398 0.02974145
v 0.04228326 -0.02562697 0.02974145
v 0.01055794 -0.04846249 0.02974145
v -0.00759556 -0.04905315 0.02974145
v -0.02293095 -0.04419279 0.02968219
v -0.03615182 -0.03400763 0.02974145
v -0.04443801 -0.02203506 0.02974145
v -0.04943356 0.00275585 0.02974145
v -0.04643087 0.01700321 0.02974145
v -0.02897145 0.03991125 0.02974145
v -0.01253128 0.04763258 0.02974145
v -0.04565398 0.00932942 0.00514570
v -0.04512250 0.01138302 0.00468284
v 0.00064530 0.04626845 0.00474133
v 0.00629960 0.04590143 0.00420363
v 0.00059568 -0.04681487 0.00367939
v 0.00120489 -0.04665155 0.00325542
v -0.03764450 -0.02781844 0.00341801
v -0.03869774 -0.02620276 0.00299631
v -0.04591320 -0.00803677 0.00329840
v -0.04661014 -0.00251696 0.00280331
v -0.04653074 0.00272747 0.00320947
v -0.04468038 -0.01333535 0.00285257
v -0.04315125 -0.01774638 0.00333042
v -0.03041956 -0.03558911 0.00306948
v -0.02907670 -0.03654058 0.00353355
v -0.02230838 -0.04102822 0.00354138
v -0.02060940 -0.04192842 0.00314309
v -0.01474664 -0.04440325 0.00358659
v -0.00996606 -0.04568946 0.00321463
v -0.00909057 -0.04589173 0.00359588
v 0.01175544 -0.04520649 0.00334845
v 0.01342790 -0.04478579 0.00376709
v 0.02255776 -0.04079175 0.00376466
v 0.02772512 -0.03743082 0.00344355
v 0.03549607 -0.03023729 0.00360005
v 0.03588103 -0.02962390 0.00404001
v 0.02796448 -0.03739287 0.00390838
v 0.04118638 -0.02155638 0.00410605
v 0.04138200 -0.02136436 0.00363919
v 0.04482322 -0.01215105 0.00399294
v 0.04619325 -0.00411780 0.00423937
v 0.04644648 -0.00115252 0.00377915
v 0.04601393 0.00584669 0.00430512
v 0.04525114 0.00990260 0.00380044
v 0.04312105 0.01726403 0.00432646
v 0.04058007 0.02227785 0.00442272
v 0.04249695 0.01838599 0.00386026
v 0.03818812 0.02611847 0.00393299
v 0.03522531 0.02999907 0.00448506
v 0.03153837 0.03388295 0.00400510
v 0.03330109 0.03242065 0.00446659
v 0.02353132 0.03983622 0.00426348
v 0.01704626 0.04311840 0.00456547
v 0.01832866 0.04257078 0.00417675
v 0.00798713 0.04560886 0.00460972
v -0.00737281 0.04581365 0.00429457
v -0.00994280 0.04529076 0.00478138
v -0.01965304 0.04197197 0.00475402
v -0.02844568 0.03669700 0.00445701
v -0.02855372 0.03655497 0.00495977
v -0.03296617 0.03286997 0.00494663
v -0.03637445 0.02887000 0.00457851
v -0.04113911 0.02189054 0.00503684
v -0.04152207 0.02090042 0.00461222
v -0.04664938 -0.00014918 0.00476159
v -0.04651918 0.00053293 0.00523943
v 0.03035762 -0.03533944 0.01361699
v 0.03320006 -0.03257983 0.01332940
v 0.04614933 -0.00471029 0.01346062
v 0.03666148 0.02816885 0.01321166
v 0.00708135 0.04568368 0.01331690
v 0.00113910 0.04622742 0.01352993
v -0.00386494 0.04607018 0.01332326
v -0.02642103 0.03805049 0.01320942
v -0.04467284 0.01286492 0.01325827
v -0.04617083 0.00576067 0.01348643
v -0.03977677 -0.02440040 0.01353936
v -0.00532667 -0.04635365 0.01335593
v 0.00171654 -0.04663305 0.01349698
v 0.04324717 -0.01846374 0.01397475
v 0.03589287 -0.03073722 0.01398816
v 0.03955586 -0.02443675 0.01350376
v 0.03661728 -0.02860068 0.01335999
v -0.02540353 0.03948389 0.01397917
v -0.01402305 0.04489730 0.01398808
v -0.01717631 0.04300351 0.01345001
v -0.01238356 0.04455287 0.01334945
v -0.00789072 0.04558595 0.01348997
v 0.04690293 -0.00458398 0.01399261
v 0.02504214 -0.03923605 0.01320534
v 0.02525373 -0.03979355 0.01398109
v 0.01541007 -0.04474045 0.01397428
v 0.00700342 -0.04606922 0.01335583
v -0.00021496 -0.04771407 0.01399353
v -0.01232681 -0.04504129 0.01354162
v -0.01724882 -0.04332596 0.01334832
v -0.02202913 -0.04114062 0.01323075
v -0.02808330 -0.03727394 0.01335812
v -0.02051404 -0.04264600 0.01397671
v -0.03343736 -0.03255534 0.01344721
v -0.03679668 -0.02862289 0.01335888
v -0.03281170 -0.03455807 0.01399359
v -0.04220985 -0.01970918 0.01334929
v -0.04416380 -0.01490097 0.01333663
v -0.04588890 -0.00797410 0.01335270
v -0.04296929 -0.01991935 0.01398333
v -0.04556824 -0.01175080 0.01389179
v -0.04654284 -0.00088562 0.01336739
v -0.04756668 -0.01394894 0.01400953
v -0.04715285 -0.00218856 0.01398300
v -0.04572138 0.01137989 0.01397262
v -0.04221984 0.01935709 0.01322162
v -0.03976253 0.02392085 0.01348710
v -0.04243725 0.02027213 0.01398002
v -0.03675094 0.02831409 0.01322244
v -0.03185505 0.03370064 0.01336302
v -0.03506900 0.03142063 0.01396481
v -0.02194875 0.04073478 0.01321858
v 0.01129629 0.04482921 0.01352965
v 0.00087997 0.04717624 0.01399370
v 0.01701906 0.04298695 0.01348690
v 0.02179019 0.04072007 0.01334666
v 0.02629770 0.03800870 0.01323033
v 0.03194485 0.03342667 0.01335997
v 0.01798691 0.04358540 0.01399594
v 0.02800648 0.03754852 0.01397570
v 0.03955268 0.02390445 0.01322145
v 0.03602625 0.02996777 0.01397646
v 0.04167395 0.02114692 0.01385315
v 0.04205823 0.01928401 0.01322786
v 0.04455158 0.01256627 0.01331269
v 0.04597027 0.00557370 0.01319105
v 0.04490317 0.01376864 0.01398192
v 0.04632576 0.00057244 0.01338104
v 0.04654164 0.00462734 0.01384621
v 0.04499340 -0.01145382 0.01354077
v 0.04278621 -0.01802624 0.01323571
v 0.01878803 -0.04263693 0.01335760
v 0.01217824 -0.04498787 0.01322366
v 0.04319467 -0.02528824 0.01471612
v 0.04551809 -0.02068464 0.01480638
v 0.04685416 -0.01732945 0.01438558
v 0.04788158 -0.01430815 0.01482158
v 0.04885365 -0.01039405 0.01467262
v 0.04956002 -0.00615173 0.01483330
v 0.04993155 -0.00051912 0.01467897
v 0.04005480 -0.03001267 0.01468643
v 0.03733555 -0.03335684 0.01467896
v 0.03363303 -0.03716627 0.01471856
v 0.02929796 -0.04064609 0.01479033
v 0.02590507 -0.04291973 0.01468683
v 0.02268780 -0.04468675 0.01437084
v 0.01994439 -0.04601601 0.01468112
v 0.01505957 -0.04788127 0.01467896
v 0.00958786 -0.04926850 0.01483332
v 0.00551052 -0.04987498 0.01439232
v 0.00012239 -0.05024460 0.01476404
v -0.00547041 -0.04991482 0.01467389
v -0.01063035 -0.04911741 0.01469485
v -0.01604722 -0.04760231 0.01482776
v -0.01989029 -0.04611003 0.01439360
v -0.02483039 -0.04370513 0.01471856
v -0.02947961 -0.04065749 0.01479033
v -0.03269047 -0.03813323 0.01468682
v -0.03536519 -0.03561945 0.01437084
v -0.03747710 -0.03342114 0.01468112
v -0.04072885 -0.02939582 0.01470578
v -0.04376853 -0.02457687 0.01468966
v -0.04567547 -0.02075833 0.01453784
v -0.04761323 -0.01590421 0.01472394
v -0.04903871 -0.01045507 0.01467389
v -0.04987483 -0.00530130 0.01469483
v -0.05010781 0.00031857 0.01482777
v -0.04979707 0.00549903 0.01464903
v -0.04881273 0.01113081 0.01483547
v -0.04765752 0.01522207 0.01466463
v -0.04584056 0.02009113 0.01470738
v -0.04318804 0.02515489 0.01437214
v -0.04041945 0.02941849 0.01470579
v -0.03677565 0.03379855 0.01468967
v -0.03307839 0.03740226 0.01463716
v -0.02854140 0.04093690 0.01483199
v -0.02497358 0.04317466 0.01467388
v -0.02037828 0.04554107 0.01471612
v -0.01506103 0.04751769 0.01468644
v -0.01001800 0.04882978 0.01465971
v -0.00437386 0.04962839 0.01469084
v 0.00007311 0.04979276 0.01446948
v 0.00506583 0.04957233 0.01470738
v 0.01062319 0.04864418 0.01481866
v 0.01564446 0.04728762 0.01466277
v 0.02090561 0.04518795 0.01483332
v 0.02472201 0.04320520 0.01467262
v 0.02915358 0.04040066 0.01471523
v 0.03347823 0.03685291 0.01480638
v 0.03713851 0.03322065 0.01471612
v 0.04066147 0.02877449 0.01468644
v 0.04300162 0.02515498 0.01467897
v 0.04548042 0.02045661 0.01471855
v 0.04745038 0.01525823 0.01479032
v 0.04882971 0.01027687 0.01458353
v 0.04966707 0.00470306 0.01468113
v -0.00025964 -0.04966624 0.01401915
v -0.00988431 -0.04864961 0.01400933
v -0.02422340 -0.04332442 0.01401002
v -0.03028967 -0.03933626 0.01401207
v -0.04173970 -0.02681847 0.01401394
v -0.04962042 -0.00189483 0.01401874
v -0.04805119 0.01175579 0.01401388
v -0.04526359 0.01984082 0.01400993
v -0.03746357 0.03213148 0.01400991
v -0.02986234 0.03943702 0.01402936
v -0.01835766 0.04570768 0.01401262
v -0.00918308 0.04844448 0.01401909
v 0.00883719 0.04845553 0.01399946
v 0.02070215 0.04461366 0.01401283
v 0.02763234 0.04071598 0.01401948
v 0.03661253 0.03307853 0.01401880
v 0.04392979 0.02221651 0.01401280
v 0.04697603 0.01487230 0.01401944
v 0.04931003 0.00096926 0.01400816
v 0.04869079 -0.00802199 0.01400996
v 0.04289689 -0.02483167 0.01401866
v 0.03437648 -0.03561171 0.01401381
v 0.02775055 -0.04101800 0.01400988
v 0.01464875 -0.04736161 0.01400984
v 0.04737657 -0.00021233 0.01077402
v 0.04630964 -0.00020383 0.01021239
v 0.04631867 -0.00022102 0.01186129
v 0.04435310 0.01627836 0.00098465
v 0.04020726 0.02460681 0.00076372
v 0.03609152 0.03032801 0.00101875
v 0.03011658 0.03636500 0.00133032
v 0.02061373 0.04237705 0.00095484
v -0.00392931 0.04701020 0.00148595
v -0.03699208 0.02942487 0.00206642
v -0.04192414 0.02063272 0.00262699
v -0.03103597 -0.03601572 0.00241772
v -0.02840924 -0.03772794 0.00161708
v -0.01558400 -0.04455116 0.00169948
v -0.01764564 0.04295822 0.00279520
v -0.02455168 0.03934640 0.00290069
v -0.02599254 0.03939966 0.00341021
v -0.03384635 0.03280849 0.00335431
v -0.03744791 0.02752298 0.00298707
v -0.03958142 0.02546231 0.00322897
v -0.04427172 0.01450420 0.00306661
v -0.04410156 0.01721222 0.00374799
v -0.02230597 -0.04191829 0.00402390
v -0.01376470 -0.04552985 0.00453245
v -0.00676551 -0.04707531 0.00447060
v -0.00020159 -0.04752816 0.00448070
v 0.00659585 -0.04683295 0.00393606
v 0.01519981 -0.04508463 0.00480337
v 0.02214912 -0.04175294 0.00407320
v 0.02970745 -0.03691217 0.00427945
v 0.03537719 -0.03164385 0.00496808
v 0.03636478 -0.02982805 0.00408459
v 0.03937810 -0.02644477 0.00473103
v 0.04716606 -0.00438668 0.00514733
v 0.04600273 -0.00643977 0.00576715
v 0.03217970 0.03437671 0.00496485
v 0.02601217 0.03934831 0.00536654
v 0.02091643 0.04227207 0.00551493
v 0.01373073 0.04503399 0.00503608
v 0.00655089 0.04671651 0.00569628
v -0.00056967 0.04689678 0.00489289
v -0.00895899 0.04632943 0.00538430
v 0.04607872 -0.00535195 0.00616137
v 0.04615556 0.00502250 0.00627794
v 0.01659633 0.04314278 0.00623884
v 0.01870209 0.04301339 0.00671970
v 0.01288067 0.04533892 0.00744289
v 0.00256927 0.04685820 0.00695498
v -0.00166281 0.04638163 0.00672715
v -0.00293695 0.04705147 0.00755973
v -0.00939217 0.04598288 0.00696983
v -0.01381120 0.04421113 0.00644293
v -0.01934386 0.04216886 0.00680290
v -0.01786672 0.04368097 0.00747447
v -0.02455151 0.03984257 0.00698306
v -0.02432439 0.04043950 0.00774908
v -0.03578212 0.03075465 0.00797442
v -0.03924826 -0.02638671 0.00871902
v -0.03428122 -0.03263536 0.00882302
v -0.03895883 -0.02679797 0.00763244
v -0.03258895 -0.03447415 0.00786391
v -0.02475296 -0.04033862 0.00772636
v -0.01386991 -0.04527088 0.00789653
v -0.00484511 -0.04702934 0.00783464
v -0.01201635 -0.04605189 0.00845725
v 0.00458475 -0.04718318 0.00804108
v 0.01093453 -0.04623013 0.00865734
v 0.01347687 -0.04487782 0.00779557
v 0.02223262 -0.04148260 0.00795000
v 0.02849308 -0.03784022 0.00829839
v 0.03344834 -0.03285177 0.00797042
v 0.03464495 -0.03250792 0.00883490
v 0.03950786 -0.02589828 0.00825054
v 0.04284783 -0.01814798 0.00804578
v 0.04498839 -0.01489001 0.00877747
v 0.04599024 -0.00945647 0.00822865
v 0.04715458 0.00396424 0.00900914
v 0.04695760 0.00008292 0.00834923
v 0.04595257 0.00903947 0.00834163
v 0.00505200 0.04599641 0.00850083
v -0.00234522 0.04688018 0.00889263
v -0.00398733 0.04611449 0.00877562
v -0.04292166 0.01790418 0.00900928
v -0.04564753 0.01242836 0.01000739
v -0.04584471 0.01045788 0.00930468
v -0.04722447 -0.00025257 0.00944486
v -0.04631087 -0.00585642 0.00924861
v -0.04616455 -0.01018770 0.00960224
v -0.04350350 -0.01704061 0.00931688
v -0.04384172 -0.01819880 0.01006974
v -0.04057837 -0.02418900 0.00960301
v 0.02894559 -0.03735910 0.01135414
v 0.02729913 -0.03869402 0.01027333
v 0.03300216 -0.03383700 0.01017912
v 0.02296167 -0.04078259 0.00986061
v 0.03387273 -0.03206581 0.00998427
v 0.04084762 -0.02235315 0.01000668
v 0.04502859 -0.01398085 0.01034660
v 0.04696650 -0.00589394 0.01072444
v 0.03335495 0.03224983 0.00040181
v -0.01406680 0.04457151 0.00087294
v -0.00655178 0.04586309 0.00069306
v -0.01611041 0.04340565 0.00085597
v -0.02877916 0.03712056 0.00233140
v -0.02455568 0.03938360 0.00085222
v -0.02378721 0.04074955 0.00131438
v -0.02713440 0.03770001 0.00244991
v -0.04190692 0.02191091 0.00177113
v -0.04601669 -0.01058438 0.00261925
v -0.04168554 -0.02228522 0.00165433
v -0.03629335 -0.03026791 0.00161816
v -0.03806335 -0.02694237 0.00142167
v -0.00471286 -0.04713007 0.00189229
v -0.00808326 -0.04684530 0.00239528
v 0.02198364 -0.04182643 0.00200952
v 0.01692263 -0.04437136 0.00241756
v 0.04671075 -0.00462128 0.00223633
v 0.04521193 -0.01395547 0.00253608
v 0.03983542 0.02476235 0.00386477
v 0.02651202 0.03858400 0.00399002
v 0.01151507 0.04568422 0.00335546
v 0.01831066 0.04347870 0.00325736
v 0.01288339 0.04444662 0.00256349
v -0.00587003 0.04650400 0.00285256
v 0.04271192 -0.01991284 0.00418107
v 0.04603525 -0.01026789 0.00433862
v 0.04683627 -0.00141185 0.00425680
v 0.04717521 0.00369040 0.00523409
v 0.04582664 0.01051275 0.00570263
v 0.04422788 0.01650961 0.00485134
v 0.04039107 0.02262897 0.00591579
v 0.04254603 0.01998177 0.00575409
v -0.01851140 0.04315127 0.00506869
v -0.03486638 0.03188967 0.00547960
v -0.03466997 0.03179004 0.00635343
v -0.03635856 0.02890227 0.00657021
v -0.04000031 0.02518321 0.00592772
v -0.04171129 0.02066211 0.00667481
v -0.04308496 0.01944390 0.00590687
v -0.04478671 0.01432876 0.00532113
v -0.04598577 0.00771500 0.00675869
v -0.04714279 0.00071087 0.00656742
v -0.04704100 -0.00598422 0.00606033
v -0.04096256 -0.02379100 0.00561889
v -0.04516624 -0.01377325 0.00554909
v -0.04351070 -0.01681539 0.00536104
v -0.02692178 -0.03894628 0.00693125
v -0.01928438 -0.04336729 0.00595744
v -0.01119958 -0.04533780 0.00717553
v -0.01823074 -0.04353027 0.00701985
v 0.00388707 -0.04654900 0.00570715
v 0.01199394 -0.04514947 0.00575643
v 0.01165922 -0.04520203 0.00736822
v 0.02668831 -0.03837637 0.00589678
v 0.02667686 -0.03937193 0.00676957
v 0.04225694 -0.01963618 0.00768350
v 0.04701725 0.00469424 0.00736224
v 0.04496100 0.01138714 0.00789659
v 0.04052103 0.02250152 0.00630920
v 0.04361992 0.01796149 0.00680435
v 0.02542455 0.03906639 0.00655528
v -0.04516553 -0.01461269 0.00802181
v -0.04356569 -0.01705736 0.00730083
v -0.04223598 -0.02165849 0.00824365
v 0.03611003 0.03003093 0.00859251
v 0.03977719 0.02536992 0.00896178
v 0.01271118 0.04443340 0.01020236
v -0.00426145 0.04666592 0.01016300
v -0.01678919 0.04370445 0.01030922
v -0.02135198 0.04170283 0.00902327
v -0.04316965 0.01888451 0.00937551
v -0.03758668 0.02812296 0.00910669
v 0.00936368 -0.04660283 0.01027878
v 0.01586788 -0.04447641 0.00995231
v 0.02211638 -0.04207580 0.01081673
v -0.04625224 0.00576247 0.00278941
v -0.04481329 0.01441150 0.00250597
v -0.04369041 0.01594869 0.00263937
v -0.03491579 0.03057239 0.00254546
v 0.00243631 0.04635062 0.00231161
v 0.01237947 0.04456424 0.00221432
v 0.02729505 0.03741175 0.00047469
v -0.03195726 0.03370584 0.00090320
v -0.03816539 0.02648695 0.00102822
v -0.04222236 0.01948770 0.00102532
v -0.01814111 -0.04302672 0.00162731
v 0.03840458 -0.02625389 0.00206391
v 0.03803845 0.02760518 0.00456257
v -0.03246050 -0.03381953 0.00544754
v -0.02948340 -0.03620519 0.00552292
v -0.02009954 -0.04221798 0.00560223
v -0.02655398 -0.03919738 0.00572674
v 0.04350741 0.01589022 0.00637704
v -0.02741250 -0.03780847 0.00754343
v -0.01776467 -0.04325408 0.00761043
v 0.03788590 0.02658612 0.00845782
v 0.04131410 0.02103444 0.00835569
v -0.04085014 -0.02255258 0.00939845
v 0.02159854 -0.04124872 0.00972138
v 0.04603565 -0.00574843 0.01017194
v -0.00534704 -0.04642253 0.01124849
v -0.03430064 -0.03164690 0.01112289
v -0.04476842 0.01259984 0.01067771
v -0.01432871 0.04403965 0.01035329
v -0.00093889 0.04624421 0.01025289
v -0.03676450 0.02850171 0.00859292
v -0.03034277 0.03567040 0.00840627
v -0.03242322 0.03319636 0.00875068
v -0.02524849 0.03888696 0.00845935
v -0.01541583 0.04373953 0.00836481
v 0.00915217 0.04587180 0.00815126
v 0.04489515 -0.01183372 0.00765828
v 0.02691384 -0.03811290 0.00750820
v 0.03256031 -0.03326786 0.00758374
v 0.01908168 -0.04326087 0.00725418
v -0.00025772 -0.04674192 0.00729265
v -0.00577597 -0.04688636 0.00715472
v -0.04327082 -0.01747206 0.00690894
v -0.02900384 0.03619012 0.00678715
v -0.02322873 0.04011045 0.00641480
v 0.03521408 0.03001118 0.00635450
v 0.03756943 0.02811107 0.00586827
v 0.04351385 -0.01627008 0.00561851
v 0.04518302 -0.01283316 0.00562651
v 0.01902078 -0.04262541 0.00545190
v 0.00804976 -0.04605926 0.00536841
v -0.02703038 -0.03822039 0.00510737
v 0.00879081 -0.04651595 0.00320491
v -0.04269501 -0.02032206 0.00270608
v 0.02016585 -0.04275699 0.00329200
v 0.04574301 -0.01093634 0.00358143
v 0.04643146 0.00753065 0.00370292
v 0.04442327 0.01545136 0.00373005
v 0.03309987 0.03322977 0.00389835
v 0.00031598 0.04667735 0.00423012
v -0.01152404 0.04538897 0.00424147
v -0.02123580 0.04189948 0.00425749
v -0.02880447 0.03705534 0.00432301
v -0.04488578 -0.01277810 0.00486959
v -0.04574488 -0.01139327 0.00469757
v -0.04108958 -0.02214088 0.00493276
v -0.04071286 -0.02410663 0.00468420
v -0.03541308 -0.03043035 0.00500087
v -0.02698680 -0.03890338 0.00485348
v -0.01902125 -0.04337707 0.00495543
v -0.00520917 -0.04647588 0.00528105
v -0.01592979 -0.04390533 0.00513849
v -0.00062038 -0.04713854 0.00517013
v 0.02768930 -0.03749487 0.00550308
v 0.03420372 -0.03157399 0.00561489
v 0.03913127 -0.02512351 0.00555946
v 0.04094459 -0.02342040 0.00548494
v 0.04634085 0.00147509 0.00579740
v 0.04478166 0.01218433 0.00583289
v 0.03137687 0.03401014 0.00602040
v 0.02327158 0.03997531 0.00637785
v 0.02595547 0.03880926 0.00603256
v 0.00997817 0.04515054 0.00622735
v 0.00325636 0.04613774 0.00627839
v -0.00543858 0.04603536 0.00635634
v -0.01463738 0.04450598 0.00625886
v -0.04424579 0.01422327 0.00673199
v -0.04575311 -0.00894405 0.00685808
v -0.04653140 -0.00015015 0.00689434
v -0.03896595 -0.02564951 0.00696305
v -0.03317021 -0.03293761 0.00704533
v -0.02265580 -0.04097323 0.00711922
v 0.02281310 -0.04065128 0.00781816
v 0.03808809 -0.02674663 0.00762281
v 0.04618821 -0.00431562 0.00776634
v 0.04627079 0.00306351 0.00781312
v 0.04105570 0.02151207 0.00797146
v 0.03520266 0.03010558 0.00796396
v 0.03101103 0.03436160 0.00811251
v 0.02393199 0.03967475 0.00817438
v 0.01382040 0.04424489 0.00822618
v -0.00481633 0.04603890 0.00829378
v -0.00681105 0.04636005 0.00819152
v -0.04285022 0.01945417 0.00846722
v -0.04472567 0.01302772 0.00868942
v -0.04602190 -0.00770903 0.00885098
v -0.04653616 -0.00211235 0.00877818
v -0.04605936 0.00696359 0.00908162
v -0.04692185 0.00529923 0.00849832
v -0.04201977 -0.02055145 0.00889417
v -0.03621948 -0.02936200 0.00927807
v -0.02863712 -0.03697839 0.00910554
v -0.01956879 -0.04238758 0.00930406
v -0.02232249 -0.04169829 0.00897488
v -0.01277555 -0.04493401 0.00922144
v -0.00492750 -0.04638568 0.00963789
v 0.00027285 -0.04676684 0.00931476
v 0.01192177 -0.04521321 0.00941382
v 0.02375535 -0.04067471 0.00936254
v 0.02810938 -0.03715620 0.00945194
v 0.02923989 -0.03707671 0.00933959
v 0.03514230 -0.03054577 0.00956274
v 0.04105653 -0.02198238 0.00965280
v 0.04500725 -0.01148542 0.00969426
v 0.04613050 -0.00624712 0.00974959
v 0.04603083 0.00496194 0.00976269
v 0.04639999 0.00680360 0.00976068
v 0.04470041 0.01218988 0.00982426
v 0.04144005 0.02060702 0.00988515
v 0.04303049 0.01889266 0.00976743
v 0.03749329 0.02706471 0.01004581
v 0.03347860 0.03187716 0.00998066
v 0.02689608 0.03764316 0.01004684
v 0.03251710 0.03355112 0.00997448
v 0.02281049 0.04070738 0.01007130
v 0.01939369 0.04194389 0.01011538
v 0.00658549 0.04574847 0.01020653
v 0.00571860 0.04656943 0.01007327
v -0.00746509 0.04563678 0.01035578
v -0.02223049 0.04062618 0.01041035
v -0.02917377 0.03605627 0.01046908
v -0.03341686 0.03222296 0.01060929
v -0.03901735 0.02521780 0.01064978
v -0.04237995 0.01896773 0.01061896
v -0.04620177 0.00530278 0.01075258
v -0.04652285 -0.00035664 0.01075688
v -0.04580844 -0.00866347 0.01090244
v -0.04310592 -0.01785591 0.01089156
v -0.04326438 -0.01871459 0.01075213
v -0.03882632 -0.02697545 0.01079557
v -0.03908977 -0.02542829 0.01092537
v -0.02844325 -0.03705236 0.01107174
v -0.02248258 -0.04086150 0.01108511
v -0.01579281 -0.04395846 0.01117484
v 0.00358722 -0.04649030 0.01126527
v 0.01202820 -0.04506760 0.01134343
v 0.01499752 -0.04487130 0.01124530
v 0.02033218 -0.04191093 0.01138155
v 0.02769519 -0.03746365 0.01143002
v 0.03495550 -0.03071944 0.01150421
v 0.03750251 -0.02862868 0.01145849
v 0.04152346 -0.02226570 0.01152738
v 0.04115150 -0.02171495 0.01157710
v 0.04487444 -0.01202106 0.01174113
v 0.04611915 -0.00453437 0.01170948
v 0.04432080 -0.01392795 0.01012731
v 0.01466641 -0.04430364 0.00985390
v 0.00479697 -0.04654666 0.00969403
v -0.01024004 -0.04563620 0.00960813
v -0.02466828 -0.03968940 0.00948398
v -0.01690515 -0.04415867 0.00977350
v -0.03134737 -0.03466283 0.00946890
v -0.03840320 0.02611516 0.00905187
v -0.02452853 0.03933703 0.00892762
v -0.02920593 0.03658192 0.00903767
v -0.01394565 0.04429766 0.00877763
v 0.00808921 0.04619513 0.00883043
v 0.01494818 0.04378264 0.00862448
v 0.01921214 0.04285677 0.00874608
v 0.02377520 0.03968558 0.00857827
v 0.02875048 0.03693752 0.00859792
v 0.04492287 0.01134940 0.00835063
v 0.04634669 0.00176160 0.00828080
v 0.04569737 -0.00843035 0.00815060
v 0.03785404 -0.02704820 0.00805997
v 0.00130374 -0.04674213 0.00772206
v -0.00820239 -0.04593193 0.00769512
v -0.03539693 -0.03053127 0.00744390
v -0.04154408 -0.02124519 0.00739180
v -0.04616209 -0.00639241 0.00728340
v -0.04572436 0.00865190 0.00716800
v -0.04088215 0.02225951 0.00702071
v -0.03496207 0.03050414 0.00699509
v -0.03389803 0.03260664 0.00718913
v 0.00953276 0.04580211 0.00678011
v 0.03703475 0.02847541 0.00647960
v 0.03165662 0.03444183 0.00656958
v 0.04476853 -0.01230096 0.00618230
v 0.04095694 -0.02208445 0.00610889
v 0.04026135 -0.02444639 0.00612007
v 0.03285371 -0.03359403 0.00600489
v 0.02312962 -0.04046854 0.00592160
v -0.00292339 -0.04708499 0.00579964
v -0.01034406 -0.04562398 0.00560280
v -0.03918829 -0.02534038 0.00541245
v -0.04602869 -0.00740724 0.00528007
v -0.02703574 0.03833193 0.00504180
v 0.02643584 0.03856511 0.00460043
v -0.02853518 -0.03767301 0.00368631
v -0.04392059 -0.01752887 0.00353124
v -0.04704050 -0.00396139 0.00345075
v -0.04096107 0.02194851 0.00307999
v -0.03110394 0.03439991 0.00293466
v -0.00531484 0.04603396 0.00278488
v 0.00522142 0.04595724 0.00271832
v 0.02021195 0.04158679 0.00257671
v 0.02460621 0.03994981 0.00269503
v 0.03131269 0.03490302 0.00258944
v 0.02807793 0.03677102 0.00255515
v 0.03578635 0.02941565 0.00246451
v 0.04175521 0.02017928 0.00230759
v 0.04458646 0.01263574 0.00227801
v 0.04598884 0.00580814 0.00230600
v 0.04561691 -0.00873316 0.00221511
v 0.04632988 -0.00020817 0.00178267
v 0.04257321 -0.01857180 0.00213394
v 0.04362053 -0.01674833 0.00213116
v 0.03930440 -0.02601528 0.00214229
v 0.03353507 -0.03226048 0.00192474
v 0.02694465 -0.03800518 0.00195701
v 0.01850170 -0.04280237 0.00188970
v 0.02887985 -0.03749645 0.00211845
v 0.01143779 -0.04581738 0.00190825
v 0.01184864 -0.04506941 0.00183089
v 0.00402129 -0.04649534 0.00178340
v 0.00479906 -0.04708734 0.00191171
v -0.00275268 -0.04655939 0.00172182
v -0.00943350 -0.04569766 0.00168929
v -0.02609462 -0.03870282 0.00155609
v -0.03292153 -0.03311590 0.00149440
v -0.04211804 -0.02000085 0.00136486
v -0.04503535 -0.01209441 0.00133044
v -0.04531373 -0.01313477 0.00150601
v -0.04643302 -0.00358917 0.00123845
v -0.04629526 0.00470199 0.00121370
v -0.04680723 0.00497325 0.00137195
v -0.04533620 0.01040383 0.00110044
v 0.00104507 0.04627001 0.00075002
v 0.00284774 0.04667490 0.00080193
v 0.01099202 0.04501942 0.00059692
v 0.02071556 0.04134589 0.00057334
v 0.03839500 0.02597533 0.00042749
v 0.04285737 0.01791872 0.00031556
v 0.04593981 0.00631257 0.00028215
v 0.04629726 -0.00020886 0.00002316
v 0.04580387 0.00765312 0.00187368
v 0.04437079 0.01333560 0.00182391
v 0.04337267 0.01764135 0.00182166
v 0.04083251 0.02178803 0.00189635
v 0.03624541 0.02988228 0.00183983
v 0.03614423 0.02885116 0.00194947
v 0.03021845 0.03499545 0.00200712
v 0.03148495 0.03420904 0.00201502
v 0.02193599 0.04080891 0.00214676
v -0.00378998 0.04615092 0.00227426
v -0.01525502 0.04386408 0.00240989
v 0.04642806 -0.00844011 0.01146938
v 0.03896437 -0.02694806 0.01041943
v -0.03655554 -0.03009231 0.00971986
v -0.03181767 -0.03533440 0.01049218
v -0.04602102 -0.01088984 0.01043979
v -0.04704246 -0.00405582 0.01051851
v -0.04704396 0.00455397 0.01041596
v 0.03307433 0.03364263 0.00931333
v 0.03819329 0.02752611 0.00964141
v 0.04309819 0.01878493 0.00855987
v 0.04536193 0.01338031 0.00908187
v 0.04674906 -0.00783136 0.00908602
v 0.04716828 -0.00173553 0.00940789
v 0.04365427 -0.01767139 0.00949869
v 0.02305385 -0.04152771 0.00869290
v 0.01656591 -0.04456370 0.00880211
v 0.00297191 -0.04749257 0.00868295
v -0.00636077 -0.04688733 0.00905056
v -0.02831788 -0.03802654 0.00863519
v -0.02955655 0.03682645 0.00774998
v -0.01861819 0.04304592 0.00821031
v 0.00435374 0.04690915 0.00772056
v -0.02505304 0.03956770 0.00636297
v -0.02906963 0.03709512 0.00595577
v -0.02383487 0.04073297 0.00569116
v -0.01611147 0.04430067 0.00570991
v -0.00116356 0.04704754 0.00586298
v 0.03293946 0.03364138 0.00570857
v 0.04120706 0.02303719 0.00517597
v 0.04450556 -0.01631928 0.00499725
v 0.02998812 -0.03666847 0.00509440
v 0.02315725 -0.04142975 0.00495152
v 0.00877692 -0.04666435 0.00495241
v -0.04680473 0.00599337 0.00341007
v -0.04725564 -0.00070250 0.00447707
v -0.04623477 0.00942703 0.00448273
v -0.04159557 0.02230893 0.00430555
v -0.03447729 0.03214232 0.00424248
v -0.01598800 -0.04477504 0.00241025
v -0.01391470 -0.04515905 0.00306013
v -0.02305555 -0.04160433 0.00248496
v -0.01368600 0.04516306 0.00156596
v -0.00668408 0.04630778 0.00224893
v 0.00527800 0.04686408 0.00149997
v 0.01175727 0.04566872 0.00166344
v 0.02562046 0.03938279 0.00184060
v 0.04120174 0.02263459 0.00170534
v 0.04580674 0.01135671 0.00137466
v 0.04579959 0.01015730 0.00037536
v 0.04715903 -0.00018005 0.00048273
v 0.04706265 0.00459096 0.00115045
v 0.04699375 -0.00019078 0.00166081
v 0.04404833 -0.01761434 0.01100550
v 0.03316394 -0.03375653 0.01117565
v 0.00653720 -0.04664525 0.01125190
v -0.00233331 -0.04732836 0.01004873
v -0.01008530 -0.04642609 0.01021179
v -0.00728948 -0.04681171 0.01097045
v 0.00121928 -0.04752338 0.01073312
v -0.01539907 -0.04481916 0.01081670
v -0.02333849 -0.04116975 0.01092145
v -0.02070285 -0.04275619 0.01030188
v -0.02680313 -0.03912051 0.00998660
v -0.04391713 0.01711062 0.01046671
v -0.03909145 0.02659587 0.00993357
v -0.03322869 0.03357223 0.00978295
v -0.02651026 0.03901469 0.00950322
v -0.02767008 0.03792106 0.01028719
v -0.01887730 0.04327457 0.00975552
v -0.01034179 0.04601620 0.00967772
v 0.00015483 0.04712550 0.00948070
v 0.01289580 0.04532537 0.00963129
v 0.01968546 0.04282257 0.00954614
v 0.02711728 0.03862931 0.00945069
v 0.04230628 -0.02123543 0.00859207
v 0.03959884 -0.02593738 0.00918619
v -0.01966867 -0.04326288 0.00840687
v -0.04508770 -0.01410357 0.00865196
v -0.04706228 -0.00511812 0.00833816
v -0.04669219 -0.00678994 0.00751005
v -0.04721370 0.00033177 0.00747872
v -0.04631705 0.00906738 0.00747723
v -0.04525642 0.01383677 0.00764872
v -0.04024251 0.02454265 0.00823303
v -0.04097212 0.02347146 0.00735022
v -0.01129787 0.04555113 0.00814522
v 0.01919415 0.04293926 0.00774184
v 0.02477544 0.04009439 0.00740734
v 0.03060201 0.03593452 0.00734224
v 0.03626699 0.03003410 0.00778328
v 0.03641911 0.03000960 0.00726977
v 0.03974065 0.02542532 0.00706192
v 0.04323971 0.01892619 0.00749974
v 0.04508072 0.01260213 0.00637036
v 0.04717844 0.00140594 0.00648165
v 0.04619604 0.01020539 0.00723458
v 0.04698686 -0.00510136 0.00732238
v 0.04472642 -0.01477395 0.00623993
v 0.04628556 -0.00966801 0.00653247
v 0.04525203 -0.01356390 0.00741610
v 0.04262379 -0.02069384 0.00694036
v 0.03908731 -0.02692299 0.00687520
v 0.03515211 -0.03165831 0.00723524
v 0.03310303 -0.03403173 0.00663382
v 0.02039648 -0.04265457 0.00606405
v 0.01594929 -0.04473473 0.00639127
v 0.00921633 -0.04649372 0.00705122
v 0.00856037 -0.04665745 0.00623660
v 0.00229105 -0.04747755 0.00653246
v -0.00538389 -0.04725683 0.00651354
v -0.01302675 -0.04572093 0.00654624
v -0.03099894 -0.03598938 0.00633934
v -0.03635085 -0.03060983 0.00639733
v -0.04283046 -0.02043099 0.00616024
v -0.04150710 -0.02253326 0.00672722
v -0.04719249 -0.00010530 0.00543461
v -0.04567650 -0.01271974 0.00629511
v -0.04684424 0.00665641 0.00588908
v -0.04558491 0.01267501 0.00601230
v 0.01535204 0.04441657 0.00581668
v 0.04615613 0.00913065 0.00444033
v -0.03318551 -0.03374829 0.00374948
v -0.03839014 -0.02796161 0.00396624
v -0.03407253 -0.03290010 0.00473308
v -0.04399975 -0.01740569 0.00446727
v -0.04652164 -0.00901283 0.00402822
v -0.01444395 0.04492896 0.00346229
v -0.00391982 0.04700600 0.00359223
v 0.00689765 0.04636240 0.00282917
v 0.00384138 0.04699155 0.00364913
v 0.01259473 0.04510772 0.00404916
v 0.02631129 0.03920622 0.00332875
v 0.03905185 0.02555475 0.00245383
v 0.03699397 0.02937292 0.00304653
v 0.04139735 0.02279416 0.00306461
v 0.04523111 0.01354091 0.00277388
v 0.04658375 0.00618050 0.00238479
v 0.04728961 0.00190292 0.00310131
v 0.04710029 -0.00512489 0.00319182
v 0.04349521 -0.01901684 0.00285814
v 0.04039807 -0.02455881 0.00326389
v 0.03654671 -0.03026059 0.00265497
v 0.03323836 -0.03365233 0.00333760
v 0.02675070 -0.03914816 0.00304701
v -0.00190196 -0.04732476 0.00310304
v -0.03766206 -0.02898727 0.00239775
v -0.04696207 -0.00545659 0.00154301
v -0.04436347 -0.01676004 0.00215687
v -0.04742678 -0.00068341 0.00223109
v -0.04444257 0.01567580 0.00145195
v -0.04623447 0.01015134 0.00195743
v -0.03777372 0.02811739 0.00135474
v -0.03125212 0.03536251 0.00174197
v -0.02045992 0.04224382 0.00222177
v 0.01857122 0.04299688 0.00197342
v 0.01296223 0.03908525 0.01253169
v 0.03488265 0.02199769 0.01231688
v 0.04132009 -0.00066647 0.01239953
v 0.03501091 -0.02215267 0.01225702
v 0.03222806 -0.02613147 0.01225736
v 0.01756684 -0.03765117 0.01225673
v 0.01309208 -0.03948723 0.01225745
v 0.00448354 -0.04135564 0.01225158
v -0.00050309 -0.04163025 0.01236644
v -0.00548117 -0.04125726 0.01225723
v -0.01029709 -0.04036292 0.01236680
v -0.02761835 -0.03117087 0.01243107
v -0.03966620 -0.01239021 0.01252664
v -0.04085106 -0.00770711 0.01235706
v -0.03997773 0.01092718 0.01252557
v -0.03845149 0.01548789 0.01235563
v -0.02765878 0.03068952 0.01265959
v -0.02385473 0.03375157 0.01226035
v -0.00175700 0.04120364 0.01222513
v 0.03781847 0.01213793 0.01399954
v 0.03191316 0.02378872 0.01399853
v 0.01113171 0.03827534 0.01399848
v 0.02118560 0.03365162 0.01399901
v 0.02861392 0.02887774 0.01344620
v -0.00166343 0.04084397 0.01320311
v -0.00000855 0.03990458 0.01399852
v -0.02438855 0.03143367 0.01399941
v -0.02998174 0.02656299 0.01399613
v -0.03483809 0.02132032 0.01344621
v -0.03787329 0.01539002 0.01344621
v -0.02530520 -0.03103301 0.01399860
v -0.01557956 -0.03709312 0.01399666
v -0.01015570 -0.03981064 0.01344621
v -0.00159837 -0.04121471 0.01332337
v 0.02474785 0.03288412 0.01283499
v -0.03382838 -0.02184709 0.01399899
v -0.01931499 -0.03639148 0.01331970
v -0.01503112 -0.03880320 0.01267577
v -0.04128009 0.00401064 0.01229710
v -0.04083672 0.00716672 0.01253544
v -0.02531013 -0.03250053 0.01335584
v 0.01735842 0.03737102 0.01231791
v 0.01762557 0.03674196 0.01331970
v -0.01034084 0.03991171 0.01253320
v -0.00660341 0.04068257 0.01265937
v -0.01951182 0.03636211 0.01241506
v -0.01518803 0.03839252 0.01236671
v -0.01768770 0.03668534 0.01344621
v -0.01090172 0.03898196 0.01365910
v -0.02368845 0.03330211 0.01331969
v -0.03039397 0.02801401 0.01253445
v -0.01620047 0.03622199 0.01399860
v -0.03241829 0.02564432 0.01268294
v -0.03422905 0.02324894 0.01224203
v -0.03619605 0.02006487 0.01241591
v -0.04152986 -0.00110775 0.01225246
v -0.03645890 0.01604275 0.01399860
v -0.03925354 0.00846720 0.01399393
v -0.04065841 0.00319293 0.01363001
v -0.04106418 -0.00109764 0.01331969
v -0.04030617 -0.00750758 0.01344621
v -0.03835711 -0.01601737 0.01253618
v -0.03966512 -0.00510616 0.01399927
v -0.03813763 -0.01408087 0.01373174
v -0.03600095 -0.02015689 0.01320311
v -0.03617784 -0.02058566 0.01221894
v -0.03352079 -0.02461530 0.01267566
v -0.03112870 -0.02762074 0.01226454
v -0.02997349 -0.02808556 0.01344621
v -0.02373444 -0.03419328 0.01240645
v -0.01949541 -0.03682003 0.01226868
v 0.00820805 -0.04075865 0.01228974
v -0.00450500 -0.03987708 0.01397034
v 0.00827895 -0.04036730 0.01332199
v 0.00455218 -0.03994351 0.01396545
v 0.01621452 -0.03778954 0.01331971
v 0.02134641 -0.03561552 0.01262675
v 0.01386640 -0.03757168 0.01399406
v 0.02521653 -0.03301300 0.01225944
v 0.02881211 -0.02983352 0.01228915
v 0.02124477 -0.03456425 0.01377413
v 0.02740519 -0.03057449 0.01331969
v 0.03114938 -0.02628174 0.01363000
v 0.03394642 -0.02300307 0.01331969
v 0.03689074 -0.01879178 0.01253650
v 0.02752388 -0.02896328 0.01399950
v 0.03892093 -0.01416580 0.01235199
v 0.04022966 -0.00950346 0.01267872
v 0.03577029 -0.01797092 0.01399800
v 0.03844083 -0.01377702 0.01345095
v 0.04096857 -0.00555433 0.01224827
v 0.04066975 -0.00431392 0.01331969
v 0.04107037 0.00415055 0.01253586
v 0.03943377 -0.00661679 0.01399806
v 0.04035814 0.00286740 0.01371335
v 0.03977737 0.00873831 0.01344621
v 0.04027378 0.00916850 0.01233042
v 0.03886473 0.01378903 0.01228908
v 0.03736565 0.01744570 0.01238265
v 0.03779497 0.01509845 0.01344621
v 0.03478511 0.02129485 0.01331970
v 0.03210587 0.02581001 0.01266330
v 0.02868761 0.02960605 0.01234841
v 0.02188736 0.03489510 0.01211359
v 0.00814342 0.03993621 0.01331969
v 0.00803156 0.04043335 0.01226169
v 0.00331515 0.04105216 0.01254340
v 0.00811998 0.00043336 0.01296467
v 0.00729014 0.00341269 0.01298788
v 0.00572954 0.00559975 0.01303794
v 0.00421496 0.00677488 0.01299209
v 0.00214778 0.00771116 0.01301792
v 0.00001336 0.00799560 0.01302386
v -0.00194096 0.00781333 0.01301853
v -0.00445535 0.00676584 0.01282743
v -0.00650428 0.00494287 0.01282536
v -0.00784010 0.00254407 0.01282221
v 0.00073714 -0.00957716 0.01399893
v 0.00698949 -0.00608541 0.01399824
v 0.00912662 0.00211082 0.01399906
v 0.00510921 0.00765874 0.01399890
v 0.00006423 0.00917228 0.01399941
v -0.00443951 0.00789941 0.01399749
v -0.00757029 0.00508159 0.01399833
v -0.00919630 0.00144840 0.01399879
v -0.00755524 -0.00598342 0.01399921
v -0.00332397 -0.00898131 0.01399866
v -0.00204942 -0.00819029 0.01302205
v 0.00067647 -0.00838914 0.01302294
v -0.00452324 -0.00712909 0.01301576
v -0.00586059 -0.00604607 0.01299606
v -0.00731171 -0.00413825 0.01300507
v -0.00795744 -0.00256357 0.01299224
v -0.00834508 -0.00020683 0.01331047
v 0.00772596 -0.00277517 0.01328414
v 0.00647038 -0.00513621 0.01283130
v 0.00504244 -0.00658486 0.01302241
v 0.00329490 -0.00771142 0.01328775
v -0.00826888 0.00033820 0.00304150
v -0.00809837 -0.00202065 0.00322319
v -0.00712215 -0.00444104 0.00304207
v -0.00534109 -0.00652963 0.00341523
v -0.00298809 -0.00788955 0.00315835
v -0.00083362 -0.00834451 0.00303224
v 0.00071154 -0.00834152 0.00302496
v 0.00250115 -0.00799699 0.00341337
v 0.00499350 -0.00665301 0.00328130
v 0.00685516 -0.00456732 0.00319323
v 0.00791452 -0.00197025 0.00303462
v 0.00806855 0.00004015 0.00307025
v 0.00777117 0.00215481 0.00329331
v 0.00652430 0.00464550 0.00304392
v 0.00456393 0.00655146 0.00307833
v 0.00203642 0.00773220 0.00329967
v -0.00070156 0.00798200 0.00305700
v -0.00342507 0.00729882 0.00305138
v -0.00535168 0.00606308 0.00303733
v -0.00666834 0.00473559 0.00341868
v -0.00793860 0.00226308 0.00341918
v 0.00599482 0.00010504 0.00338407
v 0.00560426 -0.00247176 0.00326158
v 0.00395820 -0.00478413 0.00307526
v 0.00196678 -0.00598148 0.00330598
v -0.00066079 -0.00628652 0.00307352
v -0.00256818 -0.00578068 0.00338407
v -0.00426656 -0.00465903 0.00331461
v -0.00549378 -0.00307643 0.00305502
v -0.00616475 -0.00091633 0.00325609
v -0.00603346 0.00117468 0.00327195
v -0.00556880 0.00248645 0.00305232
v -0.00471007 0.00379336 0.00338407
v -0.00314029 0.00508882 0.00331461
v -0.00125744 0.00579584 0.00307662
v 0.00018214 0.00587914 0.00338995
v 0.00188775 0.00556804 0.00327379
v 0.00362733 0.00464190 0.00305182
v 0.00536396 0.00259741 0.00336918
v 0.00639831 0.00066459 0.00301719
v -0.00022547 0.04626214 0.00000003
v 0.00250670 0.04153778 0.00000354
v -0.01044140 0.04510964 -0.00000005
v -0.01258183 0.03965412 0.00000298
v -0.01458747 -0.04435349 0.00000034
v -0.01162467 -0.04047222 0.00000449
v -0.00481943 -0.04642672 0.00000020
v -0.01727240 0.04290122 0.00000000
v -0.02435094 0.03942906 0.00000016
v -0.02257780 0.03458686 0.00001681
v 0.02807402 -0.03715044 -0.00000001
v 0.02573330 -0.03311957 0.00000295
v 0.03358619 -0.03210959 0.00000000
v 0.03855679 -0.02597629 0.00000009
v 0.04301356 0.01712535 -0.00000001
v 0.03960765 0.01327079 0.00000129
v 0.03832199 0.02592822 0.00000001
v 0.03441756 0.02271378 0.00002820
v 0.02593938 0.03820166 0.00000000
v 0.02277728 0.03473785 0.00000327
v 0.01915820 0.04208455 0.00000008
v 0.01290156 0.03912018 0.00002209
v 0.00969115 0.04521869 0.00000001
v -0.03703593 0.02787738 0.00000000
v -0.03377395 0.02392677 0.00002833
v -0.04121320 0.02143727 -0.00000001
v -0.04019242 0.01162850 0.00000370
v -0.04489249 0.01215074 -0.00000003
v -0.04651639 0.00206745 -0.00000000
v -0.04184830 -0.00122293 0.00000327
v -0.04589975 -0.00801146 0.00000003
v -0.03996164 -0.01282524 0.00000370
v -0.04317118 -0.01762768 0.00000005
v 0.00487796 -0.04180797 0.00000216
v 0.00505687 -0.04637275 -0.00000002
v 0.01231415 -0.04490854 0.00000000
v 0.01648016 -0.03815296 0.00001361
v 0.01953534 -0.04231322 0.00000000
v -0.02836520 0.03054096 0.00000270
v -0.03225814 0.03333192 0.00000006
v -0.03845894 -0.02641893 0.00000001
v -0.02924053 -0.03027212 0.00000383
v 0.03606007 -0.02120176 0.00000214
v 0.04317982 -0.01711343 0.00000018
v 0.03956231 -0.01323333 0.00000234
v 0.04578959 -0.00748465 0.00000004
v 0.04174161 0.00156268 0.00000061
v 0.03047380 0.02824924 0.00000283
v 0.03187054 0.03351587 -0.00000000
v -0.03197609 -0.03400596 -0.00000000
v -0.02377856 -0.04019353 -0.00000001
v 0.04571809 0.00753102 0.00000006
v 0.04036555 -0.00902672 0.00034441
v 0.04099982 -0.00524430 0.00022438
v 0.03907582 -0.01366656 0.00039195
v 0.03424811 -0.02332665 0.00039213
v 0.03681807 -0.01900211 0.00037925
v 0.03195937 -0.02639913 0.00023295
v 0.02928201 -0.02939523 0.00028772
v 0.02570364 -0.03259992 0.00040169
v 0.02090707 -0.03591799 0.00026089
v 0.01287633 -0.03952120 0.00022959
v 0.00817667 -0.04080721 0.00036565
v 0.00332861 -0.04146177 0.00026510
v -0.00048845 -0.04160974 0.00035086
v -0.00541525 -0.04129320 0.00029267
v -0.01026944 -0.04033964 0.00037810
v -0.01497747 -0.03887698 0.00038711
v -0.01956667 -0.03674243 0.00025882
v -0.02264120 -0.03493774 0.00037937
v -0.02669086 -0.03196743 0.00040796
v -0.03021813 -0.02861857 0.00037672
v -0.03343158 -0.02481339 0.00039307
v -0.03590444 -0.02100098 0.00025959
v -0.03827863 -0.01631509 0.00031324
v -0.03984461 -0.01178950 0.00039030
v -0.04075881 -0.00804912 0.00035026
v -0.04139403 -0.00340539 0.00033687
v -0.04148786 0.00123569 0.00037049
v 0.02497516 0.03275115 0.00037592
v -0.04095005 0.00675124 0.00027993
v -0.03984570 0.01138300 0.00038856
v -0.03862658 0.01497870 0.00037971
v -0.03646961 0.01962681 0.00024453
v -0.03079119 0.02763105 0.00039889
v -0.02651476 0.03170903 0.00033528
v -0.01939377 0.03642994 0.00023146
v -0.01588802 0.03808333 0.00029040
v -0.01099582 0.03976620 0.00041105
v -0.00643949 0.04072171 0.00022594
v -0.00133890 0.04121800 0.00032645
v 0.00333088 0.04105854 0.00038471
v 0.00835890 0.04036918 0.00023978
v 0.01653723 0.03772386 0.00028864
v 0.02092379 0.03549373 0.00033869
v 0.03876172 0.01410975 0.00034577
v 0.02884424 0.02945710 0.00032115
v 0.03195903 0.02599348 0.00039408
v 0.03680589 0.01860046 0.00039747
v 0.04018352 0.00948510 0.00029735
v 0.04128717 -0.00149787 0.00032900
v 0.04114869 0.00364543 0.00032890
v 0.00734337 -0.03832559 0.01403028
v 0.00827176 -0.02802035 0.01400121
v 0.00408527 -0.02519749 0.01400179
v 0.00949510 -0.03557151 0.01400308
v 0.00600192 -0.02575189 0.01400460
v 0.00884541 -0.03720961 0.01413533
f 1 2 3
f 3 2 4
f 1 3 5
f 1 5 6
f 6 5 7
f 6 7 8
f 9 8 10
f 10 8 7
f 9 10 11
f 9 11 12
f 12 11 13
f 12 13 14
f 2 15 16
f 2 1 17
f 2 17 15
f 15 20 16
f 15 18 20
f 20 18 19
f 21 19 22
f 22 19 18
f 21 22 23
f 22 24 23
f 23 24 25
f 14 25 24
f 14 24 26
f 14 26 12
f 26 27 12
f 12 27 9
f 8 9 27
f 8 27 28
f 8 28 6
f 28 1 6
f 28 17 1
f 29 30 31
f 32 26 33
f 33 26 24
f 33 24 34
f 36 35 32
f 35 36 37
f 35 37 38
f 29 31 39
f 29 39 40
f 40 39 41
f 40 41 42
f 44 43 45
f 43 44 46
f 42 41 51
f 27 26 35
f 35 26 32
f 37 52 38
f 49 50 53
f 45 55 51
f 51 55 54
f 43 55 45
f 43 46 56
f 48 56 47
f 47 56 46
f 35 17 28
f 57 52 37
f 30 58 53
f 53 58 49
f 29 58 30
f 51 54 42
f 34 24 22
f 49 60 50
f 50 60 57
f 57 60 52
f 17 59 15
f 35 28 27
f 48 47 34
f 48 34 22
f 48 22 18
f 48 18 15
f 61 62 63
f 102 101 103
f 63 62 114
f 112 113 115
f 112 115 111
f 110 111 116
f 110 116 109
f 108 109 117
f 108 117 118
f 108 118 107
f 105 106 119
f 105 119 104
f 104 119 120
f 104 120 103
f 101 102 121
f 101 121 100
f 100 121 122
f 100 122 99
f 99 122 123
f 99 123 98
f 97 98 96
f 96 98 124
f 96 124 95
f 94 95 125
f 94 125 93
f 92 93 91
f 91 93 126
f 91 126 90
f 89 90 127
f 87 88 128
f 87 128 86
f 82 83 129
f 82 129 81
f 81 129 130
f 81 130 80
f 79 80 131
f 79 131 78
f 77 78 132
f 77 132 76
f 76 132 133
f 75 76 134
f 75 134 74
f 74 134 135
f 74 135 73
f 73 135 136
f 73 136 72
f 71 72 70
f 69 70 137
f 68 69 138
f 68 138 67
f 66 67 139
f 66 139 65
f 64 65 140
f 64 140 61
f 113 114 141
f 113 141 115
f 111 115 142
f 111 142 116
f 109 116 117
f 106 107 143
f 106 143 119
f 95 124 144
f 95 144 125
f 84 85 145
f 80 130 146
f 80 146 131
f 76 133 134
f 69 137 138
f 61 140 62
f 62 147 114
f 114 147 148
f 114 148 141
f 115 141 142
f 116 142 149
f 116 149 117
f 118 117 150
f 118 150 107
f 107 150 143
f 119 143 151
f 119 151 120
f 120 151 152
f 120 152 153
f 120 153 103
f 103 153 102
f 102 153 154
f 102 154 121
f 122 121 155
f 122 155 123
f 98 123 156
f 98 156 124
f 124 156 157
f 124 157 144
f 125 144 158
f 125 158 93
f 93 158 159
f 93 159 160
f 93 160 126
f 126 160 161
f 126 161 90
f 90 161 127
f 89 127 162
f 89 162 88
f 88 162 128
f 128 162 163
f 128 163 86
f 86 163 164
f 86 164 85
f 85 164 145
f 84 145 165
f 84 165 83
f 83 165 129
f 130 129 166
f 130 166 146
f 131 146 167
f 131 167 78
f 78 167 168
f 78 168 132
f 132 168 169
f 132 169 133
f 134 133 170
f 134 170 135
f 135 170 171
f 135 171 136
f 136 171 172
f 136 172 173
f 136 173 72
f 72 173 70
f 70 173 174
f 70 174 137
f 138 137 175
f 138 175 67
f 67 175 176
f 67 176 139
f 139 176 177
f 139 177 65
f 65 177 178
f 65 178 140
f 62 140 147
f 141 148 179
f 117 149 180
f 143 181 151
f 123 155 182
f 123 182 156
f 129 165 166
f 133 169 183
f 133 183 170
f 137 184 175
f 140 178 185
f 140 185 147
f 147 186 148
f 148 186 179
f 141 179 187
f 141 187 142
f 149 142 188
f 149 188 180
f 117 180 150
f 143 150 181
f 151 181 152
f 154 153 189
f 154 189 121
f 121 189 155
f 155 189 182
f 156 182 190
f 156 190 157
f 157 190 191
f 157 191 144
f 127 161 192
f 127 192 162
f 162 192 193
f 162 193 163
f 163 193 194
f 163 194 164
f 164 194 145
f 165 145 195
f 166 165 196
f 166 196 146
f 167 146 197
f 167 197 168
f 168 197 198
f 168 198 169
f 169 198 183
f 170 183 199
f 170 199 171
f 171 199 172
f 173 172 200
f 173 200 174
f 174 200 201
f 174 201 137
f 137 201 184
f 175 184 202
f 175 202 176
f 176 202 203
f 176 203 177
f 177 203 204
f 177 204 178
f 178 204 185
f 147 185 186
f 142 187 188
f 180 188 205
f 144 191 158
f 145 194 195
f 165 195 196
f 146 196 38
f 146 38 197
f 186 40 179
f 179 40 187
f 180 205 150
f 150 205 54
f 150 54 181
f 181 55 152
f 152 55 153
f 153 55 206
f 153 206 189
f 182 189 43
f 182 43 190
f 158 191 48
f 158 48 159
f 159 48 160
f 160 48 207
f 160 207 161
f 161 207 192
f 192 207 59
f 192 59 193
f 193 59 208
f 193 208 194
f 194 208 195
f 197 38 52
f 197 52 198
f 198 52 183
f 183 60 199
f 199 60 209
f 199 209 172
f 172 209 200
f 201 200 58
f 201 58 184
f 202 184 210
f 202 210 203
f 203 210 204
f 204 210 29
f 204 29 185
f 185 40 186
f 187 40 42
f 187 42 188
f 188 42 205
f 181 54 55
f 189 206 43
f 190 43 56
f 190 56 191
f 191 56 48
f 208 35 195
f 195 35 196
f 196 35 38
f 183 52 60
f 209 49 200
f 200 49 58
f 184 58 210
f 185 29 40
f 205 42 54
f 206 55 43
f 207 48 15
f 207 15 59
f 208 59 17
f 208 17 35
f 209 60 49
f 210 58 29
f 100 213 101
f 101 213 214
f 101 214 215
f 101 215 103
f 99 216 217
f 99 217 100
f 100 217 213
f 216 99 98
f 216 98 218
f 218 98 97
f 218 97 219
f 219 97 96
f 219 96 220
f 220 96 95
f 220 95 221
f 221 95 94
f 221 94 222
f 222 94 93
f 222 93 92
f 76 223 77
f 77 223 224
f 77 224 225
f 77 225 78
f 78 225 79
f 79 225 226
f 79 226 80
f 80 226 227
f 80 227 81
f 81 227 228
f 81 228 82
f 82 228 229
f 82 229 83
f 83 229 84
f 84 229 230
f 84 230 231
f 84 231 85
f 85 231 86
f 86 231 232
f 86 232 87
f 87 232 233
f 87 233 88
f 88 233 234
f 88 234 89
f 89 234 235
f 89 235 90
f 90 235 91
f 91 235 236
f 91 236 237
f 91 237 92
f 92 237 222
f 212 238 75
f 75 238 76
f 76 238 223
f 73 239 74
f 74 239 240
f 74 240 212
f 74 212 75
f 239 73 241
f 241 73 72
f 70 211 71
f 241 72 71
f 241 71 242
f 242 71 211
f 211 70 69
f 211 69 243
f 243 69 244
f 245 67 246
f 244 69 68
f 244 68 245
f 245 68 67
f 246 67 66
f 246 66 247
f 247 66 65
f 247 65 248
f 248 65 64
f 248 64 249
f 249 64 61
f 249 61 250
f 250 61 63
f 250 63 251
f 251 63 114
f 251 114 252
f 252 114 113
f 252 113 253
f 253 113 112
f 253 112 254
f 254 112 111
f 254 111 255
f 255 111 110
f 103 215 104
f 104 215 256
f 104 256 105
f 105 256 257
f 105 257 106
f 106 257 258
f 106 258 259
f 106 259 107
f 107 259 108
f 108 259 260
f 108 260 109
f 109 260 261
f 109 261 110
f 110 261 255
f 265 263 266
f 266 263 264
f 267 265 266
f 267 266 250
f 268 265 267
f 268 267 251
f 251 267 250
f 269 270 243
f 243 270 211
f 271 272 242
f 242 272 241
f 274 273 275
f 224 275 225
f 276 277 230
f 230 277 231
f 278 279 222
f 280 281 217
f 217 281 213
f 281 282 214
f 214 282 215
f 284 283 285
f 247 248 264
f 246 247 286
f 286 247 264
f 245 246 286
f 245 286 262
f 244 245 269
f 269 245 262
f 244 269 243
f 270 269 271
f 270 271 242
f 270 242 211
f 241 272 239
f 271 287 272
f 272 287 240
f 272 240 239
f 240 287 212
f 212 287 288
f 212 288 238
f 288 274 238
f 238 274 223
f 274 288 273
f 274 275 223
f 223 275 224
f 226 225 275
f 275 273 226
f 273 289 226
f 226 289 227
f 290 289 273
f 289 228 227
f 289 290 276
f 289 276 228
f 228 276 229
f 229 276 230
f 231 277 232
f 277 291 232
f 232 291 233
f 234 233 291
f 291 292 234
f 291 293 292
f 292 294 234
f 234 294 235
f 292 293 294
f 235 294 236
f 294 278 236
f 236 278 237
f 278 294 293
f 237 278 222
f 221 222 279
f 295 279 278
f 295 278 296
f 279 295 221
f 295 297 221
f 221 297 220
f 220 297 219
f 297 295 298
f 298 295 296
f 298 299 297
f 297 299 218
f 297 218 219
f 218 299 216
f 216 299 280
f 280 299 298
f 216 280 217
f 213 281 214
f 256 215 282
f 282 300 301
f 282 301 256
f 256 301 257
f 257 301 300
f 257 300 258
f 300 284 258
f 258 284 259
f 284 300 283
f 284 285 259
f 259 285 260
f 261 260 285
f 261 285 283
f 261 283 255
f 283 302 303
f 283 303 255
f 255 303 254
f 302 268 303
f 303 253 254
f 303 268 253
f 253 268 252
f 252 268 251
f 263 262 264
f 266 249 250
f 262 286 264
f 266 264 248
f 266 248 249
f 271 304 305
f 271 305 287
f 287 305 306
f 287 306 288
f 288 306 273
f 273 306 307
f 273 307 308
f 273 308 290
f 290 308 309
f 290 309 276
f 276 309 310
f 276 310 277
f 277 310 291
f 300 311 283
f 283 311 312
f 283 312 302
f 302 312 313
f 302 313 268
f 268 313 314
f 268 314 265
f 263 265 315
f 263 315 262
f 262 315 316
f 262 316 269
f 269 316 271
f 271 316 304
f 310 317 291
f 291 317 293
f 278 293 296
f 296 318 298
f 280 298 281
f 281 298 319
f 281 319 282
f 282 319 320
f 282 320 300
f 300 320 311
f 357 383 356
f 354 356 355
f 348 384 349
f 349 384 347
f 329 328 327
f 381 385 379
f 379 385 380
f 380 314 377
f 377 386 378
f 378 313 376
f 376 313 375
f 375 312 374
f 372 387 373
f 373 311 371
f 371 311 370
f 370 388 369
f 369 320 366
f 366 320 367
f 368 389 364
f 364 389 365
f 365 319 363
f 363 390 362
f 362 390 361
f 361 298 359
f 359 391 360
f 358 383 357
f 355 293 352
f 353 392 351
f 351 317 323
f 323 317 350
f 350 393 348
f 348 393 384
f 384 394 347
f 347 394 346
f 346 394 345
f 345 309 343
f 343 309 344
f 344 395 341
f 341 308 342
f 342 396 340
f 340 396 339
f 339 307 338
f 338 306 335
f 335 306 336
f 337 397 334
f 334 397 333
f 333 305 332
f 332 398 330
f 330 398 331
f 331 304 328
f 326 399 325
f 324 315 322
f 322 400 321
f 321 400 382
f 382 265 381
f 385 314 380
f 314 386 377
f 386 313 378
f 313 312 375
f 374 387 372
f 387 311 373
f 311 388 370
f 388 320 369
f 367 389 368
f 389 319 365
f 319 390 363
f 390 298 361
f 298 391 359
f 360 383 358
f 356 293 355
f 352 392 353
f 392 317 351
f 317 393 350
f 394 309 345
f 309 395 344
f 395 308 341
f 308 396 342
f 396 307 339
f 307 306 338
f 336 397 337
f 397 305 333
f 305 398 332
f 398 304 331
f 327 399 326
f 325 315 324
f 315 400 322
f 400 265 382
f 265 385 381
f 374 312 387
f 367 320 389
f 391 318 360
f 360 318 383
f 356 296 293
f 352 293 392
f 393 310 384
f 384 310 394
f 336 306 397
f 328 316 327
f 399 315 325
f 383 296 356
f 328 304 316
f 327 316 399
f 386 314 313
f 387 312 311
f 388 311 320
f 389 320 319
f 390 319 298
f 391 298 318
f 383 318 296
f 392 293 317
f 317 310 393
f 394 310 309
f 395 309 308
f 396 308 307
f 397 306 305
f 398 305 304
f 399 316 315
f 400 315 265
f 385 265 314
f 409 411 410
f 409 410 412
f 409 412 413
f 407 413 408
f 407 414 415
f 407 408 414
f 415 414 416
f 416 414 417
f 416 417 418
f 418 417 419
f 418 419 420
f 420 419 405
f 405 419 406
f 405 406 421
f 405 421 422
f 422 421 423
f 425 426 427
f 425 427 424
f 424 427 423
f 429 428 426
f 429 426 425
f 428 429 430
f 430 432 431
f 431 432 433
f 433 432 434
f 434 435 433
f 436 435 437
f 437 435 434
f 437 438 436
f 436 438 439
f 439 438 440
f 439 440 441
f 441 440 442
f 443 442 444
f 404 445 443
f 443 444 404
f 403 445 404
f 403 404 446
f 403 446 447
f 447 446 448
f 448 449 450
f 452 451 449
f 449 451 450
f 451 452 453
f 453 452 454
f 453 454 402
f 453 402 401
f 402 455 401
f 401 455 456
f 470 471 472
f 458 471 457
f 472 471 473
f 473 471 458
f 474 475 476
f 477 475 478
f 469 484 468
f 486 489 487
f 485 484 489
f 492 496 467
f 494 496 497
f 496 499 497
f 465 501 502
f 500 501 466
f 501 504 502
f 503 507 505
f 503 504 507
f 508 474 476
f 476 475 477
f 478 462 463
f 462 510 461
f 461 510 509
f 509 510 515
f 509 515 511
f 512 516 513
f 518 519 517
f 517 519 520
f 521 523 522
f 459 479 526
f 527 470 472
f 480 481 528
f 481 482 528
f 528 482 529
f 482 484 483
f 483 484 469
f 468 484 485
f 485 489 486
f 487 489 488
f 489 492 488
f 488 492 490
f 491 490 492
f 491 492 467
f 467 496 493
f 493 496 494
f 494 497 495
f 497 498 495
f 498 500 466
f 500 498 497
f 497 499 500
f 466 501 465
f 502 504 503
f 505 507 506
f 474 464 506
f 506 507 474
f 464 474 508
f 462 478 510
f 510 478 475
f 511 515 512
f 512 515 516
f 513 516 514
f 518 460 514
f 516 518 514
f 460 518 517
f 520 519 521
f 519 523 521
f 523 525 522
f 518 523 519
f 522 525 524
f 524 525 459
f 523 479 525
f 525 479 459
f 526 470 527
f 526 479 470
f 457 481 480
f 471 481 457
f 529 482 483
f 359 530 361
f 361 530 531
f 361 531 532
f 361 532 362
f 362 532 533
f 362 533 363
f 363 533 534
f 363 534 365
f 365 534 535
f 365 535 536
f 530 359 537
f 537 359 360
f 537 360 538
f 538 360 358
f 538 358 539
f 539 358 357
f 539 357 540
f 540 357 356
f 540 356 541
f 541 356 354
f 541 354 542
f 542 354 355
f 542 355 543
f 543 355 544
f 544 355 352
f 544 352 353
f 544 353 545
f 545 353 546
f 546 353 351
f 546 351 547
f 547 351 323
f 547 323 548
f 548 323 350
f 548 350 549
f 549 350 348
f 549 348 349
f 549 349 550
f 550 349 551
f 551 349 347
f 551 347 552
f 552 347 346
f 552 346 553
f 553 346 345
f 553 345 554
f 554 345 343
f 554 343 555
f 555 343 344
f 555 344 556
f 556 344 557
f 557 344 341
f 557 341 342
f 557 342 558
f 558 342 559
f 559 342 340
f 559 340 560
f 560 340 339
f 560 339 561
f 561 339 338
f 561 338 562
f 562 338 335
f 562 335 336
f 562 336 563
f 563 336 337
f 563 337 564
f 564 337 334
f 564 334 333
f 564 333 565
f 565 333 566
f 566 333 332
f 566 332 567
f 567 332 330
f 567 330 331
f 567 331 568
f 568 331 569
f 569 331 328
f 569 328 329
f 569 329 570
f 570 329 571
f 571 329 327
f 571 327 326
f 571 326 572
f 572 326 573
f 573 326 325
f 573 325 574
f 574 325 324
f 574 324 322
f 574 322 575
f 575 322 576
f 576 322 321
f 576 321 382
f 576 382 577
f 577 382 578
f 578 382 381
f 578 381 579
f 579 381 379
f 579 379 380
f 579 380 580
f 580 380 581
f 581 380 377
f 581 377 378
f 581 378 582
f 582 378 583
f 583 378 376
f 583 376 584
f 584 376 375
f 584 375 585
f 585 375 374
f 585 374 586
f 586 374 372
f 586 372 373
f 586 373 587
f 587 373 588
f 588 373 371
f 588 371 589
f 589 371 370
f 589 370 590
f 590 370 369
f 590 369 591
f 591 369 366
f 591 366 367
f 591 367 592
f 592 367 368
f 592 368 536
f 536 368 364
f 536 364 365
f 484 593 594
f 484 594 489
f 489 594 595
f 489 595 492
f 492 595 596
f 492 596 597
f 492 597 496
f 496 597 499
f 499 598 500
f 500 598 501
f 501 598 599
f 501 599 600
f 501 600 504
f 504 600 601
f 504 601 507
f 507 601 474
f 474 601 602
f 474 602 603
f 474 603 475
f 475 603 604
f 475 604 510
f 510 604 605
f 510 605 515
f 515 605 606
f 515 606 607
f 515 607 516
f 516 607 608
f 516 608 518
f 518 608 609
f 518 609 523
f 523 609 610
f 523 610 611
f 523 611 479
f 479 611 612
f 479 612 470
f 470 612 613
f 470 613 471
f 471 613 614
f 471 614 481
f 481 614 615
f 481 615 482
f 482 615 616
f 482 616 484
f 484 616 593
f 573 602 572
f 561 499 560
f 594 548 549
f 613 532 531
f 608 607 584
f 608 584 585
f 605 604 578
f 578 604 577
f 577 604 576
f 604 575 576
f 604 603 575
f 575 603 574
f 603 602 574
f 574 602 573
f 571 572 602
f 602 601 570
f 602 570 571
f 570 601 569
f 569 601 568
f 601 600 568
f 568 600 567
f 600 599 566
f 600 566 567
f 566 599 565
f 599 564 565
f 598 564 599
f 564 598 563
f 598 562 563
f 598 499 561
f 598 561 562
f 559 560 499
f 499 597 559
f 559 597 558
f 558 597 557
f 597 555 557
f 557 555 556
f 597 596 555
f 554 555 596
f 554 596 553
f 596 595 552
f 596 552 553
f 551 552 595
f 595 594 551
f 551 594 549
f 551 549 550
f 547 548 593
f 593 548 594
f 546 547 593
f 593 616 546
f 546 616 544
f 546 544 545
f 616 542 543
f 616 543 544
f 616 615 542
f 541 542 615
f 541 615 540
f 615 614 539
f 615 539 540
f 538 539 614
f 614 613 538
f 538 613 537
f 537 613 530
f 530 613 531
f 612 532 613
f 534 533 532
f 534 532 612
f 534 612 535
f 612 611 536
f 612 536 535
f 611 592 536
f 611 591 592
f 610 591 611
f 591 610 590
f 610 589 590
f 610 609 589
f 588 589 609
f 609 608 588
f 588 608 587
f 587 608 586
f 586 608 585
f 583 584 607
f 607 606 583
f 583 606 582
f 606 581 582
f 605 581 606
f 581 605 580
f 605 579 580
f 578 579 605
f 618 619 617
f 711 712 710
f 727 726 728
f 737 738 739
f 760 761 762
f 823 824 825
f 440 736 442
f 408 413 845
f 845 413 412
f 846 423 421
f 849 434 848
f 848 434 432
f 438 850 440
f 446 404 851
f 449 448 853
f 853 448 852
f 852 448 446
f 858 859 857
f 861 863 843
f 868 867 866
f 839 840 651
f 745 870 869
f 872 871 873
f 872 873 661
f 883 882 763
f 883 766 765
f 769 831 884
f 884 831 829
f 822 895 699
f 699 895 896
f 898 899 900
f 903 902 675
f 815 909 910
f 918 917 916
f 918 919 917
f 921 920 919
f 926 927 924
f 929 928 783
f 929 821 928
f 941 818 942
f 948 949 947
f 708 950 949
f 951 950 952
f 953 954 952
f 952 954 951
f 955 954 953
f 790 958 815
f 962 961 904
f 814 902 707
f 699 788 964
f 788 824 964
f 966 965 824
f 696 968 969
f 969 970 971
f 781 890 972
f 781 812 890
f 687 830 976
f 884 685 684
f 977 769 684
f 810 811 678
f 983 878 982
f 985 835 984
f 668 667 665
f 987 837 988
f 987 775 837
f 992 866 991
f 991 866 990
f 992 770 866
f 768 841 993
f 862 994 995
f 762 996 760
f 998 448 450
f 657 445 403
f 431 743 430
f 430 742 428
f 426 428 648
f 413 407 1001
f 409 1002 411
f 1011 1010 1009
f 733 1015 1016
f 733 1016 1014
f 1017 1018 803
f 1019 803 1018
f 1019 1020 803
f 1022 1024 1025
f 1027 1026 1024
f 1024 1026 1025
f 729 1029 1028
f 629 1031 1030
f 727 728 1031
f 1033 1032 1034
f 1036 1035 1037
f 1050 1051 1052
f 1053 1052 1054
f 715 617 1058
f 1058 617 619
f 714 715 1058
f 1060 1061 941
f 941 1061 818
f 704 1062 1063
f 702 1063 1064
f 695 1067 1068
f 912 688 913
f 684 685 1073
f 680 1074 1075
f 1075 1074 908
f 681 680 1075
f 679 680 681
f 670 671 672
f 1078 825 826
f 664 665 666
f 664 666 1079
f 1083 1082 877
f 877 1082 1080
f 877 1080 668
f 668 1080 836
f 656 657 1084
f 654 661 873
f 804 1085 838
f 838 871 837
f 436 439 804
f 747 838 837
f 748 838 747
f 645 646 1089
f 640 641 862
f 1091 1092 1093
f 637 1091 638
f 638 1091 1093
f 636 1094 1095
f 633 634 1095
f 623 1103 1054
f 622 623 1051
f 1051 623 1054
f 1105 620 1049
f 1105 1049 1047
f 1106 620 1105
f 1108 1109 1107
f 714 1058 1110
f 1110 1058 955
f 1110 955 953
f 618 617 816
f 816 617 715
f 816 715 714
f 957 714 713
f 713 714 1110
f 713 1110 1059
f 1059 1110 953
f 1059 953 952
f 957 816 714
f 712 713 1059
f 712 1059 710
f 710 1059 952
f 710 952 1111
f 1111 952 708
f 711 710 709
f 708 952 950
f 708 709 710
f 790 711 791
f 791 711 709
f 791 709 708
f 708 949 948
f 815 711 790
f 789 948 1112
f 1058 619 956
f 1058 956 955
f 947 946 1112
f 1112 946 817
f 959 1113 907
f 958 790 959
f 960 1113 1114
f 947 1112 948
f 789 1112 1116
f 1119 1117 1118
f 904 960 962
f 1114 1115 1117
f 790 791 948
f 1113 1116 1115
f 962 1114 1117
f 962 1117 1119
f 1119 1118 1120
f 1120 1118 1061
f 1115 817 945
f 1118 945 944
f 1118 944 943
f 789 790 948
f 1114 1113 1115
f 943 1061 1118
f 960 1114 962
f 963 1061 1060
f 959 789 1116
f 959 1116 1113
f 962 1119 961
f 961 1119 1120
f 963 1120 1061
f 961 1120 963
f 902 1060 707
f 790 789 959
f 907 1113 960
f 707 1060 941
f 1118 1117 945
f 945 1117 1115
f 817 1115 1116
f 817 1116 1112
f 948 791 708
f 1111 708 710
f 707 941 706
f 706 941 940
f 1061 943 818
f 940 941 939
f 902 963 1060
f 938 1062 940
f 940 1062 706
f 706 704 705
f 705 707 706
f 938 940 939
f 707 705 814
f 704 706 1062
f 702 703 704
f 702 704 1063
f 941 942 939
f 899 703 702
f 1063 938 937
f 1063 937 1064
f 701 1064 700
f 700 1064 1121
f 701 699 899
f 787 699 701
f 787 701 700
f 934 1121 935
f 1064 937 936
f 1121 819 935
f 1122 788 787
f 787 1121 1122
f 1064 701 702
f 702 701 899
f 1062 938 1063
f 1064 936 1121
f 1121 787 700
f 966 788 1123
f 1124 966 1123
f 934 1122 1121
f 1122 934 933
f 1126 1125 785
f 932 1125 933
f 819 1121 936
f 704 703 705
f 931 785 1125
f 931 1125 932
f 785 931 820
f 1125 1124 1123
f 933 1123 1122
f 966 1124 786
f 1126 967 786
f 824 788 966
f 1122 1123 788
f 699 787 788
f 965 966 786
f 965 786 967
f 785 820 930
f 784 930 821
f 1124 1126 786
f 967 697 698
f 1126 1127 967
f 698 697 696
f 1126 785 1127
f 1127 784 697
f 1128 784 929
f 697 967 1127
f 1126 1124 1125
f 697 968 696
f 968 697 1128
f 1128 697 784
f 970 969 968
f 926 783 927
f 929 968 1128
f 1129 968 929
f 1129 1130 970
f 925 926 924
f 972 970 1131
f 1131 970 1130
f 930 784 1127
f 785 930 1127
f 929 783 1129
f 972 1065 781
f 1066 1065 925
f 1066 925 922
f 1131 926 925
f 1130 1129 783
f 926 1130 783
f 781 782 813
f 921 782 1066
f 921 1066 922
f 784 821 929
f 1130 926 1131
f 1067 782 921
f 1067 813 782
f 1066 782 781
f 1068 1067 921
f 1131 1065 972
f 968 1129 970
f 971 970 972
f 813 1067 695
f 918 1068 921
f 918 921 919
f 974 973 695
f 695 973 813
f 695 1068 693
f 693 1068 918
f 1070 693 918
f 1070 918 916
f 692 975 694
f 693 694 695
f 916 1069 1070
f 692 694 1069
f 692 1069 691
f 1069 916 915
f 690 975 692
f 691 1069 1071
f 1071 1069 915
f 691 1132 690
f 1123 933 1125
f 890 971 972
f 812 781 813
f 974 695 694
f 974 694 975
f 914 1133 1071
f 1071 1133 1132
f 690 1132 689
f 690 692 691
f 1132 691 1071
f 693 1070 694
f 694 1070 1069
f 689 1132 1133
f 914 1071 915
f 925 924 923
f 925 923 922
f 922 920 921
f 688 689 1133
f 688 1133 913
f 688 912 686
f 688 686 687
f 912 913 911
f 687 689 688
f 686 1072 685
f 686 685 687
f 1072 686 912
f 1072 912 910
f 685 1072 1073
f 1073 1072 910
f 1073 910 909
f 884 687 685
f 815 910 911
f 911 910 912
f 914 913 1133
f 1073 683 684
f 687 976 689
f 689 976 690
f 1066 781 1065
f 925 1065 1131
f 684 683 682
f 909 1074 683
f 683 1074 682
f 1074 909 908
f 680 682 1074
f 978 977 680
f 907 906 1075
f 1075 908 907
f 681 1075 906
f 680 679 811
f 905 1134 681
f 681 1134 679
f 977 682 680
f 681 906 905
f 905 906 904
f 811 679 678
f 678 679 1134
f 678 1134 905
f 678 905 1076
f 978 680 811
f 677 678 1076
f 1076 905 903
f 1076 903 675
f 977 684 682
f 810 678 979
f 979 678 677
f 677 1076 675
f 979 677 676
f 675 676 677
f 675 674 676
f 780 676 674
f 778 780 1135
f 674 675 902
f 897 1135 901
f 901 674 902
f 904 903 905
f 1073 909 683
f 900 897 898
f 900 896 1140
f 1135 897 1136
f 1140 896 895
f 880 981 1138
f 880 1138 982
f 778 1135 1136
f 1139 900 1140
f 983 1140 1142
f 1137 1136 1138
f 1138 1136 900
f 1140 895 1142
f 1142 895 1141
f 1142 1141 673
f 822 1141 895
f 899 896 900
f 673 985 1142
f 900 1139 1138
f 1136 1137 778
f 1077 673 823
f 823 673 822
f 823 822 824
f 779 780 778
f 984 1142 985
f 779 778 1137
f 1138 1139 982
f 982 1139 1140
f 982 1140 983
f 676 780 779
f 983 1142 984
f 672 671 1077
f 672 1077 823
f 672 823 825
f 835 671 669
f 979 676 980
f 980 676 779
f 981 779 1137
f 981 1137 1138
f 835 985 671
f 670 672 1078
f 1078 672 825
f 1078 1143 670
f 671 670 669
f 1143 1078 826
f 985 673 1077
f 667 669 670
f 667 670 1143
f 667 1143 894
f 666 667 894
f 696 827 894
f 894 893 696
f 665 667 666
f 986 1079 663
f 663 1079 827
f 662 661 874
f 872 661 662
f 777 872 662
f 673 1141 822
f 1143 826 893
f 662 986 663
f 662 1144 1145
f 1079 986 664
f 664 986 665
f 665 986 874
f 666 894 1079
f 1079 894 827
f 1144 827 892
f 1144 892 891
f 827 696 892
f 1145 777 662
f 1144 662 663
f 890 889 1147
f 1147 889 888
f 988 777 1146
f 1146 777 1145
f 1146 1148 988
f 988 1148 987
f 776 775 1149
f 1146 891 890
f 1146 890 1147
f 1150 1147 888
f 893 894 1143
f 669 667 668
f 671 985 1077
f 897 900 1136
f 901 1135 780
f 901 780 674
f 891 1145 1144
f 1146 1147 1148
f 987 1149 775
f 1149 987 1148
f 1151 775 776
f 809 1151 660
f 777 988 837
f 809 775 1151
f 1151 1152 660
f 776 1150 1153
f 1149 1150 776
f 776 1153 1151
f 659 660 1152
f 1152 1151 1153
f 1150 1149 1147
f 1156 659 1152
f 1155 659 1156
f 1148 1147 1149
f 989 659 1155
f 991 990 1155
f 1155 990 989
f 1154 1156 1152
f 1154 1152 773
f 774 1153 1150
f 774 1150 888
f 1158 991 1155
f 1157 1156 1154
f 1155 1157 1158
f 1155 1156 1157
f 1159 991 1158
f 886 1154 887
f 887 1154 773
f 887 773 774
f 774 773 1153
f 1161 992 991
f 1161 991 1159
f 1157 1154 886
f 771 770 992
f 771 992 1161
f 1161 1159 1160
f 772 1157 828
f 828 1157 886
f 770 771 1162
f 1158 772 1159
f 1163 768 1162
f 885 1159 772
f 1157 772 1158
f 874 986 662
f 663 827 1144
f 1145 891 1146
f 1153 773 1152
f 770 1162 993
f 993 1162 768
f 771 831 1162
f 1163 1165 768
f 767 768 1165
f 1163 1162 831
f 994 767 1166
f 1166 767 1165
f 1165 1163 1164
f 831 771 829
f 1160 771 1161
f 862 767 994
f 1164 1163 831
f 1166 1165 1164
f 830 829 771
f 830 771 1160
f 830 1160 885
f 1166 1167 994
f 994 1167 995
f 808 807 764
f 1168 995 1167
f 1164 831 769
f 764 995 1168
f 1167 1166 833
f 833 1166 832
f 832 1166 1164
f 832 1164 769
f 833 1168 1167
f 807 995 764
f 806 808 805
f 766 764 1168
f 1169 805 808
f 763 808 764
f 833 766 1168
f 1169 1170 805
f 1170 763 882
f 760 996 805
f 763 764 766
f 760 805 1170
f 1169 808 763
f 833 832 765
f 763 766 883
f 766 833 765
f 1159 885 1160
f 807 808 806
f 1172 881 834
f 1171 760 1172
f 1172 760 1170
f 1173 997 759
f 759 997 761
f 759 761 1174
f 879 880 758
f 1174 761 1171
f 1172 1170 881
f 881 1170 882
f 1169 763 1170
f 760 1171 761
f 758 880 757
f 1174 1172 834
f 1175 1173 758
f 1176 757 878
f 759 1174 879
f 879 1174 834
f 759 758 1173
f 401 1175 1176
f 401 1176 756
f 755 453 756
f 758 759 879
f 755 753 453
f 757 1176 1175
f 762 761 997
f 456 1173 401
f 401 756 453
f 1171 1172 1174
f 1173 1175 401
f 750 453 753
f 753 754 752
f 753 752 751
f 754 755 1176
f 754 1176 878
f 751 752 835
f 1080 751 835
f 1080 835 836
f 998 1081 1082
f 998 750 1081
f 456 997 1173
f 758 757 1175
f 756 1176 755
f 453 750 451
f 450 451 998
f 448 998 749
f 448 749 447
f 1080 1081 751
f 751 1081 750
f 658 1083 877
f 668 876 877
f 877 876 658
f 657 658 1084
f 1084 876 875
f 445 657 656
f 656 1084 875
f 447 749 658
f 656 875 874
f 656 1177 655
f 1177 656 661
f 654 655 1177
f 654 1177 661
f 999 442 443
f 657 403 447
f 443 445 655
f 447 658 657
f 873 653 654
f 442 999 441
f 874 661 656
f 876 1084 658
f 441 999 652
f 755 754 753
f 753 751 750
f 451 750 998
f 998 1082 749
f 749 1083 658
f 445 656 655
f 443 655 654
f 443 654 999
f 999 654 653
f 652 653 1085
f 1085 873 871
f 873 1085 653
f 1081 1080 1082
f 1082 1083 749
f 999 653 652
f 871 838 1085
f 1085 804 652
f 652 804 441
f 441 804 439
f 838 748 1086
f 838 1086 804
f 748 747 870
f 435 436 804
f 745 748 870
f 1178 433 435
f 746 435 804
f 746 804 1086
f 746 1178 435
f 431 433 743
f 743 433 1178
f 743 1178 744
f 650 743 744
f 744 869 650
f 650 869 651
f 744 745 869
f 748 746 1086
f 840 650 651
f 745 1178 746
f 745 746 748
f 742 650 840
f 741 428 742
f 742 743 650
f 744 1178 745
f 742 840 1087
f 741 1087 868
f 868 1087 840
f 430 743 742
f 649 868 647
f 649 647 648
f 647 868 866
f 742 1087 741
f 648 647 646
f 840 839 868
f 868 839 867
f 648 741 649
f 646 647 1088
f 1088 647 866
f 648 646 427
f 1088 866 865
f 646 1088 1089
f 1089 1088 865
f 841 1089 865
f 1089 644 645
f 1089 841 644
f 644 841 842
f 1090 644 842
f 643 644 1090
f 426 648 427
f 405 422 643
f 642 643 1090
f 642 1090 864
f 864 1090 842
f 864 842 862
f 422 644 643
f 405 643 642
f 642 864 641
f 641 864 862
f 640 862 861
f 422 645 644
f 405 642 641
f 405 641 420
f 420 641 640
f 420 640 418
f 418 640 639
f 639 640 861
f 427 646 645
f 418 639 416
f 861 860 639
f 843 860 861
f 861 862 863
f 639 860 1000
f 639 1000 416
f 649 741 868
f 1000 415 416
f 645 422 423
f 645 423 427
f 741 648 428
f 407 1179 1180
f 1181 859 858
f 1180 1181 858
f 415 1000 407
f 1000 860 1179
f 1179 860 1181
f 1179 1181 1180
f 1001 858 1182
f 1001 1182 856
f 1001 856 1183
f 1180 858 1001
f 1092 1183 856
f 407 1180 1001
f 1001 1183 1002
f 411 1002 1091
f 1092 1002 1183
f 857 1182 858
f 859 1181 843
f 843 1181 860
f 1094 638 1093
f 856 455 1092
f 1092 455 1093
f 1093 402 1094
f 1094 402 454
f 407 1000 1179
f 413 1001 409
f 409 1001 1002
f 411 1091 637
f 1003 637 636
f 638 636 637
f 857 855 1182
f 1182 855 856
f 1002 1092 1091
f 636 638 1094
f 634 635 636
f 634 636 1095
f 635 634 1004
f 1003 636 635
f 1004 634 633
f 854 633 1095
f 633 854 853
f 631 632 633
f 1184 631 633
f 449 853 854
f 449 854 452
f 452 854 1095
f 402 1093 455
f 855 455 856
f 1184 633 853
f 1004 633 632
f 1094 452 1095
f 1185 740 1184
f 631 1184 740
f 852 1184 853
f 1185 1184 852
f 852 446 851
f 1185 852 851
f 1187 851 1188
f 454 452 1094
f 1187 1185 851
f 737 1186 1187
f 1185 1187 740
f 740 1187 1186
f 1186 737 739
f 739 738 1007
f 1007 738 1008
f 1189 1008 738
f 444 442 736
f 736 440 850
f 1188 737 1187
f 738 737 1188
f 738 736 1189
f 1186 1006 740
f 1012 1011 1190
f 1190 1011 1009
f 1009 1010 1008
f 1008 1010 1007
f 1186 739 1006
f 740 1006 1005
f 1005 631 740
f 1009 1191 1190
f 1008 1189 1009
f 736 738 444
f 850 1009 1189
f 1012 1190 1192
f 1190 1191 1192
f 1191 1009 850
f 849 735 437
f 1193 1012 1192
f 735 1192 1191
f 1192 849 1193
f 1194 1013 1193
f 735 1191 850
f 733 1194 1195
f 849 437 434
f 1192 735 849
f 848 1193 849
f 438 735 850
f 1014 1194 733
f 1196 733 1195
f 1195 1194 848
f 734 733 1196
f 432 1196 848
f 1015 1018 1017
f 1019 1018 1197
f 1197 1018 734
f 1193 848 1194
f 1018 733 734
f 851 404 444
f 851 444 1188
f 1189 736 850
f 1012 1193 1013
f 1013 1194 1014
f 734 1196 847
f 1019 1198 1199
f 1197 734 847
f 1023 1020 1199
f 1199 1020 1019
f 1019 1197 1198
f 429 1197 847
f 432 847 1196
f 848 1196 1195
f 1197 429 1198
f 1199 1200 1023
f 1200 1199 425
f 425 1199 1198
f 847 432 430
f 1188 444 738
f 1015 733 1018
f 1021 1020 1023
f 1021 1023 731
f 1021 731 1022
f 1022 731 1024
f 1201 1023 1200
f 844 846 421
f 1024 731 732
f 731 1023 1201
f 846 732 731
f 846 731 1201
f 425 1198 429
f 1026 1027 1028
f 846 1201 1200
f 844 1024 732
f 1202 730 729
f 406 844 421
f 1027 729 1028
f 1027 1024 844
f 844 732 846
f 424 1200 425
f 1202 1027 844
f 846 1200 424
f 1097 730 1202
f 406 419 1202
f 630 802 1029
f 729 1027 1202
f 1096 630 730
f 1096 730 1097
f 847 430 429
f 438 437 735
f 1029 729 630
f 630 1096 1098
f 629 630 1098
f 630 729 730
f 1096 1097 1098
f 1098 1097 417
f 417 1097 419
f 406 1202 844
f 414 1098 417
f 1031 629 727
f 727 629 628
f 1032 728 726
f 628 414 1203
f 1097 1202 419
f 1203 414 408
f 727 1203 726
f 1034 1032 726
f 1203 727 628
f 1204 1033 1034
f 1205 1034 726
f 845 1203 408
f 725 1206 1204
f 1037 1035 1204
f 725 1034 1205
f 1204 1034 725
f 1206 1037 1204
f 725 1205 845
f 801 1038 1207
f 1038 1037 1208
f 1203 845 726
f 726 845 1205
f 1036 1037 1038
f 414 628 1098
f 1098 628 629
f 1208 1037 1206
f 424 423 846
f 630 629 802
f 802 629 1030
f 1033 1204 1035
f 724 801 1207
f 1209 801 724
f 792 1206 410
f 1207 1208 793
f 1208 1206 792
f 724 1207 793
f 793 1208 792
f 410 1206 725
f 410 725 412
f 799 1209 626
f 724 793 627
f 845 412 725
f 801 1209 800
f 800 1209 799
f 724 626 1209
f 723 720 795
f 1210 799 626
f 793 792 794
f 1211 720 723
f 1211 723 1057
f 722 721 799
f 722 799 1210
f 626 724 627
f 1038 1208 1207
f 719 721 717
f 793 794 627
f 719 717 718
f 720 1210 626
f 1099 717 722
f 1099 722 1211
f 1211 722 720
f 1100 1099 1057
f 721 722 717
f 720 722 1210
f 795 626 627
f 625 1099 1100
f 1100 1057 1056
f 1040 1039 718
f 796 1101 625
f 625 1101 1040
f 796 625 1100
f 1056 796 1100
f 796 1102 1101
f 796 797 1102
f 1041 624 1042
f 624 1102 1212
f 1212 1102 797
f 1212 797 1055
f 1039 1040 1041
f 1055 1103 1212
f 1212 1103 624
f 623 624 1103
f 1103 1055 1054
f 798 624 623
f 718 625 1040
f 798 623 716
f 621 622 1051
f 621 1051 1104
f 1049 1104 1051
f 620 621 1104
f 620 1104 1049
f 1044 1106 1045
f 1044 1043 621
f 716 622 621
f 1106 1044 620
f 620 1044 621
f 622 716 623
f 1102 624 1041
f 1102 1041 1101
f 1101 1041 1040
f 625 718 1099
f 1099 718 717
f 1055 1053 1054
f 1051 1054 1052
f 1049 1051 1050
f 1050 1048 1049
f 1047 1049 1048
f 795 720 626
f 798 1042 624
f 1043 716 621
f 1047 1108 1105
f 1105 1108 1106
f 1108 1107 1106
f 1106 1107 1045
f 1211 1057 1099
f 1108 1047 1109
f 1046 1045 1107
f 1109 1047 1016
f 1016 1107 1109
f 1046 1107 1016
f 1236 1233 1235
f 1247 1236 1235
f 1228 1242 1227
f 1249 1244 1250
f 1250 1244 1245
f 1223 1245 1246
f 1223 1246 1222
f 1253 1243 1244
f 1253 1244 1249
f 1254 1247 1255
f 1255 1247 1235
f 1258 1259 1260
f 1260 1259 1261
f 1261 1259 1256
f 1261 1256 1257
f 1261 1257 1237
f 1261 1237 1238
f 1230 1262 1229
f 1260 1264 1239
f 1260 1239 1262
f 1262 1239 1240
f 1262 1240 1229
f 1229 1240 1263
f 1263 1240 1265
f 1265 1241 1266
f 1266 1241 1267
f 1252 1270 1271
f 1271 1272 1268
f 1270 1275 1271
f 1273 1276 1225
f 1225 1276 1274
f 1274 1276 1277
f 1278 1277 1279
f 1275 1248 1276
f 1224 1253 1282
f 1282 1253 1249
f 1282 1249 1283
f 1283 1249 1250
f 1221 1246 1220
f 1244 1285 1245
f 1245 1285 1246
f 1246 1286 1220
f 1220 1286 1284
f 1246 1287 1286
f 1286 1288 1219
f 1219 1288 1218
f 1287 1290 1286
f 1286 1290 1288
f 1288 1293 1289
f 1289 1294 1291
f 1291 1294 1292
f 1295 1296 1217
f 1217 1296 1216
f 1296 1301 1297
f 1297 1301 1302
f 1297 1302 1299
f 1299 1302 1300
f 1305 1308 1309
f 1304 1306 1307
f 1305 1307 1308
f 1311 1312 1313
f 1311 1313 1214
f 1314 1236 1315
f 1312 1232 1233
f 1312 1233 1313
f 1237 1257 1231
f 1258 1260 1262
f 1258 1262 1230
f 1264 1260 1261
f 1264 1261 1238
f 1242 1228 1267
f 1242 1267 1241
f 1241 1265 1240
f 1240 1269 1241
f 1241 1269 1242
f 1242 1270 1227
f 1227 1270 1252
f 1252 1271 1251
f 1251 1271 1268
f 1242 1269 1270
f 1268 1272 1226
f 1272 1273 1226
f 1225 1226 1273
f 1271 1275 1272
f 1272 1275 1273
f 1274 1277 1278
f 1273 1275 1276
f 1276 1248 1277
f 1279 1281 1280
f 1280 1281 1224
f 1253 1224 1281
f 1281 1279 1248
f 1248 1279 1277
f 1248 1243 1281
f 1281 1243 1253
f 1245 1223 1250
f 1246 1221 1222
f 1284 1286 1219
f 1285 1287 1246
f 1289 1218 1288
f 1290 1293 1288
f 1289 1293 1294
f 1292 1294 1217
f 1294 1295 1217
f 1297 1216 1296
f 1298 1294 1293
f 1290 1298 1293
f 1294 1298 1295
f 1295 1301 1296
f 1295 1298 1301
f 1300 1304 1303
f 1303 1304 1215
f 1304 1300 1306
f 1306 1300 1302
f 1306 1302 1301
f 1304 1307 1215
f 1215 1307 1305
f 1309 1308 1312
f 1309 1312 1310
f 1310 1312 1311
f 1314 1214 1313
f 1232 1307 1306
f 1307 1232 1308
f 1308 1232 1312
f 1313 1233 1314
f 1314 1233 1236
f 1315 1236 1247
f 1316 1247 1254
f 1235 1234 1255
f 1255 1234 1213
f 1255 1213 1254
f 1234 1317 1213
f 1213 1317 1318
f 1234 1238 1317
f 1317 1238 1319
f 1317 1319 1318
f 1238 1237 1319
f 1319 1237 1231
f 1330 1340 1341
f 1340 1330 1339
f 1339 1342 1340
f 1339 1338 1343
f 1339 1343 1342
f 1338 1344 1343
f 1338 1345 1344
f 1338 1337 1346
f 1338 1346 1345
f 1346 1337 1329
f 1337 1336 1328
f 1337 1328 1329
f 1336 1335 1327
f 1336 1327 1328
f 1335 1326 1327
f 1335 1334 1326
f 1334 1325 1326
f 1334 1324 1325
f 1334 1333 1324
f 1333 1323 1324
f 1333 1322 1323
f 1333 1332 1322
f 1322 1332 1321
f 1332 1320 1321
f 1332 1331 1347
f 1332 1347 1320
f 1347 1331 1348
f 1331 1349 1348
f 1331 1330 1350
f 1331 1350 1349
f 1350 1330 1341
f 1346 1351 1352
f 1346 1352 1345
f 1345 1352 1344
f 1344 1352 1353
f 1344 1353 1343
f 1343 1353 1354
f 1343 1354 1342
f 1342 1354 1355
f 1342 1355 1340
f 1340 1355 1356
f 1340 1356 1341
f 1341 1356 1357
f 1341 1357 1358
f 1341 1358 1350
f 1350 1358 1359
f 1350 1359 1349
f 1349 1359 1348
f 1348 1359 1360
f 1348 1360 1347
f 1347 1360 1361
f 1347 1361 1320
f 1320 1361 1362
f 1320 1362 1363
f 1320 1363 1321
f 1321 1363 1364
f 1321 1364 1322
f 1322 1364 1365
f 1322 1365 1323
f 1323 1365 1324
f 1324 1365 1366
f 1324 1366 1325
f 1325 1366 1367
f 1325 1367 1326
f 1326 1367 1368
f 1326 1368 1327
f 1327 1368 1369
f 1327 1369 1328
f 1328 1369 1370
f 1328 1370 1329
f 1329 1370 1371
f 1329 1371 1346
f 1346 1371 1351
f 1360 1357 1361
f 1353 1356 1355
f 1351 1353 1352
f 1371 1370 1351
f 1351 1370 1369
f 1353 1355 1354
f 1357 1360 1359
f 1357 1359 1358
f 1364 1363 1362
f 1367 1366 1365
f 44 45 1372
f 1372 1373 44
f 44 1373 46
f 1373 1374 46
f 46 1374 47
f 1374 1375 47
f 47 1375 34
f 34 1375 33
f 1375 1376 33
f 33 1376 32
f 1376 1377 32
f 1377 1378 32
f 32 1378 36
f 36 1378 37
f 1378 1379 37
f 1379 1380 37
f 37 1380 57
f 1380 1381 57
f 57 1381 50
f 1381 1382 50
f 50 1382 53
f 1382 1383 53
f 53 1383 30
f 1383 1384 30
f 30 1384 31
f 1385 31 1384
f 31 1385 1386
f 31 1386 39
f 1386 1387 39
f 39 1387 41
f 1387 1388 41
f 41 1388 51
f 1388 1389 51
f 51 1389 45
f 1389 1372 45
f 1388 1364 1390
f 1390 1364 1362
f 1390 1362 1361
f 1390 1361 1374
f 1374 1361 1357
f 1374 1357 1376
f 1376 1357 1356
f 1376 1356 1379
f 1379 1356 1353
f 1379 1353 1351
f 1379 1351 1382
f 1382 1351 1369
f 1382 1369 1368
f 1382 1368 1385
f 1385 1368 1367
f 1385 1367 1388
f 1388 1367 1365
f 1388 1365 1364
f 1388 1390 1389
f 1385 1388 1387
f 1385 1387 1386
f 1382 1380 1379
f 1380 1382 1381
f 1384 1383 1382
f 1385 1384 1382
f 1390 1374 1373
f 1390 1372 1389
f 1390 1373 1372
f 1374 1376 1375
f 1376 1379 1378
f 1376 1378 1377
f 1391 1392 1393
f 1393 1392 1394
f 1395 1396 1397
f 1393 1394 1398
f 1398 1394 1399
f 1399 1394 1400
f 1401 1402 1403
f 1403 1402 1404
f 1405 1406 1407
f 1407 1406 1408
f 1409 1410 1411
f 1411 1410 1412
f 1411 1412 1413
f 1414 1415 1416
f 1416 1415 1417
f 1416 1417 1418
f 1419 1420 1421
f 1421 1420 1422
f 1421 1422 1423
f 1397 1396 1424
f 1397 1424 1425
f 1425 1424 1426
f 1426 1424 1427
f 1426 1427 1428
f 1428 1427 1402
f 1428 1402 1401
f 1413 1412 1392
f 1413 1392 1391
f 1399 1400 1429
f 1399 1429 1430
f 1430 1429 1414
f 1414 1429 1415
f 1423 1422 1431
f 1431 1422 1432
f 1402 1433 1404
f 1404 1433 1434
f 1433 1435 1434
f 1434 1435 1436
f 1436 1435 1437
f 1436 1437 1046
f 1407 1408 1438
f 1407 1438 1439
f 1439 1438 1409
f 1409 1438 1410
f 1431 1432 1440
f 1440 1432 1441
f 1441 1432 1396
f 1441 1396 1395
f 1046 1437 1442
f 1442 1437 1406
f 1442 1406 1405
f 1418 1417 1419
f 1419 1417 1420
f 1443 1300 1303
f 1443 1303 1444
f 1300 1443 1299
f 1299 1443 1445
f 1217 1216 1446
f 1446 1216 1447
f 1447 1216 1297
f 1447 1297 1299
f 1447 1299 1445
f 1217 1446 1448
f 1217 1448 1449
f 1217 1449 1292
f 1292 1449 1291
f 1291 1449 1450
f 1219 1218 1427
f 1427 1218 1451
f 1451 1218 1289
f 1451 1289 1291
f 1451 1291 1450
f 1219 1427 1452
f 1219 1452 1453
f 1219 1453 1284
f 1284 1453 1220
f 1220 1453 1454
f 1220 1454 1221
f 1221 1454 1455
f 1221 1455 1456
f 1221 1456 1222
f 1222 1456 1223
f 1223 1456 1457
f 1223 1457 1458
f 1223 1458 1250
f 1250 1458 1283
f 1283 1458 1459
f 1283 1459 1460
f 1283 1460 1282
f 1282 1460 1461
f 1282 1461 1224
f 1224 1461 1462
f 1224 1462 1280
f 1280 1462 1463
f 1280 1463 1279
f 1279 1463 1278
f 1278 1463 1464
f 1278 1464 1465
f 1278 1465 1274
f 1274 1465 1225
f 1225 1465 1466
f 1225 1466 1226
f 1226 1466 1467
f 1226 1467 1468
f 1226 1468 1268
f 1268 1468 1469
f 1268 1469 1251
f 1316 1470 1247
f 1251 1469 1471
f 1251 1471 1252
f 1252 1471 1227
f 1227 1471 1472
f 1227 1472 1228
f 1228 1472 1473
f 1228 1473 1474
f 1228 1474 1267
f 1267 1474 1266
f 1266 1474 1415
f 1266 1415 1265
f 1265 1415 1475
f 1265 1475 1263
f 1263 1475 1229
f 1229 1475 1476
f 1229 1476 1230
f 1230 1476 1400
f 1230 1400 1258
f 1258 1400 1477
f 1258 1477 1259
f 1259 1477 1478
f 1259 1478 1479
f 1259 1479 1256
f 1256 1479 1257
f 1257 1479 1480
f 1257 1480 1231
f 1231 1480 1481
f 1231 1481 1319
f 1319 1481 1482
f 1319 1482 1318
f 1318 1482 1483
f 1318 1483 1213
f 1213 1483 1412
f 1213 1412 1254
f 1254 1412 1484
f 1254 1484 1485
f 1254 1485 1316
f 1316 1485 1470
f 1311 1486 1310
f 1247 1470 1315
f 1315 1470 1487
f 1315 1487 1314
f 1314 1487 1488
f 1314 1488 1214
f 1214 1488 1408
f 1214 1408 1489
f 1214 1489 1311
f 1311 1489 1486
f 1310 1486 1309
f 1309 1486 1490
f 1444 1303 1491
f 1491 1303 1215
f 1491 1215 1492
f 1309 1490 1492
f 1309 1492 1305
f 1305 1492 1215
f 1456 1396 1457
f 1457 1396 1458
f 1461 1432 1462
f 1462 1432 1463
f 1432 1422 1464
f 1464 1422 1465
f 1420 1417 1471
f 1420 1471 1469
f 1472 1417 1473
f 1475 1429 1476
f 1394 1480 1479
f 1394 1392 1480
f 1480 1392 1481
f 1482 1392 1483
f 1485 1410 1470
f 1410 1438 1487
f 1410 1487 1470
f 1489 1406 1486
f 1406 1490 1486
f 1435 1433 1445
f 1445 1433 1447
f 1433 1402 1448
f 1448 1402 1449
f 1450 1402 1451
f 1427 1424 1452
f 1452 1424 1453
f 1424 1396 1456
f 1424 1456 1455
f 1396 1459 1458
f 1396 1432 1459
f 1459 1432 1460
f 1460 1432 1461
f 1464 1463 1432
f 1466 1465 1422
f 1422 1467 1466
f 1422 1420 1468
f 1422 1468 1467
f 1468 1420 1469
f 1471 1417 1472
f 1417 1474 1473
f 1417 1415 1474
f 1429 1475 1415
f 1400 1476 1429
f 1400 1394 1477
f 1477 1394 1478
f 1478 1394 1479
f 1481 1392 1482
f 1412 1483 1392
f 1412 1410 1484
f 1484 1410 1485
f 1488 1487 1438
f 1438 1408 1488
f 1489 1408 1406
f 1406 1437 1490
f 1490 1437 1492
f 1492 1437 1491
f 1444 1491 1437
f 1437 1435 1444
f 1444 1435 1443
f 1443 1435 1445
f 1446 1447 1433
f 1433 1448 1446
f 1449 1402 1450
f 1427 1451 1402
f 1454 1453 1424
f 1454 1424 1455
f 1244 5 3
f 1331 1332 1306
f 1244 3 1285
f 1298 1330 1331
f 1331 1301 1298
f 1331 1306 1301
f 1332 1232 1306
f 1334 1238 1234
f 1287 1285 4
f 4 1285 3
f 1287 4 1493
f 1287 1493 1290
f 1290 1493 1496
f 1330 1497 1495
f 1335 1264 1334
f 1334 1264 1238
f 1335 1239 1264
f 1332 1333 1233
f 1333 1235 1233
f 1336 1239 1335
f 1298 1494 1330
f 1330 1494 1497
f 1332 1233 1232
f 1334 1235 1333
f 1334 1234 1235
f 1336 1240 1239
f 1337 1269 1336
f 1336 1269 1240
f 1337 1270 1269
f 1337 1275 1270
f 1290 1496 1298
f 1298 1496 1494
f 1337 1248 1275
f 1338 1248 1337
f 1330 1495 13
f 1330 13 1339
f 1339 13 11
f 1339 11 10
f 10 7 1244
f 1244 7 5
f 1339 10 1244
f 1339 1244 1338
f 1338 1244 1243
f 1338 1243 1248
f 2 16 4
f 4 16 1493
f 19 1496 20
f 20 1496 1498
f 1493 16 20
f 1493 20 1498
f 19 21 1496
f 1496 21 1494
f 25 1495 1497
f 25 1497 23
f 23 1497 1494
f 23 1494 21
f 25 14 1495
f 1495 14 13
f 1496 1493 1498
f 1041 1042 1411
f 1015 1017 1434
f 1421 1035 1419
f 1421 1033 1035
f 1423 1033 1421
f 1423 1032 1033
f 1431 728 1032
f 1431 1032 1423
f 1440 1031 1431
f 1431 1031 728
f 1441 1030 1440
f 1440 1030 1031
f 1441 802 1030
f 1395 802 1441
f 1395 1029 802
f 1397 1029 1395
f 1397 1028 1029
f 1425 1026 1397
f 1397 1026 1028
f 1426 1025 1425
f 1425 1025 1026
f 1428 1022 1426
f 1426 1022 1025
f 1401 1021 1428
f 1428 1021 1022
f 1403 1020 1401
f 1401 1020 1021
f 1404 803 1403
f 1403 803 1020
f 1434 1017 1404
f 1404 1017 803
f 1436 1015 1434
f 1046 1016 1436
f 1436 1016 1015
f 1045 1046 1442
f 1014 1016 1047
f 1047 1048 1014
f 1014 1048 1013
f 1050 1012 1048
f 1048 1012 1013
f 1012 1050 1011
f 1011 1050 1052
f 1010 1011 1053
f 1053 1011 1052
f 1010 1053 1055
f 1010 1055 1007
f 797 739 1055
f 1055 739 1007
f 797 1006 739
f 797 796 1006
f 1006 796 1056
f 1006 1056 1005
f 1005 1057 631
f 1005 1056 1057
f 631 1057 632
f 632 1057 723
f 632 723 1004
f 1004 723 795
f 1004 795 635
f 635 795 627
f 635 627 1003
f 1003 627 794
f 794 637 1003
f 792 637 794
f 637 792 411
f 792 410 411
f 1405 1044 1442
f 1442 1044 1045
f 1044 1405 1043
f 1043 1405 1407
f 1439 716 1043
f 1439 1043 1407
f 716 1439 798
f 1409 798 1439
f 1411 1042 1409
f 1409 1042 798
f 1413 1041 1411
f 1391 1039 1413
f 1413 1039 1041
f 1393 718 1391
f 1391 718 1039
f 1393 719 718
f 1398 719 1393
f 1399 721 1398
f 1398 721 719
f 1430 799 1399
f 1399 799 721
f 1414 800 1430
f 1430 800 799
f 1416 800 1414
f 1416 801 800
f 1418 801 1416
f 1418 1038 801
f 1419 1036 1418
f 1418 1036 1038
f 1419 1035 1036
f 455 997 456
f 997 455 855
f 997 855 762
f 762 855 857
f 762 857 996
f 996 857 859
f 843 806 859
f 859 806 805
f 859 805 996
f 806 843 807
f 995 807 863
f 863 807 843
f 995 863 862
f 767 862 842
f 767 842 768
f 768 842 841
f 841 865 993
f 993 865 770
f 770 865 866
f 866 867 990
f 839 990 867
f 651 989 839
f 839 989 990
f 989 651 659
f 659 651 869
f 659 869 660
f 660 869 870
f 660 870 809
f 870 747 809
f 809 747 775
f 747 837 775
f 837 871 777
f 777 871 872
f 875 665 874
f 876 668 665
f 876 665 875
f 669 668 836
f 669 836 835
f 984 835 752
f 752 983 984
f 754 878 983
f 754 983 752
f 878 757 982
f 982 757 880
f 899 898 703
f 880 879 981
f 981 879 779
f 779 879 834
f 779 834 980
f 980 834 881
f 980 881 979
f 810 979 882
f 882 979 881
f 810 883 811
f 810 882 883
f 978 811 765
f 765 811 883
f 765 832 978
f 978 832 977
f 977 832 769
f 769 884 684
f 884 829 687
f 687 829 830
f 976 830 885
f 976 885 772
f 772 690 976
f 690 772 828
f 690 828 975
f 828 886 975
f 975 886 974
f 887 974 886
f 974 887 973
f 973 887 774
f 973 774 813
f 888 812 813
f 774 888 813
f 889 812 888
f 889 890 812
f 971 890 891
f 971 891 969
f 969 891 892
f 969 892 696
f 826 967 893
f 893 967 698
f 893 698 696
f 967 826 965
f 965 826 825
f 965 825 824
f 964 824 822
f 964 822 699
f 699 896 899
f 898 897 703
f 705 703 897
f 705 897 901
f 705 901 814
f 814 901 902
f 963 902 903
f 963 903 961
f 961 903 904
f 907 960 906
f 904 906 960
f 959 907 908
f 959 908 909
f 959 909 958
f 958 909 815
f 711 815 911
f 711 911 712
f 913 712 911
f 712 913 713
f 913 914 713
f 914 915 957
f 713 914 957
f 957 915 816
f 915 916 816
f 816 916 618
f 524 619 522
f 618 916 917
f 618 917 619
f 619 917 522
f 955 526 527
f 526 955 459
f 459 955 956
f 459 956 524
f 524 956 619
f 527 954 955
f 472 954 527
f 458 951 473
f 473 951 472
f 472 951 954
f 457 950 458
f 950 951 458
f 480 950 457
f 528 949 480
f 480 949 950
f 529 947 528
f 528 947 949
f 483 947 529
f 469 946 483
f 483 946 947
f 468 817 469
f 469 817 946
f 945 817 485
f 485 817 468
f 486 945 485
f 487 944 945
f 487 945 486
f 488 943 487
f 487 943 944
f 818 943 490
f 490 943 488
f 491 942 818
f 491 818 490
f 493 939 467
f 467 939 942
f 467 942 491
f 939 493 494
f 495 938 494
f 938 939 494
f 498 937 938
f 498 938 495
f 466 936 498
f 498 936 937
f 466 465 819
f 819 936 466
f 503 934 502
f 502 934 935
f 502 935 465
f 465 935 819
f 503 505 934
f 933 934 505
f 506 932 933
f 506 933 505
f 508 931 464
f 931 932 464
f 464 932 506
f 476 820 931
f 476 931 508
f 820 476 477
f 820 477 930
f 930 477 478
f 463 821 930
f 463 930 478
f 461 928 462
f 928 821 462
f 462 821 463
f 509 783 461
f 461 783 928
f 512 927 511
f 511 927 783
f 511 783 509
f 513 924 512
f 512 924 927
f 924 513 514
f 924 514 923
f 923 514 460
f 923 460 922
f 517 922 460
f 520 920 517
f 517 920 922
f 521 919 520
f 520 919 920
f 522 917 919
f 522 919 521

