# cap cylinder r=0.0500 h=0.0170
v 0.050000 0.000000 0.000000
v 0.049893 0.003270 0.000000
v 0.049572 0.006526 0.000000
v 0.049039 0.009755 0.000000
v 0.048296 0.012941 0.000000
v 0.047347 0.016072 0.000000
v 0.046194 0.019134 0.000000
v 0.044844 0.022114 0.000000
v 0.043301 0.025000 0.000000
v 0.041573 0.027779 0.000000
v 0.039668 0.030438 0.000000
v 0.037592 0.032967 0.000000
v 0.035355 0.035355 0.000000
v 0.032967 0.037592 0.000000
v 0.030438 0.039668 0.000000
v 0.027779 0.041573 0.000000
v 0.025000 0.043301 0.000000
v 0.022114 0.044844 0.000000
v 0.019134 0.046194 0.000000
v 0.016072 0.047347 0.000000
v 0.012941 0.048296 0.000000
v 0.009755 0.049039 0.000000
v 0.006526 0.049572 0.000000
v 0.003270 0.049893 0.000000
v 0.000000 0.050000 0.000000
v -0.003270 0.049893 0.000000
v -0.006526 0.049572 0.000000
v -0.009755 0.049039 0.000000
v -0.012941 0.048296 0.000000
v -0.016072 0.047347 0.000000
v -0.019134 0.046194 0.000000
v -0.022114 0.044844 0.000000
v -0.025000 0.043301 0.000000
v -0.027779 0.041573 0.000000
v -0.030438 0.039668 0.000000
v -0.032967 0.037592 0.000000
v -0.035355 0.035355 0.000000
v -0.037592 0.032967 0.000000
v -0.039668 0.030438 0.000000
v -0.041573 0.027779 0.000000
v -0.043301 0.025000 0.000000
v -0.044844 0.022114 0.000000
v -0.046194 0.019134 0.000000
v -0.047347 0.016072 0.000000
v -0.048296 0.012941 0.000000
v -0.049039 0.009755 0.000000
v -0.049572 0.006526 0.000000
v -0.049893 0.003270 0.000000
v -0.050000 0.000000 0.000000
v -0.049893 -0.003270 0.000000
v -0.049572 -0.006526 0.000000
v -0.049039 -0.009755 0.000000
v -0.048296 -0.012941 0.000000
v -0.047347 -0.016072 0.000000
v -0.046194 -0.019134 0.000000
v -0.044844 -0.022114 0.000000
v -0.043301 -0.025000 0.000000
v -0.041573 -0.027779 0.000000
v -0.039668 -0.030438 0.000000
v -0.037592 -0.032967 0.000000
v -0.035355 -0.035355 0.000000
v -0.032967 -0.037592 0.000000
v -0.030438 -0.039668 0.000000
v -0.027779 -0.041573 0.000000
v -0.025000 -0.043301 0.000000
v -0.022114 -0.044844 0.000000
v -0.019134 -0.046194 0.000000
v -0.016072 -0.047347 0.000000
v -0.012941 -0.048296 0.000000
v -0.009755 -0.049039 0.000000
v -0.006526 -0.049572 0.000000
v -0.003270 -0.049893 0.000000
v -0.000000 -0.050000 0.000000
v 0.003270 -0.049893 0.000000
v 0.006526 -0.049572 0.000000
v 0.009755 -0.049039 0.000000
v 0.012941 -0.048296 0.000000
v 0.016072 -0.047347 0.000000
v 0.019134 -0.046194 0.000000
v 0.022114 -0.044844 0.000000
v 0.025000 -0.043301 0.000000
v 0.027779 -0.041573 0.000000
v 0.030438 -0.039668 0.000000
v 0.032967 -0.037592 0.000000
v 0.035355 -0.035355 0.000000
v 0.037592 -0.032967 0.000000
v 0.039668 -0.030438 0.000000
v 0.041573 -0.027779 0.000000
v 0.043301 -0.025000 0.000000
v 0.044844 -0.022114 0.000000
v 0.046194 -0.019134 0.000000
v 0.047347 -0.016072 0.000000
v 0.048296 -0.012941 0.000000
v 0.049039 -0.009755 0.000000
v 0.049572 -0.006526 0.000000
v 0.049893 -0.003270 0.000000
v 0.050000 0.000000 0.017000
v 0.049893 0.003270 0.017000
v 0.049572 0.006526 0.017000
v 0.049039 0.009755 0.017000
v 0.048296 0.012941 0.017000
v 0.047347 0.016072 0.017000
v 0.046194 0.019134 0.017000
v 0.044844 0.022114 0.017000
v 0.043301 0.025000 0.017000
v 0.041573 0.027779 0.017000
v 0.039668 0.030438 0.017000
v 0.037592 0.032967 0.017000
v 0.035355 0.035355 0.017000
v 0.032967 0.037592 0.017000
v 0.030438 0.039668 0.017000
v 0.027779 0.041573 0.017000
v 0.025000 0.043301 0.017000
v 0.022114 0.044844 0.017000
v 0.019134 0.046194 0.017000
v 0.016072 0.047347 0.017000
v 0.012941 0.048296 0.017000
v 0.009755 0.049039 0.017000
v 0.006526 0.049572 0.017000
v 0.003270 0.049893 0.017000
v 0.000000 0.050000 0.017000
v -0.003270 0.049893 0.017000
v -0.006526 0.049572 0.017000
v -0.009755 0.049039 0.017000
v -0.012941 0.048296 0.017000
v -0.016072 0.047347 0.017000
v -0.019134 0.046194 0.017000
v -0.022114 0.044844 0.017000
v -0.025000 0.043301 0.017000
v -0.027779 0.041573 0.017000
v -0.030438 0.039668 0.017000
v -0.032967 0.037592 0.017000
v -0.035355 0.035355 0.017000
v -0.037592 0.032967 0.017000
v -0.039668 0.030438 0.017000
v -0.041573 0.027779 0.017000
v -0.043301 0.025000 0.017000
v -0.044844 0.022114 0.017000
v -0.046194 0.019134 0.017000
v -0.047347 0.016072 0.017000
v -0.048296 0.012941 0.017000
v -0.049039 0.009755 0.017000
v -0.049572 0.006526 0.017000
v -0.049893 0.003270 0.017000
v -0.050000 0.000000 0.017000
v -0.049893 -0.003270 0.017000
v -0.049572 -0.006526 0.017000
v -0.049039 -0.009755 0.017000
v -0.048296 -0.012941 0.017000
v -0.047347 -0.016072 0.017000
v -0.046194 -0.019134 0.017000
v -0.044844 -0.022114 0.017000
v -0.043301 -0.025000 0.017000
v -0.041573 -0.027779 0.017000
v -0.039668 -0.030438 0.017000
v -0.037592 -0.032967 0.017000
v -0.035355 -0.035355 0.017000
v -0.032967 -0.037592 0.017000
v -0.030438 -0.039668 0.017000
v -0.027779 -0.041573 0.017000
v -0.025000 -0.043301 0.017000
v -0.022114 -0.044844 0.017000
v -0.019134 -0.046194 0.017000
v -0.016072 -0.047347 0.017000
v -0.012941 -0.048296 0.017000
v -0.009755 -0.049039 0.017000
v -0.006526 -0.049572 0.017000
v -0.003270 -0.049893 0.017000
v -0.000000 -0.050000 0.017000
v 0.003270 -0.049893 0.017000
v 0.006526 -0.049572 0.017000
v 0.009755 -0.049039 0.017000
v 0.012941 -0.048296 0.017000
v 0.016072 -0.047347 0.017000
v 0.019134 -0.046194 0.017000
v 0.022114 -0.044844 0.017000
v 0.025000 -0.043301 0.017000
v 0.027779 -0.041573 0.017000
v 0.030438 -0.039668 0.017000
v 0.032967 -0.037592 0.017000
v 0.035355 -0.035355 0.017000
v 0.037592 -0.032967 0.017000
v 0.039668 -0.030438 0.017000
v 0.041573 -0.027779 0.017000
v 0.043301 -0.025000 0.017000
v 0.044844 -0.022114 0.017000
v 0.046194 -0.019134 0.017000
v 0.047347 -0.016072 0.017000
v 0.048296 -0.012941 0.017000
v 0.049039 -0.009755 0.017000
v 0.049572 -0.006526 0.017000
v 0.049893 -0.003270 0.017000
f 1 2 98
f 1 98 97
f 2 3 99
f 2 99 98
f 3 4 100
f 3 100 99
f 4 5 101
f 4 101 100
f 5 6 102
f 5 102 101
f 6 7 103
f 6 103 102
f 7 8 104
f 7 104 103
f 8 9 105
f 8 105 104
f 9 10 106
f 9 106 105
f 10 11 107
f 10 107 106
f 11 12 108
f 11 108 107
f 12 13 109
f 12 109 108
f 13 14 110
f 13 110 109
f 14 15 111
f 14 111 110
f 15 16 112
f 15 112 111
f 16 17 113
f 16 113 112
f 17 18 114
f 17 114 113
f 18 19 115
f 18 115 114
f 19 20 116
f 19 116 115
f 20 21 117
f 20 117 116
f 21 22 118
f 21 118 117
f 22 23 119
f 22 119 118
f 23 24 120
f 23 120 119
f 24 25 121
f 24 121 120
f 25 26 122
f 25 122 121
f 26 27 123
f 26 123 122
f 27 28 124
f 27 124 123
f 28 29 125
f 28 125 124
f 29 30 126
f 29 126 125
f 30 31 127
f 30 127 126
f 31 32 128
f 31 128 127
f 32 33 129
f 32 129 128
f 33 34 130
f 33 130 129
f 34 35 131
f 34 131 130
f 35 36 132
f 35 132 131
f 36 37 133
f 36 133 132
f 37 38 134
f 37 134 133
f 38 39 135
f 38 135 134
f 39 40 136
f 39 136 135
f 40 41 137
f 40 137 136
f 41 42 138
f 41 138 137
f 42 43 139
f 42 139 138
f 43 44 140
f 43 140 139
f 44 45 141
f 44 141 140
f 45 46 142
f 45 142 141
f 46 47 143
f 46 143 142
f 47 48 144
f 47 144 143
f 48 49 145
f 48 145 144
f 49 50 146
f 49 146 145
f 50 51 147
f 50 147 146
f 51 52 148
f 51 148 147
f 52 53 149
f 52 149 148
f 53 54 150
f 53 150 149
f 54 55 151
f 54 151 150
f 55 56 152
f 55 152 151
f 56 57 153
f 56 153 152
f 57 58 154
f 57 154 153
f 58 59 155
f 58 155 154
f 59 60 156
f 59 156 155
f 60 61 157
f 60 157 156
f 61 62 158
f 61 158 157
f 62 63 159
f 62 159 158
f 63 64 160
f 63 160 159
f 64 65 161
f 64 161 160
f 65 66 162
f 65 162 161
f 66 67 163
f 66 163 162
f 67 68 164
f 67 164 163
f 68 69 165
f 68 165 164
f 69 70 166
f 69 166 165
f 70 71 167
f 70 167 166
f 71 72 168
f 71 168 167
f 72 73 169
f 72 169 168
f 73 74 170
f 73 170 169
f 74 75 171
f 74 171 170
f 75 76 172
f 75 172 171
f 76 77 173
f 76 173 172
f 77 78 174
f 77 174 173
f 78 79 175
f 78 175 174
f 79 80 176
f 79 176 175
f 80 81 177
f 80 177 176
f 81 82 178
f 81 178 177
f 82 83 179
f 82 179 178
f 83 84 180
f 83 180 179
f 84 85 181
f 84 181 180
f 85 86 182
f 85 182 181
f 86 87 183
f 86 183 182
f 87 88 184
f 87 184 183
f 88 89 185
f 88 185 184
f 89 90 186
f 89 186 185
f 90 91 187
f 90 187 186
f 91 92 188
f 91 188 187
f 92 93 189
f 92 189 188
f 93 94 190
f 93 190 189
f 94 95 191
f 94 191 190
f 95 96 192
f 95 192 191
f 96 1 97
f 96 97 192
